<svg xmlns="http://www.w3.org/2000/svg" width="800" height="600" viewBox="0 0 800 600">
  <!-- 背景色，采用淡米黄色 -->
  <rect width="100%" height="100%" fill="#f5f2eb" />
  
  <!-- 阴影层 -->
  <path d="M682.393,193.817L695.665,200.105L708.542,195.426L702.995,186.071L720.626,171.755L720.626,171.755L731.522,175.99L735.88,168.396L729.144,163.578L701.806,159.783L680.411,164.016L673.082,169.126L659.809,167.082L637.226,157.302L607.907,155.551L606.322,153.216L574.23,157.594L558.976,152.487L546.693,141.109L545.901,131.924L521.535,110.799L510.243,107.887L493.008,94.496L478.151,88.094L480.924,82.422L466.661,68.466L473.396,52.195L470.029,44.79L456.954,40L446.653,42.032L449.03,52.34L441.106,67.303L431.201,61.491L415.749,65.123L415.749,65.123L395.147,65.269L392.571,73.989L402.08,91.295L376.723,89.258L367.809,77.187L357.904,81.84L356.121,89.84L389.6,117.207L398.514,131.633L394.552,134.402L350.574,132.362L348.791,137.902L336.509,135.423L328.189,126.094L319.472,141.401L314.52,142.713L303.822,157.011L301.049,167.666L291.738,166.352L280.446,177.889L250.335,192.94L243.005,194.548L239.638,186.948L219.035,182.126L211.705,189.286L193.282,191.771L190.707,200.836L179.415,201.128L169.906,206.978L163.765,218.83L178.226,222.05L175.255,238.011L204.97,265.127L222.205,266.741L233.1,290.076L238.647,295.803L216.064,305.352L206.951,320.933L202.197,320.051L199.621,333.436L186.349,331.376L175.849,324.022L169.708,333.877L169.708,333.877L119.985,342.265L117.013,349.773L96.609,356.253L83.138,367.744L73.233,371.134L71.847,383.075L64.913,385.73L64.12,396.646L81.752,401.368L95.222,413.178L92.845,415.393L92.845,415.393L96.213,420.71L92.449,432.974L109.485,439.774L104.731,446.724L89.675,450.125L82.544,445.541L82.544,445.541L69.668,449.682L68.479,460.482L83.534,463.737L85.119,486.838L80.959,493.062L80.959,493.062L95.024,496.471L93.637,510.259L102.552,503.29L115.825,512.633L130.881,509.518L130.881,509.518L141.776,504.476L151.681,516.489L151.681,516.489L151.879,519.012L151.879,519.012L157.624,522.128L157.624,522.128L158.218,524.205L158.218,524.205L158.813,525.096L158.813,525.096L159.407,527.322L159.011,527.471L159.407,527.322L159.407,527.471L159.011,527.471L159.407,527.471L160.199,527.322L160.199,527.322L164.557,528.658L164.557,528.806L164.557,528.658L164.557,528.806L169.114,536.527L186.349,538.308L186.349,538.308L191.103,534.151L191.103,534.151L193.48,528.213L206.159,526.58L206.159,526.58L221.412,514.858L221.412,514.858L219.828,509.221L219.828,509.221L234.883,521.979L241.619,510.704L247.165,516.786L257.07,513.374L260.24,518.418L280.446,517.38L290.55,519.754L297.483,514.709L312.539,512.781L326.01,520.941L331.556,541.427L347.404,545.289L357.309,555.839L365.035,555.987L365.035,555.987L388.411,560L394.949,556.581L391.581,547.22L381.081,547.072L377.912,532.518L391.383,538.308L389.402,532.963L402.477,530.142L400.892,524.502L412.183,525.096L417.334,510.556L439.125,502.548L439.125,502.548L448.238,508.776L462.501,507.59L481.32,511.743L481.518,511.743L481.32,511.743L481.518,511.743L482.311,510.853L482.311,510.853L476.764,503.586L489.443,502.993L502.913,510.704L509.847,504.328L521.931,487.579L540.156,484.468L539.958,481.061L534.808,481.209L534.015,469.066L543.524,467.142L538.77,456.783L554.023,451.9L543.92,430.166L540.552,434.6L527.082,430.905L509.847,416.132L500.932,415.688L500.338,397.531L492.414,391.039L499.942,369.512L512.422,371.576L515.988,364.208L527.676,367.302L547.09,363.029L552.637,367.449L578.39,370.986L586.908,361.556L604.143,356.842L604.143,356.842L615.434,360.083L621.575,355.958L636.037,358.315L637.82,354.338L642.376,350.215L642.376,350.215L652.281,343.885L652.281,343.885L652.281,343.885L658.422,346.682L669.12,336.673L682.591,336.82L688.336,325.198L688.336,325.051L688.336,325.051L688.336,325.198L693.684,320.198L695.665,307.409L683.185,306.821L676.846,287.58L665.158,291.25L657.63,276.131L657.63,276.131L648.517,261.901L642.971,262.048L645.546,246.509L655.055,238.45L637.424,219.415L654.856,215.757L649.904,207.125L657.036,200.397L682.393,193.817Z" fill="#d1e7dd" opacity="0.3" transform="translate(5, 8)" />
  
  <!-- 填充与主轮廓 -->
  <path d="M682.393,193.817L695.665,200.105L708.542,195.426L702.995,186.071L720.626,171.755L720.626,171.755L731.522,175.99L735.88,168.396L729.144,163.578L701.806,159.783L680.411,164.016L673.082,169.126L659.809,167.082L637.226,157.302L607.907,155.551L606.322,153.216L574.23,157.594L558.976,152.487L546.693,141.109L545.901,131.924L521.535,110.799L510.243,107.887L493.008,94.496L478.151,88.094L480.924,82.422L466.661,68.466L473.396,52.195L470.029,44.79L456.954,40L446.653,42.032L449.03,52.34L441.106,67.303L431.201,61.491L415.749,65.123L415.749,65.123L395.147,65.269L392.571,73.989L402.08,91.295L376.723,89.258L367.809,77.187L357.904,81.84L356.121,89.84L389.6,117.207L398.514,131.633L394.552,134.402L350.574,132.362L348.791,137.902L336.509,135.423L328.189,126.094L319.472,141.401L314.52,142.713L303.822,157.011L301.049,167.666L291.738,166.352L280.446,177.889L250.335,192.94L243.005,194.548L239.638,186.948L219.035,182.126L211.705,189.286L193.282,191.771L190.707,200.836L179.415,201.128L169.906,206.978L163.765,218.83L178.226,222.05L175.255,238.011L204.97,265.127L222.205,266.741L233.1,290.076L238.647,295.803L216.064,305.352L206.951,320.933L202.197,320.051L199.621,333.436L186.349,331.376L175.849,324.022L169.708,333.877L169.708,333.877L119.985,342.265L117.013,349.773L96.609,356.253L83.138,367.744L73.233,371.134L71.847,383.075L64.913,385.73L64.12,396.646L81.752,401.368L95.222,413.178L92.845,415.393L92.845,415.393L96.213,420.71L92.449,432.974L109.485,439.774L104.731,446.724L89.675,450.125L82.544,445.541L82.544,445.541L69.668,449.682L68.479,460.482L83.534,463.737L85.119,486.838L80.959,493.062L80.959,493.062L95.024,496.471L93.637,510.259L102.552,503.29L115.825,512.633L130.881,509.518L130.881,509.518L141.776,504.476L151.681,516.489L151.681,516.489L151.879,519.012L151.879,519.012L157.624,522.128L157.624,522.128L158.218,524.205L158.218,524.205L158.813,525.096L158.813,525.096L159.407,527.322L159.011,527.471L159.407,527.322L159.407,527.471L159.011,527.471L159.407,527.471L160.199,527.322L160.199,527.322L164.557,528.658L164.557,528.806L164.557,528.658L164.557,528.806L169.114,536.527L186.349,538.308L186.349,538.308L191.103,534.151L191.103,534.151L193.48,528.213L206.159,526.58L206.159,526.58L221.412,514.858L221.412,514.858L219.828,509.221L219.828,509.221L234.883,521.979L241.619,510.704L247.165,516.786L257.07,513.374L260.24,518.418L280.446,517.38L290.55,519.754L297.483,514.709L312.539,512.781L326.01,520.941L331.556,541.427L347.404,545.289L357.309,555.839L365.035,555.987L365.035,555.987L388.411,560L394.949,556.581L391.581,547.22L381.081,547.072L377.912,532.518L391.383,538.308L389.402,532.963L402.477,530.142L400.892,524.502L412.183,525.096L417.334,510.556L439.125,502.548L439.125,502.548L448.238,508.776L462.501,507.59L481.32,511.743L481.518,511.743L481.32,511.743L481.518,511.743L482.311,510.853L482.311,510.853L476.764,503.586L489.443,502.993L502.913,510.704L509.847,504.328L521.931,487.579L540.156,484.468L539.958,481.061L534.808,481.209L534.015,469.066L543.524,467.142L538.77,456.783L554.023,451.9L543.92,430.166L540.552,434.6L527.082,430.905L509.847,416.132L500.932,415.688L500.338,397.531L492.414,391.039L499.942,369.512L512.422,371.576L515.988,364.208L527.676,367.302L547.09,363.029L552.637,367.449L578.39,370.986L586.908,361.556L604.143,356.842L604.143,356.842L615.434,360.083L621.575,355.958L636.037,358.315L637.82,354.338L642.376,350.215L642.376,350.215L652.281,343.885L652.281,343.885L652.281,343.885L658.422,346.682L669.12,336.673L682.591,336.82L688.336,325.198L688.336,325.051L688.336,325.051L688.336,325.198L693.684,320.198L695.665,307.409L683.185,306.821L676.846,287.58L665.158,291.25L657.63,276.131L657.63,276.131L648.517,261.901L642.971,262.048L645.546,246.509L655.055,238.45L637.424,219.415L654.856,215.757L649.904,207.125L657.036,200.397L682.393,193.817Z" fill="#e6f4ea" stroke="#137333" stroke-width="4" stroke-linejoin="round" stroke-linecap="round" />
  
  <!-- 内发光描边 -->
  <path d="M682.393,193.817L695.665,200.105L708.542,195.426L702.995,186.071L720.626,171.755L720.626,171.755L731.522,175.99L735.88,168.396L729.144,163.578L701.806,159.783L680.411,164.016L673.082,169.126L659.809,167.082L637.226,157.302L607.907,155.551L606.322,153.216L574.23,157.594L558.976,152.487L546.693,141.109L545.901,131.924L521.535,110.799L510.243,107.887L493.008,94.496L478.151,88.094L480.924,82.422L466.661,68.466L473.396,52.195L470.029,44.79L456.954,40L446.653,42.032L449.03,52.34L441.106,67.303L431.201,61.491L415.749,65.123L415.749,65.123L395.147,65.269L392.571,73.989L402.08,91.295L376.723,89.258L367.809,77.187L357.904,81.84L356.121,89.84L389.6,117.207L398.514,131.633L394.552,134.402L350.574,132.362L348.791,137.902L336.509,135.423L328.189,126.094L319.472,141.401L314.52,142.713L303.822,157.011L301.049,167.666L291.738,166.352L280.446,177.889L250.335,192.94L243.005,194.548L239.638,186.948L219.035,182.126L211.705,189.286L193.282,191.771L190.707,200.836L179.415,201.128L169.906,206.978L163.765,218.83L178.226,222.05L175.255,238.011L204.97,265.127L222.205,266.741L233.1,290.076L238.647,295.803L216.064,305.352L206.951,320.933L202.197,320.051L199.621,333.436L186.349,331.376L175.849,324.022L169.708,333.877L169.708,333.877L119.985,342.265L117.013,349.773L96.609,356.253L83.138,367.744L73.233,371.134L71.847,383.075L64.913,385.73L64.12,396.646L81.752,401.368L95.222,413.178L92.845,415.393L92.845,415.393L96.213,420.71L92.449,432.974L109.485,439.774L104.731,446.724L89.675,450.125L82.544,445.541L82.544,445.541L69.668,449.682L68.479,460.482L83.534,463.737L85.119,486.838L80.959,493.062L80.959,493.062L95.024,496.471L93.637,510.259L102.552,503.29L115.825,512.633L130.881,509.518L130.881,509.518L141.776,504.476L151.681,516.489L151.681,516.489L151.879,519.012L151.879,519.012L157.624,522.128L157.624,522.128L158.218,524.205L158.218,524.205L158.813,525.096L158.813,525.096L159.407,527.322L159.011,527.471L159.407,527.322L159.407,527.471L159.011,527.471L159.407,527.471L160.199,527.322L160.199,527.322L164.557,528.658L164.557,528.806L164.557,528.658L164.557,528.806L169.114,536.527L186.349,538.308L186.349,538.308L191.103,534.151L191.103,534.151L193.48,528.213L206.159,526.58L206.159,526.58L221.412,514.858L221.412,514.858L219.828,509.221L219.828,509.221L234.883,521.979L241.619,510.704L247.165,516.786L257.07,513.374L260.24,518.418L280.446,517.38L290.55,519.754L297.483,514.709L312.539,512.781L326.01,520.941L331.556,541.427L347.404,545.289L357.309,555.839L365.035,555.987L365.035,555.987L388.411,560L394.949,556.581L391.581,547.22L381.081,547.072L377.912,532.518L391.383,538.308L389.402,532.963L402.477,530.142L400.892,524.502L412.183,525.096L417.334,510.556L439.125,502.548L439.125,502.548L448.238,508.776L462.501,507.59L481.32,511.743L481.518,511.743L481.32,511.743L481.518,511.743L482.311,510.853L482.311,510.853L476.764,503.586L489.443,502.993L502.913,510.704L509.847,504.328L521.931,487.579L540.156,484.468L539.958,481.061L534.808,481.209L534.015,469.066L543.524,467.142L538.77,456.783L554.023,451.9L543.92,430.166L540.552,434.6L527.082,430.905L509.847,416.132L500.932,415.688L500.338,397.531L492.414,391.039L499.942,369.512L512.422,371.576L515.988,364.208L527.676,367.302L547.09,363.029L552.637,367.449L578.39,370.986L586.908,361.556L604.143,356.842L604.143,356.842L615.434,360.083L621.575,355.958L636.037,358.315L637.82,354.338L642.376,350.215L642.376,350.215L652.281,343.885L652.281,343.885L652.281,343.885L658.422,346.682L669.12,336.673L682.591,336.82L688.336,325.198L688.336,325.051L688.336,325.051L688.336,325.198L693.684,320.198L695.665,307.409L683.185,306.821L676.846,287.58L665.158,291.25L657.63,276.131L657.63,276.131L648.517,261.901L642.971,262.048L645.546,246.509L655.055,238.45L637.424,219.415L654.856,215.757L649.904,207.125L657.036,200.397L682.393,193.817Z" fill="none" stroke="#2e7d32" stroke-width="1.5" stroke-linejoin="round" stroke-linecap="round" opacity="0.6" />
</svg>