<svg xmlns="http://www.w3.org/2000/svg" width="800" height="600" viewBox="0 0 800 600">
  <!-- 背景色，采用淡米黄色 -->
  <rect width="100%" height="100%" fill="#f5f2eb" />
  
  <!-- 阴影层 -->
  <path d="M516.204,301.183L541.125,298.915L548.676,297.781L548.299,284.463L557.361,278.515L561.137,265.35L561.137,265.35L558.871,260.398L567.745,247.952L547.733,241.025L535.838,243.145L516.581,240.459L512.617,246.255L512.617,246.255L509.973,256.013L500.911,261.53L498.268,247.386L491.472,243.428L482.032,247.669L476.934,239.046L484.675,228.872L486.563,219.551L473.725,208.257L458.621,201.202L464.096,195.277L453.524,192.598L448.992,186.111L453.712,178.782L443.706,160.609L443.706,160.609L437.287,147.518L437.287,147.518L438.609,145.407L438.609,145.407L438.798,144.844L438.798,144.844L439.364,133.731L445.405,131.341L448.992,117.705L463.907,119.111L463.907,119.111L469.949,125.857L487.318,125.436L493.359,122.062L513.372,128.107L521.112,127.685L521.112,127.685L525.266,118.408L525.266,118.408L524.699,115.738L524.699,115.738L517.147,110.681L517.147,110.681L509.596,111.804L510.729,102.956L519.413,99.164L512.239,92.426L501.855,92.286L501.855,92.286L488.451,92.286L482.598,83.866L482.598,83.866L482.032,82.323L482.032,82.323L481.276,79.798L481.276,79.798L469.571,69L469.571,69L468.438,68.299L468.438,68.299L458.243,62.693L456.733,50.223L449.748,46.161L436.343,47.842L419.54,40L408.968,41.12L401.038,47.561L399.15,59.749L394.053,64.515L394.053,64.374L394.053,64.374L394.053,64.515L388.578,75.591L375.74,75.45L365.545,84.989L359.692,82.323L359.692,82.323L359.692,82.323L350.252,88.357L350.252,88.357L345.91,92.286L340.435,97.059L342.323,119.673L327.786,134.294L331.373,155.259L331.373,155.259L351.385,162.58L357.427,160.046L358.748,168.214L340.435,168.637L329.485,173.427L329.863,179.768L344.589,189.777L331.184,194.431L332.128,203.6L332.128,203.6L336.093,226.188L328.352,232.828L314.948,232.263L314.948,232.263L286.44,223.505L276.433,228.166L276.433,228.166L270.581,226.753L265.861,215.315L265.861,215.315L264.539,210.798L264.539,210.798L260.763,207.41L260.763,207.41L252.645,213.056L252.834,216.303L235.465,219.268L223.948,235.23L222.815,247.245L216.396,254.033L226.214,261.955L226.591,276.108L215.641,281.205L230.179,290.412L243.583,290.696L232.444,297.214L232.633,307.988L225.836,309.405L229.235,320.043L241.884,314.369L247.736,320.327L242.45,334.661L245.282,354.688L245.282,354.688L237.353,357.815L241.695,376.868L253.778,377.721L254.722,389.959L254.533,389.816L254.533,389.816L254.722,389.959L242.262,407.188L224.137,408.327L224.137,408.327L215.075,408.327L215.075,408.327L206.201,413.314L206.201,413.314L206.39,423.005L198.272,431.56L192.042,444.827L196.384,455.532L196.762,469.099L205.258,475.671L201.104,489.965L203.747,499.262L218.473,502.266L218.473,502.266L238.297,503.268L243.961,521.876L265.861,519.155L266.427,519.155L266.616,519.155L266.427,519.155L265.861,519.155L266.616,519.155L293.425,519.441L302.487,521.876L298.523,534.481L303.242,544.083L315.136,551.251L327.786,541.073L337.792,540.929L337.792,540.929L346.854,534.338L346.854,534.338L360.825,544.083L360.825,544.083L354.595,552.398L359.126,560L394.619,557.418L414.065,546.09L428.414,541.503L452.579,542.363L477.501,538.35L482.787,528.034L505.065,522.019L508.652,515.862L508.652,499.405L487.318,493.827L479.766,488.679L479.577,476.385L512.05,470.67L520.168,464.099L541.314,468.242L549.998,448.395L556.795,439.691L543.768,436.98L538.293,406.476L548.676,386.401L577.185,371.036L581.149,360.8L598.141,356.536L598.707,356.962L607.958,353.125L607.958,345.454L599.274,342.755L595.498,335.229L595.498,335.229L582.66,332.39L582.66,332.39L581.716,331.822L581.716,331.822L579.828,328.274L579.828,328.274L577.562,327.422L577.562,327.422L563.403,326.429L563.403,326.429L553.963,322.172L543.579,323.307L543.39,323.307L543.579,323.307L543.39,323.307L542.257,312.384L542.257,312.384L529.986,315.22L528.287,309.547L522.056,308.413L509.785,315.22L487.129,314.227L486.751,325.01L463.907,316.922L445.972,320.327L441.252,314.511L456.544,299.907L465.795,295.372L469.76,299.198L486.563,297.639L487.884,305.435L496.002,299.057ZM528.287,309.547L542.824,307.279L541.125,298.915L516.204,301.183L522.056,308.413Z" fill="#d1e7dd" opacity="0.3" transform="translate(5, 8)" />
  
  <!-- 填充与主轮廓 -->
  <path d="M516.204,301.183L541.125,298.915L548.676,297.781L548.299,284.463L557.361,278.515L561.137,265.35L561.137,265.35L558.871,260.398L567.745,247.952L547.733,241.025L535.838,243.145L516.581,240.459L512.617,246.255L512.617,246.255L509.973,256.013L500.911,261.53L498.268,247.386L491.472,243.428L482.032,247.669L476.934,239.046L484.675,228.872L486.563,219.551L473.725,208.257L458.621,201.202L464.096,195.277L453.524,192.598L448.992,186.111L453.712,178.782L443.706,160.609L443.706,160.609L437.287,147.518L437.287,147.518L438.609,145.407L438.609,145.407L438.798,144.844L438.798,144.844L439.364,133.731L445.405,131.341L448.992,117.705L463.907,119.111L463.907,119.111L469.949,125.857L487.318,125.436L493.359,122.062L513.372,128.107L521.112,127.685L521.112,127.685L525.266,118.408L525.266,118.408L524.699,115.738L524.699,115.738L517.147,110.681L517.147,110.681L509.596,111.804L510.729,102.956L519.413,99.164L512.239,92.426L501.855,92.286L501.855,92.286L488.451,92.286L482.598,83.866L482.598,83.866L482.032,82.323L482.032,82.323L481.276,79.798L481.276,79.798L469.571,69L469.571,69L468.438,68.299L468.438,68.299L458.243,62.693L456.733,50.223L449.748,46.161L436.343,47.842L419.54,40L408.968,41.12L401.038,47.561L399.15,59.749L394.053,64.515L394.053,64.374L394.053,64.374L394.053,64.515L388.578,75.591L375.74,75.45L365.545,84.989L359.692,82.323L359.692,82.323L359.692,82.323L350.252,88.357L350.252,88.357L345.91,92.286L340.435,97.059L342.323,119.673L327.786,134.294L331.373,155.259L331.373,155.259L351.385,162.58L357.427,160.046L358.748,168.214L340.435,168.637L329.485,173.427L329.863,179.768L344.589,189.777L331.184,194.431L332.128,203.6L332.128,203.6L336.093,226.188L328.352,232.828L314.948,232.263L314.948,232.263L286.44,223.505L276.433,228.166L276.433,228.166L270.581,226.753L265.861,215.315L265.861,215.315L264.539,210.798L264.539,210.798L260.763,207.41L260.763,207.41L252.645,213.056L252.834,216.303L235.465,219.268L223.948,235.23L222.815,247.245L216.396,254.033L226.214,261.955L226.591,276.108L215.641,281.205L230.179,290.412L243.583,290.696L232.444,297.214L232.633,307.988L225.836,309.405L229.235,320.043L241.884,314.369L247.736,320.327L242.45,334.661L245.282,354.688L245.282,354.688L237.353,357.815L241.695,376.868L253.778,377.721L254.722,389.959L254.533,389.816L254.533,389.816L254.722,389.959L242.262,407.188L224.137,408.327L224.137,408.327L215.075,408.327L215.075,408.327L206.201,413.314L206.201,413.314L206.39,423.005L198.272,431.56L192.042,444.827L196.384,455.532L196.762,469.099L205.258,475.671L201.104,489.965L203.747,499.262L218.473,502.266L218.473,502.266L238.297,503.268L243.961,521.876L265.861,519.155L266.427,519.155L266.616,519.155L266.427,519.155L265.861,519.155L266.616,519.155L293.425,519.441L302.487,521.876L298.523,534.481L303.242,544.083L315.136,551.251L327.786,541.073L337.792,540.929L337.792,540.929L346.854,534.338L346.854,534.338L360.825,544.083L360.825,544.083L354.595,552.398L359.126,560L394.619,557.418L414.065,546.09L428.414,541.503L452.579,542.363L477.501,538.35L482.787,528.034L505.065,522.019L508.652,515.862L508.652,499.405L487.318,493.827L479.766,488.679L479.577,476.385L512.05,470.67L520.168,464.099L541.314,468.242L549.998,448.395L556.795,439.691L543.768,436.98L538.293,406.476L548.676,386.401L577.185,371.036L581.149,360.8L598.141,356.536L598.707,356.962L607.958,353.125L607.958,345.454L599.274,342.755L595.498,335.229L595.498,335.229L582.66,332.39L582.66,332.39L581.716,331.822L581.716,331.822L579.828,328.274L579.828,328.274L577.562,327.422L577.562,327.422L563.403,326.429L563.403,326.429L553.963,322.172L543.579,323.307L543.39,323.307L543.579,323.307L543.39,323.307L542.257,312.384L542.257,312.384L529.986,315.22L528.287,309.547L522.056,308.413L509.785,315.22L487.129,314.227L486.751,325.01L463.907,316.922L445.972,320.327L441.252,314.511L456.544,299.907L465.795,295.372L469.76,299.198L486.563,297.639L487.884,305.435L496.002,299.057ZM528.287,309.547L542.824,307.279L541.125,298.915L516.204,301.183L522.056,308.413Z" fill="#e6f4ea" stroke="#137333" stroke-width="4" stroke-linejoin="round" stroke-linecap="round" />
  
  <!-- 内发光描边 -->
  <path d="M516.204,301.183L541.125,298.915L548.676,297.781L548.299,284.463L557.361,278.515L561.137,265.35L561.137,265.35L558.871,260.398L567.745,247.952L547.733,241.025L535.838,243.145L516.581,240.459L512.617,246.255L512.617,246.255L509.973,256.013L500.911,261.53L498.268,247.386L491.472,243.428L482.032,247.669L476.934,239.046L484.675,228.872L486.563,219.551L473.725,208.257L458.621,201.202L464.096,195.277L453.524,192.598L448.992,186.111L453.712,178.782L443.706,160.609L443.706,160.609L437.287,147.518L437.287,147.518L438.609,145.407L438.609,145.407L438.798,144.844L438.798,144.844L439.364,133.731L445.405,131.341L448.992,117.705L463.907,119.111L463.907,119.111L469.949,125.857L487.318,125.436L493.359,122.062L513.372,128.107L521.112,127.685L521.112,127.685L525.266,118.408L525.266,118.408L524.699,115.738L524.699,115.738L517.147,110.681L517.147,110.681L509.596,111.804L510.729,102.956L519.413,99.164L512.239,92.426L501.855,92.286L501.855,92.286L488.451,92.286L482.598,83.866L482.598,83.866L482.032,82.323L482.032,82.323L481.276,79.798L481.276,79.798L469.571,69L469.571,69L468.438,68.299L468.438,68.299L458.243,62.693L456.733,50.223L449.748,46.161L436.343,47.842L419.54,40L408.968,41.12L401.038,47.561L399.15,59.749L394.053,64.515L394.053,64.374L394.053,64.374L394.053,64.515L388.578,75.591L375.74,75.45L365.545,84.989L359.692,82.323L359.692,82.323L359.692,82.323L350.252,88.357L350.252,88.357L345.91,92.286L340.435,97.059L342.323,119.673L327.786,134.294L331.373,155.259L331.373,155.259L351.385,162.58L357.427,160.046L358.748,168.214L340.435,168.637L329.485,173.427L329.863,179.768L344.589,189.777L331.184,194.431L332.128,203.6L332.128,203.6L336.093,226.188L328.352,232.828L314.948,232.263L314.948,232.263L286.44,223.505L276.433,228.166L276.433,228.166L270.581,226.753L265.861,215.315L265.861,215.315L264.539,210.798L264.539,210.798L260.763,207.41L260.763,207.41L252.645,213.056L252.834,216.303L235.465,219.268L223.948,235.23L222.815,247.245L216.396,254.033L226.214,261.955L226.591,276.108L215.641,281.205L230.179,290.412L243.583,290.696L232.444,297.214L232.633,307.988L225.836,309.405L229.235,320.043L241.884,314.369L247.736,320.327L242.45,334.661L245.282,354.688L245.282,354.688L237.353,357.815L241.695,376.868L253.778,377.721L254.722,389.959L254.533,389.816L254.533,389.816L254.722,389.959L242.262,407.188L224.137,408.327L224.137,408.327L215.075,408.327L215.075,408.327L206.201,413.314L206.201,413.314L206.39,423.005L198.272,431.56L192.042,444.827L196.384,455.532L196.762,469.099L205.258,475.671L201.104,489.965L203.747,499.262L218.473,502.266L218.473,502.266L238.297,503.268L243.961,521.876L265.861,519.155L266.427,519.155L266.616,519.155L266.427,519.155L265.861,519.155L266.616,519.155L293.425,519.441L302.487,521.876L298.523,534.481L303.242,544.083L315.136,551.251L327.786,541.073L337.792,540.929L337.792,540.929L346.854,534.338L346.854,534.338L360.825,544.083L360.825,544.083L354.595,552.398L359.126,560L394.619,557.418L414.065,546.09L428.414,541.503L452.579,542.363L477.501,538.35L482.787,528.034L505.065,522.019L508.652,515.862L508.652,499.405L487.318,493.827L479.766,488.679L479.577,476.385L512.05,470.67L520.168,464.099L541.314,468.242L549.998,448.395L556.795,439.691L543.768,436.98L538.293,406.476L548.676,386.401L577.185,371.036L581.149,360.8L598.141,356.536L598.707,356.962L607.958,353.125L607.958,345.454L599.274,342.755L595.498,335.229L595.498,335.229L582.66,332.39L582.66,332.39L581.716,331.822L581.716,331.822L579.828,328.274L579.828,328.274L577.562,327.422L577.562,327.422L563.403,326.429L563.403,326.429L553.963,322.172L543.579,323.307L543.39,323.307L543.579,323.307L543.39,323.307L542.257,312.384L542.257,312.384L529.986,315.22L528.287,309.547L522.056,308.413L509.785,315.22L487.129,314.227L486.751,325.01L463.907,316.922L445.972,320.327L441.252,314.511L456.544,299.907L465.795,295.372L469.76,299.198L486.563,297.639L487.884,305.435L496.002,299.057ZM528.287,309.547L542.824,307.279L541.125,298.915L516.204,301.183L522.056,308.413Z" fill="none" stroke="#2e7d32" stroke-width="1.5" stroke-linejoin="round" stroke-linecap="round" opacity="0.6" />
</svg>