<svg xmlns="http://www.w3.org/2000/svg" width="800" height="600" viewBox="0 0 800 600">
  <!-- 背景色，采用淡米黄色 -->
  <rect width="100%" height="100%" fill="#f5f2eb" />
  
  <!-- 阴影层 -->
  <path d="M463.264,195.908L458.923,199.433L460.289,201.736L457.118,202.888L453.85,201.34L453.85,201.34L447.607,202.96L445.851,204.617L447.07,206.742L442.778,207.643L447.119,212.33L444.778,214.314L444.144,218.14L445.509,218.104L447.753,221.608L447.753,221.608L449.607,225.331L452.485,224.427L454.046,229.165L457.118,229.31L459.167,227.645L461.899,227.356L466.24,229.382L469.703,228.948L471.508,229.997L471.898,233.219L474.532,234.667L474.532,234.667L474.825,234.849L474.825,234.849L477.849,237.638L477.849,237.638L478.044,238.291L478.044,238.291L478.19,238.689L478.19,238.689L479.702,240.865L483.166,240.865L483.166,240.865L485.848,240.901L487.702,242.642L485.458,243.621L485.166,245.907L487.117,245.617L487.117,245.617L489.068,246.924L489.068,246.924L489.214,247.614L489.214,247.614L488.141,250.01L488.141,250.01L486.141,250.119L480.971,248.558L479.41,249.429L474.922,249.538L473.361,247.795L473.361,247.795L469.508,247.432L468.581,250.955L467.02,251.573L466.874,254.444L466.874,254.444L466.825,254.589L466.825,254.589L466.484,255.134L466.484,255.134L468.142,258.517L468.142,258.517L470.727,263.212L469.508,265.106L470.679,266.781L473.41,267.474L471.996,269.004L475.898,270.827L479.215,273.745L478.727,276.153L476.727,278.782L478.044,281.01L480.483,279.914L482.239,280.937L482.922,284.591L485.263,283.165L485.946,280.644L485.946,280.644L486.97,279.147L491.946,279.841L495.019,279.293L500.189,281.083L497.896,284.298L498.482,285.578L498.482,285.578L497.506,288.979L495.165,290.516L495.262,293.957L493.311,294.25L493.75,296.411L489.995,296.997L490.433,298.462L493.604,297.729L493.604,297.729L493.897,300.552L493.945,300.552L493.897,300.552L493.945,300.552L496.628,300.258L499.067,301.358L499.067,301.358L502.725,301.615L502.725,301.615L503.311,301.835L503.311,301.835L503.799,302.752L503.799,302.752L504.042,302.898L504.042,302.898L507.359,303.632L507.359,303.632L508.335,305.576L510.579,306.273L510.579,308.256L508.189,309.247L507.506,310.569L511.018,309.614L511.603,310.569L515.359,312.075L518.334,315.75L520.529,320.163L523.261,323.806L530.724,325.794L534.431,325.279L535.358,328.778L544.333,333.754L548.186,333.681L553.308,328.815L550.625,326.605L547.65,319.353L552.04,318.029L551.259,316.191L555.893,314.096L565.697,315.97L569.941,315.566L573.355,313.655L576.477,314.573L578.331,312.957L580.769,312.405L576.428,315.492L575.94,317.147L578.77,316.779L582.867,313.618L586.525,311.744L587.647,309.798L592.232,307.375L594.232,304.256L599.305,299.452L606.231,297.766L609.743,294.03L609.695,291.943L605.987,287.077L613.645,268.348L622.182,262.156L627.108,262.484L625.84,260.009L627.45,256.225L631.205,254.444L633.742,254.916L635.498,253.281L638.62,253.499L642.132,252.045L646.961,251.282L649.594,248.993L651.35,250.846L653.692,250.483L652.277,248.267L651.594,247.287L651.594,247.287L652.277,244.746L649.302,243.367L649.302,243.367L646.961,244.057L646.961,244.057L646.668,243.658L646.668,243.658L645.79,240.937L642.961,239.052L644.863,236.587L643.692,230.902L641.4,231.843L637.839,228.405L635.254,229.02L635.254,229.02L636.229,225.837L631.986,220.885L631.108,217.635L632.522,211.32L628.474,207.607L629.937,205.878L628.913,203.969L624.523,203.5L622.474,205.121L618.621,204.581L608.573,205.373L604.914,204.329L602.085,202.276L602.914,199.541L598.72,199.109L597.5,199.829L596.086,197.274L599.256,193.499L597.744,192.493L593.744,194.578L588.964,194.721L586.867,192.529L585.501,192.924L581.55,190.337L580.672,188.147L576.331,187.644L577.306,185.957L575.014,185.347L572.428,182.262L574.575,180.218L576.867,171.263L578.038,170.547L582.818,171.406L582.818,171.406L584.672,170.762L585.696,167.578L580.818,166.719L579.648,164.002L581.843,161.894L587.598,162.823L591.013,160.573L591.061,157.752L594.622,157.181L599.598,152.471L598.085,150.51L600.817,150.546L601.207,148.8L604.378,146.021L603.597,143.279L601.402,143.778L600.28,145.772L597.988,144.81L591.988,144.917L583.062,143.955L580.623,142.994L575.989,144.347L572.331,141.037L572.233,138.511L566.429,140.219L564.185,142.496L559.063,140.432L555.308,140.717L547.259,140.041L538.089,141.891L535.553,143.457L533.065,141.037L534.041,137.693L533.065,134.245L531.358,132.469L526.968,130.835L530.431,127.569L529.407,124.412L522.48,121.008L521.797,116.65L518.042,114.632L517.749,111.73L515.944,110.103L516.529,106.073L519.554,103.635L524.139,104.2L525.017,106.886L528.578,106.956L531.992,101.234L532.382,99.08L526.724,94.495L529.699,93.719L530.285,89.913L528.529,88.363L524.431,87.025L528.138,86.286L528.919,84.421L527.017,82.38L524.383,81.642L522.285,82.556L522.871,84.35L520.822,86.497L514.676,86.04L517.749,82.556L513.164,80.657L512.53,79.251L513.847,75.35L508.091,73.208L503.652,70.786L503.408,69.137L509.213,66.752L510.188,65.35L506.14,61.53L507.359,58.484L505.262,55.964L495.458,48.587L494.092,46.282L489.409,42.616L489.702,40.453L487.995,40L482.385,42.372L479.068,42.861L473.8,41.221L468.776,41.221L468.24,42.233L463.899,41.256L460.728,42.616L460.63,44.85L456.923,47.993L456.923,47.993L458.728,47.818L458.972,51.627L457.167,52.396L452.582,52.466L452.582,52.466L448.046,50.823L448.046,50.823L441.168,51.907L441.168,51.907L436.973,51.837L433.803,50.649L432.583,52.257L432.583,52.257L427.559,52.851L427.559,52.851L426.974,53.376L426.974,53.376L426.681,54.635L426.681,54.635L425.511,55.264L425.511,55.264L424.242,55.194L424.242,55.194L423.95,55.124L423.95,55.124L421.852,56.104L421.852,56.104L421.218,56.489L421.218,56.489L420.048,57.014L420.048,57.014L419.121,57.679L419.121,57.679L419.17,57.714L419.17,57.714L417.267,59.954L418.145,65.42L419.804,70.786L418.584,73.875L409.56,73.103L412.389,76.65L414.389,76.58L417.56,81.642L416.731,87.518L410.097,90.723L406.341,90.23L404.683,92.838L400.049,93.12L397.659,94.53L394.342,94.072L390.879,94.636L387.513,91.005L385.269,90.9L382.977,93.261L378.196,93.508L379.855,90.371L376.636,88.187L371.612,89.209L370.685,91.499L364.783,94.318L363.905,98.057L362.441,99.927L356.783,99.927L355.515,102.328L357.271,104.341L354.881,106.674L349.759,106.179L347.613,105.013L347.613,104.977L347.613,105.013L347.613,104.977L346.637,102.54L343.418,98.939L340.443,93.331L335.419,94.706L333.955,93.86L332.102,95.905L325.37,99.257L322.346,99.469L319.663,102.505L313.322,104.377L309.03,107.381L306.542,107.911L301.908,110.457L295.324,111.766L293.129,113.393L296.445,115.8L295.226,117.819L297.762,120.405L292.446,121.221L290.836,118.846L288.934,119.378L288.202,122.178L284.007,122.922L283.324,120.476L275.715,118.776L272.301,120.476L269.13,119.449L256.838,120.583L259.57,117.784L260.155,113.075L259.618,107.381L257.472,103.741L261.716,102.823L263.033,101.163L261.813,99.186L261.131,92.098L260.106,87.73L256.838,84.632L256.984,81.22L254.058,77.915L251.57,77.142L251.18,78.618L248.448,79.813L242.156,79.427L239.961,80.305L233.035,78.477L229.132,80.2L228.45,83.647L226.694,83.858L225.718,86.92L229.181,90.406L226.547,92.803L221.865,93.543L216.548,92.662L215.865,94.777L211.036,99.786L204.549,105.613L205.719,108.264L205.036,109.679L207.475,112.827L205.719,113.924L209.182,118.811L206.597,119.342L206.207,122.071L206.939,127.498L196.695,125.582L191.232,126.221L186.842,128.101L184.989,129.876L183.379,129.592L182.306,132.185L178.989,134.032L178.453,135.454L184.306,137.089L182.745,142.389L180.696,143.137L181.916,144.846L184.794,145.772L186.403,149.192L188.062,146.804L189.964,149.797L188.403,152.935L185.574,154.611L182.355,154.54L178.989,159.001L174.355,160.43L178.258,162.716L186.55,169.509L188.257,173.017L193.232,174.091L191.964,174.7L193.037,178.641L194.5,179.465L192.208,181.58L195.037,184.773L196.939,184.199L196.842,186.316L199.329,188.973L201.524,190.84L203.183,194.182L207.378,199.289L211.085,200.584L210.353,203.572L211.914,203.68L211.036,208.184L209.817,209.806L212.402,212.51L211.329,213.701L213.377,217.852L218.84,218.61L219.572,219.549L223.426,217.924L226.791,219.802L230.693,220.018L229.132,223.379L225.864,226.126L220.84,227.862L217.377,227.573L211.865,229.129L208.89,228.658L207.329,231.662L202.939,232.205L199.427,233.472L196.403,232.024L194.452,234.016L194.452,234.016L196.744,239.451L195.525,241.699L192.305,242.859L190.11,239.161L187.818,238.472L185.428,244.71L181.574,246.125L190.988,248.485L190.891,250.592L192.403,254.007L194.013,253.499L202.451,255.462L205.475,253.789L206.841,255.316L204.841,256.443L205.768,258.298L211.377,257.571L211.28,258.589L219.962,257.862L220.889,260.554L219.572,261.683L221.67,265.106L221.133,266.235L220.987,274.912L222.84,277.942L227.913,278.38L229.474,281.813L233.718,281.119L230.84,288.065L228.401,288.796L228.011,291.833L225.816,294.799L225.62,300.442L222.791,302.201L223.279,306.017L221.621,307.338L226.352,309.43L223.816,312.773L219.426,312.552L217.231,315.933L217.962,318.029L216.06,320.604L208.646,320.715L202.988,322.665L201.134,321.708L197.281,322.407L195.232,319.169L195.232,319.169L193.769,319.096L192.696,315.786L189.184,316.816L188.257,318.986L185.623,318.581L183.135,321.524L180.599,321.193L173.38,327.378L170.99,327.599L170.258,329.736L170.941,335.599L172.453,337.591L177.233,340.101L175.721,342.723L175.965,345.679L173.038,345.309L170.892,349.524L166.551,349.265L165.088,354.148L158.015,354.593L157.234,359.259L153.966,361.519L152.747,366.71L155.674,369.344L152.064,372.648L151.088,375.396L153.625,378.555L152.601,384.319L154.649,386.962L156.893,387.743L160.405,387.371L163.234,389.494L165.819,388.823L166.551,391.915L172.599,392.846L175.331,392.399L173.721,396.425L178.892,401.386L178.55,406.501L180.843,406.949L183.623,411.844L185.428,413.153L186.842,420.262L189.184,420.524L192.208,424.607L188.403,427.118L188.159,428.955L194.061,427.793L198.842,429.63L199.72,431.43L197.817,435.858L198.061,438.148L191.574,445.814L189.818,451.307L186.598,453.001L185.72,456.767L180.94,460.385L179.672,466.004L177.038,467.891L175.38,471.666L170.697,472.912L170.746,476.464L169.526,478.959L171.916,480.207L170.599,483.612L172.16,485.921L169.77,488.42L172.258,493.27L170.697,496.416L167.429,496.113L167.429,494.558L164.649,494.255L163.039,496.378L163.38,501.576L156.99,504.499L152.991,504.537L151.918,506.132L149.04,505.486L146.308,508.07L149.625,508.298L147.235,512.25L148.015,513.809L152.601,514.76L152.21,517.081L154.6,517.728L156.112,520.735L153.82,522.258L153.381,524.963L155.966,527.63L159.82,528.393L162.551,530.452L165.575,530.604L167.38,535.373L169.282,535.144L173.868,537.816L177.331,538.045L176.745,536.594L179.331,536.098L181.623,539.191L185.72,536.098L187.233,538.961L188.891,537.663L193.135,538.045L192.11,540.107L195.037,542.781L198.89,541.941L202.597,543.163L202.158,544.654L202.158,544.654L204.744,544.692L205.329,542.514L207.768,544.233L209.085,543.24L212.353,544.654L216.011,543.889L216.889,545.877L220.987,546.336L221.718,547.827L225.572,548.477L226.694,550.046L230.888,550.543L235.132,552.954L235.278,554.753L239.376,553.26L245.717,553.03L246.839,551.806L249.765,554.255L256.594,554.025L256.643,552.686L260.935,552.992L262.057,557.05L261.082,560L267.715,558.621L271.52,555.212L271.715,551.308L272.837,550.007L276.154,550.505L277.764,547.521L282.446,548.821L283.812,547.483L283.812,547.483L283.91,547.559L283.91,547.559L283.91,547.598L283.91,547.598L287.031,548.974L289.958,553.222L291.811,554.025L292.641,557.127L296.836,556.284L297.714,553.987L303.567,552.073L304.689,550.658L306.152,552.341L305.469,544.463L304.835,543.622L304.835,543.622L304.494,542.246L300.884,540.947L301.372,538.618L296.884,539.649L297.08,537.014L294.787,532.588L291.421,531.405L292.982,528.164L290.934,527.668L289.47,524.734L294.104,520.545L296.006,514.456L296.836,514.874L301.128,509.742L303.616,508.525L305.859,503.929L309.42,503.664L322.005,500.134L324.249,494.179L327.858,492.663L330.98,487.398L329.37,485.505L335.663,480.132L338.199,476.049L337.516,472.988L340.101,470.911L339.906,468.57L344.638,465.966L345.125,458.236L348.979,456.428L353.856,455.335L355.466,455.75L360.441,454.507L362.344,455.976L365.758,456.315L369.66,452.926L364.978,451.043L366.295,449.463L364.831,446.943L366.1,446.153L366.1,446.153L368.929,447.958L370.051,446.604L369.124,443.371L370.441,441.041L373.66,438.9L376.148,440.101L377.123,443.596L377.221,443.559L377.123,443.596L377.221,443.559L381.416,447.469L382.538,445.1L385.269,443.634L392.635,436.571L394.927,435.445L399.561,430.605L400.829,427.23L404.439,425.993L406.731,423.933L406.731,422.135L410.78,417.717L413.414,418.802L419.852,417.942L428.389,419.027L432.144,417.717L438.144,418.466L440.924,417.642L447.753,418.428L451.607,416.707L457.997,418.054L460.972,417.305L464.338,412.48L466.874,410.237L467.752,406.576L470.386,402.095L470.386,402.095L472.727,400.08L482.044,399.707L485.361,395.828L487.312,395.083L486.97,393.182L488.726,391.43L490.287,387.669L493.458,385.547L497.165,381.864L501.36,378.295L502.091,375.953L500.482,375.025L493.263,376.585L488.092,376.139L484.092,372.091L483.653,369.529L479.995,367.971L477.312,363.965L480.532,363.038L476.776,362.594L476.873,356.11L470.435,357.147L464.191,356.925L460.484,358.11L455.46,361.037L446.29,361.704L445.119,359.74L446.729,357.592L446.729,357.592L443.119,355.074L443.119,355.074L440.778,356.777L440.778,356.777L438.193,356.814L434.925,359.444L431.852,357.592L430.632,355.111L431.657,351.854L429.315,351.225L422.389,351.151L422.194,351.151L422.34,351.151L422.389,351.151L422.34,351.151L422.194,351.151L416.536,351.854L415.072,347.047L409.951,346.788L409.951,346.788L406.146,346.012L405.463,343.61L406.536,339.917L404.341,338.219L404.244,334.713L403.122,331.948L404.731,328.52L406.829,326.31L406.78,323.806L406.78,323.806L409.073,322.518L409.073,322.518L411.414,322.518L411.414,322.518L416.097,322.223L419.316,317.772L419.267,317.735L419.267,317.735L419.316,317.772L419.072,314.61L415.95,314.39L414.828,309.467L416.877,308.659L416.877,308.659L416.145,303.485L417.511,299.782L415.999,298.242L412.731,299.708L411.853,296.96L413.609,296.594L413.56,293.81L416.438,292.126L412.975,292.053L409.219,289.674L412.048,288.357L411.951,284.701L409.414,282.654L411.073,280.9L411.365,277.796L409.658,279.366L406.341,277.467L403.219,277.613L404.585,279.403L404.585,279.403L404.39,279.622L404.341,279.622L404.39,279.622L404.341,279.622L399.707,278.599L396.195,278.891L393.952,277.358L393.952,277.358L388.586,279.33L387.318,282.91L384.538,282.763L384.928,284.152L381.708,284.847L382.196,286.163L378.879,284.737L379.66,288.321L382.245,288.357L383.074,290.662L381.465,291.504L375.709,290.516L375.709,290.516L373.806,290.479L371.368,287.882L367.465,286.931L366.1,281.887L362.783,279.877L359.076,280.352L357.368,281.594L354.881,281.01L349.906,281.265L349.125,280.023L346.686,280.864L345.32,279.366L343.662,282.142L339.955,279.001L339.955,279.001L340.345,280.389L340.345,280.389L336.589,283.275L336.589,283.275L333.468,283.677L332.882,285.139L332.882,285.139L331.712,286.163L331.712,286.163L327.468,285.724L326.346,283.823L326.346,283.787L326.346,283.823L326.346,283.787L325.273,283.458L325.273,283.458L325.078,283.494L324.98,283.494L325.078,283.494L325.078,283.458L324.98,283.494L325.078,283.458L324.931,282.91L324.931,282.91L324.785,282.69L324.785,282.69L324.639,282.179L324.639,282.179L323.224,281.412L323.224,281.412L323.175,280.791L323.175,280.791L320.737,277.832L318.054,279.074L318.054,279.074L314.347,279.841L311.079,277.54L308.884,279.256L309.225,275.861L305.762,275.022L305.762,275.022L306.786,273.49L306.396,267.802L302.689,267L302.982,264.341L306.152,263.321L306.152,263.321L307.908,264.45L311.615,263.612L312.786,261.901L308.591,260.227L309.518,257.207L308.689,255.898L308.689,255.898L309.274,255.353L305.957,252.445L301.616,251.282L301.811,248.594L303.518,247.94L303.86,245L306.298,244.166L309.615,241.336L314.639,239.741L315.371,237.892L327.614,235.827L327.614,235.827L329.126,233.4L331.712,235.211L334.98,235.718L335.614,232.422L336.784,232.64L339.028,228.803L344.589,226.452L343.223,225.042L340.54,219.296L336.297,218.899L328.98,212.222L329.712,208.292L326.151,207.499L327.663,204.581L330.004,203.14L332.785,203.068L333.419,200.836L337.955,200.225L339.76,198.461L344.833,199.649L345.662,201.52L347.467,201.124L354.881,197.418L357.661,194.578L359.954,194.901L360.637,192.277L363.271,188.757L364.49,188.434L366.636,184.665L368.685,186.962L371.709,187.572L372.148,186.208L382.977,186.711L383.952,186.029L381.757,182.477L373.514,175.738L373.953,173.769L376.392,172.623L378.587,175.595L384.83,176.097L382.489,171.835L383.123,169.688L388.196,169.652L388.196,169.652L392.001,168.758L394.439,170.189L396.39,166.505L395.805,163.967L398.342,163.466L401.561,164.646L402.39,166.469L400.732,170.475L404.244,173.912L403.561,175.309L407.219,176.885L411.463,180.182L414.243,180.899L420.243,186.101L420.438,188.362L423.462,191.164L427.218,192.421L435.12,191.343L435.51,191.918L442.729,192.349L448.29,194.757L451.558,195.261L453.363,194.002L458.631,192.96L465.362,193.895L467.02,195.081L465.947,196.951L463.264,195.908ZM442.875,240.865L442.436,241.844L438.876,241.264L437.364,242.279L434.583,241.481L434.583,241.481L430.34,242.642L428.242,244.964L421.901,244.093L420.535,243.005L415.755,244.057L412.877,243.295L411.999,245.109L408.926,244.601L407.073,249.901L409.024,251.5L409.17,255.971L411.365,256.08L415.609,259.717L418.926,260.627L419.755,259.535L422.243,264.887L418.487,266.089L419.657,268.64L417.316,269.114L417.511,272.104L418.779,272.067L420.877,270.608L420.877,270.608L421.852,271.484L421.852,271.484L422.194,272.651L422.194,272.651L423.413,275.606L424.925,275.971L424.925,275.971L427.511,274.767L434.876,277.029L434.876,277.029L438.339,277.175L440.339,275.46L439.315,269.624L439.315,269.624L439.071,267.255L442.534,266.053L438.729,263.467L438.632,261.828L441.461,260.591L446.192,260.482L445.851,258.371L444.29,259.026L439.12,257.134L439.12,257.134L438.193,251.718L441.949,247.94L441.461,242.098ZM488.385,296.704L486.873,294.836L481.654,294.286L479.556,295.934L479.215,293.92L474.874,294.323L473.849,293.334L471.459,294.506L467.508,298.279L468.728,299.782L473.361,298.902L479.263,300.992L479.361,298.206L485.214,298.462ZM574.282,315.235L570.38,317.956L573.355,318.728Z" fill="#d1e7dd" opacity="0.3" transform="translate(5, 8)" />
  
  <!-- 填充与主轮廓 -->
  <path d="M463.264,195.908L458.923,199.433L460.289,201.736L457.118,202.888L453.85,201.34L453.85,201.34L447.607,202.96L445.851,204.617L447.07,206.742L442.778,207.643L447.119,212.33L444.778,214.314L444.144,218.14L445.509,218.104L447.753,221.608L447.753,221.608L449.607,225.331L452.485,224.427L454.046,229.165L457.118,229.31L459.167,227.645L461.899,227.356L466.24,229.382L469.703,228.948L471.508,229.997L471.898,233.219L474.532,234.667L474.532,234.667L474.825,234.849L474.825,234.849L477.849,237.638L477.849,237.638L478.044,238.291L478.044,238.291L478.19,238.689L478.19,238.689L479.702,240.865L483.166,240.865L483.166,240.865L485.848,240.901L487.702,242.642L485.458,243.621L485.166,245.907L487.117,245.617L487.117,245.617L489.068,246.924L489.068,246.924L489.214,247.614L489.214,247.614L488.141,250.01L488.141,250.01L486.141,250.119L480.971,248.558L479.41,249.429L474.922,249.538L473.361,247.795L473.361,247.795L469.508,247.432L468.581,250.955L467.02,251.573L466.874,254.444L466.874,254.444L466.825,254.589L466.825,254.589L466.484,255.134L466.484,255.134L468.142,258.517L468.142,258.517L470.727,263.212L469.508,265.106L470.679,266.781L473.41,267.474L471.996,269.004L475.898,270.827L479.215,273.745L478.727,276.153L476.727,278.782L478.044,281.01L480.483,279.914L482.239,280.937L482.922,284.591L485.263,283.165L485.946,280.644L485.946,280.644L486.97,279.147L491.946,279.841L495.019,279.293L500.189,281.083L497.896,284.298L498.482,285.578L498.482,285.578L497.506,288.979L495.165,290.516L495.262,293.957L493.311,294.25L493.75,296.411L489.995,296.997L490.433,298.462L493.604,297.729L493.604,297.729L493.897,300.552L493.945,300.552L493.897,300.552L493.945,300.552L496.628,300.258L499.067,301.358L499.067,301.358L502.725,301.615L502.725,301.615L503.311,301.835L503.311,301.835L503.799,302.752L503.799,302.752L504.042,302.898L504.042,302.898L507.359,303.632L507.359,303.632L508.335,305.576L510.579,306.273L510.579,308.256L508.189,309.247L507.506,310.569L511.018,309.614L511.603,310.569L515.359,312.075L518.334,315.75L520.529,320.163L523.261,323.806L530.724,325.794L534.431,325.279L535.358,328.778L544.333,333.754L548.186,333.681L553.308,328.815L550.625,326.605L547.65,319.353L552.04,318.029L551.259,316.191L555.893,314.096L565.697,315.97L569.941,315.566L573.355,313.655L576.477,314.573L578.331,312.957L580.769,312.405L576.428,315.492L575.94,317.147L578.77,316.779L582.867,313.618L586.525,311.744L587.647,309.798L592.232,307.375L594.232,304.256L599.305,299.452L606.231,297.766L609.743,294.03L609.695,291.943L605.987,287.077L613.645,268.348L622.182,262.156L627.108,262.484L625.84,260.009L627.45,256.225L631.205,254.444L633.742,254.916L635.498,253.281L638.62,253.499L642.132,252.045L646.961,251.282L649.594,248.993L651.35,250.846L653.692,250.483L652.277,248.267L651.594,247.287L651.594,247.287L652.277,244.746L649.302,243.367L649.302,243.367L646.961,244.057L646.961,244.057L646.668,243.658L646.668,243.658L645.79,240.937L642.961,239.052L644.863,236.587L643.692,230.902L641.4,231.843L637.839,228.405L635.254,229.02L635.254,229.02L636.229,225.837L631.986,220.885L631.108,217.635L632.522,211.32L628.474,207.607L629.937,205.878L628.913,203.969L624.523,203.5L622.474,205.121L618.621,204.581L608.573,205.373L604.914,204.329L602.085,202.276L602.914,199.541L598.72,199.109L597.5,199.829L596.086,197.274L599.256,193.499L597.744,192.493L593.744,194.578L588.964,194.721L586.867,192.529L585.501,192.924L581.55,190.337L580.672,188.147L576.331,187.644L577.306,185.957L575.014,185.347L572.428,182.262L574.575,180.218L576.867,171.263L578.038,170.547L582.818,171.406L582.818,171.406L584.672,170.762L585.696,167.578L580.818,166.719L579.648,164.002L581.843,161.894L587.598,162.823L591.013,160.573L591.061,157.752L594.622,157.181L599.598,152.471L598.085,150.51L600.817,150.546L601.207,148.8L604.378,146.021L603.597,143.279L601.402,143.778L600.28,145.772L597.988,144.81L591.988,144.917L583.062,143.955L580.623,142.994L575.989,144.347L572.331,141.037L572.233,138.511L566.429,140.219L564.185,142.496L559.063,140.432L555.308,140.717L547.259,140.041L538.089,141.891L535.553,143.457L533.065,141.037L534.041,137.693L533.065,134.245L531.358,132.469L526.968,130.835L530.431,127.569L529.407,124.412L522.48,121.008L521.797,116.65L518.042,114.632L517.749,111.73L515.944,110.103L516.529,106.073L519.554,103.635L524.139,104.2L525.017,106.886L528.578,106.956L531.992,101.234L532.382,99.08L526.724,94.495L529.699,93.719L530.285,89.913L528.529,88.363L524.431,87.025L528.138,86.286L528.919,84.421L527.017,82.38L524.383,81.642L522.285,82.556L522.871,84.35L520.822,86.497L514.676,86.04L517.749,82.556L513.164,80.657L512.53,79.251L513.847,75.35L508.091,73.208L503.652,70.786L503.408,69.137L509.213,66.752L510.188,65.35L506.14,61.53L507.359,58.484L505.262,55.964L495.458,48.587L494.092,46.282L489.409,42.616L489.702,40.453L487.995,40L482.385,42.372L479.068,42.861L473.8,41.221L468.776,41.221L468.24,42.233L463.899,41.256L460.728,42.616L460.63,44.85L456.923,47.993L456.923,47.993L458.728,47.818L458.972,51.627L457.167,52.396L452.582,52.466L452.582,52.466L448.046,50.823L448.046,50.823L441.168,51.907L441.168,51.907L436.973,51.837L433.803,50.649L432.583,52.257L432.583,52.257L427.559,52.851L427.559,52.851L426.974,53.376L426.974,53.376L426.681,54.635L426.681,54.635L425.511,55.264L425.511,55.264L424.242,55.194L424.242,55.194L423.95,55.124L423.95,55.124L421.852,56.104L421.852,56.104L421.218,56.489L421.218,56.489L420.048,57.014L420.048,57.014L419.121,57.679L419.121,57.679L419.17,57.714L419.17,57.714L417.267,59.954L418.145,65.42L419.804,70.786L418.584,73.875L409.56,73.103L412.389,76.65L414.389,76.58L417.56,81.642L416.731,87.518L410.097,90.723L406.341,90.23L404.683,92.838L400.049,93.12L397.659,94.53L394.342,94.072L390.879,94.636L387.513,91.005L385.269,90.9L382.977,93.261L378.196,93.508L379.855,90.371L376.636,88.187L371.612,89.209L370.685,91.499L364.783,94.318L363.905,98.057L362.441,99.927L356.783,99.927L355.515,102.328L357.271,104.341L354.881,106.674L349.759,106.179L347.613,105.013L347.613,104.977L347.613,105.013L347.613,104.977L346.637,102.54L343.418,98.939L340.443,93.331L335.419,94.706L333.955,93.86L332.102,95.905L325.37,99.257L322.346,99.469L319.663,102.505L313.322,104.377L309.03,107.381L306.542,107.911L301.908,110.457L295.324,111.766L293.129,113.393L296.445,115.8L295.226,117.819L297.762,120.405L292.446,121.221L290.836,118.846L288.934,119.378L288.202,122.178L284.007,122.922L283.324,120.476L275.715,118.776L272.301,120.476L269.13,119.449L256.838,120.583L259.57,117.784L260.155,113.075L259.618,107.381L257.472,103.741L261.716,102.823L263.033,101.163L261.813,99.186L261.131,92.098L260.106,87.73L256.838,84.632L256.984,81.22L254.058,77.915L251.57,77.142L251.18,78.618L248.448,79.813L242.156,79.427L239.961,80.305L233.035,78.477L229.132,80.2L228.45,83.647L226.694,83.858L225.718,86.92L229.181,90.406L226.547,92.803L221.865,93.543L216.548,92.662L215.865,94.777L211.036,99.786L204.549,105.613L205.719,108.264L205.036,109.679L207.475,112.827L205.719,113.924L209.182,118.811L206.597,119.342L206.207,122.071L206.939,127.498L196.695,125.582L191.232,126.221L186.842,128.101L184.989,129.876L183.379,129.592L182.306,132.185L178.989,134.032L178.453,135.454L184.306,137.089L182.745,142.389L180.696,143.137L181.916,144.846L184.794,145.772L186.403,149.192L188.062,146.804L189.964,149.797L188.403,152.935L185.574,154.611L182.355,154.54L178.989,159.001L174.355,160.43L178.258,162.716L186.55,169.509L188.257,173.017L193.232,174.091L191.964,174.7L193.037,178.641L194.5,179.465L192.208,181.58L195.037,184.773L196.939,184.199L196.842,186.316L199.329,188.973L201.524,190.84L203.183,194.182L207.378,199.289L211.085,200.584L210.353,203.572L211.914,203.68L211.036,208.184L209.817,209.806L212.402,212.51L211.329,213.701L213.377,217.852L218.84,218.61L219.572,219.549L223.426,217.924L226.791,219.802L230.693,220.018L229.132,223.379L225.864,226.126L220.84,227.862L217.377,227.573L211.865,229.129L208.89,228.658L207.329,231.662L202.939,232.205L199.427,233.472L196.403,232.024L194.452,234.016L194.452,234.016L196.744,239.451L195.525,241.699L192.305,242.859L190.11,239.161L187.818,238.472L185.428,244.71L181.574,246.125L190.988,248.485L190.891,250.592L192.403,254.007L194.013,253.499L202.451,255.462L205.475,253.789L206.841,255.316L204.841,256.443L205.768,258.298L211.377,257.571L211.28,258.589L219.962,257.862L220.889,260.554L219.572,261.683L221.67,265.106L221.133,266.235L220.987,274.912L222.84,277.942L227.913,278.38L229.474,281.813L233.718,281.119L230.84,288.065L228.401,288.796L228.011,291.833L225.816,294.799L225.62,300.442L222.791,302.201L223.279,306.017L221.621,307.338L226.352,309.43L223.816,312.773L219.426,312.552L217.231,315.933L217.962,318.029L216.06,320.604L208.646,320.715L202.988,322.665L201.134,321.708L197.281,322.407L195.232,319.169L195.232,319.169L193.769,319.096L192.696,315.786L189.184,316.816L188.257,318.986L185.623,318.581L183.135,321.524L180.599,321.193L173.38,327.378L170.99,327.599L170.258,329.736L170.941,335.599L172.453,337.591L177.233,340.101L175.721,342.723L175.965,345.679L173.038,345.309L170.892,349.524L166.551,349.265L165.088,354.148L158.015,354.593L157.234,359.259L153.966,361.519L152.747,366.71L155.674,369.344L152.064,372.648L151.088,375.396L153.625,378.555L152.601,384.319L154.649,386.962L156.893,387.743L160.405,387.371L163.234,389.494L165.819,388.823L166.551,391.915L172.599,392.846L175.331,392.399L173.721,396.425L178.892,401.386L178.55,406.501L180.843,406.949L183.623,411.844L185.428,413.153L186.842,420.262L189.184,420.524L192.208,424.607L188.403,427.118L188.159,428.955L194.061,427.793L198.842,429.63L199.72,431.43L197.817,435.858L198.061,438.148L191.574,445.814L189.818,451.307L186.598,453.001L185.72,456.767L180.94,460.385L179.672,466.004L177.038,467.891L175.38,471.666L170.697,472.912L170.746,476.464L169.526,478.959L171.916,480.207L170.599,483.612L172.16,485.921L169.77,488.42L172.258,493.27L170.697,496.416L167.429,496.113L167.429,494.558L164.649,494.255L163.039,496.378L163.38,501.576L156.99,504.499L152.991,504.537L151.918,506.132L149.04,505.486L146.308,508.07L149.625,508.298L147.235,512.25L148.015,513.809L152.601,514.76L152.21,517.081L154.6,517.728L156.112,520.735L153.82,522.258L153.381,524.963L155.966,527.63L159.82,528.393L162.551,530.452L165.575,530.604L167.38,535.373L169.282,535.144L173.868,537.816L177.331,538.045L176.745,536.594L179.331,536.098L181.623,539.191L185.72,536.098L187.233,538.961L188.891,537.663L193.135,538.045L192.11,540.107L195.037,542.781L198.89,541.941L202.597,543.163L202.158,544.654L202.158,544.654L204.744,544.692L205.329,542.514L207.768,544.233L209.085,543.24L212.353,544.654L216.011,543.889L216.889,545.877L220.987,546.336L221.718,547.827L225.572,548.477L226.694,550.046L230.888,550.543L235.132,552.954L235.278,554.753L239.376,553.26L245.717,553.03L246.839,551.806L249.765,554.255L256.594,554.025L256.643,552.686L260.935,552.992L262.057,557.05L261.082,560L267.715,558.621L271.52,555.212L271.715,551.308L272.837,550.007L276.154,550.505L277.764,547.521L282.446,548.821L283.812,547.483L283.812,547.483L283.91,547.559L283.91,547.559L283.91,547.598L283.91,547.598L287.031,548.974L289.958,553.222L291.811,554.025L292.641,557.127L296.836,556.284L297.714,553.987L303.567,552.073L304.689,550.658L306.152,552.341L305.469,544.463L304.835,543.622L304.835,543.622L304.494,542.246L300.884,540.947L301.372,538.618L296.884,539.649L297.08,537.014L294.787,532.588L291.421,531.405L292.982,528.164L290.934,527.668L289.47,524.734L294.104,520.545L296.006,514.456L296.836,514.874L301.128,509.742L303.616,508.525L305.859,503.929L309.42,503.664L322.005,500.134L324.249,494.179L327.858,492.663L330.98,487.398L329.37,485.505L335.663,480.132L338.199,476.049L337.516,472.988L340.101,470.911L339.906,468.57L344.638,465.966L345.125,458.236L348.979,456.428L353.856,455.335L355.466,455.75L360.441,454.507L362.344,455.976L365.758,456.315L369.66,452.926L364.978,451.043L366.295,449.463L364.831,446.943L366.1,446.153L366.1,446.153L368.929,447.958L370.051,446.604L369.124,443.371L370.441,441.041L373.66,438.9L376.148,440.101L377.123,443.596L377.221,443.559L377.123,443.596L377.221,443.559L381.416,447.469L382.538,445.1L385.269,443.634L392.635,436.571L394.927,435.445L399.561,430.605L400.829,427.23L404.439,425.993L406.731,423.933L406.731,422.135L410.78,417.717L413.414,418.802L419.852,417.942L428.389,419.027L432.144,417.717L438.144,418.466L440.924,417.642L447.753,418.428L451.607,416.707L457.997,418.054L460.972,417.305L464.338,412.48L466.874,410.237L467.752,406.576L470.386,402.095L470.386,402.095L472.727,400.08L482.044,399.707L485.361,395.828L487.312,395.083L486.97,393.182L488.726,391.43L490.287,387.669L493.458,385.547L497.165,381.864L501.36,378.295L502.091,375.953L500.482,375.025L493.263,376.585L488.092,376.139L484.092,372.091L483.653,369.529L479.995,367.971L477.312,363.965L480.532,363.038L476.776,362.594L476.873,356.11L470.435,357.147L464.191,356.925L460.484,358.11L455.46,361.037L446.29,361.704L445.119,359.74L446.729,357.592L446.729,357.592L443.119,355.074L443.119,355.074L440.778,356.777L440.778,356.777L438.193,356.814L434.925,359.444L431.852,357.592L430.632,355.111L431.657,351.854L429.315,351.225L422.389,351.151L422.194,351.151L422.34,351.151L422.389,351.151L422.34,351.151L422.194,351.151L416.536,351.854L415.072,347.047L409.951,346.788L409.951,346.788L406.146,346.012L405.463,343.61L406.536,339.917L404.341,338.219L404.244,334.713L403.122,331.948L404.731,328.52L406.829,326.31L406.78,323.806L406.78,323.806L409.073,322.518L409.073,322.518L411.414,322.518L411.414,322.518L416.097,322.223L419.316,317.772L419.267,317.735L419.267,317.735L419.316,317.772L419.072,314.61L415.95,314.39L414.828,309.467L416.877,308.659L416.877,308.659L416.145,303.485L417.511,299.782L415.999,298.242L412.731,299.708L411.853,296.96L413.609,296.594L413.56,293.81L416.438,292.126L412.975,292.053L409.219,289.674L412.048,288.357L411.951,284.701L409.414,282.654L411.073,280.9L411.365,277.796L409.658,279.366L406.341,277.467L403.219,277.613L404.585,279.403L404.585,279.403L404.39,279.622L404.341,279.622L404.39,279.622L404.341,279.622L399.707,278.599L396.195,278.891L393.952,277.358L393.952,277.358L388.586,279.33L387.318,282.91L384.538,282.763L384.928,284.152L381.708,284.847L382.196,286.163L378.879,284.737L379.66,288.321L382.245,288.357L383.074,290.662L381.465,291.504L375.709,290.516L375.709,290.516L373.806,290.479L371.368,287.882L367.465,286.931L366.1,281.887L362.783,279.877L359.076,280.352L357.368,281.594L354.881,281.01L349.906,281.265L349.125,280.023L346.686,280.864L345.32,279.366L343.662,282.142L339.955,279.001L339.955,279.001L340.345,280.389L340.345,280.389L336.589,283.275L336.589,283.275L333.468,283.677L332.882,285.139L332.882,285.139L331.712,286.163L331.712,286.163L327.468,285.724L326.346,283.823L326.346,283.787L326.346,283.823L326.346,283.787L325.273,283.458L325.273,283.458L325.078,283.494L324.98,283.494L325.078,283.494L325.078,283.458L324.98,283.494L325.078,283.458L324.931,282.91L324.931,282.91L324.785,282.69L324.785,282.69L324.639,282.179L324.639,282.179L323.224,281.412L323.224,281.412L323.175,280.791L323.175,280.791L320.737,277.832L318.054,279.074L318.054,279.074L314.347,279.841L311.079,277.54L308.884,279.256L309.225,275.861L305.762,275.022L305.762,275.022L306.786,273.49L306.396,267.802L302.689,267L302.982,264.341L306.152,263.321L306.152,263.321L307.908,264.45L311.615,263.612L312.786,261.901L308.591,260.227L309.518,257.207L308.689,255.898L308.689,255.898L309.274,255.353L305.957,252.445L301.616,251.282L301.811,248.594L303.518,247.94L303.86,245L306.298,244.166L309.615,241.336L314.639,239.741L315.371,237.892L327.614,235.827L327.614,235.827L329.126,233.4L331.712,235.211L334.98,235.718L335.614,232.422L336.784,232.64L339.028,228.803L344.589,226.452L343.223,225.042L340.54,219.296L336.297,218.899L328.98,212.222L329.712,208.292L326.151,207.499L327.663,204.581L330.004,203.14L332.785,203.068L333.419,200.836L337.955,200.225L339.76,198.461L344.833,199.649L345.662,201.52L347.467,201.124L354.881,197.418L357.661,194.578L359.954,194.901L360.637,192.277L363.271,188.757L364.49,188.434L366.636,184.665L368.685,186.962L371.709,187.572L372.148,186.208L382.977,186.711L383.952,186.029L381.757,182.477L373.514,175.738L373.953,173.769L376.392,172.623L378.587,175.595L384.83,176.097L382.489,171.835L383.123,169.688L388.196,169.652L388.196,169.652L392.001,168.758L394.439,170.189L396.39,166.505L395.805,163.967L398.342,163.466L401.561,164.646L402.39,166.469L400.732,170.475L404.244,173.912L403.561,175.309L407.219,176.885L411.463,180.182L414.243,180.899L420.243,186.101L420.438,188.362L423.462,191.164L427.218,192.421L435.12,191.343L435.51,191.918L442.729,192.349L448.29,194.757L451.558,195.261L453.363,194.002L458.631,192.96L465.362,193.895L467.02,195.081L465.947,196.951L463.264,195.908ZM442.875,240.865L442.436,241.844L438.876,241.264L437.364,242.279L434.583,241.481L434.583,241.481L430.34,242.642L428.242,244.964L421.901,244.093L420.535,243.005L415.755,244.057L412.877,243.295L411.999,245.109L408.926,244.601L407.073,249.901L409.024,251.5L409.17,255.971L411.365,256.08L415.609,259.717L418.926,260.627L419.755,259.535L422.243,264.887L418.487,266.089L419.657,268.64L417.316,269.114L417.511,272.104L418.779,272.067L420.877,270.608L420.877,270.608L421.852,271.484L421.852,271.484L422.194,272.651L422.194,272.651L423.413,275.606L424.925,275.971L424.925,275.971L427.511,274.767L434.876,277.029L434.876,277.029L438.339,277.175L440.339,275.46L439.315,269.624L439.315,269.624L439.071,267.255L442.534,266.053L438.729,263.467L438.632,261.828L441.461,260.591L446.192,260.482L445.851,258.371L444.29,259.026L439.12,257.134L439.12,257.134L438.193,251.718L441.949,247.94L441.461,242.098ZM488.385,296.704L486.873,294.836L481.654,294.286L479.556,295.934L479.215,293.92L474.874,294.323L473.849,293.334L471.459,294.506L467.508,298.279L468.728,299.782L473.361,298.902L479.263,300.992L479.361,298.206L485.214,298.462ZM574.282,315.235L570.38,317.956L573.355,318.728Z" fill="#e6f4ea" stroke="#137333" stroke-width="4" stroke-linejoin="round" stroke-linecap="round" />
  
  <!-- 内发光描边 -->
  <path d="M463.264,195.908L458.923,199.433L460.289,201.736L457.118,202.888L453.85,201.34L453.85,201.34L447.607,202.96L445.851,204.617L447.07,206.742L442.778,207.643L447.119,212.33L444.778,214.314L444.144,218.14L445.509,218.104L447.753,221.608L447.753,221.608L449.607,225.331L452.485,224.427L454.046,229.165L457.118,229.31L459.167,227.645L461.899,227.356L466.24,229.382L469.703,228.948L471.508,229.997L471.898,233.219L474.532,234.667L474.532,234.667L474.825,234.849L474.825,234.849L477.849,237.638L477.849,237.638L478.044,238.291L478.044,238.291L478.19,238.689L478.19,238.689L479.702,240.865L483.166,240.865L483.166,240.865L485.848,240.901L487.702,242.642L485.458,243.621L485.166,245.907L487.117,245.617L487.117,245.617L489.068,246.924L489.068,246.924L489.214,247.614L489.214,247.614L488.141,250.01L488.141,250.01L486.141,250.119L480.971,248.558L479.41,249.429L474.922,249.538L473.361,247.795L473.361,247.795L469.508,247.432L468.581,250.955L467.02,251.573L466.874,254.444L466.874,254.444L466.825,254.589L466.825,254.589L466.484,255.134L466.484,255.134L468.142,258.517L468.142,258.517L470.727,263.212L469.508,265.106L470.679,266.781L473.41,267.474L471.996,269.004L475.898,270.827L479.215,273.745L478.727,276.153L476.727,278.782L478.044,281.01L480.483,279.914L482.239,280.937L482.922,284.591L485.263,283.165L485.946,280.644L485.946,280.644L486.97,279.147L491.946,279.841L495.019,279.293L500.189,281.083L497.896,284.298L498.482,285.578L498.482,285.578L497.506,288.979L495.165,290.516L495.262,293.957L493.311,294.25L493.75,296.411L489.995,296.997L490.433,298.462L493.604,297.729L493.604,297.729L493.897,300.552L493.945,300.552L493.897,300.552L493.945,300.552L496.628,300.258L499.067,301.358L499.067,301.358L502.725,301.615L502.725,301.615L503.311,301.835L503.311,301.835L503.799,302.752L503.799,302.752L504.042,302.898L504.042,302.898L507.359,303.632L507.359,303.632L508.335,305.576L510.579,306.273L510.579,308.256L508.189,309.247L507.506,310.569L511.018,309.614L511.603,310.569L515.359,312.075L518.334,315.75L520.529,320.163L523.261,323.806L530.724,325.794L534.431,325.279L535.358,328.778L544.333,333.754L548.186,333.681L553.308,328.815L550.625,326.605L547.65,319.353L552.04,318.029L551.259,316.191L555.893,314.096L565.697,315.97L569.941,315.566L573.355,313.655L576.477,314.573L578.331,312.957L580.769,312.405L576.428,315.492L575.94,317.147L578.77,316.779L582.867,313.618L586.525,311.744L587.647,309.798L592.232,307.375L594.232,304.256L599.305,299.452L606.231,297.766L609.743,294.03L609.695,291.943L605.987,287.077L613.645,268.348L622.182,262.156L627.108,262.484L625.84,260.009L627.45,256.225L631.205,254.444L633.742,254.916L635.498,253.281L638.62,253.499L642.132,252.045L646.961,251.282L649.594,248.993L651.35,250.846L653.692,250.483L652.277,248.267L651.594,247.287L651.594,247.287L652.277,244.746L649.302,243.367L649.302,243.367L646.961,244.057L646.961,244.057L646.668,243.658L646.668,243.658L645.79,240.937L642.961,239.052L644.863,236.587L643.692,230.902L641.4,231.843L637.839,228.405L635.254,229.02L635.254,229.02L636.229,225.837L631.986,220.885L631.108,217.635L632.522,211.32L628.474,207.607L629.937,205.878L628.913,203.969L624.523,203.5L622.474,205.121L618.621,204.581L608.573,205.373L604.914,204.329L602.085,202.276L602.914,199.541L598.72,199.109L597.5,199.829L596.086,197.274L599.256,193.499L597.744,192.493L593.744,194.578L588.964,194.721L586.867,192.529L585.501,192.924L581.55,190.337L580.672,188.147L576.331,187.644L577.306,185.957L575.014,185.347L572.428,182.262L574.575,180.218L576.867,171.263L578.038,170.547L582.818,171.406L582.818,171.406L584.672,170.762L585.696,167.578L580.818,166.719L579.648,164.002L581.843,161.894L587.598,162.823L591.013,160.573L591.061,157.752L594.622,157.181L599.598,152.471L598.085,150.51L600.817,150.546L601.207,148.8L604.378,146.021L603.597,143.279L601.402,143.778L600.28,145.772L597.988,144.81L591.988,144.917L583.062,143.955L580.623,142.994L575.989,144.347L572.331,141.037L572.233,138.511L566.429,140.219L564.185,142.496L559.063,140.432L555.308,140.717L547.259,140.041L538.089,141.891L535.553,143.457L533.065,141.037L534.041,137.693L533.065,134.245L531.358,132.469L526.968,130.835L530.431,127.569L529.407,124.412L522.48,121.008L521.797,116.65L518.042,114.632L517.749,111.73L515.944,110.103L516.529,106.073L519.554,103.635L524.139,104.2L525.017,106.886L528.578,106.956L531.992,101.234L532.382,99.08L526.724,94.495L529.699,93.719L530.285,89.913L528.529,88.363L524.431,87.025L528.138,86.286L528.919,84.421L527.017,82.38L524.383,81.642L522.285,82.556L522.871,84.35L520.822,86.497L514.676,86.04L517.749,82.556L513.164,80.657L512.53,79.251L513.847,75.35L508.091,73.208L503.652,70.786L503.408,69.137L509.213,66.752L510.188,65.35L506.14,61.53L507.359,58.484L505.262,55.964L495.458,48.587L494.092,46.282L489.409,42.616L489.702,40.453L487.995,40L482.385,42.372L479.068,42.861L473.8,41.221L468.776,41.221L468.24,42.233L463.899,41.256L460.728,42.616L460.63,44.85L456.923,47.993L456.923,47.993L458.728,47.818L458.972,51.627L457.167,52.396L452.582,52.466L452.582,52.466L448.046,50.823L448.046,50.823L441.168,51.907L441.168,51.907L436.973,51.837L433.803,50.649L432.583,52.257L432.583,52.257L427.559,52.851L427.559,52.851L426.974,53.376L426.974,53.376L426.681,54.635L426.681,54.635L425.511,55.264L425.511,55.264L424.242,55.194L424.242,55.194L423.95,55.124L423.95,55.124L421.852,56.104L421.852,56.104L421.218,56.489L421.218,56.489L420.048,57.014L420.048,57.014L419.121,57.679L419.121,57.679L419.17,57.714L419.17,57.714L417.267,59.954L418.145,65.42L419.804,70.786L418.584,73.875L409.56,73.103L412.389,76.65L414.389,76.58L417.56,81.642L416.731,87.518L410.097,90.723L406.341,90.23L404.683,92.838L400.049,93.12L397.659,94.53L394.342,94.072L390.879,94.636L387.513,91.005L385.269,90.9L382.977,93.261L378.196,93.508L379.855,90.371L376.636,88.187L371.612,89.209L370.685,91.499L364.783,94.318L363.905,98.057L362.441,99.927L356.783,99.927L355.515,102.328L357.271,104.341L354.881,106.674L349.759,106.179L347.613,105.013L347.613,104.977L347.613,105.013L347.613,104.977L346.637,102.54L343.418,98.939L340.443,93.331L335.419,94.706L333.955,93.86L332.102,95.905L325.37,99.257L322.346,99.469L319.663,102.505L313.322,104.377L309.03,107.381L306.542,107.911L301.908,110.457L295.324,111.766L293.129,113.393L296.445,115.8L295.226,117.819L297.762,120.405L292.446,121.221L290.836,118.846L288.934,119.378L288.202,122.178L284.007,122.922L283.324,120.476L275.715,118.776L272.301,120.476L269.13,119.449L256.838,120.583L259.57,117.784L260.155,113.075L259.618,107.381L257.472,103.741L261.716,102.823L263.033,101.163L261.813,99.186L261.131,92.098L260.106,87.73L256.838,84.632L256.984,81.22L254.058,77.915L251.57,77.142L251.18,78.618L248.448,79.813L242.156,79.427L239.961,80.305L233.035,78.477L229.132,80.2L228.45,83.647L226.694,83.858L225.718,86.92L229.181,90.406L226.547,92.803L221.865,93.543L216.548,92.662L215.865,94.777L211.036,99.786L204.549,105.613L205.719,108.264L205.036,109.679L207.475,112.827L205.719,113.924L209.182,118.811L206.597,119.342L206.207,122.071L206.939,127.498L196.695,125.582L191.232,126.221L186.842,128.101L184.989,129.876L183.379,129.592L182.306,132.185L178.989,134.032L178.453,135.454L184.306,137.089L182.745,142.389L180.696,143.137L181.916,144.846L184.794,145.772L186.403,149.192L188.062,146.804L189.964,149.797L188.403,152.935L185.574,154.611L182.355,154.54L178.989,159.001L174.355,160.43L178.258,162.716L186.55,169.509L188.257,173.017L193.232,174.091L191.964,174.7L193.037,178.641L194.5,179.465L192.208,181.58L195.037,184.773L196.939,184.199L196.842,186.316L199.329,188.973L201.524,190.84L203.183,194.182L207.378,199.289L211.085,200.584L210.353,203.572L211.914,203.68L211.036,208.184L209.817,209.806L212.402,212.51L211.329,213.701L213.377,217.852L218.84,218.61L219.572,219.549L223.426,217.924L226.791,219.802L230.693,220.018L229.132,223.379L225.864,226.126L220.84,227.862L217.377,227.573L211.865,229.129L208.89,228.658L207.329,231.662L202.939,232.205L199.427,233.472L196.403,232.024L194.452,234.016L194.452,234.016L196.744,239.451L195.525,241.699L192.305,242.859L190.11,239.161L187.818,238.472L185.428,244.71L181.574,246.125L190.988,248.485L190.891,250.592L192.403,254.007L194.013,253.499L202.451,255.462L205.475,253.789L206.841,255.316L204.841,256.443L205.768,258.298L211.377,257.571L211.28,258.589L219.962,257.862L220.889,260.554L219.572,261.683L221.67,265.106L221.133,266.235L220.987,274.912L222.84,277.942L227.913,278.38L229.474,281.813L233.718,281.119L230.84,288.065L228.401,288.796L228.011,291.833L225.816,294.799L225.62,300.442L222.791,302.201L223.279,306.017L221.621,307.338L226.352,309.43L223.816,312.773L219.426,312.552L217.231,315.933L217.962,318.029L216.06,320.604L208.646,320.715L202.988,322.665L201.134,321.708L197.281,322.407L195.232,319.169L195.232,319.169L193.769,319.096L192.696,315.786L189.184,316.816L188.257,318.986L185.623,318.581L183.135,321.524L180.599,321.193L173.38,327.378L170.99,327.599L170.258,329.736L170.941,335.599L172.453,337.591L177.233,340.101L175.721,342.723L175.965,345.679L173.038,345.309L170.892,349.524L166.551,349.265L165.088,354.148L158.015,354.593L157.234,359.259L153.966,361.519L152.747,366.71L155.674,369.344L152.064,372.648L151.088,375.396L153.625,378.555L152.601,384.319L154.649,386.962L156.893,387.743L160.405,387.371L163.234,389.494L165.819,388.823L166.551,391.915L172.599,392.846L175.331,392.399L173.721,396.425L178.892,401.386L178.55,406.501L180.843,406.949L183.623,411.844L185.428,413.153L186.842,420.262L189.184,420.524L192.208,424.607L188.403,427.118L188.159,428.955L194.061,427.793L198.842,429.63L199.72,431.43L197.817,435.858L198.061,438.148L191.574,445.814L189.818,451.307L186.598,453.001L185.72,456.767L180.94,460.385L179.672,466.004L177.038,467.891L175.38,471.666L170.697,472.912L170.746,476.464L169.526,478.959L171.916,480.207L170.599,483.612L172.16,485.921L169.77,488.42L172.258,493.27L170.697,496.416L167.429,496.113L167.429,494.558L164.649,494.255L163.039,496.378L163.38,501.576L156.99,504.499L152.991,504.537L151.918,506.132L149.04,505.486L146.308,508.07L149.625,508.298L147.235,512.25L148.015,513.809L152.601,514.76L152.21,517.081L154.6,517.728L156.112,520.735L153.82,522.258L153.381,524.963L155.966,527.63L159.82,528.393L162.551,530.452L165.575,530.604L167.38,535.373L169.282,535.144L173.868,537.816L177.331,538.045L176.745,536.594L179.331,536.098L181.623,539.191L185.72,536.098L187.233,538.961L188.891,537.663L193.135,538.045L192.11,540.107L195.037,542.781L198.89,541.941L202.597,543.163L202.158,544.654L202.158,544.654L204.744,544.692L205.329,542.514L207.768,544.233L209.085,543.24L212.353,544.654L216.011,543.889L216.889,545.877L220.987,546.336L221.718,547.827L225.572,548.477L226.694,550.046L230.888,550.543L235.132,552.954L235.278,554.753L239.376,553.26L245.717,553.03L246.839,551.806L249.765,554.255L256.594,554.025L256.643,552.686L260.935,552.992L262.057,557.05L261.082,560L267.715,558.621L271.52,555.212L271.715,551.308L272.837,550.007L276.154,550.505L277.764,547.521L282.446,548.821L283.812,547.483L283.812,547.483L283.91,547.559L283.91,547.559L283.91,547.598L283.91,547.598L287.031,548.974L289.958,553.222L291.811,554.025L292.641,557.127L296.836,556.284L297.714,553.987L303.567,552.073L304.689,550.658L306.152,552.341L305.469,544.463L304.835,543.622L304.835,543.622L304.494,542.246L300.884,540.947L301.372,538.618L296.884,539.649L297.08,537.014L294.787,532.588L291.421,531.405L292.982,528.164L290.934,527.668L289.47,524.734L294.104,520.545L296.006,514.456L296.836,514.874L301.128,509.742L303.616,508.525L305.859,503.929L309.42,503.664L322.005,500.134L324.249,494.179L327.858,492.663L330.98,487.398L329.37,485.505L335.663,480.132L338.199,476.049L337.516,472.988L340.101,470.911L339.906,468.57L344.638,465.966L345.125,458.236L348.979,456.428L353.856,455.335L355.466,455.75L360.441,454.507L362.344,455.976L365.758,456.315L369.66,452.926L364.978,451.043L366.295,449.463L364.831,446.943L366.1,446.153L366.1,446.153L368.929,447.958L370.051,446.604L369.124,443.371L370.441,441.041L373.66,438.9L376.148,440.101L377.123,443.596L377.221,443.559L377.123,443.596L377.221,443.559L381.416,447.469L382.538,445.1L385.269,443.634L392.635,436.571L394.927,435.445L399.561,430.605L400.829,427.23L404.439,425.993L406.731,423.933L406.731,422.135L410.78,417.717L413.414,418.802L419.852,417.942L428.389,419.027L432.144,417.717L438.144,418.466L440.924,417.642L447.753,418.428L451.607,416.707L457.997,418.054L460.972,417.305L464.338,412.48L466.874,410.237L467.752,406.576L470.386,402.095L470.386,402.095L472.727,400.08L482.044,399.707L485.361,395.828L487.312,395.083L486.97,393.182L488.726,391.43L490.287,387.669L493.458,385.547L497.165,381.864L501.36,378.295L502.091,375.953L500.482,375.025L493.263,376.585L488.092,376.139L484.092,372.091L483.653,369.529L479.995,367.971L477.312,363.965L480.532,363.038L476.776,362.594L476.873,356.11L470.435,357.147L464.191,356.925L460.484,358.11L455.46,361.037L446.29,361.704L445.119,359.74L446.729,357.592L446.729,357.592L443.119,355.074L443.119,355.074L440.778,356.777L440.778,356.777L438.193,356.814L434.925,359.444L431.852,357.592L430.632,355.111L431.657,351.854L429.315,351.225L422.389,351.151L422.194,351.151L422.34,351.151L422.389,351.151L422.34,351.151L422.194,351.151L416.536,351.854L415.072,347.047L409.951,346.788L409.951,346.788L406.146,346.012L405.463,343.61L406.536,339.917L404.341,338.219L404.244,334.713L403.122,331.948L404.731,328.52L406.829,326.31L406.78,323.806L406.78,323.806L409.073,322.518L409.073,322.518L411.414,322.518L411.414,322.518L416.097,322.223L419.316,317.772L419.267,317.735L419.267,317.735L419.316,317.772L419.072,314.61L415.95,314.39L414.828,309.467L416.877,308.659L416.877,308.659L416.145,303.485L417.511,299.782L415.999,298.242L412.731,299.708L411.853,296.96L413.609,296.594L413.56,293.81L416.438,292.126L412.975,292.053L409.219,289.674L412.048,288.357L411.951,284.701L409.414,282.654L411.073,280.9L411.365,277.796L409.658,279.366L406.341,277.467L403.219,277.613L404.585,279.403L404.585,279.403L404.39,279.622L404.341,279.622L404.39,279.622L404.341,279.622L399.707,278.599L396.195,278.891L393.952,277.358L393.952,277.358L388.586,279.33L387.318,282.91L384.538,282.763L384.928,284.152L381.708,284.847L382.196,286.163L378.879,284.737L379.66,288.321L382.245,288.357L383.074,290.662L381.465,291.504L375.709,290.516L375.709,290.516L373.806,290.479L371.368,287.882L367.465,286.931L366.1,281.887L362.783,279.877L359.076,280.352L357.368,281.594L354.881,281.01L349.906,281.265L349.125,280.023L346.686,280.864L345.32,279.366L343.662,282.142L339.955,279.001L339.955,279.001L340.345,280.389L340.345,280.389L336.589,283.275L336.589,283.275L333.468,283.677L332.882,285.139L332.882,285.139L331.712,286.163L331.712,286.163L327.468,285.724L326.346,283.823L326.346,283.787L326.346,283.823L326.346,283.787L325.273,283.458L325.273,283.458L325.078,283.494L324.98,283.494L325.078,283.494L325.078,283.458L324.98,283.494L325.078,283.458L324.931,282.91L324.931,282.91L324.785,282.69L324.785,282.69L324.639,282.179L324.639,282.179L323.224,281.412L323.224,281.412L323.175,280.791L323.175,280.791L320.737,277.832L318.054,279.074L318.054,279.074L314.347,279.841L311.079,277.54L308.884,279.256L309.225,275.861L305.762,275.022L305.762,275.022L306.786,273.49L306.396,267.802L302.689,267L302.982,264.341L306.152,263.321L306.152,263.321L307.908,264.45L311.615,263.612L312.786,261.901L308.591,260.227L309.518,257.207L308.689,255.898L308.689,255.898L309.274,255.353L305.957,252.445L301.616,251.282L301.811,248.594L303.518,247.94L303.86,245L306.298,244.166L309.615,241.336L314.639,239.741L315.371,237.892L327.614,235.827L327.614,235.827L329.126,233.4L331.712,235.211L334.98,235.718L335.614,232.422L336.784,232.64L339.028,228.803L344.589,226.452L343.223,225.042L340.54,219.296L336.297,218.899L328.98,212.222L329.712,208.292L326.151,207.499L327.663,204.581L330.004,203.14L332.785,203.068L333.419,200.836L337.955,200.225L339.76,198.461L344.833,199.649L345.662,201.52L347.467,201.124L354.881,197.418L357.661,194.578L359.954,194.901L360.637,192.277L363.271,188.757L364.49,188.434L366.636,184.665L368.685,186.962L371.709,187.572L372.148,186.208L382.977,186.711L383.952,186.029L381.757,182.477L373.514,175.738L373.953,173.769L376.392,172.623L378.587,175.595L384.83,176.097L382.489,171.835L383.123,169.688L388.196,169.652L388.196,169.652L392.001,168.758L394.439,170.189L396.39,166.505L395.805,163.967L398.342,163.466L401.561,164.646L402.39,166.469L400.732,170.475L404.244,173.912L403.561,175.309L407.219,176.885L411.463,180.182L414.243,180.899L420.243,186.101L420.438,188.362L423.462,191.164L427.218,192.421L435.12,191.343L435.51,191.918L442.729,192.349L448.29,194.757L451.558,195.261L453.363,194.002L458.631,192.96L465.362,193.895L467.02,195.081L465.947,196.951L463.264,195.908ZM442.875,240.865L442.436,241.844L438.876,241.264L437.364,242.279L434.583,241.481L434.583,241.481L430.34,242.642L428.242,244.964L421.901,244.093L420.535,243.005L415.755,244.057L412.877,243.295L411.999,245.109L408.926,244.601L407.073,249.901L409.024,251.5L409.17,255.971L411.365,256.08L415.609,259.717L418.926,260.627L419.755,259.535L422.243,264.887L418.487,266.089L419.657,268.64L417.316,269.114L417.511,272.104L418.779,272.067L420.877,270.608L420.877,270.608L421.852,271.484L421.852,271.484L422.194,272.651L422.194,272.651L423.413,275.606L424.925,275.971L424.925,275.971L427.511,274.767L434.876,277.029L434.876,277.029L438.339,277.175L440.339,275.46L439.315,269.624L439.315,269.624L439.071,267.255L442.534,266.053L438.729,263.467L438.632,261.828L441.461,260.591L446.192,260.482L445.851,258.371L444.29,259.026L439.12,257.134L439.12,257.134L438.193,251.718L441.949,247.94L441.461,242.098ZM488.385,296.704L486.873,294.836L481.654,294.286L479.556,295.934L479.215,293.92L474.874,294.323L473.849,293.334L471.459,294.506L467.508,298.279L468.728,299.782L473.361,298.902L479.263,300.992L479.361,298.206L485.214,298.462ZM574.282,315.235L570.38,317.956L573.355,318.728Z" fill="none" stroke="#2e7d32" stroke-width="1.5" stroke-linejoin="round" stroke-linecap="round" opacity="0.6" />
</svg>