<svg xmlns="http://www.w3.org/2000/svg" width="800" height="600" viewBox="0 0 800 600">
  <!-- 背景色，采用淡米黄色 -->
  <rect width="100%" height="100%" fill="#f5f2eb" />
  
  <!-- 阴影层 -->
  <path d="M229.315,558.543L233.166,559.584L238.527,557.669L242.327,560L248.884,557.96L257.264,558.168L260.595,554.174L264.186,554.382L266.944,557.253L271.941,554.881L273.606,552.759L275.011,547.604L279.748,549.599L284.744,546.69L291.77,545.36L294.321,541.041L301.451,542.577L303.324,540.044L306.447,541.124L310.975,539.006L314.671,540.418L318.886,538.467L324.247,539.173L327.734,537.18L329.972,538.052L331.794,534.815L333.98,533.695L336.426,529.963L339.392,528.927L337.883,526.109L344.337,524.411L349.958,522.009L350.218,519.525L360.627,517.745L364.374,519.111L367.862,518.987L369.579,520.932L371.505,520.063L371.036,516.462L371.869,511.83L369.631,508.399L372.91,506.251L371.245,501.13L377.958,501.873L384.62,503.401L386.754,504.97L392.011,503.524L390.606,506.209L397.32,506.209L399.297,504.598L409.655,506.333L420.116,505.714L419.335,502.533L427.142,507.366L431.566,507.242L435.73,502.988L440.986,504.185L445.202,502.575L445.358,500.758L450.094,499.768L449.574,496.095L450.459,494.198L456.444,494.899L461.44,496.714L463.366,495.146L464.719,489.91L466.437,490.199L466.801,486.861L471.329,486.82L476.482,488.715L477.158,484.143L480.177,485.214L483.872,481.961L487.88,481.92L492.928,479.82L494.177,476.323L497.925,472.253L497.04,469.294L499.642,471.266L503.598,471.348L503.389,467.773L500.839,466.336L500.423,462.558L501.88,457.388L500.006,455.666L506.616,454.067L504.638,451.28L506.044,446.077L505.575,440.797L508.126,441.493L509.479,438.016L506.564,437.361L508.698,435.562L507.501,430.536L506.148,429.719L510.988,429.351L510.416,427.718L505.784,425.554L509.739,424.942L508.386,422.003L511.3,418.129L510.936,414.664L512.966,412.871L512.55,409.612L510.624,404.524L507.397,404.361L504.482,402.164L500.371,401.351L497.612,398.504L498.081,395.619L500.527,393.993L498.913,390.785L496.363,390.095L496.78,387.618L491.887,386.604L491.054,384.94L493.605,380.723L490.066,380.479L492.98,377.723L496.051,378.412L497.196,376.71L501.464,376.669L508.282,373.55L507.917,368.005L509.635,365.739L512.602,366.063L512.602,367.721L516.089,368.045L517.754,364.688L515.1,359.513L517.65,356.847L515.985,354.383L517.39,350.75L514.84,349.419L516.141,346.756L516.089,342.966L521.085,341.636L522.855,337.608L525.665,335.595L527.018,329.599L532.119,325.739L533.056,321.72L536.491,319.913L538.364,314.052L545.286,305.873L545.026,303.429L547.056,298.704L546.119,296.783L541.019,294.823L534.721,296.063L534.981,294.103L539.041,291.424L535.814,287.068L533.316,286.788L531.807,279.203L529.881,277.806L526.914,272.583L524.468,272.104L524.832,266.647L519.315,261.353L521.033,257.058L518.118,257.535L511.665,256.541L510.884,253.242L508.126,253.958L505.107,251.693L501.36,252.09L498.966,251.256L496.78,248.437L497.873,242.286L495.166,238.916L496.207,235.983L500.059,232.458L496.936,229.647L498.237,224.108L501.724,221.697L502.557,216.718L510.103,216.244L511.665,211.033L516.297,211.31L518.587,206.813L521.71,207.207L521.449,204.053L523.063,201.256L517.962,198.577L516.349,196.451L515.62,190.196L516.401,187.916L518.951,187.68L526.654,181.08L529.36,181.434L532.015,178.293L534.825,178.725L535.814,176.41L539.561,175.311L540.706,178.843L542.268,178.921L542.268,178.921L544.454,182.376L548.565,181.63L550.543,182.651L556.58,180.57L564.491,180.452L566.521,177.705L565.741,175.468L568.083,171.861L572.767,172.096L575.473,168.53L570.425,166.297L572.194,164.887L571.674,160.816L574.693,158.938L574.901,152.918L577.243,149.753L577.659,146.513L580.261,145.732L583.332,138.321L578.804,139.062L577.139,135.399L571.726,134.931L569.748,131.699L569.904,122.439L570.477,121.235L568.239,117.582L569.644,116.378L568.655,113.506L559.391,114.282L559.495,113.195L553.51,113.971L552.521,111.992L554.655,110.789L553.197,109.16L549.971,110.944L540.967,108.85L539.249,109.393L537.636,105.748L537.74,103.5L527.695,100.982L531.807,99.472L534.357,92.816L536.803,93.551L539.145,97.498L542.58,96.259L543.881,93.861L541.435,88.061L541.435,88.061L543.517,85.936L546.744,87.482L550.491,86.129L555.175,85.55L556.841,82.345L560.016,82.847L565.897,81.187L569.592,81.496L574.953,79.643L578.44,76.712L580.105,73.126L575.942,72.895L572.35,70.891L568.239,72.625L567.458,71.623L561.629,70.814L559.443,66.385L560.588,65.115L557.83,62.229L559.131,60.498L560.068,55.693L558.402,55.578L559.183,52.39L555.227,51.008L550.751,45.559L548.982,41.993L546.64,40L542.424,40.651L540.654,42.568L541.383,44.907L538.781,50.854L541.747,53.657L542.06,56.001L540.498,57.615L536.231,58.73L530.922,58.807L525.977,62.883L522.646,63.383L517.91,58.537L515.256,62.268L508.958,64.422L498.081,72.856L493.032,74.051L483.508,75.323L477.523,75.285L474.088,69.466L472.006,67.386L457.797,70.621L453.581,71.122L442.183,74.475L437.968,84.816L429.172,88.177L426.465,87.211L419.491,82.384L409.498,79.566L404.814,76.943L401.587,77.367L395.758,80.569L392.479,80.647L391.595,84.469L385.922,87.945L385.87,91.037L381.758,95.215L381.654,97.111L378.271,100.014L377.542,102.144L372.702,109.121L369.839,111.914L367.341,116.883L363.75,119.486L362.865,128.273L359.951,130.414L361.044,134.152L356.047,135.593L352.976,134.386L347.98,137.035L342.827,135.593L337.467,132.594L334.604,133.256L326.173,130.842L323.779,130.881L319.407,132.711L320.708,135.515L319.042,136.373L317.429,141.245L318.21,143.82L313.213,146.317L312.068,150.261L310.247,151.238L296.298,151.042L293.852,152.331L292.395,155.849L295.205,156.162L294.893,158.195L297.495,157.1L296.923,159.173L298.849,161.012L302.7,161.247L299.785,165.083L300.306,166.179L295.57,173.9L296.454,175.39L294.216,178.293L293.436,181.355L289.74,184.261L285.004,185.086L281.621,186.933L280.112,189.331L282.61,192.477L283.183,196.097L281.413,197.947L282.558,199.68L278.811,207.444L274.595,211.783L274.699,214.349L271.681,218.338L273.19,221.697L275.011,222.131L273.971,227.273L270.848,228.183L271.16,232.972L268.298,234.121L264.602,232.972L262.989,234.042L260.387,240.343L256.535,241.453L253.152,245.222L248.104,245.261L246.074,246.174L245.085,253.123L241.91,253.401L240.297,255.07L241.182,260.239L239.672,263.024L240.193,270.192L241.91,272.104L241.442,275.094L247.479,277.886L254.766,289.026L259.45,290.704L260.699,293.583L257.836,294.223L256.951,296.183L262.781,298.264L264.29,300.826L261.792,301.747L262.468,305.552L264.446,308.598L262.416,310.322L261.427,315.698L259.814,317.825L251.695,319.03L250.55,324.292L251.487,325.377L256.015,326.261L254.609,328.955L255.598,331.53L253.204,331.972L252.319,334.105L247.167,339.984L242.483,344.135L242.535,346.071L239.152,348.45L236.185,352.001L232.542,353.495L233.323,355.069L229.627,353.939L229.523,355.594L233.114,358.866L231.813,364.89L229.055,365.739L233.114,368.005L231.657,370.595L233.062,371.162L231.709,374.725L235.04,377.966L234.311,382.344L231.293,381.371L230.616,383.115L233.323,384.738L235.092,387.821L239.256,391.11L238.579,393.262L239.828,399.033L237.226,402.002L238.631,403.954L238.423,407.006L236.133,412.586L237.33,414.378L237.33,419.311L235.821,421.147L235.04,426.411L236.81,433.968L238.839,437.361L238.891,440.797L240.921,442.68L239.724,444.726L240.921,447.183L240.505,450.46L243.68,450.624L243.784,453.985L245.553,457.142L246.074,465.514L248.78,471.389L247.063,473.897L245.241,479.203L242.17,481.59L237.642,489.828L235.3,497.085L228.951,503.524L229.263,506.994L228.066,508.068L228.847,513.443L224.371,524.369L219.426,529.507L216.772,534.857L218.125,542.619L217.813,547.978L216.668,550.763L219.999,556.087L222.237,557.669Z" fill="#d1e7dd" opacity="0.3" transform="translate(5, 8)" />
  
  <!-- 填充与主轮廓 -->
  <path d="M229.315,558.543L233.166,559.584L238.527,557.669L242.327,560L248.884,557.96L257.264,558.168L260.595,554.174L264.186,554.382L266.944,557.253L271.941,554.881L273.606,552.759L275.011,547.604L279.748,549.599L284.744,546.69L291.77,545.36L294.321,541.041L301.451,542.577L303.324,540.044L306.447,541.124L310.975,539.006L314.671,540.418L318.886,538.467L324.247,539.173L327.734,537.18L329.972,538.052L331.794,534.815L333.98,533.695L336.426,529.963L339.392,528.927L337.883,526.109L344.337,524.411L349.958,522.009L350.218,519.525L360.627,517.745L364.374,519.111L367.862,518.987L369.579,520.932L371.505,520.063L371.036,516.462L371.869,511.83L369.631,508.399L372.91,506.251L371.245,501.13L377.958,501.873L384.62,503.401L386.754,504.97L392.011,503.524L390.606,506.209L397.32,506.209L399.297,504.598L409.655,506.333L420.116,505.714L419.335,502.533L427.142,507.366L431.566,507.242L435.73,502.988L440.986,504.185L445.202,502.575L445.358,500.758L450.094,499.768L449.574,496.095L450.459,494.198L456.444,494.899L461.44,496.714L463.366,495.146L464.719,489.91L466.437,490.199L466.801,486.861L471.329,486.82L476.482,488.715L477.158,484.143L480.177,485.214L483.872,481.961L487.88,481.92L492.928,479.82L494.177,476.323L497.925,472.253L497.04,469.294L499.642,471.266L503.598,471.348L503.389,467.773L500.839,466.336L500.423,462.558L501.88,457.388L500.006,455.666L506.616,454.067L504.638,451.28L506.044,446.077L505.575,440.797L508.126,441.493L509.479,438.016L506.564,437.361L508.698,435.562L507.501,430.536L506.148,429.719L510.988,429.351L510.416,427.718L505.784,425.554L509.739,424.942L508.386,422.003L511.3,418.129L510.936,414.664L512.966,412.871L512.55,409.612L510.624,404.524L507.397,404.361L504.482,402.164L500.371,401.351L497.612,398.504L498.081,395.619L500.527,393.993L498.913,390.785L496.363,390.095L496.78,387.618L491.887,386.604L491.054,384.94L493.605,380.723L490.066,380.479L492.98,377.723L496.051,378.412L497.196,376.71L501.464,376.669L508.282,373.55L507.917,368.005L509.635,365.739L512.602,366.063L512.602,367.721L516.089,368.045L517.754,364.688L515.1,359.513L517.65,356.847L515.985,354.383L517.39,350.75L514.84,349.419L516.141,346.756L516.089,342.966L521.085,341.636L522.855,337.608L525.665,335.595L527.018,329.599L532.119,325.739L533.056,321.72L536.491,319.913L538.364,314.052L545.286,305.873L545.026,303.429L547.056,298.704L546.119,296.783L541.019,294.823L534.721,296.063L534.981,294.103L539.041,291.424L535.814,287.068L533.316,286.788L531.807,279.203L529.881,277.806L526.914,272.583L524.468,272.104L524.832,266.647L519.315,261.353L521.033,257.058L518.118,257.535L511.665,256.541L510.884,253.242L508.126,253.958L505.107,251.693L501.36,252.09L498.966,251.256L496.78,248.437L497.873,242.286L495.166,238.916L496.207,235.983L500.059,232.458L496.936,229.647L498.237,224.108L501.724,221.697L502.557,216.718L510.103,216.244L511.665,211.033L516.297,211.31L518.587,206.813L521.71,207.207L521.449,204.053L523.063,201.256L517.962,198.577L516.349,196.451L515.62,190.196L516.401,187.916L518.951,187.68L526.654,181.08L529.36,181.434L532.015,178.293L534.825,178.725L535.814,176.41L539.561,175.311L540.706,178.843L542.268,178.921L542.268,178.921L544.454,182.376L548.565,181.63L550.543,182.651L556.58,180.57L564.491,180.452L566.521,177.705L565.741,175.468L568.083,171.861L572.767,172.096L575.473,168.53L570.425,166.297L572.194,164.887L571.674,160.816L574.693,158.938L574.901,152.918L577.243,149.753L577.659,146.513L580.261,145.732L583.332,138.321L578.804,139.062L577.139,135.399L571.726,134.931L569.748,131.699L569.904,122.439L570.477,121.235L568.239,117.582L569.644,116.378L568.655,113.506L559.391,114.282L559.495,113.195L553.51,113.971L552.521,111.992L554.655,110.789L553.197,109.16L549.971,110.944L540.967,108.85L539.249,109.393L537.636,105.748L537.74,103.5L527.695,100.982L531.807,99.472L534.357,92.816L536.803,93.551L539.145,97.498L542.58,96.259L543.881,93.861L541.435,88.061L541.435,88.061L543.517,85.936L546.744,87.482L550.491,86.129L555.175,85.55L556.841,82.345L560.016,82.847L565.897,81.187L569.592,81.496L574.953,79.643L578.44,76.712L580.105,73.126L575.942,72.895L572.35,70.891L568.239,72.625L567.458,71.623L561.629,70.814L559.443,66.385L560.588,65.115L557.83,62.229L559.131,60.498L560.068,55.693L558.402,55.578L559.183,52.39L555.227,51.008L550.751,45.559L548.982,41.993L546.64,40L542.424,40.651L540.654,42.568L541.383,44.907L538.781,50.854L541.747,53.657L542.06,56.001L540.498,57.615L536.231,58.73L530.922,58.807L525.977,62.883L522.646,63.383L517.91,58.537L515.256,62.268L508.958,64.422L498.081,72.856L493.032,74.051L483.508,75.323L477.523,75.285L474.088,69.466L472.006,67.386L457.797,70.621L453.581,71.122L442.183,74.475L437.968,84.816L429.172,88.177L426.465,87.211L419.491,82.384L409.498,79.566L404.814,76.943L401.587,77.367L395.758,80.569L392.479,80.647L391.595,84.469L385.922,87.945L385.87,91.037L381.758,95.215L381.654,97.111L378.271,100.014L377.542,102.144L372.702,109.121L369.839,111.914L367.341,116.883L363.75,119.486L362.865,128.273L359.951,130.414L361.044,134.152L356.047,135.593L352.976,134.386L347.98,137.035L342.827,135.593L337.467,132.594L334.604,133.256L326.173,130.842L323.779,130.881L319.407,132.711L320.708,135.515L319.042,136.373L317.429,141.245L318.21,143.82L313.213,146.317L312.068,150.261L310.247,151.238L296.298,151.042L293.852,152.331L292.395,155.849L295.205,156.162L294.893,158.195L297.495,157.1L296.923,159.173L298.849,161.012L302.7,161.247L299.785,165.083L300.306,166.179L295.57,173.9L296.454,175.39L294.216,178.293L293.436,181.355L289.74,184.261L285.004,185.086L281.621,186.933L280.112,189.331L282.61,192.477L283.183,196.097L281.413,197.947L282.558,199.68L278.811,207.444L274.595,211.783L274.699,214.349L271.681,218.338L273.19,221.697L275.011,222.131L273.971,227.273L270.848,228.183L271.16,232.972L268.298,234.121L264.602,232.972L262.989,234.042L260.387,240.343L256.535,241.453L253.152,245.222L248.104,245.261L246.074,246.174L245.085,253.123L241.91,253.401L240.297,255.07L241.182,260.239L239.672,263.024L240.193,270.192L241.91,272.104L241.442,275.094L247.479,277.886L254.766,289.026L259.45,290.704L260.699,293.583L257.836,294.223L256.951,296.183L262.781,298.264L264.29,300.826L261.792,301.747L262.468,305.552L264.446,308.598L262.416,310.322L261.427,315.698L259.814,317.825L251.695,319.03L250.55,324.292L251.487,325.377L256.015,326.261L254.609,328.955L255.598,331.53L253.204,331.972L252.319,334.105L247.167,339.984L242.483,344.135L242.535,346.071L239.152,348.45L236.185,352.001L232.542,353.495L233.323,355.069L229.627,353.939L229.523,355.594L233.114,358.866L231.813,364.89L229.055,365.739L233.114,368.005L231.657,370.595L233.062,371.162L231.709,374.725L235.04,377.966L234.311,382.344L231.293,381.371L230.616,383.115L233.323,384.738L235.092,387.821L239.256,391.11L238.579,393.262L239.828,399.033L237.226,402.002L238.631,403.954L238.423,407.006L236.133,412.586L237.33,414.378L237.33,419.311L235.821,421.147L235.04,426.411L236.81,433.968L238.839,437.361L238.891,440.797L240.921,442.68L239.724,444.726L240.921,447.183L240.505,450.46L243.68,450.624L243.784,453.985L245.553,457.142L246.074,465.514L248.78,471.389L247.063,473.897L245.241,479.203L242.17,481.59L237.642,489.828L235.3,497.085L228.951,503.524L229.263,506.994L228.066,508.068L228.847,513.443L224.371,524.369L219.426,529.507L216.772,534.857L218.125,542.619L217.813,547.978L216.668,550.763L219.999,556.087L222.237,557.669Z" fill="#e6f4ea" stroke="#137333" stroke-width="4" stroke-linejoin="round" stroke-linecap="round" />
  
  <!-- 内发光描边 -->
  <path d="M229.315,558.543L233.166,559.584L238.527,557.669L242.327,560L248.884,557.96L257.264,558.168L260.595,554.174L264.186,554.382L266.944,557.253L271.941,554.881L273.606,552.759L275.011,547.604L279.748,549.599L284.744,546.69L291.77,545.36L294.321,541.041L301.451,542.577L303.324,540.044L306.447,541.124L310.975,539.006L314.671,540.418L318.886,538.467L324.247,539.173L327.734,537.18L329.972,538.052L331.794,534.815L333.98,533.695L336.426,529.963L339.392,528.927L337.883,526.109L344.337,524.411L349.958,522.009L350.218,519.525L360.627,517.745L364.374,519.111L367.862,518.987L369.579,520.932L371.505,520.063L371.036,516.462L371.869,511.83L369.631,508.399L372.91,506.251L371.245,501.13L377.958,501.873L384.62,503.401L386.754,504.97L392.011,503.524L390.606,506.209L397.32,506.209L399.297,504.598L409.655,506.333L420.116,505.714L419.335,502.533L427.142,507.366L431.566,507.242L435.73,502.988L440.986,504.185L445.202,502.575L445.358,500.758L450.094,499.768L449.574,496.095L450.459,494.198L456.444,494.899L461.44,496.714L463.366,495.146L464.719,489.91L466.437,490.199L466.801,486.861L471.329,486.82L476.482,488.715L477.158,484.143L480.177,485.214L483.872,481.961L487.88,481.92L492.928,479.82L494.177,476.323L497.925,472.253L497.04,469.294L499.642,471.266L503.598,471.348L503.389,467.773L500.839,466.336L500.423,462.558L501.88,457.388L500.006,455.666L506.616,454.067L504.638,451.28L506.044,446.077L505.575,440.797L508.126,441.493L509.479,438.016L506.564,437.361L508.698,435.562L507.501,430.536L506.148,429.719L510.988,429.351L510.416,427.718L505.784,425.554L509.739,424.942L508.386,422.003L511.3,418.129L510.936,414.664L512.966,412.871L512.55,409.612L510.624,404.524L507.397,404.361L504.482,402.164L500.371,401.351L497.612,398.504L498.081,395.619L500.527,393.993L498.913,390.785L496.363,390.095L496.78,387.618L491.887,386.604L491.054,384.94L493.605,380.723L490.066,380.479L492.98,377.723L496.051,378.412L497.196,376.71L501.464,376.669L508.282,373.55L507.917,368.005L509.635,365.739L512.602,366.063L512.602,367.721L516.089,368.045L517.754,364.688L515.1,359.513L517.65,356.847L515.985,354.383L517.39,350.75L514.84,349.419L516.141,346.756L516.089,342.966L521.085,341.636L522.855,337.608L525.665,335.595L527.018,329.599L532.119,325.739L533.056,321.72L536.491,319.913L538.364,314.052L545.286,305.873L545.026,303.429L547.056,298.704L546.119,296.783L541.019,294.823L534.721,296.063L534.981,294.103L539.041,291.424L535.814,287.068L533.316,286.788L531.807,279.203L529.881,277.806L526.914,272.583L524.468,272.104L524.832,266.647L519.315,261.353L521.033,257.058L518.118,257.535L511.665,256.541L510.884,253.242L508.126,253.958L505.107,251.693L501.36,252.09L498.966,251.256L496.78,248.437L497.873,242.286L495.166,238.916L496.207,235.983L500.059,232.458L496.936,229.647L498.237,224.108L501.724,221.697L502.557,216.718L510.103,216.244L511.665,211.033L516.297,211.31L518.587,206.813L521.71,207.207L521.449,204.053L523.063,201.256L517.962,198.577L516.349,196.451L515.62,190.196L516.401,187.916L518.951,187.68L526.654,181.08L529.36,181.434L532.015,178.293L534.825,178.725L535.814,176.41L539.561,175.311L540.706,178.843L542.268,178.921L542.268,178.921L544.454,182.376L548.565,181.63L550.543,182.651L556.58,180.57L564.491,180.452L566.521,177.705L565.741,175.468L568.083,171.861L572.767,172.096L575.473,168.53L570.425,166.297L572.194,164.887L571.674,160.816L574.693,158.938L574.901,152.918L577.243,149.753L577.659,146.513L580.261,145.732L583.332,138.321L578.804,139.062L577.139,135.399L571.726,134.931L569.748,131.699L569.904,122.439L570.477,121.235L568.239,117.582L569.644,116.378L568.655,113.506L559.391,114.282L559.495,113.195L553.51,113.971L552.521,111.992L554.655,110.789L553.197,109.16L549.971,110.944L540.967,108.85L539.249,109.393L537.636,105.748L537.74,103.5L527.695,100.982L531.807,99.472L534.357,92.816L536.803,93.551L539.145,97.498L542.58,96.259L543.881,93.861L541.435,88.061L541.435,88.061L543.517,85.936L546.744,87.482L550.491,86.129L555.175,85.55L556.841,82.345L560.016,82.847L565.897,81.187L569.592,81.496L574.953,79.643L578.44,76.712L580.105,73.126L575.942,72.895L572.35,70.891L568.239,72.625L567.458,71.623L561.629,70.814L559.443,66.385L560.588,65.115L557.83,62.229L559.131,60.498L560.068,55.693L558.402,55.578L559.183,52.39L555.227,51.008L550.751,45.559L548.982,41.993L546.64,40L542.424,40.651L540.654,42.568L541.383,44.907L538.781,50.854L541.747,53.657L542.06,56.001L540.498,57.615L536.231,58.73L530.922,58.807L525.977,62.883L522.646,63.383L517.91,58.537L515.256,62.268L508.958,64.422L498.081,72.856L493.032,74.051L483.508,75.323L477.523,75.285L474.088,69.466L472.006,67.386L457.797,70.621L453.581,71.122L442.183,74.475L437.968,84.816L429.172,88.177L426.465,87.211L419.491,82.384L409.498,79.566L404.814,76.943L401.587,77.367L395.758,80.569L392.479,80.647L391.595,84.469L385.922,87.945L385.87,91.037L381.758,95.215L381.654,97.111L378.271,100.014L377.542,102.144L372.702,109.121L369.839,111.914L367.341,116.883L363.75,119.486L362.865,128.273L359.951,130.414L361.044,134.152L356.047,135.593L352.976,134.386L347.98,137.035L342.827,135.593L337.467,132.594L334.604,133.256L326.173,130.842L323.779,130.881L319.407,132.711L320.708,135.515L319.042,136.373L317.429,141.245L318.21,143.82L313.213,146.317L312.068,150.261L310.247,151.238L296.298,151.042L293.852,152.331L292.395,155.849L295.205,156.162L294.893,158.195L297.495,157.1L296.923,159.173L298.849,161.012L302.7,161.247L299.785,165.083L300.306,166.179L295.57,173.9L296.454,175.39L294.216,178.293L293.436,181.355L289.74,184.261L285.004,185.086L281.621,186.933L280.112,189.331L282.61,192.477L283.183,196.097L281.413,197.947L282.558,199.68L278.811,207.444L274.595,211.783L274.699,214.349L271.681,218.338L273.19,221.697L275.011,222.131L273.971,227.273L270.848,228.183L271.16,232.972L268.298,234.121L264.602,232.972L262.989,234.042L260.387,240.343L256.535,241.453L253.152,245.222L248.104,245.261L246.074,246.174L245.085,253.123L241.91,253.401L240.297,255.07L241.182,260.239L239.672,263.024L240.193,270.192L241.91,272.104L241.442,275.094L247.479,277.886L254.766,289.026L259.45,290.704L260.699,293.583L257.836,294.223L256.951,296.183L262.781,298.264L264.29,300.826L261.792,301.747L262.468,305.552L264.446,308.598L262.416,310.322L261.427,315.698L259.814,317.825L251.695,319.03L250.55,324.292L251.487,325.377L256.015,326.261L254.609,328.955L255.598,331.53L253.204,331.972L252.319,334.105L247.167,339.984L242.483,344.135L242.535,346.071L239.152,348.45L236.185,352.001L232.542,353.495L233.323,355.069L229.627,353.939L229.523,355.594L233.114,358.866L231.813,364.89L229.055,365.739L233.114,368.005L231.657,370.595L233.062,371.162L231.709,374.725L235.04,377.966L234.311,382.344L231.293,381.371L230.616,383.115L233.323,384.738L235.092,387.821L239.256,391.11L238.579,393.262L239.828,399.033L237.226,402.002L238.631,403.954L238.423,407.006L236.133,412.586L237.33,414.378L237.33,419.311L235.821,421.147L235.04,426.411L236.81,433.968L238.839,437.361L238.891,440.797L240.921,442.68L239.724,444.726L240.921,447.183L240.505,450.46L243.68,450.624L243.784,453.985L245.553,457.142L246.074,465.514L248.78,471.389L247.063,473.897L245.241,479.203L242.17,481.59L237.642,489.828L235.3,497.085L228.951,503.524L229.263,506.994L228.066,508.068L228.847,513.443L224.371,524.369L219.426,529.507L216.772,534.857L218.125,542.619L217.813,547.978L216.668,550.763L219.999,556.087L222.237,557.669Z" fill="none" stroke="#2e7d32" stroke-width="1.5" stroke-linejoin="round" stroke-linecap="round" opacity="0.6" />
</svg>