<svg xmlns="http://www.w3.org/2000/svg" width="800" height="600" viewBox="0 0 800 600">
  <!-- 背景色，采用淡米黄色 -->
  <rect width="100%" height="100%" fill="#f5f2eb" />
  
  <!-- 阴影层 -->
  <path d="M142.563,411.527L159.502,414.662L163.534,405.931L181.011,412.87L185.85,446.019L182.624,467.311L194.454,474.934L182.086,490.184L202.251,500.278L211.93,486.595L228.33,481.437L245.807,494.894L239.354,515.538L261.939,518.68L280.221,512.62L286.943,525.639L304.419,539.784L305.494,560L343.673,558.877L371.635,536.865L411.427,517.109L447.992,504.093L482.945,498.259L580.542,500.278L597.48,516.435L609.042,511.049L602.32,495.118L619.527,478.97L618.183,432.801L612.268,411.975L598.825,390.264L539.137,333.243L500.958,286.566L447.186,255.552L413.04,246.855L362.225,209.855L335.607,195.599L317.055,201.39L317.055,201.39L293.665,210.969L291.245,203.84L261.939,223.002L248.227,247.97L235.321,255.552L242.58,268.937L247.958,298.844L225.104,291.7L211.93,312.02L219.189,350.005L193.647,360.514L155.2,357.383L133.691,360.29L124.28,375.274L137.992,377.959ZM611.193,149.746L497.732,125.061L466.275,114.613L447.455,112.168L403.361,90.393L374.055,83.286L353.621,55.311L326.735,40L301.462,41.997L272.962,54.645L237.472,87.728L249.033,89.949L311.947,149.969L347.975,177.564L358.192,163.542L375.13,161.316L424.601,187.137L458.747,200.053L483.751,204.731L543.17,227.905L574.358,231.917L614.15,216.539L620.334,203.84ZM532.953,274.961L531.609,260.459L509.562,241.28L441.27,220.55L433.205,208.073L413.04,203.395L408.2,208.518L435.356,228.797L503.378,264.252L519.241,281.433L528.383,283.218ZM535.642,263.359L536.448,275.631L552.58,290.138L592.641,295.495L629.206,295.942L664.696,307.553L675.72,285.004L673.031,278.978L639.961,277.639L600.976,271.837L554.731,255.552L531.609,254.214ZM459.284,224.785L461.436,219.659L438.582,209.632ZM597.48,324.976L604.471,349.559L620.334,348.888L625.98,322.518L600.707,319.167ZM570.863,314.03L582.424,333.913L588.877,316.933Z" fill="#d1e7dd" opacity="0.3" transform="translate(5, 8)" />
  
  <!-- 填充与主轮廓 -->
  <path d="M142.563,411.527L159.502,414.662L163.534,405.931L181.011,412.87L185.85,446.019L182.624,467.311L194.454,474.934L182.086,490.184L202.251,500.278L211.93,486.595L228.33,481.437L245.807,494.894L239.354,515.538L261.939,518.68L280.221,512.62L286.943,525.639L304.419,539.784L305.494,560L343.673,558.877L371.635,536.865L411.427,517.109L447.992,504.093L482.945,498.259L580.542,500.278L597.48,516.435L609.042,511.049L602.32,495.118L619.527,478.97L618.183,432.801L612.268,411.975L598.825,390.264L539.137,333.243L500.958,286.566L447.186,255.552L413.04,246.855L362.225,209.855L335.607,195.599L317.055,201.39L317.055,201.39L293.665,210.969L291.245,203.84L261.939,223.002L248.227,247.97L235.321,255.552L242.58,268.937L247.958,298.844L225.104,291.7L211.93,312.02L219.189,350.005L193.647,360.514L155.2,357.383L133.691,360.29L124.28,375.274L137.992,377.959ZM611.193,149.746L497.732,125.061L466.275,114.613L447.455,112.168L403.361,90.393L374.055,83.286L353.621,55.311L326.735,40L301.462,41.997L272.962,54.645L237.472,87.728L249.033,89.949L311.947,149.969L347.975,177.564L358.192,163.542L375.13,161.316L424.601,187.137L458.747,200.053L483.751,204.731L543.17,227.905L574.358,231.917L614.15,216.539L620.334,203.84ZM532.953,274.961L531.609,260.459L509.562,241.28L441.27,220.55L433.205,208.073L413.04,203.395L408.2,208.518L435.356,228.797L503.378,264.252L519.241,281.433L528.383,283.218ZM535.642,263.359L536.448,275.631L552.58,290.138L592.641,295.495L629.206,295.942L664.696,307.553L675.72,285.004L673.031,278.978L639.961,277.639L600.976,271.837L554.731,255.552L531.609,254.214ZM459.284,224.785L461.436,219.659L438.582,209.632ZM597.48,324.976L604.471,349.559L620.334,348.888L625.98,322.518L600.707,319.167ZM570.863,314.03L582.424,333.913L588.877,316.933Z" fill="#e6f4ea" stroke="#137333" stroke-width="4" stroke-linejoin="round" stroke-linecap="round" />
  
  <!-- 内发光描边 -->
  <path d="M142.563,411.527L159.502,414.662L163.534,405.931L181.011,412.87L185.85,446.019L182.624,467.311L194.454,474.934L182.086,490.184L202.251,500.278L211.93,486.595L228.33,481.437L245.807,494.894L239.354,515.538L261.939,518.68L280.221,512.62L286.943,525.639L304.419,539.784L305.494,560L343.673,558.877L371.635,536.865L411.427,517.109L447.992,504.093L482.945,498.259L580.542,500.278L597.48,516.435L609.042,511.049L602.32,495.118L619.527,478.97L618.183,432.801L612.268,411.975L598.825,390.264L539.137,333.243L500.958,286.566L447.186,255.552L413.04,246.855L362.225,209.855L335.607,195.599L317.055,201.39L317.055,201.39L293.665,210.969L291.245,203.84L261.939,223.002L248.227,247.97L235.321,255.552L242.58,268.937L247.958,298.844L225.104,291.7L211.93,312.02L219.189,350.005L193.647,360.514L155.2,357.383L133.691,360.29L124.28,375.274L137.992,377.959ZM611.193,149.746L497.732,125.061L466.275,114.613L447.455,112.168L403.361,90.393L374.055,83.286L353.621,55.311L326.735,40L301.462,41.997L272.962,54.645L237.472,87.728L249.033,89.949L311.947,149.969L347.975,177.564L358.192,163.542L375.13,161.316L424.601,187.137L458.747,200.053L483.751,204.731L543.17,227.905L574.358,231.917L614.15,216.539L620.334,203.84ZM532.953,274.961L531.609,260.459L509.562,241.28L441.27,220.55L433.205,208.073L413.04,203.395L408.2,208.518L435.356,228.797L503.378,264.252L519.241,281.433L528.383,283.218ZM535.642,263.359L536.448,275.631L552.58,290.138L592.641,295.495L629.206,295.942L664.696,307.553L675.72,285.004L673.031,278.978L639.961,277.639L600.976,271.837L554.731,255.552L531.609,254.214ZM459.284,224.785L461.436,219.659L438.582,209.632ZM597.48,324.976L604.471,349.559L620.334,348.888L625.98,322.518L600.707,319.167ZM570.863,314.03L582.424,333.913L588.877,316.933Z" fill="none" stroke="#2e7d32" stroke-width="1.5" stroke-linejoin="round" stroke-linecap="round" opacity="0.6" />
</svg>