<svg xmlns="http://www.w3.org/2000/svg" width="800" height="600" viewBox="0 0 800 600">
  <!-- 背景色，采用淡米黄色 -->
  <rect width="100%" height="100%" fill="#f5f2eb" />
  
  <!-- 阴影层 -->
  <path d="M178.777,107.031L174.156,107.618L177.824,109.32L173.569,110.494L174.156,114.428L171.736,115.956L171.222,120.186L161.467,122.184L158.239,111.198L159.706,107.324L154.058,96.648L150.391,97.821L148.997,93.424L150.024,88.912L144.303,83.524L137.995,82.001L135.868,77.378L139.168,76.851L137.628,73.341L133.227,73.516L132.42,67.377L124.792,63.344L120.464,63.227L119.731,58.963L116.577,57.795L115.623,64.747L103.3,62.059L96.699,62L95.672,64.045L88.997,65.682L75.574,67.26L71.173,72.581L70.586,83.875L66.552,84.695L65.892,88.736L69.266,89.322L67.139,97.703L73.814,96.413L74.107,98.876L79.388,100.694L81.002,105.622L93.325,112.96L93.105,115.133L101.467,117.601L108.655,117.659L114.743,119.892L115.77,122.713L121.198,127.594L130.88,125.3L137.995,127.594L136.968,130.594L139.682,132.476L137.995,140.129L147.75,147.551L144.67,153.976L147.237,155.863L156.406,158.636L157.212,161.822L164.547,165.718L172.323,166.072L174.67,164.537L178.777,165.836L184.205,163.416L189.78,170.087L193.521,170.56L202.983,166.662L206.357,169.32L209.437,175.7L214.645,173.868L216.626,170.501L221.614,174.813L221.76,181.67L226.821,188.295L231.442,186.875L232.102,188.886L229.755,202.683L227.995,203.749L231.002,208.372L235.917,205.646L242.151,205.349L249.046,207.246L257.481,203.749L263.129,205.053L268.557,201.794L274.792,201.735L279.927,205.409L280.733,214.006L274.132,219.524L274.792,222.195L273.545,236.393L266.797,234.431L264.01,238.771L262.763,245.016L264.23,248.349L259.902,253.349L257.702,259.722L253.521,261.748L253.887,266.219L258.068,266.04L259.389,271.466L265.183,274.867L265.33,276.956L278.533,272.838L281.98,267.054L286.601,270.154L286.895,279.403L289.755,289.675L289.902,293.201L292.836,296.668L296.944,296.728L295.477,299.419L290.782,300.555L288.508,303.188L290.562,311.088L296.65,311.327L296.504,318.814L300.538,321.391L303.985,320.312L305.452,326.487L309.706,326.846L314.401,323.549L318.362,326.187L327.457,325.167L328.924,326.367L337.286,323.429L344.988,326.307L350.856,324.268L348.655,320.073L349.242,310.489L349.242,310.489L357.237,310.429L358.557,302.47L361.565,302.29L361.858,298.163L367.433,298.043L367.433,298.043L367.066,300.017L371.98,300.316L379.022,297.984L382.323,298.283L386.357,307.915L393.325,314.082L401.834,313.782L405.061,327.746L404.694,335.724L407.335,339.806L406.088,343.409L398.02,345.691L399.853,348.214L396.773,352.601L389.951,358.193L384.743,350.738L376.968,351.94L370.587,345.751L370.513,345.751L370.587,345.751L370.513,345.751L366.846,346.232L368.9,341.547L361.125,344.49L358.484,340.106L354.23,342.748L350.929,340.166L348.288,341.968L346.381,338.966L346.381,338.966L342.787,342.028L339.193,341.307L336.112,343.229L331.858,340.527L328.484,342.328L327.971,345.151L333.252,348.154L331.271,354.765L335.599,356.389L343.081,355.848L342.347,364.028L344.474,372.937L339.046,376.189L341.1,382.275L337.433,387.098L321.589,388.968L319.755,392.406L320.416,397.595L312.42,401.761L307.726,403.029L307.139,413.844L304.059,420.375L316.968,426.425L316.308,429.027L320.856,430.965L318.142,438.474L324.303,439.807L322.909,442.656L327.164,444.231L328.851,442.292L337.139,440.838L338.606,444.231L343.814,446.656L337.359,451.205L337.359,453.813L348.435,455.755L349.829,450.719L352.909,449.87L356.357,457.454L363.032,456.908L365.746,464.01L366.259,469.355L365.966,471.603L362.225,484.311L358.924,486.44L352.176,487.84L349.535,486.805L346.601,492.77L347.262,497.581L350.856,497.885L355.403,503.856L364.425,502.332L377.995,502.942L381.589,502.393L392.372,503.186L392.592,501.297L398.68,496.058L403.374,495.997L403.447,498.982L411.589,501.358L414.89,499.834L420.098,500.322L421.565,495.327L424.425,500.383L422.738,505.806L426.479,510.439L432.127,510.074L434.768,512.574L443.276,512.208L451.271,518.186L454.132,515.685L460.587,511.171L463.888,513.001L465.061,510.988L472.69,509.891L476.284,513.489L478.338,510.439L484.426,512.025L489.56,510.927L492.494,518.552L497.555,524.107L499.095,527.954L505.183,530.519L512.152,536.446L516.773,538.646L525.575,539.93L536.577,539.074L543.105,537.301L541.565,544.638L549.34,542.742L550.734,540.602L551.54,547.758L553.741,550.267L557.188,559.326L559.022,560L566.064,550.756L569.144,548.553L576.919,549.41L580.22,545.189L583.888,544.883L583.374,539.135L580.44,536.507L582.054,534.673L587.775,535.651L590.636,531.557L596.651,530.397L602.005,532.413L606.259,529.114L605.012,519.956L601.272,519.224L603.839,515.136L609.707,514.343L620.196,515.197L627.164,512.33L625.184,501.967L628.778,496.423L635.012,498.372L633.545,490.213L631.565,486.562L635.086,484.493L638.827,477.681L646.822,472.454L647.482,474.399L653.863,471.786L653.863,471.786L658.924,470.206L662.298,465.285L652.47,457.757L635.306,441.383L632.152,440.777L641.834,431.752L649.609,428.301L656.504,427.756L663.839,431.933L669.414,439.565L677.409,441.504L689.438,447.445L694.572,448.112L703.154,450.962L734.108,457.696L733.521,445.565L723.912,427.998L719.951,417.411L709.976,408.163L708.435,405.022L680.563,395.845L682.616,393.975L672.641,390.958L677.482,386.917L676.822,380.708L671.614,378.479L668.68,360.779L664.499,357.231L659.951,355.607L650.123,354.525L636.259,349.056L632.519,344.31L627.164,343.469L620.416,339.986L613.448,339.206L615.575,336.325L613.668,330.804L608.02,328.585L612.421,327.026L614.695,321.451L615.795,309.711L612.934,305.701L610,292.304L608.24,289.914L602.739,287.405L603.032,281.85L599.365,268.008L596.504,264.669L598.191,260.259L595.844,256.863L590.563,256.446L587.188,252.813L584.328,240.971L579.927,231.044L573.105,219.762L571.712,218.337L568.411,213.413L562.543,199.839L556.748,190.662L542.665,163.002L540.318,152.561L536.357,143.486L536.064,137.361L511.271,127.3L494.474,119.246L476.504,116.073L472.91,112.49L456.186,106.15L452.592,103.334L447.604,100.635L435.281,93.775L442.469,86.569L434.254,84.812L425.306,84.343L438.729,84.051L439.022,84.109L432.201,80.421L432.347,82.294L424.939,82.88L417.09,81.65L412.249,78.899L408.215,78.724L405.721,75.33L403.961,67.903L405.428,63.695L404.988,57.036L408.215,49.039L413.79,46.706L414.597,51.432L416.43,50.906L414.67,46.647L416.284,45.714L414.01,41.108L409.609,40L405.721,42.099L396.259,43.381L393.472,48.281L383.056,48.222L373.007,49.973L371.32,48.748L363.472,51.782L363.252,61.475L356.65,69.949L356.064,73.516L352.689,79.309L348.802,79.543L346.381,85.163L351.736,85.749L354.083,87.799L348.802,91.314L342.934,93.131L339.853,91.314L333.105,91.255L332.372,88.853L325.77,89.849L315.648,95.768L317.188,99.697L313.081,99.345L311.32,103.04L313.081,113.43L310.293,117.483L308.973,123.007L305.966,124.477L295.33,123.36L293.79,125.712L286.968,125.594L286.675,128.77L282.127,128.711L281.907,119.951L276.552,116.367L280.367,113.782L282.787,109.144L270.171,106.092L274.425,100.753L270.758,95.827L267.164,96.413L254.988,93.131L250,94.068L249.193,97.175L236.21,96.296L235.917,104.449L237.164,112.138L223.154,108.733L220.146,114.252L214.279,115.486L212.225,118.834L205.77,118.306L197.041,116.191L189.633,108.322L189.633,106.092L185.819,104.273L180.391,105.681L180.391,105.681L179.951,106.444L179.951,106.444L178.777,107.031Z" fill="#d1e7dd" opacity="0.3" transform="translate(5, 8)" />
  
  <!-- 填充与主轮廓 -->
  <path d="M178.777,107.031L174.156,107.618L177.824,109.32L173.569,110.494L174.156,114.428L171.736,115.956L171.222,120.186L161.467,122.184L158.239,111.198L159.706,107.324L154.058,96.648L150.391,97.821L148.997,93.424L150.024,88.912L144.303,83.524L137.995,82.001L135.868,77.378L139.168,76.851L137.628,73.341L133.227,73.516L132.42,67.377L124.792,63.344L120.464,63.227L119.731,58.963L116.577,57.795L115.623,64.747L103.3,62.059L96.699,62L95.672,64.045L88.997,65.682L75.574,67.26L71.173,72.581L70.586,83.875L66.552,84.695L65.892,88.736L69.266,89.322L67.139,97.703L73.814,96.413L74.107,98.876L79.388,100.694L81.002,105.622L93.325,112.96L93.105,115.133L101.467,117.601L108.655,117.659L114.743,119.892L115.77,122.713L121.198,127.594L130.88,125.3L137.995,127.594L136.968,130.594L139.682,132.476L137.995,140.129L147.75,147.551L144.67,153.976L147.237,155.863L156.406,158.636L157.212,161.822L164.547,165.718L172.323,166.072L174.67,164.537L178.777,165.836L184.205,163.416L189.78,170.087L193.521,170.56L202.983,166.662L206.357,169.32L209.437,175.7L214.645,173.868L216.626,170.501L221.614,174.813L221.76,181.67L226.821,188.295L231.442,186.875L232.102,188.886L229.755,202.683L227.995,203.749L231.002,208.372L235.917,205.646L242.151,205.349L249.046,207.246L257.481,203.749L263.129,205.053L268.557,201.794L274.792,201.735L279.927,205.409L280.733,214.006L274.132,219.524L274.792,222.195L273.545,236.393L266.797,234.431L264.01,238.771L262.763,245.016L264.23,248.349L259.902,253.349L257.702,259.722L253.521,261.748L253.887,266.219L258.068,266.04L259.389,271.466L265.183,274.867L265.33,276.956L278.533,272.838L281.98,267.054L286.601,270.154L286.895,279.403L289.755,289.675L289.902,293.201L292.836,296.668L296.944,296.728L295.477,299.419L290.782,300.555L288.508,303.188L290.562,311.088L296.65,311.327L296.504,318.814L300.538,321.391L303.985,320.312L305.452,326.487L309.706,326.846L314.401,323.549L318.362,326.187L327.457,325.167L328.924,326.367L337.286,323.429L344.988,326.307L350.856,324.268L348.655,320.073L349.242,310.489L349.242,310.489L357.237,310.429L358.557,302.47L361.565,302.29L361.858,298.163L367.433,298.043L367.433,298.043L367.066,300.017L371.98,300.316L379.022,297.984L382.323,298.283L386.357,307.915L393.325,314.082L401.834,313.782L405.061,327.746L404.694,335.724L407.335,339.806L406.088,343.409L398.02,345.691L399.853,348.214L396.773,352.601L389.951,358.193L384.743,350.738L376.968,351.94L370.587,345.751L370.513,345.751L370.587,345.751L370.513,345.751L366.846,346.232L368.9,341.547L361.125,344.49L358.484,340.106L354.23,342.748L350.929,340.166L348.288,341.968L346.381,338.966L346.381,338.966L342.787,342.028L339.193,341.307L336.112,343.229L331.858,340.527L328.484,342.328L327.971,345.151L333.252,348.154L331.271,354.765L335.599,356.389L343.081,355.848L342.347,364.028L344.474,372.937L339.046,376.189L341.1,382.275L337.433,387.098L321.589,388.968L319.755,392.406L320.416,397.595L312.42,401.761L307.726,403.029L307.139,413.844L304.059,420.375L316.968,426.425L316.308,429.027L320.856,430.965L318.142,438.474L324.303,439.807L322.909,442.656L327.164,444.231L328.851,442.292L337.139,440.838L338.606,444.231L343.814,446.656L337.359,451.205L337.359,453.813L348.435,455.755L349.829,450.719L352.909,449.87L356.357,457.454L363.032,456.908L365.746,464.01L366.259,469.355L365.966,471.603L362.225,484.311L358.924,486.44L352.176,487.84L349.535,486.805L346.601,492.77L347.262,497.581L350.856,497.885L355.403,503.856L364.425,502.332L377.995,502.942L381.589,502.393L392.372,503.186L392.592,501.297L398.68,496.058L403.374,495.997L403.447,498.982L411.589,501.358L414.89,499.834L420.098,500.322L421.565,495.327L424.425,500.383L422.738,505.806L426.479,510.439L432.127,510.074L434.768,512.574L443.276,512.208L451.271,518.186L454.132,515.685L460.587,511.171L463.888,513.001L465.061,510.988L472.69,509.891L476.284,513.489L478.338,510.439L484.426,512.025L489.56,510.927L492.494,518.552L497.555,524.107L499.095,527.954L505.183,530.519L512.152,536.446L516.773,538.646L525.575,539.93L536.577,539.074L543.105,537.301L541.565,544.638L549.34,542.742L550.734,540.602L551.54,547.758L553.741,550.267L557.188,559.326L559.022,560L566.064,550.756L569.144,548.553L576.919,549.41L580.22,545.189L583.888,544.883L583.374,539.135L580.44,536.507L582.054,534.673L587.775,535.651L590.636,531.557L596.651,530.397L602.005,532.413L606.259,529.114L605.012,519.956L601.272,519.224L603.839,515.136L609.707,514.343L620.196,515.197L627.164,512.33L625.184,501.967L628.778,496.423L635.012,498.372L633.545,490.213L631.565,486.562L635.086,484.493L638.827,477.681L646.822,472.454L647.482,474.399L653.863,471.786L653.863,471.786L658.924,470.206L662.298,465.285L652.47,457.757L635.306,441.383L632.152,440.777L641.834,431.752L649.609,428.301L656.504,427.756L663.839,431.933L669.414,439.565L677.409,441.504L689.438,447.445L694.572,448.112L703.154,450.962L734.108,457.696L733.521,445.565L723.912,427.998L719.951,417.411L709.976,408.163L708.435,405.022L680.563,395.845L682.616,393.975L672.641,390.958L677.482,386.917L676.822,380.708L671.614,378.479L668.68,360.779L664.499,357.231L659.951,355.607L650.123,354.525L636.259,349.056L632.519,344.31L627.164,343.469L620.416,339.986L613.448,339.206L615.575,336.325L613.668,330.804L608.02,328.585L612.421,327.026L614.695,321.451L615.795,309.711L612.934,305.701L610,292.304L608.24,289.914L602.739,287.405L603.032,281.85L599.365,268.008L596.504,264.669L598.191,260.259L595.844,256.863L590.563,256.446L587.188,252.813L584.328,240.971L579.927,231.044L573.105,219.762L571.712,218.337L568.411,213.413L562.543,199.839L556.748,190.662L542.665,163.002L540.318,152.561L536.357,143.486L536.064,137.361L511.271,127.3L494.474,119.246L476.504,116.073L472.91,112.49L456.186,106.15L452.592,103.334L447.604,100.635L435.281,93.775L442.469,86.569L434.254,84.812L425.306,84.343L438.729,84.051L439.022,84.109L432.201,80.421L432.347,82.294L424.939,82.88L417.09,81.65L412.249,78.899L408.215,78.724L405.721,75.33L403.961,67.903L405.428,63.695L404.988,57.036L408.215,49.039L413.79,46.706L414.597,51.432L416.43,50.906L414.67,46.647L416.284,45.714L414.01,41.108L409.609,40L405.721,42.099L396.259,43.381L393.472,48.281L383.056,48.222L373.007,49.973L371.32,48.748L363.472,51.782L363.252,61.475L356.65,69.949L356.064,73.516L352.689,79.309L348.802,79.543L346.381,85.163L351.736,85.749L354.083,87.799L348.802,91.314L342.934,93.131L339.853,91.314L333.105,91.255L332.372,88.853L325.77,89.849L315.648,95.768L317.188,99.697L313.081,99.345L311.32,103.04L313.081,113.43L310.293,117.483L308.973,123.007L305.966,124.477L295.33,123.36L293.79,125.712L286.968,125.594L286.675,128.77L282.127,128.711L281.907,119.951L276.552,116.367L280.367,113.782L282.787,109.144L270.171,106.092L274.425,100.753L270.758,95.827L267.164,96.413L254.988,93.131L250,94.068L249.193,97.175L236.21,96.296L235.917,104.449L237.164,112.138L223.154,108.733L220.146,114.252L214.279,115.486L212.225,118.834L205.77,118.306L197.041,116.191L189.633,108.322L189.633,106.092L185.819,104.273L180.391,105.681L180.391,105.681L179.951,106.444L179.951,106.444L178.777,107.031Z" fill="#e6f4ea" stroke="#137333" stroke-width="4" stroke-linejoin="round" stroke-linecap="round" />
  
  <!-- 内发光描边 -->
  <path d="M178.777,107.031L174.156,107.618L177.824,109.32L173.569,110.494L174.156,114.428L171.736,115.956L171.222,120.186L161.467,122.184L158.239,111.198L159.706,107.324L154.058,96.648L150.391,97.821L148.997,93.424L150.024,88.912L144.303,83.524L137.995,82.001L135.868,77.378L139.168,76.851L137.628,73.341L133.227,73.516L132.42,67.377L124.792,63.344L120.464,63.227L119.731,58.963L116.577,57.795L115.623,64.747L103.3,62.059L96.699,62L95.672,64.045L88.997,65.682L75.574,67.26L71.173,72.581L70.586,83.875L66.552,84.695L65.892,88.736L69.266,89.322L67.139,97.703L73.814,96.413L74.107,98.876L79.388,100.694L81.002,105.622L93.325,112.96L93.105,115.133L101.467,117.601L108.655,117.659L114.743,119.892L115.77,122.713L121.198,127.594L130.88,125.3L137.995,127.594L136.968,130.594L139.682,132.476L137.995,140.129L147.75,147.551L144.67,153.976L147.237,155.863L156.406,158.636L157.212,161.822L164.547,165.718L172.323,166.072L174.67,164.537L178.777,165.836L184.205,163.416L189.78,170.087L193.521,170.56L202.983,166.662L206.357,169.32L209.437,175.7L214.645,173.868L216.626,170.501L221.614,174.813L221.76,181.67L226.821,188.295L231.442,186.875L232.102,188.886L229.755,202.683L227.995,203.749L231.002,208.372L235.917,205.646L242.151,205.349L249.046,207.246L257.481,203.749L263.129,205.053L268.557,201.794L274.792,201.735L279.927,205.409L280.733,214.006L274.132,219.524L274.792,222.195L273.545,236.393L266.797,234.431L264.01,238.771L262.763,245.016L264.23,248.349L259.902,253.349L257.702,259.722L253.521,261.748L253.887,266.219L258.068,266.04L259.389,271.466L265.183,274.867L265.33,276.956L278.533,272.838L281.98,267.054L286.601,270.154L286.895,279.403L289.755,289.675L289.902,293.201L292.836,296.668L296.944,296.728L295.477,299.419L290.782,300.555L288.508,303.188L290.562,311.088L296.65,311.327L296.504,318.814L300.538,321.391L303.985,320.312L305.452,326.487L309.706,326.846L314.401,323.549L318.362,326.187L327.457,325.167L328.924,326.367L337.286,323.429L344.988,326.307L350.856,324.268L348.655,320.073L349.242,310.489L349.242,310.489L357.237,310.429L358.557,302.47L361.565,302.29L361.858,298.163L367.433,298.043L367.433,298.043L367.066,300.017L371.98,300.316L379.022,297.984L382.323,298.283L386.357,307.915L393.325,314.082L401.834,313.782L405.061,327.746L404.694,335.724L407.335,339.806L406.088,343.409L398.02,345.691L399.853,348.214L396.773,352.601L389.951,358.193L384.743,350.738L376.968,351.94L370.587,345.751L370.513,345.751L370.587,345.751L370.513,345.751L366.846,346.232L368.9,341.547L361.125,344.49L358.484,340.106L354.23,342.748L350.929,340.166L348.288,341.968L346.381,338.966L346.381,338.966L342.787,342.028L339.193,341.307L336.112,343.229L331.858,340.527L328.484,342.328L327.971,345.151L333.252,348.154L331.271,354.765L335.599,356.389L343.081,355.848L342.347,364.028L344.474,372.937L339.046,376.189L341.1,382.275L337.433,387.098L321.589,388.968L319.755,392.406L320.416,397.595L312.42,401.761L307.726,403.029L307.139,413.844L304.059,420.375L316.968,426.425L316.308,429.027L320.856,430.965L318.142,438.474L324.303,439.807L322.909,442.656L327.164,444.231L328.851,442.292L337.139,440.838L338.606,444.231L343.814,446.656L337.359,451.205L337.359,453.813L348.435,455.755L349.829,450.719L352.909,449.87L356.357,457.454L363.032,456.908L365.746,464.01L366.259,469.355L365.966,471.603L362.225,484.311L358.924,486.44L352.176,487.84L349.535,486.805L346.601,492.77L347.262,497.581L350.856,497.885L355.403,503.856L364.425,502.332L377.995,502.942L381.589,502.393L392.372,503.186L392.592,501.297L398.68,496.058L403.374,495.997L403.447,498.982L411.589,501.358L414.89,499.834L420.098,500.322L421.565,495.327L424.425,500.383L422.738,505.806L426.479,510.439L432.127,510.074L434.768,512.574L443.276,512.208L451.271,518.186L454.132,515.685L460.587,511.171L463.888,513.001L465.061,510.988L472.69,509.891L476.284,513.489L478.338,510.439L484.426,512.025L489.56,510.927L492.494,518.552L497.555,524.107L499.095,527.954L505.183,530.519L512.152,536.446L516.773,538.646L525.575,539.93L536.577,539.074L543.105,537.301L541.565,544.638L549.34,542.742L550.734,540.602L551.54,547.758L553.741,550.267L557.188,559.326L559.022,560L566.064,550.756L569.144,548.553L576.919,549.41L580.22,545.189L583.888,544.883L583.374,539.135L580.44,536.507L582.054,534.673L587.775,535.651L590.636,531.557L596.651,530.397L602.005,532.413L606.259,529.114L605.012,519.956L601.272,519.224L603.839,515.136L609.707,514.343L620.196,515.197L627.164,512.33L625.184,501.967L628.778,496.423L635.012,498.372L633.545,490.213L631.565,486.562L635.086,484.493L638.827,477.681L646.822,472.454L647.482,474.399L653.863,471.786L653.863,471.786L658.924,470.206L662.298,465.285L652.47,457.757L635.306,441.383L632.152,440.777L641.834,431.752L649.609,428.301L656.504,427.756L663.839,431.933L669.414,439.565L677.409,441.504L689.438,447.445L694.572,448.112L703.154,450.962L734.108,457.696L733.521,445.565L723.912,427.998L719.951,417.411L709.976,408.163L708.435,405.022L680.563,395.845L682.616,393.975L672.641,390.958L677.482,386.917L676.822,380.708L671.614,378.479L668.68,360.779L664.499,357.231L659.951,355.607L650.123,354.525L636.259,349.056L632.519,344.31L627.164,343.469L620.416,339.986L613.448,339.206L615.575,336.325L613.668,330.804L608.02,328.585L612.421,327.026L614.695,321.451L615.795,309.711L612.934,305.701L610,292.304L608.24,289.914L602.739,287.405L603.032,281.85L599.365,268.008L596.504,264.669L598.191,260.259L595.844,256.863L590.563,256.446L587.188,252.813L584.328,240.971L579.927,231.044L573.105,219.762L571.712,218.337L568.411,213.413L562.543,199.839L556.748,190.662L542.665,163.002L540.318,152.561L536.357,143.486L536.064,137.361L511.271,127.3L494.474,119.246L476.504,116.073L472.91,112.49L456.186,106.15L452.592,103.334L447.604,100.635L435.281,93.775L442.469,86.569L434.254,84.812L425.306,84.343L438.729,84.051L439.022,84.109L432.201,80.421L432.347,82.294L424.939,82.88L417.09,81.65L412.249,78.899L408.215,78.724L405.721,75.33L403.961,67.903L405.428,63.695L404.988,57.036L408.215,49.039L413.79,46.706L414.597,51.432L416.43,50.906L414.67,46.647L416.284,45.714L414.01,41.108L409.609,40L405.721,42.099L396.259,43.381L393.472,48.281L383.056,48.222L373.007,49.973L371.32,48.748L363.472,51.782L363.252,61.475L356.65,69.949L356.064,73.516L352.689,79.309L348.802,79.543L346.381,85.163L351.736,85.749L354.083,87.799L348.802,91.314L342.934,93.131L339.853,91.314L333.105,91.255L332.372,88.853L325.77,89.849L315.648,95.768L317.188,99.697L313.081,99.345L311.32,103.04L313.081,113.43L310.293,117.483L308.973,123.007L305.966,124.477L295.33,123.36L293.79,125.712L286.968,125.594L286.675,128.77L282.127,128.711L281.907,119.951L276.552,116.367L280.367,113.782L282.787,109.144L270.171,106.092L274.425,100.753L270.758,95.827L267.164,96.413L254.988,93.131L250,94.068L249.193,97.175L236.21,96.296L235.917,104.449L237.164,112.138L223.154,108.733L220.146,114.252L214.279,115.486L212.225,118.834L205.77,118.306L197.041,116.191L189.633,108.322L189.633,106.092L185.819,104.273L180.391,105.681L180.391,105.681L179.951,106.444L179.951,106.444L178.777,107.031Z" fill="none" stroke="#2e7d32" stroke-width="1.5" stroke-linejoin="round" stroke-linecap="round" opacity="0.6" />
</svg>