<svg xmlns="http://www.w3.org/2000/svg" width="800" height="600" viewBox="0 0 800 600">
  <!-- 背景色，采用淡米黄色 -->
  <rect width="100%" height="100%" fill="#f5f2eb" />
  
  <!-- 阴影层 -->
  <path d="M142.992,411.782L144.339,416.257L150.281,418.223L150.597,415.104L162.878,412.528L163.749,415.646L170.958,413.206L173.969,413.951L177.138,409.003L179.753,408.732L184.427,416.392L190.369,417.952L190.606,422.157L186.408,424.599L190.844,428.942L190.369,433.762L185.932,435.256L179.673,440.689L181.575,445.308L181.099,452.649L184.11,455.573L192.429,459.585L193.855,468.431L199.559,483.14L200.351,491.591L204.709,497.797L204.154,504.414L199.004,508.031L203.916,518.205L210.096,519.639L214.057,516.292L213.661,513.356L218.494,513.424L220.95,515.951L227.684,517.522L232.517,516.361L231.408,521.142L234.814,522.85L244.638,523.875L250.422,523.192L252.482,518.615L258.82,515.746L262.147,510.011L269.436,508.099L272.209,512.059L275.853,509.806L280.369,498.956L280.29,493.909L285.519,491.728L293.758,490.705L298.67,492.137L296.373,497.66L296.927,502.572L302.632,503.595L300.651,507.963L304.612,508.372L306.989,511.376L306.276,520.049L303.979,521.074L307.306,525.652L312.376,529.411L310.95,530.847L316.417,535.018L314.674,537.89L324.26,538.848L336.54,535.086L339.313,530.437L345.493,529.206L347.79,533.24L351.197,533.924L356.822,527.292L362.051,525.72L361.734,523.465L372.905,523.465L378.213,521.825L379.56,527.429L388.275,526.062L388.671,530.778L399.762,544.184L396.118,545.211L396.435,551.234L403.803,559.178L407.764,560L414.657,557.329L418.38,547.332L415.766,545.074L419.093,536.18L430.027,531.462L431.056,523.465L434.859,515.951L426.382,505.301L426.065,503.254L432.562,497.387L435.652,489.682L443.653,483.004L444.446,477.826L448.565,477.758L452.527,479.87L461.558,466.253L465.599,462.17L469.719,463.395L476.611,470.405L482.078,470.2L486.911,472.855L492.615,472.583L490.317,476.26L490.397,476.26L492.298,474.422L492.298,474.353L492.773,473.332L492.694,473.264L497.765,471.698L497.923,465.3L493.962,464.416L493.962,460.81L485.881,462.374L480.256,461.694L472.016,455.301L475.027,451.221L480.652,436.478L486.99,430.979L488.654,432.744L491.189,444.833L495.705,445.988L506.638,444.425L511.629,440.213L515.273,431.589L521.136,431.725L524.78,423.514L531.752,416.663L535.951,410.088L542.369,410.359L546.568,412.934L547.677,417.952L553.777,416.46L559.164,406.022L557.976,403.108L554.649,404.125L557.818,398.367L562.175,396.471L559.402,388.078L556.154,383.072L554.649,376.512L549.737,374.889L544.745,365.901L542.606,364.55L556.154,361.038L561.7,356.379L563.68,345.38L561.462,337.827L572.712,337.76L572.395,333.311L568.672,326.102L564.552,322.062L564.71,316.541L557.818,312.705L557.976,305.037L552.351,301.809L551.321,298.515L565.106,304.162L569.543,302.683L571.841,298.784L573.425,306.113L577.386,306.113L583.645,309.14L586.814,306.651L597.351,313.445L597.827,308.332L600.203,305.978L599.966,300.33L595.054,295.356L598.064,295.356L597.43,288.101L601.946,286.758L601.709,284.407L594.578,283.669L596.321,277.225L593.469,275.48L593.707,270.851L598.54,267.364L600.837,262.067L598.223,258.783L597.668,253.892L601.075,250.142L601.709,245.321L597.351,238.427L590.062,236.621L585.309,238.896L580.238,236.22L593.628,223.983L602.105,222.179L607.334,214.43L614.86,209.689L620.089,207.353L619.693,204.283L602.58,205.551L602.184,201.881L597.985,197.345L591.33,201.814L580.476,197.011L573.9,192.477L565.819,192.544L563.046,190.61L557.025,182.48L554.807,182.614L545.3,167.9L537.06,158.321L523.909,148.086L520.898,143.901L515.273,140.515L502.043,139.585L496.655,135.735L485.009,125.253L480.573,119.087L492.219,114.448L497.368,110.208L503.865,108.155L508.381,104.513L508.064,98.556L502.914,94.388L500.934,90.552L495.546,92.338L488.891,91.412L490.793,85.329L485.643,81.363L480.81,82.883L477.958,86.915L472.016,83.941L475.661,79.447L472.175,77.201L473.125,70.927L471.699,61.159L466.55,59.114L465.361,61.687L460.37,60.763L455.775,64.326L449.991,62.149L443.495,63.402L440.405,67.824L434.226,66.768L432.483,68.748L435.652,71.587L436.206,77.795L432.245,78.126L428.68,82.685L420.282,81.76L416.954,84.139L409.349,94.124L407.368,93.396L403.644,83.61L401.268,80.901L400.396,73.172L398.891,75.483L390.493,77.531L392.157,69.606L385.106,71.521L373.222,72.446L363.715,71.059L358.723,68.682L351.197,62.281L344.621,59.51L342.958,55.355L337.491,49.355L334.322,41.12L328.776,42.305L322.2,40.593L319.982,43.886L316.1,40L307.861,41.186L306.593,43.359L303.028,41.383L296.056,46.258L299.304,49.487L296.769,51.992L297.324,60.499L290.431,67.23L290.669,71.719L288.292,73.37L287.499,79.183L289.876,84.866L287.103,85.395L283.617,91.412L277.517,92.272L277.913,101.005L273.001,107.957L268.327,108.619L266.029,103.388L259.929,106.169L257.394,110.54L246.54,113.256L249.947,117.695L246.302,121.275L250.818,125.982L257.79,123.065L259.057,126.181L258.899,133.943L263.098,142.108L267.614,143.437L260.721,146.691L257.79,143.769L251.452,147.754L247.57,147.754L246.223,153.402L241.707,154.2L232.121,152.405L227.605,149.947L223.881,152.405L214.374,148.883L209.938,145.296L200.43,151.076L200.114,155.263L203.599,163.775L206.769,165.571L196.865,170.162L196.786,172.359L202.332,172.492L199.559,176.819L200.193,183.28L203.283,187.878L202.253,199.612L195.043,200.013L195.36,205.617L182.446,215.432L183.001,225.186L177.297,229.398L170.404,237.491L166.918,236.086L160.976,238.16L155.668,244.518L151.548,246.191L150.994,253.423L136.258,255.299L131.9,259.252L129.603,256.572L126.592,258.582L127.86,265.889L119.145,264.749L112.015,269.376L113.599,276.017L108.608,279.842L110.113,281.923L105.043,283.736L97.199,282.863L96.645,292.333L92.604,293.206L90.782,298.65L93,301.07L92.05,307.121L96.962,310.619L95.773,313.311L99.735,320.378L102.032,318.964L102.032,318.964L104.409,322.331L108.449,321.927L116.451,327.652L112.331,332.57L121.918,330.683L125.8,342.615L134.039,344.233L139.031,358.472L142.279,361.241L142.279,369.482L142.279,369.482L140.219,377.256L142.516,382.598L140.536,384.898L148.221,387.266L145.923,394.237L142.754,397.148L145.765,399.451L148.934,406.767ZM622.703,193.144L632.527,196.411L637.598,199.679L643.144,199.279L645.6,194.61L645.917,189.011L641.559,186.478L639.103,182.014L640.45,180.482L639.499,178.684L621.357,177.019L613.989,171.294L607.968,172.692L595.925,167.966L593.311,170.828L599.57,178.684L600.362,181.681L598.857,184.013L605.274,192.744L615.415,190.877L616.92,193.344ZM629.2,167.634L624.684,165.97L621.357,167.035L620.168,170.628L623.337,173.823ZM631.181,228.663L628.804,230.134L636.41,232.073L631.418,228.863ZM656.691,96.638L656.612,101.866L670.239,101.998L669.605,98.358L662.792,99.748L658.989,95.777ZM622.624,149.216L609.156,154.067L621.515,160.117L631.498,161.447L633.478,152.87L631.022,149.216L626.269,149.216L624.367,146.359ZM642.51,159.518L637.439,160.383L647.818,161.247L648.69,158.787L655.344,160.915L654.077,156.526L644.57,156.526ZM605.036,297.305L603.372,300.733L608.997,299.859L611.453,297.574L606.383,293.542ZM649.561,205.351L651.383,212.961L655.186,213.629L653.364,208.354L657.484,206.619L657.404,202.014L654.631,197.812L652.888,199.412L646.947,196.878L644.253,199.612L645.283,202.948L647.184,204.55L648.373,205.217ZM657.008,139.054L657.325,134.341L649.799,132.218L637.439,130.957L637.915,137.793L642.668,139.253L647.026,137.328ZM580.793,349.765L584.041,348.281L583.883,344.166ZM635.776,211.492L630.151,213.161L633.637,216.768L641.559,221.644L643.54,219.707L640.212,214.831L642.748,213.562ZM574.772,309.678L580.159,313.782L581.506,309.678L578.575,307.458ZM498.953,497.319L498.478,498.001L498.636,498.138L499.27,496.978ZM594.42,91.676L597.589,103.057L601.313,106.897L612.879,114.183L618.821,115.045L611.374,108.288L603.135,105.507L600.758,102.197L600.124,94.719L597.827,90.089ZM587.448,388.213L591.251,384.898L586.497,384.222ZM625.16,236.554L628.883,231.203L627.457,228.596L620.564,223.85L618.584,218.772L612.483,219.506L607.809,227.66L611.216,230L613.989,228.061L619.455,235.083ZM661.049,198.812L660.811,198.745L660.89,198.412L659.781,198.945L659.702,199.212L659.623,199.212L659.464,199.412L659.94,199.746L659.86,199.946L660.336,201.08L660.573,200.947L661.207,200.88L661.762,200.813L660.732,199.479ZM675.072,108.751L673.646,104.182L671.982,107.758ZM584.913,394.373L590.221,392.274L587.527,390.853ZM610.107,168.499L608.839,165.837L603.927,167.634L604.957,170.828ZM652.017,195.411L654.631,188.277L650.353,188.544L649.006,194.144ZM582.457,194.544L585.547,196.144L593.073,192.277L591.964,184.879L586.973,179.416L582.219,178.617L581.11,185.545L581.744,193.81ZM481.603,515.951L481.603,518.137L486.831,520.391L481.682,515.951ZM595.529,296.096L599.015,299.658L598.698,295.558ZM606.621,222.58L603.135,224.251L605.512,228.061ZM594.024,176.886L590.142,180.149L594.737,183.347L596.876,177.951ZM596.242,154.599L601.788,151.94L600.283,147.887L594.182,148.751L591.568,152.073ZM626.506,196.078L622.703,193.144L621.277,195.344L621.515,195.344L621.673,195.411L625.397,197.345ZM638.707,227.125L640.45,223.983L634.904,223.315L632.765,219.306L629.121,220.976L634.033,226.189ZM490.317,476.26L490.317,476.396L490.397,476.26ZM699.473,173.357L702.563,174.888L702.167,174.555L701.771,174.023L700.82,173.757L699.869,173.357L699.711,173.291ZM635.697,156.925L634.35,161.114L642.272,159.452L640.292,156.726ZM638.073,209.556L641.401,210.958L645.837,209.556L645.837,206.685L640.45,206.552ZM702.167,102.329L704.544,99.483L701.85,97.762L699.077,99.814ZM485.722,456.933L492.694,453.805L488.574,450.61L481.999,450.881L477.958,455.437ZM496.972,453.601L503.627,450.406L498.478,448.774L495.071,451.629ZM660.098,197.211L659.306,197.278L658.989,197.745L659.147,197.878L659.306,198.345L660.732,197.945L660.653,197.812L660.256,197.278ZM709.218,101.733L708.584,97.895L705.574,99.748ZM627.457,195.544L631.735,198.478L636.885,200.346L632.527,196.744ZM605.432,197.411L607.334,200.546L609.235,197.278ZM478.75,451.561L484.613,449.046L482.553,447.891ZM662.316,200.947L662.237,201.147L662.554,201.214L662.475,200.947ZM621.277,195.344L621.673,195.411L621.515,195.344Z" fill="#d1e7dd" opacity="0.3" transform="translate(5, 8)" />
  
  <!-- 填充与主轮廓 -->
  <path d="M142.992,411.782L144.339,416.257L150.281,418.223L150.597,415.104L162.878,412.528L163.749,415.646L170.958,413.206L173.969,413.951L177.138,409.003L179.753,408.732L184.427,416.392L190.369,417.952L190.606,422.157L186.408,424.599L190.844,428.942L190.369,433.762L185.932,435.256L179.673,440.689L181.575,445.308L181.099,452.649L184.11,455.573L192.429,459.585L193.855,468.431L199.559,483.14L200.351,491.591L204.709,497.797L204.154,504.414L199.004,508.031L203.916,518.205L210.096,519.639L214.057,516.292L213.661,513.356L218.494,513.424L220.95,515.951L227.684,517.522L232.517,516.361L231.408,521.142L234.814,522.85L244.638,523.875L250.422,523.192L252.482,518.615L258.82,515.746L262.147,510.011L269.436,508.099L272.209,512.059L275.853,509.806L280.369,498.956L280.29,493.909L285.519,491.728L293.758,490.705L298.67,492.137L296.373,497.66L296.927,502.572L302.632,503.595L300.651,507.963L304.612,508.372L306.989,511.376L306.276,520.049L303.979,521.074L307.306,525.652L312.376,529.411L310.95,530.847L316.417,535.018L314.674,537.89L324.26,538.848L336.54,535.086L339.313,530.437L345.493,529.206L347.79,533.24L351.197,533.924L356.822,527.292L362.051,525.72L361.734,523.465L372.905,523.465L378.213,521.825L379.56,527.429L388.275,526.062L388.671,530.778L399.762,544.184L396.118,545.211L396.435,551.234L403.803,559.178L407.764,560L414.657,557.329L418.38,547.332L415.766,545.074L419.093,536.18L430.027,531.462L431.056,523.465L434.859,515.951L426.382,505.301L426.065,503.254L432.562,497.387L435.652,489.682L443.653,483.004L444.446,477.826L448.565,477.758L452.527,479.87L461.558,466.253L465.599,462.17L469.719,463.395L476.611,470.405L482.078,470.2L486.911,472.855L492.615,472.583L490.317,476.26L490.397,476.26L492.298,474.422L492.298,474.353L492.773,473.332L492.694,473.264L497.765,471.698L497.923,465.3L493.962,464.416L493.962,460.81L485.881,462.374L480.256,461.694L472.016,455.301L475.027,451.221L480.652,436.478L486.99,430.979L488.654,432.744L491.189,444.833L495.705,445.988L506.638,444.425L511.629,440.213L515.273,431.589L521.136,431.725L524.78,423.514L531.752,416.663L535.951,410.088L542.369,410.359L546.568,412.934L547.677,417.952L553.777,416.46L559.164,406.022L557.976,403.108L554.649,404.125L557.818,398.367L562.175,396.471L559.402,388.078L556.154,383.072L554.649,376.512L549.737,374.889L544.745,365.901L542.606,364.55L556.154,361.038L561.7,356.379L563.68,345.38L561.462,337.827L572.712,337.76L572.395,333.311L568.672,326.102L564.552,322.062L564.71,316.541L557.818,312.705L557.976,305.037L552.351,301.809L551.321,298.515L565.106,304.162L569.543,302.683L571.841,298.784L573.425,306.113L577.386,306.113L583.645,309.14L586.814,306.651L597.351,313.445L597.827,308.332L600.203,305.978L599.966,300.33L595.054,295.356L598.064,295.356L597.43,288.101L601.946,286.758L601.709,284.407L594.578,283.669L596.321,277.225L593.469,275.48L593.707,270.851L598.54,267.364L600.837,262.067L598.223,258.783L597.668,253.892L601.075,250.142L601.709,245.321L597.351,238.427L590.062,236.621L585.309,238.896L580.238,236.22L593.628,223.983L602.105,222.179L607.334,214.43L614.86,209.689L620.089,207.353L619.693,204.283L602.58,205.551L602.184,201.881L597.985,197.345L591.33,201.814L580.476,197.011L573.9,192.477L565.819,192.544L563.046,190.61L557.025,182.48L554.807,182.614L545.3,167.9L537.06,158.321L523.909,148.086L520.898,143.901L515.273,140.515L502.043,139.585L496.655,135.735L485.009,125.253L480.573,119.087L492.219,114.448L497.368,110.208L503.865,108.155L508.381,104.513L508.064,98.556L502.914,94.388L500.934,90.552L495.546,92.338L488.891,91.412L490.793,85.329L485.643,81.363L480.81,82.883L477.958,86.915L472.016,83.941L475.661,79.447L472.175,77.201L473.125,70.927L471.699,61.159L466.55,59.114L465.361,61.687L460.37,60.763L455.775,64.326L449.991,62.149L443.495,63.402L440.405,67.824L434.226,66.768L432.483,68.748L435.652,71.587L436.206,77.795L432.245,78.126L428.68,82.685L420.282,81.76L416.954,84.139L409.349,94.124L407.368,93.396L403.644,83.61L401.268,80.901L400.396,73.172L398.891,75.483L390.493,77.531L392.157,69.606L385.106,71.521L373.222,72.446L363.715,71.059L358.723,68.682L351.197,62.281L344.621,59.51L342.958,55.355L337.491,49.355L334.322,41.12L328.776,42.305L322.2,40.593L319.982,43.886L316.1,40L307.861,41.186L306.593,43.359L303.028,41.383L296.056,46.258L299.304,49.487L296.769,51.992L297.324,60.499L290.431,67.23L290.669,71.719L288.292,73.37L287.499,79.183L289.876,84.866L287.103,85.395L283.617,91.412L277.517,92.272L277.913,101.005L273.001,107.957L268.327,108.619L266.029,103.388L259.929,106.169L257.394,110.54L246.54,113.256L249.947,117.695L246.302,121.275L250.818,125.982L257.79,123.065L259.057,126.181L258.899,133.943L263.098,142.108L267.614,143.437L260.721,146.691L257.79,143.769L251.452,147.754L247.57,147.754L246.223,153.402L241.707,154.2L232.121,152.405L227.605,149.947L223.881,152.405L214.374,148.883L209.938,145.296L200.43,151.076L200.114,155.263L203.599,163.775L206.769,165.571L196.865,170.162L196.786,172.359L202.332,172.492L199.559,176.819L200.193,183.28L203.283,187.878L202.253,199.612L195.043,200.013L195.36,205.617L182.446,215.432L183.001,225.186L177.297,229.398L170.404,237.491L166.918,236.086L160.976,238.16L155.668,244.518L151.548,246.191L150.994,253.423L136.258,255.299L131.9,259.252L129.603,256.572L126.592,258.582L127.86,265.889L119.145,264.749L112.015,269.376L113.599,276.017L108.608,279.842L110.113,281.923L105.043,283.736L97.199,282.863L96.645,292.333L92.604,293.206L90.782,298.65L93,301.07L92.05,307.121L96.962,310.619L95.773,313.311L99.735,320.378L102.032,318.964L102.032,318.964L104.409,322.331L108.449,321.927L116.451,327.652L112.331,332.57L121.918,330.683L125.8,342.615L134.039,344.233L139.031,358.472L142.279,361.241L142.279,369.482L142.279,369.482L140.219,377.256L142.516,382.598L140.536,384.898L148.221,387.266L145.923,394.237L142.754,397.148L145.765,399.451L148.934,406.767ZM622.703,193.144L632.527,196.411L637.598,199.679L643.144,199.279L645.6,194.61L645.917,189.011L641.559,186.478L639.103,182.014L640.45,180.482L639.499,178.684L621.357,177.019L613.989,171.294L607.968,172.692L595.925,167.966L593.311,170.828L599.57,178.684L600.362,181.681L598.857,184.013L605.274,192.744L615.415,190.877L616.92,193.344ZM629.2,167.634L624.684,165.97L621.357,167.035L620.168,170.628L623.337,173.823ZM631.181,228.663L628.804,230.134L636.41,232.073L631.418,228.863ZM656.691,96.638L656.612,101.866L670.239,101.998L669.605,98.358L662.792,99.748L658.989,95.777ZM622.624,149.216L609.156,154.067L621.515,160.117L631.498,161.447L633.478,152.87L631.022,149.216L626.269,149.216L624.367,146.359ZM642.51,159.518L637.439,160.383L647.818,161.247L648.69,158.787L655.344,160.915L654.077,156.526L644.57,156.526ZM605.036,297.305L603.372,300.733L608.997,299.859L611.453,297.574L606.383,293.542ZM649.561,205.351L651.383,212.961L655.186,213.629L653.364,208.354L657.484,206.619L657.404,202.014L654.631,197.812L652.888,199.412L646.947,196.878L644.253,199.612L645.283,202.948L647.184,204.55L648.373,205.217ZM657.008,139.054L657.325,134.341L649.799,132.218L637.439,130.957L637.915,137.793L642.668,139.253L647.026,137.328ZM580.793,349.765L584.041,348.281L583.883,344.166ZM635.776,211.492L630.151,213.161L633.637,216.768L641.559,221.644L643.54,219.707L640.212,214.831L642.748,213.562ZM574.772,309.678L580.159,313.782L581.506,309.678L578.575,307.458ZM498.953,497.319L498.478,498.001L498.636,498.138L499.27,496.978ZM594.42,91.676L597.589,103.057L601.313,106.897L612.879,114.183L618.821,115.045L611.374,108.288L603.135,105.507L600.758,102.197L600.124,94.719L597.827,90.089ZM587.448,388.213L591.251,384.898L586.497,384.222ZM625.16,236.554L628.883,231.203L627.457,228.596L620.564,223.85L618.584,218.772L612.483,219.506L607.809,227.66L611.216,230L613.989,228.061L619.455,235.083ZM661.049,198.812L660.811,198.745L660.89,198.412L659.781,198.945L659.702,199.212L659.623,199.212L659.464,199.412L659.94,199.746L659.86,199.946L660.336,201.08L660.573,200.947L661.207,200.88L661.762,200.813L660.732,199.479ZM675.072,108.751L673.646,104.182L671.982,107.758ZM584.913,394.373L590.221,392.274L587.527,390.853ZM610.107,168.499L608.839,165.837L603.927,167.634L604.957,170.828ZM652.017,195.411L654.631,188.277L650.353,188.544L649.006,194.144ZM582.457,194.544L585.547,196.144L593.073,192.277L591.964,184.879L586.973,179.416L582.219,178.617L581.11,185.545L581.744,193.81ZM481.603,515.951L481.603,518.137L486.831,520.391L481.682,515.951ZM595.529,296.096L599.015,299.658L598.698,295.558ZM606.621,222.58L603.135,224.251L605.512,228.061ZM594.024,176.886L590.142,180.149L594.737,183.347L596.876,177.951ZM596.242,154.599L601.788,151.94L600.283,147.887L594.182,148.751L591.568,152.073ZM626.506,196.078L622.703,193.144L621.277,195.344L621.515,195.344L621.673,195.411L625.397,197.345ZM638.707,227.125L640.45,223.983L634.904,223.315L632.765,219.306L629.121,220.976L634.033,226.189ZM490.317,476.26L490.317,476.396L490.397,476.26ZM699.473,173.357L702.563,174.888L702.167,174.555L701.771,174.023L700.82,173.757L699.869,173.357L699.711,173.291ZM635.697,156.925L634.35,161.114L642.272,159.452L640.292,156.726ZM638.073,209.556L641.401,210.958L645.837,209.556L645.837,206.685L640.45,206.552ZM702.167,102.329L704.544,99.483L701.85,97.762L699.077,99.814ZM485.722,456.933L492.694,453.805L488.574,450.61L481.999,450.881L477.958,455.437ZM496.972,453.601L503.627,450.406L498.478,448.774L495.071,451.629ZM660.098,197.211L659.306,197.278L658.989,197.745L659.147,197.878L659.306,198.345L660.732,197.945L660.653,197.812L660.256,197.278ZM709.218,101.733L708.584,97.895L705.574,99.748ZM627.457,195.544L631.735,198.478L636.885,200.346L632.527,196.744ZM605.432,197.411L607.334,200.546L609.235,197.278ZM478.75,451.561L484.613,449.046L482.553,447.891ZM662.316,200.947L662.237,201.147L662.554,201.214L662.475,200.947ZM621.277,195.344L621.673,195.411L621.515,195.344Z" fill="#e6f4ea" stroke="#137333" stroke-width="4" stroke-linejoin="round" stroke-linecap="round" />
  
  <!-- 内发光描边 -->
  <path d="M142.992,411.782L144.339,416.257L150.281,418.223L150.597,415.104L162.878,412.528L163.749,415.646L170.958,413.206L173.969,413.951L177.138,409.003L179.753,408.732L184.427,416.392L190.369,417.952L190.606,422.157L186.408,424.599L190.844,428.942L190.369,433.762L185.932,435.256L179.673,440.689L181.575,445.308L181.099,452.649L184.11,455.573L192.429,459.585L193.855,468.431L199.559,483.14L200.351,491.591L204.709,497.797L204.154,504.414L199.004,508.031L203.916,518.205L210.096,519.639L214.057,516.292L213.661,513.356L218.494,513.424L220.95,515.951L227.684,517.522L232.517,516.361L231.408,521.142L234.814,522.85L244.638,523.875L250.422,523.192L252.482,518.615L258.82,515.746L262.147,510.011L269.436,508.099L272.209,512.059L275.853,509.806L280.369,498.956L280.29,493.909L285.519,491.728L293.758,490.705L298.67,492.137L296.373,497.66L296.927,502.572L302.632,503.595L300.651,507.963L304.612,508.372L306.989,511.376L306.276,520.049L303.979,521.074L307.306,525.652L312.376,529.411L310.95,530.847L316.417,535.018L314.674,537.89L324.26,538.848L336.54,535.086L339.313,530.437L345.493,529.206L347.79,533.24L351.197,533.924L356.822,527.292L362.051,525.72L361.734,523.465L372.905,523.465L378.213,521.825L379.56,527.429L388.275,526.062L388.671,530.778L399.762,544.184L396.118,545.211L396.435,551.234L403.803,559.178L407.764,560L414.657,557.329L418.38,547.332L415.766,545.074L419.093,536.18L430.027,531.462L431.056,523.465L434.859,515.951L426.382,505.301L426.065,503.254L432.562,497.387L435.652,489.682L443.653,483.004L444.446,477.826L448.565,477.758L452.527,479.87L461.558,466.253L465.599,462.17L469.719,463.395L476.611,470.405L482.078,470.2L486.911,472.855L492.615,472.583L490.317,476.26L490.397,476.26L492.298,474.422L492.298,474.353L492.773,473.332L492.694,473.264L497.765,471.698L497.923,465.3L493.962,464.416L493.962,460.81L485.881,462.374L480.256,461.694L472.016,455.301L475.027,451.221L480.652,436.478L486.99,430.979L488.654,432.744L491.189,444.833L495.705,445.988L506.638,444.425L511.629,440.213L515.273,431.589L521.136,431.725L524.78,423.514L531.752,416.663L535.951,410.088L542.369,410.359L546.568,412.934L547.677,417.952L553.777,416.46L559.164,406.022L557.976,403.108L554.649,404.125L557.818,398.367L562.175,396.471L559.402,388.078L556.154,383.072L554.649,376.512L549.737,374.889L544.745,365.901L542.606,364.55L556.154,361.038L561.7,356.379L563.68,345.38L561.462,337.827L572.712,337.76L572.395,333.311L568.672,326.102L564.552,322.062L564.71,316.541L557.818,312.705L557.976,305.037L552.351,301.809L551.321,298.515L565.106,304.162L569.543,302.683L571.841,298.784L573.425,306.113L577.386,306.113L583.645,309.14L586.814,306.651L597.351,313.445L597.827,308.332L600.203,305.978L599.966,300.33L595.054,295.356L598.064,295.356L597.43,288.101L601.946,286.758L601.709,284.407L594.578,283.669L596.321,277.225L593.469,275.48L593.707,270.851L598.54,267.364L600.837,262.067L598.223,258.783L597.668,253.892L601.075,250.142L601.709,245.321L597.351,238.427L590.062,236.621L585.309,238.896L580.238,236.22L593.628,223.983L602.105,222.179L607.334,214.43L614.86,209.689L620.089,207.353L619.693,204.283L602.58,205.551L602.184,201.881L597.985,197.345L591.33,201.814L580.476,197.011L573.9,192.477L565.819,192.544L563.046,190.61L557.025,182.48L554.807,182.614L545.3,167.9L537.06,158.321L523.909,148.086L520.898,143.901L515.273,140.515L502.043,139.585L496.655,135.735L485.009,125.253L480.573,119.087L492.219,114.448L497.368,110.208L503.865,108.155L508.381,104.513L508.064,98.556L502.914,94.388L500.934,90.552L495.546,92.338L488.891,91.412L490.793,85.329L485.643,81.363L480.81,82.883L477.958,86.915L472.016,83.941L475.661,79.447L472.175,77.201L473.125,70.927L471.699,61.159L466.55,59.114L465.361,61.687L460.37,60.763L455.775,64.326L449.991,62.149L443.495,63.402L440.405,67.824L434.226,66.768L432.483,68.748L435.652,71.587L436.206,77.795L432.245,78.126L428.68,82.685L420.282,81.76L416.954,84.139L409.349,94.124L407.368,93.396L403.644,83.61L401.268,80.901L400.396,73.172L398.891,75.483L390.493,77.531L392.157,69.606L385.106,71.521L373.222,72.446L363.715,71.059L358.723,68.682L351.197,62.281L344.621,59.51L342.958,55.355L337.491,49.355L334.322,41.12L328.776,42.305L322.2,40.593L319.982,43.886L316.1,40L307.861,41.186L306.593,43.359L303.028,41.383L296.056,46.258L299.304,49.487L296.769,51.992L297.324,60.499L290.431,67.23L290.669,71.719L288.292,73.37L287.499,79.183L289.876,84.866L287.103,85.395L283.617,91.412L277.517,92.272L277.913,101.005L273.001,107.957L268.327,108.619L266.029,103.388L259.929,106.169L257.394,110.54L246.54,113.256L249.947,117.695L246.302,121.275L250.818,125.982L257.79,123.065L259.057,126.181L258.899,133.943L263.098,142.108L267.614,143.437L260.721,146.691L257.79,143.769L251.452,147.754L247.57,147.754L246.223,153.402L241.707,154.2L232.121,152.405L227.605,149.947L223.881,152.405L214.374,148.883L209.938,145.296L200.43,151.076L200.114,155.263L203.599,163.775L206.769,165.571L196.865,170.162L196.786,172.359L202.332,172.492L199.559,176.819L200.193,183.28L203.283,187.878L202.253,199.612L195.043,200.013L195.36,205.617L182.446,215.432L183.001,225.186L177.297,229.398L170.404,237.491L166.918,236.086L160.976,238.16L155.668,244.518L151.548,246.191L150.994,253.423L136.258,255.299L131.9,259.252L129.603,256.572L126.592,258.582L127.86,265.889L119.145,264.749L112.015,269.376L113.599,276.017L108.608,279.842L110.113,281.923L105.043,283.736L97.199,282.863L96.645,292.333L92.604,293.206L90.782,298.65L93,301.07L92.05,307.121L96.962,310.619L95.773,313.311L99.735,320.378L102.032,318.964L102.032,318.964L104.409,322.331L108.449,321.927L116.451,327.652L112.331,332.57L121.918,330.683L125.8,342.615L134.039,344.233L139.031,358.472L142.279,361.241L142.279,369.482L142.279,369.482L140.219,377.256L142.516,382.598L140.536,384.898L148.221,387.266L145.923,394.237L142.754,397.148L145.765,399.451L148.934,406.767ZM622.703,193.144L632.527,196.411L637.598,199.679L643.144,199.279L645.6,194.61L645.917,189.011L641.559,186.478L639.103,182.014L640.45,180.482L639.499,178.684L621.357,177.019L613.989,171.294L607.968,172.692L595.925,167.966L593.311,170.828L599.57,178.684L600.362,181.681L598.857,184.013L605.274,192.744L615.415,190.877L616.92,193.344ZM629.2,167.634L624.684,165.97L621.357,167.035L620.168,170.628L623.337,173.823ZM631.181,228.663L628.804,230.134L636.41,232.073L631.418,228.863ZM656.691,96.638L656.612,101.866L670.239,101.998L669.605,98.358L662.792,99.748L658.989,95.777ZM622.624,149.216L609.156,154.067L621.515,160.117L631.498,161.447L633.478,152.87L631.022,149.216L626.269,149.216L624.367,146.359ZM642.51,159.518L637.439,160.383L647.818,161.247L648.69,158.787L655.344,160.915L654.077,156.526L644.57,156.526ZM605.036,297.305L603.372,300.733L608.997,299.859L611.453,297.574L606.383,293.542ZM649.561,205.351L651.383,212.961L655.186,213.629L653.364,208.354L657.484,206.619L657.404,202.014L654.631,197.812L652.888,199.412L646.947,196.878L644.253,199.612L645.283,202.948L647.184,204.55L648.373,205.217ZM657.008,139.054L657.325,134.341L649.799,132.218L637.439,130.957L637.915,137.793L642.668,139.253L647.026,137.328ZM580.793,349.765L584.041,348.281L583.883,344.166ZM635.776,211.492L630.151,213.161L633.637,216.768L641.559,221.644L643.54,219.707L640.212,214.831L642.748,213.562ZM574.772,309.678L580.159,313.782L581.506,309.678L578.575,307.458ZM498.953,497.319L498.478,498.001L498.636,498.138L499.27,496.978ZM594.42,91.676L597.589,103.057L601.313,106.897L612.879,114.183L618.821,115.045L611.374,108.288L603.135,105.507L600.758,102.197L600.124,94.719L597.827,90.089ZM587.448,388.213L591.251,384.898L586.497,384.222ZM625.16,236.554L628.883,231.203L627.457,228.596L620.564,223.85L618.584,218.772L612.483,219.506L607.809,227.66L611.216,230L613.989,228.061L619.455,235.083ZM661.049,198.812L660.811,198.745L660.89,198.412L659.781,198.945L659.702,199.212L659.623,199.212L659.464,199.412L659.94,199.746L659.86,199.946L660.336,201.08L660.573,200.947L661.207,200.88L661.762,200.813L660.732,199.479ZM675.072,108.751L673.646,104.182L671.982,107.758ZM584.913,394.373L590.221,392.274L587.527,390.853ZM610.107,168.499L608.839,165.837L603.927,167.634L604.957,170.828ZM652.017,195.411L654.631,188.277L650.353,188.544L649.006,194.144ZM582.457,194.544L585.547,196.144L593.073,192.277L591.964,184.879L586.973,179.416L582.219,178.617L581.11,185.545L581.744,193.81ZM481.603,515.951L481.603,518.137L486.831,520.391L481.682,515.951ZM595.529,296.096L599.015,299.658L598.698,295.558ZM606.621,222.58L603.135,224.251L605.512,228.061ZM594.024,176.886L590.142,180.149L594.737,183.347L596.876,177.951ZM596.242,154.599L601.788,151.94L600.283,147.887L594.182,148.751L591.568,152.073ZM626.506,196.078L622.703,193.144L621.277,195.344L621.515,195.344L621.673,195.411L625.397,197.345ZM638.707,227.125L640.45,223.983L634.904,223.315L632.765,219.306L629.121,220.976L634.033,226.189ZM490.317,476.26L490.317,476.396L490.397,476.26ZM699.473,173.357L702.563,174.888L702.167,174.555L701.771,174.023L700.82,173.757L699.869,173.357L699.711,173.291ZM635.697,156.925L634.35,161.114L642.272,159.452L640.292,156.726ZM638.073,209.556L641.401,210.958L645.837,209.556L645.837,206.685L640.45,206.552ZM702.167,102.329L704.544,99.483L701.85,97.762L699.077,99.814ZM485.722,456.933L492.694,453.805L488.574,450.61L481.999,450.881L477.958,455.437ZM496.972,453.601L503.627,450.406L498.478,448.774L495.071,451.629ZM660.098,197.211L659.306,197.278L658.989,197.745L659.147,197.878L659.306,198.345L660.732,197.945L660.653,197.812L660.256,197.278ZM709.218,101.733L708.584,97.895L705.574,99.748ZM627.457,195.544L631.735,198.478L636.885,200.346L632.527,196.744ZM605.432,197.411L607.334,200.546L609.235,197.278ZM478.75,451.561L484.613,449.046L482.553,447.891ZM662.316,200.947L662.237,201.147L662.554,201.214L662.475,200.947ZM621.277,195.344L621.673,195.411L621.515,195.344Z" fill="none" stroke="#2e7d32" stroke-width="1.5" stroke-linejoin="round" stroke-linecap="round" opacity="0.6" />
</svg>