<svg xmlns="http://www.w3.org/2000/svg" width="800" height="600" viewBox="0 0 800 600">
  <!-- 背景色，采用淡米黄色 -->
  <rect width="100%" height="100%" fill="#f5f2eb" />
  
  <!-- 阴影层 -->
  <path d="M334.058,102.981L338.202,106.565L338.385,114.622L337.166,115.507L330.827,113.492L329.974,116.146L322.844,117.277L318.029,119.588L317.968,124.065L315.104,123.622L313.702,125.885L306.084,127.018L300.782,131.104L297.491,130.612L290.116,133.123L287.861,128.987L284.631,125.885L282.071,126.033L280.243,123.72L280.609,118.162L272.991,112.607L274.758,107.842L270.553,103.619L265.251,103.423L262.508,101.558L262.569,104.11L259.887,103.914L259.522,101.558L255.865,98.222L251.843,98.271L248.613,96.799L245.626,98.467L240.934,98.32L239.349,101.214L235.875,101.411L233.072,106.958L232.95,109.316L229.963,116.785L238.313,117.277L236.546,126.575L232.828,125.393L231.487,126.87L235.327,132.237L235.266,138.149L239.105,145.447L231.67,146.335L226.368,148.605L221.675,147.223L217.592,148.21L214.849,153.245L212.046,151.566L209.974,153.591L209.974,158.826L207.901,158.085L206.987,160.654L208.328,163.422L206.804,166.043L209.608,166.636L211.924,170.098L211.558,173.81L208.937,173.859L209.425,177.523L205.525,183.12L205.829,188.522L204.428,190.307L200.04,189.91L195.042,191.398L192.421,194.573L179.867,194.771L174.869,193.233L172.432,188.77L169.14,188.125L166.154,190.505L165.606,194.771L167.19,195.118L168.409,201.67L165.057,201.322L164.204,204.302L167.495,206.19L170.177,209.767L176.698,209.27L179.257,210.016L178.709,212.551L189.557,213.446L191.203,216.728L195.286,217.573L194.555,221.902L196.688,224.54L194.555,226.034L193.518,230.416L193.884,236.297L195.651,243.727L199.857,243.578L202.234,245.075L206.012,244.576L205.951,247.57L216.495,245.374L216.251,247.969L225.027,253.561L226.124,255.909L226.307,255.909L226.307,255.959L226.307,256.009L226.185,256.109L227.526,258.557L232.279,260.806L235.57,260.157L237.765,262.206L240.873,259.857L241.848,261.756L245.505,253.312L249.222,255.16L252.147,252.313L253.854,255.909L260.984,249.117L263.971,245.274L265.86,246.172L262.447,248.618L259.461,252.662L263.179,254.011L261.411,256.908L264.763,263.606L266.104,279.772L268.968,285.835L267.018,297.371L267.688,301.99L265.738,307.917L266.835,310.179L264.336,315.659L264.215,318.878L266.287,320.639L263.483,324.414L260.07,323.407L255.743,325.018L255.743,325.018L251.721,323.307L248.125,325.32L242.701,324.213L230.573,332.422L228.623,332.119L224.783,334.639L222.955,337.612L223.808,340.991L219.298,343.008L216.921,349.215L212.533,352.193L214.362,356.688L212.777,361.084L214.666,362.651L212.594,366.696L216.068,367.808L219.664,367.151L222.589,374.993L226.002,374.74L229.171,378.284L229.232,381.981L233.742,386.997L235.51,384.058L240.629,380.36L245.139,381.322L252.818,390.14L254.707,388.568L258.669,388.669L261.594,386.642L263.605,390.444L268.786,394.145L268.664,396.58L275.368,397.798L276.221,400.082L280.548,399.98L281.828,405.514L278.659,405.412L272.381,408.002L268.054,412.168L261.411,414.658L259.766,418.217L261.228,419.489L260.009,425.288L253.244,425.797L251.233,432.364L256.292,437.152L256.84,441.025L259.766,440.617L262.508,442.554L263.605,446.48L265.86,448.826L264.336,455.409L266.957,458.983L263.361,462.61L266.348,466.748L265.129,469.151L273.295,471.4L274.514,475.185L281.218,479.943L280.243,482.297L283.473,489.261L282.498,494.026L283.778,496.589L282.01,503.153L287.435,510.286L288.105,518.041L291.823,517.167L297.247,518.298L299.502,521.381L302.488,521.072L308.643,516.448L321.015,510.44L326.744,510.338L329.365,509.106L332.656,495.667L336.13,492.95L340.701,492.592L346.003,494.846L348.684,494.539L352.28,497.153L354.169,500.537L356.912,499.717L357.156,504.384L360.69,502.127L363.799,505.205L362.092,510.697L351.975,520.713L350.147,519.736L341.371,528.887L343.87,529.093L344.54,530.173L344.662,530.224L344.479,530.996L342.041,531.716L339.238,536.09L345.637,540.672L346.125,543.247L349.964,539.848L351.975,542.732L358.74,542.114L361.178,538.818L367.699,534.958L371.173,534.083L373.306,531.51L377.816,531.768L384.825,528.681L384.398,524.722L387.202,522.409L385.861,520.096L380.924,516.808L386.287,513.88L386.531,510.132L390.675,508.028L395.124,507.412L398.05,508.592L399.573,511.98L398.72,516.551L402.621,517.733L407.192,515.216L409.203,518.709L411.519,515.935L414.749,514.959L414.139,519.736L418.71,524.979L418.588,531.047L422.184,533.826L426.145,534.392L425.475,536.759L427.425,540.878L433.885,540.62L437.786,538.303L440.833,540.208L441.991,544.122L445.892,544.689L452.352,542.68L460.031,544.946L466.064,544.792L473.012,541.908L476.852,543.092L477.644,545.41L482.032,546.286L486.847,550.666L485.262,552.419L486.115,557.679L491.722,560L497.207,556.441L503.911,557.318L502.936,551.697L505.252,550.151L507.019,552.213L510.371,549.172L521.707,547.729L522.134,542.165L525.303,540.878L529.386,535.987L533.957,534.392L536.639,535.472L541.941,529.247L546.329,526.007L545.902,518.503L555.836,510.954L555.593,506.642L561.139,506.334L561.931,497.307L559.554,493.77L559.066,488.8L561.199,485.471L556.933,485.369L556.994,483.679L564.612,480.147L562.175,478.766L559.493,472.218L559.737,468.997L567.05,464.551L570.463,467.31L577.776,470.02L580.641,468.128L584.115,470.02L591.489,471.4L594.963,470.787L595.999,466.442L598.985,466.442L603.861,463.376L606.116,465.624L611.418,463.12L607.944,462.099L604.714,455.818L604.836,449.847L603.861,447.449L598.498,449.694L595.024,446.072L597.827,443.319L595.207,439.904L603.556,437.814L605.506,434.452L610.199,432.313L611.967,436.337L615.562,435.827L619.341,430.48L619.036,423.761L623.729,423.1L626.411,418.471L628.544,418.065L626.715,413.693L627.325,409.221L629.153,407.951L628.97,404.498L634.273,399.32L633.846,392.776L635.796,390.849L633.297,388.365L630.92,390.444L624.278,385.476L617.208,385.78L615.014,383.703L610.321,384.007L607.213,380.157L608.615,375.651L606.238,371.451L605.019,375.6L600.692,375.196L597.949,376.461L591.184,374.487L591.123,372.007L587.223,372.058L582.165,376.41L581.982,377.98L573.023,377.322L570.037,377.777L558.762,377.271L551.265,378.537L547.487,373.576L544.501,373.323L543.952,369.326L546.39,364.37L548.584,365.229L554.191,364.066L556.933,362.297L560.042,351.739L557.421,351.133L558.274,349.871L560.285,349.871L559.859,345.43L557.604,339.528L552.058,339.982L549.193,333.681L546.634,334.387L545.476,338.57L536.273,336.957L536.273,334.79L541.636,331.011L537.309,328.996L536.09,326.176L529.203,327.384L527.802,328.996L524.267,327.687L525.425,325.32L520.305,324.213L522.56,317.973L518.782,316.363L519.33,314.201L508.604,309.174L511.164,303.748L511.651,294.762L515.552,293.708L522.195,290.247L521.646,285.935L523.17,283.078L536.334,281.525L539.381,277.518L537.675,272.461L542.185,269.759L540.417,262.356L541.027,255.559L534.81,256.009L531.214,254.66L532.86,249.167L528.472,246.671L528.899,244.326L531.702,242.829L535.237,245.075L537.797,243.478L540.783,244.077L543.769,241.532L543.769,241.532L545.354,244.027L547.548,242.53L550.29,244.675L553.825,242.48L556.019,246.122L562.479,243.677L560.773,247.57L563.82,247.17L563.881,247.17L563.82,247.17L563.881,247.17L569.183,252.313L575.643,251.314L579.971,257.508L585.638,252.862L588.198,249.217L586.674,247.121L593.378,245.224L594.414,242.231L592.22,238.839L592.525,232.21L589.844,220.608L582.774,220.857L576.984,215.733L573.632,207.73L570.89,207.481L565.039,209.419L560.956,209.171L561.26,207.531L561.26,207.531L556.629,207.63L556.385,211.059L553.886,211.209L552.789,217.822L546.146,217.872L546.146,217.872L545.658,225.835L547.487,229.321L542.611,231.014L536.212,228.623L529.264,231.064L528.045,230.068L520.488,230.915L517.197,228.723L513.297,231.463L509.762,231.164L508.543,226.034L505.679,226.93L502.327,224.789L502.449,218.568L497.39,218.369L495.684,211.805L497.573,209.618L501.473,208.674L502.692,206.438L499.279,206.388L496.842,203.507L496.72,200.578L494.343,192.043L494.099,184.358L490.259,181.782L487.395,186.589L476.425,190.009L476.303,188.274L471.488,185.449L470.391,180.94L466.918,181.088L466.613,177.374L470.087,175.691L471.915,170.395L475.511,166.241L474.292,163.472L475.328,158.283L477.644,154.677L483.251,156.307L484.287,144.51L483.738,142.291L489.223,137.706L488.553,130.562L484.287,127.51L479.107,127.559L474.597,130.267L469.904,129.184L462.895,132.089L457.166,130.513L451.986,130.759L447.903,133.025L445.404,129.184L446.867,128.297L448.817,116.834L448.268,115.163L444.429,116.343L440.224,110.838L440.102,105.141L435.958,101.558L434.312,104.356L429.985,105.878L427.425,100.577L424.622,98.369L416.76,101.607L413.652,101.214L409.02,95.671L404.51,97.682L401.097,96.603L399.147,97.878L392.687,97.584L386.592,94.347L385.922,91.7L378.304,89.396L376.171,87.828L378.73,82.489L370.624,76.322L372.026,69.964L369.771,68.4L370.624,65.907L364.713,64.002L356.668,65.907L352.158,61.852L351.305,59.508L346.246,57.653L340.274,57.604L333.326,55.554L333.509,53.749L323.27,47.652L321.93,43.557L317.541,42.046L317.298,40L311.752,41.072L307.79,42.972L306.876,44.921L303.037,44.142L299.258,49.797L294.199,47.408L293.651,51.407L294.931,54.09L292.371,55.31L290.787,58.922L292.432,61.803L296.089,64.49L295.845,66.591L300.05,67.129L304.56,70.551L310.106,72.751L311.569,78.084L315.226,77.301L315.226,77.301L319.918,77.79L325.83,75.099L330.34,76.127L332.351,78.035L328.694,80.482L328.451,84.252L330.706,87.632L327.78,89.445L326.988,92.239L331.742,97.584L331.742,97.584L334.058,102.981ZM558.274,349.871L557.421,351.133L560.042,351.739L560.285,349.871ZM343.87,529.093L341.371,528.887L339.421,530.379L342.041,531.716L344.479,530.996L344.662,530.224L344.54,530.173ZM226.124,255.909L226.185,256.109L226.307,256.009L226.307,255.959L226.307,255.909Z" fill="#d1e7dd" opacity="0.3" transform="translate(5, 8)" />
  
  <!-- 填充与主轮廓 -->
  <path d="M334.058,102.981L338.202,106.565L338.385,114.622L337.166,115.507L330.827,113.492L329.974,116.146L322.844,117.277L318.029,119.588L317.968,124.065L315.104,123.622L313.702,125.885L306.084,127.018L300.782,131.104L297.491,130.612L290.116,133.123L287.861,128.987L284.631,125.885L282.071,126.033L280.243,123.72L280.609,118.162L272.991,112.607L274.758,107.842L270.553,103.619L265.251,103.423L262.508,101.558L262.569,104.11L259.887,103.914L259.522,101.558L255.865,98.222L251.843,98.271L248.613,96.799L245.626,98.467L240.934,98.32L239.349,101.214L235.875,101.411L233.072,106.958L232.95,109.316L229.963,116.785L238.313,117.277L236.546,126.575L232.828,125.393L231.487,126.87L235.327,132.237L235.266,138.149L239.105,145.447L231.67,146.335L226.368,148.605L221.675,147.223L217.592,148.21L214.849,153.245L212.046,151.566L209.974,153.591L209.974,158.826L207.901,158.085L206.987,160.654L208.328,163.422L206.804,166.043L209.608,166.636L211.924,170.098L211.558,173.81L208.937,173.859L209.425,177.523L205.525,183.12L205.829,188.522L204.428,190.307L200.04,189.91L195.042,191.398L192.421,194.573L179.867,194.771L174.869,193.233L172.432,188.77L169.14,188.125L166.154,190.505L165.606,194.771L167.19,195.118L168.409,201.67L165.057,201.322L164.204,204.302L167.495,206.19L170.177,209.767L176.698,209.27L179.257,210.016L178.709,212.551L189.557,213.446L191.203,216.728L195.286,217.573L194.555,221.902L196.688,224.54L194.555,226.034L193.518,230.416L193.884,236.297L195.651,243.727L199.857,243.578L202.234,245.075L206.012,244.576L205.951,247.57L216.495,245.374L216.251,247.969L225.027,253.561L226.124,255.909L226.307,255.909L226.307,255.959L226.307,256.009L226.185,256.109L227.526,258.557L232.279,260.806L235.57,260.157L237.765,262.206L240.873,259.857L241.848,261.756L245.505,253.312L249.222,255.16L252.147,252.313L253.854,255.909L260.984,249.117L263.971,245.274L265.86,246.172L262.447,248.618L259.461,252.662L263.179,254.011L261.411,256.908L264.763,263.606L266.104,279.772L268.968,285.835L267.018,297.371L267.688,301.99L265.738,307.917L266.835,310.179L264.336,315.659L264.215,318.878L266.287,320.639L263.483,324.414L260.07,323.407L255.743,325.018L255.743,325.018L251.721,323.307L248.125,325.32L242.701,324.213L230.573,332.422L228.623,332.119L224.783,334.639L222.955,337.612L223.808,340.991L219.298,343.008L216.921,349.215L212.533,352.193L214.362,356.688L212.777,361.084L214.666,362.651L212.594,366.696L216.068,367.808L219.664,367.151L222.589,374.993L226.002,374.74L229.171,378.284L229.232,381.981L233.742,386.997L235.51,384.058L240.629,380.36L245.139,381.322L252.818,390.14L254.707,388.568L258.669,388.669L261.594,386.642L263.605,390.444L268.786,394.145L268.664,396.58L275.368,397.798L276.221,400.082L280.548,399.98L281.828,405.514L278.659,405.412L272.381,408.002L268.054,412.168L261.411,414.658L259.766,418.217L261.228,419.489L260.009,425.288L253.244,425.797L251.233,432.364L256.292,437.152L256.84,441.025L259.766,440.617L262.508,442.554L263.605,446.48L265.86,448.826L264.336,455.409L266.957,458.983L263.361,462.61L266.348,466.748L265.129,469.151L273.295,471.4L274.514,475.185L281.218,479.943L280.243,482.297L283.473,489.261L282.498,494.026L283.778,496.589L282.01,503.153L287.435,510.286L288.105,518.041L291.823,517.167L297.247,518.298L299.502,521.381L302.488,521.072L308.643,516.448L321.015,510.44L326.744,510.338L329.365,509.106L332.656,495.667L336.13,492.95L340.701,492.592L346.003,494.846L348.684,494.539L352.28,497.153L354.169,500.537L356.912,499.717L357.156,504.384L360.69,502.127L363.799,505.205L362.092,510.697L351.975,520.713L350.147,519.736L341.371,528.887L343.87,529.093L344.54,530.173L344.662,530.224L344.479,530.996L342.041,531.716L339.238,536.09L345.637,540.672L346.125,543.247L349.964,539.848L351.975,542.732L358.74,542.114L361.178,538.818L367.699,534.958L371.173,534.083L373.306,531.51L377.816,531.768L384.825,528.681L384.398,524.722L387.202,522.409L385.861,520.096L380.924,516.808L386.287,513.88L386.531,510.132L390.675,508.028L395.124,507.412L398.05,508.592L399.573,511.98L398.72,516.551L402.621,517.733L407.192,515.216L409.203,518.709L411.519,515.935L414.749,514.959L414.139,519.736L418.71,524.979L418.588,531.047L422.184,533.826L426.145,534.392L425.475,536.759L427.425,540.878L433.885,540.62L437.786,538.303L440.833,540.208L441.991,544.122L445.892,544.689L452.352,542.68L460.031,544.946L466.064,544.792L473.012,541.908L476.852,543.092L477.644,545.41L482.032,546.286L486.847,550.666L485.262,552.419L486.115,557.679L491.722,560L497.207,556.441L503.911,557.318L502.936,551.697L505.252,550.151L507.019,552.213L510.371,549.172L521.707,547.729L522.134,542.165L525.303,540.878L529.386,535.987L533.957,534.392L536.639,535.472L541.941,529.247L546.329,526.007L545.902,518.503L555.836,510.954L555.593,506.642L561.139,506.334L561.931,497.307L559.554,493.77L559.066,488.8L561.199,485.471L556.933,485.369L556.994,483.679L564.612,480.147L562.175,478.766L559.493,472.218L559.737,468.997L567.05,464.551L570.463,467.31L577.776,470.02L580.641,468.128L584.115,470.02L591.489,471.4L594.963,470.787L595.999,466.442L598.985,466.442L603.861,463.376L606.116,465.624L611.418,463.12L607.944,462.099L604.714,455.818L604.836,449.847L603.861,447.449L598.498,449.694L595.024,446.072L597.827,443.319L595.207,439.904L603.556,437.814L605.506,434.452L610.199,432.313L611.967,436.337L615.562,435.827L619.341,430.48L619.036,423.761L623.729,423.1L626.411,418.471L628.544,418.065L626.715,413.693L627.325,409.221L629.153,407.951L628.97,404.498L634.273,399.32L633.846,392.776L635.796,390.849L633.297,388.365L630.92,390.444L624.278,385.476L617.208,385.78L615.014,383.703L610.321,384.007L607.213,380.157L608.615,375.651L606.238,371.451L605.019,375.6L600.692,375.196L597.949,376.461L591.184,374.487L591.123,372.007L587.223,372.058L582.165,376.41L581.982,377.98L573.023,377.322L570.037,377.777L558.762,377.271L551.265,378.537L547.487,373.576L544.501,373.323L543.952,369.326L546.39,364.37L548.584,365.229L554.191,364.066L556.933,362.297L560.042,351.739L557.421,351.133L558.274,349.871L560.285,349.871L559.859,345.43L557.604,339.528L552.058,339.982L549.193,333.681L546.634,334.387L545.476,338.57L536.273,336.957L536.273,334.79L541.636,331.011L537.309,328.996L536.09,326.176L529.203,327.384L527.802,328.996L524.267,327.687L525.425,325.32L520.305,324.213L522.56,317.973L518.782,316.363L519.33,314.201L508.604,309.174L511.164,303.748L511.651,294.762L515.552,293.708L522.195,290.247L521.646,285.935L523.17,283.078L536.334,281.525L539.381,277.518L537.675,272.461L542.185,269.759L540.417,262.356L541.027,255.559L534.81,256.009L531.214,254.66L532.86,249.167L528.472,246.671L528.899,244.326L531.702,242.829L535.237,245.075L537.797,243.478L540.783,244.077L543.769,241.532L543.769,241.532L545.354,244.027L547.548,242.53L550.29,244.675L553.825,242.48L556.019,246.122L562.479,243.677L560.773,247.57L563.82,247.17L563.881,247.17L563.82,247.17L563.881,247.17L569.183,252.313L575.643,251.314L579.971,257.508L585.638,252.862L588.198,249.217L586.674,247.121L593.378,245.224L594.414,242.231L592.22,238.839L592.525,232.21L589.844,220.608L582.774,220.857L576.984,215.733L573.632,207.73L570.89,207.481L565.039,209.419L560.956,209.171L561.26,207.531L561.26,207.531L556.629,207.63L556.385,211.059L553.886,211.209L552.789,217.822L546.146,217.872L546.146,217.872L545.658,225.835L547.487,229.321L542.611,231.014L536.212,228.623L529.264,231.064L528.045,230.068L520.488,230.915L517.197,228.723L513.297,231.463L509.762,231.164L508.543,226.034L505.679,226.93L502.327,224.789L502.449,218.568L497.39,218.369L495.684,211.805L497.573,209.618L501.473,208.674L502.692,206.438L499.279,206.388L496.842,203.507L496.72,200.578L494.343,192.043L494.099,184.358L490.259,181.782L487.395,186.589L476.425,190.009L476.303,188.274L471.488,185.449L470.391,180.94L466.918,181.088L466.613,177.374L470.087,175.691L471.915,170.395L475.511,166.241L474.292,163.472L475.328,158.283L477.644,154.677L483.251,156.307L484.287,144.51L483.738,142.291L489.223,137.706L488.553,130.562L484.287,127.51L479.107,127.559L474.597,130.267L469.904,129.184L462.895,132.089L457.166,130.513L451.986,130.759L447.903,133.025L445.404,129.184L446.867,128.297L448.817,116.834L448.268,115.163L444.429,116.343L440.224,110.838L440.102,105.141L435.958,101.558L434.312,104.356L429.985,105.878L427.425,100.577L424.622,98.369L416.76,101.607L413.652,101.214L409.02,95.671L404.51,97.682L401.097,96.603L399.147,97.878L392.687,97.584L386.592,94.347L385.922,91.7L378.304,89.396L376.171,87.828L378.73,82.489L370.624,76.322L372.026,69.964L369.771,68.4L370.624,65.907L364.713,64.002L356.668,65.907L352.158,61.852L351.305,59.508L346.246,57.653L340.274,57.604L333.326,55.554L333.509,53.749L323.27,47.652L321.93,43.557L317.541,42.046L317.298,40L311.752,41.072L307.79,42.972L306.876,44.921L303.037,44.142L299.258,49.797L294.199,47.408L293.651,51.407L294.931,54.09L292.371,55.31L290.787,58.922L292.432,61.803L296.089,64.49L295.845,66.591L300.05,67.129L304.56,70.551L310.106,72.751L311.569,78.084L315.226,77.301L315.226,77.301L319.918,77.79L325.83,75.099L330.34,76.127L332.351,78.035L328.694,80.482L328.451,84.252L330.706,87.632L327.78,89.445L326.988,92.239L331.742,97.584L331.742,97.584L334.058,102.981ZM558.274,349.871L557.421,351.133L560.042,351.739L560.285,349.871ZM343.87,529.093L341.371,528.887L339.421,530.379L342.041,531.716L344.479,530.996L344.662,530.224L344.54,530.173ZM226.124,255.909L226.185,256.109L226.307,256.009L226.307,255.959L226.307,255.909Z" fill="#e6f4ea" stroke="#137333" stroke-width="4" stroke-linejoin="round" stroke-linecap="round" />
  
  <!-- 内发光描边 -->
  <path d="M334.058,102.981L338.202,106.565L338.385,114.622L337.166,115.507L330.827,113.492L329.974,116.146L322.844,117.277L318.029,119.588L317.968,124.065L315.104,123.622L313.702,125.885L306.084,127.018L300.782,131.104L297.491,130.612L290.116,133.123L287.861,128.987L284.631,125.885L282.071,126.033L280.243,123.72L280.609,118.162L272.991,112.607L274.758,107.842L270.553,103.619L265.251,103.423L262.508,101.558L262.569,104.11L259.887,103.914L259.522,101.558L255.865,98.222L251.843,98.271L248.613,96.799L245.626,98.467L240.934,98.32L239.349,101.214L235.875,101.411L233.072,106.958L232.95,109.316L229.963,116.785L238.313,117.277L236.546,126.575L232.828,125.393L231.487,126.87L235.327,132.237L235.266,138.149L239.105,145.447L231.67,146.335L226.368,148.605L221.675,147.223L217.592,148.21L214.849,153.245L212.046,151.566L209.974,153.591L209.974,158.826L207.901,158.085L206.987,160.654L208.328,163.422L206.804,166.043L209.608,166.636L211.924,170.098L211.558,173.81L208.937,173.859L209.425,177.523L205.525,183.12L205.829,188.522L204.428,190.307L200.04,189.91L195.042,191.398L192.421,194.573L179.867,194.771L174.869,193.233L172.432,188.77L169.14,188.125L166.154,190.505L165.606,194.771L167.19,195.118L168.409,201.67L165.057,201.322L164.204,204.302L167.495,206.19L170.177,209.767L176.698,209.27L179.257,210.016L178.709,212.551L189.557,213.446L191.203,216.728L195.286,217.573L194.555,221.902L196.688,224.54L194.555,226.034L193.518,230.416L193.884,236.297L195.651,243.727L199.857,243.578L202.234,245.075L206.012,244.576L205.951,247.57L216.495,245.374L216.251,247.969L225.027,253.561L226.124,255.909L226.307,255.909L226.307,255.959L226.307,256.009L226.185,256.109L227.526,258.557L232.279,260.806L235.57,260.157L237.765,262.206L240.873,259.857L241.848,261.756L245.505,253.312L249.222,255.16L252.147,252.313L253.854,255.909L260.984,249.117L263.971,245.274L265.86,246.172L262.447,248.618L259.461,252.662L263.179,254.011L261.411,256.908L264.763,263.606L266.104,279.772L268.968,285.835L267.018,297.371L267.688,301.99L265.738,307.917L266.835,310.179L264.336,315.659L264.215,318.878L266.287,320.639L263.483,324.414L260.07,323.407L255.743,325.018L255.743,325.018L251.721,323.307L248.125,325.32L242.701,324.213L230.573,332.422L228.623,332.119L224.783,334.639L222.955,337.612L223.808,340.991L219.298,343.008L216.921,349.215L212.533,352.193L214.362,356.688L212.777,361.084L214.666,362.651L212.594,366.696L216.068,367.808L219.664,367.151L222.589,374.993L226.002,374.74L229.171,378.284L229.232,381.981L233.742,386.997L235.51,384.058L240.629,380.36L245.139,381.322L252.818,390.14L254.707,388.568L258.669,388.669L261.594,386.642L263.605,390.444L268.786,394.145L268.664,396.58L275.368,397.798L276.221,400.082L280.548,399.98L281.828,405.514L278.659,405.412L272.381,408.002L268.054,412.168L261.411,414.658L259.766,418.217L261.228,419.489L260.009,425.288L253.244,425.797L251.233,432.364L256.292,437.152L256.84,441.025L259.766,440.617L262.508,442.554L263.605,446.48L265.86,448.826L264.336,455.409L266.957,458.983L263.361,462.61L266.348,466.748L265.129,469.151L273.295,471.4L274.514,475.185L281.218,479.943L280.243,482.297L283.473,489.261L282.498,494.026L283.778,496.589L282.01,503.153L287.435,510.286L288.105,518.041L291.823,517.167L297.247,518.298L299.502,521.381L302.488,521.072L308.643,516.448L321.015,510.44L326.744,510.338L329.365,509.106L332.656,495.667L336.13,492.95L340.701,492.592L346.003,494.846L348.684,494.539L352.28,497.153L354.169,500.537L356.912,499.717L357.156,504.384L360.69,502.127L363.799,505.205L362.092,510.697L351.975,520.713L350.147,519.736L341.371,528.887L343.87,529.093L344.54,530.173L344.662,530.224L344.479,530.996L342.041,531.716L339.238,536.09L345.637,540.672L346.125,543.247L349.964,539.848L351.975,542.732L358.74,542.114L361.178,538.818L367.699,534.958L371.173,534.083L373.306,531.51L377.816,531.768L384.825,528.681L384.398,524.722L387.202,522.409L385.861,520.096L380.924,516.808L386.287,513.88L386.531,510.132L390.675,508.028L395.124,507.412L398.05,508.592L399.573,511.98L398.72,516.551L402.621,517.733L407.192,515.216L409.203,518.709L411.519,515.935L414.749,514.959L414.139,519.736L418.71,524.979L418.588,531.047L422.184,533.826L426.145,534.392L425.475,536.759L427.425,540.878L433.885,540.62L437.786,538.303L440.833,540.208L441.991,544.122L445.892,544.689L452.352,542.68L460.031,544.946L466.064,544.792L473.012,541.908L476.852,543.092L477.644,545.41L482.032,546.286L486.847,550.666L485.262,552.419L486.115,557.679L491.722,560L497.207,556.441L503.911,557.318L502.936,551.697L505.252,550.151L507.019,552.213L510.371,549.172L521.707,547.729L522.134,542.165L525.303,540.878L529.386,535.987L533.957,534.392L536.639,535.472L541.941,529.247L546.329,526.007L545.902,518.503L555.836,510.954L555.593,506.642L561.139,506.334L561.931,497.307L559.554,493.77L559.066,488.8L561.199,485.471L556.933,485.369L556.994,483.679L564.612,480.147L562.175,478.766L559.493,472.218L559.737,468.997L567.05,464.551L570.463,467.31L577.776,470.02L580.641,468.128L584.115,470.02L591.489,471.4L594.963,470.787L595.999,466.442L598.985,466.442L603.861,463.376L606.116,465.624L611.418,463.12L607.944,462.099L604.714,455.818L604.836,449.847L603.861,447.449L598.498,449.694L595.024,446.072L597.827,443.319L595.207,439.904L603.556,437.814L605.506,434.452L610.199,432.313L611.967,436.337L615.562,435.827L619.341,430.48L619.036,423.761L623.729,423.1L626.411,418.471L628.544,418.065L626.715,413.693L627.325,409.221L629.153,407.951L628.97,404.498L634.273,399.32L633.846,392.776L635.796,390.849L633.297,388.365L630.92,390.444L624.278,385.476L617.208,385.78L615.014,383.703L610.321,384.007L607.213,380.157L608.615,375.651L606.238,371.451L605.019,375.6L600.692,375.196L597.949,376.461L591.184,374.487L591.123,372.007L587.223,372.058L582.165,376.41L581.982,377.98L573.023,377.322L570.037,377.777L558.762,377.271L551.265,378.537L547.487,373.576L544.501,373.323L543.952,369.326L546.39,364.37L548.584,365.229L554.191,364.066L556.933,362.297L560.042,351.739L557.421,351.133L558.274,349.871L560.285,349.871L559.859,345.43L557.604,339.528L552.058,339.982L549.193,333.681L546.634,334.387L545.476,338.57L536.273,336.957L536.273,334.79L541.636,331.011L537.309,328.996L536.09,326.176L529.203,327.384L527.802,328.996L524.267,327.687L525.425,325.32L520.305,324.213L522.56,317.973L518.782,316.363L519.33,314.201L508.604,309.174L511.164,303.748L511.651,294.762L515.552,293.708L522.195,290.247L521.646,285.935L523.17,283.078L536.334,281.525L539.381,277.518L537.675,272.461L542.185,269.759L540.417,262.356L541.027,255.559L534.81,256.009L531.214,254.66L532.86,249.167L528.472,246.671L528.899,244.326L531.702,242.829L535.237,245.075L537.797,243.478L540.783,244.077L543.769,241.532L543.769,241.532L545.354,244.027L547.548,242.53L550.29,244.675L553.825,242.48L556.019,246.122L562.479,243.677L560.773,247.57L563.82,247.17L563.881,247.17L563.82,247.17L563.881,247.17L569.183,252.313L575.643,251.314L579.971,257.508L585.638,252.862L588.198,249.217L586.674,247.121L593.378,245.224L594.414,242.231L592.22,238.839L592.525,232.21L589.844,220.608L582.774,220.857L576.984,215.733L573.632,207.73L570.89,207.481L565.039,209.419L560.956,209.171L561.26,207.531L561.26,207.531L556.629,207.63L556.385,211.059L553.886,211.209L552.789,217.822L546.146,217.872L546.146,217.872L545.658,225.835L547.487,229.321L542.611,231.014L536.212,228.623L529.264,231.064L528.045,230.068L520.488,230.915L517.197,228.723L513.297,231.463L509.762,231.164L508.543,226.034L505.679,226.93L502.327,224.789L502.449,218.568L497.39,218.369L495.684,211.805L497.573,209.618L501.473,208.674L502.692,206.438L499.279,206.388L496.842,203.507L496.72,200.578L494.343,192.043L494.099,184.358L490.259,181.782L487.395,186.589L476.425,190.009L476.303,188.274L471.488,185.449L470.391,180.94L466.918,181.088L466.613,177.374L470.087,175.691L471.915,170.395L475.511,166.241L474.292,163.472L475.328,158.283L477.644,154.677L483.251,156.307L484.287,144.51L483.738,142.291L489.223,137.706L488.553,130.562L484.287,127.51L479.107,127.559L474.597,130.267L469.904,129.184L462.895,132.089L457.166,130.513L451.986,130.759L447.903,133.025L445.404,129.184L446.867,128.297L448.817,116.834L448.268,115.163L444.429,116.343L440.224,110.838L440.102,105.141L435.958,101.558L434.312,104.356L429.985,105.878L427.425,100.577L424.622,98.369L416.76,101.607L413.652,101.214L409.02,95.671L404.51,97.682L401.097,96.603L399.147,97.878L392.687,97.584L386.592,94.347L385.922,91.7L378.304,89.396L376.171,87.828L378.73,82.489L370.624,76.322L372.026,69.964L369.771,68.4L370.624,65.907L364.713,64.002L356.668,65.907L352.158,61.852L351.305,59.508L346.246,57.653L340.274,57.604L333.326,55.554L333.509,53.749L323.27,47.652L321.93,43.557L317.541,42.046L317.298,40L311.752,41.072L307.79,42.972L306.876,44.921L303.037,44.142L299.258,49.797L294.199,47.408L293.651,51.407L294.931,54.09L292.371,55.31L290.787,58.922L292.432,61.803L296.089,64.49L295.845,66.591L300.05,67.129L304.56,70.551L310.106,72.751L311.569,78.084L315.226,77.301L315.226,77.301L319.918,77.79L325.83,75.099L330.34,76.127L332.351,78.035L328.694,80.482L328.451,84.252L330.706,87.632L327.78,89.445L326.988,92.239L331.742,97.584L331.742,97.584L334.058,102.981ZM558.274,349.871L557.421,351.133L560.042,351.739L560.285,349.871ZM343.87,529.093L341.371,528.887L339.421,530.379L342.041,531.716L344.479,530.996L344.662,530.224L344.54,530.173ZM226.124,255.909L226.185,256.109L226.307,256.009L226.307,255.959L226.307,255.909Z" fill="none" stroke="#2e7d32" stroke-width="1.5" stroke-linejoin="round" stroke-linecap="round" opacity="0.6" />
</svg>