<svg xmlns="http://www.w3.org/2000/svg" width="800" height="600" viewBox="0 0 800 600">
  <!-- 背景色，采用淡米黄色 -->
  <rect width="100%" height="100%" fill="#f5f2eb" />
  
  <!-- 阴影层 -->
  <path d="M181.832,458.339L183.461,451.92L180.877,451.472L181.382,448.377L184.472,447.749L184.921,439.1L188.291,435.025L198.571,433.817L203.682,432.564L204.469,430.998L209.524,431.042L218.961,433.101L219.691,427.777L222.106,428.672L222.668,431.937L225.982,432.027L231.824,435.115L232.442,439.817L235.812,439.682L236.992,442.37L234.464,442.774L236.093,446.314L240.924,447.48L245.305,451.606L244.519,455.062L245.586,458.429L248.394,457.53L252.72,465.706L251.596,468.673L254.068,477.086L261.538,475.556L261.932,472.316L263.785,471.147L263.336,468.134L266.594,467.235L263.785,465.931L267.324,465.482L267.324,465.482L268.223,465.032L268.223,465.032L268.56,464.448L268.56,464.448L272.717,463.37L275.637,464.763L275.637,466.47L281.311,472.496L287.995,474.116L292.938,474.521L294.511,471.957L299.005,471.012L301.308,466.785L312.036,469.393L311.081,463.504L311.306,457.261L321.248,457.935L321.866,455.555L325.686,454.837L335.01,457.351L337.762,456.902L340.571,460.674L337.313,464.763L346.975,467.1L345.121,470.652L342.2,472.631L346.301,475.376L346.469,482.085L349.952,482.13L350.176,479.698L355.4,479.788L356.58,477.987L364.725,478.842L367.028,477.717L368.039,473.486L370.173,470.382L368.825,462.426L370.173,459.596L373.319,459.866L372.139,456.857L379.891,452.324L384.946,451.561L385.508,453.401L390.676,453.446L393.035,454.837L397.529,453.446L401.573,450.754L399.775,449.184L395.675,448.736L397.529,444.432L400.506,444.252L403.089,439.817L403.539,437.085L408.594,430.595L408.763,423.172L414.773,420.849L416.065,421.787L423.76,420.446L431.737,420.491L433.871,416.739L441.117,415.757L444.094,414.15L447.465,414.998L449.206,418.526L453.587,418.213L455.385,418.347L460.328,414.462L457.575,412.945L458.811,404.38L462.406,399.478L466.282,396.449L470.382,398.454L470.888,393.778L475.101,391.508L474.146,388.438L477.741,383.591L481.785,374.172L481.673,371.775L486.784,369.379L489.817,369.157L491.727,372.707L492.457,372.175L493.581,369.379L496.446,366.584L497.007,368.935L500.49,370L505.658,367.383L504.478,365.254L507.961,358.96L505.208,358.03L505.77,356.214L508.691,356.169L513.746,360.378L517.004,353.778L515.431,351.432L518.352,345.858L522.734,344.796L523.913,342.807L526.441,342.763L531.44,339.095L527.958,344.487L530.935,344.177L531.553,341.834L536.72,337.372L540.315,336.886L541.326,334.103L538.911,332.735L538.518,333.176L535.204,335.031L535.934,332.029L530.598,334.722L533.912,331.499L534.305,328.631L529.025,328.234L526.385,325.631L523.127,324.926L522.397,322.677L525.486,321.223L525.318,318.491L529.025,315.716L532.564,315.231L532.957,316.861L536.271,316.2L536.496,317.698L540.765,317.433L539.585,313.734L541.663,313.118L545.539,316.42L545.146,318.358L538.574,329.999L543.292,329.293L551.662,329.116L555.257,326.293L562.334,325.94L562.334,324.485L566.659,325.146L568.625,323.338L571.153,323.867L573.849,322.457L577.444,322.765L576.04,320.121L576.04,315.716L574.58,312.545L575.085,308.849L572.445,309.113L572.951,304.055L580.365,304.406L575.815,298.737L581.769,292.106L588.061,291.754L588.847,292.369L590.813,295.574L589.914,297.55L591.993,300.846L595.587,296.716L596.205,296.233L595.363,293.247L598.059,293.466L600.531,291.798L599.519,288.025L602.16,284.516L600.25,282.982L595.475,282.456L593.172,279.476L589.746,277.898L592.947,277.11L596.992,278.512L599.632,281.798L606.316,282.061L610.81,278.906L618.393,274.92L626.65,273.082L630.919,270.28L632.155,270.28L636.311,269.274L640.243,270.368L639.626,266.999L645.13,265.687L649.006,261.797L649.905,261.01L655.241,258.563L653.724,260.661L647.939,262.627L652.208,267.174L656.14,266.825L654.398,264.594L663.105,268.312L661.308,261.272L665.352,259.612L669.902,258.957L673.216,257.122L673.721,254.546L688.27,249.265L691.696,248.741L695.684,246.561L698.774,254.807L699.616,251.796L703.38,250.966L705.458,248.567L706.244,248.218L707.761,248.741L705.795,252.974L710.907,252.756L712.086,255.331L710.794,257.471L715.007,256.904L720.006,257.952L720.456,258.083L726.297,258.782L729.387,257.297L729.892,255.375L732.813,255.943L736.352,254.153L736.127,253.498L734.498,250.923L738.936,250.966L739.498,253.454L743.43,252.101L745.733,245.994L744.553,242.68L748.092,239.717L747.362,238.149L739.947,240.022L737.475,239.717L738.543,237.757L739.048,231.358L743.542,229.139L747.867,229.661L747.193,227.051L751.799,225.703L748.934,219.272L746.631,219.445L747.193,216.101L750.619,212.152L750.282,209.896L754.214,207.684L758.034,209.028L760,207.337L758.877,204.952L756.517,205.429L753.372,204.042L745.396,205.993L740.059,205.386L739.329,203.479L732.869,205.299L725.623,205.343L720.512,203.826L721.073,202.525L717.928,200.446L712.592,201.529L710.064,203.089L706.918,197.588L709.783,195.769L708.604,192.307L702.986,192.567L701.751,193.822L696.471,194.687L694.673,198.021L687.933,199.969L674.171,200.576L664.397,199.926L661.645,198.064L656.196,201.139L655.803,202.872L647.209,199.71L645.636,195.466L640.243,192.264L639.794,189.322L643.389,189.063L639.345,186.08L635.525,185.172L636.368,188.63L631.481,189.971L623.504,189.971L619.572,188.63L617.269,185.993L618.449,184.178L616.708,182.795L618.281,179.383L616.09,177.138L607.102,177.569L603.171,173.858L598.508,171.485L598.284,168.38L592.273,167.13L589.577,167.733L589.015,167.949L579.354,167.087L572.389,170.795L570.311,170.493L566.379,173.426L559.694,174.721L553.965,174.03L546.045,179.469L533.238,179.858L532.564,181.845L537.057,183.054L537.338,185.042L532.114,186.469L531.496,189.452L534.979,192.35L532.788,194.514L525.655,199.19L520.374,200.706L518.408,202.179L513.409,202.785L507.905,204.822L505.826,207.857L498.243,208.768L497.625,211.501L501.838,214.756L502.681,219.054L500.209,221.791L497.007,222.53L494.985,225.225L488.806,230.923L483.976,230.009L483.189,228.704L473.865,231.488L465.945,230.836L460.328,231.662L454.261,231.662L451.172,232.576L448.756,230.4L448.532,225.138L440.162,222.747L438.702,219.445L439.938,217.578L433.759,222.052L432.972,219.88L429.602,219.619L428.984,221.27L426.232,219.88L424.94,215.363L421.401,214.061L416.065,197.761L415.784,195.033L420.278,186.512L423.48,184.567L435.275,183.357L442.859,183.659L445.218,182.882L446.847,179.944L449.487,169.674L447.914,163.812L443.195,163.036L440.668,166.613L436.006,168.423L432.972,165.794L431.4,159.074L421.457,152.275L418.93,143.335L412.919,139.213L404.101,137.539L394.271,138.14L387.193,139.299L385.508,140.157L384.609,144.71L380.452,146.858L378.824,146.128L377.251,143.851L376.127,141.531L371.128,140.587L369.443,142.218L366.971,140.887L360.287,140.501L349.895,138.526L346.301,134.922L340.346,132.734L334.224,132.391L331.808,133.463L320.687,126.433L320.574,124.42L316.305,128.662L312.654,131.105L310.857,135.437L308.834,137.453L309.228,139.642L306.981,140.501L303.161,144.967L292.432,145.397L289.736,147.718L289.736,147.718L286.703,152.877L285.692,157.094L282.771,159.677L278.895,165.234L275.469,166.095L268.111,164.544L263.673,166.526L255.809,165.621L252.607,166.57L245.698,165.708L241.373,167.216L231.543,165.966L224.129,166.957L221.095,165.708L216.433,170.795L216.433,172.865L213.793,175.239L209.636,176.663L208.176,180.549L202.84,186.123L200.2,187.42L191.718,195.553L188.572,197.241L187.28,199.969L182.45,195.466L182.337,195.509L182.45,195.466L182.337,195.509L181.214,191.485L178.349,190.101L174.642,192.567L173.125,195.25L174.193,198.973L172.901,200.533L169.643,198.454L169.643,198.454L168.182,199.363L169.867,202.265L168.351,204.086L173.743,206.253L169.249,210.156L165.318,209.766L163.127,208.074L157.397,209.505L155.544,209.028L149.927,210.286L145.489,212.369L144.927,221.27L139.479,224.269L139.704,226.964L136.727,229.356L137.513,232.881L134.592,237.583L127.346,243.77L129.2,245.95L125.605,252.014L121.448,253.76L118.864,260.617L104.372,264.682L100.272,264.988L97.688,270.28L94.823,271.681L89.88,277.592L88.925,277.11L86.734,284.122L81.398,288.946L83.083,292.325L85.442,292.896L83.645,296.628L87.521,297.99L90.161,303.087L89.936,306.121L95.104,304.934L94.542,307.617L98.699,309.113L99.092,310.697L99.092,310.697L99.822,311.665L100.609,320.738L100.665,322.853L97.463,329.999L97.351,333.176L89.599,336.886L88.756,339.89L89.711,343.956L87.071,352.849L89.655,354.398L93.699,351.742L98.474,346.388L101.002,345.194L101.676,343.779L102.574,343.514L103.305,344.31L109.764,341.437L115.662,341.348L120.268,337.372L127.177,336.621L127.627,334.898L131.053,333.132L134.929,333.971L138.468,331.896L146.781,330.175L152.96,324.749L156.78,324.088L153.465,331.676L152.174,337.018L146.332,336.665L139.647,337.946L139.31,340.995L136.165,341.702L137.007,345.283L134.929,347.273L130.997,348.512L127.065,347.627L123.526,349.529L119.988,353.557L119.763,356.745L113.303,358.074L104.709,358.606L100.833,360.732L91.453,373.64L87.97,375.016L88.981,380.791L84.544,381.724L78.14,386.926L72.242,386.614L68.029,387.37L67.243,389.016L64.884,387.548L63.255,391.374L60.446,391.152L52.638,401.706L50.055,403.177L50.335,407.412L43.876,408.884L42.078,411.74L45.842,416.516L41.517,418.526L40,420.804L43.033,421.698L40.506,424.379L45.617,425.184L49.549,428.359L52.021,426.436L57.244,426.57L59.154,428.09L63.367,425.452L68.198,425.094L70.838,429.342L76.511,429.119L75.219,433.324L79.488,434.041L78.309,436.637L79.881,439.637L85.442,438.339L95.441,443.266L97.463,448.825L96.059,450.575L98.586,458.608L103.529,463.594L106.956,464.852L113.303,464.313L119.033,465.976L120.1,462.516L128.357,463.729L131.952,465.796L132.963,464.942L146.276,462.965L146.893,460.584L151.106,462.606L156.948,461.438L159.981,465.661L162.003,466.201L165.655,464.178L170.317,466.381L173.799,461.168L177.338,461.887L178.181,460.09ZM579.017,156.75L578.287,159.462L582.219,161.486L582.219,158.859ZM575.647,153.393L579.298,155.416L578.568,153.049ZM602.777,296.628L601.71,295.223L599.182,296.496ZM580.927,138.226L584.297,137.453L580.197,133.764ZM596.262,120.438L595.924,117.87L594.127,118.812ZM527.003,355.727L527.958,357.985L530.092,356.479L528.182,353.867ZM569.636,156.879L570.086,153.652L567.39,153.867ZM585.645,126.005L589.858,124.035L586.937,122.921ZM648.332,190.49L648.332,190.447L648.332,190.36L648.276,190.404ZM647.995,190.36L648.164,190.404L648.164,190.36ZM648.164,190.36L648.164,190.447L648.276,190.404L648.276,190.36L648.22,190.36ZM101.676,343.779L101.002,345.194L103.305,344.31L102.574,343.514Z" fill="#d1e7dd" opacity="0.3" transform="translate(5, 8)" />
  
  <!-- 填充与主轮廓 -->
  <path d="M181.832,458.339L183.461,451.92L180.877,451.472L181.382,448.377L184.472,447.749L184.921,439.1L188.291,435.025L198.571,433.817L203.682,432.564L204.469,430.998L209.524,431.042L218.961,433.101L219.691,427.777L222.106,428.672L222.668,431.937L225.982,432.027L231.824,435.115L232.442,439.817L235.812,439.682L236.992,442.37L234.464,442.774L236.093,446.314L240.924,447.48L245.305,451.606L244.519,455.062L245.586,458.429L248.394,457.53L252.72,465.706L251.596,468.673L254.068,477.086L261.538,475.556L261.932,472.316L263.785,471.147L263.336,468.134L266.594,467.235L263.785,465.931L267.324,465.482L267.324,465.482L268.223,465.032L268.223,465.032L268.56,464.448L268.56,464.448L272.717,463.37L275.637,464.763L275.637,466.47L281.311,472.496L287.995,474.116L292.938,474.521L294.511,471.957L299.005,471.012L301.308,466.785L312.036,469.393L311.081,463.504L311.306,457.261L321.248,457.935L321.866,455.555L325.686,454.837L335.01,457.351L337.762,456.902L340.571,460.674L337.313,464.763L346.975,467.1L345.121,470.652L342.2,472.631L346.301,475.376L346.469,482.085L349.952,482.13L350.176,479.698L355.4,479.788L356.58,477.987L364.725,478.842L367.028,477.717L368.039,473.486L370.173,470.382L368.825,462.426L370.173,459.596L373.319,459.866L372.139,456.857L379.891,452.324L384.946,451.561L385.508,453.401L390.676,453.446L393.035,454.837L397.529,453.446L401.573,450.754L399.775,449.184L395.675,448.736L397.529,444.432L400.506,444.252L403.089,439.817L403.539,437.085L408.594,430.595L408.763,423.172L414.773,420.849L416.065,421.787L423.76,420.446L431.737,420.491L433.871,416.739L441.117,415.757L444.094,414.15L447.465,414.998L449.206,418.526L453.587,418.213L455.385,418.347L460.328,414.462L457.575,412.945L458.811,404.38L462.406,399.478L466.282,396.449L470.382,398.454L470.888,393.778L475.101,391.508L474.146,388.438L477.741,383.591L481.785,374.172L481.673,371.775L486.784,369.379L489.817,369.157L491.727,372.707L492.457,372.175L493.581,369.379L496.446,366.584L497.007,368.935L500.49,370L505.658,367.383L504.478,365.254L507.961,358.96L505.208,358.03L505.77,356.214L508.691,356.169L513.746,360.378L517.004,353.778L515.431,351.432L518.352,345.858L522.734,344.796L523.913,342.807L526.441,342.763L531.44,339.095L527.958,344.487L530.935,344.177L531.553,341.834L536.72,337.372L540.315,336.886L541.326,334.103L538.911,332.735L538.518,333.176L535.204,335.031L535.934,332.029L530.598,334.722L533.912,331.499L534.305,328.631L529.025,328.234L526.385,325.631L523.127,324.926L522.397,322.677L525.486,321.223L525.318,318.491L529.025,315.716L532.564,315.231L532.957,316.861L536.271,316.2L536.496,317.698L540.765,317.433L539.585,313.734L541.663,313.118L545.539,316.42L545.146,318.358L538.574,329.999L543.292,329.293L551.662,329.116L555.257,326.293L562.334,325.94L562.334,324.485L566.659,325.146L568.625,323.338L571.153,323.867L573.849,322.457L577.444,322.765L576.04,320.121L576.04,315.716L574.58,312.545L575.085,308.849L572.445,309.113L572.951,304.055L580.365,304.406L575.815,298.737L581.769,292.106L588.061,291.754L588.847,292.369L590.813,295.574L589.914,297.55L591.993,300.846L595.587,296.716L596.205,296.233L595.363,293.247L598.059,293.466L600.531,291.798L599.519,288.025L602.16,284.516L600.25,282.982L595.475,282.456L593.172,279.476L589.746,277.898L592.947,277.11L596.992,278.512L599.632,281.798L606.316,282.061L610.81,278.906L618.393,274.92L626.65,273.082L630.919,270.28L632.155,270.28L636.311,269.274L640.243,270.368L639.626,266.999L645.13,265.687L649.006,261.797L649.905,261.01L655.241,258.563L653.724,260.661L647.939,262.627L652.208,267.174L656.14,266.825L654.398,264.594L663.105,268.312L661.308,261.272L665.352,259.612L669.902,258.957L673.216,257.122L673.721,254.546L688.27,249.265L691.696,248.741L695.684,246.561L698.774,254.807L699.616,251.796L703.38,250.966L705.458,248.567L706.244,248.218L707.761,248.741L705.795,252.974L710.907,252.756L712.086,255.331L710.794,257.471L715.007,256.904L720.006,257.952L720.456,258.083L726.297,258.782L729.387,257.297L729.892,255.375L732.813,255.943L736.352,254.153L736.127,253.498L734.498,250.923L738.936,250.966L739.498,253.454L743.43,252.101L745.733,245.994L744.553,242.68L748.092,239.717L747.362,238.149L739.947,240.022L737.475,239.717L738.543,237.757L739.048,231.358L743.542,229.139L747.867,229.661L747.193,227.051L751.799,225.703L748.934,219.272L746.631,219.445L747.193,216.101L750.619,212.152L750.282,209.896L754.214,207.684L758.034,209.028L760,207.337L758.877,204.952L756.517,205.429L753.372,204.042L745.396,205.993L740.059,205.386L739.329,203.479L732.869,205.299L725.623,205.343L720.512,203.826L721.073,202.525L717.928,200.446L712.592,201.529L710.064,203.089L706.918,197.588L709.783,195.769L708.604,192.307L702.986,192.567L701.751,193.822L696.471,194.687L694.673,198.021L687.933,199.969L674.171,200.576L664.397,199.926L661.645,198.064L656.196,201.139L655.803,202.872L647.209,199.71L645.636,195.466L640.243,192.264L639.794,189.322L643.389,189.063L639.345,186.08L635.525,185.172L636.368,188.63L631.481,189.971L623.504,189.971L619.572,188.63L617.269,185.993L618.449,184.178L616.708,182.795L618.281,179.383L616.09,177.138L607.102,177.569L603.171,173.858L598.508,171.485L598.284,168.38L592.273,167.13L589.577,167.733L589.015,167.949L579.354,167.087L572.389,170.795L570.311,170.493L566.379,173.426L559.694,174.721L553.965,174.03L546.045,179.469L533.238,179.858L532.564,181.845L537.057,183.054L537.338,185.042L532.114,186.469L531.496,189.452L534.979,192.35L532.788,194.514L525.655,199.19L520.374,200.706L518.408,202.179L513.409,202.785L507.905,204.822L505.826,207.857L498.243,208.768L497.625,211.501L501.838,214.756L502.681,219.054L500.209,221.791L497.007,222.53L494.985,225.225L488.806,230.923L483.976,230.009L483.189,228.704L473.865,231.488L465.945,230.836L460.328,231.662L454.261,231.662L451.172,232.576L448.756,230.4L448.532,225.138L440.162,222.747L438.702,219.445L439.938,217.578L433.759,222.052L432.972,219.88L429.602,219.619L428.984,221.27L426.232,219.88L424.94,215.363L421.401,214.061L416.065,197.761L415.784,195.033L420.278,186.512L423.48,184.567L435.275,183.357L442.859,183.659L445.218,182.882L446.847,179.944L449.487,169.674L447.914,163.812L443.195,163.036L440.668,166.613L436.006,168.423L432.972,165.794L431.4,159.074L421.457,152.275L418.93,143.335L412.919,139.213L404.101,137.539L394.271,138.14L387.193,139.299L385.508,140.157L384.609,144.71L380.452,146.858L378.824,146.128L377.251,143.851L376.127,141.531L371.128,140.587L369.443,142.218L366.971,140.887L360.287,140.501L349.895,138.526L346.301,134.922L340.346,132.734L334.224,132.391L331.808,133.463L320.687,126.433L320.574,124.42L316.305,128.662L312.654,131.105L310.857,135.437L308.834,137.453L309.228,139.642L306.981,140.501L303.161,144.967L292.432,145.397L289.736,147.718L289.736,147.718L286.703,152.877L285.692,157.094L282.771,159.677L278.895,165.234L275.469,166.095L268.111,164.544L263.673,166.526L255.809,165.621L252.607,166.57L245.698,165.708L241.373,167.216L231.543,165.966L224.129,166.957L221.095,165.708L216.433,170.795L216.433,172.865L213.793,175.239L209.636,176.663L208.176,180.549L202.84,186.123L200.2,187.42L191.718,195.553L188.572,197.241L187.28,199.969L182.45,195.466L182.337,195.509L182.45,195.466L182.337,195.509L181.214,191.485L178.349,190.101L174.642,192.567L173.125,195.25L174.193,198.973L172.901,200.533L169.643,198.454L169.643,198.454L168.182,199.363L169.867,202.265L168.351,204.086L173.743,206.253L169.249,210.156L165.318,209.766L163.127,208.074L157.397,209.505L155.544,209.028L149.927,210.286L145.489,212.369L144.927,221.27L139.479,224.269L139.704,226.964L136.727,229.356L137.513,232.881L134.592,237.583L127.346,243.77L129.2,245.95L125.605,252.014L121.448,253.76L118.864,260.617L104.372,264.682L100.272,264.988L97.688,270.28L94.823,271.681L89.88,277.592L88.925,277.11L86.734,284.122L81.398,288.946L83.083,292.325L85.442,292.896L83.645,296.628L87.521,297.99L90.161,303.087L89.936,306.121L95.104,304.934L94.542,307.617L98.699,309.113L99.092,310.697L99.092,310.697L99.822,311.665L100.609,320.738L100.665,322.853L97.463,329.999L97.351,333.176L89.599,336.886L88.756,339.89L89.711,343.956L87.071,352.849L89.655,354.398L93.699,351.742L98.474,346.388L101.002,345.194L101.676,343.779L102.574,343.514L103.305,344.31L109.764,341.437L115.662,341.348L120.268,337.372L127.177,336.621L127.627,334.898L131.053,333.132L134.929,333.971L138.468,331.896L146.781,330.175L152.96,324.749L156.78,324.088L153.465,331.676L152.174,337.018L146.332,336.665L139.647,337.946L139.31,340.995L136.165,341.702L137.007,345.283L134.929,347.273L130.997,348.512L127.065,347.627L123.526,349.529L119.988,353.557L119.763,356.745L113.303,358.074L104.709,358.606L100.833,360.732L91.453,373.64L87.97,375.016L88.981,380.791L84.544,381.724L78.14,386.926L72.242,386.614L68.029,387.37L67.243,389.016L64.884,387.548L63.255,391.374L60.446,391.152L52.638,401.706L50.055,403.177L50.335,407.412L43.876,408.884L42.078,411.74L45.842,416.516L41.517,418.526L40,420.804L43.033,421.698L40.506,424.379L45.617,425.184L49.549,428.359L52.021,426.436L57.244,426.57L59.154,428.09L63.367,425.452L68.198,425.094L70.838,429.342L76.511,429.119L75.219,433.324L79.488,434.041L78.309,436.637L79.881,439.637L85.442,438.339L95.441,443.266L97.463,448.825L96.059,450.575L98.586,458.608L103.529,463.594L106.956,464.852L113.303,464.313L119.033,465.976L120.1,462.516L128.357,463.729L131.952,465.796L132.963,464.942L146.276,462.965L146.893,460.584L151.106,462.606L156.948,461.438L159.981,465.661L162.003,466.201L165.655,464.178L170.317,466.381L173.799,461.168L177.338,461.887L178.181,460.09ZM579.017,156.75L578.287,159.462L582.219,161.486L582.219,158.859ZM575.647,153.393L579.298,155.416L578.568,153.049ZM602.777,296.628L601.71,295.223L599.182,296.496ZM580.927,138.226L584.297,137.453L580.197,133.764ZM596.262,120.438L595.924,117.87L594.127,118.812ZM527.003,355.727L527.958,357.985L530.092,356.479L528.182,353.867ZM569.636,156.879L570.086,153.652L567.39,153.867ZM585.645,126.005L589.858,124.035L586.937,122.921ZM648.332,190.49L648.332,190.447L648.332,190.36L648.276,190.404ZM647.995,190.36L648.164,190.404L648.164,190.36ZM648.164,190.36L648.164,190.447L648.276,190.404L648.276,190.36L648.22,190.36ZM101.676,343.779L101.002,345.194L103.305,344.31L102.574,343.514Z" fill="#e6f4ea" stroke="#137333" stroke-width="4" stroke-linejoin="round" stroke-linecap="round" />
  
  <!-- 内发光描边 -->
  <path d="M181.832,458.339L183.461,451.92L180.877,451.472L181.382,448.377L184.472,447.749L184.921,439.1L188.291,435.025L198.571,433.817L203.682,432.564L204.469,430.998L209.524,431.042L218.961,433.101L219.691,427.777L222.106,428.672L222.668,431.937L225.982,432.027L231.824,435.115L232.442,439.817L235.812,439.682L236.992,442.37L234.464,442.774L236.093,446.314L240.924,447.48L245.305,451.606L244.519,455.062L245.586,458.429L248.394,457.53L252.72,465.706L251.596,468.673L254.068,477.086L261.538,475.556L261.932,472.316L263.785,471.147L263.336,468.134L266.594,467.235L263.785,465.931L267.324,465.482L267.324,465.482L268.223,465.032L268.223,465.032L268.56,464.448L268.56,464.448L272.717,463.37L275.637,464.763L275.637,466.47L281.311,472.496L287.995,474.116L292.938,474.521L294.511,471.957L299.005,471.012L301.308,466.785L312.036,469.393L311.081,463.504L311.306,457.261L321.248,457.935L321.866,455.555L325.686,454.837L335.01,457.351L337.762,456.902L340.571,460.674L337.313,464.763L346.975,467.1L345.121,470.652L342.2,472.631L346.301,475.376L346.469,482.085L349.952,482.13L350.176,479.698L355.4,479.788L356.58,477.987L364.725,478.842L367.028,477.717L368.039,473.486L370.173,470.382L368.825,462.426L370.173,459.596L373.319,459.866L372.139,456.857L379.891,452.324L384.946,451.561L385.508,453.401L390.676,453.446L393.035,454.837L397.529,453.446L401.573,450.754L399.775,449.184L395.675,448.736L397.529,444.432L400.506,444.252L403.089,439.817L403.539,437.085L408.594,430.595L408.763,423.172L414.773,420.849L416.065,421.787L423.76,420.446L431.737,420.491L433.871,416.739L441.117,415.757L444.094,414.15L447.465,414.998L449.206,418.526L453.587,418.213L455.385,418.347L460.328,414.462L457.575,412.945L458.811,404.38L462.406,399.478L466.282,396.449L470.382,398.454L470.888,393.778L475.101,391.508L474.146,388.438L477.741,383.591L481.785,374.172L481.673,371.775L486.784,369.379L489.817,369.157L491.727,372.707L492.457,372.175L493.581,369.379L496.446,366.584L497.007,368.935L500.49,370L505.658,367.383L504.478,365.254L507.961,358.96L505.208,358.03L505.77,356.214L508.691,356.169L513.746,360.378L517.004,353.778L515.431,351.432L518.352,345.858L522.734,344.796L523.913,342.807L526.441,342.763L531.44,339.095L527.958,344.487L530.935,344.177L531.553,341.834L536.72,337.372L540.315,336.886L541.326,334.103L538.911,332.735L538.518,333.176L535.204,335.031L535.934,332.029L530.598,334.722L533.912,331.499L534.305,328.631L529.025,328.234L526.385,325.631L523.127,324.926L522.397,322.677L525.486,321.223L525.318,318.491L529.025,315.716L532.564,315.231L532.957,316.861L536.271,316.2L536.496,317.698L540.765,317.433L539.585,313.734L541.663,313.118L545.539,316.42L545.146,318.358L538.574,329.999L543.292,329.293L551.662,329.116L555.257,326.293L562.334,325.94L562.334,324.485L566.659,325.146L568.625,323.338L571.153,323.867L573.849,322.457L577.444,322.765L576.04,320.121L576.04,315.716L574.58,312.545L575.085,308.849L572.445,309.113L572.951,304.055L580.365,304.406L575.815,298.737L581.769,292.106L588.061,291.754L588.847,292.369L590.813,295.574L589.914,297.55L591.993,300.846L595.587,296.716L596.205,296.233L595.363,293.247L598.059,293.466L600.531,291.798L599.519,288.025L602.16,284.516L600.25,282.982L595.475,282.456L593.172,279.476L589.746,277.898L592.947,277.11L596.992,278.512L599.632,281.798L606.316,282.061L610.81,278.906L618.393,274.92L626.65,273.082L630.919,270.28L632.155,270.28L636.311,269.274L640.243,270.368L639.626,266.999L645.13,265.687L649.006,261.797L649.905,261.01L655.241,258.563L653.724,260.661L647.939,262.627L652.208,267.174L656.14,266.825L654.398,264.594L663.105,268.312L661.308,261.272L665.352,259.612L669.902,258.957L673.216,257.122L673.721,254.546L688.27,249.265L691.696,248.741L695.684,246.561L698.774,254.807L699.616,251.796L703.38,250.966L705.458,248.567L706.244,248.218L707.761,248.741L705.795,252.974L710.907,252.756L712.086,255.331L710.794,257.471L715.007,256.904L720.006,257.952L720.456,258.083L726.297,258.782L729.387,257.297L729.892,255.375L732.813,255.943L736.352,254.153L736.127,253.498L734.498,250.923L738.936,250.966L739.498,253.454L743.43,252.101L745.733,245.994L744.553,242.68L748.092,239.717L747.362,238.149L739.947,240.022L737.475,239.717L738.543,237.757L739.048,231.358L743.542,229.139L747.867,229.661L747.193,227.051L751.799,225.703L748.934,219.272L746.631,219.445L747.193,216.101L750.619,212.152L750.282,209.896L754.214,207.684L758.034,209.028L760,207.337L758.877,204.952L756.517,205.429L753.372,204.042L745.396,205.993L740.059,205.386L739.329,203.479L732.869,205.299L725.623,205.343L720.512,203.826L721.073,202.525L717.928,200.446L712.592,201.529L710.064,203.089L706.918,197.588L709.783,195.769L708.604,192.307L702.986,192.567L701.751,193.822L696.471,194.687L694.673,198.021L687.933,199.969L674.171,200.576L664.397,199.926L661.645,198.064L656.196,201.139L655.803,202.872L647.209,199.71L645.636,195.466L640.243,192.264L639.794,189.322L643.389,189.063L639.345,186.08L635.525,185.172L636.368,188.63L631.481,189.971L623.504,189.971L619.572,188.63L617.269,185.993L618.449,184.178L616.708,182.795L618.281,179.383L616.09,177.138L607.102,177.569L603.171,173.858L598.508,171.485L598.284,168.38L592.273,167.13L589.577,167.733L589.015,167.949L579.354,167.087L572.389,170.795L570.311,170.493L566.379,173.426L559.694,174.721L553.965,174.03L546.045,179.469L533.238,179.858L532.564,181.845L537.057,183.054L537.338,185.042L532.114,186.469L531.496,189.452L534.979,192.35L532.788,194.514L525.655,199.19L520.374,200.706L518.408,202.179L513.409,202.785L507.905,204.822L505.826,207.857L498.243,208.768L497.625,211.501L501.838,214.756L502.681,219.054L500.209,221.791L497.007,222.53L494.985,225.225L488.806,230.923L483.976,230.009L483.189,228.704L473.865,231.488L465.945,230.836L460.328,231.662L454.261,231.662L451.172,232.576L448.756,230.4L448.532,225.138L440.162,222.747L438.702,219.445L439.938,217.578L433.759,222.052L432.972,219.88L429.602,219.619L428.984,221.27L426.232,219.88L424.94,215.363L421.401,214.061L416.065,197.761L415.784,195.033L420.278,186.512L423.48,184.567L435.275,183.357L442.859,183.659L445.218,182.882L446.847,179.944L449.487,169.674L447.914,163.812L443.195,163.036L440.668,166.613L436.006,168.423L432.972,165.794L431.4,159.074L421.457,152.275L418.93,143.335L412.919,139.213L404.101,137.539L394.271,138.14L387.193,139.299L385.508,140.157L384.609,144.71L380.452,146.858L378.824,146.128L377.251,143.851L376.127,141.531L371.128,140.587L369.443,142.218L366.971,140.887L360.287,140.501L349.895,138.526L346.301,134.922L340.346,132.734L334.224,132.391L331.808,133.463L320.687,126.433L320.574,124.42L316.305,128.662L312.654,131.105L310.857,135.437L308.834,137.453L309.228,139.642L306.981,140.501L303.161,144.967L292.432,145.397L289.736,147.718L289.736,147.718L286.703,152.877L285.692,157.094L282.771,159.677L278.895,165.234L275.469,166.095L268.111,164.544L263.673,166.526L255.809,165.621L252.607,166.57L245.698,165.708L241.373,167.216L231.543,165.966L224.129,166.957L221.095,165.708L216.433,170.795L216.433,172.865L213.793,175.239L209.636,176.663L208.176,180.549L202.84,186.123L200.2,187.42L191.718,195.553L188.572,197.241L187.28,199.969L182.45,195.466L182.337,195.509L182.45,195.466L182.337,195.509L181.214,191.485L178.349,190.101L174.642,192.567L173.125,195.25L174.193,198.973L172.901,200.533L169.643,198.454L169.643,198.454L168.182,199.363L169.867,202.265L168.351,204.086L173.743,206.253L169.249,210.156L165.318,209.766L163.127,208.074L157.397,209.505L155.544,209.028L149.927,210.286L145.489,212.369L144.927,221.27L139.479,224.269L139.704,226.964L136.727,229.356L137.513,232.881L134.592,237.583L127.346,243.77L129.2,245.95L125.605,252.014L121.448,253.76L118.864,260.617L104.372,264.682L100.272,264.988L97.688,270.28L94.823,271.681L89.88,277.592L88.925,277.11L86.734,284.122L81.398,288.946L83.083,292.325L85.442,292.896L83.645,296.628L87.521,297.99L90.161,303.087L89.936,306.121L95.104,304.934L94.542,307.617L98.699,309.113L99.092,310.697L99.092,310.697L99.822,311.665L100.609,320.738L100.665,322.853L97.463,329.999L97.351,333.176L89.599,336.886L88.756,339.89L89.711,343.956L87.071,352.849L89.655,354.398L93.699,351.742L98.474,346.388L101.002,345.194L101.676,343.779L102.574,343.514L103.305,344.31L109.764,341.437L115.662,341.348L120.268,337.372L127.177,336.621L127.627,334.898L131.053,333.132L134.929,333.971L138.468,331.896L146.781,330.175L152.96,324.749L156.78,324.088L153.465,331.676L152.174,337.018L146.332,336.665L139.647,337.946L139.31,340.995L136.165,341.702L137.007,345.283L134.929,347.273L130.997,348.512L127.065,347.627L123.526,349.529L119.988,353.557L119.763,356.745L113.303,358.074L104.709,358.606L100.833,360.732L91.453,373.64L87.97,375.016L88.981,380.791L84.544,381.724L78.14,386.926L72.242,386.614L68.029,387.37L67.243,389.016L64.884,387.548L63.255,391.374L60.446,391.152L52.638,401.706L50.055,403.177L50.335,407.412L43.876,408.884L42.078,411.74L45.842,416.516L41.517,418.526L40,420.804L43.033,421.698L40.506,424.379L45.617,425.184L49.549,428.359L52.021,426.436L57.244,426.57L59.154,428.09L63.367,425.452L68.198,425.094L70.838,429.342L76.511,429.119L75.219,433.324L79.488,434.041L78.309,436.637L79.881,439.637L85.442,438.339L95.441,443.266L97.463,448.825L96.059,450.575L98.586,458.608L103.529,463.594L106.956,464.852L113.303,464.313L119.033,465.976L120.1,462.516L128.357,463.729L131.952,465.796L132.963,464.942L146.276,462.965L146.893,460.584L151.106,462.606L156.948,461.438L159.981,465.661L162.003,466.201L165.655,464.178L170.317,466.381L173.799,461.168L177.338,461.887L178.181,460.09ZM579.017,156.75L578.287,159.462L582.219,161.486L582.219,158.859ZM575.647,153.393L579.298,155.416L578.568,153.049ZM602.777,296.628L601.71,295.223L599.182,296.496ZM580.927,138.226L584.297,137.453L580.197,133.764ZM596.262,120.438L595.924,117.87L594.127,118.812ZM527.003,355.727L527.958,357.985L530.092,356.479L528.182,353.867ZM569.636,156.879L570.086,153.652L567.39,153.867ZM585.645,126.005L589.858,124.035L586.937,122.921ZM648.332,190.49L648.332,190.447L648.332,190.36L648.276,190.404ZM647.995,190.36L648.164,190.404L648.164,190.36ZM648.164,190.36L648.164,190.447L648.276,190.404L648.276,190.36L648.22,190.36ZM101.676,343.779L101.002,345.194L103.305,344.31L102.574,343.514Z" fill="none" stroke="#2e7d32" stroke-width="1.5" stroke-linejoin="round" stroke-linecap="round" opacity="0.6" />
</svg>