<svg xmlns="http://www.w3.org/2000/svg" width="800" height="600" viewBox="0 0 800 600">
  <!-- 背景色，采用淡米黄色 -->
  <rect width="100%" height="100%" fill="#f5f2eb" />
  
  <!-- 阴影层 -->
  <path d="M318.034,458.366L320.027,458.524L324.27,458.261L333.077,454.357L335.97,456.361L338.413,454.884L346.771,456.203L347.671,452.195L350.306,451.298L355.835,454.515L358.857,454.093L360.014,456.467L363.871,455.939L364.192,452.828L369.721,450.613L372.292,453.197L382.45,460.582L380.778,461.532L384.507,464.911L386.886,464.541L392.35,467.446L401.029,462.641L412.793,457.997L415.493,452.617L420.7,451.773L424.365,452.828L427.708,457.047L426.293,461.427L427.836,464.225L427.772,466.02L426.743,466.812L425.779,467.235L424.686,468.978L426.165,473.152L429.251,476.429L425.908,483.568L423.015,482.722L423.658,487.007L430.215,491.93L426.679,496.75L432.915,499.399L431.693,503.057L434.458,504.17L434.329,508.306L436.772,512.073L440.886,511.648L443.072,508.518L447.572,511.065L446.994,517.221L450.787,521.788L453.808,519.611L461.008,518.442L464.673,515.576L465.958,512.073L472.001,511.118L476.566,513.081L482.544,521.523L488.523,521.204L494.052,522.107L498.295,524.072L507.359,522.532L509.352,520.035L513.145,520.513L511.602,531.088L509.159,534.97L510.509,541.514L511.73,542.259L516.359,538.96L518.931,539.279L524.652,545.187L533.267,545.72L534.359,549.927L538.602,552.164L542.781,550.033L544.26,551.099L552.424,548.435L555.831,550.886L558.724,544.974L566.374,546.997L568.303,544.708L567.467,540.822L569.396,537.523L573.51,536.938L578.524,542.099L580.967,542.099L579.103,546.305L578.396,553.923L582.703,556.055L582.51,559.147L587.782,560L591.703,557.867L595.368,557.707L597.039,553.07L595.111,548.329L599.739,545.187L602.246,538.64L607.004,536.512L606.104,532.949L608.032,529.812L612.082,527.154L614.139,527.473L626.933,518.814L632.654,519.982L636.447,517.858L640.69,519.664L640.69,519.664L645.254,517.964L648.854,519.026L651.811,515.045L649.626,513.187L649.754,509.791L652.39,504.011L651.233,501.625L653.29,495.373L652.583,490.501L654.64,478.332L651.619,471.936L650.204,454.884L646.669,447.819L648.533,444.763L644.611,443.34L647.761,439.074L651.361,436.495L649.369,435.547L646.218,439.601L638.697,446.765L636.897,442.972L633.811,445.975L629.89,444.025L626.032,452.933L625.004,450.929L621.725,453.408L619.411,451.246L615.939,451.931L610.925,449.559L609.511,446.976L609.446,446.765L608.289,444.289L599.032,438.39L599.289,435.652L588.167,437.969L588.232,434.81L584.246,435.337L581.739,433.758L577.303,433.916L575.439,426.077L575.053,419.875L576.146,415.252L578.396,413.676L576.146,410.894L576.917,406.327L572.61,405.435L570.874,401.973L559.431,401.029L560.01,398.355L557.31,397.569L550.431,398.093L547.602,394.319L544.131,392.328L545.031,389.185L548.567,389.552L547.281,382.641L545.61,382.275L546.188,377.775L549.338,375.265L552.81,375.944L555.381,380.653L560.653,382.275L573.896,382.065L576.66,378.717L581.932,377.147L586.56,377.566L588.039,375.683L587.718,369.984L591.832,364.081L591.318,360.216L594.082,360.164L594.468,356.249L592.025,352.597L589.067,351.971L590.675,349.207L589.26,346.287L590.225,343.577L592.41,344.359L592.41,338.836L594.596,336.701L597.553,338.472L600.446,333.161L604.754,332.12L609.704,333.577L615.297,331.183L623.14,330.246L619.089,322.548L619.154,316.312L615.104,310.65L616.518,309.093L620.44,310.339L622.304,300.531L613.496,300.013L616.647,292.133L616.775,289.647L619.732,283.795L623.397,283.588L625.068,280.535L630.018,280.69L633.168,278.931L636.575,280.483L640.818,280.431L644.676,283.951L645.061,286.436L647.89,286.643L647.826,283.951L650.719,285.918L656.312,286.125L660.747,290.579L658.883,295.606L666.919,301.465L666.533,307.328L668.462,309.768L671.162,309.612L674.569,312.883L676.948,317.247L684.726,314.597L688.198,315.117L693.791,310.806L701.827,309.612L703.305,307.224L706.327,307.691L706.391,302.969L711.47,300.531L718.991,299.338L719.891,296.539L726.577,298.664L727.863,297.731L727.67,289.232L723.298,285.452L723.298,285.452L720.855,279.758L720.855,279.758L715.841,274.12L716.677,271.173L719.763,269.261L717.384,265.696L717.641,261.719L721.498,259.138L719.377,257.125L714.62,256.041L708.384,258.879L703.434,258.363L703.434,258.363L699.577,259.189L698.034,253.564L692.184,251.243L687.426,247.634L682.991,247.066L683.248,244.85L679.39,242.016L677.655,238.977L679.326,235.167L682.026,233.88L680.676,231.049L681.255,226.831L677.076,229.146L674.762,228.528L671.29,223.694L664.605,225.031L659.783,222.717L659.076,225.442L643.84,227.705L642.683,228.683L638.568,226.317L629.118,224.928L627.897,228.888L621.34,226.985L614.075,227.602L610.154,226.162L604.496,220.456L601.603,211.262L603.211,209.26L600.896,202.898L589.453,197.258L583.089,198.744L581.289,195.31L582.639,192.339L577.753,191.519L579.232,186.706L572.739,186.962L569.717,182.1L564.189,182.509L559.367,185.529L557.181,183.788L551.203,183.635L548.374,185.836L543.874,182.202L538.024,181.281L540.917,178.212L537.445,177.19L539.181,174.582L544.131,172.282L539.824,166.816L541.881,163.548L549.274,161.863L548.953,157.016L551.91,155.332L560.846,143.253L564.06,143.508L565.924,139.129L568.624,140.809L569.524,138.925L574.346,138.06L581.096,138.416L588.425,132.463L593.503,131.395L592.346,124.786L596.332,123.211L607.068,108.439L611.504,106.005L621.34,105.396L628.733,103.875L628.99,100.226L633.04,95.617L637.09,93.44L641.59,94.452L646.09,93.035L648.469,90.757L647.504,86.659L651.104,85.849L651.49,82.36L659.14,80.894L665.826,81.298L667.305,75.184L671.098,66.5L666.726,67.257L659.654,73.466L650.14,75.436L646.09,77.811L641.654,76.851L637.733,78.872L637.218,80.843L629.311,81.703L624.04,86.254L617.289,86.355L609.896,89.644L607.261,90.656L604.368,92.022L598.903,98.149L594.275,101.189L591.318,99.416L594.339,89.239L593.246,84.585L594.21,81.147L603.082,76.901L603.211,73.264L606.875,65.087L606.811,62.666L604.882,60.447L603.404,62.312L595.689,64.835L594.532,67.862L589.003,68.973L587.91,64.885L585.467,63.826L581.61,58.228L577.496,56.414L577.496,56.414L577.496,56.363L577.496,56.363L577.367,56.262L577.367,56.262L575.567,58.027L569.396,56.313L567.274,60.245L562.903,59.589L561.424,61.304L561.167,66.449L556.153,70.941L547.41,72.759L548.695,68.872L547.217,63.523L541.56,63.119L541.495,64.885L532.495,65.188L528.638,61.959L527.159,63.573L518.802,63.876L513.402,65.844L513.209,63.473L507.616,60.295L502.087,59.64L500.609,57.573L495.53,56.716L494.566,54.751L489.166,54.146L488.009,51.526L483.187,52.534L478.88,50.67L477.144,51.98L473.93,49.713L473.158,52.584L469.751,52.534L469.751,52.534L470.33,50.569L465.444,48.958L460.365,50.066L456.508,46.541L457.858,43.824L452.265,43.32L450.08,45.031L448.087,41.258L442.687,45.333L439.665,41.258L436.258,41.912L437.029,43.824L432.465,43.522L426.422,40L423.915,40.302L424.429,44.327L421.922,46.541L422.372,50.821L418.772,55.607L420.443,59.236L415.557,59.993L421.279,62.666L421.986,64.683L416.007,65.137L417.679,66.146L419.158,72.355L416.522,74.577L420.122,75.386L418.45,79.681L415.3,78.821L415.879,85.343L414.143,91.769L416.586,95.212L408.422,97.187L410.736,99.314L408.936,105.7L409.45,110.366L412.6,112.142L412.857,116.558L407.972,116.456L404.757,114.02L405.85,117.675L401.222,122.703L399.679,127.022L393.443,129.615L388.493,129.666L383.928,133.684L380.2,132.361L379.364,138.009L373,135.668L367.407,135.719L366.957,139.842L364.835,139.485L363.164,145.953L360.785,147.889L354.614,145.647L347.221,144.781L346.128,147.125L346.771,151.661L340.921,152.885L340.728,155.128L335.52,157.118L329.027,155.638L323.884,160.893L318.42,161.047L308.777,155.077L309.741,159.005L296.82,159.771L284.027,157.628L281.584,159.618L273.291,159.618L275.027,156.301L268.534,158.087L265.898,156.148L257.669,154.261L249.376,153.343L251.433,159.669L247.383,162.323L250.147,166.56L249.119,172.282L249.698,176.729L247.319,177.803L245.197,175.4L240.89,175.554L236.261,173.867L223.404,176.065L223.083,179.133L216.14,182.1L208.168,184.198L210.033,187.679L206.368,188.959L203.347,193.568L200.647,194.952L198.397,198.949L195.632,197.873L191.325,200.334L184.704,199.462L179.496,201.872L174.932,200.129L169.339,202.744L165.482,201.41L163.167,204.539L154.36,202.641L151.21,207.977L142.531,209.619L136.36,213.213L130.51,210.748L128.774,217.116L126.717,219.736L120.545,222.666L117.138,219.12L112.702,218.863L108.588,223.797L98.238,223.54L90.138,226.06L85.445,223.18L78.823,225.545L74.066,224.26L72.78,227.808L76.702,228.734L73.359,230.123L72.137,233.005L76.573,241.707L76.573,241.707L83.902,245.881L87.052,251.759L81.652,256.402L79.209,256.867L80.366,261.564L87.502,264.249L92.066,264.714L92.709,266.781L99.395,268.434L101.516,270.14L98.559,275.103L96.245,276.344L95.795,284.52L99.266,283.226L104.538,290.475L103.959,293.429L99.974,294.724L100.102,296.331L95.795,298.664L98.366,302.347L103.638,302.295L108.845,304.318L111.867,307.951L116.11,308.21L119.774,312.935L121.317,316.831L120.481,319.741L126.202,325.096L135.396,327.749L139.253,330.923L139.124,335.399L141.631,341.389L141.631,342.483L138.481,345.818L141.567,352.128L141.567,356.823L137.26,364.655L143.753,370.141L143.624,373.591L148.124,372.337L152.239,375.108L154.103,378.403L157.575,379.292L158.989,383.845L154.81,387.195L162.01,386.881L165.867,390.652L167.41,394.267L164.196,398.565L165.482,403.442L167.667,401.396L169.467,406.013L178.532,409.161L182.004,416.67L188.496,416.355L186.696,419.875L192.418,425.341L194.218,430.127L199.168,433.758L205.725,429.443L206.304,432.442L213.311,432.389L223.276,439.654L228.419,440.496L231.761,443.182L237.869,441.708L240.697,446.449L244.747,448.715L249.89,446.186L251.69,451.246L259.469,456.309L258.89,452.722L261.269,455.465L264.741,454.673L277.469,462.113L280.812,457.522L284.027,456.942L290.07,459.896L293.027,455.939L298.62,456.361L300.163,453.513L304.727,455.887L307.106,455.306L310.577,457.258ZM427.772,466.02L427.836,464.225L425.779,467.235L426.743,466.812Z" fill="#d1e7dd" opacity="0.3" transform="translate(5, 8)" />
  
  <!-- 填充与主轮廓 -->
  <path d="M318.034,458.366L320.027,458.524L324.27,458.261L333.077,454.357L335.97,456.361L338.413,454.884L346.771,456.203L347.671,452.195L350.306,451.298L355.835,454.515L358.857,454.093L360.014,456.467L363.871,455.939L364.192,452.828L369.721,450.613L372.292,453.197L382.45,460.582L380.778,461.532L384.507,464.911L386.886,464.541L392.35,467.446L401.029,462.641L412.793,457.997L415.493,452.617L420.7,451.773L424.365,452.828L427.708,457.047L426.293,461.427L427.836,464.225L427.772,466.02L426.743,466.812L425.779,467.235L424.686,468.978L426.165,473.152L429.251,476.429L425.908,483.568L423.015,482.722L423.658,487.007L430.215,491.93L426.679,496.75L432.915,499.399L431.693,503.057L434.458,504.17L434.329,508.306L436.772,512.073L440.886,511.648L443.072,508.518L447.572,511.065L446.994,517.221L450.787,521.788L453.808,519.611L461.008,518.442L464.673,515.576L465.958,512.073L472.001,511.118L476.566,513.081L482.544,521.523L488.523,521.204L494.052,522.107L498.295,524.072L507.359,522.532L509.352,520.035L513.145,520.513L511.602,531.088L509.159,534.97L510.509,541.514L511.73,542.259L516.359,538.96L518.931,539.279L524.652,545.187L533.267,545.72L534.359,549.927L538.602,552.164L542.781,550.033L544.26,551.099L552.424,548.435L555.831,550.886L558.724,544.974L566.374,546.997L568.303,544.708L567.467,540.822L569.396,537.523L573.51,536.938L578.524,542.099L580.967,542.099L579.103,546.305L578.396,553.923L582.703,556.055L582.51,559.147L587.782,560L591.703,557.867L595.368,557.707L597.039,553.07L595.111,548.329L599.739,545.187L602.246,538.64L607.004,536.512L606.104,532.949L608.032,529.812L612.082,527.154L614.139,527.473L626.933,518.814L632.654,519.982L636.447,517.858L640.69,519.664L640.69,519.664L645.254,517.964L648.854,519.026L651.811,515.045L649.626,513.187L649.754,509.791L652.39,504.011L651.233,501.625L653.29,495.373L652.583,490.501L654.64,478.332L651.619,471.936L650.204,454.884L646.669,447.819L648.533,444.763L644.611,443.34L647.761,439.074L651.361,436.495L649.369,435.547L646.218,439.601L638.697,446.765L636.897,442.972L633.811,445.975L629.89,444.025L626.032,452.933L625.004,450.929L621.725,453.408L619.411,451.246L615.939,451.931L610.925,449.559L609.511,446.976L609.446,446.765L608.289,444.289L599.032,438.39L599.289,435.652L588.167,437.969L588.232,434.81L584.246,435.337L581.739,433.758L577.303,433.916L575.439,426.077L575.053,419.875L576.146,415.252L578.396,413.676L576.146,410.894L576.917,406.327L572.61,405.435L570.874,401.973L559.431,401.029L560.01,398.355L557.31,397.569L550.431,398.093L547.602,394.319L544.131,392.328L545.031,389.185L548.567,389.552L547.281,382.641L545.61,382.275L546.188,377.775L549.338,375.265L552.81,375.944L555.381,380.653L560.653,382.275L573.896,382.065L576.66,378.717L581.932,377.147L586.56,377.566L588.039,375.683L587.718,369.984L591.832,364.081L591.318,360.216L594.082,360.164L594.468,356.249L592.025,352.597L589.067,351.971L590.675,349.207L589.26,346.287L590.225,343.577L592.41,344.359L592.41,338.836L594.596,336.701L597.553,338.472L600.446,333.161L604.754,332.12L609.704,333.577L615.297,331.183L623.14,330.246L619.089,322.548L619.154,316.312L615.104,310.65L616.518,309.093L620.44,310.339L622.304,300.531L613.496,300.013L616.647,292.133L616.775,289.647L619.732,283.795L623.397,283.588L625.068,280.535L630.018,280.69L633.168,278.931L636.575,280.483L640.818,280.431L644.676,283.951L645.061,286.436L647.89,286.643L647.826,283.951L650.719,285.918L656.312,286.125L660.747,290.579L658.883,295.606L666.919,301.465L666.533,307.328L668.462,309.768L671.162,309.612L674.569,312.883L676.948,317.247L684.726,314.597L688.198,315.117L693.791,310.806L701.827,309.612L703.305,307.224L706.327,307.691L706.391,302.969L711.47,300.531L718.991,299.338L719.891,296.539L726.577,298.664L727.863,297.731L727.67,289.232L723.298,285.452L723.298,285.452L720.855,279.758L720.855,279.758L715.841,274.12L716.677,271.173L719.763,269.261L717.384,265.696L717.641,261.719L721.498,259.138L719.377,257.125L714.62,256.041L708.384,258.879L703.434,258.363L703.434,258.363L699.577,259.189L698.034,253.564L692.184,251.243L687.426,247.634L682.991,247.066L683.248,244.85L679.39,242.016L677.655,238.977L679.326,235.167L682.026,233.88L680.676,231.049L681.255,226.831L677.076,229.146L674.762,228.528L671.29,223.694L664.605,225.031L659.783,222.717L659.076,225.442L643.84,227.705L642.683,228.683L638.568,226.317L629.118,224.928L627.897,228.888L621.34,226.985L614.075,227.602L610.154,226.162L604.496,220.456L601.603,211.262L603.211,209.26L600.896,202.898L589.453,197.258L583.089,198.744L581.289,195.31L582.639,192.339L577.753,191.519L579.232,186.706L572.739,186.962L569.717,182.1L564.189,182.509L559.367,185.529L557.181,183.788L551.203,183.635L548.374,185.836L543.874,182.202L538.024,181.281L540.917,178.212L537.445,177.19L539.181,174.582L544.131,172.282L539.824,166.816L541.881,163.548L549.274,161.863L548.953,157.016L551.91,155.332L560.846,143.253L564.06,143.508L565.924,139.129L568.624,140.809L569.524,138.925L574.346,138.06L581.096,138.416L588.425,132.463L593.503,131.395L592.346,124.786L596.332,123.211L607.068,108.439L611.504,106.005L621.34,105.396L628.733,103.875L628.99,100.226L633.04,95.617L637.09,93.44L641.59,94.452L646.09,93.035L648.469,90.757L647.504,86.659L651.104,85.849L651.49,82.36L659.14,80.894L665.826,81.298L667.305,75.184L671.098,66.5L666.726,67.257L659.654,73.466L650.14,75.436L646.09,77.811L641.654,76.851L637.733,78.872L637.218,80.843L629.311,81.703L624.04,86.254L617.289,86.355L609.896,89.644L607.261,90.656L604.368,92.022L598.903,98.149L594.275,101.189L591.318,99.416L594.339,89.239L593.246,84.585L594.21,81.147L603.082,76.901L603.211,73.264L606.875,65.087L606.811,62.666L604.882,60.447L603.404,62.312L595.689,64.835L594.532,67.862L589.003,68.973L587.91,64.885L585.467,63.826L581.61,58.228L577.496,56.414L577.496,56.414L577.496,56.363L577.496,56.363L577.367,56.262L577.367,56.262L575.567,58.027L569.396,56.313L567.274,60.245L562.903,59.589L561.424,61.304L561.167,66.449L556.153,70.941L547.41,72.759L548.695,68.872L547.217,63.523L541.56,63.119L541.495,64.885L532.495,65.188L528.638,61.959L527.159,63.573L518.802,63.876L513.402,65.844L513.209,63.473L507.616,60.295L502.087,59.64L500.609,57.573L495.53,56.716L494.566,54.751L489.166,54.146L488.009,51.526L483.187,52.534L478.88,50.67L477.144,51.98L473.93,49.713L473.158,52.584L469.751,52.534L469.751,52.534L470.33,50.569L465.444,48.958L460.365,50.066L456.508,46.541L457.858,43.824L452.265,43.32L450.08,45.031L448.087,41.258L442.687,45.333L439.665,41.258L436.258,41.912L437.029,43.824L432.465,43.522L426.422,40L423.915,40.302L424.429,44.327L421.922,46.541L422.372,50.821L418.772,55.607L420.443,59.236L415.557,59.993L421.279,62.666L421.986,64.683L416.007,65.137L417.679,66.146L419.158,72.355L416.522,74.577L420.122,75.386L418.45,79.681L415.3,78.821L415.879,85.343L414.143,91.769L416.586,95.212L408.422,97.187L410.736,99.314L408.936,105.7L409.45,110.366L412.6,112.142L412.857,116.558L407.972,116.456L404.757,114.02L405.85,117.675L401.222,122.703L399.679,127.022L393.443,129.615L388.493,129.666L383.928,133.684L380.2,132.361L379.364,138.009L373,135.668L367.407,135.719L366.957,139.842L364.835,139.485L363.164,145.953L360.785,147.889L354.614,145.647L347.221,144.781L346.128,147.125L346.771,151.661L340.921,152.885L340.728,155.128L335.52,157.118L329.027,155.638L323.884,160.893L318.42,161.047L308.777,155.077L309.741,159.005L296.82,159.771L284.027,157.628L281.584,159.618L273.291,159.618L275.027,156.301L268.534,158.087L265.898,156.148L257.669,154.261L249.376,153.343L251.433,159.669L247.383,162.323L250.147,166.56L249.119,172.282L249.698,176.729L247.319,177.803L245.197,175.4L240.89,175.554L236.261,173.867L223.404,176.065L223.083,179.133L216.14,182.1L208.168,184.198L210.033,187.679L206.368,188.959L203.347,193.568L200.647,194.952L198.397,198.949L195.632,197.873L191.325,200.334L184.704,199.462L179.496,201.872L174.932,200.129L169.339,202.744L165.482,201.41L163.167,204.539L154.36,202.641L151.21,207.977L142.531,209.619L136.36,213.213L130.51,210.748L128.774,217.116L126.717,219.736L120.545,222.666L117.138,219.12L112.702,218.863L108.588,223.797L98.238,223.54L90.138,226.06L85.445,223.18L78.823,225.545L74.066,224.26L72.78,227.808L76.702,228.734L73.359,230.123L72.137,233.005L76.573,241.707L76.573,241.707L83.902,245.881L87.052,251.759L81.652,256.402L79.209,256.867L80.366,261.564L87.502,264.249L92.066,264.714L92.709,266.781L99.395,268.434L101.516,270.14L98.559,275.103L96.245,276.344L95.795,284.52L99.266,283.226L104.538,290.475L103.959,293.429L99.974,294.724L100.102,296.331L95.795,298.664L98.366,302.347L103.638,302.295L108.845,304.318L111.867,307.951L116.11,308.21L119.774,312.935L121.317,316.831L120.481,319.741L126.202,325.096L135.396,327.749L139.253,330.923L139.124,335.399L141.631,341.389L141.631,342.483L138.481,345.818L141.567,352.128L141.567,356.823L137.26,364.655L143.753,370.141L143.624,373.591L148.124,372.337L152.239,375.108L154.103,378.403L157.575,379.292L158.989,383.845L154.81,387.195L162.01,386.881L165.867,390.652L167.41,394.267L164.196,398.565L165.482,403.442L167.667,401.396L169.467,406.013L178.532,409.161L182.004,416.67L188.496,416.355L186.696,419.875L192.418,425.341L194.218,430.127L199.168,433.758L205.725,429.443L206.304,432.442L213.311,432.389L223.276,439.654L228.419,440.496L231.761,443.182L237.869,441.708L240.697,446.449L244.747,448.715L249.89,446.186L251.69,451.246L259.469,456.309L258.89,452.722L261.269,455.465L264.741,454.673L277.469,462.113L280.812,457.522L284.027,456.942L290.07,459.896L293.027,455.939L298.62,456.361L300.163,453.513L304.727,455.887L307.106,455.306L310.577,457.258ZM427.772,466.02L427.836,464.225L425.779,467.235L426.743,466.812Z" fill="#e6f4ea" stroke="#137333" stroke-width="4" stroke-linejoin="round" stroke-linecap="round" />
  
  <!-- 内发光描边 -->
  <path d="M318.034,458.366L320.027,458.524L324.27,458.261L333.077,454.357L335.97,456.361L338.413,454.884L346.771,456.203L347.671,452.195L350.306,451.298L355.835,454.515L358.857,454.093L360.014,456.467L363.871,455.939L364.192,452.828L369.721,450.613L372.292,453.197L382.45,460.582L380.778,461.532L384.507,464.911L386.886,464.541L392.35,467.446L401.029,462.641L412.793,457.997L415.493,452.617L420.7,451.773L424.365,452.828L427.708,457.047L426.293,461.427L427.836,464.225L427.772,466.02L426.743,466.812L425.779,467.235L424.686,468.978L426.165,473.152L429.251,476.429L425.908,483.568L423.015,482.722L423.658,487.007L430.215,491.93L426.679,496.75L432.915,499.399L431.693,503.057L434.458,504.17L434.329,508.306L436.772,512.073L440.886,511.648L443.072,508.518L447.572,511.065L446.994,517.221L450.787,521.788L453.808,519.611L461.008,518.442L464.673,515.576L465.958,512.073L472.001,511.118L476.566,513.081L482.544,521.523L488.523,521.204L494.052,522.107L498.295,524.072L507.359,522.532L509.352,520.035L513.145,520.513L511.602,531.088L509.159,534.97L510.509,541.514L511.73,542.259L516.359,538.96L518.931,539.279L524.652,545.187L533.267,545.72L534.359,549.927L538.602,552.164L542.781,550.033L544.26,551.099L552.424,548.435L555.831,550.886L558.724,544.974L566.374,546.997L568.303,544.708L567.467,540.822L569.396,537.523L573.51,536.938L578.524,542.099L580.967,542.099L579.103,546.305L578.396,553.923L582.703,556.055L582.51,559.147L587.782,560L591.703,557.867L595.368,557.707L597.039,553.07L595.111,548.329L599.739,545.187L602.246,538.64L607.004,536.512L606.104,532.949L608.032,529.812L612.082,527.154L614.139,527.473L626.933,518.814L632.654,519.982L636.447,517.858L640.69,519.664L640.69,519.664L645.254,517.964L648.854,519.026L651.811,515.045L649.626,513.187L649.754,509.791L652.39,504.011L651.233,501.625L653.29,495.373L652.583,490.501L654.64,478.332L651.619,471.936L650.204,454.884L646.669,447.819L648.533,444.763L644.611,443.34L647.761,439.074L651.361,436.495L649.369,435.547L646.218,439.601L638.697,446.765L636.897,442.972L633.811,445.975L629.89,444.025L626.032,452.933L625.004,450.929L621.725,453.408L619.411,451.246L615.939,451.931L610.925,449.559L609.511,446.976L609.446,446.765L608.289,444.289L599.032,438.39L599.289,435.652L588.167,437.969L588.232,434.81L584.246,435.337L581.739,433.758L577.303,433.916L575.439,426.077L575.053,419.875L576.146,415.252L578.396,413.676L576.146,410.894L576.917,406.327L572.61,405.435L570.874,401.973L559.431,401.029L560.01,398.355L557.31,397.569L550.431,398.093L547.602,394.319L544.131,392.328L545.031,389.185L548.567,389.552L547.281,382.641L545.61,382.275L546.188,377.775L549.338,375.265L552.81,375.944L555.381,380.653L560.653,382.275L573.896,382.065L576.66,378.717L581.932,377.147L586.56,377.566L588.039,375.683L587.718,369.984L591.832,364.081L591.318,360.216L594.082,360.164L594.468,356.249L592.025,352.597L589.067,351.971L590.675,349.207L589.26,346.287L590.225,343.577L592.41,344.359L592.41,338.836L594.596,336.701L597.553,338.472L600.446,333.161L604.754,332.12L609.704,333.577L615.297,331.183L623.14,330.246L619.089,322.548L619.154,316.312L615.104,310.65L616.518,309.093L620.44,310.339L622.304,300.531L613.496,300.013L616.647,292.133L616.775,289.647L619.732,283.795L623.397,283.588L625.068,280.535L630.018,280.69L633.168,278.931L636.575,280.483L640.818,280.431L644.676,283.951L645.061,286.436L647.89,286.643L647.826,283.951L650.719,285.918L656.312,286.125L660.747,290.579L658.883,295.606L666.919,301.465L666.533,307.328L668.462,309.768L671.162,309.612L674.569,312.883L676.948,317.247L684.726,314.597L688.198,315.117L693.791,310.806L701.827,309.612L703.305,307.224L706.327,307.691L706.391,302.969L711.47,300.531L718.991,299.338L719.891,296.539L726.577,298.664L727.863,297.731L727.67,289.232L723.298,285.452L723.298,285.452L720.855,279.758L720.855,279.758L715.841,274.12L716.677,271.173L719.763,269.261L717.384,265.696L717.641,261.719L721.498,259.138L719.377,257.125L714.62,256.041L708.384,258.879L703.434,258.363L703.434,258.363L699.577,259.189L698.034,253.564L692.184,251.243L687.426,247.634L682.991,247.066L683.248,244.85L679.39,242.016L677.655,238.977L679.326,235.167L682.026,233.88L680.676,231.049L681.255,226.831L677.076,229.146L674.762,228.528L671.29,223.694L664.605,225.031L659.783,222.717L659.076,225.442L643.84,227.705L642.683,228.683L638.568,226.317L629.118,224.928L627.897,228.888L621.34,226.985L614.075,227.602L610.154,226.162L604.496,220.456L601.603,211.262L603.211,209.26L600.896,202.898L589.453,197.258L583.089,198.744L581.289,195.31L582.639,192.339L577.753,191.519L579.232,186.706L572.739,186.962L569.717,182.1L564.189,182.509L559.367,185.529L557.181,183.788L551.203,183.635L548.374,185.836L543.874,182.202L538.024,181.281L540.917,178.212L537.445,177.19L539.181,174.582L544.131,172.282L539.824,166.816L541.881,163.548L549.274,161.863L548.953,157.016L551.91,155.332L560.846,143.253L564.06,143.508L565.924,139.129L568.624,140.809L569.524,138.925L574.346,138.06L581.096,138.416L588.425,132.463L593.503,131.395L592.346,124.786L596.332,123.211L607.068,108.439L611.504,106.005L621.34,105.396L628.733,103.875L628.99,100.226L633.04,95.617L637.09,93.44L641.59,94.452L646.09,93.035L648.469,90.757L647.504,86.659L651.104,85.849L651.49,82.36L659.14,80.894L665.826,81.298L667.305,75.184L671.098,66.5L666.726,67.257L659.654,73.466L650.14,75.436L646.09,77.811L641.654,76.851L637.733,78.872L637.218,80.843L629.311,81.703L624.04,86.254L617.289,86.355L609.896,89.644L607.261,90.656L604.368,92.022L598.903,98.149L594.275,101.189L591.318,99.416L594.339,89.239L593.246,84.585L594.21,81.147L603.082,76.901L603.211,73.264L606.875,65.087L606.811,62.666L604.882,60.447L603.404,62.312L595.689,64.835L594.532,67.862L589.003,68.973L587.91,64.885L585.467,63.826L581.61,58.228L577.496,56.414L577.496,56.414L577.496,56.363L577.496,56.363L577.367,56.262L577.367,56.262L575.567,58.027L569.396,56.313L567.274,60.245L562.903,59.589L561.424,61.304L561.167,66.449L556.153,70.941L547.41,72.759L548.695,68.872L547.217,63.523L541.56,63.119L541.495,64.885L532.495,65.188L528.638,61.959L527.159,63.573L518.802,63.876L513.402,65.844L513.209,63.473L507.616,60.295L502.087,59.64L500.609,57.573L495.53,56.716L494.566,54.751L489.166,54.146L488.009,51.526L483.187,52.534L478.88,50.67L477.144,51.98L473.93,49.713L473.158,52.584L469.751,52.534L469.751,52.534L470.33,50.569L465.444,48.958L460.365,50.066L456.508,46.541L457.858,43.824L452.265,43.32L450.08,45.031L448.087,41.258L442.687,45.333L439.665,41.258L436.258,41.912L437.029,43.824L432.465,43.522L426.422,40L423.915,40.302L424.429,44.327L421.922,46.541L422.372,50.821L418.772,55.607L420.443,59.236L415.557,59.993L421.279,62.666L421.986,64.683L416.007,65.137L417.679,66.146L419.158,72.355L416.522,74.577L420.122,75.386L418.45,79.681L415.3,78.821L415.879,85.343L414.143,91.769L416.586,95.212L408.422,97.187L410.736,99.314L408.936,105.7L409.45,110.366L412.6,112.142L412.857,116.558L407.972,116.456L404.757,114.02L405.85,117.675L401.222,122.703L399.679,127.022L393.443,129.615L388.493,129.666L383.928,133.684L380.2,132.361L379.364,138.009L373,135.668L367.407,135.719L366.957,139.842L364.835,139.485L363.164,145.953L360.785,147.889L354.614,145.647L347.221,144.781L346.128,147.125L346.771,151.661L340.921,152.885L340.728,155.128L335.52,157.118L329.027,155.638L323.884,160.893L318.42,161.047L308.777,155.077L309.741,159.005L296.82,159.771L284.027,157.628L281.584,159.618L273.291,159.618L275.027,156.301L268.534,158.087L265.898,156.148L257.669,154.261L249.376,153.343L251.433,159.669L247.383,162.323L250.147,166.56L249.119,172.282L249.698,176.729L247.319,177.803L245.197,175.4L240.89,175.554L236.261,173.867L223.404,176.065L223.083,179.133L216.14,182.1L208.168,184.198L210.033,187.679L206.368,188.959L203.347,193.568L200.647,194.952L198.397,198.949L195.632,197.873L191.325,200.334L184.704,199.462L179.496,201.872L174.932,200.129L169.339,202.744L165.482,201.41L163.167,204.539L154.36,202.641L151.21,207.977L142.531,209.619L136.36,213.213L130.51,210.748L128.774,217.116L126.717,219.736L120.545,222.666L117.138,219.12L112.702,218.863L108.588,223.797L98.238,223.54L90.138,226.06L85.445,223.18L78.823,225.545L74.066,224.26L72.78,227.808L76.702,228.734L73.359,230.123L72.137,233.005L76.573,241.707L76.573,241.707L83.902,245.881L87.052,251.759L81.652,256.402L79.209,256.867L80.366,261.564L87.502,264.249L92.066,264.714L92.709,266.781L99.395,268.434L101.516,270.14L98.559,275.103L96.245,276.344L95.795,284.52L99.266,283.226L104.538,290.475L103.959,293.429L99.974,294.724L100.102,296.331L95.795,298.664L98.366,302.347L103.638,302.295L108.845,304.318L111.867,307.951L116.11,308.21L119.774,312.935L121.317,316.831L120.481,319.741L126.202,325.096L135.396,327.749L139.253,330.923L139.124,335.399L141.631,341.389L141.631,342.483L138.481,345.818L141.567,352.128L141.567,356.823L137.26,364.655L143.753,370.141L143.624,373.591L148.124,372.337L152.239,375.108L154.103,378.403L157.575,379.292L158.989,383.845L154.81,387.195L162.01,386.881L165.867,390.652L167.41,394.267L164.196,398.565L165.482,403.442L167.667,401.396L169.467,406.013L178.532,409.161L182.004,416.67L188.496,416.355L186.696,419.875L192.418,425.341L194.218,430.127L199.168,433.758L205.725,429.443L206.304,432.442L213.311,432.389L223.276,439.654L228.419,440.496L231.761,443.182L237.869,441.708L240.697,446.449L244.747,448.715L249.89,446.186L251.69,451.246L259.469,456.309L258.89,452.722L261.269,455.465L264.741,454.673L277.469,462.113L280.812,457.522L284.027,456.942L290.07,459.896L293.027,455.939L298.62,456.361L300.163,453.513L304.727,455.887L307.106,455.306L310.577,457.258ZM427.772,466.02L427.836,464.225L425.779,467.235L426.743,466.812Z" fill="none" stroke="#2e7d32" stroke-width="1.5" stroke-linejoin="round" stroke-linecap="round" opacity="0.6" />
</svg>