<svg xmlns="http://www.w3.org/2000/svg" width="800" height="600" viewBox="0 0 800 600">
  <!-- 背景色，采用淡米黄色 -->
  <rect width="100%" height="100%" fill="#f5f2eb" />
  
  <!-- 阴影层 -->
  <path d="M412.856,362.151L416.269,360.563L416.386,353.368L418.504,352.31L417.269,349.983L419.446,349.084L423.447,342.635L423.094,340.521L419.152,340.099L417.622,343.375L414.268,343.111L419.799,336.982L423.329,336.506L425.565,333.231L430.213,331.383L427.977,320.774L424.271,313.073L429.566,312.071L431.92,317.134L432.626,318.822L436.215,325.734L441.334,330.855L442.569,338.514L444.864,340.151L450.512,335.925L450.689,335.503L452.748,333.654L458.044,334.288L462.868,333.496L464.104,331.383L469.988,330.486L470.87,329.007L476.283,329.588L477.225,330.855L483.167,328.585L485.756,326.315L491.464,324.943L495.818,326.157L500.113,332.545L500.525,338.566L503.408,340.521L507.468,337.932L513.41,336.4L515.058,333.337L513.704,330.327L509.292,328.849L508.409,326.684L512.645,321.407L510.409,319.244L504.231,319.824L509.174,316.923L511.527,316.501L512.469,312.598L520.883,309.119L522.824,307.169L526.649,309.435L525.237,313.231L524.589,320.194L526.06,321.988L526.296,326.843L537.769,325.893L539.593,330.961L543.123,329.958L543.653,323.043L545.3,320.774L554.302,314.233L552.773,313.073L555.656,311.017L557.833,307.116L565.305,305.851L568.777,308.539L568.718,304.217L573.131,303.585L572.542,308.223L581.015,307.59L582.839,308.223L583.898,314.391L586.958,317.081L591.665,317.081L595.607,315.763L605.492,320.246L604.55,317.081L608.728,310.49L602.255,310.279L605.021,307.274L606.315,303.269L613.023,299.739L617.024,301.899L623.143,302.689L625.85,305.061L626.614,311.808L629.733,312.229L634.911,307.379L639.5,305.746L642.736,305.956L645.796,303.427L651.444,301.741L656.033,304.428L659.564,302.637L668.919,294.42L670.802,293.367L674.979,291.524L682.628,294.631L689.041,292.946L694.337,293.525L698.044,287.208L701.162,285.524L699.279,281.526L700.162,278.423L698.691,276.425L700.162,274.059L709.635,271.798L713.047,267.962L717.225,266.333L723.109,267.699L724.521,263.917L722.344,263.496L720.814,256.932L729.345,247.171L729.287,247.118L729.581,244.181L729.64,244.128L731.64,241.401L730.934,238.99L734.759,236.264L738.112,238.465L742.584,238.885L745.879,235.32L749.762,235.635L760,233.224L760,226.78L755.646,224.423L753.41,225.052L746.879,220.601L746.173,214.426L743.408,210.293L742.761,205.22L739.819,205.168L737.347,198.791L739.348,197.902L739.819,191.425L737.112,190.589L734.935,185.211L735.347,179.262L741.466,174.254L737.406,170.656L735.229,170.344L735.7,164.506L733.405,163.88L733.876,160.702L731.64,157.889L732.405,156.067L726.227,149.143L728.286,147.425L725.639,143.939L722.167,143.419L718.578,139.258L718.755,135.671L723.932,128.81L720.343,126.472L709.811,128.446L705.575,130.057L703.457,128.862L700.574,131.98L696.69,133.591L694.455,132.032L695.514,129.07L692.395,122.577L688.688,123.148L685.805,120.292L686.1,118.06L681.922,114.583L682.51,112.559L685.982,111.054L683.805,107.527L680.804,108.149L679.098,112.196L674.45,114.79L669.39,115.569L670.037,112.559L667.213,112.092L664.388,107.579L660.682,110.484L652.562,110.172L647.502,104.83L644.678,105.453L637.264,103.171L635.793,101.875L635.087,105.504L637.205,107.32L632.851,108.875L633.028,106.23L629.262,104.519L627.673,108.979L626.026,109.602L623.555,115.724L624.732,117.385L622.79,119.825L624.025,123.72L627.085,123.979L625.085,128.031L626.732,131.304L630.851,135.566L631.145,137.646L625.555,137.178L622.437,139.206L616.377,139.31L614.67,133.591L608.375,131.616L604.962,131.928L603.609,126.057L600.49,124.239L596.077,118.527L589.958,115.62L586.134,117.385L584.781,121.123L579.838,118.891L576.308,119.773L575.249,121.746L568.129,123.408L560.539,127.563L558.539,124.55L556.009,124.187L552.89,127.459L550.89,126.472L544.83,129.278L541.888,128.187L540.358,135.722L538.004,137.646L535.886,133.799L534.062,135.203L529.649,132.812L524.707,133.227L525.531,137.386L522.353,141.13L518.529,135.618L514.94,136.294L511.351,140.038L506.055,137.958L495.994,144.928L493.523,143.835L492.405,137.542L489.757,135.722L483.756,136.086L482.697,132.24L479.696,130.109L473.224,128.654L471.164,125.485L481.049,124.447L481.932,122.214L487.11,119.825L487.698,114.271L491.169,109.083L493.523,107.527L492.817,100.528L498.465,98.04L498.583,96.174L503.349,95.863L505.879,93.688L508.644,88.457L512.763,87.835L516.176,88.767L518.529,86.179L525.295,84.211L525.237,80.951L520.53,79.295L521.294,75.415L525.237,74.278L526.002,69.624L523.236,65.696L515.823,64.869L512.292,58.98L506.703,56.036L500.642,60.374L496.936,59.909L496.112,63.009L491.581,65.541L485.109,63.526L483.226,67.195L479.873,67.97L474.577,67.246L473.165,65.592L466.046,66.988L462.986,69.521L460.338,69.314L458.809,71.899L456.69,69.676L457.808,64.507L459.809,61.046L453.395,56.191L455.337,53.558L449.747,53.661L444.217,54.126L443.275,59.496L439.686,61.149L437.333,64.456L432.508,63.991L431.449,61.201L425.094,62.234L424.447,63.887L417.916,64.559L415.327,66.574L414.798,62.957L410.679,60.633L405.325,60.013L402.442,61.511L398.382,57.482L395.146,57.379L392.145,52.99L389.497,53.558L389.203,49.016L383.261,46.745L381.084,47.158L376.377,50.822L370.787,53.3L372.023,56.243L368.728,56.449L366.963,59.341L360.726,62.182L356.607,62.389L353.253,64.714L352.253,67.505L349.076,63.371L345.604,63.577L346.781,72.002L349.723,73.088L355.489,71.537L358.784,72.209L362.785,76.916L357.019,79.761L356.43,82.296L359.902,87.318L357.49,92.6L360.431,97.988L358.961,102.808L353.9,103.897L350.37,103.327L347.428,105.712L338.544,105.712L338.308,100.838L334.955,99.698L334.837,95.967L332.248,93.377L332.013,87.887L327.012,83.176L323.952,82.4L317.715,83.953L307.713,81.313L306.301,78.105L303.594,82.245L298.828,77.536L294.121,79.088L292.886,80.848L288.414,80.641L287.531,78.157L281.824,78.416L280.883,85.661L278.47,90.528L278.823,93.325L275.587,96.848L275.411,99.335L280.706,102.757L279.941,109.239L278.235,111.417L275.823,111.002L267.173,117.697L266.291,120.656L260.289,122.473L258.171,125.797L259.524,129.538L257.053,131.252L257.936,134.475L261.29,136.086L264.643,140.298L264.879,143.315L262.525,146.697L266.35,149.455L269.468,154.4L269.645,158.931L266.467,163.203L263.055,164.662L262.643,166.851L259.995,166.173L255.641,170.187L252.228,169.666L251.64,174.515L253.111,175.715L252.346,180.88L256.465,190.224L258.289,192.522L255.523,196.753L250.051,196.387L249.228,200.515L246.05,202.136L247.227,207.364L245.874,209.822L237.46,208.253L233.695,208.305L233.695,208.305L230.988,207.312L228.399,211.548L227.811,217.565L232.106,218.246L227.164,223.952L227.222,225.837L221.515,225.68L214.984,227.042L214.278,236.002L209.394,242.345L206.629,242.083L205.04,248.745L205.629,251.001L203.158,254.36L204.393,257.825L202.157,259.715L203.275,263.969L205.57,266.806L205.158,270.905L203.393,273.06L204.511,279.054L206.864,280.579L209.806,279.896L209.865,283.42L205.629,286.366L206.982,287.735L203.099,289.998L204.217,292.788L202.687,297.474L189.272,310.964L186.153,312.124L179.74,311.28L173.974,312.704L176.975,315.974L173.739,320.457L168.149,322.093L164.501,321.618L163.677,324.098L158.5,323.834L158.676,325.893L150.498,327.371L147.262,326.526L144.496,329.218L145.791,332.915L143.614,334.763L143.731,338.091L138.671,336.77L140.966,340.31L140.848,347.128L143.731,347.868L144.496,350.935L148.085,355.431L145.438,356.171L142.201,354.161L138.612,358.552L134.67,361.357L137.73,365.909L133.023,368.185L130.081,366.862L130.493,364.903L126.198,363.686L121.196,368.768L116.548,364.321L112.488,362.521L109.017,366.703L106.193,363.738L104.075,367.868L107.722,370.41L106.487,373.111L107.252,380.899L106.605,384.716L108.723,385.511L108.723,385.511L109.076,388.162L109.076,388.162L110.311,392.564L105.134,393.148L100.662,390.284L100.015,392.724L94.307,393.678L94.307,393.678L93.189,393.307L93.189,393.307L91.66,391.981L85.188,391.716L82.599,394.846L77.774,396.066L72.89,393.731L67.654,397.286L67.183,404.452L64.888,414.065L62.241,415.659L62.241,415.659L57.593,417.146L52.474,417.04L51.709,413.905L48.355,419.06L49.473,424.801L52.709,431.076L52.415,434.321L55.651,435.439L62.829,435.705L63.77,436.876L60.358,442.997L51.003,443.582L49.767,444.807L50.355,456.313L41.824,464.895L41.765,471.455L40,484.692L40.883,491.101L45.354,499.49L47.119,504.729L48.531,514.143L53.18,514.678L55.121,518.585L54.945,521.743L57.593,526.722L62.241,528.061L62.947,532.614L60.005,535.079L59.652,537.49L64.888,543.226L64.241,550.841L66.124,553.255L72.302,549.178L80.775,548.749L84.187,552.504L89.012,552.504L93.954,549.446L101.25,549.661L106.251,548.749L109.605,545.478L113.547,545.638L116.136,543.762L119.843,537.758L124.609,533.311L125.492,528.329L120.667,518.799L119.431,512.324L117.431,508.473L112.194,509.382L110.37,508.259L111.841,503.553L110.488,495.482L106.428,493.077L104.192,492.49L98.603,493.238L92.954,491.314L90.483,488.27L90.189,479.673L92.483,477.645L92.836,473.109L96.014,476.418L96.779,473.643L101.25,469.002L110.252,466.015L113.253,459.724L116.019,460.15L120.784,457.166L123.962,458.445L132.729,457.325L135.906,455.034L141.025,448.109L146.32,443.103L148.968,442.145L157.794,442.837L161.677,442.038L171.738,436.024L178.328,434.428L184.8,434.162L195.45,431.555L194.803,435.598L192.331,434.854L193.038,438.313L195.744,437.94L202.157,433.577L204.982,430.597L210.865,428.842L215.69,430.066L218.279,428.523L221.986,429.693L226.693,427.3L230.576,429.002L233.165,427.353L234.695,421.558L238.813,419.697L244.344,419.538L247.933,422.674L245.815,424.907L253.229,422.674L258.407,419.963L261.348,420.335L266.526,417.412L263.761,415.18L259.583,414.171L259.76,410.081L267.409,405.195L276.999,402.116L282.354,402.541L282.765,407.584L286.531,408.487L286.766,410.877L297.71,410.399L303.653,407.744L304.771,402.487L306.536,401.214L311.478,402.912L315.126,405.938L325.776,405.514L329.483,400.523L339.662,389.965L344.31,390.018L349.311,397.286L352.783,397.817L358.49,394.899L364.021,386.572L364.609,381.27L362.55,378.038L363.844,373.958L367.786,370.357L368.257,376.183L373.14,381.27L373.964,384.345L381.966,393.148L384.967,394.686L390.027,391.079L391.027,386.094L401.736,381.535L403.383,378.25L409.914,375.389L413.68,375.23L412.444,372.157L412.444,368.821L410.561,365.803L410.914,362.415ZM743.937,245.072L739.936,242.87L736.288,244.863L736.994,246.803L744.173,247.223L746.408,248.64L749.409,247.8L753.469,249.689L755.234,248.64L755.234,242.975L753.94,240.72L750.527,243.027L747.173,241.664L744.408,244.548ZM345.487,407.213L347.664,404.133L344.251,403.761L338.72,407.266L333.131,409.178L331.365,413.055L334.131,414.277L338.485,413.799L333.778,419.325L338.014,424.056L342.015,421.558L340.25,419.591L342.427,415.287L340.838,412.365L343.545,407.584ZM314.655,422.196L317.774,421.451L318.539,418.741L323.305,420.016L327.541,416.562L325.011,413.693L327.6,412.63L327.365,409.709L320.539,411.727L317.48,414.277L318.48,416.243L315.067,417.89ZM477.107,380.846L484.756,378.462L483.932,377.614L477.931,379.045ZM114.312,461.59L119.667,464.682L121.491,464.522L124.962,469.962L128.551,468.895L133.317,457.805L129.198,459.351L123.079,459.777L120.608,457.592L115.43,460.31L114.136,460.683ZM305.536,414.543L307.536,415.977L307.772,412.046ZM122.373,470.388L116.842,471.936L110.959,468.735L106.605,470.335L102.133,469.535L99.25,474.763L93.072,479.193L92.13,483.837L102.486,481.435L106.134,479.406L111.841,478.873L118.078,479.566L121.785,485.92L124.079,485.332L124.432,479.139L126.433,472.096ZM432.567,386.041L433.449,382.596L430.331,383.232ZM428.566,389.859L430.449,387.155L428.154,387.049ZM373.14,398.507L374.964,396.384L378.965,395.694L375.494,394.209L372.552,394.952ZM437.803,344.591L437.215,342.318L434.626,342.899ZM473.165,383.709L476.931,382.861L472.282,381.482ZM469.694,384.822L471.4,382.384L466.869,383.815ZM719.578,499.757L718.755,501.789L729.404,502.965L731.052,508.205L727.168,513.448L717.637,516.07L722.108,517.836L728.463,517.247L732.523,514.304L735.288,508.847L734.464,504.034L730.699,499.383L724.403,498.902ZM361.902,396.968L363.844,393.625L360.196,394.899ZM111.606,508.687L114.724,508.74L112.488,505.638ZM134.494,484.104L128.728,482.823L125.315,486.667L126.668,491.208L131.317,491.314L134.67,485.866ZM126.08,542.207L129.61,539.045L128.904,537.062ZM640.618,468.628L641.618,471.829L645.031,474.55L649.914,475.991L652.503,474.07L650.267,467.402L648.384,466.068L642.736,466.122ZM639.029,479.727L640.265,483.143L643.207,485.653L645.972,485.332L646.149,482.876L641.677,477.965ZM630.262,313.389L630.262,313.442L630.321,313.389ZM630.262,313.337L630.262,313.389L630.321,313.389Z" fill="#d1e7dd" opacity="0.3" transform="translate(5, 8)" />
  
  <!-- 填充与主轮廓 -->
  <path d="M412.856,362.151L416.269,360.563L416.386,353.368L418.504,352.31L417.269,349.983L419.446,349.084L423.447,342.635L423.094,340.521L419.152,340.099L417.622,343.375L414.268,343.111L419.799,336.982L423.329,336.506L425.565,333.231L430.213,331.383L427.977,320.774L424.271,313.073L429.566,312.071L431.92,317.134L432.626,318.822L436.215,325.734L441.334,330.855L442.569,338.514L444.864,340.151L450.512,335.925L450.689,335.503L452.748,333.654L458.044,334.288L462.868,333.496L464.104,331.383L469.988,330.486L470.87,329.007L476.283,329.588L477.225,330.855L483.167,328.585L485.756,326.315L491.464,324.943L495.818,326.157L500.113,332.545L500.525,338.566L503.408,340.521L507.468,337.932L513.41,336.4L515.058,333.337L513.704,330.327L509.292,328.849L508.409,326.684L512.645,321.407L510.409,319.244L504.231,319.824L509.174,316.923L511.527,316.501L512.469,312.598L520.883,309.119L522.824,307.169L526.649,309.435L525.237,313.231L524.589,320.194L526.06,321.988L526.296,326.843L537.769,325.893L539.593,330.961L543.123,329.958L543.653,323.043L545.3,320.774L554.302,314.233L552.773,313.073L555.656,311.017L557.833,307.116L565.305,305.851L568.777,308.539L568.718,304.217L573.131,303.585L572.542,308.223L581.015,307.59L582.839,308.223L583.898,314.391L586.958,317.081L591.665,317.081L595.607,315.763L605.492,320.246L604.55,317.081L608.728,310.49L602.255,310.279L605.021,307.274L606.315,303.269L613.023,299.739L617.024,301.899L623.143,302.689L625.85,305.061L626.614,311.808L629.733,312.229L634.911,307.379L639.5,305.746L642.736,305.956L645.796,303.427L651.444,301.741L656.033,304.428L659.564,302.637L668.919,294.42L670.802,293.367L674.979,291.524L682.628,294.631L689.041,292.946L694.337,293.525L698.044,287.208L701.162,285.524L699.279,281.526L700.162,278.423L698.691,276.425L700.162,274.059L709.635,271.798L713.047,267.962L717.225,266.333L723.109,267.699L724.521,263.917L722.344,263.496L720.814,256.932L729.345,247.171L729.287,247.118L729.581,244.181L729.64,244.128L731.64,241.401L730.934,238.99L734.759,236.264L738.112,238.465L742.584,238.885L745.879,235.32L749.762,235.635L760,233.224L760,226.78L755.646,224.423L753.41,225.052L746.879,220.601L746.173,214.426L743.408,210.293L742.761,205.22L739.819,205.168L737.347,198.791L739.348,197.902L739.819,191.425L737.112,190.589L734.935,185.211L735.347,179.262L741.466,174.254L737.406,170.656L735.229,170.344L735.7,164.506L733.405,163.88L733.876,160.702L731.64,157.889L732.405,156.067L726.227,149.143L728.286,147.425L725.639,143.939L722.167,143.419L718.578,139.258L718.755,135.671L723.932,128.81L720.343,126.472L709.811,128.446L705.575,130.057L703.457,128.862L700.574,131.98L696.69,133.591L694.455,132.032L695.514,129.07L692.395,122.577L688.688,123.148L685.805,120.292L686.1,118.06L681.922,114.583L682.51,112.559L685.982,111.054L683.805,107.527L680.804,108.149L679.098,112.196L674.45,114.79L669.39,115.569L670.037,112.559L667.213,112.092L664.388,107.579L660.682,110.484L652.562,110.172L647.502,104.83L644.678,105.453L637.264,103.171L635.793,101.875L635.087,105.504L637.205,107.32L632.851,108.875L633.028,106.23L629.262,104.519L627.673,108.979L626.026,109.602L623.555,115.724L624.732,117.385L622.79,119.825L624.025,123.72L627.085,123.979L625.085,128.031L626.732,131.304L630.851,135.566L631.145,137.646L625.555,137.178L622.437,139.206L616.377,139.31L614.67,133.591L608.375,131.616L604.962,131.928L603.609,126.057L600.49,124.239L596.077,118.527L589.958,115.62L586.134,117.385L584.781,121.123L579.838,118.891L576.308,119.773L575.249,121.746L568.129,123.408L560.539,127.563L558.539,124.55L556.009,124.187L552.89,127.459L550.89,126.472L544.83,129.278L541.888,128.187L540.358,135.722L538.004,137.646L535.886,133.799L534.062,135.203L529.649,132.812L524.707,133.227L525.531,137.386L522.353,141.13L518.529,135.618L514.94,136.294L511.351,140.038L506.055,137.958L495.994,144.928L493.523,143.835L492.405,137.542L489.757,135.722L483.756,136.086L482.697,132.24L479.696,130.109L473.224,128.654L471.164,125.485L481.049,124.447L481.932,122.214L487.11,119.825L487.698,114.271L491.169,109.083L493.523,107.527L492.817,100.528L498.465,98.04L498.583,96.174L503.349,95.863L505.879,93.688L508.644,88.457L512.763,87.835L516.176,88.767L518.529,86.179L525.295,84.211L525.237,80.951L520.53,79.295L521.294,75.415L525.237,74.278L526.002,69.624L523.236,65.696L515.823,64.869L512.292,58.98L506.703,56.036L500.642,60.374L496.936,59.909L496.112,63.009L491.581,65.541L485.109,63.526L483.226,67.195L479.873,67.97L474.577,67.246L473.165,65.592L466.046,66.988L462.986,69.521L460.338,69.314L458.809,71.899L456.69,69.676L457.808,64.507L459.809,61.046L453.395,56.191L455.337,53.558L449.747,53.661L444.217,54.126L443.275,59.496L439.686,61.149L437.333,64.456L432.508,63.991L431.449,61.201L425.094,62.234L424.447,63.887L417.916,64.559L415.327,66.574L414.798,62.957L410.679,60.633L405.325,60.013L402.442,61.511L398.382,57.482L395.146,57.379L392.145,52.99L389.497,53.558L389.203,49.016L383.261,46.745L381.084,47.158L376.377,50.822L370.787,53.3L372.023,56.243L368.728,56.449L366.963,59.341L360.726,62.182L356.607,62.389L353.253,64.714L352.253,67.505L349.076,63.371L345.604,63.577L346.781,72.002L349.723,73.088L355.489,71.537L358.784,72.209L362.785,76.916L357.019,79.761L356.43,82.296L359.902,87.318L357.49,92.6L360.431,97.988L358.961,102.808L353.9,103.897L350.37,103.327L347.428,105.712L338.544,105.712L338.308,100.838L334.955,99.698L334.837,95.967L332.248,93.377L332.013,87.887L327.012,83.176L323.952,82.4L317.715,83.953L307.713,81.313L306.301,78.105L303.594,82.245L298.828,77.536L294.121,79.088L292.886,80.848L288.414,80.641L287.531,78.157L281.824,78.416L280.883,85.661L278.47,90.528L278.823,93.325L275.587,96.848L275.411,99.335L280.706,102.757L279.941,109.239L278.235,111.417L275.823,111.002L267.173,117.697L266.291,120.656L260.289,122.473L258.171,125.797L259.524,129.538L257.053,131.252L257.936,134.475L261.29,136.086L264.643,140.298L264.879,143.315L262.525,146.697L266.35,149.455L269.468,154.4L269.645,158.931L266.467,163.203L263.055,164.662L262.643,166.851L259.995,166.173L255.641,170.187L252.228,169.666L251.64,174.515L253.111,175.715L252.346,180.88L256.465,190.224L258.289,192.522L255.523,196.753L250.051,196.387L249.228,200.515L246.05,202.136L247.227,207.364L245.874,209.822L237.46,208.253L233.695,208.305L233.695,208.305L230.988,207.312L228.399,211.548L227.811,217.565L232.106,218.246L227.164,223.952L227.222,225.837L221.515,225.68L214.984,227.042L214.278,236.002L209.394,242.345L206.629,242.083L205.04,248.745L205.629,251.001L203.158,254.36L204.393,257.825L202.157,259.715L203.275,263.969L205.57,266.806L205.158,270.905L203.393,273.06L204.511,279.054L206.864,280.579L209.806,279.896L209.865,283.42L205.629,286.366L206.982,287.735L203.099,289.998L204.217,292.788L202.687,297.474L189.272,310.964L186.153,312.124L179.74,311.28L173.974,312.704L176.975,315.974L173.739,320.457L168.149,322.093L164.501,321.618L163.677,324.098L158.5,323.834L158.676,325.893L150.498,327.371L147.262,326.526L144.496,329.218L145.791,332.915L143.614,334.763L143.731,338.091L138.671,336.77L140.966,340.31L140.848,347.128L143.731,347.868L144.496,350.935L148.085,355.431L145.438,356.171L142.201,354.161L138.612,358.552L134.67,361.357L137.73,365.909L133.023,368.185L130.081,366.862L130.493,364.903L126.198,363.686L121.196,368.768L116.548,364.321L112.488,362.521L109.017,366.703L106.193,363.738L104.075,367.868L107.722,370.41L106.487,373.111L107.252,380.899L106.605,384.716L108.723,385.511L108.723,385.511L109.076,388.162L109.076,388.162L110.311,392.564L105.134,393.148L100.662,390.284L100.015,392.724L94.307,393.678L94.307,393.678L93.189,393.307L93.189,393.307L91.66,391.981L85.188,391.716L82.599,394.846L77.774,396.066L72.89,393.731L67.654,397.286L67.183,404.452L64.888,414.065L62.241,415.659L62.241,415.659L57.593,417.146L52.474,417.04L51.709,413.905L48.355,419.06L49.473,424.801L52.709,431.076L52.415,434.321L55.651,435.439L62.829,435.705L63.77,436.876L60.358,442.997L51.003,443.582L49.767,444.807L50.355,456.313L41.824,464.895L41.765,471.455L40,484.692L40.883,491.101L45.354,499.49L47.119,504.729L48.531,514.143L53.18,514.678L55.121,518.585L54.945,521.743L57.593,526.722L62.241,528.061L62.947,532.614L60.005,535.079L59.652,537.49L64.888,543.226L64.241,550.841L66.124,553.255L72.302,549.178L80.775,548.749L84.187,552.504L89.012,552.504L93.954,549.446L101.25,549.661L106.251,548.749L109.605,545.478L113.547,545.638L116.136,543.762L119.843,537.758L124.609,533.311L125.492,528.329L120.667,518.799L119.431,512.324L117.431,508.473L112.194,509.382L110.37,508.259L111.841,503.553L110.488,495.482L106.428,493.077L104.192,492.49L98.603,493.238L92.954,491.314L90.483,488.27L90.189,479.673L92.483,477.645L92.836,473.109L96.014,476.418L96.779,473.643L101.25,469.002L110.252,466.015L113.253,459.724L116.019,460.15L120.784,457.166L123.962,458.445L132.729,457.325L135.906,455.034L141.025,448.109L146.32,443.103L148.968,442.145L157.794,442.837L161.677,442.038L171.738,436.024L178.328,434.428L184.8,434.162L195.45,431.555L194.803,435.598L192.331,434.854L193.038,438.313L195.744,437.94L202.157,433.577L204.982,430.597L210.865,428.842L215.69,430.066L218.279,428.523L221.986,429.693L226.693,427.3L230.576,429.002L233.165,427.353L234.695,421.558L238.813,419.697L244.344,419.538L247.933,422.674L245.815,424.907L253.229,422.674L258.407,419.963L261.348,420.335L266.526,417.412L263.761,415.18L259.583,414.171L259.76,410.081L267.409,405.195L276.999,402.116L282.354,402.541L282.765,407.584L286.531,408.487L286.766,410.877L297.71,410.399L303.653,407.744L304.771,402.487L306.536,401.214L311.478,402.912L315.126,405.938L325.776,405.514L329.483,400.523L339.662,389.965L344.31,390.018L349.311,397.286L352.783,397.817L358.49,394.899L364.021,386.572L364.609,381.27L362.55,378.038L363.844,373.958L367.786,370.357L368.257,376.183L373.14,381.27L373.964,384.345L381.966,393.148L384.967,394.686L390.027,391.079L391.027,386.094L401.736,381.535L403.383,378.25L409.914,375.389L413.68,375.23L412.444,372.157L412.444,368.821L410.561,365.803L410.914,362.415ZM743.937,245.072L739.936,242.87L736.288,244.863L736.994,246.803L744.173,247.223L746.408,248.64L749.409,247.8L753.469,249.689L755.234,248.64L755.234,242.975L753.94,240.72L750.527,243.027L747.173,241.664L744.408,244.548ZM345.487,407.213L347.664,404.133L344.251,403.761L338.72,407.266L333.131,409.178L331.365,413.055L334.131,414.277L338.485,413.799L333.778,419.325L338.014,424.056L342.015,421.558L340.25,419.591L342.427,415.287L340.838,412.365L343.545,407.584ZM314.655,422.196L317.774,421.451L318.539,418.741L323.305,420.016L327.541,416.562L325.011,413.693L327.6,412.63L327.365,409.709L320.539,411.727L317.48,414.277L318.48,416.243L315.067,417.89ZM477.107,380.846L484.756,378.462L483.932,377.614L477.931,379.045ZM114.312,461.59L119.667,464.682L121.491,464.522L124.962,469.962L128.551,468.895L133.317,457.805L129.198,459.351L123.079,459.777L120.608,457.592L115.43,460.31L114.136,460.683ZM305.536,414.543L307.536,415.977L307.772,412.046ZM122.373,470.388L116.842,471.936L110.959,468.735L106.605,470.335L102.133,469.535L99.25,474.763L93.072,479.193L92.13,483.837L102.486,481.435L106.134,479.406L111.841,478.873L118.078,479.566L121.785,485.92L124.079,485.332L124.432,479.139L126.433,472.096ZM432.567,386.041L433.449,382.596L430.331,383.232ZM428.566,389.859L430.449,387.155L428.154,387.049ZM373.14,398.507L374.964,396.384L378.965,395.694L375.494,394.209L372.552,394.952ZM437.803,344.591L437.215,342.318L434.626,342.899ZM473.165,383.709L476.931,382.861L472.282,381.482ZM469.694,384.822L471.4,382.384L466.869,383.815ZM719.578,499.757L718.755,501.789L729.404,502.965L731.052,508.205L727.168,513.448L717.637,516.07L722.108,517.836L728.463,517.247L732.523,514.304L735.288,508.847L734.464,504.034L730.699,499.383L724.403,498.902ZM361.902,396.968L363.844,393.625L360.196,394.899ZM111.606,508.687L114.724,508.74L112.488,505.638ZM134.494,484.104L128.728,482.823L125.315,486.667L126.668,491.208L131.317,491.314L134.67,485.866ZM126.08,542.207L129.61,539.045L128.904,537.062ZM640.618,468.628L641.618,471.829L645.031,474.55L649.914,475.991L652.503,474.07L650.267,467.402L648.384,466.068L642.736,466.122ZM639.029,479.727L640.265,483.143L643.207,485.653L645.972,485.332L646.149,482.876L641.677,477.965ZM630.262,313.389L630.262,313.442L630.321,313.389ZM630.262,313.337L630.262,313.389L630.321,313.389Z" fill="#e6f4ea" stroke="#137333" stroke-width="4" stroke-linejoin="round" stroke-linecap="round" />
  
  <!-- 内发光描边 -->
  <path d="M412.856,362.151L416.269,360.563L416.386,353.368L418.504,352.31L417.269,349.983L419.446,349.084L423.447,342.635L423.094,340.521L419.152,340.099L417.622,343.375L414.268,343.111L419.799,336.982L423.329,336.506L425.565,333.231L430.213,331.383L427.977,320.774L424.271,313.073L429.566,312.071L431.92,317.134L432.626,318.822L436.215,325.734L441.334,330.855L442.569,338.514L444.864,340.151L450.512,335.925L450.689,335.503L452.748,333.654L458.044,334.288L462.868,333.496L464.104,331.383L469.988,330.486L470.87,329.007L476.283,329.588L477.225,330.855L483.167,328.585L485.756,326.315L491.464,324.943L495.818,326.157L500.113,332.545L500.525,338.566L503.408,340.521L507.468,337.932L513.41,336.4L515.058,333.337L513.704,330.327L509.292,328.849L508.409,326.684L512.645,321.407L510.409,319.244L504.231,319.824L509.174,316.923L511.527,316.501L512.469,312.598L520.883,309.119L522.824,307.169L526.649,309.435L525.237,313.231L524.589,320.194L526.06,321.988L526.296,326.843L537.769,325.893L539.593,330.961L543.123,329.958L543.653,323.043L545.3,320.774L554.302,314.233L552.773,313.073L555.656,311.017L557.833,307.116L565.305,305.851L568.777,308.539L568.718,304.217L573.131,303.585L572.542,308.223L581.015,307.59L582.839,308.223L583.898,314.391L586.958,317.081L591.665,317.081L595.607,315.763L605.492,320.246L604.55,317.081L608.728,310.49L602.255,310.279L605.021,307.274L606.315,303.269L613.023,299.739L617.024,301.899L623.143,302.689L625.85,305.061L626.614,311.808L629.733,312.229L634.911,307.379L639.5,305.746L642.736,305.956L645.796,303.427L651.444,301.741L656.033,304.428L659.564,302.637L668.919,294.42L670.802,293.367L674.979,291.524L682.628,294.631L689.041,292.946L694.337,293.525L698.044,287.208L701.162,285.524L699.279,281.526L700.162,278.423L698.691,276.425L700.162,274.059L709.635,271.798L713.047,267.962L717.225,266.333L723.109,267.699L724.521,263.917L722.344,263.496L720.814,256.932L729.345,247.171L729.287,247.118L729.581,244.181L729.64,244.128L731.64,241.401L730.934,238.99L734.759,236.264L738.112,238.465L742.584,238.885L745.879,235.32L749.762,235.635L760,233.224L760,226.78L755.646,224.423L753.41,225.052L746.879,220.601L746.173,214.426L743.408,210.293L742.761,205.22L739.819,205.168L737.347,198.791L739.348,197.902L739.819,191.425L737.112,190.589L734.935,185.211L735.347,179.262L741.466,174.254L737.406,170.656L735.229,170.344L735.7,164.506L733.405,163.88L733.876,160.702L731.64,157.889L732.405,156.067L726.227,149.143L728.286,147.425L725.639,143.939L722.167,143.419L718.578,139.258L718.755,135.671L723.932,128.81L720.343,126.472L709.811,128.446L705.575,130.057L703.457,128.862L700.574,131.98L696.69,133.591L694.455,132.032L695.514,129.07L692.395,122.577L688.688,123.148L685.805,120.292L686.1,118.06L681.922,114.583L682.51,112.559L685.982,111.054L683.805,107.527L680.804,108.149L679.098,112.196L674.45,114.79L669.39,115.569L670.037,112.559L667.213,112.092L664.388,107.579L660.682,110.484L652.562,110.172L647.502,104.83L644.678,105.453L637.264,103.171L635.793,101.875L635.087,105.504L637.205,107.32L632.851,108.875L633.028,106.23L629.262,104.519L627.673,108.979L626.026,109.602L623.555,115.724L624.732,117.385L622.79,119.825L624.025,123.72L627.085,123.979L625.085,128.031L626.732,131.304L630.851,135.566L631.145,137.646L625.555,137.178L622.437,139.206L616.377,139.31L614.67,133.591L608.375,131.616L604.962,131.928L603.609,126.057L600.49,124.239L596.077,118.527L589.958,115.62L586.134,117.385L584.781,121.123L579.838,118.891L576.308,119.773L575.249,121.746L568.129,123.408L560.539,127.563L558.539,124.55L556.009,124.187L552.89,127.459L550.89,126.472L544.83,129.278L541.888,128.187L540.358,135.722L538.004,137.646L535.886,133.799L534.062,135.203L529.649,132.812L524.707,133.227L525.531,137.386L522.353,141.13L518.529,135.618L514.94,136.294L511.351,140.038L506.055,137.958L495.994,144.928L493.523,143.835L492.405,137.542L489.757,135.722L483.756,136.086L482.697,132.24L479.696,130.109L473.224,128.654L471.164,125.485L481.049,124.447L481.932,122.214L487.11,119.825L487.698,114.271L491.169,109.083L493.523,107.527L492.817,100.528L498.465,98.04L498.583,96.174L503.349,95.863L505.879,93.688L508.644,88.457L512.763,87.835L516.176,88.767L518.529,86.179L525.295,84.211L525.237,80.951L520.53,79.295L521.294,75.415L525.237,74.278L526.002,69.624L523.236,65.696L515.823,64.869L512.292,58.98L506.703,56.036L500.642,60.374L496.936,59.909L496.112,63.009L491.581,65.541L485.109,63.526L483.226,67.195L479.873,67.97L474.577,67.246L473.165,65.592L466.046,66.988L462.986,69.521L460.338,69.314L458.809,71.899L456.69,69.676L457.808,64.507L459.809,61.046L453.395,56.191L455.337,53.558L449.747,53.661L444.217,54.126L443.275,59.496L439.686,61.149L437.333,64.456L432.508,63.991L431.449,61.201L425.094,62.234L424.447,63.887L417.916,64.559L415.327,66.574L414.798,62.957L410.679,60.633L405.325,60.013L402.442,61.511L398.382,57.482L395.146,57.379L392.145,52.99L389.497,53.558L389.203,49.016L383.261,46.745L381.084,47.158L376.377,50.822L370.787,53.3L372.023,56.243L368.728,56.449L366.963,59.341L360.726,62.182L356.607,62.389L353.253,64.714L352.253,67.505L349.076,63.371L345.604,63.577L346.781,72.002L349.723,73.088L355.489,71.537L358.784,72.209L362.785,76.916L357.019,79.761L356.43,82.296L359.902,87.318L357.49,92.6L360.431,97.988L358.961,102.808L353.9,103.897L350.37,103.327L347.428,105.712L338.544,105.712L338.308,100.838L334.955,99.698L334.837,95.967L332.248,93.377L332.013,87.887L327.012,83.176L323.952,82.4L317.715,83.953L307.713,81.313L306.301,78.105L303.594,82.245L298.828,77.536L294.121,79.088L292.886,80.848L288.414,80.641L287.531,78.157L281.824,78.416L280.883,85.661L278.47,90.528L278.823,93.325L275.587,96.848L275.411,99.335L280.706,102.757L279.941,109.239L278.235,111.417L275.823,111.002L267.173,117.697L266.291,120.656L260.289,122.473L258.171,125.797L259.524,129.538L257.053,131.252L257.936,134.475L261.29,136.086L264.643,140.298L264.879,143.315L262.525,146.697L266.35,149.455L269.468,154.4L269.645,158.931L266.467,163.203L263.055,164.662L262.643,166.851L259.995,166.173L255.641,170.187L252.228,169.666L251.64,174.515L253.111,175.715L252.346,180.88L256.465,190.224L258.289,192.522L255.523,196.753L250.051,196.387L249.228,200.515L246.05,202.136L247.227,207.364L245.874,209.822L237.46,208.253L233.695,208.305L233.695,208.305L230.988,207.312L228.399,211.548L227.811,217.565L232.106,218.246L227.164,223.952L227.222,225.837L221.515,225.68L214.984,227.042L214.278,236.002L209.394,242.345L206.629,242.083L205.04,248.745L205.629,251.001L203.158,254.36L204.393,257.825L202.157,259.715L203.275,263.969L205.57,266.806L205.158,270.905L203.393,273.06L204.511,279.054L206.864,280.579L209.806,279.896L209.865,283.42L205.629,286.366L206.982,287.735L203.099,289.998L204.217,292.788L202.687,297.474L189.272,310.964L186.153,312.124L179.74,311.28L173.974,312.704L176.975,315.974L173.739,320.457L168.149,322.093L164.501,321.618L163.677,324.098L158.5,323.834L158.676,325.893L150.498,327.371L147.262,326.526L144.496,329.218L145.791,332.915L143.614,334.763L143.731,338.091L138.671,336.77L140.966,340.31L140.848,347.128L143.731,347.868L144.496,350.935L148.085,355.431L145.438,356.171L142.201,354.161L138.612,358.552L134.67,361.357L137.73,365.909L133.023,368.185L130.081,366.862L130.493,364.903L126.198,363.686L121.196,368.768L116.548,364.321L112.488,362.521L109.017,366.703L106.193,363.738L104.075,367.868L107.722,370.41L106.487,373.111L107.252,380.899L106.605,384.716L108.723,385.511L108.723,385.511L109.076,388.162L109.076,388.162L110.311,392.564L105.134,393.148L100.662,390.284L100.015,392.724L94.307,393.678L94.307,393.678L93.189,393.307L93.189,393.307L91.66,391.981L85.188,391.716L82.599,394.846L77.774,396.066L72.89,393.731L67.654,397.286L67.183,404.452L64.888,414.065L62.241,415.659L62.241,415.659L57.593,417.146L52.474,417.04L51.709,413.905L48.355,419.06L49.473,424.801L52.709,431.076L52.415,434.321L55.651,435.439L62.829,435.705L63.77,436.876L60.358,442.997L51.003,443.582L49.767,444.807L50.355,456.313L41.824,464.895L41.765,471.455L40,484.692L40.883,491.101L45.354,499.49L47.119,504.729L48.531,514.143L53.18,514.678L55.121,518.585L54.945,521.743L57.593,526.722L62.241,528.061L62.947,532.614L60.005,535.079L59.652,537.49L64.888,543.226L64.241,550.841L66.124,553.255L72.302,549.178L80.775,548.749L84.187,552.504L89.012,552.504L93.954,549.446L101.25,549.661L106.251,548.749L109.605,545.478L113.547,545.638L116.136,543.762L119.843,537.758L124.609,533.311L125.492,528.329L120.667,518.799L119.431,512.324L117.431,508.473L112.194,509.382L110.37,508.259L111.841,503.553L110.488,495.482L106.428,493.077L104.192,492.49L98.603,493.238L92.954,491.314L90.483,488.27L90.189,479.673L92.483,477.645L92.836,473.109L96.014,476.418L96.779,473.643L101.25,469.002L110.252,466.015L113.253,459.724L116.019,460.15L120.784,457.166L123.962,458.445L132.729,457.325L135.906,455.034L141.025,448.109L146.32,443.103L148.968,442.145L157.794,442.837L161.677,442.038L171.738,436.024L178.328,434.428L184.8,434.162L195.45,431.555L194.803,435.598L192.331,434.854L193.038,438.313L195.744,437.94L202.157,433.577L204.982,430.597L210.865,428.842L215.69,430.066L218.279,428.523L221.986,429.693L226.693,427.3L230.576,429.002L233.165,427.353L234.695,421.558L238.813,419.697L244.344,419.538L247.933,422.674L245.815,424.907L253.229,422.674L258.407,419.963L261.348,420.335L266.526,417.412L263.761,415.18L259.583,414.171L259.76,410.081L267.409,405.195L276.999,402.116L282.354,402.541L282.765,407.584L286.531,408.487L286.766,410.877L297.71,410.399L303.653,407.744L304.771,402.487L306.536,401.214L311.478,402.912L315.126,405.938L325.776,405.514L329.483,400.523L339.662,389.965L344.31,390.018L349.311,397.286L352.783,397.817L358.49,394.899L364.021,386.572L364.609,381.27L362.55,378.038L363.844,373.958L367.786,370.357L368.257,376.183L373.14,381.27L373.964,384.345L381.966,393.148L384.967,394.686L390.027,391.079L391.027,386.094L401.736,381.535L403.383,378.25L409.914,375.389L413.68,375.23L412.444,372.157L412.444,368.821L410.561,365.803L410.914,362.415ZM743.937,245.072L739.936,242.87L736.288,244.863L736.994,246.803L744.173,247.223L746.408,248.64L749.409,247.8L753.469,249.689L755.234,248.64L755.234,242.975L753.94,240.72L750.527,243.027L747.173,241.664L744.408,244.548ZM345.487,407.213L347.664,404.133L344.251,403.761L338.72,407.266L333.131,409.178L331.365,413.055L334.131,414.277L338.485,413.799L333.778,419.325L338.014,424.056L342.015,421.558L340.25,419.591L342.427,415.287L340.838,412.365L343.545,407.584ZM314.655,422.196L317.774,421.451L318.539,418.741L323.305,420.016L327.541,416.562L325.011,413.693L327.6,412.63L327.365,409.709L320.539,411.727L317.48,414.277L318.48,416.243L315.067,417.89ZM477.107,380.846L484.756,378.462L483.932,377.614L477.931,379.045ZM114.312,461.59L119.667,464.682L121.491,464.522L124.962,469.962L128.551,468.895L133.317,457.805L129.198,459.351L123.079,459.777L120.608,457.592L115.43,460.31L114.136,460.683ZM305.536,414.543L307.536,415.977L307.772,412.046ZM122.373,470.388L116.842,471.936L110.959,468.735L106.605,470.335L102.133,469.535L99.25,474.763L93.072,479.193L92.13,483.837L102.486,481.435L106.134,479.406L111.841,478.873L118.078,479.566L121.785,485.92L124.079,485.332L124.432,479.139L126.433,472.096ZM432.567,386.041L433.449,382.596L430.331,383.232ZM428.566,389.859L430.449,387.155L428.154,387.049ZM373.14,398.507L374.964,396.384L378.965,395.694L375.494,394.209L372.552,394.952ZM437.803,344.591L437.215,342.318L434.626,342.899ZM473.165,383.709L476.931,382.861L472.282,381.482ZM469.694,384.822L471.4,382.384L466.869,383.815ZM719.578,499.757L718.755,501.789L729.404,502.965L731.052,508.205L727.168,513.448L717.637,516.07L722.108,517.836L728.463,517.247L732.523,514.304L735.288,508.847L734.464,504.034L730.699,499.383L724.403,498.902ZM361.902,396.968L363.844,393.625L360.196,394.899ZM111.606,508.687L114.724,508.74L112.488,505.638ZM134.494,484.104L128.728,482.823L125.315,486.667L126.668,491.208L131.317,491.314L134.67,485.866ZM126.08,542.207L129.61,539.045L128.904,537.062ZM640.618,468.628L641.618,471.829L645.031,474.55L649.914,475.991L652.503,474.07L650.267,467.402L648.384,466.068L642.736,466.122ZM639.029,479.727L640.265,483.143L643.207,485.653L645.972,485.332L646.149,482.876L641.677,477.965ZM630.262,313.389L630.262,313.442L630.321,313.389ZM630.262,313.337L630.262,313.389L630.321,313.389Z" fill="none" stroke="#2e7d32" stroke-width="1.5" stroke-linejoin="round" stroke-linecap="round" opacity="0.6" />
</svg>