<svg xmlns="http://www.w3.org/2000/svg" width="800" height="600" viewBox="0 0 800 600">
  <!-- 背景色，采用淡米黄色 -->
  <rect width="100%" height="100%" fill="#f5f2eb" />
  
  <!-- 阴影层 -->
  <path d="M514.884,78.439L514.005,80.639L507.854,84.374L510.373,87.599L506.74,90.773L503.167,96.868L501.292,97.021L500.179,103.94L501.351,106.811L497.191,108.452L488.696,105.991L488.638,101.428L483.072,105.837L481.549,103.837L482.662,100.762L478.034,99.788L476.394,102.505L473.582,101.172L468.016,102.3L468.954,103.581L465.556,106.709L463.329,105.991L459.111,108.452L459.522,111.478L464.618,111.068L464.618,111.068L469.715,106.504L473.113,106.145L476.511,107.837L476.159,110.401L471.941,116.507L473.933,122.462L477.39,124.002L471.356,127.649L464.15,123.386L458.467,124.721L458.584,123.489L452.491,124.054L451.378,126.262L448.215,123.643L449.972,121.537L448.449,116.609L442.825,115.994L439.427,117.123L439.134,120.511L436.732,120.767L436.498,124.054L439.427,125.646L434.272,126.878L431.635,129.601L430.991,135.254L433.803,144.46L433.334,147.084L429.937,144.511L429.585,141.579L418.747,132.736L413.709,134.226L411.951,129.653L408.085,127.546L407.03,125.389L403.222,126.365L400.586,130.732L396.836,132.427L397.832,135.46L392.208,132.736L389.338,134.072L392.267,137.825L387.463,139.213L388.342,145.54L387.522,150.738L384.827,156.402L381.546,157.947L374.047,157.689L367.076,161.553L361.744,162.944L358.581,165.366L351.316,164.49L353.836,161.656L351.082,158.462L351.258,154.599L349.325,153.518L345.399,157.895L344.989,155.475L341.709,151.768L341.533,146.312L338.897,146.878L335.792,152.54L333.624,151.974L327.531,156.505L323.665,156.041L325.364,150.069L324.544,147.856L319.915,148.885L317.689,143.379L318.802,139.008L314.526,137.208L312.885,138.956L309.019,138.185L308.081,135.203L310.776,132.53L303.863,124.721L300.875,123.437L300.524,118.868L298.298,118.56L296.423,121.332L284.882,123.18L285.116,127.957L280.254,129.242L278.438,134.278L275.333,134.74L277.618,142.248L279.961,142.814L280.078,150.172L276.446,154.239L272.404,152.54L269.65,154.342L268.127,159.08L264.788,158.616L258.578,160.11L256.41,158.977L253.305,160.935L249.38,159.338L244.986,160.728L244.517,163.769L239.831,168.047L236.081,168.511L233.094,171.243L226.474,173.203L225.712,174.544L215.284,177.484L212.648,178.877L207.785,179.136L204.153,178.104L201.868,180.838L197.474,180.735L202.454,187.24L203.274,190.545L200.111,199.174L197.943,198.967L194.487,203.568L188.159,206.412L185.992,211.275L180.016,207.033L178.142,202.534L170.701,202.12L167.245,204.654L161.504,203.103L155.645,198.398L147.268,197.158L146.33,195.039L143.05,195.659L135.844,194.523L135.434,192.249L132.036,188.634L129.282,182.955L123.307,181.767L120.319,183.367L113.992,183.109L112.469,179.497L108.778,176.814L105.497,177.794L103.505,180.322L101.045,180.219L97.647,183.161L97.705,183.213L96.358,184.4L95.948,184.142L92.257,188.479L91.085,193.903L91.73,196.59L78.958,199.897L75.795,202.017L73.51,207.188L66.832,208.74L62.789,212.724L60.329,210.085L53.24,208.637L50.076,204.033L43.808,201.914L40,209.361L42.929,220.592L45.741,222.146L48.202,231.109L52.068,231.368L53.357,233.649L51.541,235.619L54.47,236.5L60.856,240.96L62.028,239.145L60.329,231.575L61.5,229.502L64.605,230.072L66.246,227.792L68.062,229.295L72.983,229.036L80.365,230.953L81.888,232.404L86.633,232.249L92.609,229.45L98.701,232.042L99.17,236.085L101.748,235.67L106.434,238.471L107.255,240.441L104.208,244.073L109.012,251.079L111.649,251.65L110.36,255.752L105.907,255.596L107.606,261.466L113.289,265.675L116.394,264.376L114.519,262.661L119.03,260.427L120.319,262.505L126.177,265.26L127.173,267.339L135.434,269.886L139.3,259.128L145.1,258.401L148.322,259.44L150.314,268.379L155.528,265.156L158.867,265.831L161.328,264.48L164.843,266.559L164.316,269.262L168.592,268.586L170.291,266.091L173.396,267.651L174.919,264.896L174.334,262.038L175.974,259.855L180.192,260.947L183.473,260.011L184.762,262.038L188.394,262.973L188.745,266.611L192.846,269.782L192.319,271.602L195.834,275.607L198.646,281.851L201.985,282.996L200.111,284.661L201.927,288.15L196.654,290.962L198.646,297.734L197.884,303.312L195.131,309.048L197.123,312.439L191.85,316.77L190.503,319.484L187.456,320.528L183.648,324.026L182.36,320.058L177.556,318.231L175.388,319.119L173.396,316.665L169.588,316.509L166.132,318.388L165.194,322.147L160.683,322.878L155.118,328.414L149.201,328.153L154.591,332.071L155.118,335.468L150.314,333.691L144.983,336.88L141.819,342.16L138.597,344.305L140.179,349.065L141.702,349.693L143.225,360.32L148.029,360.477L150.256,359.116L157.461,360.687L159.102,363.672L162.734,364.458L165.194,367.13L168.358,367.812L172.166,374.521L173.572,372.633L179.782,371.48L183.121,372.529L185.523,367.497L191.85,366.973L193.784,368.44L198.295,367.707L203.333,368.65L209.367,375.412L208.195,377.09L210.949,379.24L218.506,380.132L218.975,378.191L223.017,378.296L231.629,375.15L233.679,371.69L237.136,373.892L241.295,373.682L243.697,377.929L246.158,379.607L247.857,376.933L251.84,377.877L251.137,379.345L257.347,384.434L257.465,384.329L257.699,384.276L257.757,384.329L257.816,384.381L257.933,384.381L258.285,384.434L259.398,384.486L259.925,384.171L260.159,384.066L260.57,383.961L261.038,383.961L263.44,385.326L261.741,388.632L256.762,391.414L257.875,394.302L255.59,396.14L251.372,407.015L245.513,407.015L242.057,404.44L239.303,412.535L239.596,416.742L236.96,418.373L239.655,426.108L237.194,428.846L246.744,430.267L247.388,434.796L249.146,436.956L250.435,442.014L247.681,444.386L250.845,446.442L249.439,448.867L251.723,453.191L250.845,459.68L248.618,461.738L250.083,465.539L253.891,460.947L258.812,461.263L259.984,463.48L265.373,463.058L271.759,464.8L272.638,468.02L276.329,469.023L278.731,466.7L284.472,469.816L284.355,472.456L280.547,475.097L280.488,478.902L287.694,480.434L292.908,484.663L297.302,486.778L297.712,488.47L301.813,489.951L304.625,487.677L308.316,487.042L312.709,493.336L313.354,499.579L315.697,500.32L319.798,495.769L324.192,494.076L326.418,498.468L325.071,500.161L330.812,501.061L334.386,498.362L336.143,500.003L346.571,498.203L355.593,494.5L358.464,495.928L360.924,494.923L363.619,497.621L363.795,500.109L367.134,501.114L369.888,506.037L377.152,504.926L384.182,508.473L392.325,507.414L388.752,504.449L393.439,500.003L396.836,499.791L397.657,503.443L393.907,508.738L395.782,510.115L405.273,505.455L411.717,506.143L420.739,504.079L430.171,492.436L433.452,492.172L436.557,495.611L438.373,494.129L443.88,497.092L443.704,497.251L444.817,499.526L450.148,497.251L453.136,498.733L457.705,497.198L463.095,500.744L477.917,501.749L478.386,502.49L479.499,502.808L482.194,502.861L482.545,508.156L476.101,510.274L472.762,513.293L473.406,516.472L478.034,516.949L482.194,519.864L486.705,519.652L492.387,516.366L508.674,515.095L515.118,513.717L519.395,515.254L520.449,512.499L523.847,509.903L526.483,507.044L527.245,503.867L531.287,509.903L535.974,512.817L543.707,513.399L544,510.168L540.778,503.92L539.665,498.203L543.004,493.071L543.766,496.193L548.863,496.298L553.491,494.817L553.491,494.817L556.127,493.23L558.412,483.658L558.88,476.524L564.094,472.984L568.957,475.309L573.761,474.094L576.338,470.977L582.783,471.241L584.306,472.562L584.306,472.562L585.419,472.932L585.419,472.932L591.102,471.981L591.746,469.551L596.199,472.403L601.354,471.822L600.124,467.439L600.124,467.439L599.772,464.8L599.772,464.8L597.663,464.008L598.308,460.208L597.546,452.453L598.776,449.763L595.144,447.232L597.253,443.121L600.065,446.073L603.522,441.909L607.564,443.701L612.192,448.129L617.172,443.068L621.448,444.28L621.038,446.231L623.967,447.549L628.654,445.282L625.608,440.749L629.533,437.957L633.107,433.585L636.329,435.586L638.965,434.849L635.391,430.373L634.63,427.319L631.759,426.582L631.876,419.793L629.592,416.269L634.63,417.584L634.513,414.27L636.68,412.43L635.391,408.75L638.145,406.069L641.367,406.91L649.51,405.438L649.334,403.389L654.49,403.652L655.31,401.182L658.942,401.655L664.508,400.026L667.73,395.562L664.742,392.306L670.483,390.889L676.869,391.729L679.974,390.574L693.331,377.142L694.854,372.476L693.741,369.698L697.608,367.445L696.26,366.082L700.478,363.149L700.42,359.639L697.491,360.32L695.147,358.802L694.034,352.833L695.792,350.688L696.202,346.606L693.917,343.782L692.804,339.546L695.03,337.664L693.8,334.214L696.26,330.869L695.675,328.623L697.256,321.99L700.01,322.251L704.872,315.935L705.575,307.014L712.078,305.658L717.761,305.814L717.702,303.937L722.623,298.256L718.347,297.578L718.932,291.587L721.51,287.369L724.205,288.358L724.205,288.358L727.954,288.306L736.332,289.868L737.679,287.421L736.508,282.215L739.671,280.602L740.491,276.491L745.94,276.855L748.693,272.642L746.877,270.354L742.776,261.05L743.538,255.908L742.073,254.713L742.659,249.885L746.057,250.404L750.392,246.408L753.028,247.082L753.439,244.903L756.836,243.45L760,239.197L759.824,234.685L756.719,229.761L752.911,227.015L755.255,223.648L755.02,220.644L751.681,216.45L748.342,214.846L747.463,211.637L749.923,209.93L748.576,206.206L750.685,202.896L756.661,201.086L749.689,198.295L747.639,199.587L742.483,199.536L741.839,198.088L736.683,198.243L733.754,196.745L726.607,196.486L722.623,199.122L719.87,203.465L720.28,206.361L715.242,205.792L713.484,210.189L709.325,210.861L706.688,207.964L702.177,208.171L700.244,206.102L703.115,202.172L704.814,195.659L701.943,189.977L701.767,186.568L703.935,183.161L700.596,180.993L700.42,178.31L702.998,177.072L703.701,174.286L698.838,171.862L700.654,167.48L694.913,164.181L694.21,166.036L689.816,166.397L685.364,162.017L680.325,166.242L678.334,169.284L672.534,172.378L668.902,173.048L668.784,181.561L660.114,183.884L656.247,178.723L654.607,172.223L657.712,166.706L659.118,161.038L669.956,155.732L669.077,149.245L672.417,147.496L676.81,141.476L679.271,141.836L685.774,136.128L690.461,126.776L690.109,122.718L691.867,119.073L688.703,115.019L688.586,107.888L697.256,105.581L701.299,102.966L700.42,95.894L705.458,94.665L702.998,92.207L695.675,92.514L695.03,90.21L692.159,90.158L687.473,93.231L687.004,95.126L683.138,94.153L681.146,89.237L677.279,85.705L681.614,76.7L684.661,75.678L682.493,73.837L684.544,72.15L683.782,66.835L685.364,63.821L685.071,60.603L687.121,60.143L685.657,55.395L680.911,56.416L678.685,54.987L679.095,52.333L667.847,51.976L659.997,49.221L660.055,47.13L656.775,44.58L653.963,45.753L653.904,50.19L652.205,50.803L653.494,54.017L643.652,56.927L636.329,57.641L634.044,55.497L634.688,51.415L632.697,53.303L628.185,51.109L625.315,51.925L622.327,49.527L619.691,53.048L616.703,54.324L616.117,59.071L611.196,65.455L609.556,64.178L605.748,66.63L599.596,72.814L595.085,83.606L588.583,84.937L587.88,80.23L581.377,75.524L580.146,78.542L573.702,79.36L570.304,76.496L573.702,68.674L573.526,65.2L566.965,65.455L561.282,62.697L555.014,68.368L554.487,72.201L551.206,78.644L546.461,77.365L543.414,81.56L545.699,83.76L547.574,89.698L546.168,92.924L543.121,93.999L542.067,91.694L534.158,92.667L533.631,88.725L534.978,85.142L536.618,85.602L538.434,82.225L530.76,79.667L529.413,76.752L524.96,79.411L522.265,79.258L517.813,81.457ZM97.705,183.213L97.647,183.161L95.948,184.142L96.358,184.4ZM477.39,555.42L479.674,554.464L480.202,555.155L482.721,552.923L482.194,550.426L477.8,551.382L477.448,553.879Z" fill="#d1e7dd" opacity="0.3" transform="translate(5, 8)" />
  
  <!-- 填充与主轮廓 -->
  <path d="M514.884,78.439L514.005,80.639L507.854,84.374L510.373,87.599L506.74,90.773L503.167,96.868L501.292,97.021L500.179,103.94L501.351,106.811L497.191,108.452L488.696,105.991L488.638,101.428L483.072,105.837L481.549,103.837L482.662,100.762L478.034,99.788L476.394,102.505L473.582,101.172L468.016,102.3L468.954,103.581L465.556,106.709L463.329,105.991L459.111,108.452L459.522,111.478L464.618,111.068L464.618,111.068L469.715,106.504L473.113,106.145L476.511,107.837L476.159,110.401L471.941,116.507L473.933,122.462L477.39,124.002L471.356,127.649L464.15,123.386L458.467,124.721L458.584,123.489L452.491,124.054L451.378,126.262L448.215,123.643L449.972,121.537L448.449,116.609L442.825,115.994L439.427,117.123L439.134,120.511L436.732,120.767L436.498,124.054L439.427,125.646L434.272,126.878L431.635,129.601L430.991,135.254L433.803,144.46L433.334,147.084L429.937,144.511L429.585,141.579L418.747,132.736L413.709,134.226L411.951,129.653L408.085,127.546L407.03,125.389L403.222,126.365L400.586,130.732L396.836,132.427L397.832,135.46L392.208,132.736L389.338,134.072L392.267,137.825L387.463,139.213L388.342,145.54L387.522,150.738L384.827,156.402L381.546,157.947L374.047,157.689L367.076,161.553L361.744,162.944L358.581,165.366L351.316,164.49L353.836,161.656L351.082,158.462L351.258,154.599L349.325,153.518L345.399,157.895L344.989,155.475L341.709,151.768L341.533,146.312L338.897,146.878L335.792,152.54L333.624,151.974L327.531,156.505L323.665,156.041L325.364,150.069L324.544,147.856L319.915,148.885L317.689,143.379L318.802,139.008L314.526,137.208L312.885,138.956L309.019,138.185L308.081,135.203L310.776,132.53L303.863,124.721L300.875,123.437L300.524,118.868L298.298,118.56L296.423,121.332L284.882,123.18L285.116,127.957L280.254,129.242L278.438,134.278L275.333,134.74L277.618,142.248L279.961,142.814L280.078,150.172L276.446,154.239L272.404,152.54L269.65,154.342L268.127,159.08L264.788,158.616L258.578,160.11L256.41,158.977L253.305,160.935L249.38,159.338L244.986,160.728L244.517,163.769L239.831,168.047L236.081,168.511L233.094,171.243L226.474,173.203L225.712,174.544L215.284,177.484L212.648,178.877L207.785,179.136L204.153,178.104L201.868,180.838L197.474,180.735L202.454,187.24L203.274,190.545L200.111,199.174L197.943,198.967L194.487,203.568L188.159,206.412L185.992,211.275L180.016,207.033L178.142,202.534L170.701,202.12L167.245,204.654L161.504,203.103L155.645,198.398L147.268,197.158L146.33,195.039L143.05,195.659L135.844,194.523L135.434,192.249L132.036,188.634L129.282,182.955L123.307,181.767L120.319,183.367L113.992,183.109L112.469,179.497L108.778,176.814L105.497,177.794L103.505,180.322L101.045,180.219L97.647,183.161L97.705,183.213L96.358,184.4L95.948,184.142L92.257,188.479L91.085,193.903L91.73,196.59L78.958,199.897L75.795,202.017L73.51,207.188L66.832,208.74L62.789,212.724L60.329,210.085L53.24,208.637L50.076,204.033L43.808,201.914L40,209.361L42.929,220.592L45.741,222.146L48.202,231.109L52.068,231.368L53.357,233.649L51.541,235.619L54.47,236.5L60.856,240.96L62.028,239.145L60.329,231.575L61.5,229.502L64.605,230.072L66.246,227.792L68.062,229.295L72.983,229.036L80.365,230.953L81.888,232.404L86.633,232.249L92.609,229.45L98.701,232.042L99.17,236.085L101.748,235.67L106.434,238.471L107.255,240.441L104.208,244.073L109.012,251.079L111.649,251.65L110.36,255.752L105.907,255.596L107.606,261.466L113.289,265.675L116.394,264.376L114.519,262.661L119.03,260.427L120.319,262.505L126.177,265.26L127.173,267.339L135.434,269.886L139.3,259.128L145.1,258.401L148.322,259.44L150.314,268.379L155.528,265.156L158.867,265.831L161.328,264.48L164.843,266.559L164.316,269.262L168.592,268.586L170.291,266.091L173.396,267.651L174.919,264.896L174.334,262.038L175.974,259.855L180.192,260.947L183.473,260.011L184.762,262.038L188.394,262.973L188.745,266.611L192.846,269.782L192.319,271.602L195.834,275.607L198.646,281.851L201.985,282.996L200.111,284.661L201.927,288.15L196.654,290.962L198.646,297.734L197.884,303.312L195.131,309.048L197.123,312.439L191.85,316.77L190.503,319.484L187.456,320.528L183.648,324.026L182.36,320.058L177.556,318.231L175.388,319.119L173.396,316.665L169.588,316.509L166.132,318.388L165.194,322.147L160.683,322.878L155.118,328.414L149.201,328.153L154.591,332.071L155.118,335.468L150.314,333.691L144.983,336.88L141.819,342.16L138.597,344.305L140.179,349.065L141.702,349.693L143.225,360.32L148.029,360.477L150.256,359.116L157.461,360.687L159.102,363.672L162.734,364.458L165.194,367.13L168.358,367.812L172.166,374.521L173.572,372.633L179.782,371.48L183.121,372.529L185.523,367.497L191.85,366.973L193.784,368.44L198.295,367.707L203.333,368.65L209.367,375.412L208.195,377.09L210.949,379.24L218.506,380.132L218.975,378.191L223.017,378.296L231.629,375.15L233.679,371.69L237.136,373.892L241.295,373.682L243.697,377.929L246.158,379.607L247.857,376.933L251.84,377.877L251.137,379.345L257.347,384.434L257.465,384.329L257.699,384.276L257.757,384.329L257.816,384.381L257.933,384.381L258.285,384.434L259.398,384.486L259.925,384.171L260.159,384.066L260.57,383.961L261.038,383.961L263.44,385.326L261.741,388.632L256.762,391.414L257.875,394.302L255.59,396.14L251.372,407.015L245.513,407.015L242.057,404.44L239.303,412.535L239.596,416.742L236.96,418.373L239.655,426.108L237.194,428.846L246.744,430.267L247.388,434.796L249.146,436.956L250.435,442.014L247.681,444.386L250.845,446.442L249.439,448.867L251.723,453.191L250.845,459.68L248.618,461.738L250.083,465.539L253.891,460.947L258.812,461.263L259.984,463.48L265.373,463.058L271.759,464.8L272.638,468.02L276.329,469.023L278.731,466.7L284.472,469.816L284.355,472.456L280.547,475.097L280.488,478.902L287.694,480.434L292.908,484.663L297.302,486.778L297.712,488.47L301.813,489.951L304.625,487.677L308.316,487.042L312.709,493.336L313.354,499.579L315.697,500.32L319.798,495.769L324.192,494.076L326.418,498.468L325.071,500.161L330.812,501.061L334.386,498.362L336.143,500.003L346.571,498.203L355.593,494.5L358.464,495.928L360.924,494.923L363.619,497.621L363.795,500.109L367.134,501.114L369.888,506.037L377.152,504.926L384.182,508.473L392.325,507.414L388.752,504.449L393.439,500.003L396.836,499.791L397.657,503.443L393.907,508.738L395.782,510.115L405.273,505.455L411.717,506.143L420.739,504.079L430.171,492.436L433.452,492.172L436.557,495.611L438.373,494.129L443.88,497.092L443.704,497.251L444.817,499.526L450.148,497.251L453.136,498.733L457.705,497.198L463.095,500.744L477.917,501.749L478.386,502.49L479.499,502.808L482.194,502.861L482.545,508.156L476.101,510.274L472.762,513.293L473.406,516.472L478.034,516.949L482.194,519.864L486.705,519.652L492.387,516.366L508.674,515.095L515.118,513.717L519.395,515.254L520.449,512.499L523.847,509.903L526.483,507.044L527.245,503.867L531.287,509.903L535.974,512.817L543.707,513.399L544,510.168L540.778,503.92L539.665,498.203L543.004,493.071L543.766,496.193L548.863,496.298L553.491,494.817L553.491,494.817L556.127,493.23L558.412,483.658L558.88,476.524L564.094,472.984L568.957,475.309L573.761,474.094L576.338,470.977L582.783,471.241L584.306,472.562L584.306,472.562L585.419,472.932L585.419,472.932L591.102,471.981L591.746,469.551L596.199,472.403L601.354,471.822L600.124,467.439L600.124,467.439L599.772,464.8L599.772,464.8L597.663,464.008L598.308,460.208L597.546,452.453L598.776,449.763L595.144,447.232L597.253,443.121L600.065,446.073L603.522,441.909L607.564,443.701L612.192,448.129L617.172,443.068L621.448,444.28L621.038,446.231L623.967,447.549L628.654,445.282L625.608,440.749L629.533,437.957L633.107,433.585L636.329,435.586L638.965,434.849L635.391,430.373L634.63,427.319L631.759,426.582L631.876,419.793L629.592,416.269L634.63,417.584L634.513,414.27L636.68,412.43L635.391,408.75L638.145,406.069L641.367,406.91L649.51,405.438L649.334,403.389L654.49,403.652L655.31,401.182L658.942,401.655L664.508,400.026L667.73,395.562L664.742,392.306L670.483,390.889L676.869,391.729L679.974,390.574L693.331,377.142L694.854,372.476L693.741,369.698L697.608,367.445L696.26,366.082L700.478,363.149L700.42,359.639L697.491,360.32L695.147,358.802L694.034,352.833L695.792,350.688L696.202,346.606L693.917,343.782L692.804,339.546L695.03,337.664L693.8,334.214L696.26,330.869L695.675,328.623L697.256,321.99L700.01,322.251L704.872,315.935L705.575,307.014L712.078,305.658L717.761,305.814L717.702,303.937L722.623,298.256L718.347,297.578L718.932,291.587L721.51,287.369L724.205,288.358L724.205,288.358L727.954,288.306L736.332,289.868L737.679,287.421L736.508,282.215L739.671,280.602L740.491,276.491L745.94,276.855L748.693,272.642L746.877,270.354L742.776,261.05L743.538,255.908L742.073,254.713L742.659,249.885L746.057,250.404L750.392,246.408L753.028,247.082L753.439,244.903L756.836,243.45L760,239.197L759.824,234.685L756.719,229.761L752.911,227.015L755.255,223.648L755.02,220.644L751.681,216.45L748.342,214.846L747.463,211.637L749.923,209.93L748.576,206.206L750.685,202.896L756.661,201.086L749.689,198.295L747.639,199.587L742.483,199.536L741.839,198.088L736.683,198.243L733.754,196.745L726.607,196.486L722.623,199.122L719.87,203.465L720.28,206.361L715.242,205.792L713.484,210.189L709.325,210.861L706.688,207.964L702.177,208.171L700.244,206.102L703.115,202.172L704.814,195.659L701.943,189.977L701.767,186.568L703.935,183.161L700.596,180.993L700.42,178.31L702.998,177.072L703.701,174.286L698.838,171.862L700.654,167.48L694.913,164.181L694.21,166.036L689.816,166.397L685.364,162.017L680.325,166.242L678.334,169.284L672.534,172.378L668.902,173.048L668.784,181.561L660.114,183.884L656.247,178.723L654.607,172.223L657.712,166.706L659.118,161.038L669.956,155.732L669.077,149.245L672.417,147.496L676.81,141.476L679.271,141.836L685.774,136.128L690.461,126.776L690.109,122.718L691.867,119.073L688.703,115.019L688.586,107.888L697.256,105.581L701.299,102.966L700.42,95.894L705.458,94.665L702.998,92.207L695.675,92.514L695.03,90.21L692.159,90.158L687.473,93.231L687.004,95.126L683.138,94.153L681.146,89.237L677.279,85.705L681.614,76.7L684.661,75.678L682.493,73.837L684.544,72.15L683.782,66.835L685.364,63.821L685.071,60.603L687.121,60.143L685.657,55.395L680.911,56.416L678.685,54.987L679.095,52.333L667.847,51.976L659.997,49.221L660.055,47.13L656.775,44.58L653.963,45.753L653.904,50.19L652.205,50.803L653.494,54.017L643.652,56.927L636.329,57.641L634.044,55.497L634.688,51.415L632.697,53.303L628.185,51.109L625.315,51.925L622.327,49.527L619.691,53.048L616.703,54.324L616.117,59.071L611.196,65.455L609.556,64.178L605.748,66.63L599.596,72.814L595.085,83.606L588.583,84.937L587.88,80.23L581.377,75.524L580.146,78.542L573.702,79.36L570.304,76.496L573.702,68.674L573.526,65.2L566.965,65.455L561.282,62.697L555.014,68.368L554.487,72.201L551.206,78.644L546.461,77.365L543.414,81.56L545.699,83.76L547.574,89.698L546.168,92.924L543.121,93.999L542.067,91.694L534.158,92.667L533.631,88.725L534.978,85.142L536.618,85.602L538.434,82.225L530.76,79.667L529.413,76.752L524.96,79.411L522.265,79.258L517.813,81.457ZM97.705,183.213L97.647,183.161L95.948,184.142L96.358,184.4ZM477.39,555.42L479.674,554.464L480.202,555.155L482.721,552.923L482.194,550.426L477.8,551.382L477.448,553.879Z" fill="#e6f4ea" stroke="#137333" stroke-width="4" stroke-linejoin="round" stroke-linecap="round" />
  
  <!-- 内发光描边 -->
  <path d="M514.884,78.439L514.005,80.639L507.854,84.374L510.373,87.599L506.74,90.773L503.167,96.868L501.292,97.021L500.179,103.94L501.351,106.811L497.191,108.452L488.696,105.991L488.638,101.428L483.072,105.837L481.549,103.837L482.662,100.762L478.034,99.788L476.394,102.505L473.582,101.172L468.016,102.3L468.954,103.581L465.556,106.709L463.329,105.991L459.111,108.452L459.522,111.478L464.618,111.068L464.618,111.068L469.715,106.504L473.113,106.145L476.511,107.837L476.159,110.401L471.941,116.507L473.933,122.462L477.39,124.002L471.356,127.649L464.15,123.386L458.467,124.721L458.584,123.489L452.491,124.054L451.378,126.262L448.215,123.643L449.972,121.537L448.449,116.609L442.825,115.994L439.427,117.123L439.134,120.511L436.732,120.767L436.498,124.054L439.427,125.646L434.272,126.878L431.635,129.601L430.991,135.254L433.803,144.46L433.334,147.084L429.937,144.511L429.585,141.579L418.747,132.736L413.709,134.226L411.951,129.653L408.085,127.546L407.03,125.389L403.222,126.365L400.586,130.732L396.836,132.427L397.832,135.46L392.208,132.736L389.338,134.072L392.267,137.825L387.463,139.213L388.342,145.54L387.522,150.738L384.827,156.402L381.546,157.947L374.047,157.689L367.076,161.553L361.744,162.944L358.581,165.366L351.316,164.49L353.836,161.656L351.082,158.462L351.258,154.599L349.325,153.518L345.399,157.895L344.989,155.475L341.709,151.768L341.533,146.312L338.897,146.878L335.792,152.54L333.624,151.974L327.531,156.505L323.665,156.041L325.364,150.069L324.544,147.856L319.915,148.885L317.689,143.379L318.802,139.008L314.526,137.208L312.885,138.956L309.019,138.185L308.081,135.203L310.776,132.53L303.863,124.721L300.875,123.437L300.524,118.868L298.298,118.56L296.423,121.332L284.882,123.18L285.116,127.957L280.254,129.242L278.438,134.278L275.333,134.74L277.618,142.248L279.961,142.814L280.078,150.172L276.446,154.239L272.404,152.54L269.65,154.342L268.127,159.08L264.788,158.616L258.578,160.11L256.41,158.977L253.305,160.935L249.38,159.338L244.986,160.728L244.517,163.769L239.831,168.047L236.081,168.511L233.094,171.243L226.474,173.203L225.712,174.544L215.284,177.484L212.648,178.877L207.785,179.136L204.153,178.104L201.868,180.838L197.474,180.735L202.454,187.24L203.274,190.545L200.111,199.174L197.943,198.967L194.487,203.568L188.159,206.412L185.992,211.275L180.016,207.033L178.142,202.534L170.701,202.12L167.245,204.654L161.504,203.103L155.645,198.398L147.268,197.158L146.33,195.039L143.05,195.659L135.844,194.523L135.434,192.249L132.036,188.634L129.282,182.955L123.307,181.767L120.319,183.367L113.992,183.109L112.469,179.497L108.778,176.814L105.497,177.794L103.505,180.322L101.045,180.219L97.647,183.161L97.705,183.213L96.358,184.4L95.948,184.142L92.257,188.479L91.085,193.903L91.73,196.59L78.958,199.897L75.795,202.017L73.51,207.188L66.832,208.74L62.789,212.724L60.329,210.085L53.24,208.637L50.076,204.033L43.808,201.914L40,209.361L42.929,220.592L45.741,222.146L48.202,231.109L52.068,231.368L53.357,233.649L51.541,235.619L54.47,236.5L60.856,240.96L62.028,239.145L60.329,231.575L61.5,229.502L64.605,230.072L66.246,227.792L68.062,229.295L72.983,229.036L80.365,230.953L81.888,232.404L86.633,232.249L92.609,229.45L98.701,232.042L99.17,236.085L101.748,235.67L106.434,238.471L107.255,240.441L104.208,244.073L109.012,251.079L111.649,251.65L110.36,255.752L105.907,255.596L107.606,261.466L113.289,265.675L116.394,264.376L114.519,262.661L119.03,260.427L120.319,262.505L126.177,265.26L127.173,267.339L135.434,269.886L139.3,259.128L145.1,258.401L148.322,259.44L150.314,268.379L155.528,265.156L158.867,265.831L161.328,264.48L164.843,266.559L164.316,269.262L168.592,268.586L170.291,266.091L173.396,267.651L174.919,264.896L174.334,262.038L175.974,259.855L180.192,260.947L183.473,260.011L184.762,262.038L188.394,262.973L188.745,266.611L192.846,269.782L192.319,271.602L195.834,275.607L198.646,281.851L201.985,282.996L200.111,284.661L201.927,288.15L196.654,290.962L198.646,297.734L197.884,303.312L195.131,309.048L197.123,312.439L191.85,316.77L190.503,319.484L187.456,320.528L183.648,324.026L182.36,320.058L177.556,318.231L175.388,319.119L173.396,316.665L169.588,316.509L166.132,318.388L165.194,322.147L160.683,322.878L155.118,328.414L149.201,328.153L154.591,332.071L155.118,335.468L150.314,333.691L144.983,336.88L141.819,342.16L138.597,344.305L140.179,349.065L141.702,349.693L143.225,360.32L148.029,360.477L150.256,359.116L157.461,360.687L159.102,363.672L162.734,364.458L165.194,367.13L168.358,367.812L172.166,374.521L173.572,372.633L179.782,371.48L183.121,372.529L185.523,367.497L191.85,366.973L193.784,368.44L198.295,367.707L203.333,368.65L209.367,375.412L208.195,377.09L210.949,379.24L218.506,380.132L218.975,378.191L223.017,378.296L231.629,375.15L233.679,371.69L237.136,373.892L241.295,373.682L243.697,377.929L246.158,379.607L247.857,376.933L251.84,377.877L251.137,379.345L257.347,384.434L257.465,384.329L257.699,384.276L257.757,384.329L257.816,384.381L257.933,384.381L258.285,384.434L259.398,384.486L259.925,384.171L260.159,384.066L260.57,383.961L261.038,383.961L263.44,385.326L261.741,388.632L256.762,391.414L257.875,394.302L255.59,396.14L251.372,407.015L245.513,407.015L242.057,404.44L239.303,412.535L239.596,416.742L236.96,418.373L239.655,426.108L237.194,428.846L246.744,430.267L247.388,434.796L249.146,436.956L250.435,442.014L247.681,444.386L250.845,446.442L249.439,448.867L251.723,453.191L250.845,459.68L248.618,461.738L250.083,465.539L253.891,460.947L258.812,461.263L259.984,463.48L265.373,463.058L271.759,464.8L272.638,468.02L276.329,469.023L278.731,466.7L284.472,469.816L284.355,472.456L280.547,475.097L280.488,478.902L287.694,480.434L292.908,484.663L297.302,486.778L297.712,488.47L301.813,489.951L304.625,487.677L308.316,487.042L312.709,493.336L313.354,499.579L315.697,500.32L319.798,495.769L324.192,494.076L326.418,498.468L325.071,500.161L330.812,501.061L334.386,498.362L336.143,500.003L346.571,498.203L355.593,494.5L358.464,495.928L360.924,494.923L363.619,497.621L363.795,500.109L367.134,501.114L369.888,506.037L377.152,504.926L384.182,508.473L392.325,507.414L388.752,504.449L393.439,500.003L396.836,499.791L397.657,503.443L393.907,508.738L395.782,510.115L405.273,505.455L411.717,506.143L420.739,504.079L430.171,492.436L433.452,492.172L436.557,495.611L438.373,494.129L443.88,497.092L443.704,497.251L444.817,499.526L450.148,497.251L453.136,498.733L457.705,497.198L463.095,500.744L477.917,501.749L478.386,502.49L479.499,502.808L482.194,502.861L482.545,508.156L476.101,510.274L472.762,513.293L473.406,516.472L478.034,516.949L482.194,519.864L486.705,519.652L492.387,516.366L508.674,515.095L515.118,513.717L519.395,515.254L520.449,512.499L523.847,509.903L526.483,507.044L527.245,503.867L531.287,509.903L535.974,512.817L543.707,513.399L544,510.168L540.778,503.92L539.665,498.203L543.004,493.071L543.766,496.193L548.863,496.298L553.491,494.817L553.491,494.817L556.127,493.23L558.412,483.658L558.88,476.524L564.094,472.984L568.957,475.309L573.761,474.094L576.338,470.977L582.783,471.241L584.306,472.562L584.306,472.562L585.419,472.932L585.419,472.932L591.102,471.981L591.746,469.551L596.199,472.403L601.354,471.822L600.124,467.439L600.124,467.439L599.772,464.8L599.772,464.8L597.663,464.008L598.308,460.208L597.546,452.453L598.776,449.763L595.144,447.232L597.253,443.121L600.065,446.073L603.522,441.909L607.564,443.701L612.192,448.129L617.172,443.068L621.448,444.28L621.038,446.231L623.967,447.549L628.654,445.282L625.608,440.749L629.533,437.957L633.107,433.585L636.329,435.586L638.965,434.849L635.391,430.373L634.63,427.319L631.759,426.582L631.876,419.793L629.592,416.269L634.63,417.584L634.513,414.27L636.68,412.43L635.391,408.75L638.145,406.069L641.367,406.91L649.51,405.438L649.334,403.389L654.49,403.652L655.31,401.182L658.942,401.655L664.508,400.026L667.73,395.562L664.742,392.306L670.483,390.889L676.869,391.729L679.974,390.574L693.331,377.142L694.854,372.476L693.741,369.698L697.608,367.445L696.26,366.082L700.478,363.149L700.42,359.639L697.491,360.32L695.147,358.802L694.034,352.833L695.792,350.688L696.202,346.606L693.917,343.782L692.804,339.546L695.03,337.664L693.8,334.214L696.26,330.869L695.675,328.623L697.256,321.99L700.01,322.251L704.872,315.935L705.575,307.014L712.078,305.658L717.761,305.814L717.702,303.937L722.623,298.256L718.347,297.578L718.932,291.587L721.51,287.369L724.205,288.358L724.205,288.358L727.954,288.306L736.332,289.868L737.679,287.421L736.508,282.215L739.671,280.602L740.491,276.491L745.94,276.855L748.693,272.642L746.877,270.354L742.776,261.05L743.538,255.908L742.073,254.713L742.659,249.885L746.057,250.404L750.392,246.408L753.028,247.082L753.439,244.903L756.836,243.45L760,239.197L759.824,234.685L756.719,229.761L752.911,227.015L755.255,223.648L755.02,220.644L751.681,216.45L748.342,214.846L747.463,211.637L749.923,209.93L748.576,206.206L750.685,202.896L756.661,201.086L749.689,198.295L747.639,199.587L742.483,199.536L741.839,198.088L736.683,198.243L733.754,196.745L726.607,196.486L722.623,199.122L719.87,203.465L720.28,206.361L715.242,205.792L713.484,210.189L709.325,210.861L706.688,207.964L702.177,208.171L700.244,206.102L703.115,202.172L704.814,195.659L701.943,189.977L701.767,186.568L703.935,183.161L700.596,180.993L700.42,178.31L702.998,177.072L703.701,174.286L698.838,171.862L700.654,167.48L694.913,164.181L694.21,166.036L689.816,166.397L685.364,162.017L680.325,166.242L678.334,169.284L672.534,172.378L668.902,173.048L668.784,181.561L660.114,183.884L656.247,178.723L654.607,172.223L657.712,166.706L659.118,161.038L669.956,155.732L669.077,149.245L672.417,147.496L676.81,141.476L679.271,141.836L685.774,136.128L690.461,126.776L690.109,122.718L691.867,119.073L688.703,115.019L688.586,107.888L697.256,105.581L701.299,102.966L700.42,95.894L705.458,94.665L702.998,92.207L695.675,92.514L695.03,90.21L692.159,90.158L687.473,93.231L687.004,95.126L683.138,94.153L681.146,89.237L677.279,85.705L681.614,76.7L684.661,75.678L682.493,73.837L684.544,72.15L683.782,66.835L685.364,63.821L685.071,60.603L687.121,60.143L685.657,55.395L680.911,56.416L678.685,54.987L679.095,52.333L667.847,51.976L659.997,49.221L660.055,47.13L656.775,44.58L653.963,45.753L653.904,50.19L652.205,50.803L653.494,54.017L643.652,56.927L636.329,57.641L634.044,55.497L634.688,51.415L632.697,53.303L628.185,51.109L625.315,51.925L622.327,49.527L619.691,53.048L616.703,54.324L616.117,59.071L611.196,65.455L609.556,64.178L605.748,66.63L599.596,72.814L595.085,83.606L588.583,84.937L587.88,80.23L581.377,75.524L580.146,78.542L573.702,79.36L570.304,76.496L573.702,68.674L573.526,65.2L566.965,65.455L561.282,62.697L555.014,68.368L554.487,72.201L551.206,78.644L546.461,77.365L543.414,81.56L545.699,83.76L547.574,89.698L546.168,92.924L543.121,93.999L542.067,91.694L534.158,92.667L533.631,88.725L534.978,85.142L536.618,85.602L538.434,82.225L530.76,79.667L529.413,76.752L524.96,79.411L522.265,79.258L517.813,81.457ZM97.705,183.213L97.647,183.161L95.948,184.142L96.358,184.4ZM477.39,555.42L479.674,554.464L480.202,555.155L482.721,552.923L482.194,550.426L477.8,551.382L477.448,553.879Z" fill="none" stroke="#2e7d32" stroke-width="1.5" stroke-linejoin="round" stroke-linecap="round" opacity="0.6" />
</svg>