<svg xmlns="http://www.w3.org/2000/svg" width="800" height="600" viewBox="0 0 800 600">
  <!-- 背景色，采用淡米黄色 -->
  <rect width="100%" height="100%" fill="#f5f2eb" />
  
  <!-- 阴影层 -->
  <path d="M301.073,44.364L299.035,45.491L297.604,45.849L296.585,45.42L294.468,45.402L293.076,45.724L291.783,45.438L290.097,45.814L288.529,44.668L286.804,44.847L284.491,45.599L282.629,47.013L281.727,49.251L278.944,48.553L276.984,48.445L275.435,47.837L274.122,48.445L274.004,49.448L273.22,49.574L270.927,51.885L271.26,53.605L270.555,54.609L268.849,55.094L267.418,57.318L265.654,58.358L263.596,60.35L261.264,62.11L259.696,62.702L258.402,64.283L256.128,64.714L254.56,65.918L253.423,68.236L252.855,72.534L253.09,75.27L254.109,76.944L254.345,79.448L252.992,81.106L252.914,83.106L254.815,85.306L255.168,87.435L254.443,90.864L254.56,93.374L255.971,94.62L258.755,94.801L262.087,95.614L262.851,96.481L264.106,98.868L266.066,98.578L269.32,98.56L270.28,100.332L271.417,100.585L275.024,100.441L277.18,102.014L279.904,102.521L280.728,103.335L282.648,103.48L284.471,104.294L286.921,103.281L288.98,103.208L289.724,102.702L290.861,98.054L295.134,96.915L298.408,97.403L299.937,96.897L300.564,96.156L301.407,92.742L304.504,90.449L305.523,89.456L308.169,88.427L309.384,88.752L313.579,88.12L313.579,84.945L316.088,83.9L316.48,82.169L316.323,80.835L317.401,72.193L319.224,67.931L320.165,66.852L320.91,64.983L322.733,64.319L324.556,62.72L325.947,60.53L326.986,59.453L329.789,57.82L331.475,57.551L331.788,57.031L330.906,52.745L329.946,49.986L328.437,44.632L327.633,44.31L325.418,44.847L323.419,44.078L322.458,43.04L321.38,42.861L320.518,40.483L319.577,40L318.558,40.948L315.578,41.717L314.441,42.825L313.442,42.754L310.012,41.609L307.816,41.752L306.895,43.434L305.425,42.754L302.289,42.843ZM367.972,558.328L369.03,559.297L370.246,558.594L369.618,556.998L368.305,557.283ZM401.627,423.086L403.058,421.446L404.077,420.937L402.352,423.294L404.293,421.616L405.449,419.505L405.449,417.884L404.43,417.413L404.41,419.523L402.509,421.484ZM361.249,559.221L361.817,560L363.385,559.791L363.679,558.651L362.405,557.815ZM344.255,138.22L346.587,137.347L344.98,138.839L347.312,137.893L346.764,136.873L343.902,137.729ZM542.99,198.518L543.127,200.559L543.578,200.981L546.792,200.779L543.519,200.154L543.382,198.114L544.146,197.397L545.42,198.959L547.145,199.272L545.361,198.371L544.264,197.011L543.205,197.25ZM369.03,556.219L370.638,556.086L370.5,555.231L369.422,555.041ZM352.879,166.23L354.33,166.23L355.506,165.371L355.388,164.182L354.408,163.798L352.311,164.584L354.643,164.548L354.663,165.499ZM350.174,164.365L347.9,165.883L347.587,167.328L348.959,167.529L351.487,165.791L348.822,166.852L348.567,166.194L351.193,164.164ZM421.698,439.594L422.424,440.877L424.58,441.859L426.853,441.803L429.99,441.047L434.204,439.273L436.713,438.593L437.948,437.178L438.34,434.554L439.751,432.988L442.181,431.479L442.652,430.555L442.181,428.819L441.26,428.159L440.025,428.083L438.183,428.593L433.518,431.215L431.715,433.875L428.01,435.97L425.913,437.593L422.482,438.574ZM424.246,399.316L425.403,400.464L426.109,402.157L426.893,401.122L426.285,400.238L424.658,399.128ZM423.58,400.351L424.188,401.856L425.364,401.687L424.266,400.313ZM360.523,162.208L361.406,162.756L363.758,162.208L363.718,161.385L362.836,161.038L361.425,161.349ZM353.036,158.097L353.918,157.549L354.545,155.96L353.683,155.139L353.879,156.745ZM368.227,399.523L367.893,398.845L367.07,399.655ZM418.366,447.033L419.523,447.392L419.542,446.712ZM431.166,402.76L431.381,403.927L432.891,404.04L432.048,402.12ZM368.736,140.806L367.952,141.098L368.423,141.935L370.657,141.717L369.814,140.879ZM446.925,352.448L447.337,353.497L448.081,353.291L448.767,351.605L447.807,351.343ZM483.461,372.683L484.206,373.172L484.402,374.58L485.48,373.923L486.264,370.394L485.48,369.943L484.52,370.487ZM444.632,364.54L445.416,366.078L446.376,365.74L446.807,364.108ZM417.641,438.65L417.778,439.764L419.091,439.726L419.621,438.404ZM280.63,447.959L280.63,448.884L282.198,448.733L284.06,447.033L286.686,443.653L288.431,442.652L291.057,442.218L295.742,442.86L296.056,442.275L294.664,441.368L291.841,440.689L288.842,440.594L286.647,441.104L282.923,444.635ZM497.319,399.109L497.986,399.786L499.201,398.413L498.358,397.905ZM376.498,172.47L379.478,172.159L380.811,171.262L380.046,170.255L376.047,171.115L375.616,172.342ZM378.439,400.163L379.497,401.141L381.693,401.047L380.379,399.749ZM439.908,336.835L440.104,337.527L441.319,336.442L442.966,336.835L443.867,336.199L443.671,334.516L442.632,334.778ZM374.362,163.122L373.539,164.054L374.421,164.127L376.479,163.323L378.243,163.414L378.419,162.573L377.537,162.409ZM504.18,350.856L503.317,352.336L503.494,353.61L504.905,353.966L506.649,353.76L509.139,352.785L508.923,351.83L505.003,352.336L505.885,350.088L505.375,349.863ZM372.441,143.484L372.813,143.065L371.97,141.881L370.951,141.863ZM345.431,158.133L345.274,158.59L346.881,158.681L346.646,157.823ZM472.72,366.697L474.249,367.616L475.425,366.753L475.307,366.078L473.288,365.553ZM446.298,420.409L446.984,421.201L448.571,421.069L448.101,420.391ZM441.143,423.275L441.848,423.803L443.946,423.256L444.847,422.332L443.946,422.068ZM462.135,414.793L462.567,416.094L464.311,416.847L465.879,417.073L466.84,415.754L466.33,415.302L463.253,414.511ZM421.64,426.933L421.953,428.253L424.05,428.857L424.011,427.895L423.07,426.518ZM470.681,382.75L471.132,384.291L471.759,383.84L471.328,381.998ZM503.18,389.723L503.807,390.908L504.552,390.043ZM413.466,396.004L413.995,396.475L416.406,395.139L416.053,394.631L413.682,395.609ZM447.16,331.487L447.591,331.562L450.218,329.188L450.434,328.291L449.375,328.123L447.591,330.365ZM444.71,317.869L445.749,317.719L446.043,314.994L444.749,315.125ZM453.962,335.975L454.609,336.667L455.53,334.741L454.707,334.722ZM347.744,157.549L347.92,158.28L349.057,158.499L348.371,156.891ZM423.051,399.241L422.188,398.808L421.6,399.636L422.326,400.426ZM295.664,431.913L295.664,432.705L297.31,433.064L299.29,431.988L300.329,430.385L300.172,428.706L298.741,428.857L296.193,430.63ZM511.765,315.666L512.98,317.925L513.196,317.439L512.118,315.237ZM351.487,153.806L352.565,154.682L352.33,153.605ZM377.478,157.677L380.007,155.778L379.634,155.412L377.224,156.8ZM353.741,170.548L354.702,171.591L355.878,170.932L355.917,170.255ZM420.071,362.852L420.699,363.339L420.914,359.533L420.424,359.57ZM450.179,421.974L449.708,423.463L450.826,423.577L451.022,422.596ZM506.355,371.557L506.649,372.402L507.512,372.233ZM465.801,357.339L465.977,357.958L467.408,357.077L465.997,356.721ZM515.117,348.271L515.842,348.533L516.273,347.672ZM447.356,167.09L450.963,166.194L450.532,165.663L447.395,166.175ZM487.911,385.024L486.284,385.362L486.813,386.697L487.872,386.734L488.597,385.926ZM414.172,387.918L414.701,388.821L415.348,388.088ZM446.16,440.141L446.357,440.972L447.944,440.085L447.376,439.348ZM440.672,340.615L441.319,340.465L442.887,338.687L442.142,338.201ZM544.969,338.837L545.871,339.473L547.047,337.864L546.91,336.76L545.969,336.723L545.126,337.696ZM432.695,355.746L433.361,355.821L435.36,354.397L434.929,353.872L433.42,354.678ZM446.905,316.693L447.964,317.962L448.454,316.861L447.905,315.965ZM508.943,347.41L509.413,347.822L511.177,347.765L510.883,346.979ZM312.324,423.388L312.677,424.802L315.323,424.104L316.774,422.106L315.774,421.597L312.383,423.011ZM344.255,410.385L345.333,410.423L345.725,409.575ZM465.017,410.875L465.428,411.911L466.232,410.837ZM400.216,424.746L400.666,424.915L402.176,423.558L401.744,423.275ZM427.363,333.88L427.03,334.666L428.48,334.217L428.049,333.282ZM528.661,353.254L529.975,353.46L529.994,352.523L529.191,352.055ZM431.754,171.207L434.909,171.408L434.733,170.676L433.537,170.621ZM317.068,426.744L318.146,427.442L318.107,426.103L317.499,425.783ZM473.014,411.478L473.406,412.438L474.445,412.42L474.915,411.497L474.582,410.442L473.171,410.574ZM346.665,441.595L346.783,442.218L348.077,441.633L348.998,440.066L347.548,439.631ZM350.448,405.678L350.703,407.278L352.35,406.412L351.703,405.489ZM312.344,433.46L313.207,433.988L313.971,433.271L313.128,432.573ZM372.343,397.622L373.833,397.829L373.578,396.964ZM503.572,369.493L503.886,370.281L504.807,370.093L504.238,369.136ZM358.955,424.84L359.72,425.481L361.17,425.594L361.935,425.01L361.758,424.123L359.896,423.708ZM439.535,185.261L439.829,185.976L440.633,185.444ZM456.333,329.132L457.235,329.618L457.49,328.889ZM428.343,172.378L428.5,173.202L429.186,172.268ZM490.067,360.414L490.772,361.351L491.674,360.47L490.871,359.345ZM528.936,341.438L531.543,342.037L533.326,342.093L533.758,341.082L532.209,339.829L529.779,340.053ZM452.158,451.133L451.061,452.776L452.648,452.587ZM387.534,398.112L388.69,398.789L389.121,398.187ZM350.841,438.197L352.017,438.272L353.369,436.517L352.624,435.687L351.507,436.272ZM367.952,400.501L368.834,400.765L369.011,399.956ZM378.125,497.281L378.262,498.172L379.242,498.399L379.223,496.448ZM444.044,400.163L445.533,400.219L446.69,399.052L446.16,398.45L444.612,399.052ZM452.609,427.612L453.864,428.649L454.079,426.858L453.08,426.726ZM391.415,414.04L392.689,413.437L391.552,413.324ZM412.251,460.128L411.623,461.452L412.995,460.752ZM510.746,161.513L511.158,162.976L512.138,162.848L512.412,161.038L511.471,160.618ZM531.523,360.564L531.719,361.445L532.719,361.426L532.346,360.057ZM392.944,62.02L394.394,61.75L394.688,60.925L394.08,60.207L392.944,60.296L392.532,61.248ZM439.241,171.426L440.417,171.408L441.574,170.713L439.79,170.365ZM419.64,71.995L420.973,72.229L422.267,71.563L422.443,69.926L421.032,69.495L418.837,69.944L418.601,70.7ZM382.045,519.16L382.202,520.791L383.065,521.019L384.221,520.146L382.927,518.704ZM349.841,430.045L350.684,430.687L352.193,430.687L352.213,429.404L350.252,429.234ZM369.109,399.259L370.285,399.88L370.52,398.902ZM389.729,432.045L390.925,432.573L390.983,431.309ZM379.889,504.691L380.634,506.094L380.889,507.743L381.791,506.985L380.948,504.464ZM377.988,501.678L378.674,502.948L379.34,502.493L379.203,501.014L378.164,500.692ZM468.31,237.779L469.447,238.537L470.76,237.945L470.27,236.873L468.819,237.151ZM412.153,355.784L412.819,356.383L413.466,355.709ZM420.542,189.151L421.6,189.573L421.483,188.71ZM390.199,522.783L391.356,522.821L391.65,521.038L390.317,521.341ZM379.066,519.084L379.438,520.279L380.771,519.653L380.477,518.742ZM372.48,502.777L373.617,502.966L373.597,502.095ZM368.54,148.351L369.422,148.588L369.677,147.749L368.05,147.184ZM368.776,182.18L369.599,180.952L368.991,180.75L367.815,181.611ZM380.811,510.853L381.712,511.497L383.143,510.739L383.319,509.62L381.183,509.772ZM376.361,499.025L377.145,499.119L377.184,497.888ZM400.078,480.994L400.49,481.657L400.921,480.369ZM493.477,376.833L494.654,377.284L494.595,376.326ZM455.177,442.728L455.549,443.483L457.196,443.483L457.235,442.18ZM347.136,433.215L348.136,434.366L349.233,432.177L348.724,431.498ZM423.031,177.744L424.129,178.697L424.05,177.616ZM454.452,171.335L453.472,171.353L453.962,172.451ZM512.471,393.465L510.883,393.71L511.177,394.5L512.196,394.368ZM381.908,160.234L383.025,159.759L382.339,158.937ZM335.983,47.586L335.983,47.604L336.003,47.586L336.003,47.568ZM480.933,348.777L481.501,349.619L482.324,348.702ZM527.25,340.053L526.407,339.847L527.034,340.933ZM382.712,161.952L383.653,161.952L382.908,161.075ZM481.697,346.23L482.109,347.541L482.422,346.754ZM377.635,377.941L377.518,378.542L379.438,378.824L379.38,377.64ZM444.396,183.665L443.475,184.435L444.416,184.747ZM529.975,329.151L528.857,329.618L529.504,330.814L530.131,330.758ZM542.441,330.066L541.245,330.16L541.324,330.833L542.421,331.095ZM430.284,383.032L430.558,384.385L431.205,384.103L431.166,382.806ZM447.729,371.82L447.043,371.689L446.651,372.759L447.415,372.984ZM378.968,491.427L378.948,492.564L379.654,491.655Z" fill="#d1e7dd" opacity="0.3" transform="translate(5, 8)" />
  
  <!-- 填充与主轮廓 -->
  <path d="M301.073,44.364L299.035,45.491L297.604,45.849L296.585,45.42L294.468,45.402L293.076,45.724L291.783,45.438L290.097,45.814L288.529,44.668L286.804,44.847L284.491,45.599L282.629,47.013L281.727,49.251L278.944,48.553L276.984,48.445L275.435,47.837L274.122,48.445L274.004,49.448L273.22,49.574L270.927,51.885L271.26,53.605L270.555,54.609L268.849,55.094L267.418,57.318L265.654,58.358L263.596,60.35L261.264,62.11L259.696,62.702L258.402,64.283L256.128,64.714L254.56,65.918L253.423,68.236L252.855,72.534L253.09,75.27L254.109,76.944L254.345,79.448L252.992,81.106L252.914,83.106L254.815,85.306L255.168,87.435L254.443,90.864L254.56,93.374L255.971,94.62L258.755,94.801L262.087,95.614L262.851,96.481L264.106,98.868L266.066,98.578L269.32,98.56L270.28,100.332L271.417,100.585L275.024,100.441L277.18,102.014L279.904,102.521L280.728,103.335L282.648,103.48L284.471,104.294L286.921,103.281L288.98,103.208L289.724,102.702L290.861,98.054L295.134,96.915L298.408,97.403L299.937,96.897L300.564,96.156L301.407,92.742L304.504,90.449L305.523,89.456L308.169,88.427L309.384,88.752L313.579,88.12L313.579,84.945L316.088,83.9L316.48,82.169L316.323,80.835L317.401,72.193L319.224,67.931L320.165,66.852L320.91,64.983L322.733,64.319L324.556,62.72L325.947,60.53L326.986,59.453L329.789,57.82L331.475,57.551L331.788,57.031L330.906,52.745L329.946,49.986L328.437,44.632L327.633,44.31L325.418,44.847L323.419,44.078L322.458,43.04L321.38,42.861L320.518,40.483L319.577,40L318.558,40.948L315.578,41.717L314.441,42.825L313.442,42.754L310.012,41.609L307.816,41.752L306.895,43.434L305.425,42.754L302.289,42.843ZM367.972,558.328L369.03,559.297L370.246,558.594L369.618,556.998L368.305,557.283ZM401.627,423.086L403.058,421.446L404.077,420.937L402.352,423.294L404.293,421.616L405.449,419.505L405.449,417.884L404.43,417.413L404.41,419.523L402.509,421.484ZM361.249,559.221L361.817,560L363.385,559.791L363.679,558.651L362.405,557.815ZM344.255,138.22L346.587,137.347L344.98,138.839L347.312,137.893L346.764,136.873L343.902,137.729ZM542.99,198.518L543.127,200.559L543.578,200.981L546.792,200.779L543.519,200.154L543.382,198.114L544.146,197.397L545.42,198.959L547.145,199.272L545.361,198.371L544.264,197.011L543.205,197.25ZM369.03,556.219L370.638,556.086L370.5,555.231L369.422,555.041ZM352.879,166.23L354.33,166.23L355.506,165.371L355.388,164.182L354.408,163.798L352.311,164.584L354.643,164.548L354.663,165.499ZM350.174,164.365L347.9,165.883L347.587,167.328L348.959,167.529L351.487,165.791L348.822,166.852L348.567,166.194L351.193,164.164ZM421.698,439.594L422.424,440.877L424.58,441.859L426.853,441.803L429.99,441.047L434.204,439.273L436.713,438.593L437.948,437.178L438.34,434.554L439.751,432.988L442.181,431.479L442.652,430.555L442.181,428.819L441.26,428.159L440.025,428.083L438.183,428.593L433.518,431.215L431.715,433.875L428.01,435.97L425.913,437.593L422.482,438.574ZM424.246,399.316L425.403,400.464L426.109,402.157L426.893,401.122L426.285,400.238L424.658,399.128ZM423.58,400.351L424.188,401.856L425.364,401.687L424.266,400.313ZM360.523,162.208L361.406,162.756L363.758,162.208L363.718,161.385L362.836,161.038L361.425,161.349ZM353.036,158.097L353.918,157.549L354.545,155.96L353.683,155.139L353.879,156.745ZM368.227,399.523L367.893,398.845L367.07,399.655ZM418.366,447.033L419.523,447.392L419.542,446.712ZM431.166,402.76L431.381,403.927L432.891,404.04L432.048,402.12ZM368.736,140.806L367.952,141.098L368.423,141.935L370.657,141.717L369.814,140.879ZM446.925,352.448L447.337,353.497L448.081,353.291L448.767,351.605L447.807,351.343ZM483.461,372.683L484.206,373.172L484.402,374.58L485.48,373.923L486.264,370.394L485.48,369.943L484.52,370.487ZM444.632,364.54L445.416,366.078L446.376,365.74L446.807,364.108ZM417.641,438.65L417.778,439.764L419.091,439.726L419.621,438.404ZM280.63,447.959L280.63,448.884L282.198,448.733L284.06,447.033L286.686,443.653L288.431,442.652L291.057,442.218L295.742,442.86L296.056,442.275L294.664,441.368L291.841,440.689L288.842,440.594L286.647,441.104L282.923,444.635ZM497.319,399.109L497.986,399.786L499.201,398.413L498.358,397.905ZM376.498,172.47L379.478,172.159L380.811,171.262L380.046,170.255L376.047,171.115L375.616,172.342ZM378.439,400.163L379.497,401.141L381.693,401.047L380.379,399.749ZM439.908,336.835L440.104,337.527L441.319,336.442L442.966,336.835L443.867,336.199L443.671,334.516L442.632,334.778ZM374.362,163.122L373.539,164.054L374.421,164.127L376.479,163.323L378.243,163.414L378.419,162.573L377.537,162.409ZM504.18,350.856L503.317,352.336L503.494,353.61L504.905,353.966L506.649,353.76L509.139,352.785L508.923,351.83L505.003,352.336L505.885,350.088L505.375,349.863ZM372.441,143.484L372.813,143.065L371.97,141.881L370.951,141.863ZM345.431,158.133L345.274,158.59L346.881,158.681L346.646,157.823ZM472.72,366.697L474.249,367.616L475.425,366.753L475.307,366.078L473.288,365.553ZM446.298,420.409L446.984,421.201L448.571,421.069L448.101,420.391ZM441.143,423.275L441.848,423.803L443.946,423.256L444.847,422.332L443.946,422.068ZM462.135,414.793L462.567,416.094L464.311,416.847L465.879,417.073L466.84,415.754L466.33,415.302L463.253,414.511ZM421.64,426.933L421.953,428.253L424.05,428.857L424.011,427.895L423.07,426.518ZM470.681,382.75L471.132,384.291L471.759,383.84L471.328,381.998ZM503.18,389.723L503.807,390.908L504.552,390.043ZM413.466,396.004L413.995,396.475L416.406,395.139L416.053,394.631L413.682,395.609ZM447.16,331.487L447.591,331.562L450.218,329.188L450.434,328.291L449.375,328.123L447.591,330.365ZM444.71,317.869L445.749,317.719L446.043,314.994L444.749,315.125ZM453.962,335.975L454.609,336.667L455.53,334.741L454.707,334.722ZM347.744,157.549L347.92,158.28L349.057,158.499L348.371,156.891ZM423.051,399.241L422.188,398.808L421.6,399.636L422.326,400.426ZM295.664,431.913L295.664,432.705L297.31,433.064L299.29,431.988L300.329,430.385L300.172,428.706L298.741,428.857L296.193,430.63ZM511.765,315.666L512.98,317.925L513.196,317.439L512.118,315.237ZM351.487,153.806L352.565,154.682L352.33,153.605ZM377.478,157.677L380.007,155.778L379.634,155.412L377.224,156.8ZM353.741,170.548L354.702,171.591L355.878,170.932L355.917,170.255ZM420.071,362.852L420.699,363.339L420.914,359.533L420.424,359.57ZM450.179,421.974L449.708,423.463L450.826,423.577L451.022,422.596ZM506.355,371.557L506.649,372.402L507.512,372.233ZM465.801,357.339L465.977,357.958L467.408,357.077L465.997,356.721ZM515.117,348.271L515.842,348.533L516.273,347.672ZM447.356,167.09L450.963,166.194L450.532,165.663L447.395,166.175ZM487.911,385.024L486.284,385.362L486.813,386.697L487.872,386.734L488.597,385.926ZM414.172,387.918L414.701,388.821L415.348,388.088ZM446.16,440.141L446.357,440.972L447.944,440.085L447.376,439.348ZM440.672,340.615L441.319,340.465L442.887,338.687L442.142,338.201ZM544.969,338.837L545.871,339.473L547.047,337.864L546.91,336.76L545.969,336.723L545.126,337.696ZM432.695,355.746L433.361,355.821L435.36,354.397L434.929,353.872L433.42,354.678ZM446.905,316.693L447.964,317.962L448.454,316.861L447.905,315.965ZM508.943,347.41L509.413,347.822L511.177,347.765L510.883,346.979ZM312.324,423.388L312.677,424.802L315.323,424.104L316.774,422.106L315.774,421.597L312.383,423.011ZM344.255,410.385L345.333,410.423L345.725,409.575ZM465.017,410.875L465.428,411.911L466.232,410.837ZM400.216,424.746L400.666,424.915L402.176,423.558L401.744,423.275ZM427.363,333.88L427.03,334.666L428.48,334.217L428.049,333.282ZM528.661,353.254L529.975,353.46L529.994,352.523L529.191,352.055ZM431.754,171.207L434.909,171.408L434.733,170.676L433.537,170.621ZM317.068,426.744L318.146,427.442L318.107,426.103L317.499,425.783ZM473.014,411.478L473.406,412.438L474.445,412.42L474.915,411.497L474.582,410.442L473.171,410.574ZM346.665,441.595L346.783,442.218L348.077,441.633L348.998,440.066L347.548,439.631ZM350.448,405.678L350.703,407.278L352.35,406.412L351.703,405.489ZM312.344,433.46L313.207,433.988L313.971,433.271L313.128,432.573ZM372.343,397.622L373.833,397.829L373.578,396.964ZM503.572,369.493L503.886,370.281L504.807,370.093L504.238,369.136ZM358.955,424.84L359.72,425.481L361.17,425.594L361.935,425.01L361.758,424.123L359.896,423.708ZM439.535,185.261L439.829,185.976L440.633,185.444ZM456.333,329.132L457.235,329.618L457.49,328.889ZM428.343,172.378L428.5,173.202L429.186,172.268ZM490.067,360.414L490.772,361.351L491.674,360.47L490.871,359.345ZM528.936,341.438L531.543,342.037L533.326,342.093L533.758,341.082L532.209,339.829L529.779,340.053ZM452.158,451.133L451.061,452.776L452.648,452.587ZM387.534,398.112L388.69,398.789L389.121,398.187ZM350.841,438.197L352.017,438.272L353.369,436.517L352.624,435.687L351.507,436.272ZM367.952,400.501L368.834,400.765L369.011,399.956ZM378.125,497.281L378.262,498.172L379.242,498.399L379.223,496.448ZM444.044,400.163L445.533,400.219L446.69,399.052L446.16,398.45L444.612,399.052ZM452.609,427.612L453.864,428.649L454.079,426.858L453.08,426.726ZM391.415,414.04L392.689,413.437L391.552,413.324ZM412.251,460.128L411.623,461.452L412.995,460.752ZM510.746,161.513L511.158,162.976L512.138,162.848L512.412,161.038L511.471,160.618ZM531.523,360.564L531.719,361.445L532.719,361.426L532.346,360.057ZM392.944,62.02L394.394,61.75L394.688,60.925L394.08,60.207L392.944,60.296L392.532,61.248ZM439.241,171.426L440.417,171.408L441.574,170.713L439.79,170.365ZM419.64,71.995L420.973,72.229L422.267,71.563L422.443,69.926L421.032,69.495L418.837,69.944L418.601,70.7ZM382.045,519.16L382.202,520.791L383.065,521.019L384.221,520.146L382.927,518.704ZM349.841,430.045L350.684,430.687L352.193,430.687L352.213,429.404L350.252,429.234ZM369.109,399.259L370.285,399.88L370.52,398.902ZM389.729,432.045L390.925,432.573L390.983,431.309ZM379.889,504.691L380.634,506.094L380.889,507.743L381.791,506.985L380.948,504.464ZM377.988,501.678L378.674,502.948L379.34,502.493L379.203,501.014L378.164,500.692ZM468.31,237.779L469.447,238.537L470.76,237.945L470.27,236.873L468.819,237.151ZM412.153,355.784L412.819,356.383L413.466,355.709ZM420.542,189.151L421.6,189.573L421.483,188.71ZM390.199,522.783L391.356,522.821L391.65,521.038L390.317,521.341ZM379.066,519.084L379.438,520.279L380.771,519.653L380.477,518.742ZM372.48,502.777L373.617,502.966L373.597,502.095ZM368.54,148.351L369.422,148.588L369.677,147.749L368.05,147.184ZM368.776,182.18L369.599,180.952L368.991,180.75L367.815,181.611ZM380.811,510.853L381.712,511.497L383.143,510.739L383.319,509.62L381.183,509.772ZM376.361,499.025L377.145,499.119L377.184,497.888ZM400.078,480.994L400.49,481.657L400.921,480.369ZM493.477,376.833L494.654,377.284L494.595,376.326ZM455.177,442.728L455.549,443.483L457.196,443.483L457.235,442.18ZM347.136,433.215L348.136,434.366L349.233,432.177L348.724,431.498ZM423.031,177.744L424.129,178.697L424.05,177.616ZM454.452,171.335L453.472,171.353L453.962,172.451ZM512.471,393.465L510.883,393.71L511.177,394.5L512.196,394.368ZM381.908,160.234L383.025,159.759L382.339,158.937ZM335.983,47.586L335.983,47.604L336.003,47.586L336.003,47.568ZM480.933,348.777L481.501,349.619L482.324,348.702ZM527.25,340.053L526.407,339.847L527.034,340.933ZM382.712,161.952L383.653,161.952L382.908,161.075ZM481.697,346.23L482.109,347.541L482.422,346.754ZM377.635,377.941L377.518,378.542L379.438,378.824L379.38,377.64ZM444.396,183.665L443.475,184.435L444.416,184.747ZM529.975,329.151L528.857,329.618L529.504,330.814L530.131,330.758ZM542.441,330.066L541.245,330.16L541.324,330.833L542.421,331.095ZM430.284,383.032L430.558,384.385L431.205,384.103L431.166,382.806ZM447.729,371.82L447.043,371.689L446.651,372.759L447.415,372.984ZM378.968,491.427L378.948,492.564L379.654,491.655Z" fill="#e6f4ea" stroke="#137333" stroke-width="4" stroke-linejoin="round" stroke-linecap="round" />
  
  <!-- 内发光描边 -->
  <path d="M301.073,44.364L299.035,45.491L297.604,45.849L296.585,45.42L294.468,45.402L293.076,45.724L291.783,45.438L290.097,45.814L288.529,44.668L286.804,44.847L284.491,45.599L282.629,47.013L281.727,49.251L278.944,48.553L276.984,48.445L275.435,47.837L274.122,48.445L274.004,49.448L273.22,49.574L270.927,51.885L271.26,53.605L270.555,54.609L268.849,55.094L267.418,57.318L265.654,58.358L263.596,60.35L261.264,62.11L259.696,62.702L258.402,64.283L256.128,64.714L254.56,65.918L253.423,68.236L252.855,72.534L253.09,75.27L254.109,76.944L254.345,79.448L252.992,81.106L252.914,83.106L254.815,85.306L255.168,87.435L254.443,90.864L254.56,93.374L255.971,94.62L258.755,94.801L262.087,95.614L262.851,96.481L264.106,98.868L266.066,98.578L269.32,98.56L270.28,100.332L271.417,100.585L275.024,100.441L277.18,102.014L279.904,102.521L280.728,103.335L282.648,103.48L284.471,104.294L286.921,103.281L288.98,103.208L289.724,102.702L290.861,98.054L295.134,96.915L298.408,97.403L299.937,96.897L300.564,96.156L301.407,92.742L304.504,90.449L305.523,89.456L308.169,88.427L309.384,88.752L313.579,88.12L313.579,84.945L316.088,83.9L316.48,82.169L316.323,80.835L317.401,72.193L319.224,67.931L320.165,66.852L320.91,64.983L322.733,64.319L324.556,62.72L325.947,60.53L326.986,59.453L329.789,57.82L331.475,57.551L331.788,57.031L330.906,52.745L329.946,49.986L328.437,44.632L327.633,44.31L325.418,44.847L323.419,44.078L322.458,43.04L321.38,42.861L320.518,40.483L319.577,40L318.558,40.948L315.578,41.717L314.441,42.825L313.442,42.754L310.012,41.609L307.816,41.752L306.895,43.434L305.425,42.754L302.289,42.843ZM367.972,558.328L369.03,559.297L370.246,558.594L369.618,556.998L368.305,557.283ZM401.627,423.086L403.058,421.446L404.077,420.937L402.352,423.294L404.293,421.616L405.449,419.505L405.449,417.884L404.43,417.413L404.41,419.523L402.509,421.484ZM361.249,559.221L361.817,560L363.385,559.791L363.679,558.651L362.405,557.815ZM344.255,138.22L346.587,137.347L344.98,138.839L347.312,137.893L346.764,136.873L343.902,137.729ZM542.99,198.518L543.127,200.559L543.578,200.981L546.792,200.779L543.519,200.154L543.382,198.114L544.146,197.397L545.42,198.959L547.145,199.272L545.361,198.371L544.264,197.011L543.205,197.25ZM369.03,556.219L370.638,556.086L370.5,555.231L369.422,555.041ZM352.879,166.23L354.33,166.23L355.506,165.371L355.388,164.182L354.408,163.798L352.311,164.584L354.643,164.548L354.663,165.499ZM350.174,164.365L347.9,165.883L347.587,167.328L348.959,167.529L351.487,165.791L348.822,166.852L348.567,166.194L351.193,164.164ZM421.698,439.594L422.424,440.877L424.58,441.859L426.853,441.803L429.99,441.047L434.204,439.273L436.713,438.593L437.948,437.178L438.34,434.554L439.751,432.988L442.181,431.479L442.652,430.555L442.181,428.819L441.26,428.159L440.025,428.083L438.183,428.593L433.518,431.215L431.715,433.875L428.01,435.97L425.913,437.593L422.482,438.574ZM424.246,399.316L425.403,400.464L426.109,402.157L426.893,401.122L426.285,400.238L424.658,399.128ZM423.58,400.351L424.188,401.856L425.364,401.687L424.266,400.313ZM360.523,162.208L361.406,162.756L363.758,162.208L363.718,161.385L362.836,161.038L361.425,161.349ZM353.036,158.097L353.918,157.549L354.545,155.96L353.683,155.139L353.879,156.745ZM368.227,399.523L367.893,398.845L367.07,399.655ZM418.366,447.033L419.523,447.392L419.542,446.712ZM431.166,402.76L431.381,403.927L432.891,404.04L432.048,402.12ZM368.736,140.806L367.952,141.098L368.423,141.935L370.657,141.717L369.814,140.879ZM446.925,352.448L447.337,353.497L448.081,353.291L448.767,351.605L447.807,351.343ZM483.461,372.683L484.206,373.172L484.402,374.58L485.48,373.923L486.264,370.394L485.48,369.943L484.52,370.487ZM444.632,364.54L445.416,366.078L446.376,365.74L446.807,364.108ZM417.641,438.65L417.778,439.764L419.091,439.726L419.621,438.404ZM280.63,447.959L280.63,448.884L282.198,448.733L284.06,447.033L286.686,443.653L288.431,442.652L291.057,442.218L295.742,442.86L296.056,442.275L294.664,441.368L291.841,440.689L288.842,440.594L286.647,441.104L282.923,444.635ZM497.319,399.109L497.986,399.786L499.201,398.413L498.358,397.905ZM376.498,172.47L379.478,172.159L380.811,171.262L380.046,170.255L376.047,171.115L375.616,172.342ZM378.439,400.163L379.497,401.141L381.693,401.047L380.379,399.749ZM439.908,336.835L440.104,337.527L441.319,336.442L442.966,336.835L443.867,336.199L443.671,334.516L442.632,334.778ZM374.362,163.122L373.539,164.054L374.421,164.127L376.479,163.323L378.243,163.414L378.419,162.573L377.537,162.409ZM504.18,350.856L503.317,352.336L503.494,353.61L504.905,353.966L506.649,353.76L509.139,352.785L508.923,351.83L505.003,352.336L505.885,350.088L505.375,349.863ZM372.441,143.484L372.813,143.065L371.97,141.881L370.951,141.863ZM345.431,158.133L345.274,158.59L346.881,158.681L346.646,157.823ZM472.72,366.697L474.249,367.616L475.425,366.753L475.307,366.078L473.288,365.553ZM446.298,420.409L446.984,421.201L448.571,421.069L448.101,420.391ZM441.143,423.275L441.848,423.803L443.946,423.256L444.847,422.332L443.946,422.068ZM462.135,414.793L462.567,416.094L464.311,416.847L465.879,417.073L466.84,415.754L466.33,415.302L463.253,414.511ZM421.64,426.933L421.953,428.253L424.05,428.857L424.011,427.895L423.07,426.518ZM470.681,382.75L471.132,384.291L471.759,383.84L471.328,381.998ZM503.18,389.723L503.807,390.908L504.552,390.043ZM413.466,396.004L413.995,396.475L416.406,395.139L416.053,394.631L413.682,395.609ZM447.16,331.487L447.591,331.562L450.218,329.188L450.434,328.291L449.375,328.123L447.591,330.365ZM444.71,317.869L445.749,317.719L446.043,314.994L444.749,315.125ZM453.962,335.975L454.609,336.667L455.53,334.741L454.707,334.722ZM347.744,157.549L347.92,158.28L349.057,158.499L348.371,156.891ZM423.051,399.241L422.188,398.808L421.6,399.636L422.326,400.426ZM295.664,431.913L295.664,432.705L297.31,433.064L299.29,431.988L300.329,430.385L300.172,428.706L298.741,428.857L296.193,430.63ZM511.765,315.666L512.98,317.925L513.196,317.439L512.118,315.237ZM351.487,153.806L352.565,154.682L352.33,153.605ZM377.478,157.677L380.007,155.778L379.634,155.412L377.224,156.8ZM353.741,170.548L354.702,171.591L355.878,170.932L355.917,170.255ZM420.071,362.852L420.699,363.339L420.914,359.533L420.424,359.57ZM450.179,421.974L449.708,423.463L450.826,423.577L451.022,422.596ZM506.355,371.557L506.649,372.402L507.512,372.233ZM465.801,357.339L465.977,357.958L467.408,357.077L465.997,356.721ZM515.117,348.271L515.842,348.533L516.273,347.672ZM447.356,167.09L450.963,166.194L450.532,165.663L447.395,166.175ZM487.911,385.024L486.284,385.362L486.813,386.697L487.872,386.734L488.597,385.926ZM414.172,387.918L414.701,388.821L415.348,388.088ZM446.16,440.141L446.357,440.972L447.944,440.085L447.376,439.348ZM440.672,340.615L441.319,340.465L442.887,338.687L442.142,338.201ZM544.969,338.837L545.871,339.473L547.047,337.864L546.91,336.76L545.969,336.723L545.126,337.696ZM432.695,355.746L433.361,355.821L435.36,354.397L434.929,353.872L433.42,354.678ZM446.905,316.693L447.964,317.962L448.454,316.861L447.905,315.965ZM508.943,347.41L509.413,347.822L511.177,347.765L510.883,346.979ZM312.324,423.388L312.677,424.802L315.323,424.104L316.774,422.106L315.774,421.597L312.383,423.011ZM344.255,410.385L345.333,410.423L345.725,409.575ZM465.017,410.875L465.428,411.911L466.232,410.837ZM400.216,424.746L400.666,424.915L402.176,423.558L401.744,423.275ZM427.363,333.88L427.03,334.666L428.48,334.217L428.049,333.282ZM528.661,353.254L529.975,353.46L529.994,352.523L529.191,352.055ZM431.754,171.207L434.909,171.408L434.733,170.676L433.537,170.621ZM317.068,426.744L318.146,427.442L318.107,426.103L317.499,425.783ZM473.014,411.478L473.406,412.438L474.445,412.42L474.915,411.497L474.582,410.442L473.171,410.574ZM346.665,441.595L346.783,442.218L348.077,441.633L348.998,440.066L347.548,439.631ZM350.448,405.678L350.703,407.278L352.35,406.412L351.703,405.489ZM312.344,433.46L313.207,433.988L313.971,433.271L313.128,432.573ZM372.343,397.622L373.833,397.829L373.578,396.964ZM503.572,369.493L503.886,370.281L504.807,370.093L504.238,369.136ZM358.955,424.84L359.72,425.481L361.17,425.594L361.935,425.01L361.758,424.123L359.896,423.708ZM439.535,185.261L439.829,185.976L440.633,185.444ZM456.333,329.132L457.235,329.618L457.49,328.889ZM428.343,172.378L428.5,173.202L429.186,172.268ZM490.067,360.414L490.772,361.351L491.674,360.47L490.871,359.345ZM528.936,341.438L531.543,342.037L533.326,342.093L533.758,341.082L532.209,339.829L529.779,340.053ZM452.158,451.133L451.061,452.776L452.648,452.587ZM387.534,398.112L388.69,398.789L389.121,398.187ZM350.841,438.197L352.017,438.272L353.369,436.517L352.624,435.687L351.507,436.272ZM367.952,400.501L368.834,400.765L369.011,399.956ZM378.125,497.281L378.262,498.172L379.242,498.399L379.223,496.448ZM444.044,400.163L445.533,400.219L446.69,399.052L446.16,398.45L444.612,399.052ZM452.609,427.612L453.864,428.649L454.079,426.858L453.08,426.726ZM391.415,414.04L392.689,413.437L391.552,413.324ZM412.251,460.128L411.623,461.452L412.995,460.752ZM510.746,161.513L511.158,162.976L512.138,162.848L512.412,161.038L511.471,160.618ZM531.523,360.564L531.719,361.445L532.719,361.426L532.346,360.057ZM392.944,62.02L394.394,61.75L394.688,60.925L394.08,60.207L392.944,60.296L392.532,61.248ZM439.241,171.426L440.417,171.408L441.574,170.713L439.79,170.365ZM419.64,71.995L420.973,72.229L422.267,71.563L422.443,69.926L421.032,69.495L418.837,69.944L418.601,70.7ZM382.045,519.16L382.202,520.791L383.065,521.019L384.221,520.146L382.927,518.704ZM349.841,430.045L350.684,430.687L352.193,430.687L352.213,429.404L350.252,429.234ZM369.109,399.259L370.285,399.88L370.52,398.902ZM389.729,432.045L390.925,432.573L390.983,431.309ZM379.889,504.691L380.634,506.094L380.889,507.743L381.791,506.985L380.948,504.464ZM377.988,501.678L378.674,502.948L379.34,502.493L379.203,501.014L378.164,500.692ZM468.31,237.779L469.447,238.537L470.76,237.945L470.27,236.873L468.819,237.151ZM412.153,355.784L412.819,356.383L413.466,355.709ZM420.542,189.151L421.6,189.573L421.483,188.71ZM390.199,522.783L391.356,522.821L391.65,521.038L390.317,521.341ZM379.066,519.084L379.438,520.279L380.771,519.653L380.477,518.742ZM372.48,502.777L373.617,502.966L373.597,502.095ZM368.54,148.351L369.422,148.588L369.677,147.749L368.05,147.184ZM368.776,182.18L369.599,180.952L368.991,180.75L367.815,181.611ZM380.811,510.853L381.712,511.497L383.143,510.739L383.319,509.62L381.183,509.772ZM376.361,499.025L377.145,499.119L377.184,497.888ZM400.078,480.994L400.49,481.657L400.921,480.369ZM493.477,376.833L494.654,377.284L494.595,376.326ZM455.177,442.728L455.549,443.483L457.196,443.483L457.235,442.18ZM347.136,433.215L348.136,434.366L349.233,432.177L348.724,431.498ZM423.031,177.744L424.129,178.697L424.05,177.616ZM454.452,171.335L453.472,171.353L453.962,172.451ZM512.471,393.465L510.883,393.71L511.177,394.5L512.196,394.368ZM381.908,160.234L383.025,159.759L382.339,158.937ZM335.983,47.586L335.983,47.604L336.003,47.586L336.003,47.568ZM480.933,348.777L481.501,349.619L482.324,348.702ZM527.25,340.053L526.407,339.847L527.034,340.933ZM382.712,161.952L383.653,161.952L382.908,161.075ZM481.697,346.23L482.109,347.541L482.422,346.754ZM377.635,377.941L377.518,378.542L379.438,378.824L379.38,377.64ZM444.396,183.665L443.475,184.435L444.416,184.747ZM529.975,329.151L528.857,329.618L529.504,330.814L530.131,330.758ZM542.441,330.066L541.245,330.16L541.324,330.833L542.421,331.095ZM430.284,383.032L430.558,384.385L431.205,384.103L431.166,382.806ZM447.729,371.82L447.043,371.689L446.651,372.759L447.415,372.984ZM378.968,491.427L378.948,492.564L379.654,491.655Z" fill="none" stroke="#2e7d32" stroke-width="1.5" stroke-linejoin="round" stroke-linecap="round" opacity="0.6" />
</svg>