<svg xmlns="http://www.w3.org/2000/svg" width="800" height="600" viewBox="0 0 800 600">
  <!-- 背景色，采用淡米黄色 -->
  <rect width="100%" height="100%" fill="#f5f2eb" />
  
  <!-- 阴影层 -->
  <path d="M223.099,513.271L226.826,507.585L236.344,512.662L239.912,510.834L234.995,505.487L238.326,504.811L239.595,495.815L242.926,493.719L238.247,485.406L234.361,482.973L233.25,475.747L235.947,473.722L247.209,483.582L247.13,488.379L250.54,491.893L254.347,491.961L254.426,495.071L258.788,497.37L254.506,497.911L256.885,500.752L252.999,504.608L254.109,510.225L248.002,513.542L247.606,518.486L256.33,516.115L264.737,519.569L266.085,522.957L271.081,520.789L268.385,514.219L269.971,509.548L275.047,508.465L272.35,502.781L275.919,500.278L278.854,505.081L281.868,500.684L286.468,500.549L289.402,491.353L286.388,492.096L280.995,483.582L283.771,480.407L287.181,480.879L293.764,476.692L297.412,482.23L302.171,481.015L301.536,471.359L306.136,470.01L305.74,467.31L321.919,466.636L330.247,469.132L328.74,473.047L332.943,473.317L330.802,475.68L331.912,481.487L335.402,482.838L337.305,478.921L345.871,476.557L347.378,472.034L353.088,471.697L356.895,463.6L360.464,459.418L356.816,457.328L354.754,453.013L350.55,450.991L354.595,446.881L351.264,440.415L356.736,440.011L358.719,435.635L356.26,434.423L355.388,428.434L360.464,425.945L366.333,429.78L377.119,424.129L379.498,432.875L381.64,430.991L388.619,431.26L393.853,434.019L400.119,426.484L408.05,434.289L404.719,446.005L409.715,447.824L407.971,454.227L415.347,457.328L417.329,451.396L420.66,451.261L422.881,448.027L435.809,447.083L441.519,441.089L451.75,445.332L457.302,442.907L465.391,447.016L468.167,440.415L471.895,442.031L470.784,446.342L473.56,457.193L476.891,459.486L478.477,465.961L477.05,470.28L477.843,475.95L482.126,477.57L482.046,481.555L477.129,486.149L475.226,493.516L488.946,499.331L496.957,500.278L497.115,498.858L506.553,496.018L514.326,500.955L510.281,504.879L511.074,511.511L506.315,512.594L507.981,521.263L510.915,524.854L510.836,528.513L506.633,531.225L507.108,536.785L511.153,539.159L518.37,537.938L516.943,534.615L522.177,529.327L521.067,526.616L514.881,522.144L517.022,519.569L522.574,518.892L523.764,516.454L528.522,522.889L532.884,526.141L530.267,530.75L533.281,531.971L530.505,541.805L525.984,544.655L527.491,551.578L531.933,553.547L538.198,549.406L542.56,555.245L547.715,552.665L551.363,553.004L552.157,556.468L561.912,560L564.608,552.597L572.301,557.215L574.284,554.906L571.667,549.066L576.267,545.198L580.787,535.904L580.946,527.226L585.863,520.314L591.256,519.84L596.491,517.267L596.412,511.647L602.36,506.3L600.694,501.022L593.636,502.849L591.494,501.158L587.132,503.999L586.022,499.061L596.094,494.462L593.715,491.893L599.108,487.973L599.663,484.73L592.208,480.947L592.922,477.773L591.494,467.378L594.825,458.339L598.87,453.822L599.108,450.25L602.36,446.746L601.408,443.648L592.129,441.089L591.098,436.847L588.956,433.481L582.136,428.905L579.122,430.453L575.394,424.331L579.439,417.405L574.919,415.053L575.632,405.714L568.97,400.275L565.639,405.781L561.119,405.378L559.057,409.341L550.808,410.215L552.712,400.745L551.839,396.114L546.288,395.443L543.988,391.618L546.843,387.526L545.494,382.765L550.015,378.207L548.429,374.32L544.463,375.393L546.763,371.239L541.132,367.421L533.043,370.368L535.105,367.221L533.677,363.136L529.315,368.627L521.384,363.404L519.56,355.708L520.036,349.153L517.26,342.134L509.805,340.998L504.015,346.813L500.05,352.965L503.064,355.708L497.433,358.384L497.353,361.061L491.722,356.778L488.708,356.778L489.422,351.962L486.805,352.698L487.043,347.147L480.222,343.871L488.233,338.859L492.674,340.931L498.86,338.191L499.098,331.245L501.477,325.57L500.922,316.762L498.543,316.028L502.746,310.027L505.522,303.162L503.46,302.363L507.346,290.509L502.588,288.712L499.891,283.589L496.957,282.923L491.722,277.137L487.915,277.802L484.188,274.943L487.836,269.825L485.377,266.968L487.36,260.06L493.308,260.724L498.464,258.865L504.015,260.658L505.522,263.115L516.07,254.019L515.198,248.91L521.067,247.782L522.415,253.289L528.205,259.728L534.074,257.338L536.532,260.193L540.419,258.666L547.477,250.635L557.55,242.608L561.991,242.741L566.67,239.028L570.319,241.017L575.553,240.222L574.839,244.797L574.76,248.047L574.363,248.71L574.205,248.843L574.839,249.971L574.522,250.568L579.677,256.342L585.863,253.156L585.863,253.156L592.763,248.644L599.743,242.277L601.646,246.19L607.674,252.493L604.581,256.276L606.881,260.724L615.05,251.364L617.27,246.72L630.118,237.835L631.15,241.083L635.115,240.155L637.256,234.124L641.698,232.931L646.298,228.294L645.743,225.512L651.532,222.533L661.684,214.194L667.87,212.143L676.356,207.58L682.701,210.292L691.029,209.696L692.456,216.642L696.184,220.348L700.546,220.481L709.508,206.06L709.746,200.639L712.204,197.401L708.08,196.344L708.001,190.731L705.463,190.532L705.384,183.271L708.873,179.642L713.156,178.982L715.694,174.234L713.156,171.53L709.984,158.681L710.777,154.203L705.225,141.899L696.898,141.767L694.677,138.414L688.332,133.549L682.86,134.075L686.032,129.147L676.356,127.833L669.06,123.17L654.863,124.089L657.163,117.655L659.622,117.064L656.132,113.717L655.339,104.47L649.153,101.978L641.301,103.027L636.622,101.126L631.943,100.667L625.915,102.437L618.618,101.585L610.291,103.879L597.443,102.372L597.601,98.964L593.874,96.867L597.205,94.705L596.729,91.757L586.339,89.4L585.784,84.49L577.06,79.712L572.222,75.003L559.453,68.464L548.588,67.876L540.26,60.885L533.836,59.644L529.157,56.117L526.936,52.2L519.56,52.657L507.743,43.783L502.429,43L498.067,40L494.26,42.413L483.791,40.913L480.064,43.717L481.333,46.066L481.333,46.066L481.253,46.131L481.253,46.131L483.87,46.979L490.691,54.289L487.757,58.011L480.381,55.986L476.733,57.227L479.033,61.342L474.829,63.302L480.064,67.353L477.684,69.576L471.974,66.242L465.788,70.164L476.653,83.835L482.126,84.686L482.76,87.828L487.677,90.447L491.008,89.858L491.96,94.181L501.319,97.129L497.512,100.143L498.701,105.322L502.826,108.994L499.257,108.929L492.753,112.733L489.422,113.061L482.681,118.508L482.126,124.614L476.098,125.271L476.733,128.687L465.233,130.461L462.536,129.409L457.064,131.315L457.302,134.469L461.267,134.929L460.236,141.833L452.226,146.898L456.35,151.307L444.691,160.13L437.395,162.106L436.443,166.718L442.233,164.807L443.978,168.3L435.729,179.708L433.588,180.566L435.888,186.703L440.171,187.958L432.874,191.391L430.257,196.741L425.022,196.08L425.736,205.134L431.764,206.456L426.767,209.762L413.285,221.341L405.116,217.9L402.022,218.23L401.626,212.342L398.929,209.564L392.902,210.688L386.716,217.701L377.992,214.26L370.06,213.4L365.857,215.451L367.84,219.223L362.129,224.056L362.129,224.056L358.323,228.095L362.685,232.666L365.143,237.835L370.219,240.42L366.174,246.389L358.719,252.957L360.702,254.749L356.26,256.276L351.105,263.115L347.298,273.68L340.795,279.997L336.829,289.045L332.15,295.902L316.923,311.827L313.988,311.294L314.543,315.228L311.133,317.896L310.816,318.23L310.657,318.163L310.578,317.829L306.295,318.697L301.299,312.494L300.585,312.694L296.54,318.63L292.495,320.164L285.912,319.164L282.661,317.029L281.233,319.431L281.233,319.431L275.999,321.232L269.178,319.964L268.147,315.895L264.974,313.894L265.054,309.027L261.485,307.694L262.119,303.229L256.25,299.432L253.633,293.105L253.712,293.105L253.633,293.105L253.712,293.105L253.712,293.105L253.792,293.105L253.792,293.105L257.599,291.707L253.633,285.784L247.05,282.857L245.068,285.252L239.119,285.385L231.506,283.722L230.078,290.642L226.588,292.24L219.847,291.84L217.944,294.37L214.375,292.772L213.026,296.967L208.902,296.435L208.426,298.1L204.857,299.498L198.116,293.438L196.609,284.32L191.93,281.726L192.009,284.453L184.237,280.462L179.002,275.342L167.582,275.541L162.109,271.287L155.13,270.623L152.433,267.3L148.151,268.43L144.027,273.946L143.313,279.332L138.158,281.859L138.871,290.909L138.871,290.909L132.447,290.709L126.578,287.913L125.944,293.305L131.416,296.368L128.878,299.432L118.409,299.765L117.061,300.364L115.158,303.762L122.93,302.963L120.075,306.628L120.868,306.761L121.185,307.028L121.185,307.494L128.799,310.427L128.402,313.628L133.24,314.695L134.589,318.43L138.792,317.963L143.154,321.099L139.268,326.638L140.22,328.907L136.571,333.114L138.475,337.122L141.251,337.456L137.285,343.938L124.754,344.406L121.185,346.746L120.154,356.377L114.285,361.061L108.178,359.723L107.544,365.346L100.168,363.605L95.171,371.306L90.889,372.177L88.985,375.929L84.306,378.676L85.416,383.704L89.62,393.094L89.144,395.376L95.964,393.564L95.964,393.564L97.551,395.711L94.14,397.993L101.04,398.194L103.023,400.611L100.009,406.856L100.247,412.096L106.037,410.618L105.244,415.053L112.223,415.725L113.254,418.145L117.933,416.33L127.451,416.128L129.513,419.624L135.62,415.187L137.84,423.995L136.73,429.444L139.982,434.895L142.995,435.5L139.982,438.53L143.709,443.311L141.647,447.151L144.82,450.452L144.264,453.35L149.34,457.598L148.785,460.43L153.068,459.351L155.923,461.576L163.299,462.453L170.913,456.586L175.037,455.575L180.113,457.935L181.223,464.274L183.999,462.52L187.964,465.219L193.992,464.881L197.164,462.453L201.526,464.477L208.982,472.034L206.523,475.68L209.378,480.609L210.171,485.811L214.216,490.271L214.057,497.302L219.53,505.826L217.626,509.751ZM574.76,248.047L574.839,244.797L573.094,248.91L573.888,248.843L574.205,248.843L574.363,248.71ZM121.185,307.494L121.185,307.028L120.868,306.761L120.075,306.628ZM573.888,248.843L573.094,248.91L574.522,250.568L574.839,249.971ZM311.133,317.896L310.578,317.829L310.657,318.163L310.816,318.23Z" fill="#d1e7dd" opacity="0.3" transform="translate(5, 8)" />
  
  <!-- 填充与主轮廓 -->
  <path d="M223.099,513.271L226.826,507.585L236.344,512.662L239.912,510.834L234.995,505.487L238.326,504.811L239.595,495.815L242.926,493.719L238.247,485.406L234.361,482.973L233.25,475.747L235.947,473.722L247.209,483.582L247.13,488.379L250.54,491.893L254.347,491.961L254.426,495.071L258.788,497.37L254.506,497.911L256.885,500.752L252.999,504.608L254.109,510.225L248.002,513.542L247.606,518.486L256.33,516.115L264.737,519.569L266.085,522.957L271.081,520.789L268.385,514.219L269.971,509.548L275.047,508.465L272.35,502.781L275.919,500.278L278.854,505.081L281.868,500.684L286.468,500.549L289.402,491.353L286.388,492.096L280.995,483.582L283.771,480.407L287.181,480.879L293.764,476.692L297.412,482.23L302.171,481.015L301.536,471.359L306.136,470.01L305.74,467.31L321.919,466.636L330.247,469.132L328.74,473.047L332.943,473.317L330.802,475.68L331.912,481.487L335.402,482.838L337.305,478.921L345.871,476.557L347.378,472.034L353.088,471.697L356.895,463.6L360.464,459.418L356.816,457.328L354.754,453.013L350.55,450.991L354.595,446.881L351.264,440.415L356.736,440.011L358.719,435.635L356.26,434.423L355.388,428.434L360.464,425.945L366.333,429.78L377.119,424.129L379.498,432.875L381.64,430.991L388.619,431.26L393.853,434.019L400.119,426.484L408.05,434.289L404.719,446.005L409.715,447.824L407.971,454.227L415.347,457.328L417.329,451.396L420.66,451.261L422.881,448.027L435.809,447.083L441.519,441.089L451.75,445.332L457.302,442.907L465.391,447.016L468.167,440.415L471.895,442.031L470.784,446.342L473.56,457.193L476.891,459.486L478.477,465.961L477.05,470.28L477.843,475.95L482.126,477.57L482.046,481.555L477.129,486.149L475.226,493.516L488.946,499.331L496.957,500.278L497.115,498.858L506.553,496.018L514.326,500.955L510.281,504.879L511.074,511.511L506.315,512.594L507.981,521.263L510.915,524.854L510.836,528.513L506.633,531.225L507.108,536.785L511.153,539.159L518.37,537.938L516.943,534.615L522.177,529.327L521.067,526.616L514.881,522.144L517.022,519.569L522.574,518.892L523.764,516.454L528.522,522.889L532.884,526.141L530.267,530.75L533.281,531.971L530.505,541.805L525.984,544.655L527.491,551.578L531.933,553.547L538.198,549.406L542.56,555.245L547.715,552.665L551.363,553.004L552.157,556.468L561.912,560L564.608,552.597L572.301,557.215L574.284,554.906L571.667,549.066L576.267,545.198L580.787,535.904L580.946,527.226L585.863,520.314L591.256,519.84L596.491,517.267L596.412,511.647L602.36,506.3L600.694,501.022L593.636,502.849L591.494,501.158L587.132,503.999L586.022,499.061L596.094,494.462L593.715,491.893L599.108,487.973L599.663,484.73L592.208,480.947L592.922,477.773L591.494,467.378L594.825,458.339L598.87,453.822L599.108,450.25L602.36,446.746L601.408,443.648L592.129,441.089L591.098,436.847L588.956,433.481L582.136,428.905L579.122,430.453L575.394,424.331L579.439,417.405L574.919,415.053L575.632,405.714L568.97,400.275L565.639,405.781L561.119,405.378L559.057,409.341L550.808,410.215L552.712,400.745L551.839,396.114L546.288,395.443L543.988,391.618L546.843,387.526L545.494,382.765L550.015,378.207L548.429,374.32L544.463,375.393L546.763,371.239L541.132,367.421L533.043,370.368L535.105,367.221L533.677,363.136L529.315,368.627L521.384,363.404L519.56,355.708L520.036,349.153L517.26,342.134L509.805,340.998L504.015,346.813L500.05,352.965L503.064,355.708L497.433,358.384L497.353,361.061L491.722,356.778L488.708,356.778L489.422,351.962L486.805,352.698L487.043,347.147L480.222,343.871L488.233,338.859L492.674,340.931L498.86,338.191L499.098,331.245L501.477,325.57L500.922,316.762L498.543,316.028L502.746,310.027L505.522,303.162L503.46,302.363L507.346,290.509L502.588,288.712L499.891,283.589L496.957,282.923L491.722,277.137L487.915,277.802L484.188,274.943L487.836,269.825L485.377,266.968L487.36,260.06L493.308,260.724L498.464,258.865L504.015,260.658L505.522,263.115L516.07,254.019L515.198,248.91L521.067,247.782L522.415,253.289L528.205,259.728L534.074,257.338L536.532,260.193L540.419,258.666L547.477,250.635L557.55,242.608L561.991,242.741L566.67,239.028L570.319,241.017L575.553,240.222L574.839,244.797L574.76,248.047L574.363,248.71L574.205,248.843L574.839,249.971L574.522,250.568L579.677,256.342L585.863,253.156L585.863,253.156L592.763,248.644L599.743,242.277L601.646,246.19L607.674,252.493L604.581,256.276L606.881,260.724L615.05,251.364L617.27,246.72L630.118,237.835L631.15,241.083L635.115,240.155L637.256,234.124L641.698,232.931L646.298,228.294L645.743,225.512L651.532,222.533L661.684,214.194L667.87,212.143L676.356,207.58L682.701,210.292L691.029,209.696L692.456,216.642L696.184,220.348L700.546,220.481L709.508,206.06L709.746,200.639L712.204,197.401L708.08,196.344L708.001,190.731L705.463,190.532L705.384,183.271L708.873,179.642L713.156,178.982L715.694,174.234L713.156,171.53L709.984,158.681L710.777,154.203L705.225,141.899L696.898,141.767L694.677,138.414L688.332,133.549L682.86,134.075L686.032,129.147L676.356,127.833L669.06,123.17L654.863,124.089L657.163,117.655L659.622,117.064L656.132,113.717L655.339,104.47L649.153,101.978L641.301,103.027L636.622,101.126L631.943,100.667L625.915,102.437L618.618,101.585L610.291,103.879L597.443,102.372L597.601,98.964L593.874,96.867L597.205,94.705L596.729,91.757L586.339,89.4L585.784,84.49L577.06,79.712L572.222,75.003L559.453,68.464L548.588,67.876L540.26,60.885L533.836,59.644L529.157,56.117L526.936,52.2L519.56,52.657L507.743,43.783L502.429,43L498.067,40L494.26,42.413L483.791,40.913L480.064,43.717L481.333,46.066L481.333,46.066L481.253,46.131L481.253,46.131L483.87,46.979L490.691,54.289L487.757,58.011L480.381,55.986L476.733,57.227L479.033,61.342L474.829,63.302L480.064,67.353L477.684,69.576L471.974,66.242L465.788,70.164L476.653,83.835L482.126,84.686L482.76,87.828L487.677,90.447L491.008,89.858L491.96,94.181L501.319,97.129L497.512,100.143L498.701,105.322L502.826,108.994L499.257,108.929L492.753,112.733L489.422,113.061L482.681,118.508L482.126,124.614L476.098,125.271L476.733,128.687L465.233,130.461L462.536,129.409L457.064,131.315L457.302,134.469L461.267,134.929L460.236,141.833L452.226,146.898L456.35,151.307L444.691,160.13L437.395,162.106L436.443,166.718L442.233,164.807L443.978,168.3L435.729,179.708L433.588,180.566L435.888,186.703L440.171,187.958L432.874,191.391L430.257,196.741L425.022,196.08L425.736,205.134L431.764,206.456L426.767,209.762L413.285,221.341L405.116,217.9L402.022,218.23L401.626,212.342L398.929,209.564L392.902,210.688L386.716,217.701L377.992,214.26L370.06,213.4L365.857,215.451L367.84,219.223L362.129,224.056L362.129,224.056L358.323,228.095L362.685,232.666L365.143,237.835L370.219,240.42L366.174,246.389L358.719,252.957L360.702,254.749L356.26,256.276L351.105,263.115L347.298,273.68L340.795,279.997L336.829,289.045L332.15,295.902L316.923,311.827L313.988,311.294L314.543,315.228L311.133,317.896L310.816,318.23L310.657,318.163L310.578,317.829L306.295,318.697L301.299,312.494L300.585,312.694L296.54,318.63L292.495,320.164L285.912,319.164L282.661,317.029L281.233,319.431L281.233,319.431L275.999,321.232L269.178,319.964L268.147,315.895L264.974,313.894L265.054,309.027L261.485,307.694L262.119,303.229L256.25,299.432L253.633,293.105L253.712,293.105L253.633,293.105L253.712,293.105L253.712,293.105L253.792,293.105L253.792,293.105L257.599,291.707L253.633,285.784L247.05,282.857L245.068,285.252L239.119,285.385L231.506,283.722L230.078,290.642L226.588,292.24L219.847,291.84L217.944,294.37L214.375,292.772L213.026,296.967L208.902,296.435L208.426,298.1L204.857,299.498L198.116,293.438L196.609,284.32L191.93,281.726L192.009,284.453L184.237,280.462L179.002,275.342L167.582,275.541L162.109,271.287L155.13,270.623L152.433,267.3L148.151,268.43L144.027,273.946L143.313,279.332L138.158,281.859L138.871,290.909L138.871,290.909L132.447,290.709L126.578,287.913L125.944,293.305L131.416,296.368L128.878,299.432L118.409,299.765L117.061,300.364L115.158,303.762L122.93,302.963L120.075,306.628L120.868,306.761L121.185,307.028L121.185,307.494L128.799,310.427L128.402,313.628L133.24,314.695L134.589,318.43L138.792,317.963L143.154,321.099L139.268,326.638L140.22,328.907L136.571,333.114L138.475,337.122L141.251,337.456L137.285,343.938L124.754,344.406L121.185,346.746L120.154,356.377L114.285,361.061L108.178,359.723L107.544,365.346L100.168,363.605L95.171,371.306L90.889,372.177L88.985,375.929L84.306,378.676L85.416,383.704L89.62,393.094L89.144,395.376L95.964,393.564L95.964,393.564L97.551,395.711L94.14,397.993L101.04,398.194L103.023,400.611L100.009,406.856L100.247,412.096L106.037,410.618L105.244,415.053L112.223,415.725L113.254,418.145L117.933,416.33L127.451,416.128L129.513,419.624L135.62,415.187L137.84,423.995L136.73,429.444L139.982,434.895L142.995,435.5L139.982,438.53L143.709,443.311L141.647,447.151L144.82,450.452L144.264,453.35L149.34,457.598L148.785,460.43L153.068,459.351L155.923,461.576L163.299,462.453L170.913,456.586L175.037,455.575L180.113,457.935L181.223,464.274L183.999,462.52L187.964,465.219L193.992,464.881L197.164,462.453L201.526,464.477L208.982,472.034L206.523,475.68L209.378,480.609L210.171,485.811L214.216,490.271L214.057,497.302L219.53,505.826L217.626,509.751ZM574.76,248.047L574.839,244.797L573.094,248.91L573.888,248.843L574.205,248.843L574.363,248.71ZM121.185,307.494L121.185,307.028L120.868,306.761L120.075,306.628ZM573.888,248.843L573.094,248.91L574.522,250.568L574.839,249.971ZM311.133,317.896L310.578,317.829L310.657,318.163L310.816,318.23Z" fill="#e6f4ea" stroke="#137333" stroke-width="4" stroke-linejoin="round" stroke-linecap="round" />
  
  <!-- 内发光描边 -->
  <path d="M223.099,513.271L226.826,507.585L236.344,512.662L239.912,510.834L234.995,505.487L238.326,504.811L239.595,495.815L242.926,493.719L238.247,485.406L234.361,482.973L233.25,475.747L235.947,473.722L247.209,483.582L247.13,488.379L250.54,491.893L254.347,491.961L254.426,495.071L258.788,497.37L254.506,497.911L256.885,500.752L252.999,504.608L254.109,510.225L248.002,513.542L247.606,518.486L256.33,516.115L264.737,519.569L266.085,522.957L271.081,520.789L268.385,514.219L269.971,509.548L275.047,508.465L272.35,502.781L275.919,500.278L278.854,505.081L281.868,500.684L286.468,500.549L289.402,491.353L286.388,492.096L280.995,483.582L283.771,480.407L287.181,480.879L293.764,476.692L297.412,482.23L302.171,481.015L301.536,471.359L306.136,470.01L305.74,467.31L321.919,466.636L330.247,469.132L328.74,473.047L332.943,473.317L330.802,475.68L331.912,481.487L335.402,482.838L337.305,478.921L345.871,476.557L347.378,472.034L353.088,471.697L356.895,463.6L360.464,459.418L356.816,457.328L354.754,453.013L350.55,450.991L354.595,446.881L351.264,440.415L356.736,440.011L358.719,435.635L356.26,434.423L355.388,428.434L360.464,425.945L366.333,429.78L377.119,424.129L379.498,432.875L381.64,430.991L388.619,431.26L393.853,434.019L400.119,426.484L408.05,434.289L404.719,446.005L409.715,447.824L407.971,454.227L415.347,457.328L417.329,451.396L420.66,451.261L422.881,448.027L435.809,447.083L441.519,441.089L451.75,445.332L457.302,442.907L465.391,447.016L468.167,440.415L471.895,442.031L470.784,446.342L473.56,457.193L476.891,459.486L478.477,465.961L477.05,470.28L477.843,475.95L482.126,477.57L482.046,481.555L477.129,486.149L475.226,493.516L488.946,499.331L496.957,500.278L497.115,498.858L506.553,496.018L514.326,500.955L510.281,504.879L511.074,511.511L506.315,512.594L507.981,521.263L510.915,524.854L510.836,528.513L506.633,531.225L507.108,536.785L511.153,539.159L518.37,537.938L516.943,534.615L522.177,529.327L521.067,526.616L514.881,522.144L517.022,519.569L522.574,518.892L523.764,516.454L528.522,522.889L532.884,526.141L530.267,530.75L533.281,531.971L530.505,541.805L525.984,544.655L527.491,551.578L531.933,553.547L538.198,549.406L542.56,555.245L547.715,552.665L551.363,553.004L552.157,556.468L561.912,560L564.608,552.597L572.301,557.215L574.284,554.906L571.667,549.066L576.267,545.198L580.787,535.904L580.946,527.226L585.863,520.314L591.256,519.84L596.491,517.267L596.412,511.647L602.36,506.3L600.694,501.022L593.636,502.849L591.494,501.158L587.132,503.999L586.022,499.061L596.094,494.462L593.715,491.893L599.108,487.973L599.663,484.73L592.208,480.947L592.922,477.773L591.494,467.378L594.825,458.339L598.87,453.822L599.108,450.25L602.36,446.746L601.408,443.648L592.129,441.089L591.098,436.847L588.956,433.481L582.136,428.905L579.122,430.453L575.394,424.331L579.439,417.405L574.919,415.053L575.632,405.714L568.97,400.275L565.639,405.781L561.119,405.378L559.057,409.341L550.808,410.215L552.712,400.745L551.839,396.114L546.288,395.443L543.988,391.618L546.843,387.526L545.494,382.765L550.015,378.207L548.429,374.32L544.463,375.393L546.763,371.239L541.132,367.421L533.043,370.368L535.105,367.221L533.677,363.136L529.315,368.627L521.384,363.404L519.56,355.708L520.036,349.153L517.26,342.134L509.805,340.998L504.015,346.813L500.05,352.965L503.064,355.708L497.433,358.384L497.353,361.061L491.722,356.778L488.708,356.778L489.422,351.962L486.805,352.698L487.043,347.147L480.222,343.871L488.233,338.859L492.674,340.931L498.86,338.191L499.098,331.245L501.477,325.57L500.922,316.762L498.543,316.028L502.746,310.027L505.522,303.162L503.46,302.363L507.346,290.509L502.588,288.712L499.891,283.589L496.957,282.923L491.722,277.137L487.915,277.802L484.188,274.943L487.836,269.825L485.377,266.968L487.36,260.06L493.308,260.724L498.464,258.865L504.015,260.658L505.522,263.115L516.07,254.019L515.198,248.91L521.067,247.782L522.415,253.289L528.205,259.728L534.074,257.338L536.532,260.193L540.419,258.666L547.477,250.635L557.55,242.608L561.991,242.741L566.67,239.028L570.319,241.017L575.553,240.222L574.839,244.797L574.76,248.047L574.363,248.71L574.205,248.843L574.839,249.971L574.522,250.568L579.677,256.342L585.863,253.156L585.863,253.156L592.763,248.644L599.743,242.277L601.646,246.19L607.674,252.493L604.581,256.276L606.881,260.724L615.05,251.364L617.27,246.72L630.118,237.835L631.15,241.083L635.115,240.155L637.256,234.124L641.698,232.931L646.298,228.294L645.743,225.512L651.532,222.533L661.684,214.194L667.87,212.143L676.356,207.58L682.701,210.292L691.029,209.696L692.456,216.642L696.184,220.348L700.546,220.481L709.508,206.06L709.746,200.639L712.204,197.401L708.08,196.344L708.001,190.731L705.463,190.532L705.384,183.271L708.873,179.642L713.156,178.982L715.694,174.234L713.156,171.53L709.984,158.681L710.777,154.203L705.225,141.899L696.898,141.767L694.677,138.414L688.332,133.549L682.86,134.075L686.032,129.147L676.356,127.833L669.06,123.17L654.863,124.089L657.163,117.655L659.622,117.064L656.132,113.717L655.339,104.47L649.153,101.978L641.301,103.027L636.622,101.126L631.943,100.667L625.915,102.437L618.618,101.585L610.291,103.879L597.443,102.372L597.601,98.964L593.874,96.867L597.205,94.705L596.729,91.757L586.339,89.4L585.784,84.49L577.06,79.712L572.222,75.003L559.453,68.464L548.588,67.876L540.26,60.885L533.836,59.644L529.157,56.117L526.936,52.2L519.56,52.657L507.743,43.783L502.429,43L498.067,40L494.26,42.413L483.791,40.913L480.064,43.717L481.333,46.066L481.333,46.066L481.253,46.131L481.253,46.131L483.87,46.979L490.691,54.289L487.757,58.011L480.381,55.986L476.733,57.227L479.033,61.342L474.829,63.302L480.064,67.353L477.684,69.576L471.974,66.242L465.788,70.164L476.653,83.835L482.126,84.686L482.76,87.828L487.677,90.447L491.008,89.858L491.96,94.181L501.319,97.129L497.512,100.143L498.701,105.322L502.826,108.994L499.257,108.929L492.753,112.733L489.422,113.061L482.681,118.508L482.126,124.614L476.098,125.271L476.733,128.687L465.233,130.461L462.536,129.409L457.064,131.315L457.302,134.469L461.267,134.929L460.236,141.833L452.226,146.898L456.35,151.307L444.691,160.13L437.395,162.106L436.443,166.718L442.233,164.807L443.978,168.3L435.729,179.708L433.588,180.566L435.888,186.703L440.171,187.958L432.874,191.391L430.257,196.741L425.022,196.08L425.736,205.134L431.764,206.456L426.767,209.762L413.285,221.341L405.116,217.9L402.022,218.23L401.626,212.342L398.929,209.564L392.902,210.688L386.716,217.701L377.992,214.26L370.06,213.4L365.857,215.451L367.84,219.223L362.129,224.056L362.129,224.056L358.323,228.095L362.685,232.666L365.143,237.835L370.219,240.42L366.174,246.389L358.719,252.957L360.702,254.749L356.26,256.276L351.105,263.115L347.298,273.68L340.795,279.997L336.829,289.045L332.15,295.902L316.923,311.827L313.988,311.294L314.543,315.228L311.133,317.896L310.816,318.23L310.657,318.163L310.578,317.829L306.295,318.697L301.299,312.494L300.585,312.694L296.54,318.63L292.495,320.164L285.912,319.164L282.661,317.029L281.233,319.431L281.233,319.431L275.999,321.232L269.178,319.964L268.147,315.895L264.974,313.894L265.054,309.027L261.485,307.694L262.119,303.229L256.25,299.432L253.633,293.105L253.712,293.105L253.633,293.105L253.712,293.105L253.712,293.105L253.792,293.105L253.792,293.105L257.599,291.707L253.633,285.784L247.05,282.857L245.068,285.252L239.119,285.385L231.506,283.722L230.078,290.642L226.588,292.24L219.847,291.84L217.944,294.37L214.375,292.772L213.026,296.967L208.902,296.435L208.426,298.1L204.857,299.498L198.116,293.438L196.609,284.32L191.93,281.726L192.009,284.453L184.237,280.462L179.002,275.342L167.582,275.541L162.109,271.287L155.13,270.623L152.433,267.3L148.151,268.43L144.027,273.946L143.313,279.332L138.158,281.859L138.871,290.909L138.871,290.909L132.447,290.709L126.578,287.913L125.944,293.305L131.416,296.368L128.878,299.432L118.409,299.765L117.061,300.364L115.158,303.762L122.93,302.963L120.075,306.628L120.868,306.761L121.185,307.028L121.185,307.494L128.799,310.427L128.402,313.628L133.24,314.695L134.589,318.43L138.792,317.963L143.154,321.099L139.268,326.638L140.22,328.907L136.571,333.114L138.475,337.122L141.251,337.456L137.285,343.938L124.754,344.406L121.185,346.746L120.154,356.377L114.285,361.061L108.178,359.723L107.544,365.346L100.168,363.605L95.171,371.306L90.889,372.177L88.985,375.929L84.306,378.676L85.416,383.704L89.62,393.094L89.144,395.376L95.964,393.564L95.964,393.564L97.551,395.711L94.14,397.993L101.04,398.194L103.023,400.611L100.009,406.856L100.247,412.096L106.037,410.618L105.244,415.053L112.223,415.725L113.254,418.145L117.933,416.33L127.451,416.128L129.513,419.624L135.62,415.187L137.84,423.995L136.73,429.444L139.982,434.895L142.995,435.5L139.982,438.53L143.709,443.311L141.647,447.151L144.82,450.452L144.264,453.35L149.34,457.598L148.785,460.43L153.068,459.351L155.923,461.576L163.299,462.453L170.913,456.586L175.037,455.575L180.113,457.935L181.223,464.274L183.999,462.52L187.964,465.219L193.992,464.881L197.164,462.453L201.526,464.477L208.982,472.034L206.523,475.68L209.378,480.609L210.171,485.811L214.216,490.271L214.057,497.302L219.53,505.826L217.626,509.751ZM574.76,248.047L574.839,244.797L573.094,248.91L573.888,248.843L574.205,248.843L574.363,248.71ZM121.185,307.494L121.185,307.028L120.868,306.761L120.075,306.628ZM573.888,248.843L573.094,248.91L574.522,250.568L574.839,249.971ZM311.133,317.896L310.578,317.829L310.657,318.163L310.816,318.23Z" fill="none" stroke="#2e7d32" stroke-width="1.5" stroke-linejoin="round" stroke-linecap="round" opacity="0.6" />
</svg>