<svg xmlns="http://www.w3.org/2000/svg" width="800" height="600" viewBox="0 0 800 600">
  <!-- 背景色，采用淡米黄色 -->
  <rect width="100%" height="100%" fill="#f5f2eb" />
  
  <!-- 阴影层 -->
  <path d="M288.072,487.514L288.226,488.954L286.638,493.476L287.413,494.012L286.096,498.504L291.907,501.12L291.791,502.563L294.154,502.798L294.348,506.087L297.099,506.087L300.508,507.296L302.639,509.949L300.082,514.35L301.864,515.493L302.019,517.409L304.925,516.299L306.358,516.905L305.545,514.182L306.823,513.409L309.806,514.552L306.01,519.326L307.792,520.537L306.513,522.589L306.552,524.742L302.833,524.843L302.406,525.651L304.111,529.456L306.358,531.713L309.38,531.443L310.852,533.499L313.099,534.308L317.632,538.42L317.477,540.41L319.066,541.085L317.787,542.839L315.075,543.818L314.378,545.303L317.167,548.746L320.926,547.7L323.87,549.084L326.156,552.293L328.325,553.07L327.628,555.672L330.34,557.701L330.069,560L331.464,559.797L334.098,556.652L335.958,556.247L337.546,557.565L341.731,556.822L345.45,558.783L347.193,558.58L349.983,556.01L351.416,553.644L355.678,550.908L355.833,549.523L362.381,547.497L365.093,544.223L368.115,543.986L374.507,541.591L376.328,540.073L380.009,541.692L380.59,543.548L378.188,547.126L381.868,548.949L385.045,549.658L386.944,545.978L389.811,544.088L392.833,543.615L395.7,539.972L396.591,541.591L401.782,541.456L403.216,539.499L402.596,536.903L402.673,532.522L405.23,532.319L406.625,530.534L406.625,527.941L405.54,527.873L404.959,521.108L403.642,520.167L403.836,518.182L402.286,514.652L402.789,514.115L401.201,510.184L400.116,509.848L396.784,505.483L396.707,499.879L395.196,498.303L397.869,491.566L397.288,485.673L395.971,483.731L396.009,481.155L397.017,480.018L399.613,474.468L402.673,476.841L406.819,474.234L408.407,475.036L412.204,473.533L412.398,471.662L415.304,467.053L417.938,464.149L421.309,464.65L421.696,460.18L425.299,457.312L426.578,455.412L428.05,455.379L432.312,450.948L433.978,449.982L435.372,446.919L434.907,442.727L438.201,438.437L435.76,439.268L433.9,434.98L432.195,435.744L430.413,434.283L432.893,429.4L436.845,426.479L439.363,422.565L443.818,420.708L446.84,422.465L447.46,424.588L449.862,422.233L451.799,422.399L455.441,419.149L458.502,417.194L456.991,414.643L457.417,412.954L455.441,409.411L455.519,408.153L452.497,404.051L453.814,401.67L456.061,400.149L455.712,399.025L456.836,395.127L459.161,398.1L460.555,397.373L463.306,399.29L469.97,397.604L472.256,399.124L473.612,397.208L476.944,396.646L480.74,397.109L482.096,395.523L483.646,397.34L486.009,398.364L489.651,396.25L492.983,397.67L492.48,399.455L489.845,399.686L488.605,402.166L486.552,403.058L482.6,403.356L483.065,405.671L482.213,411.695L483.956,415.504L485.971,417.791L487.792,416.067L490.426,416.332L490.93,418.752L492.635,420.111L494.494,420.111L495.308,421.901L494.068,423.792L491.511,424.323L491.782,426.181L494.184,426.878L494.455,429.932L491.433,431.326L489.69,433.851L485.351,433.884L485.622,434.814L489.031,436.276L491.433,440.099L494.494,441.629L498.175,444.756L499.26,444.057L502.281,447.119L504.451,446.021L506.04,446.487L508.752,444.59L512.975,443.259L514.137,444.357L516.345,443.292L519.212,443.359L522.079,442.46L523.978,440.93L523.048,439.467L527.542,435.778L527.891,433.12L529.247,433.053L533.005,430.994L536.647,432.555L539.707,432.588L540.87,433.651L539.669,435.744L540.831,437.373L542.845,437.672L544.705,436.509L546.139,437.273L547.03,441.13L543.775,443.658L545.441,447.918L548.812,448.983L546.332,449.982L547.572,451.514L547.378,455.179L548.502,455.646L551.369,452.88L556.793,451.214L561.093,451.614L564.348,454.712L567.176,454.979L568.338,458.079L570.895,456.979L574.421,456.979L574.576,455.579L577.404,454.812L582.48,455.512L583.719,453.913L587.167,453.013L587.516,454.079L591.08,452.813L593.483,453.013L596.04,451.114L599.604,450.948L604.176,452.547L607.275,451.714L611.304,449.116L613.241,445.954L612.467,443.458L611.188,443.425L611.382,441.064L612.66,440.066L610.026,436.642L607.508,436.343L608.786,432.887L605.028,428.637L601.154,426.845L597.899,426.845L590.499,430.297L588.485,428.073L585.424,429.566L583.254,427.044L585.075,422.134L582.48,421.006L580.969,417.824L578.644,415.968L577.21,417.691L577.21,417.691L575.506,418.023L575.041,419.978L572.445,419.216L569.346,416.697L570.314,414.278L569.617,409.974L567.641,409.477L568.338,404.514L572.058,403.488L572.716,400.05L573.956,400.182L575.971,398.298L576.746,399.951L578.45,398.662L579.961,399.356L584.765,399.653L585.075,394.895L588.097,393.905L589.918,389.217L592.088,390.306L593.947,393.376L597.396,394.202L598.519,397.076L601.347,396.646L602.781,397.505L603.633,400.05L608.05,403.158L610.413,403.29L611.188,405.308L613.978,407.293L615.876,406.896L615.566,404.018L612.893,402.298L613.823,400.38L611.149,396.217L611.227,392.782L609.251,390.603L608.864,388.062L607.469,385.654L608.67,383.873L605.028,380.181L602.897,379.193L601.347,380.379L598.403,380.544L596.466,379.226L595.11,380.083L594.567,376.986L592.088,375.833L590.073,376.327L586.354,379.193L582.751,378.764L581.356,377.677L579.264,378.204L579.535,376.821L577.055,374.746L577.327,373.331L575.777,371.718L576.784,369.842L574.963,367.506L576.436,366.026L574.963,365.731L573.375,363.068L573.917,360.406L572.833,356.104L569.849,358.271L568.842,356.563L564.193,356.662L561.907,357.548L561.403,356.366L557.994,356.038L558.381,353.871L555.553,354.593L555.437,352.034L556.909,348.983L555.941,347.802L552.57,347.704L554.236,346.589L553.461,345.54L553.461,345.54L550.129,346.426L550.362,345.311L548.308,340.724L547.766,338.268L550.052,336.926L550.981,335.093L553.074,334.667L555.514,330.906L559.117,331.756L559.427,329.009L562.411,329.663L565.278,327.375L565.781,322.67L567.525,321.527L573.646,321.298L575.583,318.132L574.227,317.969L573.297,316.011L575.08,313.956L574.615,312.847L576.513,310.141L574.382,308.609L572.329,308.838L571.67,307.013L569.307,306.492L569.501,304.928L565.781,303.495L565.239,303.072L566.634,301.282L562.837,301.672L563.767,300.013L564.115,299.492L564.27,299.622L564.425,299.72L569.539,299.557L570.779,298.06L568.106,296.564L568.416,293.93L571.283,295.296L574.421,295.393L574.421,295.393L574.072,290.973L576.591,289.738L576.939,287.107L578.954,284.412L581.046,283.861L582.363,285.484L585.773,285.808L588.446,287.887L594.025,287.789L596.582,290.29L600.379,292.24L600.34,290.908L602.626,292.175L603.362,296.629L606.655,299.59L608.399,298.906L608.399,298.451L608.399,298.223L608.631,298.093L610.646,298.353L611.304,296.304L613.048,297.085L613.978,295.849L617.271,296.044L618.975,295.263L619.673,291.883L623.392,292.695L626.298,292.63L627.266,291.46L630.482,292.89L632.419,295.784L630.56,296.467L630.56,296.467L630.521,296.467L630.521,296.467L630.482,296.467L630.521,296.467L630.482,296.467L631.761,299.557L634.628,301.412L634.318,303.593L636.061,304.244L636.022,306.622L637.572,307.599L638.076,309.587L641.408,310.206L643.965,309.326L643.965,309.326L644.662,308.153L646.25,309.196L649.466,309.685L651.442,308.935L653.418,306.036L653.379,305.742L653.457,305.742L653.495,305.775L653.573,305.775L653.65,305.742L653.689,305.775L653.767,305.938L656.207,308.968L658.3,308.544L658.571,308.577L660.237,307.274L659.965,305.352L661.399,305.612L668.838,297.833L671.123,294.483L673.061,290.063L676.238,286.977L678.097,281.816L680.616,278.475L682.785,277.729L681.817,276.854L685.458,273.645L687.434,270.73L684.955,269.467L683.754,266.942L681.623,264.709L683.483,262.736L683.483,262.736L686.272,260.375L685.303,258.533L687.357,257.531L691.231,257.951L695.493,259.632L698.515,256.206L701.459,255.657L702.776,257.014L702.97,259.89L704.481,259.729L708.472,261.41L715.058,255.754L717.499,254.138L714.554,253.492L714.206,249.07L716.763,249.393L718.041,246.779L721.606,245.102L719.513,244.489L718.39,241.491L719.436,241.072L723.465,235.499L722.613,233.793L719.785,234.727L720.25,232.473L723.814,231.508L729.509,227.198L727.495,225.044L731.408,222.57L731.911,219.198L729.974,218.973L729.858,217.432L732.531,216.501L733.848,217.015L739.466,216.148L739.156,214.48L742.101,214.159L742.372,211.176L745.665,208.515L747.292,208.355L750.469,206.496L752.213,206.528L750.198,204.734L749.617,202.205L751.476,200.732L746.905,199.292L746.44,197.18L744.813,197.468L742.411,196.189L742.101,194.654L739.427,194.238L734.12,187.56L737.142,185.644L739.931,187.272L741.093,186.187L738.536,184.208L740.59,183.25L739.466,181.24L741.248,180.634L744.851,181.623L746.285,179.805L742.953,176.234L741.675,175.82L741.675,175.82L741.713,175.788L741.713,175.788L741.093,174.641L742.914,173.271L748.028,174.003L749.888,172.825L749.733,170.022L747.37,168.462L743.883,169.608L742.333,168.908L737.374,170.882L732.957,168.208L729.122,171.551L727.688,170.436L726.836,171.678L723.272,170.818L718.971,172.156L719.358,174.322L716.53,176.298L713.082,173.079L710.913,171.996L709.285,172.825L705.992,169.895L702.312,164.199L699.445,164.612L697.74,160.511L695.687,159.462L692.548,159.589L688.093,161.432L685.73,158.731L683.637,159.208L683.909,156.952L682.514,156.19L682.359,152.157L678.95,151.491L677.361,153.618L674.649,154.665L673.022,156.73L671.511,160.129L668.256,158.509L666.862,156.031L662.91,155.142L659.965,151.364L661.709,147.684L661.128,144.641L658.687,142.327L659.113,140.902L655.704,140.11L649.427,141.187L648.846,140.11L645.786,139.92L643.81,141.123L641.911,140.648L641.291,139.192L638.153,138.97L634.163,141.789L631.451,142.581L628.855,142.201L624.593,143.436L623.353,144.641L620.409,143.975L618.51,146.701L616.496,146.067L613.9,143.278L610.956,142.707L608.864,143.119L608.05,141.852L602.975,141.599L599.565,140.205L596.504,137.799L596.582,137.45L597.899,133.653L596.504,133.368L594.8,131.091L592.746,133.305L590.073,132.072L587.71,133.526L585.308,132.736L582.518,134.033L581.007,133.621L580.852,137.039L578.14,138.305L577.482,137.197L574.344,137.704L571.748,139.793L566.634,141.504L565.936,139.635L564.58,139.888L564.038,135.52L562.721,135.741L562.101,132.166L560.28,130.554L560.512,128.12L558.536,126.982L555.166,127.488L554.778,129.763L553.074,130.364L554.042,131.977L554.042,131.977L556.018,136.153L557.684,137.229L557.335,139.382L552.299,140.648L550.943,142.549L547.843,144.165L545.674,144.45L542.923,143.563L542.652,145.433L540.753,146.638L536.104,148.128L534.09,145.401L530.796,144.577L524.404,147.272L521.692,147.684L519.406,144.355L517.817,143.785L516.268,145.021L512.742,145.528L510.03,143.119L506.659,143.848L503.483,141.725L502.863,140.047L499.337,139.667L498.407,138.083L495.075,138.4L489.109,133.748L484.731,132.925L483.646,128.72L484.344,126.192L487.947,126.35L490,125.529L490.349,122.94L493.022,121.898L490.852,120.351L487.443,120.193L490,115.714L488.295,112.593L486.862,108.498L486.591,105.665L485.312,103.431L487.21,102.738L490.504,103.808L492.635,102.015L489.729,100.883L484.615,101.417L483.336,97.959L480.082,97.142L479.617,94.471L477.563,92.838L475.975,88.444L477.331,84.868L472.721,80.857L469.117,79.416L464.972,80.387L457.495,79.666L452.264,81.139L446.763,78.946L445.329,79.447L443.935,78.006L440.641,77.537L438.782,78.57L438.046,80.355L436.031,79.917L437.619,77.317L435.915,71.809L432.544,72.122L430.646,75.22L425.609,75.815L420.844,73.874L421.231,72.122L419.023,71.372L417.667,72.592L413.715,71.903L412.979,71.059L414.722,65.932L413.676,64.12L411.584,63.964L410.887,62.621L413.211,59.749L412.591,57.378L410.848,57.503L411.468,55.538L414.567,54.665L410.964,52.608L411.119,49.492L409.608,48.246L406.586,47.405L403.681,48.059L401.627,46.751L401.898,43.795L400.116,41.306L397.753,40L394.498,40.746L394.305,42.644L390.624,42.519L389.462,44.79L386.246,44.853L384.115,47.187L382.178,47.561L381.365,49.243L378.071,50.395L381.675,52.545L381.248,54.634L379.156,53.418L372.609,54.26L370.052,55.101L367.921,54.197L365.984,57.597L365.093,61.466L362.148,61.591L360.288,60.062L358.468,61.092L356.065,60.53L354.632,61.997L350.99,60.748L348.976,61.872L356.337,68.401L356.84,70.934L355.717,73.092L359.049,73.28L360.831,75.126L358.313,77.349L361.954,76.942L360.25,80.731L362.226,84.492L368.115,86.436L370.478,88.413L368.502,89.103L369.432,91.049L369.509,94.314L368.579,93.969L365.131,97.142L363.62,96.639L359.94,97.55L359.049,96.545L356.647,96.828L354.128,100.6L352.501,101.386L354.09,106.987L353.043,108.53L350.486,107.302L349.518,105.35L347.774,104.437L346.031,108.278L346.031,109.695L343.861,110.64L340.026,110.01L336.345,110.829L335.493,112.909L333.323,114.043L331.967,116.093L329.449,115.084L330.456,110.955L329.72,109.128L325.962,106.924L325.923,105.665L332.703,102.801L333.323,98.43L335.105,95.791L337.043,94.723L334.524,92.273L334.563,88.664L333.13,86.217L330.611,84.68L329.798,87.691L326.776,87.566L325.885,88.695L326.427,89.009L325.885,93.906L321.274,95.288L319.26,98.43L318.369,102.267L320.151,103.871L323.793,104.972L322.165,109.191L318.64,112.341L319.105,114.043L317.361,116.219L312.596,112.058L309.923,110.451L308.179,108.309L302.871,108.404L301.825,109.537L302.29,112.656L301.515,112.94L296.208,106.074L291.21,106.452L289.001,105.633L287.374,107.711L285.359,108.656L284.778,110.325L288.188,116.282L286.561,117.165L286.715,119.026L289.118,119.972L288.304,121.961L289.079,123.571L285.631,123.255L285.979,125.592L285.321,128.246L288.73,129.321L291.597,131.66L292.449,133.59L291.558,139.825L287.413,143.88L285.359,144.07L282.376,142.549L279.432,143.943L277.34,146.004L274.783,146.416L273.233,147.716L270.443,145.687L267.073,144.672L263.121,144.989L258.046,142.834L259.402,144.894L259.285,147.113L256.961,145.972L256.225,146.733L255.992,151.11L255.217,152.38L252.544,150.666L248.902,149.651L247.12,145.718L244.176,141.789L242.975,141.789L241.038,139.445L238.403,141.535L239.72,137.925L235.962,140.237L230.887,138.78L229.143,141.694L229.066,144.577L227.71,147.335L226.548,145.813L221.511,145.211L220.155,143.405L223.371,139.92L221.976,135.013L222.363,132.831L218.683,129.131L216.474,129.131L217.017,127.046L211.864,125.845L211.322,123.413L206.905,119.72L206.905,123.003L205.239,126.256L202.372,126.319L201.287,125.308L199.776,127.33L201.52,129.921L199.931,133.526L199.544,137.07L196.871,139.413L195.786,137.26L192.376,136.754L191.989,135.741L188.773,135.836L186.836,132.704L180.211,131.249L175.368,128.878L173.973,129.795L168.627,130.238L167.232,127.361L166.496,123.697L165.217,123.129L164.055,120.351L159.561,119.689L157.391,117.606L153.246,116.629L152.626,117.48L149.914,116.408L149.643,115.336L146.815,115.115L142.824,113.098L139.415,108.782L139.26,105.57L136.586,105.161L137.865,99.279L135.114,96.985L135.502,92.524L134.456,90.923L131.472,89.699L129.574,88.068L129.845,85.151L127.985,84.21L127.637,82.486L130.116,81.859L127.211,79.635L125.467,76.566L122.755,75.627L121.438,73.906L119.888,74.218L119.811,72.498L117.951,69.214L116.169,69.558L114.425,68.026L115.588,65.151L114.929,62.403L116.518,60.842L115.743,57.846L113.767,56.349L113.961,54.322L110.474,53.73L105.05,54.447L101.795,54.384L98.773,52.95L94.976,51.953L90.598,51.953L85.949,47.685L82.424,46.502L76.883,46.627L76.031,47.156L76.031,47.156L75.566,48.184L75.566,48.184L74.133,49.71L67.779,51.704L70.103,57.378L66.965,59.781L67.43,62.434L65.493,64.745L63.75,64.089L58.752,65.776L57.589,65.214L54.877,66.776L50.771,66.651L50.964,69.214L49.298,69.62L49.376,71.153L51.468,72.56L52.514,75.095L52.204,76.754L53.289,79.666L52.049,84.492L54.219,85.966L58.829,86.28L58.093,89.825L60.65,93.278L65.261,93.561L68.36,95.351L73.358,96.796L68.437,101.134L65.067,101.386L64.137,105.979L60.418,109.758L56.582,111.995L57.241,113.917L56.543,115.84L58.442,116.439L60.03,120.32L57.357,121.866L58.868,123.287L53.483,124.076L49.531,125.308L47.787,129.131L49.57,129.732L50.616,133.368L50.19,136.469L52.902,140.553L52.553,141.155L56.272,144.324L59.565,145.338L60.108,146.384L64.137,146.86L64.718,148.604L69.987,151.84L71.886,152.316L75.954,152.697L76.69,154.03L80.254,154.094L81.261,154.888L85.058,155.142L93.814,159.367L95.558,160.86L96.681,160.256L102.57,163.944L101.95,165.471L103.306,168.972L102.57,170.723L105.166,172.347L107.878,177.828L111.287,179.996L114.27,182.644L114.154,183.793L116.169,185.006L116.014,190.339L113.922,192.032L115.626,194.494L114.89,196.029L117.835,198.044L120.818,201.084L121.322,203.261L123.143,203.261L123.646,206.849L127.753,211.176L129.768,211.978L132.635,214.512L133.758,216.373L141.933,221.349L141.855,222.217L144.606,224.819L139.802,229.095L139.492,230.833L137.439,232.699L132.325,227.423L129.303,227.07L127.559,229.288L126.784,232.184L128.024,234.469L126.707,236.304L131.279,238.688L133.487,240.975L133.603,243.167L135.153,245.295L137.555,246.424L139.531,248.65L138.95,251.62L137.516,254.171L138.95,255.98L142.282,257.854L145.73,262.057L149.062,263.156L149.41,265.486L145.885,267.363L146.815,272.965L147.899,273.613L147.086,275.46L147.434,278.475L149.527,282.984L149.643,290.225L150.883,293.638L149.875,294.873L151.27,297.735L150.534,299.785L151.038,301.737L154.524,306.264L154.021,307.893L155.183,313.891L155.997,315.587L153.207,320.972L152.897,324.369L151.231,331.592L152.626,335.977L154.989,338.726L154.524,341.477L155.919,347.704L155.416,347.934L156.462,354.298L158.902,358.862L158.864,360.275L158.321,363.955L159.135,367.835L158.864,369.612L160.026,377.414L159.483,381.104L158.244,384.137L158.902,388.92L160.142,390.867L159.677,393.178L160.994,396.778L163.28,400.05L162.428,401.471L163.784,405.969L163.474,409.411L162.079,410.338L164.326,414.08L166.147,415.04L166.651,417.095L169.905,419.083L170.99,422.764L175.291,425.65L177.654,418.52L176.414,417.061L179.204,412.026L177.15,409.146L178.545,408.517L176.647,406.201L177.073,402.728L180.87,402.529L181.025,400.612L183.427,398.133L185.712,397.869L185.17,394.466L186.526,392.386L190.362,390.537L190.052,387.765L191.059,385.852L194.275,386.116L196.871,383.84L197.142,389.448L199.234,392.98L201.675,393.112L204.232,395.523L204.193,397.571L206.634,397.34L206.789,398.596L209.501,399.389L213.685,403.786L213.995,407.094L219.264,410.271L218.218,413.881L223.216,415.073L225.695,416.631L223.874,418.917L226.47,421.205L224.262,423.991L221.085,424.389L220.349,425.683L218.528,424.887L216.707,425.484L215.932,427.84L218.179,430.928L220.194,435.246L222.208,435.911L226.974,441.097L225.308,442.893L227.865,444.823L234.025,445.821L234.025,447.751L232.592,449.283L233.793,450.382L234.219,454.446L235.226,454.679L236.66,452.447L240.534,448.65L242.471,445.488L246.345,446.387L246.771,447.918L248.902,449.083L252.932,445.954L254.52,442.394L257.465,441.928L259.867,445.987L259.092,449.616L262.23,451.547L263.392,453.246L263.818,456.479L267.964,457.712L266.685,461.247L268.39,460.747L271.993,467.187L271.296,471.461L273.543,470.459L274.473,473.132L278.889,479.048L279.161,482.962L280.168,486.041L282.028,487.748L285.011,486.844L288.072,487.514ZM608.631,298.093L608.399,298.223L608.399,298.451L608.399,298.906ZM653.457,305.742L653.379,305.742L653.418,306.036L653.767,305.938L653.689,305.775L653.65,305.742L653.573,305.775L653.495,305.775ZM564.27,299.622L564.115,299.492L563.767,300.013L564.425,299.72Z" fill="#d1e7dd" opacity="0.3" transform="translate(5, 8)" />
  
  <!-- 填充与主轮廓 -->
  <path d="M288.072,487.514L288.226,488.954L286.638,493.476L287.413,494.012L286.096,498.504L291.907,501.12L291.791,502.563L294.154,502.798L294.348,506.087L297.099,506.087L300.508,507.296L302.639,509.949L300.082,514.35L301.864,515.493L302.019,517.409L304.925,516.299L306.358,516.905L305.545,514.182L306.823,513.409L309.806,514.552L306.01,519.326L307.792,520.537L306.513,522.589L306.552,524.742L302.833,524.843L302.406,525.651L304.111,529.456L306.358,531.713L309.38,531.443L310.852,533.499L313.099,534.308L317.632,538.42L317.477,540.41L319.066,541.085L317.787,542.839L315.075,543.818L314.378,545.303L317.167,548.746L320.926,547.7L323.87,549.084L326.156,552.293L328.325,553.07L327.628,555.672L330.34,557.701L330.069,560L331.464,559.797L334.098,556.652L335.958,556.247L337.546,557.565L341.731,556.822L345.45,558.783L347.193,558.58L349.983,556.01L351.416,553.644L355.678,550.908L355.833,549.523L362.381,547.497L365.093,544.223L368.115,543.986L374.507,541.591L376.328,540.073L380.009,541.692L380.59,543.548L378.188,547.126L381.868,548.949L385.045,549.658L386.944,545.978L389.811,544.088L392.833,543.615L395.7,539.972L396.591,541.591L401.782,541.456L403.216,539.499L402.596,536.903L402.673,532.522L405.23,532.319L406.625,530.534L406.625,527.941L405.54,527.873L404.959,521.108L403.642,520.167L403.836,518.182L402.286,514.652L402.789,514.115L401.201,510.184L400.116,509.848L396.784,505.483L396.707,499.879L395.196,498.303L397.869,491.566L397.288,485.673L395.971,483.731L396.009,481.155L397.017,480.018L399.613,474.468L402.673,476.841L406.819,474.234L408.407,475.036L412.204,473.533L412.398,471.662L415.304,467.053L417.938,464.149L421.309,464.65L421.696,460.18L425.299,457.312L426.578,455.412L428.05,455.379L432.312,450.948L433.978,449.982L435.372,446.919L434.907,442.727L438.201,438.437L435.76,439.268L433.9,434.98L432.195,435.744L430.413,434.283L432.893,429.4L436.845,426.479L439.363,422.565L443.818,420.708L446.84,422.465L447.46,424.588L449.862,422.233L451.799,422.399L455.441,419.149L458.502,417.194L456.991,414.643L457.417,412.954L455.441,409.411L455.519,408.153L452.497,404.051L453.814,401.67L456.061,400.149L455.712,399.025L456.836,395.127L459.161,398.1L460.555,397.373L463.306,399.29L469.97,397.604L472.256,399.124L473.612,397.208L476.944,396.646L480.74,397.109L482.096,395.523L483.646,397.34L486.009,398.364L489.651,396.25L492.983,397.67L492.48,399.455L489.845,399.686L488.605,402.166L486.552,403.058L482.6,403.356L483.065,405.671L482.213,411.695L483.956,415.504L485.971,417.791L487.792,416.067L490.426,416.332L490.93,418.752L492.635,420.111L494.494,420.111L495.308,421.901L494.068,423.792L491.511,424.323L491.782,426.181L494.184,426.878L494.455,429.932L491.433,431.326L489.69,433.851L485.351,433.884L485.622,434.814L489.031,436.276L491.433,440.099L494.494,441.629L498.175,444.756L499.26,444.057L502.281,447.119L504.451,446.021L506.04,446.487L508.752,444.59L512.975,443.259L514.137,444.357L516.345,443.292L519.212,443.359L522.079,442.46L523.978,440.93L523.048,439.467L527.542,435.778L527.891,433.12L529.247,433.053L533.005,430.994L536.647,432.555L539.707,432.588L540.87,433.651L539.669,435.744L540.831,437.373L542.845,437.672L544.705,436.509L546.139,437.273L547.03,441.13L543.775,443.658L545.441,447.918L548.812,448.983L546.332,449.982L547.572,451.514L547.378,455.179L548.502,455.646L551.369,452.88L556.793,451.214L561.093,451.614L564.348,454.712L567.176,454.979L568.338,458.079L570.895,456.979L574.421,456.979L574.576,455.579L577.404,454.812L582.48,455.512L583.719,453.913L587.167,453.013L587.516,454.079L591.08,452.813L593.483,453.013L596.04,451.114L599.604,450.948L604.176,452.547L607.275,451.714L611.304,449.116L613.241,445.954L612.467,443.458L611.188,443.425L611.382,441.064L612.66,440.066L610.026,436.642L607.508,436.343L608.786,432.887L605.028,428.637L601.154,426.845L597.899,426.845L590.499,430.297L588.485,428.073L585.424,429.566L583.254,427.044L585.075,422.134L582.48,421.006L580.969,417.824L578.644,415.968L577.21,417.691L577.21,417.691L575.506,418.023L575.041,419.978L572.445,419.216L569.346,416.697L570.314,414.278L569.617,409.974L567.641,409.477L568.338,404.514L572.058,403.488L572.716,400.05L573.956,400.182L575.971,398.298L576.746,399.951L578.45,398.662L579.961,399.356L584.765,399.653L585.075,394.895L588.097,393.905L589.918,389.217L592.088,390.306L593.947,393.376L597.396,394.202L598.519,397.076L601.347,396.646L602.781,397.505L603.633,400.05L608.05,403.158L610.413,403.29L611.188,405.308L613.978,407.293L615.876,406.896L615.566,404.018L612.893,402.298L613.823,400.38L611.149,396.217L611.227,392.782L609.251,390.603L608.864,388.062L607.469,385.654L608.67,383.873L605.028,380.181L602.897,379.193L601.347,380.379L598.403,380.544L596.466,379.226L595.11,380.083L594.567,376.986L592.088,375.833L590.073,376.327L586.354,379.193L582.751,378.764L581.356,377.677L579.264,378.204L579.535,376.821L577.055,374.746L577.327,373.331L575.777,371.718L576.784,369.842L574.963,367.506L576.436,366.026L574.963,365.731L573.375,363.068L573.917,360.406L572.833,356.104L569.849,358.271L568.842,356.563L564.193,356.662L561.907,357.548L561.403,356.366L557.994,356.038L558.381,353.871L555.553,354.593L555.437,352.034L556.909,348.983L555.941,347.802L552.57,347.704L554.236,346.589L553.461,345.54L553.461,345.54L550.129,346.426L550.362,345.311L548.308,340.724L547.766,338.268L550.052,336.926L550.981,335.093L553.074,334.667L555.514,330.906L559.117,331.756L559.427,329.009L562.411,329.663L565.278,327.375L565.781,322.67L567.525,321.527L573.646,321.298L575.583,318.132L574.227,317.969L573.297,316.011L575.08,313.956L574.615,312.847L576.513,310.141L574.382,308.609L572.329,308.838L571.67,307.013L569.307,306.492L569.501,304.928L565.781,303.495L565.239,303.072L566.634,301.282L562.837,301.672L563.767,300.013L564.115,299.492L564.27,299.622L564.425,299.72L569.539,299.557L570.779,298.06L568.106,296.564L568.416,293.93L571.283,295.296L574.421,295.393L574.421,295.393L574.072,290.973L576.591,289.738L576.939,287.107L578.954,284.412L581.046,283.861L582.363,285.484L585.773,285.808L588.446,287.887L594.025,287.789L596.582,290.29L600.379,292.24L600.34,290.908L602.626,292.175L603.362,296.629L606.655,299.59L608.399,298.906L608.399,298.451L608.399,298.223L608.631,298.093L610.646,298.353L611.304,296.304L613.048,297.085L613.978,295.849L617.271,296.044L618.975,295.263L619.673,291.883L623.392,292.695L626.298,292.63L627.266,291.46L630.482,292.89L632.419,295.784L630.56,296.467L630.56,296.467L630.521,296.467L630.521,296.467L630.482,296.467L630.521,296.467L630.482,296.467L631.761,299.557L634.628,301.412L634.318,303.593L636.061,304.244L636.022,306.622L637.572,307.599L638.076,309.587L641.408,310.206L643.965,309.326L643.965,309.326L644.662,308.153L646.25,309.196L649.466,309.685L651.442,308.935L653.418,306.036L653.379,305.742L653.457,305.742L653.495,305.775L653.573,305.775L653.65,305.742L653.689,305.775L653.767,305.938L656.207,308.968L658.3,308.544L658.571,308.577L660.237,307.274L659.965,305.352L661.399,305.612L668.838,297.833L671.123,294.483L673.061,290.063L676.238,286.977L678.097,281.816L680.616,278.475L682.785,277.729L681.817,276.854L685.458,273.645L687.434,270.73L684.955,269.467L683.754,266.942L681.623,264.709L683.483,262.736L683.483,262.736L686.272,260.375L685.303,258.533L687.357,257.531L691.231,257.951L695.493,259.632L698.515,256.206L701.459,255.657L702.776,257.014L702.97,259.89L704.481,259.729L708.472,261.41L715.058,255.754L717.499,254.138L714.554,253.492L714.206,249.07L716.763,249.393L718.041,246.779L721.606,245.102L719.513,244.489L718.39,241.491L719.436,241.072L723.465,235.499L722.613,233.793L719.785,234.727L720.25,232.473L723.814,231.508L729.509,227.198L727.495,225.044L731.408,222.57L731.911,219.198L729.974,218.973L729.858,217.432L732.531,216.501L733.848,217.015L739.466,216.148L739.156,214.48L742.101,214.159L742.372,211.176L745.665,208.515L747.292,208.355L750.469,206.496L752.213,206.528L750.198,204.734L749.617,202.205L751.476,200.732L746.905,199.292L746.44,197.18L744.813,197.468L742.411,196.189L742.101,194.654L739.427,194.238L734.12,187.56L737.142,185.644L739.931,187.272L741.093,186.187L738.536,184.208L740.59,183.25L739.466,181.24L741.248,180.634L744.851,181.623L746.285,179.805L742.953,176.234L741.675,175.82L741.675,175.82L741.713,175.788L741.713,175.788L741.093,174.641L742.914,173.271L748.028,174.003L749.888,172.825L749.733,170.022L747.37,168.462L743.883,169.608L742.333,168.908L737.374,170.882L732.957,168.208L729.122,171.551L727.688,170.436L726.836,171.678L723.272,170.818L718.971,172.156L719.358,174.322L716.53,176.298L713.082,173.079L710.913,171.996L709.285,172.825L705.992,169.895L702.312,164.199L699.445,164.612L697.74,160.511L695.687,159.462L692.548,159.589L688.093,161.432L685.73,158.731L683.637,159.208L683.909,156.952L682.514,156.19L682.359,152.157L678.95,151.491L677.361,153.618L674.649,154.665L673.022,156.73L671.511,160.129L668.256,158.509L666.862,156.031L662.91,155.142L659.965,151.364L661.709,147.684L661.128,144.641L658.687,142.327L659.113,140.902L655.704,140.11L649.427,141.187L648.846,140.11L645.786,139.92L643.81,141.123L641.911,140.648L641.291,139.192L638.153,138.97L634.163,141.789L631.451,142.581L628.855,142.201L624.593,143.436L623.353,144.641L620.409,143.975L618.51,146.701L616.496,146.067L613.9,143.278L610.956,142.707L608.864,143.119L608.05,141.852L602.975,141.599L599.565,140.205L596.504,137.799L596.582,137.45L597.899,133.653L596.504,133.368L594.8,131.091L592.746,133.305L590.073,132.072L587.71,133.526L585.308,132.736L582.518,134.033L581.007,133.621L580.852,137.039L578.14,138.305L577.482,137.197L574.344,137.704L571.748,139.793L566.634,141.504L565.936,139.635L564.58,139.888L564.038,135.52L562.721,135.741L562.101,132.166L560.28,130.554L560.512,128.12L558.536,126.982L555.166,127.488L554.778,129.763L553.074,130.364L554.042,131.977L554.042,131.977L556.018,136.153L557.684,137.229L557.335,139.382L552.299,140.648L550.943,142.549L547.843,144.165L545.674,144.45L542.923,143.563L542.652,145.433L540.753,146.638L536.104,148.128L534.09,145.401L530.796,144.577L524.404,147.272L521.692,147.684L519.406,144.355L517.817,143.785L516.268,145.021L512.742,145.528L510.03,143.119L506.659,143.848L503.483,141.725L502.863,140.047L499.337,139.667L498.407,138.083L495.075,138.4L489.109,133.748L484.731,132.925L483.646,128.72L484.344,126.192L487.947,126.35L490,125.529L490.349,122.94L493.022,121.898L490.852,120.351L487.443,120.193L490,115.714L488.295,112.593L486.862,108.498L486.591,105.665L485.312,103.431L487.21,102.738L490.504,103.808L492.635,102.015L489.729,100.883L484.615,101.417L483.336,97.959L480.082,97.142L479.617,94.471L477.563,92.838L475.975,88.444L477.331,84.868L472.721,80.857L469.117,79.416L464.972,80.387L457.495,79.666L452.264,81.139L446.763,78.946L445.329,79.447L443.935,78.006L440.641,77.537L438.782,78.57L438.046,80.355L436.031,79.917L437.619,77.317L435.915,71.809L432.544,72.122L430.646,75.22L425.609,75.815L420.844,73.874L421.231,72.122L419.023,71.372L417.667,72.592L413.715,71.903L412.979,71.059L414.722,65.932L413.676,64.12L411.584,63.964L410.887,62.621L413.211,59.749L412.591,57.378L410.848,57.503L411.468,55.538L414.567,54.665L410.964,52.608L411.119,49.492L409.608,48.246L406.586,47.405L403.681,48.059L401.627,46.751L401.898,43.795L400.116,41.306L397.753,40L394.498,40.746L394.305,42.644L390.624,42.519L389.462,44.79L386.246,44.853L384.115,47.187L382.178,47.561L381.365,49.243L378.071,50.395L381.675,52.545L381.248,54.634L379.156,53.418L372.609,54.26L370.052,55.101L367.921,54.197L365.984,57.597L365.093,61.466L362.148,61.591L360.288,60.062L358.468,61.092L356.065,60.53L354.632,61.997L350.99,60.748L348.976,61.872L356.337,68.401L356.84,70.934L355.717,73.092L359.049,73.28L360.831,75.126L358.313,77.349L361.954,76.942L360.25,80.731L362.226,84.492L368.115,86.436L370.478,88.413L368.502,89.103L369.432,91.049L369.509,94.314L368.579,93.969L365.131,97.142L363.62,96.639L359.94,97.55L359.049,96.545L356.647,96.828L354.128,100.6L352.501,101.386L354.09,106.987L353.043,108.53L350.486,107.302L349.518,105.35L347.774,104.437L346.031,108.278L346.031,109.695L343.861,110.64L340.026,110.01L336.345,110.829L335.493,112.909L333.323,114.043L331.967,116.093L329.449,115.084L330.456,110.955L329.72,109.128L325.962,106.924L325.923,105.665L332.703,102.801L333.323,98.43L335.105,95.791L337.043,94.723L334.524,92.273L334.563,88.664L333.13,86.217L330.611,84.68L329.798,87.691L326.776,87.566L325.885,88.695L326.427,89.009L325.885,93.906L321.274,95.288L319.26,98.43L318.369,102.267L320.151,103.871L323.793,104.972L322.165,109.191L318.64,112.341L319.105,114.043L317.361,116.219L312.596,112.058L309.923,110.451L308.179,108.309L302.871,108.404L301.825,109.537L302.29,112.656L301.515,112.94L296.208,106.074L291.21,106.452L289.001,105.633L287.374,107.711L285.359,108.656L284.778,110.325L288.188,116.282L286.561,117.165L286.715,119.026L289.118,119.972L288.304,121.961L289.079,123.571L285.631,123.255L285.979,125.592L285.321,128.246L288.73,129.321L291.597,131.66L292.449,133.59L291.558,139.825L287.413,143.88L285.359,144.07L282.376,142.549L279.432,143.943L277.34,146.004L274.783,146.416L273.233,147.716L270.443,145.687L267.073,144.672L263.121,144.989L258.046,142.834L259.402,144.894L259.285,147.113L256.961,145.972L256.225,146.733L255.992,151.11L255.217,152.38L252.544,150.666L248.902,149.651L247.12,145.718L244.176,141.789L242.975,141.789L241.038,139.445L238.403,141.535L239.72,137.925L235.962,140.237L230.887,138.78L229.143,141.694L229.066,144.577L227.71,147.335L226.548,145.813L221.511,145.211L220.155,143.405L223.371,139.92L221.976,135.013L222.363,132.831L218.683,129.131L216.474,129.131L217.017,127.046L211.864,125.845L211.322,123.413L206.905,119.72L206.905,123.003L205.239,126.256L202.372,126.319L201.287,125.308L199.776,127.33L201.52,129.921L199.931,133.526L199.544,137.07L196.871,139.413L195.786,137.26L192.376,136.754L191.989,135.741L188.773,135.836L186.836,132.704L180.211,131.249L175.368,128.878L173.973,129.795L168.627,130.238L167.232,127.361L166.496,123.697L165.217,123.129L164.055,120.351L159.561,119.689L157.391,117.606L153.246,116.629L152.626,117.48L149.914,116.408L149.643,115.336L146.815,115.115L142.824,113.098L139.415,108.782L139.26,105.57L136.586,105.161L137.865,99.279L135.114,96.985L135.502,92.524L134.456,90.923L131.472,89.699L129.574,88.068L129.845,85.151L127.985,84.21L127.637,82.486L130.116,81.859L127.211,79.635L125.467,76.566L122.755,75.627L121.438,73.906L119.888,74.218L119.811,72.498L117.951,69.214L116.169,69.558L114.425,68.026L115.588,65.151L114.929,62.403L116.518,60.842L115.743,57.846L113.767,56.349L113.961,54.322L110.474,53.73L105.05,54.447L101.795,54.384L98.773,52.95L94.976,51.953L90.598,51.953L85.949,47.685L82.424,46.502L76.883,46.627L76.031,47.156L76.031,47.156L75.566,48.184L75.566,48.184L74.133,49.71L67.779,51.704L70.103,57.378L66.965,59.781L67.43,62.434L65.493,64.745L63.75,64.089L58.752,65.776L57.589,65.214L54.877,66.776L50.771,66.651L50.964,69.214L49.298,69.62L49.376,71.153L51.468,72.56L52.514,75.095L52.204,76.754L53.289,79.666L52.049,84.492L54.219,85.966L58.829,86.28L58.093,89.825L60.65,93.278L65.261,93.561L68.36,95.351L73.358,96.796L68.437,101.134L65.067,101.386L64.137,105.979L60.418,109.758L56.582,111.995L57.241,113.917L56.543,115.84L58.442,116.439L60.03,120.32L57.357,121.866L58.868,123.287L53.483,124.076L49.531,125.308L47.787,129.131L49.57,129.732L50.616,133.368L50.19,136.469L52.902,140.553L52.553,141.155L56.272,144.324L59.565,145.338L60.108,146.384L64.137,146.86L64.718,148.604L69.987,151.84L71.886,152.316L75.954,152.697L76.69,154.03L80.254,154.094L81.261,154.888L85.058,155.142L93.814,159.367L95.558,160.86L96.681,160.256L102.57,163.944L101.95,165.471L103.306,168.972L102.57,170.723L105.166,172.347L107.878,177.828L111.287,179.996L114.27,182.644L114.154,183.793L116.169,185.006L116.014,190.339L113.922,192.032L115.626,194.494L114.89,196.029L117.835,198.044L120.818,201.084L121.322,203.261L123.143,203.261L123.646,206.849L127.753,211.176L129.768,211.978L132.635,214.512L133.758,216.373L141.933,221.349L141.855,222.217L144.606,224.819L139.802,229.095L139.492,230.833L137.439,232.699L132.325,227.423L129.303,227.07L127.559,229.288L126.784,232.184L128.024,234.469L126.707,236.304L131.279,238.688L133.487,240.975L133.603,243.167L135.153,245.295L137.555,246.424L139.531,248.65L138.95,251.62L137.516,254.171L138.95,255.98L142.282,257.854L145.73,262.057L149.062,263.156L149.41,265.486L145.885,267.363L146.815,272.965L147.899,273.613L147.086,275.46L147.434,278.475L149.527,282.984L149.643,290.225L150.883,293.638L149.875,294.873L151.27,297.735L150.534,299.785L151.038,301.737L154.524,306.264L154.021,307.893L155.183,313.891L155.997,315.587L153.207,320.972L152.897,324.369L151.231,331.592L152.626,335.977L154.989,338.726L154.524,341.477L155.919,347.704L155.416,347.934L156.462,354.298L158.902,358.862L158.864,360.275L158.321,363.955L159.135,367.835L158.864,369.612L160.026,377.414L159.483,381.104L158.244,384.137L158.902,388.92L160.142,390.867L159.677,393.178L160.994,396.778L163.28,400.05L162.428,401.471L163.784,405.969L163.474,409.411L162.079,410.338L164.326,414.08L166.147,415.04L166.651,417.095L169.905,419.083L170.99,422.764L175.291,425.65L177.654,418.52L176.414,417.061L179.204,412.026L177.15,409.146L178.545,408.517L176.647,406.201L177.073,402.728L180.87,402.529L181.025,400.612L183.427,398.133L185.712,397.869L185.17,394.466L186.526,392.386L190.362,390.537L190.052,387.765L191.059,385.852L194.275,386.116L196.871,383.84L197.142,389.448L199.234,392.98L201.675,393.112L204.232,395.523L204.193,397.571L206.634,397.34L206.789,398.596L209.501,399.389L213.685,403.786L213.995,407.094L219.264,410.271L218.218,413.881L223.216,415.073L225.695,416.631L223.874,418.917L226.47,421.205L224.262,423.991L221.085,424.389L220.349,425.683L218.528,424.887L216.707,425.484L215.932,427.84L218.179,430.928L220.194,435.246L222.208,435.911L226.974,441.097L225.308,442.893L227.865,444.823L234.025,445.821L234.025,447.751L232.592,449.283L233.793,450.382L234.219,454.446L235.226,454.679L236.66,452.447L240.534,448.65L242.471,445.488L246.345,446.387L246.771,447.918L248.902,449.083L252.932,445.954L254.52,442.394L257.465,441.928L259.867,445.987L259.092,449.616L262.23,451.547L263.392,453.246L263.818,456.479L267.964,457.712L266.685,461.247L268.39,460.747L271.993,467.187L271.296,471.461L273.543,470.459L274.473,473.132L278.889,479.048L279.161,482.962L280.168,486.041L282.028,487.748L285.011,486.844L288.072,487.514ZM608.631,298.093L608.399,298.223L608.399,298.451L608.399,298.906ZM653.457,305.742L653.379,305.742L653.418,306.036L653.767,305.938L653.689,305.775L653.65,305.742L653.573,305.775L653.495,305.775ZM564.27,299.622L564.115,299.492L563.767,300.013L564.425,299.72Z" fill="#e6f4ea" stroke="#137333" stroke-width="4" stroke-linejoin="round" stroke-linecap="round" />
  
  <!-- 内发光描边 -->
  <path d="M288.072,487.514L288.226,488.954L286.638,493.476L287.413,494.012L286.096,498.504L291.907,501.12L291.791,502.563L294.154,502.798L294.348,506.087L297.099,506.087L300.508,507.296L302.639,509.949L300.082,514.35L301.864,515.493L302.019,517.409L304.925,516.299L306.358,516.905L305.545,514.182L306.823,513.409L309.806,514.552L306.01,519.326L307.792,520.537L306.513,522.589L306.552,524.742L302.833,524.843L302.406,525.651L304.111,529.456L306.358,531.713L309.38,531.443L310.852,533.499L313.099,534.308L317.632,538.42L317.477,540.41L319.066,541.085L317.787,542.839L315.075,543.818L314.378,545.303L317.167,548.746L320.926,547.7L323.87,549.084L326.156,552.293L328.325,553.07L327.628,555.672L330.34,557.701L330.069,560L331.464,559.797L334.098,556.652L335.958,556.247L337.546,557.565L341.731,556.822L345.45,558.783L347.193,558.58L349.983,556.01L351.416,553.644L355.678,550.908L355.833,549.523L362.381,547.497L365.093,544.223L368.115,543.986L374.507,541.591L376.328,540.073L380.009,541.692L380.59,543.548L378.188,547.126L381.868,548.949L385.045,549.658L386.944,545.978L389.811,544.088L392.833,543.615L395.7,539.972L396.591,541.591L401.782,541.456L403.216,539.499L402.596,536.903L402.673,532.522L405.23,532.319L406.625,530.534L406.625,527.941L405.54,527.873L404.959,521.108L403.642,520.167L403.836,518.182L402.286,514.652L402.789,514.115L401.201,510.184L400.116,509.848L396.784,505.483L396.707,499.879L395.196,498.303L397.869,491.566L397.288,485.673L395.971,483.731L396.009,481.155L397.017,480.018L399.613,474.468L402.673,476.841L406.819,474.234L408.407,475.036L412.204,473.533L412.398,471.662L415.304,467.053L417.938,464.149L421.309,464.65L421.696,460.18L425.299,457.312L426.578,455.412L428.05,455.379L432.312,450.948L433.978,449.982L435.372,446.919L434.907,442.727L438.201,438.437L435.76,439.268L433.9,434.98L432.195,435.744L430.413,434.283L432.893,429.4L436.845,426.479L439.363,422.565L443.818,420.708L446.84,422.465L447.46,424.588L449.862,422.233L451.799,422.399L455.441,419.149L458.502,417.194L456.991,414.643L457.417,412.954L455.441,409.411L455.519,408.153L452.497,404.051L453.814,401.67L456.061,400.149L455.712,399.025L456.836,395.127L459.161,398.1L460.555,397.373L463.306,399.29L469.97,397.604L472.256,399.124L473.612,397.208L476.944,396.646L480.74,397.109L482.096,395.523L483.646,397.34L486.009,398.364L489.651,396.25L492.983,397.67L492.48,399.455L489.845,399.686L488.605,402.166L486.552,403.058L482.6,403.356L483.065,405.671L482.213,411.695L483.956,415.504L485.971,417.791L487.792,416.067L490.426,416.332L490.93,418.752L492.635,420.111L494.494,420.111L495.308,421.901L494.068,423.792L491.511,424.323L491.782,426.181L494.184,426.878L494.455,429.932L491.433,431.326L489.69,433.851L485.351,433.884L485.622,434.814L489.031,436.276L491.433,440.099L494.494,441.629L498.175,444.756L499.26,444.057L502.281,447.119L504.451,446.021L506.04,446.487L508.752,444.59L512.975,443.259L514.137,444.357L516.345,443.292L519.212,443.359L522.079,442.46L523.978,440.93L523.048,439.467L527.542,435.778L527.891,433.12L529.247,433.053L533.005,430.994L536.647,432.555L539.707,432.588L540.87,433.651L539.669,435.744L540.831,437.373L542.845,437.672L544.705,436.509L546.139,437.273L547.03,441.13L543.775,443.658L545.441,447.918L548.812,448.983L546.332,449.982L547.572,451.514L547.378,455.179L548.502,455.646L551.369,452.88L556.793,451.214L561.093,451.614L564.348,454.712L567.176,454.979L568.338,458.079L570.895,456.979L574.421,456.979L574.576,455.579L577.404,454.812L582.48,455.512L583.719,453.913L587.167,453.013L587.516,454.079L591.08,452.813L593.483,453.013L596.04,451.114L599.604,450.948L604.176,452.547L607.275,451.714L611.304,449.116L613.241,445.954L612.467,443.458L611.188,443.425L611.382,441.064L612.66,440.066L610.026,436.642L607.508,436.343L608.786,432.887L605.028,428.637L601.154,426.845L597.899,426.845L590.499,430.297L588.485,428.073L585.424,429.566L583.254,427.044L585.075,422.134L582.48,421.006L580.969,417.824L578.644,415.968L577.21,417.691L577.21,417.691L575.506,418.023L575.041,419.978L572.445,419.216L569.346,416.697L570.314,414.278L569.617,409.974L567.641,409.477L568.338,404.514L572.058,403.488L572.716,400.05L573.956,400.182L575.971,398.298L576.746,399.951L578.45,398.662L579.961,399.356L584.765,399.653L585.075,394.895L588.097,393.905L589.918,389.217L592.088,390.306L593.947,393.376L597.396,394.202L598.519,397.076L601.347,396.646L602.781,397.505L603.633,400.05L608.05,403.158L610.413,403.29L611.188,405.308L613.978,407.293L615.876,406.896L615.566,404.018L612.893,402.298L613.823,400.38L611.149,396.217L611.227,392.782L609.251,390.603L608.864,388.062L607.469,385.654L608.67,383.873L605.028,380.181L602.897,379.193L601.347,380.379L598.403,380.544L596.466,379.226L595.11,380.083L594.567,376.986L592.088,375.833L590.073,376.327L586.354,379.193L582.751,378.764L581.356,377.677L579.264,378.204L579.535,376.821L577.055,374.746L577.327,373.331L575.777,371.718L576.784,369.842L574.963,367.506L576.436,366.026L574.963,365.731L573.375,363.068L573.917,360.406L572.833,356.104L569.849,358.271L568.842,356.563L564.193,356.662L561.907,357.548L561.403,356.366L557.994,356.038L558.381,353.871L555.553,354.593L555.437,352.034L556.909,348.983L555.941,347.802L552.57,347.704L554.236,346.589L553.461,345.54L553.461,345.54L550.129,346.426L550.362,345.311L548.308,340.724L547.766,338.268L550.052,336.926L550.981,335.093L553.074,334.667L555.514,330.906L559.117,331.756L559.427,329.009L562.411,329.663L565.278,327.375L565.781,322.67L567.525,321.527L573.646,321.298L575.583,318.132L574.227,317.969L573.297,316.011L575.08,313.956L574.615,312.847L576.513,310.141L574.382,308.609L572.329,308.838L571.67,307.013L569.307,306.492L569.501,304.928L565.781,303.495L565.239,303.072L566.634,301.282L562.837,301.672L563.767,300.013L564.115,299.492L564.27,299.622L564.425,299.72L569.539,299.557L570.779,298.06L568.106,296.564L568.416,293.93L571.283,295.296L574.421,295.393L574.421,295.393L574.072,290.973L576.591,289.738L576.939,287.107L578.954,284.412L581.046,283.861L582.363,285.484L585.773,285.808L588.446,287.887L594.025,287.789L596.582,290.29L600.379,292.24L600.34,290.908L602.626,292.175L603.362,296.629L606.655,299.59L608.399,298.906L608.399,298.451L608.399,298.223L608.631,298.093L610.646,298.353L611.304,296.304L613.048,297.085L613.978,295.849L617.271,296.044L618.975,295.263L619.673,291.883L623.392,292.695L626.298,292.63L627.266,291.46L630.482,292.89L632.419,295.784L630.56,296.467L630.56,296.467L630.521,296.467L630.521,296.467L630.482,296.467L630.521,296.467L630.482,296.467L631.761,299.557L634.628,301.412L634.318,303.593L636.061,304.244L636.022,306.622L637.572,307.599L638.076,309.587L641.408,310.206L643.965,309.326L643.965,309.326L644.662,308.153L646.25,309.196L649.466,309.685L651.442,308.935L653.418,306.036L653.379,305.742L653.457,305.742L653.495,305.775L653.573,305.775L653.65,305.742L653.689,305.775L653.767,305.938L656.207,308.968L658.3,308.544L658.571,308.577L660.237,307.274L659.965,305.352L661.399,305.612L668.838,297.833L671.123,294.483L673.061,290.063L676.238,286.977L678.097,281.816L680.616,278.475L682.785,277.729L681.817,276.854L685.458,273.645L687.434,270.73L684.955,269.467L683.754,266.942L681.623,264.709L683.483,262.736L683.483,262.736L686.272,260.375L685.303,258.533L687.357,257.531L691.231,257.951L695.493,259.632L698.515,256.206L701.459,255.657L702.776,257.014L702.97,259.89L704.481,259.729L708.472,261.41L715.058,255.754L717.499,254.138L714.554,253.492L714.206,249.07L716.763,249.393L718.041,246.779L721.606,245.102L719.513,244.489L718.39,241.491L719.436,241.072L723.465,235.499L722.613,233.793L719.785,234.727L720.25,232.473L723.814,231.508L729.509,227.198L727.495,225.044L731.408,222.57L731.911,219.198L729.974,218.973L729.858,217.432L732.531,216.501L733.848,217.015L739.466,216.148L739.156,214.48L742.101,214.159L742.372,211.176L745.665,208.515L747.292,208.355L750.469,206.496L752.213,206.528L750.198,204.734L749.617,202.205L751.476,200.732L746.905,199.292L746.44,197.18L744.813,197.468L742.411,196.189L742.101,194.654L739.427,194.238L734.12,187.56L737.142,185.644L739.931,187.272L741.093,186.187L738.536,184.208L740.59,183.25L739.466,181.24L741.248,180.634L744.851,181.623L746.285,179.805L742.953,176.234L741.675,175.82L741.675,175.82L741.713,175.788L741.713,175.788L741.093,174.641L742.914,173.271L748.028,174.003L749.888,172.825L749.733,170.022L747.37,168.462L743.883,169.608L742.333,168.908L737.374,170.882L732.957,168.208L729.122,171.551L727.688,170.436L726.836,171.678L723.272,170.818L718.971,172.156L719.358,174.322L716.53,176.298L713.082,173.079L710.913,171.996L709.285,172.825L705.992,169.895L702.312,164.199L699.445,164.612L697.74,160.511L695.687,159.462L692.548,159.589L688.093,161.432L685.73,158.731L683.637,159.208L683.909,156.952L682.514,156.19L682.359,152.157L678.95,151.491L677.361,153.618L674.649,154.665L673.022,156.73L671.511,160.129L668.256,158.509L666.862,156.031L662.91,155.142L659.965,151.364L661.709,147.684L661.128,144.641L658.687,142.327L659.113,140.902L655.704,140.11L649.427,141.187L648.846,140.11L645.786,139.92L643.81,141.123L641.911,140.648L641.291,139.192L638.153,138.97L634.163,141.789L631.451,142.581L628.855,142.201L624.593,143.436L623.353,144.641L620.409,143.975L618.51,146.701L616.496,146.067L613.9,143.278L610.956,142.707L608.864,143.119L608.05,141.852L602.975,141.599L599.565,140.205L596.504,137.799L596.582,137.45L597.899,133.653L596.504,133.368L594.8,131.091L592.746,133.305L590.073,132.072L587.71,133.526L585.308,132.736L582.518,134.033L581.007,133.621L580.852,137.039L578.14,138.305L577.482,137.197L574.344,137.704L571.748,139.793L566.634,141.504L565.936,139.635L564.58,139.888L564.038,135.52L562.721,135.741L562.101,132.166L560.28,130.554L560.512,128.12L558.536,126.982L555.166,127.488L554.778,129.763L553.074,130.364L554.042,131.977L554.042,131.977L556.018,136.153L557.684,137.229L557.335,139.382L552.299,140.648L550.943,142.549L547.843,144.165L545.674,144.45L542.923,143.563L542.652,145.433L540.753,146.638L536.104,148.128L534.09,145.401L530.796,144.577L524.404,147.272L521.692,147.684L519.406,144.355L517.817,143.785L516.268,145.021L512.742,145.528L510.03,143.119L506.659,143.848L503.483,141.725L502.863,140.047L499.337,139.667L498.407,138.083L495.075,138.4L489.109,133.748L484.731,132.925L483.646,128.72L484.344,126.192L487.947,126.35L490,125.529L490.349,122.94L493.022,121.898L490.852,120.351L487.443,120.193L490,115.714L488.295,112.593L486.862,108.498L486.591,105.665L485.312,103.431L487.21,102.738L490.504,103.808L492.635,102.015L489.729,100.883L484.615,101.417L483.336,97.959L480.082,97.142L479.617,94.471L477.563,92.838L475.975,88.444L477.331,84.868L472.721,80.857L469.117,79.416L464.972,80.387L457.495,79.666L452.264,81.139L446.763,78.946L445.329,79.447L443.935,78.006L440.641,77.537L438.782,78.57L438.046,80.355L436.031,79.917L437.619,77.317L435.915,71.809L432.544,72.122L430.646,75.22L425.609,75.815L420.844,73.874L421.231,72.122L419.023,71.372L417.667,72.592L413.715,71.903L412.979,71.059L414.722,65.932L413.676,64.12L411.584,63.964L410.887,62.621L413.211,59.749L412.591,57.378L410.848,57.503L411.468,55.538L414.567,54.665L410.964,52.608L411.119,49.492L409.608,48.246L406.586,47.405L403.681,48.059L401.627,46.751L401.898,43.795L400.116,41.306L397.753,40L394.498,40.746L394.305,42.644L390.624,42.519L389.462,44.79L386.246,44.853L384.115,47.187L382.178,47.561L381.365,49.243L378.071,50.395L381.675,52.545L381.248,54.634L379.156,53.418L372.609,54.26L370.052,55.101L367.921,54.197L365.984,57.597L365.093,61.466L362.148,61.591L360.288,60.062L358.468,61.092L356.065,60.53L354.632,61.997L350.99,60.748L348.976,61.872L356.337,68.401L356.84,70.934L355.717,73.092L359.049,73.28L360.831,75.126L358.313,77.349L361.954,76.942L360.25,80.731L362.226,84.492L368.115,86.436L370.478,88.413L368.502,89.103L369.432,91.049L369.509,94.314L368.579,93.969L365.131,97.142L363.62,96.639L359.94,97.55L359.049,96.545L356.647,96.828L354.128,100.6L352.501,101.386L354.09,106.987L353.043,108.53L350.486,107.302L349.518,105.35L347.774,104.437L346.031,108.278L346.031,109.695L343.861,110.64L340.026,110.01L336.345,110.829L335.493,112.909L333.323,114.043L331.967,116.093L329.449,115.084L330.456,110.955L329.72,109.128L325.962,106.924L325.923,105.665L332.703,102.801L333.323,98.43L335.105,95.791L337.043,94.723L334.524,92.273L334.563,88.664L333.13,86.217L330.611,84.68L329.798,87.691L326.776,87.566L325.885,88.695L326.427,89.009L325.885,93.906L321.274,95.288L319.26,98.43L318.369,102.267L320.151,103.871L323.793,104.972L322.165,109.191L318.64,112.341L319.105,114.043L317.361,116.219L312.596,112.058L309.923,110.451L308.179,108.309L302.871,108.404L301.825,109.537L302.29,112.656L301.515,112.94L296.208,106.074L291.21,106.452L289.001,105.633L287.374,107.711L285.359,108.656L284.778,110.325L288.188,116.282L286.561,117.165L286.715,119.026L289.118,119.972L288.304,121.961L289.079,123.571L285.631,123.255L285.979,125.592L285.321,128.246L288.73,129.321L291.597,131.66L292.449,133.59L291.558,139.825L287.413,143.88L285.359,144.07L282.376,142.549L279.432,143.943L277.34,146.004L274.783,146.416L273.233,147.716L270.443,145.687L267.073,144.672L263.121,144.989L258.046,142.834L259.402,144.894L259.285,147.113L256.961,145.972L256.225,146.733L255.992,151.11L255.217,152.38L252.544,150.666L248.902,149.651L247.12,145.718L244.176,141.789L242.975,141.789L241.038,139.445L238.403,141.535L239.72,137.925L235.962,140.237L230.887,138.78L229.143,141.694L229.066,144.577L227.71,147.335L226.548,145.813L221.511,145.211L220.155,143.405L223.371,139.92L221.976,135.013L222.363,132.831L218.683,129.131L216.474,129.131L217.017,127.046L211.864,125.845L211.322,123.413L206.905,119.72L206.905,123.003L205.239,126.256L202.372,126.319L201.287,125.308L199.776,127.33L201.52,129.921L199.931,133.526L199.544,137.07L196.871,139.413L195.786,137.26L192.376,136.754L191.989,135.741L188.773,135.836L186.836,132.704L180.211,131.249L175.368,128.878L173.973,129.795L168.627,130.238L167.232,127.361L166.496,123.697L165.217,123.129L164.055,120.351L159.561,119.689L157.391,117.606L153.246,116.629L152.626,117.48L149.914,116.408L149.643,115.336L146.815,115.115L142.824,113.098L139.415,108.782L139.26,105.57L136.586,105.161L137.865,99.279L135.114,96.985L135.502,92.524L134.456,90.923L131.472,89.699L129.574,88.068L129.845,85.151L127.985,84.21L127.637,82.486L130.116,81.859L127.211,79.635L125.467,76.566L122.755,75.627L121.438,73.906L119.888,74.218L119.811,72.498L117.951,69.214L116.169,69.558L114.425,68.026L115.588,65.151L114.929,62.403L116.518,60.842L115.743,57.846L113.767,56.349L113.961,54.322L110.474,53.73L105.05,54.447L101.795,54.384L98.773,52.95L94.976,51.953L90.598,51.953L85.949,47.685L82.424,46.502L76.883,46.627L76.031,47.156L76.031,47.156L75.566,48.184L75.566,48.184L74.133,49.71L67.779,51.704L70.103,57.378L66.965,59.781L67.43,62.434L65.493,64.745L63.75,64.089L58.752,65.776L57.589,65.214L54.877,66.776L50.771,66.651L50.964,69.214L49.298,69.62L49.376,71.153L51.468,72.56L52.514,75.095L52.204,76.754L53.289,79.666L52.049,84.492L54.219,85.966L58.829,86.28L58.093,89.825L60.65,93.278L65.261,93.561L68.36,95.351L73.358,96.796L68.437,101.134L65.067,101.386L64.137,105.979L60.418,109.758L56.582,111.995L57.241,113.917L56.543,115.84L58.442,116.439L60.03,120.32L57.357,121.866L58.868,123.287L53.483,124.076L49.531,125.308L47.787,129.131L49.57,129.732L50.616,133.368L50.19,136.469L52.902,140.553L52.553,141.155L56.272,144.324L59.565,145.338L60.108,146.384L64.137,146.86L64.718,148.604L69.987,151.84L71.886,152.316L75.954,152.697L76.69,154.03L80.254,154.094L81.261,154.888L85.058,155.142L93.814,159.367L95.558,160.86L96.681,160.256L102.57,163.944L101.95,165.471L103.306,168.972L102.57,170.723L105.166,172.347L107.878,177.828L111.287,179.996L114.27,182.644L114.154,183.793L116.169,185.006L116.014,190.339L113.922,192.032L115.626,194.494L114.89,196.029L117.835,198.044L120.818,201.084L121.322,203.261L123.143,203.261L123.646,206.849L127.753,211.176L129.768,211.978L132.635,214.512L133.758,216.373L141.933,221.349L141.855,222.217L144.606,224.819L139.802,229.095L139.492,230.833L137.439,232.699L132.325,227.423L129.303,227.07L127.559,229.288L126.784,232.184L128.024,234.469L126.707,236.304L131.279,238.688L133.487,240.975L133.603,243.167L135.153,245.295L137.555,246.424L139.531,248.65L138.95,251.62L137.516,254.171L138.95,255.98L142.282,257.854L145.73,262.057L149.062,263.156L149.41,265.486L145.885,267.363L146.815,272.965L147.899,273.613L147.086,275.46L147.434,278.475L149.527,282.984L149.643,290.225L150.883,293.638L149.875,294.873L151.27,297.735L150.534,299.785L151.038,301.737L154.524,306.264L154.021,307.893L155.183,313.891L155.997,315.587L153.207,320.972L152.897,324.369L151.231,331.592L152.626,335.977L154.989,338.726L154.524,341.477L155.919,347.704L155.416,347.934L156.462,354.298L158.902,358.862L158.864,360.275L158.321,363.955L159.135,367.835L158.864,369.612L160.026,377.414L159.483,381.104L158.244,384.137L158.902,388.92L160.142,390.867L159.677,393.178L160.994,396.778L163.28,400.05L162.428,401.471L163.784,405.969L163.474,409.411L162.079,410.338L164.326,414.08L166.147,415.04L166.651,417.095L169.905,419.083L170.99,422.764L175.291,425.65L177.654,418.52L176.414,417.061L179.204,412.026L177.15,409.146L178.545,408.517L176.647,406.201L177.073,402.728L180.87,402.529L181.025,400.612L183.427,398.133L185.712,397.869L185.17,394.466L186.526,392.386L190.362,390.537L190.052,387.765L191.059,385.852L194.275,386.116L196.871,383.84L197.142,389.448L199.234,392.98L201.675,393.112L204.232,395.523L204.193,397.571L206.634,397.34L206.789,398.596L209.501,399.389L213.685,403.786L213.995,407.094L219.264,410.271L218.218,413.881L223.216,415.073L225.695,416.631L223.874,418.917L226.47,421.205L224.262,423.991L221.085,424.389L220.349,425.683L218.528,424.887L216.707,425.484L215.932,427.84L218.179,430.928L220.194,435.246L222.208,435.911L226.974,441.097L225.308,442.893L227.865,444.823L234.025,445.821L234.025,447.751L232.592,449.283L233.793,450.382L234.219,454.446L235.226,454.679L236.66,452.447L240.534,448.65L242.471,445.488L246.345,446.387L246.771,447.918L248.902,449.083L252.932,445.954L254.52,442.394L257.465,441.928L259.867,445.987L259.092,449.616L262.23,451.547L263.392,453.246L263.818,456.479L267.964,457.712L266.685,461.247L268.39,460.747L271.993,467.187L271.296,471.461L273.543,470.459L274.473,473.132L278.889,479.048L279.161,482.962L280.168,486.041L282.028,487.748L285.011,486.844L288.072,487.514ZM608.631,298.093L608.399,298.223L608.399,298.451L608.399,298.906ZM653.457,305.742L653.379,305.742L653.418,306.036L653.767,305.938L653.689,305.775L653.65,305.742L653.573,305.775L653.495,305.775ZM564.27,299.622L564.115,299.492L563.767,300.013L564.425,299.72Z" fill="none" stroke="#2e7d32" stroke-width="1.5" stroke-linejoin="round" stroke-linecap="round" opacity="0.6" />
</svg>