<svg xmlns="http://www.w3.org/2000/svg" width="800" height="600" viewBox="0 0 800 600">
  <!-- 背景色，采用淡米黄色 -->
  <rect width="100%" height="100%" fill="#f5f2eb" />
  
  <!-- 阴影层 -->
  <path d="M702.388,121.765L697.793,124.025L693.059,124.441L688.742,130.509L688.602,138.127L684.634,146.286L680.595,149.683L682.893,154.809L681.152,156.836L674.399,152.782L672.031,159.281L663.467,156.18L662.771,153.14L659.568,152.842L655.042,155.107L651.213,149.981L645.712,153.617L641.813,151.888L640.49,145.81L644.459,143.308L646.896,134.674L644.25,133.603L646.548,129.557L642.718,126.701L638.541,121.052L637.497,123.192L632.623,123.787L630.743,126.047L636.174,129.973L637.148,132.353L632.553,136.996L633.806,139.913L627.47,140.985L623.919,138.901L623.502,134.02L627.192,131.639L627.261,128.426L624.685,125.274L623.223,117.664L627.401,116.713L626.704,110.89L630.255,107.445L623.432,103.111L615.146,105.604L615.007,106.851L607.975,106.02L595.929,100.915L597.6,94.447L601.917,90.414L601.987,86.916L598.227,85.493L597.531,80.515L598.784,76.724L597.392,71.039L594.467,69.027L592.03,59.501L593.005,55.716L589.733,54.297L587.296,60.092L580.194,56.485L575.32,58.614L566.338,54.889L561.325,60.151L549.976,60.979L548.026,63.819L545.102,63.937L543.361,69.145L536.886,66.423L538.418,60.802L534.031,59.205L536.956,48.919L529.993,42.067L524.492,48.683L519.897,46.26L513.77,46.024L511.89,47.678L509.801,40L500.332,44.961L495.18,41.594L490.724,43.779L491.489,49.037L493.648,50.101L491.907,53.943L487.103,54.297L490.027,59.974L486.476,63.582L490.166,65.357L491.977,69.145L495.18,70.98L492.046,74.651L488.704,81.76L483.691,82.056L482.368,86.027L474.849,88.102L473.178,91.541L470.114,90.355L469.139,85.256L471.019,83.182L467.329,82.945L468.652,79.508L461.341,77.316L447.137,77.909L447.485,80.278L443.447,81.463L444.004,89.94L439.826,91.007L436.624,86.145L430.845,89.821L427.851,89.406L425.414,92.193L430.148,99.668L432.794,99.016L430.218,107.089L426.18,107.208L423.534,111.068L420.958,106.851L417.824,109.049L420.192,114.039L415.736,114.989L414.343,119.09L416.71,124.857L412.324,126.761L411.14,123.787L403.76,120.755L396.101,122.836L396.449,118.496L401.81,115.584L400.835,110.652L404.247,107.267L402.158,104.773L405.918,104.298L402.089,102.28L402.019,99.55L398.677,99.49L395.683,96.405L395.753,92.193L385.866,83.537L383.498,85.315L384.473,91.659L387.885,93.795L391.993,101.093L389.069,102.933L387.955,110.831L385.03,111.425L389.347,116.118L386.214,117.723L377.859,113.266L374.586,118.258L375.143,123.43L371.732,124.144L366.718,120.576L365.326,116.95L361.079,116.713L353.141,111.128L351.609,106.554L349.033,105.011L343.951,105.783L341.931,100.618L335.735,99.134L332.393,93.617L328.493,91.659L325.221,100.084L319.79,101.864L319.233,110.415L310.599,109.88L307.884,108.633L304.82,110.949L303.428,107.98L299.807,111.365L297.579,111.128L296.396,117.307L289.711,119.15L288.458,128.069L292.009,128.962L293.262,136.698L291.522,141.045L297.092,145.571L301.757,146.942L302.592,143.427L305.656,142.831L305.656,142.831L308.232,139.735L312.41,143.07L315.125,148.789L319.79,150.815L316.518,159.639L320.417,164.173L325.917,161.488L329.538,165.486L342.837,159.281L348.685,159.281L355.648,162.502L362.402,170.141L360.104,176.351L364.63,176.888L369.364,183.042L367.067,184.835L366.718,189.079L369.016,189.139L370.409,193.624L366.927,199.307L359.686,203.975L354.116,205.472L345.9,202.599L339.494,202.898L334.899,206.31L330.582,205.951L324.177,208.226L323.55,206.31L317.353,207.927L315.125,210.801L306.004,209.544L300.921,210.921L300.643,213.437L294.307,213.437L289.711,215.414L287.623,209.843L282.54,209.364L276.691,203.796L268.963,203.078L259.215,206.071L254.063,211.041L252.67,219.309L253.645,221.587L248.214,224.884L245.498,228.903L248.632,232.562L245.707,235.442L245.568,241.385L239.859,249.193L240.068,246.309L232.896,243.427L226.908,243.427L220.433,247.871L209.432,253.76L204.697,257.847L202.469,256.885L203.026,253.159L199.406,250.815L193.348,254.842L191.468,251.656L175.315,256.044L170.65,253.219L167.168,253.7L162.364,243.847L159.022,243.907L147.255,237.843L141.059,244.688L139.596,248.412L134.165,252.678L134.305,257.727L129.988,257.126L125.741,260.974L119.056,252.498L115.714,253.339L108.125,247.331L107.916,242.226L101.232,242.646L98.517,240.544L95.453,247.15L95.244,251.416L91.972,253.279L90.997,258.869L83.617,260.733L83.756,262.417L77.768,266.989L71.85,276.438L64.748,277.101L63.285,279.81L66.906,280.232L67.742,283.304L62.589,281.738L61.127,283.726L63.634,286.738L63.564,289.932L69.482,284.87L72.824,285.172L75.888,288.607L78.325,294.816L80.762,296.263L79.439,301.39L81.249,304.95L74.774,307.545L72.894,313.944L75.122,319.803L80.553,322.764L78.952,325.846L77.768,333.282L79.439,337.638L85.357,341.329L85.775,343.87L90.997,345.868L100.884,344.839L107.15,345.929L113.834,345.565L113.904,338.969L119.892,331.65L124.348,330.682L131.311,333.645L136.533,333.948L137.229,332.133L141.615,334.492L146.141,333.585L151.224,326.208L154.148,323.61L159.092,330.924L158.117,335.641L161.389,338.243L169.118,337.033L171.694,339.513L170.719,344.476L173.853,344.899L178.378,349.743L177.612,352.71L181.442,354.709L181.303,358.829L183.531,361.132L180.746,365.86L173.156,367.861L167.517,375.14L168.213,378.113L164.801,385.033L165.915,390.864L162.643,395.785L158.187,394.084L159.37,402.714L155.75,411.959L153.034,413.967L156.098,418.592L154.079,421.636L151.154,430.711L148.091,434.246L143.356,430.833L141.267,443.573L143.774,449.124L150.18,449.49L154.636,451.687L155.471,457.973L153.522,460.355L155.332,463.408L157.003,460.843L160.832,460.904L165.428,457.241L169.118,457.485L167.586,471.533L170.232,471.289L175.802,475.567L179.214,476.484L178.518,483.394L184.157,483.333L189.379,486.514L198.431,487.126L199.615,490.185L197.386,491.47L199.197,497.592L196.829,498.326L191.399,492.572L188.057,494.714L188.962,497.836L184.784,502.981L183.67,507.943L176.22,509.965L183.6,510.7L186.803,517.26L181.233,520.816L178.03,527.687L172.53,531.185L167.168,537.877L167.517,544.387L166.054,547.152L173.504,549.671L177.264,555.142L185.689,556.864L188.613,560L193.418,555.265L201.355,553.421L204.071,547.275L207.83,544.756L223.009,540.824L222.243,537.631L223.636,531.185L228.022,526.03L230.041,524.865L234.08,521.368L237.004,521.491L239.371,518.486L243.27,517.321L247.657,520.51L249.467,524.803L256.987,525.11L260.538,523.208L267.64,524.619L270.912,531.369L274.951,535.666L275.438,538.368L284.002,539.719L287.901,538.982L289.015,541.5L298.972,542.974L305.934,548.565L312.758,550.409L316.866,547.398L325.708,547.889L327.936,553.236L335.038,558.278L337.614,552.499L345.134,549.118L349.242,543.65L351.818,543.896L355.578,533.64L354.603,529.712L348.685,521.982L353.907,522.104L356.623,518.854L360.939,520.08L366.718,519.774L369.852,518.118L382.245,514.623L383.15,513.03L391.018,510.7L394.569,507.453L399.025,506.901L404.595,501.817L405.152,498.204L410.374,496.551L415.039,498.449L418.73,496.122L421.306,497.469L428.686,495.694L432.655,496.245L434.465,490.613L437.738,488.472L442.542,490.491L446.859,485.657L446.719,476.912L443.934,476.24L441.219,467.317L444.909,466.768L447.068,460.782L452.847,459.256L452.568,453.579L466.285,451.382L468.513,448.087L471.158,448.453L471.576,453.884L475.127,455.41L483.343,464.691L480.14,467.867L481.254,471.411L485.85,472.328L487.799,470.25L492.882,472.389L491.559,477.585L494.205,484.128L499.705,482.905L500.68,485.535L498.661,492.633L503.256,493.184L510.498,487.799L513.074,488.472L516.764,481.743L519.897,481.07L520.106,487.554L524.005,491.96L524.492,494.837L529.157,489.634L531.455,490.919L531.246,495.51L534.519,499.306L531.525,502.674L540.158,503.716L543.918,500.837L550.254,499.184L558.54,494.592L567.452,494.898L571.351,493.062L574.554,486.33L575.529,480.153L574.484,472.633L580.194,470.984L576.712,466.523L580.124,464.935L586.808,468.173L585.625,464.569L590.081,462.553L593.214,457.363L597.74,456.203L598.993,458.767L603.588,461.271L605.677,466.706L611.665,464.935L624.546,475.445L624.964,478.93L629.002,481.988L629.559,478.869L626.217,467.928L626.983,461.209L630.116,457.973L636.243,456.508L632.762,454.616L633.04,450.71L635.895,450.405L636.243,446.379L640.282,445.037L646.966,445.769L648.776,451.626L646.687,454.128L650.447,457.241L651.77,454.616L659.011,453.945L658.872,455.41L665.626,453.823L674.19,458.889L681.361,454.555L677.253,452.724L674.886,445.647L679.899,438.39L680.317,435.343L676.279,433.332L672.24,433.758L666.183,439.183L666.183,439.183L660.125,439.671L659.638,436.074L664.651,433.149L667.297,434.002L671.335,430.285L670.221,428.762L676.836,427.422L680.178,429.006L682.127,425.777L687.628,426.935L686.305,430.59L688.115,432.966L694.73,427.726L694.799,433.149L704.895,436.074L709.839,434.124L708.446,430.711L709.769,422.489L711.997,422.306L716.244,415.062L720.561,411.29L717.567,407.458L724.878,403.018L725.922,400.404L722.58,397.487L722.232,392.261L728.22,392.868L729.473,389.284L725.226,387.037L721.048,376.778L724.182,368.286L721.397,371.015L713.181,372.41L711.092,373.927L708.168,370.954L703.711,370.348L702.04,366.709L704.825,364.163L707.541,356.466L714.434,352.408L712.345,350.409L714.991,347.987L714.504,345.142L717.428,343.507L715.548,336.065L711.51,329.292L709.142,330.743L706.009,329.05L703.433,324.818L711.51,325.423L717.428,322.401L722.023,317.87L726.41,317.87L725.226,309.959L724.182,309.718L722.58,306.337L720.7,302.898L734.138,296.745L730.17,284.087L727.663,281.738L726.41,284.629L722.789,282.882L724.808,275.475L721.257,277.402L718.333,273.308L711.927,273.428L709.282,274.993L701.274,275.836L698.42,273.85L695.913,277.763L690.134,283.184L682.823,282.943L685.957,276.86L675.095,278.967L672.24,281.678L664.651,285.654L664.929,288.787L664.929,288.787L657.549,288.908L647.732,281.196L657.688,278.727L663.119,272.586L660.961,267.591L667.227,264.101L669.525,260.433L677.462,257.547L676.418,253.279L683.102,252.678L687.488,243.427L687.419,240.064L690.274,243.487L694.242,239.824L699.116,243.487L705.313,242.826L705.661,236.943L717.149,228.483L723.555,226.564L722.371,224.465L724.53,219.669L722.998,214.575L724.599,213.856L718.194,208.765L712.833,209.124L714.086,207.448L709.003,202.24L710.604,195.957L707.75,192.607L705.522,182.624L707.541,178.979L712.345,176.829L714.225,173.783L709.351,170.559L705.104,173.604L706.914,165.963L709.63,161.667L709.839,156.18L712.972,148.908L715.269,147.359L709.282,144.499L707.332,146.286L702.528,142.295L701.762,139.496L704.06,135.448L701.274,133.305L700.857,125.155ZM725.226,309.959L726.41,317.87L730.378,319.078L730.448,319.078L727.593,311.589L729.404,308.812L728.986,304.527L726.41,302.536L722.58,306.337L724.182,309.718ZM731.144,319.682L735.6,321.676L738.873,318.293L734.069,320.649Z" fill="#d1e7dd" opacity="0.3" transform="translate(5, 8)" />
  
  <!-- 填充与主轮廓 -->
  <path d="M702.388,121.765L697.793,124.025L693.059,124.441L688.742,130.509L688.602,138.127L684.634,146.286L680.595,149.683L682.893,154.809L681.152,156.836L674.399,152.782L672.031,159.281L663.467,156.18L662.771,153.14L659.568,152.842L655.042,155.107L651.213,149.981L645.712,153.617L641.813,151.888L640.49,145.81L644.459,143.308L646.896,134.674L644.25,133.603L646.548,129.557L642.718,126.701L638.541,121.052L637.497,123.192L632.623,123.787L630.743,126.047L636.174,129.973L637.148,132.353L632.553,136.996L633.806,139.913L627.47,140.985L623.919,138.901L623.502,134.02L627.192,131.639L627.261,128.426L624.685,125.274L623.223,117.664L627.401,116.713L626.704,110.89L630.255,107.445L623.432,103.111L615.146,105.604L615.007,106.851L607.975,106.02L595.929,100.915L597.6,94.447L601.917,90.414L601.987,86.916L598.227,85.493L597.531,80.515L598.784,76.724L597.392,71.039L594.467,69.027L592.03,59.501L593.005,55.716L589.733,54.297L587.296,60.092L580.194,56.485L575.32,58.614L566.338,54.889L561.325,60.151L549.976,60.979L548.026,63.819L545.102,63.937L543.361,69.145L536.886,66.423L538.418,60.802L534.031,59.205L536.956,48.919L529.993,42.067L524.492,48.683L519.897,46.26L513.77,46.024L511.89,47.678L509.801,40L500.332,44.961L495.18,41.594L490.724,43.779L491.489,49.037L493.648,50.101L491.907,53.943L487.103,54.297L490.027,59.974L486.476,63.582L490.166,65.357L491.977,69.145L495.18,70.98L492.046,74.651L488.704,81.76L483.691,82.056L482.368,86.027L474.849,88.102L473.178,91.541L470.114,90.355L469.139,85.256L471.019,83.182L467.329,82.945L468.652,79.508L461.341,77.316L447.137,77.909L447.485,80.278L443.447,81.463L444.004,89.94L439.826,91.007L436.624,86.145L430.845,89.821L427.851,89.406L425.414,92.193L430.148,99.668L432.794,99.016L430.218,107.089L426.18,107.208L423.534,111.068L420.958,106.851L417.824,109.049L420.192,114.039L415.736,114.989L414.343,119.09L416.71,124.857L412.324,126.761L411.14,123.787L403.76,120.755L396.101,122.836L396.449,118.496L401.81,115.584L400.835,110.652L404.247,107.267L402.158,104.773L405.918,104.298L402.089,102.28L402.019,99.55L398.677,99.49L395.683,96.405L395.753,92.193L385.866,83.537L383.498,85.315L384.473,91.659L387.885,93.795L391.993,101.093L389.069,102.933L387.955,110.831L385.03,111.425L389.347,116.118L386.214,117.723L377.859,113.266L374.586,118.258L375.143,123.43L371.732,124.144L366.718,120.576L365.326,116.95L361.079,116.713L353.141,111.128L351.609,106.554L349.033,105.011L343.951,105.783L341.931,100.618L335.735,99.134L332.393,93.617L328.493,91.659L325.221,100.084L319.79,101.864L319.233,110.415L310.599,109.88L307.884,108.633L304.82,110.949L303.428,107.98L299.807,111.365L297.579,111.128L296.396,117.307L289.711,119.15L288.458,128.069L292.009,128.962L293.262,136.698L291.522,141.045L297.092,145.571L301.757,146.942L302.592,143.427L305.656,142.831L305.656,142.831L308.232,139.735L312.41,143.07L315.125,148.789L319.79,150.815L316.518,159.639L320.417,164.173L325.917,161.488L329.538,165.486L342.837,159.281L348.685,159.281L355.648,162.502L362.402,170.141L360.104,176.351L364.63,176.888L369.364,183.042L367.067,184.835L366.718,189.079L369.016,189.139L370.409,193.624L366.927,199.307L359.686,203.975L354.116,205.472L345.9,202.599L339.494,202.898L334.899,206.31L330.582,205.951L324.177,208.226L323.55,206.31L317.353,207.927L315.125,210.801L306.004,209.544L300.921,210.921L300.643,213.437L294.307,213.437L289.711,215.414L287.623,209.843L282.54,209.364L276.691,203.796L268.963,203.078L259.215,206.071L254.063,211.041L252.67,219.309L253.645,221.587L248.214,224.884L245.498,228.903L248.632,232.562L245.707,235.442L245.568,241.385L239.859,249.193L240.068,246.309L232.896,243.427L226.908,243.427L220.433,247.871L209.432,253.76L204.697,257.847L202.469,256.885L203.026,253.159L199.406,250.815L193.348,254.842L191.468,251.656L175.315,256.044L170.65,253.219L167.168,253.7L162.364,243.847L159.022,243.907L147.255,237.843L141.059,244.688L139.596,248.412L134.165,252.678L134.305,257.727L129.988,257.126L125.741,260.974L119.056,252.498L115.714,253.339L108.125,247.331L107.916,242.226L101.232,242.646L98.517,240.544L95.453,247.15L95.244,251.416L91.972,253.279L90.997,258.869L83.617,260.733L83.756,262.417L77.768,266.989L71.85,276.438L64.748,277.101L63.285,279.81L66.906,280.232L67.742,283.304L62.589,281.738L61.127,283.726L63.634,286.738L63.564,289.932L69.482,284.87L72.824,285.172L75.888,288.607L78.325,294.816L80.762,296.263L79.439,301.39L81.249,304.95L74.774,307.545L72.894,313.944L75.122,319.803L80.553,322.764L78.952,325.846L77.768,333.282L79.439,337.638L85.357,341.329L85.775,343.87L90.997,345.868L100.884,344.839L107.15,345.929L113.834,345.565L113.904,338.969L119.892,331.65L124.348,330.682L131.311,333.645L136.533,333.948L137.229,332.133L141.615,334.492L146.141,333.585L151.224,326.208L154.148,323.61L159.092,330.924L158.117,335.641L161.389,338.243L169.118,337.033L171.694,339.513L170.719,344.476L173.853,344.899L178.378,349.743L177.612,352.71L181.442,354.709L181.303,358.829L183.531,361.132L180.746,365.86L173.156,367.861L167.517,375.14L168.213,378.113L164.801,385.033L165.915,390.864L162.643,395.785L158.187,394.084L159.37,402.714L155.75,411.959L153.034,413.967L156.098,418.592L154.079,421.636L151.154,430.711L148.091,434.246L143.356,430.833L141.267,443.573L143.774,449.124L150.18,449.49L154.636,451.687L155.471,457.973L153.522,460.355L155.332,463.408L157.003,460.843L160.832,460.904L165.428,457.241L169.118,457.485L167.586,471.533L170.232,471.289L175.802,475.567L179.214,476.484L178.518,483.394L184.157,483.333L189.379,486.514L198.431,487.126L199.615,490.185L197.386,491.47L199.197,497.592L196.829,498.326L191.399,492.572L188.057,494.714L188.962,497.836L184.784,502.981L183.67,507.943L176.22,509.965L183.6,510.7L186.803,517.26L181.233,520.816L178.03,527.687L172.53,531.185L167.168,537.877L167.517,544.387L166.054,547.152L173.504,549.671L177.264,555.142L185.689,556.864L188.613,560L193.418,555.265L201.355,553.421L204.071,547.275L207.83,544.756L223.009,540.824L222.243,537.631L223.636,531.185L228.022,526.03L230.041,524.865L234.08,521.368L237.004,521.491L239.371,518.486L243.27,517.321L247.657,520.51L249.467,524.803L256.987,525.11L260.538,523.208L267.64,524.619L270.912,531.369L274.951,535.666L275.438,538.368L284.002,539.719L287.901,538.982L289.015,541.5L298.972,542.974L305.934,548.565L312.758,550.409L316.866,547.398L325.708,547.889L327.936,553.236L335.038,558.278L337.614,552.499L345.134,549.118L349.242,543.65L351.818,543.896L355.578,533.64L354.603,529.712L348.685,521.982L353.907,522.104L356.623,518.854L360.939,520.08L366.718,519.774L369.852,518.118L382.245,514.623L383.15,513.03L391.018,510.7L394.569,507.453L399.025,506.901L404.595,501.817L405.152,498.204L410.374,496.551L415.039,498.449L418.73,496.122L421.306,497.469L428.686,495.694L432.655,496.245L434.465,490.613L437.738,488.472L442.542,490.491L446.859,485.657L446.719,476.912L443.934,476.24L441.219,467.317L444.909,466.768L447.068,460.782L452.847,459.256L452.568,453.579L466.285,451.382L468.513,448.087L471.158,448.453L471.576,453.884L475.127,455.41L483.343,464.691L480.14,467.867L481.254,471.411L485.85,472.328L487.799,470.25L492.882,472.389L491.559,477.585L494.205,484.128L499.705,482.905L500.68,485.535L498.661,492.633L503.256,493.184L510.498,487.799L513.074,488.472L516.764,481.743L519.897,481.07L520.106,487.554L524.005,491.96L524.492,494.837L529.157,489.634L531.455,490.919L531.246,495.51L534.519,499.306L531.525,502.674L540.158,503.716L543.918,500.837L550.254,499.184L558.54,494.592L567.452,494.898L571.351,493.062L574.554,486.33L575.529,480.153L574.484,472.633L580.194,470.984L576.712,466.523L580.124,464.935L586.808,468.173L585.625,464.569L590.081,462.553L593.214,457.363L597.74,456.203L598.993,458.767L603.588,461.271L605.677,466.706L611.665,464.935L624.546,475.445L624.964,478.93L629.002,481.988L629.559,478.869L626.217,467.928L626.983,461.209L630.116,457.973L636.243,456.508L632.762,454.616L633.04,450.71L635.895,450.405L636.243,446.379L640.282,445.037L646.966,445.769L648.776,451.626L646.687,454.128L650.447,457.241L651.77,454.616L659.011,453.945L658.872,455.41L665.626,453.823L674.19,458.889L681.361,454.555L677.253,452.724L674.886,445.647L679.899,438.39L680.317,435.343L676.279,433.332L672.24,433.758L666.183,439.183L666.183,439.183L660.125,439.671L659.638,436.074L664.651,433.149L667.297,434.002L671.335,430.285L670.221,428.762L676.836,427.422L680.178,429.006L682.127,425.777L687.628,426.935L686.305,430.59L688.115,432.966L694.73,427.726L694.799,433.149L704.895,436.074L709.839,434.124L708.446,430.711L709.769,422.489L711.997,422.306L716.244,415.062L720.561,411.29L717.567,407.458L724.878,403.018L725.922,400.404L722.58,397.487L722.232,392.261L728.22,392.868L729.473,389.284L725.226,387.037L721.048,376.778L724.182,368.286L721.397,371.015L713.181,372.41L711.092,373.927L708.168,370.954L703.711,370.348L702.04,366.709L704.825,364.163L707.541,356.466L714.434,352.408L712.345,350.409L714.991,347.987L714.504,345.142L717.428,343.507L715.548,336.065L711.51,329.292L709.142,330.743L706.009,329.05L703.433,324.818L711.51,325.423L717.428,322.401L722.023,317.87L726.41,317.87L725.226,309.959L724.182,309.718L722.58,306.337L720.7,302.898L734.138,296.745L730.17,284.087L727.663,281.738L726.41,284.629L722.789,282.882L724.808,275.475L721.257,277.402L718.333,273.308L711.927,273.428L709.282,274.993L701.274,275.836L698.42,273.85L695.913,277.763L690.134,283.184L682.823,282.943L685.957,276.86L675.095,278.967L672.24,281.678L664.651,285.654L664.929,288.787L664.929,288.787L657.549,288.908L647.732,281.196L657.688,278.727L663.119,272.586L660.961,267.591L667.227,264.101L669.525,260.433L677.462,257.547L676.418,253.279L683.102,252.678L687.488,243.427L687.419,240.064L690.274,243.487L694.242,239.824L699.116,243.487L705.313,242.826L705.661,236.943L717.149,228.483L723.555,226.564L722.371,224.465L724.53,219.669L722.998,214.575L724.599,213.856L718.194,208.765L712.833,209.124L714.086,207.448L709.003,202.24L710.604,195.957L707.75,192.607L705.522,182.624L707.541,178.979L712.345,176.829L714.225,173.783L709.351,170.559L705.104,173.604L706.914,165.963L709.63,161.667L709.839,156.18L712.972,148.908L715.269,147.359L709.282,144.499L707.332,146.286L702.528,142.295L701.762,139.496L704.06,135.448L701.274,133.305L700.857,125.155ZM725.226,309.959L726.41,317.87L730.378,319.078L730.448,319.078L727.593,311.589L729.404,308.812L728.986,304.527L726.41,302.536L722.58,306.337L724.182,309.718ZM731.144,319.682L735.6,321.676L738.873,318.293L734.069,320.649Z" fill="#e6f4ea" stroke="#137333" stroke-width="4" stroke-linejoin="round" stroke-linecap="round" />
  
  <!-- 内发光描边 -->
  <path d="M702.388,121.765L697.793,124.025L693.059,124.441L688.742,130.509L688.602,138.127L684.634,146.286L680.595,149.683L682.893,154.809L681.152,156.836L674.399,152.782L672.031,159.281L663.467,156.18L662.771,153.14L659.568,152.842L655.042,155.107L651.213,149.981L645.712,153.617L641.813,151.888L640.49,145.81L644.459,143.308L646.896,134.674L644.25,133.603L646.548,129.557L642.718,126.701L638.541,121.052L637.497,123.192L632.623,123.787L630.743,126.047L636.174,129.973L637.148,132.353L632.553,136.996L633.806,139.913L627.47,140.985L623.919,138.901L623.502,134.02L627.192,131.639L627.261,128.426L624.685,125.274L623.223,117.664L627.401,116.713L626.704,110.89L630.255,107.445L623.432,103.111L615.146,105.604L615.007,106.851L607.975,106.02L595.929,100.915L597.6,94.447L601.917,90.414L601.987,86.916L598.227,85.493L597.531,80.515L598.784,76.724L597.392,71.039L594.467,69.027L592.03,59.501L593.005,55.716L589.733,54.297L587.296,60.092L580.194,56.485L575.32,58.614L566.338,54.889L561.325,60.151L549.976,60.979L548.026,63.819L545.102,63.937L543.361,69.145L536.886,66.423L538.418,60.802L534.031,59.205L536.956,48.919L529.993,42.067L524.492,48.683L519.897,46.26L513.77,46.024L511.89,47.678L509.801,40L500.332,44.961L495.18,41.594L490.724,43.779L491.489,49.037L493.648,50.101L491.907,53.943L487.103,54.297L490.027,59.974L486.476,63.582L490.166,65.357L491.977,69.145L495.18,70.98L492.046,74.651L488.704,81.76L483.691,82.056L482.368,86.027L474.849,88.102L473.178,91.541L470.114,90.355L469.139,85.256L471.019,83.182L467.329,82.945L468.652,79.508L461.341,77.316L447.137,77.909L447.485,80.278L443.447,81.463L444.004,89.94L439.826,91.007L436.624,86.145L430.845,89.821L427.851,89.406L425.414,92.193L430.148,99.668L432.794,99.016L430.218,107.089L426.18,107.208L423.534,111.068L420.958,106.851L417.824,109.049L420.192,114.039L415.736,114.989L414.343,119.09L416.71,124.857L412.324,126.761L411.14,123.787L403.76,120.755L396.101,122.836L396.449,118.496L401.81,115.584L400.835,110.652L404.247,107.267L402.158,104.773L405.918,104.298L402.089,102.28L402.019,99.55L398.677,99.49L395.683,96.405L395.753,92.193L385.866,83.537L383.498,85.315L384.473,91.659L387.885,93.795L391.993,101.093L389.069,102.933L387.955,110.831L385.03,111.425L389.347,116.118L386.214,117.723L377.859,113.266L374.586,118.258L375.143,123.43L371.732,124.144L366.718,120.576L365.326,116.95L361.079,116.713L353.141,111.128L351.609,106.554L349.033,105.011L343.951,105.783L341.931,100.618L335.735,99.134L332.393,93.617L328.493,91.659L325.221,100.084L319.79,101.864L319.233,110.415L310.599,109.88L307.884,108.633L304.82,110.949L303.428,107.98L299.807,111.365L297.579,111.128L296.396,117.307L289.711,119.15L288.458,128.069L292.009,128.962L293.262,136.698L291.522,141.045L297.092,145.571L301.757,146.942L302.592,143.427L305.656,142.831L305.656,142.831L308.232,139.735L312.41,143.07L315.125,148.789L319.79,150.815L316.518,159.639L320.417,164.173L325.917,161.488L329.538,165.486L342.837,159.281L348.685,159.281L355.648,162.502L362.402,170.141L360.104,176.351L364.63,176.888L369.364,183.042L367.067,184.835L366.718,189.079L369.016,189.139L370.409,193.624L366.927,199.307L359.686,203.975L354.116,205.472L345.9,202.599L339.494,202.898L334.899,206.31L330.582,205.951L324.177,208.226L323.55,206.31L317.353,207.927L315.125,210.801L306.004,209.544L300.921,210.921L300.643,213.437L294.307,213.437L289.711,215.414L287.623,209.843L282.54,209.364L276.691,203.796L268.963,203.078L259.215,206.071L254.063,211.041L252.67,219.309L253.645,221.587L248.214,224.884L245.498,228.903L248.632,232.562L245.707,235.442L245.568,241.385L239.859,249.193L240.068,246.309L232.896,243.427L226.908,243.427L220.433,247.871L209.432,253.76L204.697,257.847L202.469,256.885L203.026,253.159L199.406,250.815L193.348,254.842L191.468,251.656L175.315,256.044L170.65,253.219L167.168,253.7L162.364,243.847L159.022,243.907L147.255,237.843L141.059,244.688L139.596,248.412L134.165,252.678L134.305,257.727L129.988,257.126L125.741,260.974L119.056,252.498L115.714,253.339L108.125,247.331L107.916,242.226L101.232,242.646L98.517,240.544L95.453,247.15L95.244,251.416L91.972,253.279L90.997,258.869L83.617,260.733L83.756,262.417L77.768,266.989L71.85,276.438L64.748,277.101L63.285,279.81L66.906,280.232L67.742,283.304L62.589,281.738L61.127,283.726L63.634,286.738L63.564,289.932L69.482,284.87L72.824,285.172L75.888,288.607L78.325,294.816L80.762,296.263L79.439,301.39L81.249,304.95L74.774,307.545L72.894,313.944L75.122,319.803L80.553,322.764L78.952,325.846L77.768,333.282L79.439,337.638L85.357,341.329L85.775,343.87L90.997,345.868L100.884,344.839L107.15,345.929L113.834,345.565L113.904,338.969L119.892,331.65L124.348,330.682L131.311,333.645L136.533,333.948L137.229,332.133L141.615,334.492L146.141,333.585L151.224,326.208L154.148,323.61L159.092,330.924L158.117,335.641L161.389,338.243L169.118,337.033L171.694,339.513L170.719,344.476L173.853,344.899L178.378,349.743L177.612,352.71L181.442,354.709L181.303,358.829L183.531,361.132L180.746,365.86L173.156,367.861L167.517,375.14L168.213,378.113L164.801,385.033L165.915,390.864L162.643,395.785L158.187,394.084L159.37,402.714L155.75,411.959L153.034,413.967L156.098,418.592L154.079,421.636L151.154,430.711L148.091,434.246L143.356,430.833L141.267,443.573L143.774,449.124L150.18,449.49L154.636,451.687L155.471,457.973L153.522,460.355L155.332,463.408L157.003,460.843L160.832,460.904L165.428,457.241L169.118,457.485L167.586,471.533L170.232,471.289L175.802,475.567L179.214,476.484L178.518,483.394L184.157,483.333L189.379,486.514L198.431,487.126L199.615,490.185L197.386,491.47L199.197,497.592L196.829,498.326L191.399,492.572L188.057,494.714L188.962,497.836L184.784,502.981L183.67,507.943L176.22,509.965L183.6,510.7L186.803,517.26L181.233,520.816L178.03,527.687L172.53,531.185L167.168,537.877L167.517,544.387L166.054,547.152L173.504,549.671L177.264,555.142L185.689,556.864L188.613,560L193.418,555.265L201.355,553.421L204.071,547.275L207.83,544.756L223.009,540.824L222.243,537.631L223.636,531.185L228.022,526.03L230.041,524.865L234.08,521.368L237.004,521.491L239.371,518.486L243.27,517.321L247.657,520.51L249.467,524.803L256.987,525.11L260.538,523.208L267.64,524.619L270.912,531.369L274.951,535.666L275.438,538.368L284.002,539.719L287.901,538.982L289.015,541.5L298.972,542.974L305.934,548.565L312.758,550.409L316.866,547.398L325.708,547.889L327.936,553.236L335.038,558.278L337.614,552.499L345.134,549.118L349.242,543.65L351.818,543.896L355.578,533.64L354.603,529.712L348.685,521.982L353.907,522.104L356.623,518.854L360.939,520.08L366.718,519.774L369.852,518.118L382.245,514.623L383.15,513.03L391.018,510.7L394.569,507.453L399.025,506.901L404.595,501.817L405.152,498.204L410.374,496.551L415.039,498.449L418.73,496.122L421.306,497.469L428.686,495.694L432.655,496.245L434.465,490.613L437.738,488.472L442.542,490.491L446.859,485.657L446.719,476.912L443.934,476.24L441.219,467.317L444.909,466.768L447.068,460.782L452.847,459.256L452.568,453.579L466.285,451.382L468.513,448.087L471.158,448.453L471.576,453.884L475.127,455.41L483.343,464.691L480.14,467.867L481.254,471.411L485.85,472.328L487.799,470.25L492.882,472.389L491.559,477.585L494.205,484.128L499.705,482.905L500.68,485.535L498.661,492.633L503.256,493.184L510.498,487.799L513.074,488.472L516.764,481.743L519.897,481.07L520.106,487.554L524.005,491.96L524.492,494.837L529.157,489.634L531.455,490.919L531.246,495.51L534.519,499.306L531.525,502.674L540.158,503.716L543.918,500.837L550.254,499.184L558.54,494.592L567.452,494.898L571.351,493.062L574.554,486.33L575.529,480.153L574.484,472.633L580.194,470.984L576.712,466.523L580.124,464.935L586.808,468.173L585.625,464.569L590.081,462.553L593.214,457.363L597.74,456.203L598.993,458.767L603.588,461.271L605.677,466.706L611.665,464.935L624.546,475.445L624.964,478.93L629.002,481.988L629.559,478.869L626.217,467.928L626.983,461.209L630.116,457.973L636.243,456.508L632.762,454.616L633.04,450.71L635.895,450.405L636.243,446.379L640.282,445.037L646.966,445.769L648.776,451.626L646.687,454.128L650.447,457.241L651.77,454.616L659.011,453.945L658.872,455.41L665.626,453.823L674.19,458.889L681.361,454.555L677.253,452.724L674.886,445.647L679.899,438.39L680.317,435.343L676.279,433.332L672.24,433.758L666.183,439.183L666.183,439.183L660.125,439.671L659.638,436.074L664.651,433.149L667.297,434.002L671.335,430.285L670.221,428.762L676.836,427.422L680.178,429.006L682.127,425.777L687.628,426.935L686.305,430.59L688.115,432.966L694.73,427.726L694.799,433.149L704.895,436.074L709.839,434.124L708.446,430.711L709.769,422.489L711.997,422.306L716.244,415.062L720.561,411.29L717.567,407.458L724.878,403.018L725.922,400.404L722.58,397.487L722.232,392.261L728.22,392.868L729.473,389.284L725.226,387.037L721.048,376.778L724.182,368.286L721.397,371.015L713.181,372.41L711.092,373.927L708.168,370.954L703.711,370.348L702.04,366.709L704.825,364.163L707.541,356.466L714.434,352.408L712.345,350.409L714.991,347.987L714.504,345.142L717.428,343.507L715.548,336.065L711.51,329.292L709.142,330.743L706.009,329.05L703.433,324.818L711.51,325.423L717.428,322.401L722.023,317.87L726.41,317.87L725.226,309.959L724.182,309.718L722.58,306.337L720.7,302.898L734.138,296.745L730.17,284.087L727.663,281.738L726.41,284.629L722.789,282.882L724.808,275.475L721.257,277.402L718.333,273.308L711.927,273.428L709.282,274.993L701.274,275.836L698.42,273.85L695.913,277.763L690.134,283.184L682.823,282.943L685.957,276.86L675.095,278.967L672.24,281.678L664.651,285.654L664.929,288.787L664.929,288.787L657.549,288.908L647.732,281.196L657.688,278.727L663.119,272.586L660.961,267.591L667.227,264.101L669.525,260.433L677.462,257.547L676.418,253.279L683.102,252.678L687.488,243.427L687.419,240.064L690.274,243.487L694.242,239.824L699.116,243.487L705.313,242.826L705.661,236.943L717.149,228.483L723.555,226.564L722.371,224.465L724.53,219.669L722.998,214.575L724.599,213.856L718.194,208.765L712.833,209.124L714.086,207.448L709.003,202.24L710.604,195.957L707.75,192.607L705.522,182.624L707.541,178.979L712.345,176.829L714.225,173.783L709.351,170.559L705.104,173.604L706.914,165.963L709.63,161.667L709.839,156.18L712.972,148.908L715.269,147.359L709.282,144.499L707.332,146.286L702.528,142.295L701.762,139.496L704.06,135.448L701.274,133.305L700.857,125.155ZM725.226,309.959L726.41,317.87L730.378,319.078L730.448,319.078L727.593,311.589L729.404,308.812L728.986,304.527L726.41,302.536L722.58,306.337L724.182,309.718ZM731.144,319.682L735.6,321.676L738.873,318.293L734.069,320.649Z" fill="none" stroke="#2e7d32" stroke-width="1.5" stroke-linejoin="round" stroke-linecap="round" opacity="0.6" />
</svg>