<svg xmlns="http://www.w3.org/2000/svg" width="800" height="600" viewBox="0 0 800 600">
  <!-- 背景色，采用淡米黄色 -->
  <rect width="100%" height="100%" fill="#f5f2eb" />
  
  <!-- 阴影层 -->
  <path d="M532.452,368.977L526.926,368.295L525.178,367.06L522.578,362.903L523.472,360.728L523.716,356.544L522.659,350.484L524.731,346.307L528.592,342.295L532.086,333.764L531.477,329.568L532.412,328.729L532.168,326.02L537.125,320.993L538.954,315.327L542.489,308.895L544.887,307.031L546.309,302.888L547.65,300.931L545.537,296.344L545.131,289.807L543.749,287.342L543.668,284.718L541.189,284.59L541.514,282.031L540.579,280.113L541.514,278.515L539.929,277.045L539.888,274.363L538.304,271.713L536.922,265.813L537.532,261.703L538.71,260.27L538.71,256.418L537.775,255.019L539.563,250.663L539.726,248.279L538.629,246.755L540.661,244.437L539.685,239.932L540.214,238.251L536.963,235.683L535.581,233.276L533.468,232.009L533.996,230.647L536.353,231.407L536.922,227.989L534.321,225.458L535.378,222.676L534.281,222.234L535.419,220.211L532.249,218.442L534.403,217.779L535.419,213.077L532.615,210.522L532.696,209.229L535.581,210.112L534.972,208.882L537.816,207.716L540.132,204.944L542.774,203.086L542.733,201.575L546.39,198.334L550.413,193.744L551.104,192.079L552.973,191.733L552.201,189.723L553.298,187.62L549.763,186.929L549.032,186.082L549.925,181.973L556.265,181.033L557.524,179.372L558.296,175.175L559.881,173.829L558.337,171.451L557.809,168.479L559.759,167.76L558.581,165.76L554.03,164.136L554.721,162.605L556.956,162.106L555.98,159.858L552.323,158.547L546.634,149.85L541.92,147.67L542.286,145.336L540.945,143.842L540.539,138.246L541.717,136.072L541.026,132.036L542.286,130.733L544.765,130.516L545.537,125.09L547.122,124.378L551.063,124.347L553.705,121.404L556.712,120.537L558.743,115.618L560.003,114.783L562.888,115.68L565.123,114.783L564.879,111.043L567.318,110.333L568.13,106.319L566.708,105.979L565.53,103.356L567.887,100.242L567.805,98.239L571.097,94.851L574.022,88.789L573.129,87.436L574.51,85.992L574.063,83.165L572.113,80.709L573.291,78.837L575.932,77.395L579.63,76.751L582.515,74.482L583.125,72.091L584.872,69.824L584.181,68.661L587.879,62.633L587.473,61.777L589.749,58.782L586.741,58.599L585.238,57.163L585.685,55.544L583.653,56.399L583.897,54.812L581.703,54.568L579.183,53.927L579.874,52.218L577.639,52.279L577.273,49.198L580.362,47.552L580.362,45.907L583.206,43.683L583.613,41.187L582.434,40L580.077,41.826L574.551,42.313L570.69,44.475L566.22,45.145L564.798,46.12L559.069,53.133L556.143,55.728L555.696,58.476L553.786,60.676L548.747,61.135L546.797,60.065L544.805,57.621L544.358,55.575L542.002,53.469L539.279,54.934L536.109,53.591L535.784,56.216L532.859,58.262L524.447,51.882L523.512,50.784L517.498,48.772L515.71,50.174L516.442,52.889L518.108,53.194L519.571,55.3L521.806,60.187L514.654,62.266L510.143,64.468L504.942,64.743L501,60.799L498.968,62.664L504.861,66.09L500.431,69.426L502.3,71.662L500.228,71.877L497.627,70.621L493.808,73.838L491.735,74.942L489.297,77.518L485.355,79.942L486.656,80.832L485.802,83.473L482.633,88.328L477.716,91.558L475.196,89.712L470.767,93.065L468.126,97.161L463.818,98.424L463.168,101.136L465.688,103.295L463.331,105.269L459.714,103.603L454.432,108.232L453.05,110.487L449.962,113.021L445.045,116.082L444.841,119.299L441.956,121.002L438.949,127.229L439.884,128.531L437.405,131.012L439.112,134.488L446.02,138.681L444.801,141.075L446.061,143.189L443.948,143.283L442.688,146.581L440.331,147.079L439.762,149.196L437.161,149.819L434.439,146.145L433.748,143.78L430.294,141.417L428.1,141.541L430.05,145.429L428.14,149.071L427.734,153.09L428.262,158.953L427.246,160.232L427.734,164.479L426.799,165.573L423.02,165.573L421.639,166.51L416.925,167.667L410.626,165.104L407.497,165.948L403.352,167.885L395.347,168.417L394.819,167.354L391.731,166.76L389.049,167.417L388.277,168.573L384.335,169.636L379.134,167.635L377.142,167.823L376.33,166.573L377.183,164.76L375.029,162.168L374.298,158.735L367.877,157.362L365.114,155.989L357.84,154.649L354.671,152.062L352.395,153.651L353.005,154.992L352.151,157.549L350.445,159.483L349.063,158.485L347.194,159.452L342.439,160.17L341.505,164.073L337.604,165.541L335.044,165.073L335.206,166.385L337.36,166.791L333.337,170.231L330.046,170.45L331.305,172.139L333.865,171.92L332.321,176.459L328.258,178.902L328.176,181.848L326.51,188.436L327.526,191.482L329.924,194.907L327.364,195.567L330.452,197.485L331.712,199.75L331.59,201.512L329.761,204.031L328.054,202.299L327.242,204.125L328.379,207.055L328.542,210.143L328.542,210.143L328.745,212.036L328.745,212.036L329.964,216.453L331.712,215.569L333.621,216.927L341.058,216.737L344.715,219.453L345.162,221.981L348.494,221.475L351.867,222.613L353.736,221.696L357.15,223.719L358.491,223.087L360.197,224.352L366.699,226.059L369.381,227.166L369.828,229.096L371.575,230.806L371.453,233.402L375.923,231.566L377.021,233.909L375.598,234.479L379.499,237.585L380.759,236.127L381.612,237.902L386.285,239.456L388.52,235.081L390.186,235.018L389.008,236.634L389.008,236.634L389.374,238.568L391.69,238.98L392.787,240.407L397.948,239.773L399.573,242.374L401.321,243.294L402.418,246.342L405.872,248.756L408.147,248.788L409.448,247.263L409.163,245.358L412.617,247.708L416.315,248.025L418.469,251.266L417.819,252.951L418.103,259.888L422.492,267.503L420.501,272.543L420.907,275.257L418.997,277.269L418.51,280.081L414.649,279.889L412.617,281.839L409.692,282.894L408.432,285.07L410.301,288.238L410.707,293.395L409.651,296.472L411.073,302.664L416.275,305.875L416.762,307.192L415.462,309.441L417.128,315.005L415.746,319.189L416.031,320.929L413.958,323.184L411.601,322.507L407.741,324.473L399.329,324.183L398.273,322.797L395.063,324.957L391.284,325.73L390.105,323.055L387.017,322.507L381.734,324.151L378.727,325.892L372.185,326.44L372.876,325.247L366.74,325.73L365.033,324.376L358.694,322.056L358.166,324.989L353.533,325.666L352.558,326.472L354.793,328.246L356.743,331.537L357.515,334.701L360.279,338.384L360.279,338.384L360.522,338.61L360.522,338.61L363.245,341.002L365.358,341.002L366.455,342.683L365.074,344.01L358.45,345.692L354.061,345.854L351.664,346.89L350.404,344.948L346.747,344.689L344.065,348.573L339.554,348.12L335.938,347.051L333.865,348.055L332.606,346.987L328.42,347.116L326.185,350.484L322,349.674L320.212,346.307L317.408,345.919L315.417,344.171L314.97,341.034L310.337,340.679L308.915,338.125L306.233,338.222L303.023,336.38L298.837,337.35L290.426,335.993L290.141,337.22L284.127,337.931L281.608,336.736L279.292,337.091L277.951,340.808L276.163,342.231L276.163,342.231L275.512,343.686L276.081,346.501L278.357,350.775L280.226,351.779L279.86,353.886L281.486,357.809L279.129,359.398L276.894,359.333L275.675,361.41L273.684,362.156L272.709,364.039L274.618,366.767L271.205,366.15L264.256,370.407L266.044,371.122L265.597,374.44L273.562,373.529L277.463,374.83L277.422,375.741L280.389,376.392L283.843,378.638L285.631,382.774L290.873,384.24L289.125,386.326L290.06,388.837L288.557,391.708L286.606,392.524L285.346,391.447L282.421,391.872L281.608,390.077L278.276,389.327L276.284,392.883L278.641,391.839L280.348,393.438L282.136,398.729L280.511,401.376L276.65,401.671L276.894,404.875L274.659,407.002L274.822,410.537L270.636,414.599L271.774,417.418L274.903,416.795L275.959,419.516L274.009,422.469L275.756,424.569L275.39,427.918L278.804,428.707L281.526,432.913L281.852,436.563L279.17,440.742L273.684,439.426L273.034,434.129L268.929,434.195L266.735,435.84L263.566,434.688L259.217,437.353L255.885,438.504L250.684,436.991L251.293,434.82L249.262,433.866L246.661,434.327L241.663,434.129L239.59,436.925L237.112,437.879L235.039,440.841L233.129,442.257L232.398,444.76L232.845,447.462L232.154,449.506L224.393,449.308L227.4,452.87L227.237,455.311L229.797,456.202L230.285,457.523L234.47,459.108L238.087,458.877L241.256,461.09L241.46,464.394L239.022,462.808L236.746,464.89L238.493,464.824L239.225,467.171L237.924,470.215L238.696,471.77L238.087,474.981L234.43,478.592L232.113,477.83L226.099,480.813L220.898,481.476L219.679,482.537L216.509,482.702L214.884,480.713L212.405,479.918L210.495,480.382L210.251,482.934L212.161,484.626L212.811,488.375L214.193,488.143L214.762,492.725L216.184,492.459L216.916,494.419L222.28,492.625L225.002,490.434L228.294,489.902L228.985,491.064L231.829,489.736L231.992,486.152L233.576,486.583L236.502,485.223L239.022,486.052L241.5,484.526L244.304,485.82L246.458,483.498L248.246,485.887L249.709,486.185L248.327,490.168L248.612,490.168L248.571,490.467L248.246,490.533L251.456,493.057L255.032,494.519L260.355,494.785L261.209,496.114L263.403,495.682L266.491,496.28L269.214,499.206L271.327,499.871L273.318,497.011L276.406,497.71L277.707,496.446L282.177,495.15L284.899,495.549L287.744,494.718L291.929,491.762L295.221,491.994L295.871,493.522L297.862,494.021L299.935,492.758L303.145,492.957L303.754,494.087L310.337,492.957L313.913,493.788L313.466,495.283L316.026,497.71L316.636,500.902L314.807,504.761L317.895,508.723L322.04,509.656L323.503,512.255L326.917,513.955L328.501,510.389L330.208,508.224L333.053,507.125L334.719,504.895L338.295,505.594L338.457,509.823L339.92,510.622L339.636,512.988L341.83,512.488L344.309,515.322L348.982,513.388L352.273,513.255L354.427,514.355L356.215,518.657L359.222,518.223L363.082,524.198L366.536,527.27L368.243,526.402L370.519,527.538L374.135,530.913L377.102,528.841L376.695,526.569L381.206,525.166L384.944,526.068L385.838,524.765L387.342,525.934L391.365,522.428L395.997,525.233L401.199,523.162L402.824,523.897L406.481,522.695L408.96,524.331L409.123,527.27L411.358,528.807L414.08,529.208L420.135,533.755L423.914,533.521L425.052,535.528L427.449,537.335L430.741,537.971L435.008,541.553L440.575,541.855L447.117,545.205L449.596,547.618L454.066,550.065L454.35,552.581L459.674,553.789L459.917,555.299L458.211,556.407L460.121,557.481L460.039,559.228L466.622,560L470.889,558.824L474.628,559.261L477.716,558.354L480.113,558.589L480.52,554.46L483.283,553.453L483.283,552.111L481.292,548.087L480.032,547.115L482.389,545.272L483.12,543.027L480.438,539.712L480.438,537.402L482.47,533.521L480.195,529.91L481.332,527.404L480.56,526.068L477.756,525.7L476.334,522.728L474.14,520.726L475.318,517.956L474.628,514.888L476.415,513.788L476.212,511.955L479.423,507.125L483.486,504.861L482.348,503.097L483.12,500.968L489.419,500.403L490.679,501.301L495.352,502.465L501.528,501.434L505.511,502.432L508.599,504.462L512.988,502.232L513.394,499.837L515.629,499.871L517.579,501.401L521.034,498.773L517.783,495.483L517.945,489.936L515.832,489.238L516.807,487.579L514.369,485.621L510.834,484.361L506.689,482.072L502.626,482.006L501.325,480.912L497.993,480.481L497.384,481.608L493.564,482.338L491.898,480.547L493.279,475.412L493.889,470.149L487.915,467.866L486.859,466.874L479.463,467.304L475.928,465.419L472.352,465.32L470.401,464.526L474.343,460.891L475.4,458.877L481.495,459.009L482.348,456.4L484.339,457.985L487.184,457.787L489.785,459.306L495.108,458.976L497.668,458.216L501.935,459.405L505.673,461.123L507.38,460.561L509.493,461.916L518.311,460.759L521.846,463.799L526.276,463.27L529.73,463.997L532.005,462.279L533.712,462.907L533.712,462.907L538.507,463.27L543.139,457.721L545.537,458.051L546.634,463.469L548.585,465.088L550.373,464.196L553.786,468.164L557.118,464.659L561.832,464.13L562.116,461.288L564.514,460.462L568.252,461.123L570.812,457.82L572.397,457.721L575.12,452.771L575.12,449.802L573.169,445.814L575.16,443.706L574.795,443.475L574.835,443.146L575.16,443.014L573.576,439.228L573.657,436.399L571.219,434.392L565.408,432.716L561.791,429.331L562.319,427.491L561.344,425.029L559.028,422.042L556.346,421.878L554.436,419.582L551.145,418.303L547.812,418.336L546.187,416.008L548.91,414.533L548.828,413.518L551.348,412.699L551.714,410.832L548.381,406.249L546.187,407.067L546.472,401.899L547.934,401.115L549.804,397.978L548.463,396.9L544.237,395.854L543.83,394.548L540.945,394.254L536.434,392.557L535.703,389.588L537.247,389.294L540.661,386.359L538.669,382.644L534.037,380.005L534.037,380.005L531.233,374.505L532.005,372.683L534.118,371.805L531.639,371.22ZM575.16,443.014L574.835,443.146L574.795,443.475L575.16,443.706ZM248.612,490.168L248.327,490.168L248.246,490.533L248.571,490.467Z" fill="#d1e7dd" opacity="0.3" transform="translate(5, 8)" />
  
  <!-- 填充与主轮廓 -->
  <path d="M532.452,368.977L526.926,368.295L525.178,367.06L522.578,362.903L523.472,360.728L523.716,356.544L522.659,350.484L524.731,346.307L528.592,342.295L532.086,333.764L531.477,329.568L532.412,328.729L532.168,326.02L537.125,320.993L538.954,315.327L542.489,308.895L544.887,307.031L546.309,302.888L547.65,300.931L545.537,296.344L545.131,289.807L543.749,287.342L543.668,284.718L541.189,284.59L541.514,282.031L540.579,280.113L541.514,278.515L539.929,277.045L539.888,274.363L538.304,271.713L536.922,265.813L537.532,261.703L538.71,260.27L538.71,256.418L537.775,255.019L539.563,250.663L539.726,248.279L538.629,246.755L540.661,244.437L539.685,239.932L540.214,238.251L536.963,235.683L535.581,233.276L533.468,232.009L533.996,230.647L536.353,231.407L536.922,227.989L534.321,225.458L535.378,222.676L534.281,222.234L535.419,220.211L532.249,218.442L534.403,217.779L535.419,213.077L532.615,210.522L532.696,209.229L535.581,210.112L534.972,208.882L537.816,207.716L540.132,204.944L542.774,203.086L542.733,201.575L546.39,198.334L550.413,193.744L551.104,192.079L552.973,191.733L552.201,189.723L553.298,187.62L549.763,186.929L549.032,186.082L549.925,181.973L556.265,181.033L557.524,179.372L558.296,175.175L559.881,173.829L558.337,171.451L557.809,168.479L559.759,167.76L558.581,165.76L554.03,164.136L554.721,162.605L556.956,162.106L555.98,159.858L552.323,158.547L546.634,149.85L541.92,147.67L542.286,145.336L540.945,143.842L540.539,138.246L541.717,136.072L541.026,132.036L542.286,130.733L544.765,130.516L545.537,125.09L547.122,124.378L551.063,124.347L553.705,121.404L556.712,120.537L558.743,115.618L560.003,114.783L562.888,115.68L565.123,114.783L564.879,111.043L567.318,110.333L568.13,106.319L566.708,105.979L565.53,103.356L567.887,100.242L567.805,98.239L571.097,94.851L574.022,88.789L573.129,87.436L574.51,85.992L574.063,83.165L572.113,80.709L573.291,78.837L575.932,77.395L579.63,76.751L582.515,74.482L583.125,72.091L584.872,69.824L584.181,68.661L587.879,62.633L587.473,61.777L589.749,58.782L586.741,58.599L585.238,57.163L585.685,55.544L583.653,56.399L583.897,54.812L581.703,54.568L579.183,53.927L579.874,52.218L577.639,52.279L577.273,49.198L580.362,47.552L580.362,45.907L583.206,43.683L583.613,41.187L582.434,40L580.077,41.826L574.551,42.313L570.69,44.475L566.22,45.145L564.798,46.12L559.069,53.133L556.143,55.728L555.696,58.476L553.786,60.676L548.747,61.135L546.797,60.065L544.805,57.621L544.358,55.575L542.002,53.469L539.279,54.934L536.109,53.591L535.784,56.216L532.859,58.262L524.447,51.882L523.512,50.784L517.498,48.772L515.71,50.174L516.442,52.889L518.108,53.194L519.571,55.3L521.806,60.187L514.654,62.266L510.143,64.468L504.942,64.743L501,60.799L498.968,62.664L504.861,66.09L500.431,69.426L502.3,71.662L500.228,71.877L497.627,70.621L493.808,73.838L491.735,74.942L489.297,77.518L485.355,79.942L486.656,80.832L485.802,83.473L482.633,88.328L477.716,91.558L475.196,89.712L470.767,93.065L468.126,97.161L463.818,98.424L463.168,101.136L465.688,103.295L463.331,105.269L459.714,103.603L454.432,108.232L453.05,110.487L449.962,113.021L445.045,116.082L444.841,119.299L441.956,121.002L438.949,127.229L439.884,128.531L437.405,131.012L439.112,134.488L446.02,138.681L444.801,141.075L446.061,143.189L443.948,143.283L442.688,146.581L440.331,147.079L439.762,149.196L437.161,149.819L434.439,146.145L433.748,143.78L430.294,141.417L428.1,141.541L430.05,145.429L428.14,149.071L427.734,153.09L428.262,158.953L427.246,160.232L427.734,164.479L426.799,165.573L423.02,165.573L421.639,166.51L416.925,167.667L410.626,165.104L407.497,165.948L403.352,167.885L395.347,168.417L394.819,167.354L391.731,166.76L389.049,167.417L388.277,168.573L384.335,169.636L379.134,167.635L377.142,167.823L376.33,166.573L377.183,164.76L375.029,162.168L374.298,158.735L367.877,157.362L365.114,155.989L357.84,154.649L354.671,152.062L352.395,153.651L353.005,154.992L352.151,157.549L350.445,159.483L349.063,158.485L347.194,159.452L342.439,160.17L341.505,164.073L337.604,165.541L335.044,165.073L335.206,166.385L337.36,166.791L333.337,170.231L330.046,170.45L331.305,172.139L333.865,171.92L332.321,176.459L328.258,178.902L328.176,181.848L326.51,188.436L327.526,191.482L329.924,194.907L327.364,195.567L330.452,197.485L331.712,199.75L331.59,201.512L329.761,204.031L328.054,202.299L327.242,204.125L328.379,207.055L328.542,210.143L328.542,210.143L328.745,212.036L328.745,212.036L329.964,216.453L331.712,215.569L333.621,216.927L341.058,216.737L344.715,219.453L345.162,221.981L348.494,221.475L351.867,222.613L353.736,221.696L357.15,223.719L358.491,223.087L360.197,224.352L366.699,226.059L369.381,227.166L369.828,229.096L371.575,230.806L371.453,233.402L375.923,231.566L377.021,233.909L375.598,234.479L379.499,237.585L380.759,236.127L381.612,237.902L386.285,239.456L388.52,235.081L390.186,235.018L389.008,236.634L389.008,236.634L389.374,238.568L391.69,238.98L392.787,240.407L397.948,239.773L399.573,242.374L401.321,243.294L402.418,246.342L405.872,248.756L408.147,248.788L409.448,247.263L409.163,245.358L412.617,247.708L416.315,248.025L418.469,251.266L417.819,252.951L418.103,259.888L422.492,267.503L420.501,272.543L420.907,275.257L418.997,277.269L418.51,280.081L414.649,279.889L412.617,281.839L409.692,282.894L408.432,285.07L410.301,288.238L410.707,293.395L409.651,296.472L411.073,302.664L416.275,305.875L416.762,307.192L415.462,309.441L417.128,315.005L415.746,319.189L416.031,320.929L413.958,323.184L411.601,322.507L407.741,324.473L399.329,324.183L398.273,322.797L395.063,324.957L391.284,325.73L390.105,323.055L387.017,322.507L381.734,324.151L378.727,325.892L372.185,326.44L372.876,325.247L366.74,325.73L365.033,324.376L358.694,322.056L358.166,324.989L353.533,325.666L352.558,326.472L354.793,328.246L356.743,331.537L357.515,334.701L360.279,338.384L360.279,338.384L360.522,338.61L360.522,338.61L363.245,341.002L365.358,341.002L366.455,342.683L365.074,344.01L358.45,345.692L354.061,345.854L351.664,346.89L350.404,344.948L346.747,344.689L344.065,348.573L339.554,348.12L335.938,347.051L333.865,348.055L332.606,346.987L328.42,347.116L326.185,350.484L322,349.674L320.212,346.307L317.408,345.919L315.417,344.171L314.97,341.034L310.337,340.679L308.915,338.125L306.233,338.222L303.023,336.38L298.837,337.35L290.426,335.993L290.141,337.22L284.127,337.931L281.608,336.736L279.292,337.091L277.951,340.808L276.163,342.231L276.163,342.231L275.512,343.686L276.081,346.501L278.357,350.775L280.226,351.779L279.86,353.886L281.486,357.809L279.129,359.398L276.894,359.333L275.675,361.41L273.684,362.156L272.709,364.039L274.618,366.767L271.205,366.15L264.256,370.407L266.044,371.122L265.597,374.44L273.562,373.529L277.463,374.83L277.422,375.741L280.389,376.392L283.843,378.638L285.631,382.774L290.873,384.24L289.125,386.326L290.06,388.837L288.557,391.708L286.606,392.524L285.346,391.447L282.421,391.872L281.608,390.077L278.276,389.327L276.284,392.883L278.641,391.839L280.348,393.438L282.136,398.729L280.511,401.376L276.65,401.671L276.894,404.875L274.659,407.002L274.822,410.537L270.636,414.599L271.774,417.418L274.903,416.795L275.959,419.516L274.009,422.469L275.756,424.569L275.39,427.918L278.804,428.707L281.526,432.913L281.852,436.563L279.17,440.742L273.684,439.426L273.034,434.129L268.929,434.195L266.735,435.84L263.566,434.688L259.217,437.353L255.885,438.504L250.684,436.991L251.293,434.82L249.262,433.866L246.661,434.327L241.663,434.129L239.59,436.925L237.112,437.879L235.039,440.841L233.129,442.257L232.398,444.76L232.845,447.462L232.154,449.506L224.393,449.308L227.4,452.87L227.237,455.311L229.797,456.202L230.285,457.523L234.47,459.108L238.087,458.877L241.256,461.09L241.46,464.394L239.022,462.808L236.746,464.89L238.493,464.824L239.225,467.171L237.924,470.215L238.696,471.77L238.087,474.981L234.43,478.592L232.113,477.83L226.099,480.813L220.898,481.476L219.679,482.537L216.509,482.702L214.884,480.713L212.405,479.918L210.495,480.382L210.251,482.934L212.161,484.626L212.811,488.375L214.193,488.143L214.762,492.725L216.184,492.459L216.916,494.419L222.28,492.625L225.002,490.434L228.294,489.902L228.985,491.064L231.829,489.736L231.992,486.152L233.576,486.583L236.502,485.223L239.022,486.052L241.5,484.526L244.304,485.82L246.458,483.498L248.246,485.887L249.709,486.185L248.327,490.168L248.612,490.168L248.571,490.467L248.246,490.533L251.456,493.057L255.032,494.519L260.355,494.785L261.209,496.114L263.403,495.682L266.491,496.28L269.214,499.206L271.327,499.871L273.318,497.011L276.406,497.71L277.707,496.446L282.177,495.15L284.899,495.549L287.744,494.718L291.929,491.762L295.221,491.994L295.871,493.522L297.862,494.021L299.935,492.758L303.145,492.957L303.754,494.087L310.337,492.957L313.913,493.788L313.466,495.283L316.026,497.71L316.636,500.902L314.807,504.761L317.895,508.723L322.04,509.656L323.503,512.255L326.917,513.955L328.501,510.389L330.208,508.224L333.053,507.125L334.719,504.895L338.295,505.594L338.457,509.823L339.92,510.622L339.636,512.988L341.83,512.488L344.309,515.322L348.982,513.388L352.273,513.255L354.427,514.355L356.215,518.657L359.222,518.223L363.082,524.198L366.536,527.27L368.243,526.402L370.519,527.538L374.135,530.913L377.102,528.841L376.695,526.569L381.206,525.166L384.944,526.068L385.838,524.765L387.342,525.934L391.365,522.428L395.997,525.233L401.199,523.162L402.824,523.897L406.481,522.695L408.96,524.331L409.123,527.27L411.358,528.807L414.08,529.208L420.135,533.755L423.914,533.521L425.052,535.528L427.449,537.335L430.741,537.971L435.008,541.553L440.575,541.855L447.117,545.205L449.596,547.618L454.066,550.065L454.35,552.581L459.674,553.789L459.917,555.299L458.211,556.407L460.121,557.481L460.039,559.228L466.622,560L470.889,558.824L474.628,559.261L477.716,558.354L480.113,558.589L480.52,554.46L483.283,553.453L483.283,552.111L481.292,548.087L480.032,547.115L482.389,545.272L483.12,543.027L480.438,539.712L480.438,537.402L482.47,533.521L480.195,529.91L481.332,527.404L480.56,526.068L477.756,525.7L476.334,522.728L474.14,520.726L475.318,517.956L474.628,514.888L476.415,513.788L476.212,511.955L479.423,507.125L483.486,504.861L482.348,503.097L483.12,500.968L489.419,500.403L490.679,501.301L495.352,502.465L501.528,501.434L505.511,502.432L508.599,504.462L512.988,502.232L513.394,499.837L515.629,499.871L517.579,501.401L521.034,498.773L517.783,495.483L517.945,489.936L515.832,489.238L516.807,487.579L514.369,485.621L510.834,484.361L506.689,482.072L502.626,482.006L501.325,480.912L497.993,480.481L497.384,481.608L493.564,482.338L491.898,480.547L493.279,475.412L493.889,470.149L487.915,467.866L486.859,466.874L479.463,467.304L475.928,465.419L472.352,465.32L470.401,464.526L474.343,460.891L475.4,458.877L481.495,459.009L482.348,456.4L484.339,457.985L487.184,457.787L489.785,459.306L495.108,458.976L497.668,458.216L501.935,459.405L505.673,461.123L507.38,460.561L509.493,461.916L518.311,460.759L521.846,463.799L526.276,463.27L529.73,463.997L532.005,462.279L533.712,462.907L533.712,462.907L538.507,463.27L543.139,457.721L545.537,458.051L546.634,463.469L548.585,465.088L550.373,464.196L553.786,468.164L557.118,464.659L561.832,464.13L562.116,461.288L564.514,460.462L568.252,461.123L570.812,457.82L572.397,457.721L575.12,452.771L575.12,449.802L573.169,445.814L575.16,443.706L574.795,443.475L574.835,443.146L575.16,443.014L573.576,439.228L573.657,436.399L571.219,434.392L565.408,432.716L561.791,429.331L562.319,427.491L561.344,425.029L559.028,422.042L556.346,421.878L554.436,419.582L551.145,418.303L547.812,418.336L546.187,416.008L548.91,414.533L548.828,413.518L551.348,412.699L551.714,410.832L548.381,406.249L546.187,407.067L546.472,401.899L547.934,401.115L549.804,397.978L548.463,396.9L544.237,395.854L543.83,394.548L540.945,394.254L536.434,392.557L535.703,389.588L537.247,389.294L540.661,386.359L538.669,382.644L534.037,380.005L534.037,380.005L531.233,374.505L532.005,372.683L534.118,371.805L531.639,371.22ZM575.16,443.014L574.835,443.146L574.795,443.475L575.16,443.706ZM248.612,490.168L248.327,490.168L248.246,490.533L248.571,490.467Z" fill="#e6f4ea" stroke="#137333" stroke-width="4" stroke-linejoin="round" stroke-linecap="round" />
  
  <!-- 内发光描边 -->
  <path d="M532.452,368.977L526.926,368.295L525.178,367.06L522.578,362.903L523.472,360.728L523.716,356.544L522.659,350.484L524.731,346.307L528.592,342.295L532.086,333.764L531.477,329.568L532.412,328.729L532.168,326.02L537.125,320.993L538.954,315.327L542.489,308.895L544.887,307.031L546.309,302.888L547.65,300.931L545.537,296.344L545.131,289.807L543.749,287.342L543.668,284.718L541.189,284.59L541.514,282.031L540.579,280.113L541.514,278.515L539.929,277.045L539.888,274.363L538.304,271.713L536.922,265.813L537.532,261.703L538.71,260.27L538.71,256.418L537.775,255.019L539.563,250.663L539.726,248.279L538.629,246.755L540.661,244.437L539.685,239.932L540.214,238.251L536.963,235.683L535.581,233.276L533.468,232.009L533.996,230.647L536.353,231.407L536.922,227.989L534.321,225.458L535.378,222.676L534.281,222.234L535.419,220.211L532.249,218.442L534.403,217.779L535.419,213.077L532.615,210.522L532.696,209.229L535.581,210.112L534.972,208.882L537.816,207.716L540.132,204.944L542.774,203.086L542.733,201.575L546.39,198.334L550.413,193.744L551.104,192.079L552.973,191.733L552.201,189.723L553.298,187.62L549.763,186.929L549.032,186.082L549.925,181.973L556.265,181.033L557.524,179.372L558.296,175.175L559.881,173.829L558.337,171.451L557.809,168.479L559.759,167.76L558.581,165.76L554.03,164.136L554.721,162.605L556.956,162.106L555.98,159.858L552.323,158.547L546.634,149.85L541.92,147.67L542.286,145.336L540.945,143.842L540.539,138.246L541.717,136.072L541.026,132.036L542.286,130.733L544.765,130.516L545.537,125.09L547.122,124.378L551.063,124.347L553.705,121.404L556.712,120.537L558.743,115.618L560.003,114.783L562.888,115.68L565.123,114.783L564.879,111.043L567.318,110.333L568.13,106.319L566.708,105.979L565.53,103.356L567.887,100.242L567.805,98.239L571.097,94.851L574.022,88.789L573.129,87.436L574.51,85.992L574.063,83.165L572.113,80.709L573.291,78.837L575.932,77.395L579.63,76.751L582.515,74.482L583.125,72.091L584.872,69.824L584.181,68.661L587.879,62.633L587.473,61.777L589.749,58.782L586.741,58.599L585.238,57.163L585.685,55.544L583.653,56.399L583.897,54.812L581.703,54.568L579.183,53.927L579.874,52.218L577.639,52.279L577.273,49.198L580.362,47.552L580.362,45.907L583.206,43.683L583.613,41.187L582.434,40L580.077,41.826L574.551,42.313L570.69,44.475L566.22,45.145L564.798,46.12L559.069,53.133L556.143,55.728L555.696,58.476L553.786,60.676L548.747,61.135L546.797,60.065L544.805,57.621L544.358,55.575L542.002,53.469L539.279,54.934L536.109,53.591L535.784,56.216L532.859,58.262L524.447,51.882L523.512,50.784L517.498,48.772L515.71,50.174L516.442,52.889L518.108,53.194L519.571,55.3L521.806,60.187L514.654,62.266L510.143,64.468L504.942,64.743L501,60.799L498.968,62.664L504.861,66.09L500.431,69.426L502.3,71.662L500.228,71.877L497.627,70.621L493.808,73.838L491.735,74.942L489.297,77.518L485.355,79.942L486.656,80.832L485.802,83.473L482.633,88.328L477.716,91.558L475.196,89.712L470.767,93.065L468.126,97.161L463.818,98.424L463.168,101.136L465.688,103.295L463.331,105.269L459.714,103.603L454.432,108.232L453.05,110.487L449.962,113.021L445.045,116.082L444.841,119.299L441.956,121.002L438.949,127.229L439.884,128.531L437.405,131.012L439.112,134.488L446.02,138.681L444.801,141.075L446.061,143.189L443.948,143.283L442.688,146.581L440.331,147.079L439.762,149.196L437.161,149.819L434.439,146.145L433.748,143.78L430.294,141.417L428.1,141.541L430.05,145.429L428.14,149.071L427.734,153.09L428.262,158.953L427.246,160.232L427.734,164.479L426.799,165.573L423.02,165.573L421.639,166.51L416.925,167.667L410.626,165.104L407.497,165.948L403.352,167.885L395.347,168.417L394.819,167.354L391.731,166.76L389.049,167.417L388.277,168.573L384.335,169.636L379.134,167.635L377.142,167.823L376.33,166.573L377.183,164.76L375.029,162.168L374.298,158.735L367.877,157.362L365.114,155.989L357.84,154.649L354.671,152.062L352.395,153.651L353.005,154.992L352.151,157.549L350.445,159.483L349.063,158.485L347.194,159.452L342.439,160.17L341.505,164.073L337.604,165.541L335.044,165.073L335.206,166.385L337.36,166.791L333.337,170.231L330.046,170.45L331.305,172.139L333.865,171.92L332.321,176.459L328.258,178.902L328.176,181.848L326.51,188.436L327.526,191.482L329.924,194.907L327.364,195.567L330.452,197.485L331.712,199.75L331.59,201.512L329.761,204.031L328.054,202.299L327.242,204.125L328.379,207.055L328.542,210.143L328.542,210.143L328.745,212.036L328.745,212.036L329.964,216.453L331.712,215.569L333.621,216.927L341.058,216.737L344.715,219.453L345.162,221.981L348.494,221.475L351.867,222.613L353.736,221.696L357.15,223.719L358.491,223.087L360.197,224.352L366.699,226.059L369.381,227.166L369.828,229.096L371.575,230.806L371.453,233.402L375.923,231.566L377.021,233.909L375.598,234.479L379.499,237.585L380.759,236.127L381.612,237.902L386.285,239.456L388.52,235.081L390.186,235.018L389.008,236.634L389.008,236.634L389.374,238.568L391.69,238.98L392.787,240.407L397.948,239.773L399.573,242.374L401.321,243.294L402.418,246.342L405.872,248.756L408.147,248.788L409.448,247.263L409.163,245.358L412.617,247.708L416.315,248.025L418.469,251.266L417.819,252.951L418.103,259.888L422.492,267.503L420.501,272.543L420.907,275.257L418.997,277.269L418.51,280.081L414.649,279.889L412.617,281.839L409.692,282.894L408.432,285.07L410.301,288.238L410.707,293.395L409.651,296.472L411.073,302.664L416.275,305.875L416.762,307.192L415.462,309.441L417.128,315.005L415.746,319.189L416.031,320.929L413.958,323.184L411.601,322.507L407.741,324.473L399.329,324.183L398.273,322.797L395.063,324.957L391.284,325.73L390.105,323.055L387.017,322.507L381.734,324.151L378.727,325.892L372.185,326.44L372.876,325.247L366.74,325.73L365.033,324.376L358.694,322.056L358.166,324.989L353.533,325.666L352.558,326.472L354.793,328.246L356.743,331.537L357.515,334.701L360.279,338.384L360.279,338.384L360.522,338.61L360.522,338.61L363.245,341.002L365.358,341.002L366.455,342.683L365.074,344.01L358.45,345.692L354.061,345.854L351.664,346.89L350.404,344.948L346.747,344.689L344.065,348.573L339.554,348.12L335.938,347.051L333.865,348.055L332.606,346.987L328.42,347.116L326.185,350.484L322,349.674L320.212,346.307L317.408,345.919L315.417,344.171L314.97,341.034L310.337,340.679L308.915,338.125L306.233,338.222L303.023,336.38L298.837,337.35L290.426,335.993L290.141,337.22L284.127,337.931L281.608,336.736L279.292,337.091L277.951,340.808L276.163,342.231L276.163,342.231L275.512,343.686L276.081,346.501L278.357,350.775L280.226,351.779L279.86,353.886L281.486,357.809L279.129,359.398L276.894,359.333L275.675,361.41L273.684,362.156L272.709,364.039L274.618,366.767L271.205,366.15L264.256,370.407L266.044,371.122L265.597,374.44L273.562,373.529L277.463,374.83L277.422,375.741L280.389,376.392L283.843,378.638L285.631,382.774L290.873,384.24L289.125,386.326L290.06,388.837L288.557,391.708L286.606,392.524L285.346,391.447L282.421,391.872L281.608,390.077L278.276,389.327L276.284,392.883L278.641,391.839L280.348,393.438L282.136,398.729L280.511,401.376L276.65,401.671L276.894,404.875L274.659,407.002L274.822,410.537L270.636,414.599L271.774,417.418L274.903,416.795L275.959,419.516L274.009,422.469L275.756,424.569L275.39,427.918L278.804,428.707L281.526,432.913L281.852,436.563L279.17,440.742L273.684,439.426L273.034,434.129L268.929,434.195L266.735,435.84L263.566,434.688L259.217,437.353L255.885,438.504L250.684,436.991L251.293,434.82L249.262,433.866L246.661,434.327L241.663,434.129L239.59,436.925L237.112,437.879L235.039,440.841L233.129,442.257L232.398,444.76L232.845,447.462L232.154,449.506L224.393,449.308L227.4,452.87L227.237,455.311L229.797,456.202L230.285,457.523L234.47,459.108L238.087,458.877L241.256,461.09L241.46,464.394L239.022,462.808L236.746,464.89L238.493,464.824L239.225,467.171L237.924,470.215L238.696,471.77L238.087,474.981L234.43,478.592L232.113,477.83L226.099,480.813L220.898,481.476L219.679,482.537L216.509,482.702L214.884,480.713L212.405,479.918L210.495,480.382L210.251,482.934L212.161,484.626L212.811,488.375L214.193,488.143L214.762,492.725L216.184,492.459L216.916,494.419L222.28,492.625L225.002,490.434L228.294,489.902L228.985,491.064L231.829,489.736L231.992,486.152L233.576,486.583L236.502,485.223L239.022,486.052L241.5,484.526L244.304,485.82L246.458,483.498L248.246,485.887L249.709,486.185L248.327,490.168L248.612,490.168L248.571,490.467L248.246,490.533L251.456,493.057L255.032,494.519L260.355,494.785L261.209,496.114L263.403,495.682L266.491,496.28L269.214,499.206L271.327,499.871L273.318,497.011L276.406,497.71L277.707,496.446L282.177,495.15L284.899,495.549L287.744,494.718L291.929,491.762L295.221,491.994L295.871,493.522L297.862,494.021L299.935,492.758L303.145,492.957L303.754,494.087L310.337,492.957L313.913,493.788L313.466,495.283L316.026,497.71L316.636,500.902L314.807,504.761L317.895,508.723L322.04,509.656L323.503,512.255L326.917,513.955L328.501,510.389L330.208,508.224L333.053,507.125L334.719,504.895L338.295,505.594L338.457,509.823L339.92,510.622L339.636,512.988L341.83,512.488L344.309,515.322L348.982,513.388L352.273,513.255L354.427,514.355L356.215,518.657L359.222,518.223L363.082,524.198L366.536,527.27L368.243,526.402L370.519,527.538L374.135,530.913L377.102,528.841L376.695,526.569L381.206,525.166L384.944,526.068L385.838,524.765L387.342,525.934L391.365,522.428L395.997,525.233L401.199,523.162L402.824,523.897L406.481,522.695L408.96,524.331L409.123,527.27L411.358,528.807L414.08,529.208L420.135,533.755L423.914,533.521L425.052,535.528L427.449,537.335L430.741,537.971L435.008,541.553L440.575,541.855L447.117,545.205L449.596,547.618L454.066,550.065L454.35,552.581L459.674,553.789L459.917,555.299L458.211,556.407L460.121,557.481L460.039,559.228L466.622,560L470.889,558.824L474.628,559.261L477.716,558.354L480.113,558.589L480.52,554.46L483.283,553.453L483.283,552.111L481.292,548.087L480.032,547.115L482.389,545.272L483.12,543.027L480.438,539.712L480.438,537.402L482.47,533.521L480.195,529.91L481.332,527.404L480.56,526.068L477.756,525.7L476.334,522.728L474.14,520.726L475.318,517.956L474.628,514.888L476.415,513.788L476.212,511.955L479.423,507.125L483.486,504.861L482.348,503.097L483.12,500.968L489.419,500.403L490.679,501.301L495.352,502.465L501.528,501.434L505.511,502.432L508.599,504.462L512.988,502.232L513.394,499.837L515.629,499.871L517.579,501.401L521.034,498.773L517.783,495.483L517.945,489.936L515.832,489.238L516.807,487.579L514.369,485.621L510.834,484.361L506.689,482.072L502.626,482.006L501.325,480.912L497.993,480.481L497.384,481.608L493.564,482.338L491.898,480.547L493.279,475.412L493.889,470.149L487.915,467.866L486.859,466.874L479.463,467.304L475.928,465.419L472.352,465.32L470.401,464.526L474.343,460.891L475.4,458.877L481.495,459.009L482.348,456.4L484.339,457.985L487.184,457.787L489.785,459.306L495.108,458.976L497.668,458.216L501.935,459.405L505.673,461.123L507.38,460.561L509.493,461.916L518.311,460.759L521.846,463.799L526.276,463.27L529.73,463.997L532.005,462.279L533.712,462.907L533.712,462.907L538.507,463.27L543.139,457.721L545.537,458.051L546.634,463.469L548.585,465.088L550.373,464.196L553.786,468.164L557.118,464.659L561.832,464.13L562.116,461.288L564.514,460.462L568.252,461.123L570.812,457.82L572.397,457.721L575.12,452.771L575.12,449.802L573.169,445.814L575.16,443.706L574.795,443.475L574.835,443.146L575.16,443.014L573.576,439.228L573.657,436.399L571.219,434.392L565.408,432.716L561.791,429.331L562.319,427.491L561.344,425.029L559.028,422.042L556.346,421.878L554.436,419.582L551.145,418.303L547.812,418.336L546.187,416.008L548.91,414.533L548.828,413.518L551.348,412.699L551.714,410.832L548.381,406.249L546.187,407.067L546.472,401.899L547.934,401.115L549.804,397.978L548.463,396.9L544.237,395.854L543.83,394.548L540.945,394.254L536.434,392.557L535.703,389.588L537.247,389.294L540.661,386.359L538.669,382.644L534.037,380.005L534.037,380.005L531.233,374.505L532.005,372.683L534.118,371.805L531.639,371.22ZM575.16,443.014L574.835,443.146L574.795,443.475L575.16,443.706ZM248.612,490.168L248.327,490.168L248.246,490.533L248.571,490.467Z" fill="none" stroke="#2e7d32" stroke-width="1.5" stroke-linejoin="round" stroke-linecap="round" opacity="0.6" />
</svg>