<svg xmlns="http://www.w3.org/2000/svg" width="800" height="600" viewBox="0 0 800 600">
  <!-- 背景色，采用淡米黄色 -->
  <rect width="100%" height="100%" fill="#f5f2eb" />
  
  <!-- 阴影层 -->
  <path d="M662.982,386.059L662.9,386.123L662.629,386.272L662.386,386.272L659.84,388.217L660.95,390.184L661.79,393.201L660.95,393.029L660.111,395.342L661.194,397.334L662.277,397.356L661.979,398.684L662.873,400.228L662.765,402.481L661.492,404.821L659,406.346L656.915,406.453L656.698,408.001L654.775,406.819L651.335,402.717L651.173,400.486L649.358,400.464L648.329,399.242L646.433,401.194L645.701,402.588L644.374,399.95L643.941,399.992L643.697,399.306L643.941,398.813L643.86,398.727L643.778,398.341L643.887,398.106L643.101,398.492L642.235,397.848L640.826,399.199L636.086,400.293L636.222,398.642L642.857,396.991L642.803,396.584L641.747,396.777L641.476,395.663L636.33,394.421L634.949,394.742L634.001,396.927L632.646,393.201L631.942,393.65L630.263,391.981L630.128,390.59L628.123,389.884L628.529,388.88L627.121,387.768L628.584,386.571L629.315,387.768L630.128,386.614L627.636,386.251L626.092,385.525L622.95,387.02L617.939,386.507L616.856,384.564L615.745,383.859L615.61,382.472L614.716,382.323L613.497,383.624L613.064,381.362L614.229,380.787L612.143,379.976L611.033,377.077L611.872,373.031L614.608,371.244L615.691,369.947L618.346,370.075L619.402,368.034L617.804,365.145L616.991,364.678L616.964,362.725L617.696,361.622L616.775,360.371L615.475,359.989L614.391,358.251L614.256,355.582L612.712,355.032L612.685,352.683L610.924,350.949L609.137,351.541L607.837,350.187L608.893,349.744L608.243,348.011L606.428,346.764L606.672,345.286L605.589,343.704L606.347,342.396L608.73,341.995L608.866,341.426L610.816,341.847L611.737,340.899L611.466,339.297L610.085,338.433L609.055,336.369L607.512,335.169L604.613,335.274L604.911,333.086L604.018,330.773L602.42,330.71L599.359,329.533L598.492,330.227L596.948,328.987L594.755,328.777L594.727,327.139L592.994,326.236L591.829,323.551L590.8,322.942L590.421,321.223L586.927,319.694L584.327,321.37L580.833,321.664L579.181,319.861L580.237,317.411L581.402,317.767L582.404,316.574L584.164,316.051L581.889,314.377L582.675,312.6L575.687,311.429L574.739,312.015L572.518,311.868L572.03,310.949L568.834,312.161L565.909,312.328L565.394,311.722L563.228,312.433L560.844,312.662L556.7,310.092L549.956,305.354L547.275,303.978L545.785,302.081L538.851,296.335L536.414,295.462L526.717,292.697L524.74,284.915L525.011,282.657L532.324,279.675L531.132,274.217L529.263,271.037L527.096,268.768L546.597,258.227L553.287,248.786L554.723,247.209L560.384,245.038L561.413,243.115L561.169,240.743L561.9,238.924L560.302,235.535L554.858,229.501L555.996,227.119L556.727,224.129L550.823,222.503L546.327,222.3L540.855,223.682L534.978,225.594L527.665,227.058L523.954,228.015L520.217,230.988L517.075,233.128L514.664,234.128L509.139,238.209L503.695,237.291L491.94,235.046L490.288,234.536L484.762,231.375L480.429,232.394L476.989,234.291L467.049,236.392L465.37,237.005L460.548,237.679L457.515,238.679L461.578,242.563L462.851,243.217L466.832,246.778L468.132,247.372L462.255,251L459.275,254.303L455.023,257.528L450.446,256.193L447.304,257.754L445.598,255.207L438.989,252.969L435.414,252.395L434.357,251.267L435.874,250.405L435.603,249.319L431.54,248.725L431.297,246.676L429.59,245.1L430.917,241.683L426.015,243.688L419.515,244.936L419.163,242.338L416.535,241.274L415.371,242.481L413.61,241.458L413.339,239.292L414.883,237.903L413.935,233.801L413.908,224.76L408.004,224.8L403.562,225.553L398.822,224.983L398.903,221.427L396.384,221.244L391.238,220.208L390.127,217.428L390.696,215.907L387.879,212.462L382.517,211.713L378.671,209.304L375.068,208.758L372.685,208.05L369.055,204.776L362.474,203.544L353.536,204.109L352.29,203.645L353.129,203.1L354.511,203.706L356.353,203.382L364.316,199.851L365.941,198.319L369.895,198.037L373.687,195.82L374.933,191.996L377.208,189.824L384.331,186.409L384.331,174.827L387.554,171.409L387.311,167.098L386.769,166.639L381.623,160.125L379.402,158.692L376.26,158.613L362.501,157.599L357.788,161.379L340.589,160.881L340.508,165.762L338.422,167.177L337.393,168.873L334.739,168.115L332.247,164.207L323.715,167.596L324.419,169.592L324.23,171.929L322.469,170.491L320.682,169.692L319.246,168.195L318.325,164.625L313.992,165.782L316.538,168.814L304.079,173.627L303.591,158.215L299.935,157.32L297.064,155.174L295.195,154.578L287.692,150.351L284.686,147.259L272.633,135.279L271.956,133.662L282.194,125.786L273.689,111.254L266.972,99.951L261.284,90.576L252.563,75.705L243.571,77.425L233.631,77.386L217.975,78.681L208.306,83.266L205.543,84.099L204.162,85.63L202.022,86.812L201.751,89.47L200.045,91.47L203.891,92.441L202.835,95.162L202.781,96.31L208.821,101.1L204.379,104.103L207.087,108.301L207.033,109.806L206.139,111.293L203.404,113.484L200.912,114.796L194.628,117.285L192.245,117.344L190.403,117.893L185.88,118.324L182.142,119.638L176.59,122.995L174.341,124.154L171.768,126.317L170.197,129.76L167.895,127.674L165.566,124.095L165.783,123.015L164.266,122.308L162.993,120.659L161.882,120.855L157.522,122.701L155.653,123.034L150.94,125.255L148.638,127.418L146.038,130.981L136.531,132.4L121.147,142.845L113.509,149.598L109.013,155.373L104.679,159.946L105.166,163.729L102.512,169.392L91.326,170.111L65.92,173.448L65.568,181.394L64.972,184.964L60.124,191.855L57.876,204.412L55.33,213.698L53.217,219.985L48.207,226.387L41.733,231.233L40,232.191L40.217,236.168L41.192,238.373L41.219,239.987L43.142,240.906L45.282,240.723L45.282,239.782L46.636,238.209L49.101,237.699L54.084,237.76L58.77,236.576L63.212,236.494L64.187,235.556L66.381,235.127L68.114,236.29L70.958,236.147L74.127,234.699L75.319,235.535L74.858,237.842L76.348,238.598L77.784,240.579L76.944,245.939L79.517,246.287L81.115,247.168L88.997,246.307L101.131,245.918L105.762,248.417L107.956,248.417L107.956,250.241L102.918,250.467L102.323,251.062L103.081,252.662L104.246,253.564L107.983,254.878L110.908,255.125L111.856,254.693L125.399,253.154L129.326,253.031L135.529,266.995L136.233,267.84L136.233,270.501L137.723,271.099L138.671,270.336L142.625,269.552L148.773,269.614L150.913,269.263L151.915,268.335L155.87,267.655L159.011,268.149L160.203,268.871L162.397,268.232L163.21,269.325L165.16,269.882L166.243,272.152L167.11,272.028L168.41,273.246L170.902,272.544L174.964,273.37L176.4,272.895L177.05,273.742L178.458,272.73L179.813,273.597L182.738,271.471L183.767,271.657L186.557,269.49L187.965,268.974L188.832,269.923L191.134,270.913L193.816,271.429L194.52,273.928L196.416,273.804L198.014,275.167L198.285,276.139L201.291,277.441L203.891,278.951L205.787,278.331L210.744,280.007L212.098,279.2L212.613,280.151L214.752,279.448L214.265,278.517L215.754,275.746L217.623,274.382L221.361,274.362L230.245,276.449L229.812,273.556L229.08,273.06L228.539,270.913L231.68,268.005L232.114,266.377L230.299,265.305L232.06,264.337L235.31,264.399L236.176,263.369L234.741,262.279L236.556,260.962L235.906,259.83L238.235,260.221L239.535,261.044L243.246,262.032L247.417,260.427L247.038,257.816L247.498,256.994L245.358,255.679L245.981,253.339L244.979,253.092L244.41,251.697L244.681,249.852L244.248,248.356L242.352,246.656L242.271,244.547L243.435,241.847L243.11,240.763L243.625,238.291L245.494,236.352L243.3,233.883L245.737,233.434L247.606,233.903L251.182,233.801L254.676,234.107L258.82,235.352L260.228,235.229L261.284,236.413L262.611,236.147L265.13,237.413L267.162,239.231L270.52,240.293L274.827,242.133L275.802,244.22L281.408,245.673L283.467,247.065L289.344,248.786L290.211,249.893L291.944,250.672L292.974,251.985L296.305,249.626L299.582,247.844L299.284,246.164L301.099,244.199L301.587,242.931L301.289,241.397L302.86,240.804L305.812,241.295L306.57,242.522L307.952,242.767L307.762,243.647L309.062,244.67L312.096,244.547L314.642,245.673L316.375,244.383L315.861,243.606L318.027,242.869L319.95,240.682L321.061,240.089L321.63,238.781L324.853,238.822L324.907,239.742L327.913,240.804L328.645,242.051L330.784,243.135L335.308,243.626L337.637,244.711L336.066,246.062L335.93,247.127L339.127,249.073L342.675,251.882L345.708,252.887L348.823,254.981L349.419,256.46L351.044,257.302L352.723,259.995L354.971,259.645L356.163,262.546L358.655,264.646L361.038,265.697L361.905,266.809L364.884,268.294L366.239,268.521L369.272,270.294L375.122,272.462L376.964,272.709L379.077,274.114L380.025,274.052L382.029,275.415L382.435,276.387L384.927,276.8L383.898,273.763L384.088,272.131L382.896,271.863L380.973,268.665L377.858,267.572L376.937,266.026L378.021,264.234L379.7,263.761L380.702,264.893L381.867,264.708L384.06,266.274L387.446,267.139L388.286,270.46L390.155,269.49L391.455,271.739L390.886,272.09L394.326,273.68L395.544,273.06L395.897,274.465L397.088,274.899L397.765,273.866L399.607,274.589L400.88,275.705L403.047,275.911L404.103,274.878L408.329,275.415L409.954,276.077L413.177,279.593L414.721,280.048L417.05,278.703L418.133,279.531L417.267,280.897L417.429,282.843L415.967,284.107L416.237,285.993L417.267,286.594L419.271,286.076L424.255,289.125L425.392,288.918L425.88,290.08L427.559,291.347L427.857,292.365L429.78,293.279L433.03,293.757L436.795,295.753L437.689,294.38L441.047,292.448L445.11,293.798L447.168,294.152L450.337,297.375L449.85,298.291L455.673,299.936L456.729,301.769L458.436,301.31L459.248,300.352L462.471,298.52L464.774,298.666L466.426,300.414L466.968,301.893L466.372,302.935L469.324,304.937L470.597,306.522L469.378,309.319L470.326,309.194L472.601,310.364L473.495,312.056L478.018,313.331L477.964,314.273L481.025,316.134L483.652,316.972L483.273,317.6L484.762,318.605L484.952,319.631L486.388,320.72L488.283,320.993L490.261,322.942L491.209,322.859L493.078,326.152L490.477,325.942L486.306,327.097L487.092,329.701L484.627,331.929L486.794,332.539L487.958,333.696L489.502,334.075L490.64,336.264L492.942,337.022L496.49,340.751L495.271,340.414L492.942,342.29L491.777,342.058L491.263,343.282L492.563,345.899L494.919,347.292L496.68,347.525L496.246,348.159L498.332,349.511L497.113,349.786L497.953,351.393L499.713,352.619L498.765,353.656L501.311,358.442L501.393,358.442L501.718,359.311L501.609,359.353L502.016,359.926L504.264,359.926L505.401,361.41L509.897,363.235L509.735,364.275L511.739,364.975L510.954,365.761L508.218,366.016L507.297,367.843L506.539,367.885L506.214,369.905L503.614,370.883L505.835,372.393L507.405,372.563L506.674,373.564L507.568,374.713L506.268,377.738L506.81,380.723L506.376,382.002L505.022,381.32L500.77,381.106L499.442,380.552L497.33,382.387L496.274,382.621L495.001,384.542L495.949,387.49L497.547,389.564L498.44,389.756L498.386,391.574L500.39,393.843L497.655,394.507L496.896,395.47L499.253,395.277L497.519,396.734L495.407,395.256L489.936,394.378L488.202,392.965L486.956,392.751L486.767,394.507L484.085,398.47L484.519,399.263L482.785,400.486L478.668,399.392L477.747,399.842L477.477,402.417L478.804,403.404L478.533,404.671L477.179,405.165L478.56,406.067L481.106,406.883L480.916,408.13L482.596,410.602L480.077,411.269L478.479,412.819L477.829,415.338L475.933,416.35L474.416,415.962L474.118,416.953L472.574,417.04L471.762,418.009L470.705,417.837L468.999,419.066L466.941,422.409L467.834,423.424L464.205,422.884L461.171,424.05L461.442,425.713L461.198,431.42L461.307,435.121L461.957,436.637L462.905,436.832L463.69,438.327L464.909,438.783L468.918,438.869L470.976,440.322L471.68,440.149L472.276,442.34L473.874,444.532L476.231,446.812L475.256,447.377L475.256,447.377L473.035,446.943L471.41,450.507L467.807,449.551L467.563,452.444L465.424,452.857L466.182,454.076L464.963,455.339L463.311,455.099L462.851,457.648L460.332,456.58L459.303,456.732L458.3,455.731L457.65,456.994L455.511,456.667L454.454,457.059L453.236,458.933L452.45,458.802L451.773,457.212L450.5,457.604L448.144,454.598L444.541,453.14L442.51,453.858L442.049,452.835L439.233,452.444L437.12,451.552L435.251,451.704L435.17,450.66L432.678,450.203L430.917,449.333L431.188,448.16L429.374,447.66L428.697,448.355L425.175,447.986L423.252,448.268L420.273,445.987L418.702,445.596L416.237,445.965L415.073,447.834L413.014,448.507L411.985,451.03L412.473,451.595L410.495,454.598L412.337,455.622L414.206,458.519L415.154,458.781L415.614,460.852L417.998,462.902L417.673,463.557L419.352,464.801L420.625,467.225L421.871,467.029L423.252,468.471L427.613,469.301L427.586,470.241L429.238,471.619L429.049,473.85L428.019,474.791L428.642,476.302L428.182,477.419L430.43,476.981L431.27,476.28L434.168,477.506L437.797,478.076L439.531,477.616L439.693,476.521L442.916,475.536L446.546,476.784L446.6,478.054L447.981,480.114L447.764,481.583L448.225,484.347L452.45,484.676L453.777,484.215L454.671,482.745L455.294,481.956L457.407,482.043L457.975,479.939L459.736,481.013L460.738,482.723L460.711,485.247L462.471,486.959L461.117,487.706L459.871,489.551L459.438,492.607L454.698,494.609L454.725,495.489L457.352,497.03L457.867,498.307L457.163,501.193L458.923,501.899L459.871,500.466L461.388,499.673L461.984,498.219L464.557,497.646L467.238,498.087L468.755,497.426L468.755,496.435L469.974,493.751L471.193,494.389L471.87,495.753L473.658,496.612L474.389,495.533L473.278,491.617L474.416,491.068L476.177,488.431L477.856,488.233L478.479,488.936L481.052,488.299L482.108,488.65L484.519,486.432L485.169,486.674L485.115,484.391L484.464,483.03L485.846,482.548L484.194,481.166L480.077,479.807L478.695,477.178L479.887,474.529L477.341,474.813L479.102,473.259L477.856,471.969L475.526,471.837L476.312,470.328L475.96,468.558L470.814,463.994L472.222,463.208L474.768,464.081L475.77,463.055L477.449,463.448L478.722,462.728L480.023,463.797L482.081,463.71L482.704,461.005L484.058,458.628L485.548,459.26L487.336,458.672L491.913,458.083L493.375,458.933L493.673,457.473L491.154,455.97L493.457,455.164L494.026,453.989L495.38,453.727L496.869,452.095L499.117,452.052L499.93,450.464L502.503,450.551L502.639,449.225L504.914,448.703L506.566,449.616L507.812,451.356L507.622,453.423L509.058,454.337L511.089,453.88L513.202,454.468L514.258,455.339L514.15,457.517L516.669,458.955L514.502,459.565L514.068,460.939L515.287,460.852L515.721,462.51L514.095,464.517L514.583,465.456L516.046,465.565L516.777,466.832L515.558,470.416L516.073,471.006L518.835,471.487L519.783,470.635L521.327,471.159L521.056,472.384L524.388,473.741L527.909,473.325L529.236,471.159L531.592,470.941L532.784,474.791L531.674,476.608L533.082,476.915L533.597,475.667L534.897,474.944L537.199,475.273L538.174,476.28L539.176,475.93L543.022,477.463L546.679,476.433L551.906,476.937L554.804,476.258L557.323,477.266L560.546,480.07L559.598,482.57L560.709,485.642L562.144,486.784L562.469,488.65L564.744,489.222L565.638,491.639L569.213,491.266L571.245,492.057L569.755,493.311L567.453,492.563L566.126,493.047L567.02,494.609L567.209,496.59L568.211,499.452L569.403,501.634L567.615,504.766L569.999,504.876L571.516,505.957L569.647,506.685L569.403,508.496L567.967,509.07L565.449,508.96L564.961,510.727L565.719,513.667L568.78,514.241L572.951,517.494L575.28,517.272L575.93,518.379L578.395,518.645L578.829,519.818L581.05,521.303L583.406,520.793L585.302,522.477L587.767,522.122L588.85,521.258L589.961,521.657L591.558,523.984L593.454,523.696L597.923,521.812L600.226,522.388L601.634,524.295L604.884,523.253L606.211,522.41L606.401,521.103L608.324,521.724L609.841,521.524L612.008,520.394L612.956,519.066L616.477,518.18L616.72,516.675L615.556,515.923L614.174,513.003L614.174,513.003L613.497,511.876L614.689,511.456L614.96,509.865L617.316,509.512L618.698,510.307L619.971,509.998L621.623,510.528L622.706,511.854L624.819,511.743L625.631,511.036L629.098,510.594L633.107,508.606L634.651,509.114L637.088,506.708L637.495,504.567L636.98,503.53L637.847,501.502L637.359,499.937L636.195,499.981L637.711,498.593L639.336,499.651L639.201,497.448L637.088,495.973L634.678,496.127L631.888,495.071L631.563,494.191L629.857,493.597L629.965,491.969L627.961,489.595L633.134,489.727L633.594,488.365L633.296,486.564L633.784,484.896L635.057,483.952L636.438,481.978L638.091,481.342L639.472,479.478L642.803,479.61L644.537,479.303L645.891,479.939L645.485,481.386L648.952,482.394L651.173,481.627L654.071,479.851L656.183,480.618L657.646,479.522L660.381,479.478L660.815,483.009L664.471,483.886L666.259,481.101L666.042,478.668L664.227,475.864L661.952,475.339L662.196,473.106L661.031,471.706L662.332,469.738L661.627,467.924L659.542,468.339L658.783,466.461L661.573,463.753L661.465,461.397L662.955,459.98L662.792,457.844L665.365,457.648L666.448,455.883L665.257,452.356L664.119,451.29L662.548,451.987L663.875,449.616L666.096,450.116L666.638,451.312L668.588,451.03L669.428,451.747L670.728,451.204L671.73,449.29L671.107,447.616L672.272,446.226L668.778,445.248L667.586,442.491L665.284,440.995L663.307,440.561L663.334,439.953L660.734,439.086L655.425,439.693L655.723,437.482L654.531,437.005L659.163,434.168L661.438,434.58L660.165,432.761L660.815,431.506L662.142,431.009L662.955,429.624L664.444,429.668L666.015,428.608L664.932,425.993L665.175,424.59L663.93,423.92L662.413,421.071L662.034,419.195L662.467,418.225L662.467,418.225L663.659,417.277L664.553,414.799L666.096,414.562L667.776,415.359L671.784,414.885L671.974,414.067L677.58,414.972L680.37,414.326L682.51,415.553L684.297,415.488L685.245,417.19L688.333,417.428L688.631,419.519L689.958,420.683L691.827,420.942L693.019,423.186L695.809,423.726L697.298,421.481L700.088,421.395L700.928,422.107L702.309,421.438L704.72,422.15L707.726,422.452L709.514,419.864L711.951,420.036L712.791,421.33L714.389,420.64L717.314,420.532L721.729,419.411L722.65,418.527L721.919,417.406L720.51,417.406L718.695,415.812L718.695,415.812L718.533,415.661L718.533,415.661L716.691,413.206L716.176,411.097L714.876,408.904L713.387,407.721L714.037,407.184L717.124,406.733L717.477,404.778L721.702,406.325L722.839,407.227L726.929,406.905L726.469,407.7L730.829,407.334L732.834,406.174L736.355,405.079L738.413,405.444L739.199,407.227L741.718,406.711L743.857,405.272L744.562,406.196L750.168,406.389L752.741,405.079L754.312,405.53L755.693,404.027L755.504,402.867L756.425,400.078L755.314,396.37L756.181,394.871L755.856,393.993L752.389,391.852L751.441,387.725L752.145,385.674L751.874,382.237L750.629,380.125L751.468,378.676L753.418,377.972L754.773,376.672L757.346,376.8L757.671,374.926L758.944,373.585L758.673,371.776L760,368.416L757.075,363.341L756.885,358.718L757.319,357.595L755.883,355.434L753.418,355.223L751.116,353.656L751.306,354.926L750.439,355.942L748.922,355.921L746.62,354.312L745.889,352.281L744.724,351.668L743.641,349.934L740.201,350.357L739.47,349.405L737.926,349.131L737.682,347.842L737.682,347.842L738.467,346.764L737.357,346.807L735.867,349.722L732.753,348.687L732.184,347.504L731.344,348.475L728.744,346.405L729.692,346.025L728.961,344.463L725.981,345.688L726.063,343.957L724.898,342.818L724.6,341.531L722.812,340.793L718.479,339.655L717.341,338.812L716.447,339.233L714.172,337.885L712.926,338.496L710.678,337.738L708.457,338.075L708.159,336.39L705.722,334.58L700.765,334.706L699.492,333.801L698.327,334.39L697.515,331.446L697.515,331.446L697.38,330.185L697.38,330.185L697.271,328.126L696.513,326.173L695.023,326.299L692.694,324.243L690.581,324.62L688.902,325.46L686.031,324.348L686.058,325.775L684.623,325.859L680.56,323.886L680.831,325.691L679.91,326.215L676.714,324.306L674.845,323.593L674.709,325.25L673.707,326.194L672.759,325.208L670.972,324.83L670.322,325.649L667.857,324.599L667.342,324.935L669.103,327.685L670.051,329.807L669.157,330.521L668.994,332.182L666.882,331.951L666.909,333.17L664.471,331.236L664.878,333.107L667.18,334.138L667.532,335.885L667.532,335.885L668.29,335.274L668.751,336.39L668.751,336.39L669.644,338.433L668.317,341.405L669.076,342.733L666.855,341.531L663.334,343.05L663.577,343.345L663.577,343.345L664.065,344.168L662.304,344.358L662.332,346.87L660.273,347.039L661.194,348.877L660.273,350.018L658.215,349.152L657.971,350.039L656.725,349.131L657.05,350.357L658.188,350.399L660.761,352.662L662.467,352.768L663.74,353.91L662.359,355.942L663.171,357.849L662.602,360.732L661.411,361.05L662.9,362.81L664.525,363.362L665.311,361.665L669.211,363.107L670.863,362.492L671.432,363.786L673.084,364.084L674.709,365.166L676.28,365.23L677.364,364.444L678.474,365.421L678.474,365.421L679.151,366.674L679.151,366.674L681.643,368.416L681.426,369.416L682.835,370.5L682.076,371.67L681.535,374.011L682.402,375.032L680.397,376.992L681.995,376.587L682.076,377.546L680.858,377.503L678.095,379.464L681.508,382.856L680.181,385.076L678.908,384.542L678.853,386.016L676.741,385.738L676.172,387.277L673.734,386.593L673.734,388.174L670.403,386.465L669.861,387.383L668.561,387.063L668.019,385.781L666.909,386.507L665.636,385.995ZM642.803,396.584L642.857,396.991L643.101,398.492L643.887,398.106L644.185,396.07ZM501.393,358.442L501.311,358.442L501.609,359.353L501.718,359.311ZM643.941,398.813L643.697,399.306L643.941,399.992L644.374,399.95ZM662.9,386.123L662.982,386.059L662.386,386.272L662.629,386.272Z" fill="#d1e7dd" opacity="0.3" transform="translate(5, 8)" />
  
  <!-- 填充与主轮廓 -->
  <path d="M662.982,386.059L662.9,386.123L662.629,386.272L662.386,386.272L659.84,388.217L660.95,390.184L661.79,393.201L660.95,393.029L660.111,395.342L661.194,397.334L662.277,397.356L661.979,398.684L662.873,400.228L662.765,402.481L661.492,404.821L659,406.346L656.915,406.453L656.698,408.001L654.775,406.819L651.335,402.717L651.173,400.486L649.358,400.464L648.329,399.242L646.433,401.194L645.701,402.588L644.374,399.95L643.941,399.992L643.697,399.306L643.941,398.813L643.86,398.727L643.778,398.341L643.887,398.106L643.101,398.492L642.235,397.848L640.826,399.199L636.086,400.293L636.222,398.642L642.857,396.991L642.803,396.584L641.747,396.777L641.476,395.663L636.33,394.421L634.949,394.742L634.001,396.927L632.646,393.201L631.942,393.65L630.263,391.981L630.128,390.59L628.123,389.884L628.529,388.88L627.121,387.768L628.584,386.571L629.315,387.768L630.128,386.614L627.636,386.251L626.092,385.525L622.95,387.02L617.939,386.507L616.856,384.564L615.745,383.859L615.61,382.472L614.716,382.323L613.497,383.624L613.064,381.362L614.229,380.787L612.143,379.976L611.033,377.077L611.872,373.031L614.608,371.244L615.691,369.947L618.346,370.075L619.402,368.034L617.804,365.145L616.991,364.678L616.964,362.725L617.696,361.622L616.775,360.371L615.475,359.989L614.391,358.251L614.256,355.582L612.712,355.032L612.685,352.683L610.924,350.949L609.137,351.541L607.837,350.187L608.893,349.744L608.243,348.011L606.428,346.764L606.672,345.286L605.589,343.704L606.347,342.396L608.73,341.995L608.866,341.426L610.816,341.847L611.737,340.899L611.466,339.297L610.085,338.433L609.055,336.369L607.512,335.169L604.613,335.274L604.911,333.086L604.018,330.773L602.42,330.71L599.359,329.533L598.492,330.227L596.948,328.987L594.755,328.777L594.727,327.139L592.994,326.236L591.829,323.551L590.8,322.942L590.421,321.223L586.927,319.694L584.327,321.37L580.833,321.664L579.181,319.861L580.237,317.411L581.402,317.767L582.404,316.574L584.164,316.051L581.889,314.377L582.675,312.6L575.687,311.429L574.739,312.015L572.518,311.868L572.03,310.949L568.834,312.161L565.909,312.328L565.394,311.722L563.228,312.433L560.844,312.662L556.7,310.092L549.956,305.354L547.275,303.978L545.785,302.081L538.851,296.335L536.414,295.462L526.717,292.697L524.74,284.915L525.011,282.657L532.324,279.675L531.132,274.217L529.263,271.037L527.096,268.768L546.597,258.227L553.287,248.786L554.723,247.209L560.384,245.038L561.413,243.115L561.169,240.743L561.9,238.924L560.302,235.535L554.858,229.501L555.996,227.119L556.727,224.129L550.823,222.503L546.327,222.3L540.855,223.682L534.978,225.594L527.665,227.058L523.954,228.015L520.217,230.988L517.075,233.128L514.664,234.128L509.139,238.209L503.695,237.291L491.94,235.046L490.288,234.536L484.762,231.375L480.429,232.394L476.989,234.291L467.049,236.392L465.37,237.005L460.548,237.679L457.515,238.679L461.578,242.563L462.851,243.217L466.832,246.778L468.132,247.372L462.255,251L459.275,254.303L455.023,257.528L450.446,256.193L447.304,257.754L445.598,255.207L438.989,252.969L435.414,252.395L434.357,251.267L435.874,250.405L435.603,249.319L431.54,248.725L431.297,246.676L429.59,245.1L430.917,241.683L426.015,243.688L419.515,244.936L419.163,242.338L416.535,241.274L415.371,242.481L413.61,241.458L413.339,239.292L414.883,237.903L413.935,233.801L413.908,224.76L408.004,224.8L403.562,225.553L398.822,224.983L398.903,221.427L396.384,221.244L391.238,220.208L390.127,217.428L390.696,215.907L387.879,212.462L382.517,211.713L378.671,209.304L375.068,208.758L372.685,208.05L369.055,204.776L362.474,203.544L353.536,204.109L352.29,203.645L353.129,203.1L354.511,203.706L356.353,203.382L364.316,199.851L365.941,198.319L369.895,198.037L373.687,195.82L374.933,191.996L377.208,189.824L384.331,186.409L384.331,174.827L387.554,171.409L387.311,167.098L386.769,166.639L381.623,160.125L379.402,158.692L376.26,158.613L362.501,157.599L357.788,161.379L340.589,160.881L340.508,165.762L338.422,167.177L337.393,168.873L334.739,168.115L332.247,164.207L323.715,167.596L324.419,169.592L324.23,171.929L322.469,170.491L320.682,169.692L319.246,168.195L318.325,164.625L313.992,165.782L316.538,168.814L304.079,173.627L303.591,158.215L299.935,157.32L297.064,155.174L295.195,154.578L287.692,150.351L284.686,147.259L272.633,135.279L271.956,133.662L282.194,125.786L273.689,111.254L266.972,99.951L261.284,90.576L252.563,75.705L243.571,77.425L233.631,77.386L217.975,78.681L208.306,83.266L205.543,84.099L204.162,85.63L202.022,86.812L201.751,89.47L200.045,91.47L203.891,92.441L202.835,95.162L202.781,96.31L208.821,101.1L204.379,104.103L207.087,108.301L207.033,109.806L206.139,111.293L203.404,113.484L200.912,114.796L194.628,117.285L192.245,117.344L190.403,117.893L185.88,118.324L182.142,119.638L176.59,122.995L174.341,124.154L171.768,126.317L170.197,129.76L167.895,127.674L165.566,124.095L165.783,123.015L164.266,122.308L162.993,120.659L161.882,120.855L157.522,122.701L155.653,123.034L150.94,125.255L148.638,127.418L146.038,130.981L136.531,132.4L121.147,142.845L113.509,149.598L109.013,155.373L104.679,159.946L105.166,163.729L102.512,169.392L91.326,170.111L65.92,173.448L65.568,181.394L64.972,184.964L60.124,191.855L57.876,204.412L55.33,213.698L53.217,219.985L48.207,226.387L41.733,231.233L40,232.191L40.217,236.168L41.192,238.373L41.219,239.987L43.142,240.906L45.282,240.723L45.282,239.782L46.636,238.209L49.101,237.699L54.084,237.76L58.77,236.576L63.212,236.494L64.187,235.556L66.381,235.127L68.114,236.29L70.958,236.147L74.127,234.699L75.319,235.535L74.858,237.842L76.348,238.598L77.784,240.579L76.944,245.939L79.517,246.287L81.115,247.168L88.997,246.307L101.131,245.918L105.762,248.417L107.956,248.417L107.956,250.241L102.918,250.467L102.323,251.062L103.081,252.662L104.246,253.564L107.983,254.878L110.908,255.125L111.856,254.693L125.399,253.154L129.326,253.031L135.529,266.995L136.233,267.84L136.233,270.501L137.723,271.099L138.671,270.336L142.625,269.552L148.773,269.614L150.913,269.263L151.915,268.335L155.87,267.655L159.011,268.149L160.203,268.871L162.397,268.232L163.21,269.325L165.16,269.882L166.243,272.152L167.11,272.028L168.41,273.246L170.902,272.544L174.964,273.37L176.4,272.895L177.05,273.742L178.458,272.73L179.813,273.597L182.738,271.471L183.767,271.657L186.557,269.49L187.965,268.974L188.832,269.923L191.134,270.913L193.816,271.429L194.52,273.928L196.416,273.804L198.014,275.167L198.285,276.139L201.291,277.441L203.891,278.951L205.787,278.331L210.744,280.007L212.098,279.2L212.613,280.151L214.752,279.448L214.265,278.517L215.754,275.746L217.623,274.382L221.361,274.362L230.245,276.449L229.812,273.556L229.08,273.06L228.539,270.913L231.68,268.005L232.114,266.377L230.299,265.305L232.06,264.337L235.31,264.399L236.176,263.369L234.741,262.279L236.556,260.962L235.906,259.83L238.235,260.221L239.535,261.044L243.246,262.032L247.417,260.427L247.038,257.816L247.498,256.994L245.358,255.679L245.981,253.339L244.979,253.092L244.41,251.697L244.681,249.852L244.248,248.356L242.352,246.656L242.271,244.547L243.435,241.847L243.11,240.763L243.625,238.291L245.494,236.352L243.3,233.883L245.737,233.434L247.606,233.903L251.182,233.801L254.676,234.107L258.82,235.352L260.228,235.229L261.284,236.413L262.611,236.147L265.13,237.413L267.162,239.231L270.52,240.293L274.827,242.133L275.802,244.22L281.408,245.673L283.467,247.065L289.344,248.786L290.211,249.893L291.944,250.672L292.974,251.985L296.305,249.626L299.582,247.844L299.284,246.164L301.099,244.199L301.587,242.931L301.289,241.397L302.86,240.804L305.812,241.295L306.57,242.522L307.952,242.767L307.762,243.647L309.062,244.67L312.096,244.547L314.642,245.673L316.375,244.383L315.861,243.606L318.027,242.869L319.95,240.682L321.061,240.089L321.63,238.781L324.853,238.822L324.907,239.742L327.913,240.804L328.645,242.051L330.784,243.135L335.308,243.626L337.637,244.711L336.066,246.062L335.93,247.127L339.127,249.073L342.675,251.882L345.708,252.887L348.823,254.981L349.419,256.46L351.044,257.302L352.723,259.995L354.971,259.645L356.163,262.546L358.655,264.646L361.038,265.697L361.905,266.809L364.884,268.294L366.239,268.521L369.272,270.294L375.122,272.462L376.964,272.709L379.077,274.114L380.025,274.052L382.029,275.415L382.435,276.387L384.927,276.8L383.898,273.763L384.088,272.131L382.896,271.863L380.973,268.665L377.858,267.572L376.937,266.026L378.021,264.234L379.7,263.761L380.702,264.893L381.867,264.708L384.06,266.274L387.446,267.139L388.286,270.46L390.155,269.49L391.455,271.739L390.886,272.09L394.326,273.68L395.544,273.06L395.897,274.465L397.088,274.899L397.765,273.866L399.607,274.589L400.88,275.705L403.047,275.911L404.103,274.878L408.329,275.415L409.954,276.077L413.177,279.593L414.721,280.048L417.05,278.703L418.133,279.531L417.267,280.897L417.429,282.843L415.967,284.107L416.237,285.993L417.267,286.594L419.271,286.076L424.255,289.125L425.392,288.918L425.88,290.08L427.559,291.347L427.857,292.365L429.78,293.279L433.03,293.757L436.795,295.753L437.689,294.38L441.047,292.448L445.11,293.798L447.168,294.152L450.337,297.375L449.85,298.291L455.673,299.936L456.729,301.769L458.436,301.31L459.248,300.352L462.471,298.52L464.774,298.666L466.426,300.414L466.968,301.893L466.372,302.935L469.324,304.937L470.597,306.522L469.378,309.319L470.326,309.194L472.601,310.364L473.495,312.056L478.018,313.331L477.964,314.273L481.025,316.134L483.652,316.972L483.273,317.6L484.762,318.605L484.952,319.631L486.388,320.72L488.283,320.993L490.261,322.942L491.209,322.859L493.078,326.152L490.477,325.942L486.306,327.097L487.092,329.701L484.627,331.929L486.794,332.539L487.958,333.696L489.502,334.075L490.64,336.264L492.942,337.022L496.49,340.751L495.271,340.414L492.942,342.29L491.777,342.058L491.263,343.282L492.563,345.899L494.919,347.292L496.68,347.525L496.246,348.159L498.332,349.511L497.113,349.786L497.953,351.393L499.713,352.619L498.765,353.656L501.311,358.442L501.393,358.442L501.718,359.311L501.609,359.353L502.016,359.926L504.264,359.926L505.401,361.41L509.897,363.235L509.735,364.275L511.739,364.975L510.954,365.761L508.218,366.016L507.297,367.843L506.539,367.885L506.214,369.905L503.614,370.883L505.835,372.393L507.405,372.563L506.674,373.564L507.568,374.713L506.268,377.738L506.81,380.723L506.376,382.002L505.022,381.32L500.77,381.106L499.442,380.552L497.33,382.387L496.274,382.621L495.001,384.542L495.949,387.49L497.547,389.564L498.44,389.756L498.386,391.574L500.39,393.843L497.655,394.507L496.896,395.47L499.253,395.277L497.519,396.734L495.407,395.256L489.936,394.378L488.202,392.965L486.956,392.751L486.767,394.507L484.085,398.47L484.519,399.263L482.785,400.486L478.668,399.392L477.747,399.842L477.477,402.417L478.804,403.404L478.533,404.671L477.179,405.165L478.56,406.067L481.106,406.883L480.916,408.13L482.596,410.602L480.077,411.269L478.479,412.819L477.829,415.338L475.933,416.35L474.416,415.962L474.118,416.953L472.574,417.04L471.762,418.009L470.705,417.837L468.999,419.066L466.941,422.409L467.834,423.424L464.205,422.884L461.171,424.05L461.442,425.713L461.198,431.42L461.307,435.121L461.957,436.637L462.905,436.832L463.69,438.327L464.909,438.783L468.918,438.869L470.976,440.322L471.68,440.149L472.276,442.34L473.874,444.532L476.231,446.812L475.256,447.377L475.256,447.377L473.035,446.943L471.41,450.507L467.807,449.551L467.563,452.444L465.424,452.857L466.182,454.076L464.963,455.339L463.311,455.099L462.851,457.648L460.332,456.58L459.303,456.732L458.3,455.731L457.65,456.994L455.511,456.667L454.454,457.059L453.236,458.933L452.45,458.802L451.773,457.212L450.5,457.604L448.144,454.598L444.541,453.14L442.51,453.858L442.049,452.835L439.233,452.444L437.12,451.552L435.251,451.704L435.17,450.66L432.678,450.203L430.917,449.333L431.188,448.16L429.374,447.66L428.697,448.355L425.175,447.986L423.252,448.268L420.273,445.987L418.702,445.596L416.237,445.965L415.073,447.834L413.014,448.507L411.985,451.03L412.473,451.595L410.495,454.598L412.337,455.622L414.206,458.519L415.154,458.781L415.614,460.852L417.998,462.902L417.673,463.557L419.352,464.801L420.625,467.225L421.871,467.029L423.252,468.471L427.613,469.301L427.586,470.241L429.238,471.619L429.049,473.85L428.019,474.791L428.642,476.302L428.182,477.419L430.43,476.981L431.27,476.28L434.168,477.506L437.797,478.076L439.531,477.616L439.693,476.521L442.916,475.536L446.546,476.784L446.6,478.054L447.981,480.114L447.764,481.583L448.225,484.347L452.45,484.676L453.777,484.215L454.671,482.745L455.294,481.956L457.407,482.043L457.975,479.939L459.736,481.013L460.738,482.723L460.711,485.247L462.471,486.959L461.117,487.706L459.871,489.551L459.438,492.607L454.698,494.609L454.725,495.489L457.352,497.03L457.867,498.307L457.163,501.193L458.923,501.899L459.871,500.466L461.388,499.673L461.984,498.219L464.557,497.646L467.238,498.087L468.755,497.426L468.755,496.435L469.974,493.751L471.193,494.389L471.87,495.753L473.658,496.612L474.389,495.533L473.278,491.617L474.416,491.068L476.177,488.431L477.856,488.233L478.479,488.936L481.052,488.299L482.108,488.65L484.519,486.432L485.169,486.674L485.115,484.391L484.464,483.03L485.846,482.548L484.194,481.166L480.077,479.807L478.695,477.178L479.887,474.529L477.341,474.813L479.102,473.259L477.856,471.969L475.526,471.837L476.312,470.328L475.96,468.558L470.814,463.994L472.222,463.208L474.768,464.081L475.77,463.055L477.449,463.448L478.722,462.728L480.023,463.797L482.081,463.71L482.704,461.005L484.058,458.628L485.548,459.26L487.336,458.672L491.913,458.083L493.375,458.933L493.673,457.473L491.154,455.97L493.457,455.164L494.026,453.989L495.38,453.727L496.869,452.095L499.117,452.052L499.93,450.464L502.503,450.551L502.639,449.225L504.914,448.703L506.566,449.616L507.812,451.356L507.622,453.423L509.058,454.337L511.089,453.88L513.202,454.468L514.258,455.339L514.15,457.517L516.669,458.955L514.502,459.565L514.068,460.939L515.287,460.852L515.721,462.51L514.095,464.517L514.583,465.456L516.046,465.565L516.777,466.832L515.558,470.416L516.073,471.006L518.835,471.487L519.783,470.635L521.327,471.159L521.056,472.384L524.388,473.741L527.909,473.325L529.236,471.159L531.592,470.941L532.784,474.791L531.674,476.608L533.082,476.915L533.597,475.667L534.897,474.944L537.199,475.273L538.174,476.28L539.176,475.93L543.022,477.463L546.679,476.433L551.906,476.937L554.804,476.258L557.323,477.266L560.546,480.07L559.598,482.57L560.709,485.642L562.144,486.784L562.469,488.65L564.744,489.222L565.638,491.639L569.213,491.266L571.245,492.057L569.755,493.311L567.453,492.563L566.126,493.047L567.02,494.609L567.209,496.59L568.211,499.452L569.403,501.634L567.615,504.766L569.999,504.876L571.516,505.957L569.647,506.685L569.403,508.496L567.967,509.07L565.449,508.96L564.961,510.727L565.719,513.667L568.78,514.241L572.951,517.494L575.28,517.272L575.93,518.379L578.395,518.645L578.829,519.818L581.05,521.303L583.406,520.793L585.302,522.477L587.767,522.122L588.85,521.258L589.961,521.657L591.558,523.984L593.454,523.696L597.923,521.812L600.226,522.388L601.634,524.295L604.884,523.253L606.211,522.41L606.401,521.103L608.324,521.724L609.841,521.524L612.008,520.394L612.956,519.066L616.477,518.18L616.72,516.675L615.556,515.923L614.174,513.003L614.174,513.003L613.497,511.876L614.689,511.456L614.96,509.865L617.316,509.512L618.698,510.307L619.971,509.998L621.623,510.528L622.706,511.854L624.819,511.743L625.631,511.036L629.098,510.594L633.107,508.606L634.651,509.114L637.088,506.708L637.495,504.567L636.98,503.53L637.847,501.502L637.359,499.937L636.195,499.981L637.711,498.593L639.336,499.651L639.201,497.448L637.088,495.973L634.678,496.127L631.888,495.071L631.563,494.191L629.857,493.597L629.965,491.969L627.961,489.595L633.134,489.727L633.594,488.365L633.296,486.564L633.784,484.896L635.057,483.952L636.438,481.978L638.091,481.342L639.472,479.478L642.803,479.61L644.537,479.303L645.891,479.939L645.485,481.386L648.952,482.394L651.173,481.627L654.071,479.851L656.183,480.618L657.646,479.522L660.381,479.478L660.815,483.009L664.471,483.886L666.259,481.101L666.042,478.668L664.227,475.864L661.952,475.339L662.196,473.106L661.031,471.706L662.332,469.738L661.627,467.924L659.542,468.339L658.783,466.461L661.573,463.753L661.465,461.397L662.955,459.98L662.792,457.844L665.365,457.648L666.448,455.883L665.257,452.356L664.119,451.29L662.548,451.987L663.875,449.616L666.096,450.116L666.638,451.312L668.588,451.03L669.428,451.747L670.728,451.204L671.73,449.29L671.107,447.616L672.272,446.226L668.778,445.248L667.586,442.491L665.284,440.995L663.307,440.561L663.334,439.953L660.734,439.086L655.425,439.693L655.723,437.482L654.531,437.005L659.163,434.168L661.438,434.58L660.165,432.761L660.815,431.506L662.142,431.009L662.955,429.624L664.444,429.668L666.015,428.608L664.932,425.993L665.175,424.59L663.93,423.92L662.413,421.071L662.034,419.195L662.467,418.225L662.467,418.225L663.659,417.277L664.553,414.799L666.096,414.562L667.776,415.359L671.784,414.885L671.974,414.067L677.58,414.972L680.37,414.326L682.51,415.553L684.297,415.488L685.245,417.19L688.333,417.428L688.631,419.519L689.958,420.683L691.827,420.942L693.019,423.186L695.809,423.726L697.298,421.481L700.088,421.395L700.928,422.107L702.309,421.438L704.72,422.15L707.726,422.452L709.514,419.864L711.951,420.036L712.791,421.33L714.389,420.64L717.314,420.532L721.729,419.411L722.65,418.527L721.919,417.406L720.51,417.406L718.695,415.812L718.695,415.812L718.533,415.661L718.533,415.661L716.691,413.206L716.176,411.097L714.876,408.904L713.387,407.721L714.037,407.184L717.124,406.733L717.477,404.778L721.702,406.325L722.839,407.227L726.929,406.905L726.469,407.7L730.829,407.334L732.834,406.174L736.355,405.079L738.413,405.444L739.199,407.227L741.718,406.711L743.857,405.272L744.562,406.196L750.168,406.389L752.741,405.079L754.312,405.53L755.693,404.027L755.504,402.867L756.425,400.078L755.314,396.37L756.181,394.871L755.856,393.993L752.389,391.852L751.441,387.725L752.145,385.674L751.874,382.237L750.629,380.125L751.468,378.676L753.418,377.972L754.773,376.672L757.346,376.8L757.671,374.926L758.944,373.585L758.673,371.776L760,368.416L757.075,363.341L756.885,358.718L757.319,357.595L755.883,355.434L753.418,355.223L751.116,353.656L751.306,354.926L750.439,355.942L748.922,355.921L746.62,354.312L745.889,352.281L744.724,351.668L743.641,349.934L740.201,350.357L739.47,349.405L737.926,349.131L737.682,347.842L737.682,347.842L738.467,346.764L737.357,346.807L735.867,349.722L732.753,348.687L732.184,347.504L731.344,348.475L728.744,346.405L729.692,346.025L728.961,344.463L725.981,345.688L726.063,343.957L724.898,342.818L724.6,341.531L722.812,340.793L718.479,339.655L717.341,338.812L716.447,339.233L714.172,337.885L712.926,338.496L710.678,337.738L708.457,338.075L708.159,336.39L705.722,334.58L700.765,334.706L699.492,333.801L698.327,334.39L697.515,331.446L697.515,331.446L697.38,330.185L697.38,330.185L697.271,328.126L696.513,326.173L695.023,326.299L692.694,324.243L690.581,324.62L688.902,325.46L686.031,324.348L686.058,325.775L684.623,325.859L680.56,323.886L680.831,325.691L679.91,326.215L676.714,324.306L674.845,323.593L674.709,325.25L673.707,326.194L672.759,325.208L670.972,324.83L670.322,325.649L667.857,324.599L667.342,324.935L669.103,327.685L670.051,329.807L669.157,330.521L668.994,332.182L666.882,331.951L666.909,333.17L664.471,331.236L664.878,333.107L667.18,334.138L667.532,335.885L667.532,335.885L668.29,335.274L668.751,336.39L668.751,336.39L669.644,338.433L668.317,341.405L669.076,342.733L666.855,341.531L663.334,343.05L663.577,343.345L663.577,343.345L664.065,344.168L662.304,344.358L662.332,346.87L660.273,347.039L661.194,348.877L660.273,350.018L658.215,349.152L657.971,350.039L656.725,349.131L657.05,350.357L658.188,350.399L660.761,352.662L662.467,352.768L663.74,353.91L662.359,355.942L663.171,357.849L662.602,360.732L661.411,361.05L662.9,362.81L664.525,363.362L665.311,361.665L669.211,363.107L670.863,362.492L671.432,363.786L673.084,364.084L674.709,365.166L676.28,365.23L677.364,364.444L678.474,365.421L678.474,365.421L679.151,366.674L679.151,366.674L681.643,368.416L681.426,369.416L682.835,370.5L682.076,371.67L681.535,374.011L682.402,375.032L680.397,376.992L681.995,376.587L682.076,377.546L680.858,377.503L678.095,379.464L681.508,382.856L680.181,385.076L678.908,384.542L678.853,386.016L676.741,385.738L676.172,387.277L673.734,386.593L673.734,388.174L670.403,386.465L669.861,387.383L668.561,387.063L668.019,385.781L666.909,386.507L665.636,385.995ZM642.803,396.584L642.857,396.991L643.101,398.492L643.887,398.106L644.185,396.07ZM501.393,358.442L501.311,358.442L501.609,359.353L501.718,359.311ZM643.941,398.813L643.697,399.306L643.941,399.992L644.374,399.95ZM662.9,386.123L662.982,386.059L662.386,386.272L662.629,386.272Z" fill="#e6f4ea" stroke="#137333" stroke-width="4" stroke-linejoin="round" stroke-linecap="round" />
  
  <!-- 内发光描边 -->
  <path d="M662.982,386.059L662.9,386.123L662.629,386.272L662.386,386.272L659.84,388.217L660.95,390.184L661.79,393.201L660.95,393.029L660.111,395.342L661.194,397.334L662.277,397.356L661.979,398.684L662.873,400.228L662.765,402.481L661.492,404.821L659,406.346L656.915,406.453L656.698,408.001L654.775,406.819L651.335,402.717L651.173,400.486L649.358,400.464L648.329,399.242L646.433,401.194L645.701,402.588L644.374,399.95L643.941,399.992L643.697,399.306L643.941,398.813L643.86,398.727L643.778,398.341L643.887,398.106L643.101,398.492L642.235,397.848L640.826,399.199L636.086,400.293L636.222,398.642L642.857,396.991L642.803,396.584L641.747,396.777L641.476,395.663L636.33,394.421L634.949,394.742L634.001,396.927L632.646,393.201L631.942,393.65L630.263,391.981L630.128,390.59L628.123,389.884L628.529,388.88L627.121,387.768L628.584,386.571L629.315,387.768L630.128,386.614L627.636,386.251L626.092,385.525L622.95,387.02L617.939,386.507L616.856,384.564L615.745,383.859L615.61,382.472L614.716,382.323L613.497,383.624L613.064,381.362L614.229,380.787L612.143,379.976L611.033,377.077L611.872,373.031L614.608,371.244L615.691,369.947L618.346,370.075L619.402,368.034L617.804,365.145L616.991,364.678L616.964,362.725L617.696,361.622L616.775,360.371L615.475,359.989L614.391,358.251L614.256,355.582L612.712,355.032L612.685,352.683L610.924,350.949L609.137,351.541L607.837,350.187L608.893,349.744L608.243,348.011L606.428,346.764L606.672,345.286L605.589,343.704L606.347,342.396L608.73,341.995L608.866,341.426L610.816,341.847L611.737,340.899L611.466,339.297L610.085,338.433L609.055,336.369L607.512,335.169L604.613,335.274L604.911,333.086L604.018,330.773L602.42,330.71L599.359,329.533L598.492,330.227L596.948,328.987L594.755,328.777L594.727,327.139L592.994,326.236L591.829,323.551L590.8,322.942L590.421,321.223L586.927,319.694L584.327,321.37L580.833,321.664L579.181,319.861L580.237,317.411L581.402,317.767L582.404,316.574L584.164,316.051L581.889,314.377L582.675,312.6L575.687,311.429L574.739,312.015L572.518,311.868L572.03,310.949L568.834,312.161L565.909,312.328L565.394,311.722L563.228,312.433L560.844,312.662L556.7,310.092L549.956,305.354L547.275,303.978L545.785,302.081L538.851,296.335L536.414,295.462L526.717,292.697L524.74,284.915L525.011,282.657L532.324,279.675L531.132,274.217L529.263,271.037L527.096,268.768L546.597,258.227L553.287,248.786L554.723,247.209L560.384,245.038L561.413,243.115L561.169,240.743L561.9,238.924L560.302,235.535L554.858,229.501L555.996,227.119L556.727,224.129L550.823,222.503L546.327,222.3L540.855,223.682L534.978,225.594L527.665,227.058L523.954,228.015L520.217,230.988L517.075,233.128L514.664,234.128L509.139,238.209L503.695,237.291L491.94,235.046L490.288,234.536L484.762,231.375L480.429,232.394L476.989,234.291L467.049,236.392L465.37,237.005L460.548,237.679L457.515,238.679L461.578,242.563L462.851,243.217L466.832,246.778L468.132,247.372L462.255,251L459.275,254.303L455.023,257.528L450.446,256.193L447.304,257.754L445.598,255.207L438.989,252.969L435.414,252.395L434.357,251.267L435.874,250.405L435.603,249.319L431.54,248.725L431.297,246.676L429.59,245.1L430.917,241.683L426.015,243.688L419.515,244.936L419.163,242.338L416.535,241.274L415.371,242.481L413.61,241.458L413.339,239.292L414.883,237.903L413.935,233.801L413.908,224.76L408.004,224.8L403.562,225.553L398.822,224.983L398.903,221.427L396.384,221.244L391.238,220.208L390.127,217.428L390.696,215.907L387.879,212.462L382.517,211.713L378.671,209.304L375.068,208.758L372.685,208.05L369.055,204.776L362.474,203.544L353.536,204.109L352.29,203.645L353.129,203.1L354.511,203.706L356.353,203.382L364.316,199.851L365.941,198.319L369.895,198.037L373.687,195.82L374.933,191.996L377.208,189.824L384.331,186.409L384.331,174.827L387.554,171.409L387.311,167.098L386.769,166.639L381.623,160.125L379.402,158.692L376.26,158.613L362.501,157.599L357.788,161.379L340.589,160.881L340.508,165.762L338.422,167.177L337.393,168.873L334.739,168.115L332.247,164.207L323.715,167.596L324.419,169.592L324.23,171.929L322.469,170.491L320.682,169.692L319.246,168.195L318.325,164.625L313.992,165.782L316.538,168.814L304.079,173.627L303.591,158.215L299.935,157.32L297.064,155.174L295.195,154.578L287.692,150.351L284.686,147.259L272.633,135.279L271.956,133.662L282.194,125.786L273.689,111.254L266.972,99.951L261.284,90.576L252.563,75.705L243.571,77.425L233.631,77.386L217.975,78.681L208.306,83.266L205.543,84.099L204.162,85.63L202.022,86.812L201.751,89.47L200.045,91.47L203.891,92.441L202.835,95.162L202.781,96.31L208.821,101.1L204.379,104.103L207.087,108.301L207.033,109.806L206.139,111.293L203.404,113.484L200.912,114.796L194.628,117.285L192.245,117.344L190.403,117.893L185.88,118.324L182.142,119.638L176.59,122.995L174.341,124.154L171.768,126.317L170.197,129.76L167.895,127.674L165.566,124.095L165.783,123.015L164.266,122.308L162.993,120.659L161.882,120.855L157.522,122.701L155.653,123.034L150.94,125.255L148.638,127.418L146.038,130.981L136.531,132.4L121.147,142.845L113.509,149.598L109.013,155.373L104.679,159.946L105.166,163.729L102.512,169.392L91.326,170.111L65.92,173.448L65.568,181.394L64.972,184.964L60.124,191.855L57.876,204.412L55.33,213.698L53.217,219.985L48.207,226.387L41.733,231.233L40,232.191L40.217,236.168L41.192,238.373L41.219,239.987L43.142,240.906L45.282,240.723L45.282,239.782L46.636,238.209L49.101,237.699L54.084,237.76L58.77,236.576L63.212,236.494L64.187,235.556L66.381,235.127L68.114,236.29L70.958,236.147L74.127,234.699L75.319,235.535L74.858,237.842L76.348,238.598L77.784,240.579L76.944,245.939L79.517,246.287L81.115,247.168L88.997,246.307L101.131,245.918L105.762,248.417L107.956,248.417L107.956,250.241L102.918,250.467L102.323,251.062L103.081,252.662L104.246,253.564L107.983,254.878L110.908,255.125L111.856,254.693L125.399,253.154L129.326,253.031L135.529,266.995L136.233,267.84L136.233,270.501L137.723,271.099L138.671,270.336L142.625,269.552L148.773,269.614L150.913,269.263L151.915,268.335L155.87,267.655L159.011,268.149L160.203,268.871L162.397,268.232L163.21,269.325L165.16,269.882L166.243,272.152L167.11,272.028L168.41,273.246L170.902,272.544L174.964,273.37L176.4,272.895L177.05,273.742L178.458,272.73L179.813,273.597L182.738,271.471L183.767,271.657L186.557,269.49L187.965,268.974L188.832,269.923L191.134,270.913L193.816,271.429L194.52,273.928L196.416,273.804L198.014,275.167L198.285,276.139L201.291,277.441L203.891,278.951L205.787,278.331L210.744,280.007L212.098,279.2L212.613,280.151L214.752,279.448L214.265,278.517L215.754,275.746L217.623,274.382L221.361,274.362L230.245,276.449L229.812,273.556L229.08,273.06L228.539,270.913L231.68,268.005L232.114,266.377L230.299,265.305L232.06,264.337L235.31,264.399L236.176,263.369L234.741,262.279L236.556,260.962L235.906,259.83L238.235,260.221L239.535,261.044L243.246,262.032L247.417,260.427L247.038,257.816L247.498,256.994L245.358,255.679L245.981,253.339L244.979,253.092L244.41,251.697L244.681,249.852L244.248,248.356L242.352,246.656L242.271,244.547L243.435,241.847L243.11,240.763L243.625,238.291L245.494,236.352L243.3,233.883L245.737,233.434L247.606,233.903L251.182,233.801L254.676,234.107L258.82,235.352L260.228,235.229L261.284,236.413L262.611,236.147L265.13,237.413L267.162,239.231L270.52,240.293L274.827,242.133L275.802,244.22L281.408,245.673L283.467,247.065L289.344,248.786L290.211,249.893L291.944,250.672L292.974,251.985L296.305,249.626L299.582,247.844L299.284,246.164L301.099,244.199L301.587,242.931L301.289,241.397L302.86,240.804L305.812,241.295L306.57,242.522L307.952,242.767L307.762,243.647L309.062,244.67L312.096,244.547L314.642,245.673L316.375,244.383L315.861,243.606L318.027,242.869L319.95,240.682L321.061,240.089L321.63,238.781L324.853,238.822L324.907,239.742L327.913,240.804L328.645,242.051L330.784,243.135L335.308,243.626L337.637,244.711L336.066,246.062L335.93,247.127L339.127,249.073L342.675,251.882L345.708,252.887L348.823,254.981L349.419,256.46L351.044,257.302L352.723,259.995L354.971,259.645L356.163,262.546L358.655,264.646L361.038,265.697L361.905,266.809L364.884,268.294L366.239,268.521L369.272,270.294L375.122,272.462L376.964,272.709L379.077,274.114L380.025,274.052L382.029,275.415L382.435,276.387L384.927,276.8L383.898,273.763L384.088,272.131L382.896,271.863L380.973,268.665L377.858,267.572L376.937,266.026L378.021,264.234L379.7,263.761L380.702,264.893L381.867,264.708L384.06,266.274L387.446,267.139L388.286,270.46L390.155,269.49L391.455,271.739L390.886,272.09L394.326,273.68L395.544,273.06L395.897,274.465L397.088,274.899L397.765,273.866L399.607,274.589L400.88,275.705L403.047,275.911L404.103,274.878L408.329,275.415L409.954,276.077L413.177,279.593L414.721,280.048L417.05,278.703L418.133,279.531L417.267,280.897L417.429,282.843L415.967,284.107L416.237,285.993L417.267,286.594L419.271,286.076L424.255,289.125L425.392,288.918L425.88,290.08L427.559,291.347L427.857,292.365L429.78,293.279L433.03,293.757L436.795,295.753L437.689,294.38L441.047,292.448L445.11,293.798L447.168,294.152L450.337,297.375L449.85,298.291L455.673,299.936L456.729,301.769L458.436,301.31L459.248,300.352L462.471,298.52L464.774,298.666L466.426,300.414L466.968,301.893L466.372,302.935L469.324,304.937L470.597,306.522L469.378,309.319L470.326,309.194L472.601,310.364L473.495,312.056L478.018,313.331L477.964,314.273L481.025,316.134L483.652,316.972L483.273,317.6L484.762,318.605L484.952,319.631L486.388,320.72L488.283,320.993L490.261,322.942L491.209,322.859L493.078,326.152L490.477,325.942L486.306,327.097L487.092,329.701L484.627,331.929L486.794,332.539L487.958,333.696L489.502,334.075L490.64,336.264L492.942,337.022L496.49,340.751L495.271,340.414L492.942,342.29L491.777,342.058L491.263,343.282L492.563,345.899L494.919,347.292L496.68,347.525L496.246,348.159L498.332,349.511L497.113,349.786L497.953,351.393L499.713,352.619L498.765,353.656L501.311,358.442L501.393,358.442L501.718,359.311L501.609,359.353L502.016,359.926L504.264,359.926L505.401,361.41L509.897,363.235L509.735,364.275L511.739,364.975L510.954,365.761L508.218,366.016L507.297,367.843L506.539,367.885L506.214,369.905L503.614,370.883L505.835,372.393L507.405,372.563L506.674,373.564L507.568,374.713L506.268,377.738L506.81,380.723L506.376,382.002L505.022,381.32L500.77,381.106L499.442,380.552L497.33,382.387L496.274,382.621L495.001,384.542L495.949,387.49L497.547,389.564L498.44,389.756L498.386,391.574L500.39,393.843L497.655,394.507L496.896,395.47L499.253,395.277L497.519,396.734L495.407,395.256L489.936,394.378L488.202,392.965L486.956,392.751L486.767,394.507L484.085,398.47L484.519,399.263L482.785,400.486L478.668,399.392L477.747,399.842L477.477,402.417L478.804,403.404L478.533,404.671L477.179,405.165L478.56,406.067L481.106,406.883L480.916,408.13L482.596,410.602L480.077,411.269L478.479,412.819L477.829,415.338L475.933,416.35L474.416,415.962L474.118,416.953L472.574,417.04L471.762,418.009L470.705,417.837L468.999,419.066L466.941,422.409L467.834,423.424L464.205,422.884L461.171,424.05L461.442,425.713L461.198,431.42L461.307,435.121L461.957,436.637L462.905,436.832L463.69,438.327L464.909,438.783L468.918,438.869L470.976,440.322L471.68,440.149L472.276,442.34L473.874,444.532L476.231,446.812L475.256,447.377L475.256,447.377L473.035,446.943L471.41,450.507L467.807,449.551L467.563,452.444L465.424,452.857L466.182,454.076L464.963,455.339L463.311,455.099L462.851,457.648L460.332,456.58L459.303,456.732L458.3,455.731L457.65,456.994L455.511,456.667L454.454,457.059L453.236,458.933L452.45,458.802L451.773,457.212L450.5,457.604L448.144,454.598L444.541,453.14L442.51,453.858L442.049,452.835L439.233,452.444L437.12,451.552L435.251,451.704L435.17,450.66L432.678,450.203L430.917,449.333L431.188,448.16L429.374,447.66L428.697,448.355L425.175,447.986L423.252,448.268L420.273,445.987L418.702,445.596L416.237,445.965L415.073,447.834L413.014,448.507L411.985,451.03L412.473,451.595L410.495,454.598L412.337,455.622L414.206,458.519L415.154,458.781L415.614,460.852L417.998,462.902L417.673,463.557L419.352,464.801L420.625,467.225L421.871,467.029L423.252,468.471L427.613,469.301L427.586,470.241L429.238,471.619L429.049,473.85L428.019,474.791L428.642,476.302L428.182,477.419L430.43,476.981L431.27,476.28L434.168,477.506L437.797,478.076L439.531,477.616L439.693,476.521L442.916,475.536L446.546,476.784L446.6,478.054L447.981,480.114L447.764,481.583L448.225,484.347L452.45,484.676L453.777,484.215L454.671,482.745L455.294,481.956L457.407,482.043L457.975,479.939L459.736,481.013L460.738,482.723L460.711,485.247L462.471,486.959L461.117,487.706L459.871,489.551L459.438,492.607L454.698,494.609L454.725,495.489L457.352,497.03L457.867,498.307L457.163,501.193L458.923,501.899L459.871,500.466L461.388,499.673L461.984,498.219L464.557,497.646L467.238,498.087L468.755,497.426L468.755,496.435L469.974,493.751L471.193,494.389L471.87,495.753L473.658,496.612L474.389,495.533L473.278,491.617L474.416,491.068L476.177,488.431L477.856,488.233L478.479,488.936L481.052,488.299L482.108,488.65L484.519,486.432L485.169,486.674L485.115,484.391L484.464,483.03L485.846,482.548L484.194,481.166L480.077,479.807L478.695,477.178L479.887,474.529L477.341,474.813L479.102,473.259L477.856,471.969L475.526,471.837L476.312,470.328L475.96,468.558L470.814,463.994L472.222,463.208L474.768,464.081L475.77,463.055L477.449,463.448L478.722,462.728L480.023,463.797L482.081,463.71L482.704,461.005L484.058,458.628L485.548,459.26L487.336,458.672L491.913,458.083L493.375,458.933L493.673,457.473L491.154,455.97L493.457,455.164L494.026,453.989L495.38,453.727L496.869,452.095L499.117,452.052L499.93,450.464L502.503,450.551L502.639,449.225L504.914,448.703L506.566,449.616L507.812,451.356L507.622,453.423L509.058,454.337L511.089,453.88L513.202,454.468L514.258,455.339L514.15,457.517L516.669,458.955L514.502,459.565L514.068,460.939L515.287,460.852L515.721,462.51L514.095,464.517L514.583,465.456L516.046,465.565L516.777,466.832L515.558,470.416L516.073,471.006L518.835,471.487L519.783,470.635L521.327,471.159L521.056,472.384L524.388,473.741L527.909,473.325L529.236,471.159L531.592,470.941L532.784,474.791L531.674,476.608L533.082,476.915L533.597,475.667L534.897,474.944L537.199,475.273L538.174,476.28L539.176,475.93L543.022,477.463L546.679,476.433L551.906,476.937L554.804,476.258L557.323,477.266L560.546,480.07L559.598,482.57L560.709,485.642L562.144,486.784L562.469,488.65L564.744,489.222L565.638,491.639L569.213,491.266L571.245,492.057L569.755,493.311L567.453,492.563L566.126,493.047L567.02,494.609L567.209,496.59L568.211,499.452L569.403,501.634L567.615,504.766L569.999,504.876L571.516,505.957L569.647,506.685L569.403,508.496L567.967,509.07L565.449,508.96L564.961,510.727L565.719,513.667L568.78,514.241L572.951,517.494L575.28,517.272L575.93,518.379L578.395,518.645L578.829,519.818L581.05,521.303L583.406,520.793L585.302,522.477L587.767,522.122L588.85,521.258L589.961,521.657L591.558,523.984L593.454,523.696L597.923,521.812L600.226,522.388L601.634,524.295L604.884,523.253L606.211,522.41L606.401,521.103L608.324,521.724L609.841,521.524L612.008,520.394L612.956,519.066L616.477,518.18L616.72,516.675L615.556,515.923L614.174,513.003L614.174,513.003L613.497,511.876L614.689,511.456L614.96,509.865L617.316,509.512L618.698,510.307L619.971,509.998L621.623,510.528L622.706,511.854L624.819,511.743L625.631,511.036L629.098,510.594L633.107,508.606L634.651,509.114L637.088,506.708L637.495,504.567L636.98,503.53L637.847,501.502L637.359,499.937L636.195,499.981L637.711,498.593L639.336,499.651L639.201,497.448L637.088,495.973L634.678,496.127L631.888,495.071L631.563,494.191L629.857,493.597L629.965,491.969L627.961,489.595L633.134,489.727L633.594,488.365L633.296,486.564L633.784,484.896L635.057,483.952L636.438,481.978L638.091,481.342L639.472,479.478L642.803,479.61L644.537,479.303L645.891,479.939L645.485,481.386L648.952,482.394L651.173,481.627L654.071,479.851L656.183,480.618L657.646,479.522L660.381,479.478L660.815,483.009L664.471,483.886L666.259,481.101L666.042,478.668L664.227,475.864L661.952,475.339L662.196,473.106L661.031,471.706L662.332,469.738L661.627,467.924L659.542,468.339L658.783,466.461L661.573,463.753L661.465,461.397L662.955,459.98L662.792,457.844L665.365,457.648L666.448,455.883L665.257,452.356L664.119,451.29L662.548,451.987L663.875,449.616L666.096,450.116L666.638,451.312L668.588,451.03L669.428,451.747L670.728,451.204L671.73,449.29L671.107,447.616L672.272,446.226L668.778,445.248L667.586,442.491L665.284,440.995L663.307,440.561L663.334,439.953L660.734,439.086L655.425,439.693L655.723,437.482L654.531,437.005L659.163,434.168L661.438,434.58L660.165,432.761L660.815,431.506L662.142,431.009L662.955,429.624L664.444,429.668L666.015,428.608L664.932,425.993L665.175,424.59L663.93,423.92L662.413,421.071L662.034,419.195L662.467,418.225L662.467,418.225L663.659,417.277L664.553,414.799L666.096,414.562L667.776,415.359L671.784,414.885L671.974,414.067L677.58,414.972L680.37,414.326L682.51,415.553L684.297,415.488L685.245,417.19L688.333,417.428L688.631,419.519L689.958,420.683L691.827,420.942L693.019,423.186L695.809,423.726L697.298,421.481L700.088,421.395L700.928,422.107L702.309,421.438L704.72,422.15L707.726,422.452L709.514,419.864L711.951,420.036L712.791,421.33L714.389,420.64L717.314,420.532L721.729,419.411L722.65,418.527L721.919,417.406L720.51,417.406L718.695,415.812L718.695,415.812L718.533,415.661L718.533,415.661L716.691,413.206L716.176,411.097L714.876,408.904L713.387,407.721L714.037,407.184L717.124,406.733L717.477,404.778L721.702,406.325L722.839,407.227L726.929,406.905L726.469,407.7L730.829,407.334L732.834,406.174L736.355,405.079L738.413,405.444L739.199,407.227L741.718,406.711L743.857,405.272L744.562,406.196L750.168,406.389L752.741,405.079L754.312,405.53L755.693,404.027L755.504,402.867L756.425,400.078L755.314,396.37L756.181,394.871L755.856,393.993L752.389,391.852L751.441,387.725L752.145,385.674L751.874,382.237L750.629,380.125L751.468,378.676L753.418,377.972L754.773,376.672L757.346,376.8L757.671,374.926L758.944,373.585L758.673,371.776L760,368.416L757.075,363.341L756.885,358.718L757.319,357.595L755.883,355.434L753.418,355.223L751.116,353.656L751.306,354.926L750.439,355.942L748.922,355.921L746.62,354.312L745.889,352.281L744.724,351.668L743.641,349.934L740.201,350.357L739.47,349.405L737.926,349.131L737.682,347.842L737.682,347.842L738.467,346.764L737.357,346.807L735.867,349.722L732.753,348.687L732.184,347.504L731.344,348.475L728.744,346.405L729.692,346.025L728.961,344.463L725.981,345.688L726.063,343.957L724.898,342.818L724.6,341.531L722.812,340.793L718.479,339.655L717.341,338.812L716.447,339.233L714.172,337.885L712.926,338.496L710.678,337.738L708.457,338.075L708.159,336.39L705.722,334.58L700.765,334.706L699.492,333.801L698.327,334.39L697.515,331.446L697.515,331.446L697.38,330.185L697.38,330.185L697.271,328.126L696.513,326.173L695.023,326.299L692.694,324.243L690.581,324.62L688.902,325.46L686.031,324.348L686.058,325.775L684.623,325.859L680.56,323.886L680.831,325.691L679.91,326.215L676.714,324.306L674.845,323.593L674.709,325.25L673.707,326.194L672.759,325.208L670.972,324.83L670.322,325.649L667.857,324.599L667.342,324.935L669.103,327.685L670.051,329.807L669.157,330.521L668.994,332.182L666.882,331.951L666.909,333.17L664.471,331.236L664.878,333.107L667.18,334.138L667.532,335.885L667.532,335.885L668.29,335.274L668.751,336.39L668.751,336.39L669.644,338.433L668.317,341.405L669.076,342.733L666.855,341.531L663.334,343.05L663.577,343.345L663.577,343.345L664.065,344.168L662.304,344.358L662.332,346.87L660.273,347.039L661.194,348.877L660.273,350.018L658.215,349.152L657.971,350.039L656.725,349.131L657.05,350.357L658.188,350.399L660.761,352.662L662.467,352.768L663.74,353.91L662.359,355.942L663.171,357.849L662.602,360.732L661.411,361.05L662.9,362.81L664.525,363.362L665.311,361.665L669.211,363.107L670.863,362.492L671.432,363.786L673.084,364.084L674.709,365.166L676.28,365.23L677.364,364.444L678.474,365.421L678.474,365.421L679.151,366.674L679.151,366.674L681.643,368.416L681.426,369.416L682.835,370.5L682.076,371.67L681.535,374.011L682.402,375.032L680.397,376.992L681.995,376.587L682.076,377.546L680.858,377.503L678.095,379.464L681.508,382.856L680.181,385.076L678.908,384.542L678.853,386.016L676.741,385.738L676.172,387.277L673.734,386.593L673.734,388.174L670.403,386.465L669.861,387.383L668.561,387.063L668.019,385.781L666.909,386.507L665.636,385.995ZM642.803,396.584L642.857,396.991L643.101,398.492L643.887,398.106L644.185,396.07ZM501.393,358.442L501.311,358.442L501.609,359.353L501.718,359.311ZM643.941,398.813L643.697,399.306L643.941,399.992L644.374,399.95ZM662.9,386.123L662.982,386.059L662.386,386.272L662.629,386.272Z" fill="none" stroke="#2e7d32" stroke-width="1.5" stroke-linejoin="round" stroke-linecap="round" opacity="0.6" />
</svg>