<svg xmlns="http://www.w3.org/2000/svg" width="800" height="600" viewBox="0 0 800 600">
  <!-- 背景色，采用淡米黄色 -->
  <rect width="100%" height="100%" fill="#f5f2eb" />
  
  <!-- 阴影层 -->
  <path d="M747.503,249.301L744.452,243.565L745.588,242.323L743.478,240.853L742.471,238.927L743.932,238.597L741.433,236.977L741.952,236.217L739.842,235.939L737.018,234.268L735.46,231.132L736.077,229.666L737.473,229.944L740.264,227.695L741.725,228.099L737.473,223.629L734.713,222.721L733.35,220.098L731.5,219.644L730.104,218.258L727.507,217.527L730.461,214.857L729.52,211.735L734.519,210.351L737.635,210.603L735.395,206.656L734.259,206.756L731.889,204.42L729.617,204.093L727.897,202.787L727.67,201.557L725.884,200.353L726.339,199.6L723.19,198.597L719.522,196.366L719.587,195.238L714.166,193.71L713.095,191.681L710.368,190.279L709.232,190.43L710.693,187.077L709.167,185.177L705.629,182.779L706.343,181.53L705.694,179.757L703.714,177.661L700.955,177.487L697.092,179.682L696.118,180.831L694.073,181.38L692.807,179.183L685.828,177.212L686.413,176.115L682.615,172.252L680.148,171.828L675.279,170.21L671.254,172.526L670.183,174.17L665.671,171.778L661.775,171.206L659.471,170.11L659.114,168.89L657.101,167.372L656.517,165.979L655.154,166.228L649.181,162.573L646.779,163.194L645.545,162.474L645.221,160.213L646.974,158.699L646.779,156.366L647.818,154.729L646.519,153.737L643.727,155.349L641.877,154.803L638.015,150.59L636.067,149.797L631.003,149.153L629.737,150.391L627.14,150.144L625.615,148.806L623.407,147.94L622.596,149.178L621.168,148.658L620.746,146.975L619.285,147.717L615.163,145.812L615.844,145.391L614.286,142.695L612.046,143.858L611.04,139.878L606.983,138.841L604.353,136.965L602.957,137.187L601.756,135.829L599.744,136.397L598.446,138.545L599.549,140.397L603.282,141.707L605.587,145.539L607.015,145.861L606.788,147.816L608.021,151.457L605.035,150.961L604.548,149.797L602.146,148.163L601.01,148.237L598.478,146.554L596.271,146.257L589.259,143.66L585.624,141.534L584.001,141.262L580.43,139.483L579.391,138.149L576.535,136.89L573.549,134.374L572.12,130.897L569.426,131.316L567.414,128.089L565.466,127.079L564.752,125.307L561.019,122.798L557.383,121.593L553.131,118.227L549.301,115.894L549.463,114.618L551.346,112.999L548.554,111.699L543.133,111.111L540.569,109.812L539.693,108.317L536.089,107.043L536.025,105.942L532.162,105.893L531.48,107.46L530.149,108.17L527.845,110.792L525.248,111.674L525.864,112.606L523.787,114.152L520.736,112.803L517.1,112.95L515.542,111.724L515.769,110.669L514.114,110.375L513.205,108.905L509.667,108.317L507.784,109.027L508.141,110.865L507.557,112.386L505.382,114.741L505.739,116.753L501.811,118.89L497.819,121.716L496.585,120.143L494.508,119.209L493.469,117.883L486.425,115.82L483.958,114.152L477.239,112.41L476.071,109.91L470.909,107.705L466.884,106.431L464.45,104.253L461.431,102.736L459.84,103.054L458.574,101.635L456.887,101.782L451.92,100.291L447.733,99.924L443.448,100.046L441.208,99.484L438.287,100.022L440.916,102.981L438.676,105.305L438.06,108.268L438.449,109.567L437.053,112.803L437.151,115.33L439.423,117.367L439.942,119.16L439.618,121.372L440.299,123.044L441.5,123.339L440.754,126.144L443.318,127.719L442.766,128.704L443.221,131.834L438.222,133.757L433.775,132.573L432.217,131.587L429.425,131.119L430.204,132.475L428.029,134.053L429.75,135.36L428.711,136.594L424.816,136.52L422.706,137.68L424.881,138.964L424.361,140.916L420.596,144.402L421.245,146.975L422.122,147.569L422.641,151.036L411.994,148.534L407.515,148.559L405.275,150.193L403.489,153.514L404.074,154.63L401.509,155.473L400.893,154.332L399.27,155.299L393.329,153.291L391.057,154.034L387.941,152.225L384.338,150.664L384.013,149.5L382.098,147.866L379.826,148.014L378.982,145.02L375.768,144.402L373.009,143.215L371.971,142.078L370.283,142.695L366.939,145.292L365.706,145.069L362.2,147.618L360.577,146.579L358.889,147.791L358.11,146.777L356.39,147.346L351.521,146.356L348.534,147.197L346.976,145.737L345.938,145.886L344.639,143.165L342.302,142.498L341.328,141.188L338.699,141.954L337.271,141.089L333.505,140.496L328.766,141.311L327.565,142.424L325.001,142.844L317.632,142.77L312.893,143.709L311.757,144.624L309.972,143.907L309.972,140.718L309.128,139.705L301.694,122.97L296.987,123.118L280.757,124.963L279.621,125.479L276.116,125.184L271.636,123.609L270.24,122.527L269.331,120.61L270.046,119.897L276.083,119.627L276.083,117.441L273.454,117.441L267.903,114.446L253.361,114.912L243.915,115.943L242,114.888L238.916,114.471L239.922,108.048L238.202,105.672L236.417,104.767L236.969,102.002L235.54,101L231.742,102.736L228.334,102.907L226.257,101.513L223.627,102.027L222.459,103.152L217.135,103.25L211.52,104.669L205.547,104.595L202.593,105.207L200.97,107.092L200.97,108.219L198.406,108.439L198.698,109.91L196.815,110.473L190.68,110.351L187.207,111.331L185.909,112.533L182.5,112.386L175.002,114.103L170.49,115.771L170.425,116.557L166.562,117.171L160.687,117.514L159.973,118.227L150.495,120.192L147.606,120.29L139.815,123.831L136.861,123.511L134.005,124.643L123.682,126.538L122.514,126.39L118.781,127.35L109.562,128.483L106.154,127.621L104.012,128.138L105.407,129.69L103.33,130.971L103.46,131.834L100.928,131.883L99.078,133.584L95.799,133.831L95.896,135.657L93.884,137.137L89.989,137.754L87.976,136.718L84.47,137.261L78.271,137.113L77.264,137.977L77.264,141.089L78.206,142.078L80.835,142.251L78.628,145.218L86.158,150.614L89.956,150.862L90.443,147.346L92.553,146.752L99.37,146.306L98.591,152.25L98.753,177.362L101.902,177.886L102.291,178.809L105.31,179.133L112.354,181.68L114.594,183.528L116.411,184.028L117.872,185.527L116.996,187.903L119.43,188.478L121.865,190.68L125.111,189.879L127.935,190.78L129.331,192.257L130.045,195.463L131.246,197.118L131.181,198.773L134.329,201.432L134.135,205.022L138.841,207.234L139.166,210.326L140.075,211.484L139.426,213.623L140.075,215.209L135.465,215.335L133.615,214.529L131.116,215.461L130.759,216.998L126.799,217.577L126.02,219.568L123.228,220.426L120.079,220.022L116.379,220.325L111.348,225.043L109.952,225.043L109.692,228.731L111.153,230.55L109.367,231.208L108.588,233.838L109.887,234.015L109.432,235.888L110.439,237.686L114.107,237.711L115.178,239.155L119.073,239.028L124.689,240.118L125.955,240.65L126.182,243.54L125.565,245.214L126.799,245.696L125.468,251.511L127.902,252.807L126.799,256.011L129.136,256.978L128.941,259.931L130.661,262.478L128.357,263.905L122.968,262.936L120.014,267.041L116.184,267.678L114.366,266.684L112.289,264.007L106.121,261.459L103.687,261.892L99.565,260.771L96.578,261.611L93.722,261.51L88.528,260.16L83.854,260.109L81.809,258.683L78.238,257.614L79.05,255.96L74.44,255.096L73.661,253.977L71.551,253.875L72.85,254.943L72.428,257.309L71.259,259.701L68.468,261.153L68.273,265.001L66.845,264.389L61.878,264.312L59.087,264.669L56.165,263.65L54.964,263.752L50.582,266.556L43.7,267.398L40.682,266.199L40,267.678L41.591,268.98L41.234,272.911L44.48,273.652L47.92,275.236L47.693,276.105L51.556,275.978L53.179,276.566L55.97,276.514L59.703,275.85L60.937,276.566L59.119,279.148L59.931,280.504L58.048,281.656L58.145,286.343L56.944,287.111L59.022,289.649L58.275,290.65L56.198,290.598L55.548,292.548L56.62,294.833L57.723,294.525L58.989,295.834L57.626,296.579L54.802,299.329L53.374,298.84L51.329,299.534L49.641,301.051L44.869,302.234L45.875,303.829L44.739,305.528L46.687,306.712L44.285,307.742L42.402,309.468L43.408,309.957L46.038,314.211L49.219,315.011L49.933,315.759L49.803,318.211L48.212,324.489L49.186,326.791L53.99,327.179L55.938,325.497L58.048,326.351L60.19,325.394L61.943,326.428L61.618,328.214L62.884,328.343L64.41,331.242L62.203,331.967L60.807,334.765L57.269,335.387L56.912,339.147L58.113,340.133L60.775,340.834L59.671,343.69L61.618,345.04L62.073,349.953L61.878,351.799L60.807,353.074L61.911,354.506L63.923,355.027L64.345,356.85L62.17,358.491L62.852,360.081L61.716,365.036L60.288,366.028L58.73,365.923L58.567,367.385L56.198,367.02L53.244,368.847L53.276,370.911L52.14,371.355L54.769,374.492L54.932,376.088L56.555,376.768L57.236,378.102L60.58,381.061L62.787,380.877L66.098,384.1L68.338,384.44L66.228,386.695L66.488,387.613L70.513,388.426L70.383,389.606L71.811,390.42L70.545,394.41L71.941,397.485L75.771,398.983L76.063,401.429L77.037,402.376L82.977,403.587L84.373,404.323L88.918,410.303L90.508,411.937L92.748,412.939L97.227,412.702L101.025,414.575L104.433,417.161L108.491,419.511L110.374,419.167L113.717,420.646L117.904,420.33L118.911,422.285L120.274,420.33L124.169,420.567L126.052,421.465L127.87,420.699L131.862,422.866L132.577,420.937L133.972,421.069L136.017,419.194L137.868,419.22L140.497,420.964L143.581,421.36L147.054,423.183L150.202,420.911L152.312,421.386L153.319,423.5L154.812,424.69L159.097,425.986L160.2,427.229L163.738,428.287L166.205,429.716L168.315,429.399L169.289,431.808L171.334,431.516L174.45,436.126L177.761,435.649L178.8,434.006L182.143,434.033L184.448,432.682L187.597,433.715L188.765,436.099L186.98,437.107L187.921,437.823L187.24,439.599L190.226,441.377L193.115,439.759L194.9,440.448L195.517,439.069L198.438,439.944L200.97,439.122L202.301,440.103L206.716,440.793L207.073,440.316L210.221,441.377L211.974,440.793L212.948,439.042L216.648,440.21L218.369,441.43L220.122,440.899L222.459,442.571L225.965,441.456L227.588,441.695L229.503,440.316L230.509,440.501L230.736,442.306L233.138,446.368L234.112,445.81L237.877,445.385L238.786,444.031L240.572,444.828L242.097,444.456L243.201,446.341L245.311,446.713L245.733,448.786L247.323,449.264L249.79,451.683L251.186,449.955L253.88,450.062L254.594,452.774L255.925,452.827L256.704,454.29L262.093,451.816L263.813,449.238L267.514,448.892L269.072,449.689L272.707,450.407L274.33,452.508L274.882,454.796L277.382,454.955L280.076,453.811L281.05,455.142L283.776,455.754L284.782,454.61L287.022,454.955L289.424,456.499L291.502,455.434L292.54,452.162L295.397,452.109L297.572,452.88L297.669,451.976L300.623,451.231L301.759,451.71L302.993,448.042L305.103,449.716L306.596,449.211L306.369,447.776L309.712,447.962L313.347,445.598L314.549,443.872L315.814,445.359L321.041,448.414L322.339,451.63L323.67,451.843L324.709,453.732L327.078,454.929L329.058,454.477L330.259,457.458L331.947,458.07L334.252,457.085L337.887,458.549L338.829,459.535L338.829,459.535L339.186,459.082L342.984,459.002L346.392,458.443L346.911,460.201L348.664,461.027L345.061,461.853L339.965,462.386L339.056,464.625L340.452,465.718L345.808,463.692L346.165,462.412L347.593,462.466L347.496,464.225L349.119,469.107L349.119,469.107L351.488,471.536L354.215,471.403L354.247,469.934L356.292,469.774L358.078,471.056L358.824,476.105L357.071,477.575L358.824,478.965L355.741,479.286L353.89,481.507L354.28,483.113L356.422,483.648L356.292,484.799L358.954,489.809L360.188,490.131L361.843,492.517L363.693,493.08L365.446,491.632L368.303,490.828L375.963,492.598L378.3,496.112L379.858,494.422L379.469,493.268L382.26,489.005L386.708,489.032L387,490.56L390.992,494.1L394.725,495.066L395.407,495.897L395.829,500.301L398.523,500.516L399.27,497.938L400.503,497.401L400.86,495.307L399.302,493.429L399.757,492.544L396.965,491.203L397.225,488.013L398.263,487.746L398.88,485.87L397.517,484.424L399.172,484.344L400.925,483.059L402.775,483.594L408.099,483.594L409.073,487.504L410.533,490.104L412.286,491.498L414.948,492.571L417.512,494.556L420.012,493.214L422.414,494.878L424.037,493.992L425.66,495.871L428.614,496.461L429.23,495.253L431.86,494.1L429.685,490.318L427.932,488.898L427.64,486.728L429.458,486.245L430.302,484.933L428.484,482.791L427.283,482.31L426.731,479.313L425.66,478.671L431.016,478.965L433.353,481.212L433.061,479.554L434.716,478.644L437.216,480.089L438.482,478.912L436.891,476.826L440.624,475.784L441.793,476.8L446.986,477.04L449.226,477.628L450.2,476.452L451.595,477.12L452.602,475.998L450.914,474.608L451.855,473.619L453.9,475.57L456.529,475.33L455.718,474.261L456.822,472.498L454.582,471.99L454.192,469.747L456.075,463.825L457.244,463.372L459.84,464.972L462.178,463.745L462.664,462.359L460.717,456.845L458.25,456.126L460.749,452.933L457.925,452.269L457.795,450.779L459.159,449.663L460.003,450.567L461.983,449.052L463.93,448.44L464.709,450.115L466.754,451.391L468.767,451.072L475.616,452.109L476.33,451.418L478.797,451.577L477.207,451.178L472.792,448.467L472.305,447.006L468.929,446.607L468.475,445.731L465.716,444.881L462.6,442.226L462.892,441.722L460.619,438.3L460.977,435.702L460.1,432.655L458.607,432.152L460.068,428.949L463.379,427.917L467.891,427.255L466.625,426.065L468.864,424.769L467.533,421.518L465.943,421.016L466.527,419.405L465.975,417.794L469.189,415.92L472.305,412.755L473.084,408.906L475.908,408.695L480.031,405.061L475.843,403.85L473.246,402.35L469.384,402.113L467.241,399.22L467.858,396.249L463.995,395.987L462.178,394.752L463.216,390.708L462.307,388.268L462.567,386.878L461.691,384.755L459.938,383.576L459.873,382.292L461.269,381.951L461.106,379.804L464.547,379.909L466.819,378.6L467.793,379.071L471.981,377.658L473.441,378.207L475.064,376.271L474.675,374.048L477.304,372.035L475.356,367.281L480.68,365.61L481.881,364.331L481.881,364.331L482.27,363.47L482.27,363.47L482.985,363.027L487.626,362.923L490.58,363.914L494.475,367.489L498.143,367.489L501.325,368.325L503.856,369.526L506.583,369.579L511.128,368.978L514.049,369.474L513.887,371.172L515.542,372.427L516.191,374.937L514.86,376.245L515.412,378.547L514.438,380.956L515.899,382.239L517.392,381.951L518.95,384.702L519.015,386.144L520.314,385.882L521.417,387.324L523.69,388.111L525.15,390.682L527.585,392.546L525.507,393.071L525.8,394.516L527.358,395.304L527.13,397.747L528.721,399.114L531.22,400.14L532.097,401.481L531.772,405.219L534.077,407.141L533.006,412.069L535.245,412.412L535.375,415.102L538.232,418.718L541.575,420.409L543.945,420.594L544.172,421.492L546.444,422.39L546.964,421.677L550.437,422.496L552.255,424.241L556.02,424.796L556.994,427.123L558.065,427.599L558.682,430.669L559.85,433.079L564.33,432.708L565.498,431.94L569.556,433.927L575.107,435.145L576.73,437.77L579.424,437.69L579.748,438.539L582.605,438.963L583.514,440.767L585.754,438.804L586.078,435.834L587.409,432.814L585.948,430.643L587.214,428.949L588.123,429.796L590.525,429.743L591.921,427.017L591.921,424.267L595.621,427.361L596.076,429.399L600.393,430.405L599.939,432.152L601.789,432.152L604.873,435.251L604.548,437.08L605.717,441.191L603.022,444.111L604.158,445.624L608.378,446.129L609.352,447.404L610.488,445.093L610.553,442.677L612.014,440.236L616.266,441.456L619.415,439.52L618.311,442.545L620.518,440.793L622.141,442.757L623.148,442.757L625.615,446.049L627.108,449.344L630.159,450.195L632.399,451.63L633.048,450.567L633.243,446.899L633.86,446.262L635.807,447.218L635.905,445.359L634.768,443.633L639.021,445.438L642.332,445.173L645.156,446.023L647.493,447.723L648.791,446.634L650.934,446.288L652.687,444.562L655.154,443.394L657.653,444.668L659.373,444.509L662.847,441.112L663.593,435.887L662.879,434.271L660.477,432.311L657.62,431.411L658.172,429.187L657.88,427.229L660.769,427.493L660.12,426.144L660.802,424.478L658.789,423.685L658.659,422.126L660.023,421.386L657.166,416.395L657.653,414.997L659.341,414.205L660.704,412.465L662.554,413.15L666.742,412.834L671.189,418.586L671.838,418.349L671.449,415.736L672.325,414.786L676.772,414.707L678.233,416.501L680.472,417.847L684.465,421.333L685.926,419.511L685.536,418.085L688.49,415.445L689.853,411.911L686.802,410.988L685.309,409.644L686.056,406.43L687.744,403.797L691.606,402.639L692.061,398.536L691.606,398.273L690.535,400.035L688.945,400.587L683.881,400.193L683.329,396.88L683.589,395.12L681.933,392.651L681.868,391.128L677.519,389.633L673.656,390.813L673.461,392.126L671.384,392.677L667.034,391.995L663.561,390.525L662.554,391.365L659.86,391.89L660.412,390.551L659.665,388.741L660.899,387.613L661.126,384.938L659.146,383.287L659.179,382.161L653.952,381.166L652.297,379.437L650.804,379.673L649.278,376.768L647.266,375.277L647.655,374.492L644.799,372.035L644.247,369.553L643.111,369.239L640.871,365.767L638.664,364.54L641.033,360.941L640.449,360.263L641.683,357.24L644.149,356.433L645.545,354.194L648.499,353.751L650.382,354.22L653.952,356.954L656.257,356.615L660.477,357.058L661.288,356.225L663.463,356.824L663.139,358.23L665.249,359.273L668.235,359.82L668.332,361.071L670.572,360.889L673.104,361.958L676.48,362.427L677.032,363.653L679.466,362.792L683.783,364.54L686.607,368.142L688.133,367.672L688.945,369.579L689.886,369.735L691.347,367.489L692.613,367.02L695.177,367.411L695.956,365.897L697.157,367.098L698.391,366.915L701.409,368.195L701.961,365.14L703.941,365.427L705.402,363.914L704.493,362.453L707.057,361.958L707.35,358.491L711.667,359.638L713.614,355.365L716.276,355.886L716.276,355.886L717.445,355.209L714.621,352.476L712.705,349.849L711.991,347.223L711.147,347.431L708.68,345.69L703.876,345.586L702.416,345.04L701.474,343.248L700.338,343.014L699.559,341.197L699.429,336.761L699.721,329.922L699.397,327.929L703.032,326.532L707.382,327.179L706.311,325.963L708.778,321.956L710.823,320.483L712.089,320.69L713.063,319.528L714.913,319.424L715.27,318.237L717.088,318.701L719.36,317.488L720.139,314.469L722.054,312.612L725.073,311.813L723.06,308.849L723.288,307.356L720.236,306.377L718.581,305.296L720.204,304.704L720.528,303.186L718.938,302.003L719.262,298.917L720.366,298.378L725.3,299.688L727.377,298.223L726.858,297.273L730.072,292.523L730.299,290.419L731.792,290.675L733.87,292.369L740.426,293.421L742.958,295.192L745.036,293.447L742.212,293.678L743.121,292.523L746.399,291.727L743.997,289.008L744.062,286.83L742.991,286.599L741.076,284.114L739.94,280.581L741.465,278.279L742.731,277.997L745.263,275.799L746.854,276.463L751.95,276.719L753.573,277.537L754.092,276.003L753.443,272.426L755.001,268.801L753.93,267.423L754.806,266.225L752.924,266.021L750.262,264.211L753.378,263.038L753.768,260.618L754.677,260.567L755.78,258.378L759.059,258.072L760,257.131L757.598,256.291L757.793,255.045L752.404,252.858L751.041,251.079L748.347,251.079L747.86,250.393Z" fill="#d1e7dd" opacity="0.3" transform="translate(5, 8)" />
  
  <!-- 填充与主轮廓 -->
  <path d="M747.503,249.301L744.452,243.565L745.588,242.323L743.478,240.853L742.471,238.927L743.932,238.597L741.433,236.977L741.952,236.217L739.842,235.939L737.018,234.268L735.46,231.132L736.077,229.666L737.473,229.944L740.264,227.695L741.725,228.099L737.473,223.629L734.713,222.721L733.35,220.098L731.5,219.644L730.104,218.258L727.507,217.527L730.461,214.857L729.52,211.735L734.519,210.351L737.635,210.603L735.395,206.656L734.259,206.756L731.889,204.42L729.617,204.093L727.897,202.787L727.67,201.557L725.884,200.353L726.339,199.6L723.19,198.597L719.522,196.366L719.587,195.238L714.166,193.71L713.095,191.681L710.368,190.279L709.232,190.43L710.693,187.077L709.167,185.177L705.629,182.779L706.343,181.53L705.694,179.757L703.714,177.661L700.955,177.487L697.092,179.682L696.118,180.831L694.073,181.38L692.807,179.183L685.828,177.212L686.413,176.115L682.615,172.252L680.148,171.828L675.279,170.21L671.254,172.526L670.183,174.17L665.671,171.778L661.775,171.206L659.471,170.11L659.114,168.89L657.101,167.372L656.517,165.979L655.154,166.228L649.181,162.573L646.779,163.194L645.545,162.474L645.221,160.213L646.974,158.699L646.779,156.366L647.818,154.729L646.519,153.737L643.727,155.349L641.877,154.803L638.015,150.59L636.067,149.797L631.003,149.153L629.737,150.391L627.14,150.144L625.615,148.806L623.407,147.94L622.596,149.178L621.168,148.658L620.746,146.975L619.285,147.717L615.163,145.812L615.844,145.391L614.286,142.695L612.046,143.858L611.04,139.878L606.983,138.841L604.353,136.965L602.957,137.187L601.756,135.829L599.744,136.397L598.446,138.545L599.549,140.397L603.282,141.707L605.587,145.539L607.015,145.861L606.788,147.816L608.021,151.457L605.035,150.961L604.548,149.797L602.146,148.163L601.01,148.237L598.478,146.554L596.271,146.257L589.259,143.66L585.624,141.534L584.001,141.262L580.43,139.483L579.391,138.149L576.535,136.89L573.549,134.374L572.12,130.897L569.426,131.316L567.414,128.089L565.466,127.079L564.752,125.307L561.019,122.798L557.383,121.593L553.131,118.227L549.301,115.894L549.463,114.618L551.346,112.999L548.554,111.699L543.133,111.111L540.569,109.812L539.693,108.317L536.089,107.043L536.025,105.942L532.162,105.893L531.48,107.46L530.149,108.17L527.845,110.792L525.248,111.674L525.864,112.606L523.787,114.152L520.736,112.803L517.1,112.95L515.542,111.724L515.769,110.669L514.114,110.375L513.205,108.905L509.667,108.317L507.784,109.027L508.141,110.865L507.557,112.386L505.382,114.741L505.739,116.753L501.811,118.89L497.819,121.716L496.585,120.143L494.508,119.209L493.469,117.883L486.425,115.82L483.958,114.152L477.239,112.41L476.071,109.91L470.909,107.705L466.884,106.431L464.45,104.253L461.431,102.736L459.84,103.054L458.574,101.635L456.887,101.782L451.92,100.291L447.733,99.924L443.448,100.046L441.208,99.484L438.287,100.022L440.916,102.981L438.676,105.305L438.06,108.268L438.449,109.567L437.053,112.803L437.151,115.33L439.423,117.367L439.942,119.16L439.618,121.372L440.299,123.044L441.5,123.339L440.754,126.144L443.318,127.719L442.766,128.704L443.221,131.834L438.222,133.757L433.775,132.573L432.217,131.587L429.425,131.119L430.204,132.475L428.029,134.053L429.75,135.36L428.711,136.594L424.816,136.52L422.706,137.68L424.881,138.964L424.361,140.916L420.596,144.402L421.245,146.975L422.122,147.569L422.641,151.036L411.994,148.534L407.515,148.559L405.275,150.193L403.489,153.514L404.074,154.63L401.509,155.473L400.893,154.332L399.27,155.299L393.329,153.291L391.057,154.034L387.941,152.225L384.338,150.664L384.013,149.5L382.098,147.866L379.826,148.014L378.982,145.02L375.768,144.402L373.009,143.215L371.971,142.078L370.283,142.695L366.939,145.292L365.706,145.069L362.2,147.618L360.577,146.579L358.889,147.791L358.11,146.777L356.39,147.346L351.521,146.356L348.534,147.197L346.976,145.737L345.938,145.886L344.639,143.165L342.302,142.498L341.328,141.188L338.699,141.954L337.271,141.089L333.505,140.496L328.766,141.311L327.565,142.424L325.001,142.844L317.632,142.77L312.893,143.709L311.757,144.624L309.972,143.907L309.972,140.718L309.128,139.705L301.694,122.97L296.987,123.118L280.757,124.963L279.621,125.479L276.116,125.184L271.636,123.609L270.24,122.527L269.331,120.61L270.046,119.897L276.083,119.627L276.083,117.441L273.454,117.441L267.903,114.446L253.361,114.912L243.915,115.943L242,114.888L238.916,114.471L239.922,108.048L238.202,105.672L236.417,104.767L236.969,102.002L235.54,101L231.742,102.736L228.334,102.907L226.257,101.513L223.627,102.027L222.459,103.152L217.135,103.25L211.52,104.669L205.547,104.595L202.593,105.207L200.97,107.092L200.97,108.219L198.406,108.439L198.698,109.91L196.815,110.473L190.68,110.351L187.207,111.331L185.909,112.533L182.5,112.386L175.002,114.103L170.49,115.771L170.425,116.557L166.562,117.171L160.687,117.514L159.973,118.227L150.495,120.192L147.606,120.29L139.815,123.831L136.861,123.511L134.005,124.643L123.682,126.538L122.514,126.39L118.781,127.35L109.562,128.483L106.154,127.621L104.012,128.138L105.407,129.69L103.33,130.971L103.46,131.834L100.928,131.883L99.078,133.584L95.799,133.831L95.896,135.657L93.884,137.137L89.989,137.754L87.976,136.718L84.47,137.261L78.271,137.113L77.264,137.977L77.264,141.089L78.206,142.078L80.835,142.251L78.628,145.218L86.158,150.614L89.956,150.862L90.443,147.346L92.553,146.752L99.37,146.306L98.591,152.25L98.753,177.362L101.902,177.886L102.291,178.809L105.31,179.133L112.354,181.68L114.594,183.528L116.411,184.028L117.872,185.527L116.996,187.903L119.43,188.478L121.865,190.68L125.111,189.879L127.935,190.78L129.331,192.257L130.045,195.463L131.246,197.118L131.181,198.773L134.329,201.432L134.135,205.022L138.841,207.234L139.166,210.326L140.075,211.484L139.426,213.623L140.075,215.209L135.465,215.335L133.615,214.529L131.116,215.461L130.759,216.998L126.799,217.577L126.02,219.568L123.228,220.426L120.079,220.022L116.379,220.325L111.348,225.043L109.952,225.043L109.692,228.731L111.153,230.55L109.367,231.208L108.588,233.838L109.887,234.015L109.432,235.888L110.439,237.686L114.107,237.711L115.178,239.155L119.073,239.028L124.689,240.118L125.955,240.65L126.182,243.54L125.565,245.214L126.799,245.696L125.468,251.511L127.902,252.807L126.799,256.011L129.136,256.978L128.941,259.931L130.661,262.478L128.357,263.905L122.968,262.936L120.014,267.041L116.184,267.678L114.366,266.684L112.289,264.007L106.121,261.459L103.687,261.892L99.565,260.771L96.578,261.611L93.722,261.51L88.528,260.16L83.854,260.109L81.809,258.683L78.238,257.614L79.05,255.96L74.44,255.096L73.661,253.977L71.551,253.875L72.85,254.943L72.428,257.309L71.259,259.701L68.468,261.153L68.273,265.001L66.845,264.389L61.878,264.312L59.087,264.669L56.165,263.65L54.964,263.752L50.582,266.556L43.7,267.398L40.682,266.199L40,267.678L41.591,268.98L41.234,272.911L44.48,273.652L47.92,275.236L47.693,276.105L51.556,275.978L53.179,276.566L55.97,276.514L59.703,275.85L60.937,276.566L59.119,279.148L59.931,280.504L58.048,281.656L58.145,286.343L56.944,287.111L59.022,289.649L58.275,290.65L56.198,290.598L55.548,292.548L56.62,294.833L57.723,294.525L58.989,295.834L57.626,296.579L54.802,299.329L53.374,298.84L51.329,299.534L49.641,301.051L44.869,302.234L45.875,303.829L44.739,305.528L46.687,306.712L44.285,307.742L42.402,309.468L43.408,309.957L46.038,314.211L49.219,315.011L49.933,315.759L49.803,318.211L48.212,324.489L49.186,326.791L53.99,327.179L55.938,325.497L58.048,326.351L60.19,325.394L61.943,326.428L61.618,328.214L62.884,328.343L64.41,331.242L62.203,331.967L60.807,334.765L57.269,335.387L56.912,339.147L58.113,340.133L60.775,340.834L59.671,343.69L61.618,345.04L62.073,349.953L61.878,351.799L60.807,353.074L61.911,354.506L63.923,355.027L64.345,356.85L62.17,358.491L62.852,360.081L61.716,365.036L60.288,366.028L58.73,365.923L58.567,367.385L56.198,367.02L53.244,368.847L53.276,370.911L52.14,371.355L54.769,374.492L54.932,376.088L56.555,376.768L57.236,378.102L60.58,381.061L62.787,380.877L66.098,384.1L68.338,384.44L66.228,386.695L66.488,387.613L70.513,388.426L70.383,389.606L71.811,390.42L70.545,394.41L71.941,397.485L75.771,398.983L76.063,401.429L77.037,402.376L82.977,403.587L84.373,404.323L88.918,410.303L90.508,411.937L92.748,412.939L97.227,412.702L101.025,414.575L104.433,417.161L108.491,419.511L110.374,419.167L113.717,420.646L117.904,420.33L118.911,422.285L120.274,420.33L124.169,420.567L126.052,421.465L127.87,420.699L131.862,422.866L132.577,420.937L133.972,421.069L136.017,419.194L137.868,419.22L140.497,420.964L143.581,421.36L147.054,423.183L150.202,420.911L152.312,421.386L153.319,423.5L154.812,424.69L159.097,425.986L160.2,427.229L163.738,428.287L166.205,429.716L168.315,429.399L169.289,431.808L171.334,431.516L174.45,436.126L177.761,435.649L178.8,434.006L182.143,434.033L184.448,432.682L187.597,433.715L188.765,436.099L186.98,437.107L187.921,437.823L187.24,439.599L190.226,441.377L193.115,439.759L194.9,440.448L195.517,439.069L198.438,439.944L200.97,439.122L202.301,440.103L206.716,440.793L207.073,440.316L210.221,441.377L211.974,440.793L212.948,439.042L216.648,440.21L218.369,441.43L220.122,440.899L222.459,442.571L225.965,441.456L227.588,441.695L229.503,440.316L230.509,440.501L230.736,442.306L233.138,446.368L234.112,445.81L237.877,445.385L238.786,444.031L240.572,444.828L242.097,444.456L243.201,446.341L245.311,446.713L245.733,448.786L247.323,449.264L249.79,451.683L251.186,449.955L253.88,450.062L254.594,452.774L255.925,452.827L256.704,454.29L262.093,451.816L263.813,449.238L267.514,448.892L269.072,449.689L272.707,450.407L274.33,452.508L274.882,454.796L277.382,454.955L280.076,453.811L281.05,455.142L283.776,455.754L284.782,454.61L287.022,454.955L289.424,456.499L291.502,455.434L292.54,452.162L295.397,452.109L297.572,452.88L297.669,451.976L300.623,451.231L301.759,451.71L302.993,448.042L305.103,449.716L306.596,449.211L306.369,447.776L309.712,447.962L313.347,445.598L314.549,443.872L315.814,445.359L321.041,448.414L322.339,451.63L323.67,451.843L324.709,453.732L327.078,454.929L329.058,454.477L330.259,457.458L331.947,458.07L334.252,457.085L337.887,458.549L338.829,459.535L338.829,459.535L339.186,459.082L342.984,459.002L346.392,458.443L346.911,460.201L348.664,461.027L345.061,461.853L339.965,462.386L339.056,464.625L340.452,465.718L345.808,463.692L346.165,462.412L347.593,462.466L347.496,464.225L349.119,469.107L349.119,469.107L351.488,471.536L354.215,471.403L354.247,469.934L356.292,469.774L358.078,471.056L358.824,476.105L357.071,477.575L358.824,478.965L355.741,479.286L353.89,481.507L354.28,483.113L356.422,483.648L356.292,484.799L358.954,489.809L360.188,490.131L361.843,492.517L363.693,493.08L365.446,491.632L368.303,490.828L375.963,492.598L378.3,496.112L379.858,494.422L379.469,493.268L382.26,489.005L386.708,489.032L387,490.56L390.992,494.1L394.725,495.066L395.407,495.897L395.829,500.301L398.523,500.516L399.27,497.938L400.503,497.401L400.86,495.307L399.302,493.429L399.757,492.544L396.965,491.203L397.225,488.013L398.263,487.746L398.88,485.87L397.517,484.424L399.172,484.344L400.925,483.059L402.775,483.594L408.099,483.594L409.073,487.504L410.533,490.104L412.286,491.498L414.948,492.571L417.512,494.556L420.012,493.214L422.414,494.878L424.037,493.992L425.66,495.871L428.614,496.461L429.23,495.253L431.86,494.1L429.685,490.318L427.932,488.898L427.64,486.728L429.458,486.245L430.302,484.933L428.484,482.791L427.283,482.31L426.731,479.313L425.66,478.671L431.016,478.965L433.353,481.212L433.061,479.554L434.716,478.644L437.216,480.089L438.482,478.912L436.891,476.826L440.624,475.784L441.793,476.8L446.986,477.04L449.226,477.628L450.2,476.452L451.595,477.12L452.602,475.998L450.914,474.608L451.855,473.619L453.9,475.57L456.529,475.33L455.718,474.261L456.822,472.498L454.582,471.99L454.192,469.747L456.075,463.825L457.244,463.372L459.84,464.972L462.178,463.745L462.664,462.359L460.717,456.845L458.25,456.126L460.749,452.933L457.925,452.269L457.795,450.779L459.159,449.663L460.003,450.567L461.983,449.052L463.93,448.44L464.709,450.115L466.754,451.391L468.767,451.072L475.616,452.109L476.33,451.418L478.797,451.577L477.207,451.178L472.792,448.467L472.305,447.006L468.929,446.607L468.475,445.731L465.716,444.881L462.6,442.226L462.892,441.722L460.619,438.3L460.977,435.702L460.1,432.655L458.607,432.152L460.068,428.949L463.379,427.917L467.891,427.255L466.625,426.065L468.864,424.769L467.533,421.518L465.943,421.016L466.527,419.405L465.975,417.794L469.189,415.92L472.305,412.755L473.084,408.906L475.908,408.695L480.031,405.061L475.843,403.85L473.246,402.35L469.384,402.113L467.241,399.22L467.858,396.249L463.995,395.987L462.178,394.752L463.216,390.708L462.307,388.268L462.567,386.878L461.691,384.755L459.938,383.576L459.873,382.292L461.269,381.951L461.106,379.804L464.547,379.909L466.819,378.6L467.793,379.071L471.981,377.658L473.441,378.207L475.064,376.271L474.675,374.048L477.304,372.035L475.356,367.281L480.68,365.61L481.881,364.331L481.881,364.331L482.27,363.47L482.27,363.47L482.985,363.027L487.626,362.923L490.58,363.914L494.475,367.489L498.143,367.489L501.325,368.325L503.856,369.526L506.583,369.579L511.128,368.978L514.049,369.474L513.887,371.172L515.542,372.427L516.191,374.937L514.86,376.245L515.412,378.547L514.438,380.956L515.899,382.239L517.392,381.951L518.95,384.702L519.015,386.144L520.314,385.882L521.417,387.324L523.69,388.111L525.15,390.682L527.585,392.546L525.507,393.071L525.8,394.516L527.358,395.304L527.13,397.747L528.721,399.114L531.22,400.14L532.097,401.481L531.772,405.219L534.077,407.141L533.006,412.069L535.245,412.412L535.375,415.102L538.232,418.718L541.575,420.409L543.945,420.594L544.172,421.492L546.444,422.39L546.964,421.677L550.437,422.496L552.255,424.241L556.02,424.796L556.994,427.123L558.065,427.599L558.682,430.669L559.85,433.079L564.33,432.708L565.498,431.94L569.556,433.927L575.107,435.145L576.73,437.77L579.424,437.69L579.748,438.539L582.605,438.963L583.514,440.767L585.754,438.804L586.078,435.834L587.409,432.814L585.948,430.643L587.214,428.949L588.123,429.796L590.525,429.743L591.921,427.017L591.921,424.267L595.621,427.361L596.076,429.399L600.393,430.405L599.939,432.152L601.789,432.152L604.873,435.251L604.548,437.08L605.717,441.191L603.022,444.111L604.158,445.624L608.378,446.129L609.352,447.404L610.488,445.093L610.553,442.677L612.014,440.236L616.266,441.456L619.415,439.52L618.311,442.545L620.518,440.793L622.141,442.757L623.148,442.757L625.615,446.049L627.108,449.344L630.159,450.195L632.399,451.63L633.048,450.567L633.243,446.899L633.86,446.262L635.807,447.218L635.905,445.359L634.768,443.633L639.021,445.438L642.332,445.173L645.156,446.023L647.493,447.723L648.791,446.634L650.934,446.288L652.687,444.562L655.154,443.394L657.653,444.668L659.373,444.509L662.847,441.112L663.593,435.887L662.879,434.271L660.477,432.311L657.62,431.411L658.172,429.187L657.88,427.229L660.769,427.493L660.12,426.144L660.802,424.478L658.789,423.685L658.659,422.126L660.023,421.386L657.166,416.395L657.653,414.997L659.341,414.205L660.704,412.465L662.554,413.15L666.742,412.834L671.189,418.586L671.838,418.349L671.449,415.736L672.325,414.786L676.772,414.707L678.233,416.501L680.472,417.847L684.465,421.333L685.926,419.511L685.536,418.085L688.49,415.445L689.853,411.911L686.802,410.988L685.309,409.644L686.056,406.43L687.744,403.797L691.606,402.639L692.061,398.536L691.606,398.273L690.535,400.035L688.945,400.587L683.881,400.193L683.329,396.88L683.589,395.12L681.933,392.651L681.868,391.128L677.519,389.633L673.656,390.813L673.461,392.126L671.384,392.677L667.034,391.995L663.561,390.525L662.554,391.365L659.86,391.89L660.412,390.551L659.665,388.741L660.899,387.613L661.126,384.938L659.146,383.287L659.179,382.161L653.952,381.166L652.297,379.437L650.804,379.673L649.278,376.768L647.266,375.277L647.655,374.492L644.799,372.035L644.247,369.553L643.111,369.239L640.871,365.767L638.664,364.54L641.033,360.941L640.449,360.263L641.683,357.24L644.149,356.433L645.545,354.194L648.499,353.751L650.382,354.22L653.952,356.954L656.257,356.615L660.477,357.058L661.288,356.225L663.463,356.824L663.139,358.23L665.249,359.273L668.235,359.82L668.332,361.071L670.572,360.889L673.104,361.958L676.48,362.427L677.032,363.653L679.466,362.792L683.783,364.54L686.607,368.142L688.133,367.672L688.945,369.579L689.886,369.735L691.347,367.489L692.613,367.02L695.177,367.411L695.956,365.897L697.157,367.098L698.391,366.915L701.409,368.195L701.961,365.14L703.941,365.427L705.402,363.914L704.493,362.453L707.057,361.958L707.35,358.491L711.667,359.638L713.614,355.365L716.276,355.886L716.276,355.886L717.445,355.209L714.621,352.476L712.705,349.849L711.991,347.223L711.147,347.431L708.68,345.69L703.876,345.586L702.416,345.04L701.474,343.248L700.338,343.014L699.559,341.197L699.429,336.761L699.721,329.922L699.397,327.929L703.032,326.532L707.382,327.179L706.311,325.963L708.778,321.956L710.823,320.483L712.089,320.69L713.063,319.528L714.913,319.424L715.27,318.237L717.088,318.701L719.36,317.488L720.139,314.469L722.054,312.612L725.073,311.813L723.06,308.849L723.288,307.356L720.236,306.377L718.581,305.296L720.204,304.704L720.528,303.186L718.938,302.003L719.262,298.917L720.366,298.378L725.3,299.688L727.377,298.223L726.858,297.273L730.072,292.523L730.299,290.419L731.792,290.675L733.87,292.369L740.426,293.421L742.958,295.192L745.036,293.447L742.212,293.678L743.121,292.523L746.399,291.727L743.997,289.008L744.062,286.83L742.991,286.599L741.076,284.114L739.94,280.581L741.465,278.279L742.731,277.997L745.263,275.799L746.854,276.463L751.95,276.719L753.573,277.537L754.092,276.003L753.443,272.426L755.001,268.801L753.93,267.423L754.806,266.225L752.924,266.021L750.262,264.211L753.378,263.038L753.768,260.618L754.677,260.567L755.78,258.378L759.059,258.072L760,257.131L757.598,256.291L757.793,255.045L752.404,252.858L751.041,251.079L748.347,251.079L747.86,250.393Z" fill="#e6f4ea" stroke="#137333" stroke-width="4" stroke-linejoin="round" stroke-linecap="round" />
  
  <!-- 内发光描边 -->
  <path d="M747.503,249.301L744.452,243.565L745.588,242.323L743.478,240.853L742.471,238.927L743.932,238.597L741.433,236.977L741.952,236.217L739.842,235.939L737.018,234.268L735.46,231.132L736.077,229.666L737.473,229.944L740.264,227.695L741.725,228.099L737.473,223.629L734.713,222.721L733.35,220.098L731.5,219.644L730.104,218.258L727.507,217.527L730.461,214.857L729.52,211.735L734.519,210.351L737.635,210.603L735.395,206.656L734.259,206.756L731.889,204.42L729.617,204.093L727.897,202.787L727.67,201.557L725.884,200.353L726.339,199.6L723.19,198.597L719.522,196.366L719.587,195.238L714.166,193.71L713.095,191.681L710.368,190.279L709.232,190.43L710.693,187.077L709.167,185.177L705.629,182.779L706.343,181.53L705.694,179.757L703.714,177.661L700.955,177.487L697.092,179.682L696.118,180.831L694.073,181.38L692.807,179.183L685.828,177.212L686.413,176.115L682.615,172.252L680.148,171.828L675.279,170.21L671.254,172.526L670.183,174.17L665.671,171.778L661.775,171.206L659.471,170.11L659.114,168.89L657.101,167.372L656.517,165.979L655.154,166.228L649.181,162.573L646.779,163.194L645.545,162.474L645.221,160.213L646.974,158.699L646.779,156.366L647.818,154.729L646.519,153.737L643.727,155.349L641.877,154.803L638.015,150.59L636.067,149.797L631.003,149.153L629.737,150.391L627.14,150.144L625.615,148.806L623.407,147.94L622.596,149.178L621.168,148.658L620.746,146.975L619.285,147.717L615.163,145.812L615.844,145.391L614.286,142.695L612.046,143.858L611.04,139.878L606.983,138.841L604.353,136.965L602.957,137.187L601.756,135.829L599.744,136.397L598.446,138.545L599.549,140.397L603.282,141.707L605.587,145.539L607.015,145.861L606.788,147.816L608.021,151.457L605.035,150.961L604.548,149.797L602.146,148.163L601.01,148.237L598.478,146.554L596.271,146.257L589.259,143.66L585.624,141.534L584.001,141.262L580.43,139.483L579.391,138.149L576.535,136.89L573.549,134.374L572.12,130.897L569.426,131.316L567.414,128.089L565.466,127.079L564.752,125.307L561.019,122.798L557.383,121.593L553.131,118.227L549.301,115.894L549.463,114.618L551.346,112.999L548.554,111.699L543.133,111.111L540.569,109.812L539.693,108.317L536.089,107.043L536.025,105.942L532.162,105.893L531.48,107.46L530.149,108.17L527.845,110.792L525.248,111.674L525.864,112.606L523.787,114.152L520.736,112.803L517.1,112.95L515.542,111.724L515.769,110.669L514.114,110.375L513.205,108.905L509.667,108.317L507.784,109.027L508.141,110.865L507.557,112.386L505.382,114.741L505.739,116.753L501.811,118.89L497.819,121.716L496.585,120.143L494.508,119.209L493.469,117.883L486.425,115.82L483.958,114.152L477.239,112.41L476.071,109.91L470.909,107.705L466.884,106.431L464.45,104.253L461.431,102.736L459.84,103.054L458.574,101.635L456.887,101.782L451.92,100.291L447.733,99.924L443.448,100.046L441.208,99.484L438.287,100.022L440.916,102.981L438.676,105.305L438.06,108.268L438.449,109.567L437.053,112.803L437.151,115.33L439.423,117.367L439.942,119.16L439.618,121.372L440.299,123.044L441.5,123.339L440.754,126.144L443.318,127.719L442.766,128.704L443.221,131.834L438.222,133.757L433.775,132.573L432.217,131.587L429.425,131.119L430.204,132.475L428.029,134.053L429.75,135.36L428.711,136.594L424.816,136.52L422.706,137.68L424.881,138.964L424.361,140.916L420.596,144.402L421.245,146.975L422.122,147.569L422.641,151.036L411.994,148.534L407.515,148.559L405.275,150.193L403.489,153.514L404.074,154.63L401.509,155.473L400.893,154.332L399.27,155.299L393.329,153.291L391.057,154.034L387.941,152.225L384.338,150.664L384.013,149.5L382.098,147.866L379.826,148.014L378.982,145.02L375.768,144.402L373.009,143.215L371.971,142.078L370.283,142.695L366.939,145.292L365.706,145.069L362.2,147.618L360.577,146.579L358.889,147.791L358.11,146.777L356.39,147.346L351.521,146.356L348.534,147.197L346.976,145.737L345.938,145.886L344.639,143.165L342.302,142.498L341.328,141.188L338.699,141.954L337.271,141.089L333.505,140.496L328.766,141.311L327.565,142.424L325.001,142.844L317.632,142.77L312.893,143.709L311.757,144.624L309.972,143.907L309.972,140.718L309.128,139.705L301.694,122.97L296.987,123.118L280.757,124.963L279.621,125.479L276.116,125.184L271.636,123.609L270.24,122.527L269.331,120.61L270.046,119.897L276.083,119.627L276.083,117.441L273.454,117.441L267.903,114.446L253.361,114.912L243.915,115.943L242,114.888L238.916,114.471L239.922,108.048L238.202,105.672L236.417,104.767L236.969,102.002L235.54,101L231.742,102.736L228.334,102.907L226.257,101.513L223.627,102.027L222.459,103.152L217.135,103.25L211.52,104.669L205.547,104.595L202.593,105.207L200.97,107.092L200.97,108.219L198.406,108.439L198.698,109.91L196.815,110.473L190.68,110.351L187.207,111.331L185.909,112.533L182.5,112.386L175.002,114.103L170.49,115.771L170.425,116.557L166.562,117.171L160.687,117.514L159.973,118.227L150.495,120.192L147.606,120.29L139.815,123.831L136.861,123.511L134.005,124.643L123.682,126.538L122.514,126.39L118.781,127.35L109.562,128.483L106.154,127.621L104.012,128.138L105.407,129.69L103.33,130.971L103.46,131.834L100.928,131.883L99.078,133.584L95.799,133.831L95.896,135.657L93.884,137.137L89.989,137.754L87.976,136.718L84.47,137.261L78.271,137.113L77.264,137.977L77.264,141.089L78.206,142.078L80.835,142.251L78.628,145.218L86.158,150.614L89.956,150.862L90.443,147.346L92.553,146.752L99.37,146.306L98.591,152.25L98.753,177.362L101.902,177.886L102.291,178.809L105.31,179.133L112.354,181.68L114.594,183.528L116.411,184.028L117.872,185.527L116.996,187.903L119.43,188.478L121.865,190.68L125.111,189.879L127.935,190.78L129.331,192.257L130.045,195.463L131.246,197.118L131.181,198.773L134.329,201.432L134.135,205.022L138.841,207.234L139.166,210.326L140.075,211.484L139.426,213.623L140.075,215.209L135.465,215.335L133.615,214.529L131.116,215.461L130.759,216.998L126.799,217.577L126.02,219.568L123.228,220.426L120.079,220.022L116.379,220.325L111.348,225.043L109.952,225.043L109.692,228.731L111.153,230.55L109.367,231.208L108.588,233.838L109.887,234.015L109.432,235.888L110.439,237.686L114.107,237.711L115.178,239.155L119.073,239.028L124.689,240.118L125.955,240.65L126.182,243.54L125.565,245.214L126.799,245.696L125.468,251.511L127.902,252.807L126.799,256.011L129.136,256.978L128.941,259.931L130.661,262.478L128.357,263.905L122.968,262.936L120.014,267.041L116.184,267.678L114.366,266.684L112.289,264.007L106.121,261.459L103.687,261.892L99.565,260.771L96.578,261.611L93.722,261.51L88.528,260.16L83.854,260.109L81.809,258.683L78.238,257.614L79.05,255.96L74.44,255.096L73.661,253.977L71.551,253.875L72.85,254.943L72.428,257.309L71.259,259.701L68.468,261.153L68.273,265.001L66.845,264.389L61.878,264.312L59.087,264.669L56.165,263.65L54.964,263.752L50.582,266.556L43.7,267.398L40.682,266.199L40,267.678L41.591,268.98L41.234,272.911L44.48,273.652L47.92,275.236L47.693,276.105L51.556,275.978L53.179,276.566L55.97,276.514L59.703,275.85L60.937,276.566L59.119,279.148L59.931,280.504L58.048,281.656L58.145,286.343L56.944,287.111L59.022,289.649L58.275,290.65L56.198,290.598L55.548,292.548L56.62,294.833L57.723,294.525L58.989,295.834L57.626,296.579L54.802,299.329L53.374,298.84L51.329,299.534L49.641,301.051L44.869,302.234L45.875,303.829L44.739,305.528L46.687,306.712L44.285,307.742L42.402,309.468L43.408,309.957L46.038,314.211L49.219,315.011L49.933,315.759L49.803,318.211L48.212,324.489L49.186,326.791L53.99,327.179L55.938,325.497L58.048,326.351L60.19,325.394L61.943,326.428L61.618,328.214L62.884,328.343L64.41,331.242L62.203,331.967L60.807,334.765L57.269,335.387L56.912,339.147L58.113,340.133L60.775,340.834L59.671,343.69L61.618,345.04L62.073,349.953L61.878,351.799L60.807,353.074L61.911,354.506L63.923,355.027L64.345,356.85L62.17,358.491L62.852,360.081L61.716,365.036L60.288,366.028L58.73,365.923L58.567,367.385L56.198,367.02L53.244,368.847L53.276,370.911L52.14,371.355L54.769,374.492L54.932,376.088L56.555,376.768L57.236,378.102L60.58,381.061L62.787,380.877L66.098,384.1L68.338,384.44L66.228,386.695L66.488,387.613L70.513,388.426L70.383,389.606L71.811,390.42L70.545,394.41L71.941,397.485L75.771,398.983L76.063,401.429L77.037,402.376L82.977,403.587L84.373,404.323L88.918,410.303L90.508,411.937L92.748,412.939L97.227,412.702L101.025,414.575L104.433,417.161L108.491,419.511L110.374,419.167L113.717,420.646L117.904,420.33L118.911,422.285L120.274,420.33L124.169,420.567L126.052,421.465L127.87,420.699L131.862,422.866L132.577,420.937L133.972,421.069L136.017,419.194L137.868,419.22L140.497,420.964L143.581,421.36L147.054,423.183L150.202,420.911L152.312,421.386L153.319,423.5L154.812,424.69L159.097,425.986L160.2,427.229L163.738,428.287L166.205,429.716L168.315,429.399L169.289,431.808L171.334,431.516L174.45,436.126L177.761,435.649L178.8,434.006L182.143,434.033L184.448,432.682L187.597,433.715L188.765,436.099L186.98,437.107L187.921,437.823L187.24,439.599L190.226,441.377L193.115,439.759L194.9,440.448L195.517,439.069L198.438,439.944L200.97,439.122L202.301,440.103L206.716,440.793L207.073,440.316L210.221,441.377L211.974,440.793L212.948,439.042L216.648,440.21L218.369,441.43L220.122,440.899L222.459,442.571L225.965,441.456L227.588,441.695L229.503,440.316L230.509,440.501L230.736,442.306L233.138,446.368L234.112,445.81L237.877,445.385L238.786,444.031L240.572,444.828L242.097,444.456L243.201,446.341L245.311,446.713L245.733,448.786L247.323,449.264L249.79,451.683L251.186,449.955L253.88,450.062L254.594,452.774L255.925,452.827L256.704,454.29L262.093,451.816L263.813,449.238L267.514,448.892L269.072,449.689L272.707,450.407L274.33,452.508L274.882,454.796L277.382,454.955L280.076,453.811L281.05,455.142L283.776,455.754L284.782,454.61L287.022,454.955L289.424,456.499L291.502,455.434L292.54,452.162L295.397,452.109L297.572,452.88L297.669,451.976L300.623,451.231L301.759,451.71L302.993,448.042L305.103,449.716L306.596,449.211L306.369,447.776L309.712,447.962L313.347,445.598L314.549,443.872L315.814,445.359L321.041,448.414L322.339,451.63L323.67,451.843L324.709,453.732L327.078,454.929L329.058,454.477L330.259,457.458L331.947,458.07L334.252,457.085L337.887,458.549L338.829,459.535L338.829,459.535L339.186,459.082L342.984,459.002L346.392,458.443L346.911,460.201L348.664,461.027L345.061,461.853L339.965,462.386L339.056,464.625L340.452,465.718L345.808,463.692L346.165,462.412L347.593,462.466L347.496,464.225L349.119,469.107L349.119,469.107L351.488,471.536L354.215,471.403L354.247,469.934L356.292,469.774L358.078,471.056L358.824,476.105L357.071,477.575L358.824,478.965L355.741,479.286L353.89,481.507L354.28,483.113L356.422,483.648L356.292,484.799L358.954,489.809L360.188,490.131L361.843,492.517L363.693,493.08L365.446,491.632L368.303,490.828L375.963,492.598L378.3,496.112L379.858,494.422L379.469,493.268L382.26,489.005L386.708,489.032L387,490.56L390.992,494.1L394.725,495.066L395.407,495.897L395.829,500.301L398.523,500.516L399.27,497.938L400.503,497.401L400.86,495.307L399.302,493.429L399.757,492.544L396.965,491.203L397.225,488.013L398.263,487.746L398.88,485.87L397.517,484.424L399.172,484.344L400.925,483.059L402.775,483.594L408.099,483.594L409.073,487.504L410.533,490.104L412.286,491.498L414.948,492.571L417.512,494.556L420.012,493.214L422.414,494.878L424.037,493.992L425.66,495.871L428.614,496.461L429.23,495.253L431.86,494.1L429.685,490.318L427.932,488.898L427.64,486.728L429.458,486.245L430.302,484.933L428.484,482.791L427.283,482.31L426.731,479.313L425.66,478.671L431.016,478.965L433.353,481.212L433.061,479.554L434.716,478.644L437.216,480.089L438.482,478.912L436.891,476.826L440.624,475.784L441.793,476.8L446.986,477.04L449.226,477.628L450.2,476.452L451.595,477.12L452.602,475.998L450.914,474.608L451.855,473.619L453.9,475.57L456.529,475.33L455.718,474.261L456.822,472.498L454.582,471.99L454.192,469.747L456.075,463.825L457.244,463.372L459.84,464.972L462.178,463.745L462.664,462.359L460.717,456.845L458.25,456.126L460.749,452.933L457.925,452.269L457.795,450.779L459.159,449.663L460.003,450.567L461.983,449.052L463.93,448.44L464.709,450.115L466.754,451.391L468.767,451.072L475.616,452.109L476.33,451.418L478.797,451.577L477.207,451.178L472.792,448.467L472.305,447.006L468.929,446.607L468.475,445.731L465.716,444.881L462.6,442.226L462.892,441.722L460.619,438.3L460.977,435.702L460.1,432.655L458.607,432.152L460.068,428.949L463.379,427.917L467.891,427.255L466.625,426.065L468.864,424.769L467.533,421.518L465.943,421.016L466.527,419.405L465.975,417.794L469.189,415.92L472.305,412.755L473.084,408.906L475.908,408.695L480.031,405.061L475.843,403.85L473.246,402.35L469.384,402.113L467.241,399.22L467.858,396.249L463.995,395.987L462.178,394.752L463.216,390.708L462.307,388.268L462.567,386.878L461.691,384.755L459.938,383.576L459.873,382.292L461.269,381.951L461.106,379.804L464.547,379.909L466.819,378.6L467.793,379.071L471.981,377.658L473.441,378.207L475.064,376.271L474.675,374.048L477.304,372.035L475.356,367.281L480.68,365.61L481.881,364.331L481.881,364.331L482.27,363.47L482.27,363.47L482.985,363.027L487.626,362.923L490.58,363.914L494.475,367.489L498.143,367.489L501.325,368.325L503.856,369.526L506.583,369.579L511.128,368.978L514.049,369.474L513.887,371.172L515.542,372.427L516.191,374.937L514.86,376.245L515.412,378.547L514.438,380.956L515.899,382.239L517.392,381.951L518.95,384.702L519.015,386.144L520.314,385.882L521.417,387.324L523.69,388.111L525.15,390.682L527.585,392.546L525.507,393.071L525.8,394.516L527.358,395.304L527.13,397.747L528.721,399.114L531.22,400.14L532.097,401.481L531.772,405.219L534.077,407.141L533.006,412.069L535.245,412.412L535.375,415.102L538.232,418.718L541.575,420.409L543.945,420.594L544.172,421.492L546.444,422.39L546.964,421.677L550.437,422.496L552.255,424.241L556.02,424.796L556.994,427.123L558.065,427.599L558.682,430.669L559.85,433.079L564.33,432.708L565.498,431.94L569.556,433.927L575.107,435.145L576.73,437.77L579.424,437.69L579.748,438.539L582.605,438.963L583.514,440.767L585.754,438.804L586.078,435.834L587.409,432.814L585.948,430.643L587.214,428.949L588.123,429.796L590.525,429.743L591.921,427.017L591.921,424.267L595.621,427.361L596.076,429.399L600.393,430.405L599.939,432.152L601.789,432.152L604.873,435.251L604.548,437.08L605.717,441.191L603.022,444.111L604.158,445.624L608.378,446.129L609.352,447.404L610.488,445.093L610.553,442.677L612.014,440.236L616.266,441.456L619.415,439.52L618.311,442.545L620.518,440.793L622.141,442.757L623.148,442.757L625.615,446.049L627.108,449.344L630.159,450.195L632.399,451.63L633.048,450.567L633.243,446.899L633.86,446.262L635.807,447.218L635.905,445.359L634.768,443.633L639.021,445.438L642.332,445.173L645.156,446.023L647.493,447.723L648.791,446.634L650.934,446.288L652.687,444.562L655.154,443.394L657.653,444.668L659.373,444.509L662.847,441.112L663.593,435.887L662.879,434.271L660.477,432.311L657.62,431.411L658.172,429.187L657.88,427.229L660.769,427.493L660.12,426.144L660.802,424.478L658.789,423.685L658.659,422.126L660.023,421.386L657.166,416.395L657.653,414.997L659.341,414.205L660.704,412.465L662.554,413.15L666.742,412.834L671.189,418.586L671.838,418.349L671.449,415.736L672.325,414.786L676.772,414.707L678.233,416.501L680.472,417.847L684.465,421.333L685.926,419.511L685.536,418.085L688.49,415.445L689.853,411.911L686.802,410.988L685.309,409.644L686.056,406.43L687.744,403.797L691.606,402.639L692.061,398.536L691.606,398.273L690.535,400.035L688.945,400.587L683.881,400.193L683.329,396.88L683.589,395.12L681.933,392.651L681.868,391.128L677.519,389.633L673.656,390.813L673.461,392.126L671.384,392.677L667.034,391.995L663.561,390.525L662.554,391.365L659.86,391.89L660.412,390.551L659.665,388.741L660.899,387.613L661.126,384.938L659.146,383.287L659.179,382.161L653.952,381.166L652.297,379.437L650.804,379.673L649.278,376.768L647.266,375.277L647.655,374.492L644.799,372.035L644.247,369.553L643.111,369.239L640.871,365.767L638.664,364.54L641.033,360.941L640.449,360.263L641.683,357.24L644.149,356.433L645.545,354.194L648.499,353.751L650.382,354.22L653.952,356.954L656.257,356.615L660.477,357.058L661.288,356.225L663.463,356.824L663.139,358.23L665.249,359.273L668.235,359.82L668.332,361.071L670.572,360.889L673.104,361.958L676.48,362.427L677.032,363.653L679.466,362.792L683.783,364.54L686.607,368.142L688.133,367.672L688.945,369.579L689.886,369.735L691.347,367.489L692.613,367.02L695.177,367.411L695.956,365.897L697.157,367.098L698.391,366.915L701.409,368.195L701.961,365.14L703.941,365.427L705.402,363.914L704.493,362.453L707.057,361.958L707.35,358.491L711.667,359.638L713.614,355.365L716.276,355.886L716.276,355.886L717.445,355.209L714.621,352.476L712.705,349.849L711.991,347.223L711.147,347.431L708.68,345.69L703.876,345.586L702.416,345.04L701.474,343.248L700.338,343.014L699.559,341.197L699.429,336.761L699.721,329.922L699.397,327.929L703.032,326.532L707.382,327.179L706.311,325.963L708.778,321.956L710.823,320.483L712.089,320.69L713.063,319.528L714.913,319.424L715.27,318.237L717.088,318.701L719.36,317.488L720.139,314.469L722.054,312.612L725.073,311.813L723.06,308.849L723.288,307.356L720.236,306.377L718.581,305.296L720.204,304.704L720.528,303.186L718.938,302.003L719.262,298.917L720.366,298.378L725.3,299.688L727.377,298.223L726.858,297.273L730.072,292.523L730.299,290.419L731.792,290.675L733.87,292.369L740.426,293.421L742.958,295.192L745.036,293.447L742.212,293.678L743.121,292.523L746.399,291.727L743.997,289.008L744.062,286.83L742.991,286.599L741.076,284.114L739.94,280.581L741.465,278.279L742.731,277.997L745.263,275.799L746.854,276.463L751.95,276.719L753.573,277.537L754.092,276.003L753.443,272.426L755.001,268.801L753.93,267.423L754.806,266.225L752.924,266.021L750.262,264.211L753.378,263.038L753.768,260.618L754.677,260.567L755.78,258.378L759.059,258.072L760,257.131L757.598,256.291L757.793,255.045L752.404,252.858L751.041,251.079L748.347,251.079L747.86,250.393Z" fill="none" stroke="#2e7d32" stroke-width="1.5" stroke-linejoin="round" stroke-linecap="round" opacity="0.6" />
</svg>