<svg xmlns="http://www.w3.org/2000/svg" width="800" height="600" viewBox="0 0 800 600">
  <!-- 背景色，采用淡米黄色 -->
  <rect width="100%" height="100%" fill="#f5f2eb" />
  
  <!-- 阴影层 -->
  <path d="M562.617,326.443L564.163,322.969L567.41,326.263L570.889,321.472L571.121,318.119L568.724,313.81L562.849,310.161L567.719,308.905L563.158,302.389L561.225,296.595L564.395,284.061L564.549,278.457L572.28,273.809L575.218,265.174L570.348,265.591L567.951,262.377L574.213,261.96L581.866,255.417L577.769,254.644L577.46,252.148L582.33,253.039L589.752,250.246L591.53,242.82L600.575,241.455L604.131,239.614L606.76,241.514L610.007,237.834L611.63,232.969L610.47,230.418L599.261,226.743L590.68,220.343L585.191,221.765L580.552,219.928L584.186,213.948L578.31,211.521L570.502,202.53L559.061,199.397L552.799,194.08L546.305,193.194L543.831,196.561L537.801,195.97L535.327,197.979L530.148,198.275L521.644,196.797L511.13,193.785L501.157,191.836L495.978,188.588L485.541,184.634L482.139,184.221L473.094,180.328L463.895,173.312L478.661,164.477L484.691,154.297L486.546,137.904L492.421,123.182L498.297,119.432L508.501,107.021L523.113,95.271L525.354,84.586L524.813,81.027L520.561,78.286L513.681,76.42L511.207,74.38L506.955,63.545L503.245,60.984L502.626,57.609L504.559,53.073L504.636,47.9L501.466,41.219L497.678,40L489.175,43.02L484.15,42.961L478.97,40.755L473.172,47.435L469.306,49.178L467.606,53.713L453.922,51.271L438.538,54.992L440.471,66.806L439.156,69.543L434.904,71.408L427.56,69.951L424.777,67.388L421.685,68.67L415.5,77.236L413.181,84.586L414.341,87.095L411.016,91.824L406.069,93.693L399.729,99.303L402.435,105.793L391.999,114.103L391.844,120.838L389.061,123.417L390.143,125.996L384.886,132.857L387.592,138.961L385.35,141.897L386.278,146.244L382.876,153.65L384.654,157.709L381.717,159.121L382.722,164.771L380.944,167.362L386.587,176.2L383.572,183.159L378.624,185.755L375.146,189.946L374.218,198.156L375.841,202.767L383.34,212.882L378.238,220.935L378.779,230.715L373.367,238.546L362.854,242.048L355.973,241.277L355.2,248.225L353.036,251.137L336.492,251.672L328.529,249.77L317.397,250.781L305.723,253.931L301.394,256.369L291.808,259.343L281.371,266.007L261.117,267.793L253.386,271.247L230.58,273.332L206.769,274.226L204.991,274.702L203.522,280.603L192.854,282.63L188.37,285.195L189.839,286.925L198.188,286.447L207.31,282.988L208.702,285.612L215.041,286.03L217.747,284.36L237.692,287.7L235.451,292.773L241.944,297.55L236.919,299.044L234.059,302.449L230.735,301.433L227.72,308.427L232.435,313.571L242.408,312.733L249.83,307.949L259.802,312.315L260.885,317.221L263.822,318.957L267.147,326.623L272.094,329.199L272.172,333.875L278.434,334.474L282.84,338.013L285.314,336.033L294.05,339.392L298.611,339.572L301.162,346.174L300.312,352.419L308.584,352.119L312.99,355.544L315.928,361.435L319.87,363.9L320.644,368.473L318.015,371.181L312.449,369.977L312.063,371.602L305.259,372.746L303.095,376.479L306.187,380.997L305.491,385.215L310.671,388.773L312.526,393.719L309.511,394.986L313.222,398.848L318.324,397.158L323.349,402.108L323.427,408.813L327.833,410.384L328.22,418.002L331.312,422.963L335.023,424.052L337.651,427.624L335.564,430.772L335.641,436.346L337.961,437.679L342.522,445.924L339.507,451.749L331.931,451.385L328.838,455.087L321.03,460.189L318.634,471.736L321.803,480.01L327.756,482.324L324.432,483.967L325.669,490.424L329.147,486.708L331.699,487.134L332.085,491.094L335.255,493.105L338.347,498.652L352.649,500.116L361.617,495.848L366.023,497.921L373.136,498.957L370.816,502.251L368.729,498.835L364.554,502.251L368.574,505.423L367.415,508.291L373.136,510.306L373.522,514.275L378.315,519.04L380.325,517.757L384.191,528.393L386.896,522.156L390.839,521.24L405.527,524.785L406.301,527.965L409.316,527.414L413.258,525.947L412.408,531.757L412.099,532.43L412.64,532.858L412.563,533.409L412.331,533.531L412.563,533.776L413.799,537.02L417.588,544.551L419.675,540.571L425.086,535L428.024,538.489L433.204,538.55L433.668,544.919L443.486,556.626L448.974,560L449.593,555.584L455.546,555.277L462.658,550.924L466.291,544.245L466.601,537.816L464.049,533.409L464.9,529.616L461.808,529.555L458.715,523.868L461.112,517.268L463.508,517.757L461.112,509.146L457.942,503.532L465.209,497.982L466.91,497.372L474.486,497.189L478.119,498.652L481.289,496.579L482.835,500.238L486.546,501.153L488.092,498.53L497.601,503.41L497.601,498.896L504.559,500.848L506.182,496.457L512.212,497.25L512.367,493.044L516,494.568L519.788,488.231L510.048,478.55L517.933,472.953L521.412,473.074L521.18,470.338L516.619,471.493L522.34,465.9L519.866,462.983L521.412,456.302L523.576,452.963L519.556,449.868L520.175,447.016L513.063,442.043L513.063,442.043L511.13,438.467L511.13,438.467L507.96,435.679L504.868,437.921L500.384,437.739L495.746,434.649L491.03,433.801L489.406,430.106L484.691,431.862L473.558,427.745L471.316,432.589L466.678,431.015L462.426,425.989L465.828,425.081L467.451,416.853L465.132,411.412L469.074,405.611L465.441,402.35L460.571,402.048L453.226,395.589L449.979,395.468L449.052,391.969L452.608,394.563L453.304,392.029L459.179,394.503L461.808,391.245L459.179,385.999L465.054,385.517L464.977,378.346L470.002,377.804L468.611,375.455L468.611,375.455L467.915,374.612L477.965,370.278L484.304,373.709L482.139,369.917L485.928,361.435L483.376,355.604L483.376,355.604L482.062,352.419L479.898,354.162L479.898,354.162L478.893,349.176L472.321,346.234L471.162,340.892L478.119,346.414L478.042,342.933L484.072,343.593L484.536,338.852L487.087,336.813L484.381,330.757L479.356,322.909L480.825,321.951L487.86,324.945L489.716,322.609L494.818,323.687L497.524,326.503L500.384,323.807L500.771,319.077L506.105,321.112L515.227,326.563L517.856,325.065L517.083,319.915L528.679,325.544L532.776,325.305L532.699,321.232L540.893,324.406L545.686,322.011L551.716,320.933L558.365,326.802ZM409.47,528.576L390.53,533.287L390.143,537.999L403.672,534.878L407.692,531.023L410.166,532.858ZM412.64,532.858L412.099,532.43L412.331,533.531L412.563,533.409Z" fill="#d1e7dd" opacity="0.3" transform="translate(5, 8)" />
  
  <!-- 填充与主轮廓 -->
  <path d="M562.617,326.443L564.163,322.969L567.41,326.263L570.889,321.472L571.121,318.119L568.724,313.81L562.849,310.161L567.719,308.905L563.158,302.389L561.225,296.595L564.395,284.061L564.549,278.457L572.28,273.809L575.218,265.174L570.348,265.591L567.951,262.377L574.213,261.96L581.866,255.417L577.769,254.644L577.46,252.148L582.33,253.039L589.752,250.246L591.53,242.82L600.575,241.455L604.131,239.614L606.76,241.514L610.007,237.834L611.63,232.969L610.47,230.418L599.261,226.743L590.68,220.343L585.191,221.765L580.552,219.928L584.186,213.948L578.31,211.521L570.502,202.53L559.061,199.397L552.799,194.08L546.305,193.194L543.831,196.561L537.801,195.97L535.327,197.979L530.148,198.275L521.644,196.797L511.13,193.785L501.157,191.836L495.978,188.588L485.541,184.634L482.139,184.221L473.094,180.328L463.895,173.312L478.661,164.477L484.691,154.297L486.546,137.904L492.421,123.182L498.297,119.432L508.501,107.021L523.113,95.271L525.354,84.586L524.813,81.027L520.561,78.286L513.681,76.42L511.207,74.38L506.955,63.545L503.245,60.984L502.626,57.609L504.559,53.073L504.636,47.9L501.466,41.219L497.678,40L489.175,43.02L484.15,42.961L478.97,40.755L473.172,47.435L469.306,49.178L467.606,53.713L453.922,51.271L438.538,54.992L440.471,66.806L439.156,69.543L434.904,71.408L427.56,69.951L424.777,67.388L421.685,68.67L415.5,77.236L413.181,84.586L414.341,87.095L411.016,91.824L406.069,93.693L399.729,99.303L402.435,105.793L391.999,114.103L391.844,120.838L389.061,123.417L390.143,125.996L384.886,132.857L387.592,138.961L385.35,141.897L386.278,146.244L382.876,153.65L384.654,157.709L381.717,159.121L382.722,164.771L380.944,167.362L386.587,176.2L383.572,183.159L378.624,185.755L375.146,189.946L374.218,198.156L375.841,202.767L383.34,212.882L378.238,220.935L378.779,230.715L373.367,238.546L362.854,242.048L355.973,241.277L355.2,248.225L353.036,251.137L336.492,251.672L328.529,249.77L317.397,250.781L305.723,253.931L301.394,256.369L291.808,259.343L281.371,266.007L261.117,267.793L253.386,271.247L230.58,273.332L206.769,274.226L204.991,274.702L203.522,280.603L192.854,282.63L188.37,285.195L189.839,286.925L198.188,286.447L207.31,282.988L208.702,285.612L215.041,286.03L217.747,284.36L237.692,287.7L235.451,292.773L241.944,297.55L236.919,299.044L234.059,302.449L230.735,301.433L227.72,308.427L232.435,313.571L242.408,312.733L249.83,307.949L259.802,312.315L260.885,317.221L263.822,318.957L267.147,326.623L272.094,329.199L272.172,333.875L278.434,334.474L282.84,338.013L285.314,336.033L294.05,339.392L298.611,339.572L301.162,346.174L300.312,352.419L308.584,352.119L312.99,355.544L315.928,361.435L319.87,363.9L320.644,368.473L318.015,371.181L312.449,369.977L312.063,371.602L305.259,372.746L303.095,376.479L306.187,380.997L305.491,385.215L310.671,388.773L312.526,393.719L309.511,394.986L313.222,398.848L318.324,397.158L323.349,402.108L323.427,408.813L327.833,410.384L328.22,418.002L331.312,422.963L335.023,424.052L337.651,427.624L335.564,430.772L335.641,436.346L337.961,437.679L342.522,445.924L339.507,451.749L331.931,451.385L328.838,455.087L321.03,460.189L318.634,471.736L321.803,480.01L327.756,482.324L324.432,483.967L325.669,490.424L329.147,486.708L331.699,487.134L332.085,491.094L335.255,493.105L338.347,498.652L352.649,500.116L361.617,495.848L366.023,497.921L373.136,498.957L370.816,502.251L368.729,498.835L364.554,502.251L368.574,505.423L367.415,508.291L373.136,510.306L373.522,514.275L378.315,519.04L380.325,517.757L384.191,528.393L386.896,522.156L390.839,521.24L405.527,524.785L406.301,527.965L409.316,527.414L413.258,525.947L412.408,531.757L412.099,532.43L412.64,532.858L412.563,533.409L412.331,533.531L412.563,533.776L413.799,537.02L417.588,544.551L419.675,540.571L425.086,535L428.024,538.489L433.204,538.55L433.668,544.919L443.486,556.626L448.974,560L449.593,555.584L455.546,555.277L462.658,550.924L466.291,544.245L466.601,537.816L464.049,533.409L464.9,529.616L461.808,529.555L458.715,523.868L461.112,517.268L463.508,517.757L461.112,509.146L457.942,503.532L465.209,497.982L466.91,497.372L474.486,497.189L478.119,498.652L481.289,496.579L482.835,500.238L486.546,501.153L488.092,498.53L497.601,503.41L497.601,498.896L504.559,500.848L506.182,496.457L512.212,497.25L512.367,493.044L516,494.568L519.788,488.231L510.048,478.55L517.933,472.953L521.412,473.074L521.18,470.338L516.619,471.493L522.34,465.9L519.866,462.983L521.412,456.302L523.576,452.963L519.556,449.868L520.175,447.016L513.063,442.043L513.063,442.043L511.13,438.467L511.13,438.467L507.96,435.679L504.868,437.921L500.384,437.739L495.746,434.649L491.03,433.801L489.406,430.106L484.691,431.862L473.558,427.745L471.316,432.589L466.678,431.015L462.426,425.989L465.828,425.081L467.451,416.853L465.132,411.412L469.074,405.611L465.441,402.35L460.571,402.048L453.226,395.589L449.979,395.468L449.052,391.969L452.608,394.563L453.304,392.029L459.179,394.503L461.808,391.245L459.179,385.999L465.054,385.517L464.977,378.346L470.002,377.804L468.611,375.455L468.611,375.455L467.915,374.612L477.965,370.278L484.304,373.709L482.139,369.917L485.928,361.435L483.376,355.604L483.376,355.604L482.062,352.419L479.898,354.162L479.898,354.162L478.893,349.176L472.321,346.234L471.162,340.892L478.119,346.414L478.042,342.933L484.072,343.593L484.536,338.852L487.087,336.813L484.381,330.757L479.356,322.909L480.825,321.951L487.86,324.945L489.716,322.609L494.818,323.687L497.524,326.503L500.384,323.807L500.771,319.077L506.105,321.112L515.227,326.563L517.856,325.065L517.083,319.915L528.679,325.544L532.776,325.305L532.699,321.232L540.893,324.406L545.686,322.011L551.716,320.933L558.365,326.802ZM409.47,528.576L390.53,533.287L390.143,537.999L403.672,534.878L407.692,531.023L410.166,532.858ZM412.64,532.858L412.099,532.43L412.331,533.531L412.563,533.409Z" fill="#e6f4ea" stroke="#137333" stroke-width="4" stroke-linejoin="round" stroke-linecap="round" />
  
  <!-- 内发光描边 -->
  <path d="M562.617,326.443L564.163,322.969L567.41,326.263L570.889,321.472L571.121,318.119L568.724,313.81L562.849,310.161L567.719,308.905L563.158,302.389L561.225,296.595L564.395,284.061L564.549,278.457L572.28,273.809L575.218,265.174L570.348,265.591L567.951,262.377L574.213,261.96L581.866,255.417L577.769,254.644L577.46,252.148L582.33,253.039L589.752,250.246L591.53,242.82L600.575,241.455L604.131,239.614L606.76,241.514L610.007,237.834L611.63,232.969L610.47,230.418L599.261,226.743L590.68,220.343L585.191,221.765L580.552,219.928L584.186,213.948L578.31,211.521L570.502,202.53L559.061,199.397L552.799,194.08L546.305,193.194L543.831,196.561L537.801,195.97L535.327,197.979L530.148,198.275L521.644,196.797L511.13,193.785L501.157,191.836L495.978,188.588L485.541,184.634L482.139,184.221L473.094,180.328L463.895,173.312L478.661,164.477L484.691,154.297L486.546,137.904L492.421,123.182L498.297,119.432L508.501,107.021L523.113,95.271L525.354,84.586L524.813,81.027L520.561,78.286L513.681,76.42L511.207,74.38L506.955,63.545L503.245,60.984L502.626,57.609L504.559,53.073L504.636,47.9L501.466,41.219L497.678,40L489.175,43.02L484.15,42.961L478.97,40.755L473.172,47.435L469.306,49.178L467.606,53.713L453.922,51.271L438.538,54.992L440.471,66.806L439.156,69.543L434.904,71.408L427.56,69.951L424.777,67.388L421.685,68.67L415.5,77.236L413.181,84.586L414.341,87.095L411.016,91.824L406.069,93.693L399.729,99.303L402.435,105.793L391.999,114.103L391.844,120.838L389.061,123.417L390.143,125.996L384.886,132.857L387.592,138.961L385.35,141.897L386.278,146.244L382.876,153.65L384.654,157.709L381.717,159.121L382.722,164.771L380.944,167.362L386.587,176.2L383.572,183.159L378.624,185.755L375.146,189.946L374.218,198.156L375.841,202.767L383.34,212.882L378.238,220.935L378.779,230.715L373.367,238.546L362.854,242.048L355.973,241.277L355.2,248.225L353.036,251.137L336.492,251.672L328.529,249.77L317.397,250.781L305.723,253.931L301.394,256.369L291.808,259.343L281.371,266.007L261.117,267.793L253.386,271.247L230.58,273.332L206.769,274.226L204.991,274.702L203.522,280.603L192.854,282.63L188.37,285.195L189.839,286.925L198.188,286.447L207.31,282.988L208.702,285.612L215.041,286.03L217.747,284.36L237.692,287.7L235.451,292.773L241.944,297.55L236.919,299.044L234.059,302.449L230.735,301.433L227.72,308.427L232.435,313.571L242.408,312.733L249.83,307.949L259.802,312.315L260.885,317.221L263.822,318.957L267.147,326.623L272.094,329.199L272.172,333.875L278.434,334.474L282.84,338.013L285.314,336.033L294.05,339.392L298.611,339.572L301.162,346.174L300.312,352.419L308.584,352.119L312.99,355.544L315.928,361.435L319.87,363.9L320.644,368.473L318.015,371.181L312.449,369.977L312.063,371.602L305.259,372.746L303.095,376.479L306.187,380.997L305.491,385.215L310.671,388.773L312.526,393.719L309.511,394.986L313.222,398.848L318.324,397.158L323.349,402.108L323.427,408.813L327.833,410.384L328.22,418.002L331.312,422.963L335.023,424.052L337.651,427.624L335.564,430.772L335.641,436.346L337.961,437.679L342.522,445.924L339.507,451.749L331.931,451.385L328.838,455.087L321.03,460.189L318.634,471.736L321.803,480.01L327.756,482.324L324.432,483.967L325.669,490.424L329.147,486.708L331.699,487.134L332.085,491.094L335.255,493.105L338.347,498.652L352.649,500.116L361.617,495.848L366.023,497.921L373.136,498.957L370.816,502.251L368.729,498.835L364.554,502.251L368.574,505.423L367.415,508.291L373.136,510.306L373.522,514.275L378.315,519.04L380.325,517.757L384.191,528.393L386.896,522.156L390.839,521.24L405.527,524.785L406.301,527.965L409.316,527.414L413.258,525.947L412.408,531.757L412.099,532.43L412.64,532.858L412.563,533.409L412.331,533.531L412.563,533.776L413.799,537.02L417.588,544.551L419.675,540.571L425.086,535L428.024,538.489L433.204,538.55L433.668,544.919L443.486,556.626L448.974,560L449.593,555.584L455.546,555.277L462.658,550.924L466.291,544.245L466.601,537.816L464.049,533.409L464.9,529.616L461.808,529.555L458.715,523.868L461.112,517.268L463.508,517.757L461.112,509.146L457.942,503.532L465.209,497.982L466.91,497.372L474.486,497.189L478.119,498.652L481.289,496.579L482.835,500.238L486.546,501.153L488.092,498.53L497.601,503.41L497.601,498.896L504.559,500.848L506.182,496.457L512.212,497.25L512.367,493.044L516,494.568L519.788,488.231L510.048,478.55L517.933,472.953L521.412,473.074L521.18,470.338L516.619,471.493L522.34,465.9L519.866,462.983L521.412,456.302L523.576,452.963L519.556,449.868L520.175,447.016L513.063,442.043L513.063,442.043L511.13,438.467L511.13,438.467L507.96,435.679L504.868,437.921L500.384,437.739L495.746,434.649L491.03,433.801L489.406,430.106L484.691,431.862L473.558,427.745L471.316,432.589L466.678,431.015L462.426,425.989L465.828,425.081L467.451,416.853L465.132,411.412L469.074,405.611L465.441,402.35L460.571,402.048L453.226,395.589L449.979,395.468L449.052,391.969L452.608,394.563L453.304,392.029L459.179,394.503L461.808,391.245L459.179,385.999L465.054,385.517L464.977,378.346L470.002,377.804L468.611,375.455L468.611,375.455L467.915,374.612L477.965,370.278L484.304,373.709L482.139,369.917L485.928,361.435L483.376,355.604L483.376,355.604L482.062,352.419L479.898,354.162L479.898,354.162L478.893,349.176L472.321,346.234L471.162,340.892L478.119,346.414L478.042,342.933L484.072,343.593L484.536,338.852L487.087,336.813L484.381,330.757L479.356,322.909L480.825,321.951L487.86,324.945L489.716,322.609L494.818,323.687L497.524,326.503L500.384,323.807L500.771,319.077L506.105,321.112L515.227,326.563L517.856,325.065L517.083,319.915L528.679,325.544L532.776,325.305L532.699,321.232L540.893,324.406L545.686,322.011L551.716,320.933L558.365,326.802ZM409.47,528.576L390.53,533.287L390.143,537.999L403.672,534.878L407.692,531.023L410.166,532.858ZM412.64,532.858L412.099,532.43L412.331,533.531L412.563,533.409Z" fill="none" stroke="#2e7d32" stroke-width="1.5" stroke-linejoin="round" stroke-linecap="round" opacity="0.6" />
</svg>