<svg xmlns="http://www.w3.org/2000/svg" width="800" height="600" viewBox="0 0 800 600">
  <!-- 背景色，采用淡米黄色 -->
  <rect width="100%" height="100%" fill="#f5f2eb" />
  
  <!-- 阴影层 -->
  <path d="M760,269.512L759.283,264.07L745.369,253.711L744.07,252.12L743.373,247.807L739.535,242.14L738.586,239.837L736.687,236.149L735.989,234.016L732.966,229.243L729.788,229.176L728.257,228.661L726.668,228.58L727.443,226.645L727.578,224.253L728.218,222.322L729.303,221.769L729.923,220.609L729.4,220.084L723.896,220.758L720.427,220.987L716.338,221.513L714.672,220.272L710.912,219.41L709.091,218.763L707.656,218.763L706.106,216.987L703.994,215.373L702.443,214.929L699.73,213.452L697.211,213.062L696.223,213.25L695.292,211.144L693.723,210.486L692.075,209.16L691.688,208.463L689.711,207.928L686.998,206.442L676.223,202.247L675.991,201.34L672.754,200.326L669.479,199.02L667.134,199.42L665.313,198.474L663.355,198.168L663.336,198.634L661.398,198.274L658.937,197.529L656.611,197.782L655.41,197.436L653.53,197.702L651.34,197.462L651.03,196.85L649.809,196.544L648.666,196.797L646.515,196.424L643.511,197.209L639.228,197.436L637.755,197.981L635.023,197.436L632.969,197.569L631.922,197.103L629.558,197.515L625.139,195.453L623.783,195.281L618.395,195.533L615.798,195.414L612.388,195.959L608.202,195.64L606.264,194.749L604.655,193.088L604.035,193.088L602.407,194.523L601.07,193.938L598.144,193.699L597.795,193.181L596.69,193.009L595.915,191.735L594.617,191.217L592.117,191.443L590.78,191.138L589.326,191.681L586.807,191.973L586.342,191.429L587.311,190.156L586.671,189.176L585.237,188.566L584.385,188.739L584.656,187.679L583.416,185.245L583.377,184.412L581.827,183.395L580.179,182.669L580.354,179.688L581.555,175.082L584.23,171.746L587.098,169.02L591.419,165.827L590.993,164.454L591.206,162.744L590.043,161.504L588.9,159.653L589.133,159.197L587.388,156.725L590.005,154.762L590.412,153.359L591.342,152.581L591.729,150.791L592.446,150.286L593.028,148.965L592.679,148.33L591.09,148.227L591.671,145.459L592.233,143.974L591.129,142.439L590.295,142.335L590.295,141.678L588.726,140.57L589.21,138.883L588.319,138.445L588.086,137.017L587.427,136.323L585.198,135.219L583.202,135.321L580.838,132.549L579.637,131.575L577.311,128.848L576.73,128.579L575.47,126.138L574.424,125.103L575.625,123.164L575.044,122.501L573.803,122.348L573.513,121.278L573.997,120.54L573.803,119.433L571.594,117.856L570.897,116.116L569.966,115.037L571.168,114.821L569.501,113.642L565.877,112.894L564.734,112.273L563.319,112.337L561.459,110.627L561.284,109.274L561.788,107.859L561.149,107.29L560.354,107.568L557.816,107.215L557.738,108.566L554.967,108.844L551.575,108.794L550.742,106.848L548.087,106.344L547.913,105.271L546.343,104.464L546.459,103.128L545.51,102.436L543.281,102.738L539.599,102.172L538.921,102.801L537.312,102.94L536.479,103.809L534.89,104.25L532.525,103.721L530.064,104.036L529.018,103.317L528.456,102.02L526.15,100.775L525.685,99.995L522.08,100.259L521.227,99.417L518.844,98.575L518.185,97.935L517.177,98.236L516.227,97.847L515.065,96.655L514.852,95.451L514.231,94.887L515.2,92.996L514.193,92.558L514.173,91.995L512.991,92.02L512.604,90.932L511.983,90.632L510.685,91.282L509.929,91.244L507.487,89.995L507.565,89.133L506.15,88.571L503.36,87.947L502.333,88.084L500.918,87.061L500.24,87.211L499.561,86.45L497.449,86.376L495.298,85.503L494.93,84.768L496.48,84.158L496.984,83.076L498.96,81.758L498.999,80.975L498.166,81.199L497.061,80.019L494.93,79.287L494.213,79.783L492.12,78.468L490.686,78.431L489.949,77.674L490.763,77.649L489.6,76.906L489.251,76.187L488.031,75.902L488.593,74.491L489.658,74.442L490.298,73.885L492.255,73.762L492.1,73.304L493.36,72.797L492.488,72.353L492.468,71.414L490.957,70.451L491.674,69.847L491.248,69.329L491.965,68.737L491.286,67.566L490.492,67.492L490.511,66.692L489.639,66.421L488.67,66.729L486.713,66.63L485.957,67.271L483.631,67.369L482.391,67.677L480.957,67.579L480.279,68.01L480.783,68.959L478.418,69.797L476.907,69.082L474.271,68.626L472.198,68.564L471.345,67.739L468.225,67.271L467.45,67.96L464.678,67.677L463.225,68.034L461.151,68.01L460.086,68.725L459.95,70.069L459.524,70.55L457.508,71.29L456.248,72.328L456.19,73.428L457.062,75.469L457.818,75.717L459.058,76.869L458.981,77.476L457.45,78.133L456.946,78.939L457.779,80.615L457.489,81.062L455.318,82.665L455.028,83.374L453.38,83.835L453.206,84.37L451.927,85.478L451.462,86.675L446.307,88.471L445.202,88.097L442.819,88.147L441.714,89.395L440.319,90.02L434.912,89.745L430.59,89.845L426.656,90.444L425.61,90.944L423.633,93.083L423.633,94.11L423.09,95.25L421.695,96.304L421.327,97.244L420.222,97.596L419.893,98.638L419.098,99.606L419.118,101.064L418.478,102.172L418.963,103.368L421.191,117.767L421.094,119.42L423.304,121.597L423.827,122.999L423.013,124.963L423.808,126.01L423.226,127.224L423.226,128.08L421.947,129.296L420.087,130.602L418.963,132.049L418.924,133.268L415.629,133.101L412.936,133.37L412.005,133.678L410.455,132.921L408.478,133.794L407.277,135.154L404.99,136.066L404.331,136.979L401.347,137.66L401.114,138.767L400.339,139.462L399.68,139.372L397.568,137.365L397.006,136.439L394.874,135.719L393.828,134.782L392.297,134.82L391.328,135.244L388.014,135.347L386.231,135.938L383.673,134.808L381.968,135.296L380.882,134.923L379.39,135.257L376.425,134.975L375.01,135.797L373.014,136.182L371.503,135.925L370.379,135.385L368.77,135.488L368.169,136.028L366.697,135.655L362.937,134.243L360.825,134.602L360.863,134.076L356.949,133.229L356.658,132.549L355.767,132.447L353.402,130.935L352.007,131.345L350.476,129.475L349.042,129.808L348.461,129.436L346.93,129.641L345.806,129.206L345.341,128.362L344.314,128.221L343.693,127.658L342.24,128.106L339.682,128.311L339.818,129.795L338.616,133.037L336.872,134.641L336.426,137.223L334.934,140.634L334.992,141.472L333.461,142.245L332.182,145.227L331.717,147.67L330.225,150.986L326.523,157.271L323.675,161.713L321.892,167.187L319.992,167.423L318.151,168.588L317.938,170.252L318.365,172.127L318.074,173.702L316.485,175.476L316.446,177.397L315.748,178.503L316.233,181.059L321.465,183.501L324.566,184.611L326.271,187.123L325.845,190.965L325.07,191.575L322.686,192.318L318.21,191.124L316.62,190.223L313.869,190.567L310.807,191.363L310.225,191.018L310.38,190.156L309.024,189.971L307.144,190.528L304.877,190.673L303.578,189.07L302.086,187.957L300.691,185.946L297.202,186.859L296.195,186.713L294.237,187.428L294.005,188.328L292.784,188.447L292.532,189.017L290.458,189.706L289.664,189.123L288.443,189.348L287.92,189.904L286.214,189.812L284.858,190.501L283.346,190.236L281.408,190.846L281.253,191.376L279.412,191.151L278.443,192.265L276.68,192.889L274.839,192.717L273.87,192.969L272.688,194.005L271.564,194.018L270.129,193.208L267.455,193.102L266.021,193.952L263.289,194.682L260.769,194.589L259.975,194.018L258.463,194.935L258.405,195.573L257.165,196.464L255.711,196.73L254.762,195.812L253.618,195.945L252.107,197.023L250.595,197.05L248.987,196.158L248.715,196.717L247.959,196.358L246.351,197.196L246.215,197.662L243.851,199.14L242.921,199.34L242.688,199.966L240.905,200.873L243.464,201.86L242.979,202.754L244.181,203.355L244.413,204.504L247.204,203.769L248.076,203.822L249.781,202.901L250.343,203.502L250.052,204.41L250.75,205.667L251.952,206.737L254.297,207.299L257.029,209.696L257.397,210.433L255.459,214.231L256.486,216.852L256.99,219.855L257.436,221.149L257.048,223.226L257.242,224.766L256.835,225.482L258.579,227.023L258.87,227.998L258.831,230.07L259.703,230.869L259.393,231.425L260.517,232.415L260.866,235.252L268.192,245.388L268.385,246.891L267.92,247.124L267.591,248.683L266.021,250.435L266.234,250.86L268.889,251.243L268.637,252.587L269.257,253.313L269.277,254.59L269.742,255.331L269.432,256.622L268.114,256.279L267.474,256.814L266.68,256.416L264.916,256.306L263.095,256.746L261.932,257.653L259.626,258.753L257.552,259.152L256.351,259.95L256.952,261.038L259.762,262.553L263.037,263.353L263.405,264.263L260.285,264.649L258.618,265.284L257.242,266.14L255.072,266.237L253.25,266.029L252.688,266.333L252.591,267.521L251.545,269.968L251.622,270.605L250.091,271.311L249.587,272.585L250.13,273.818L251.409,275.621L252.785,276.607L251.545,277.12L250.925,278.829L251.971,280.136L251.642,281.124L253.366,282.321L252.998,283.532L253.638,284.229L253.444,285.065L251.777,285.79L249.742,286.097L249.587,287.604L248.832,287.646L249.723,289.364L250.518,289.839L248.909,291.307L247.262,290.915L242.029,291.069L239.801,291.922L239.859,292.902L238.851,293.56L237.398,295.787L235.77,295.647L233.134,296.025L232.379,296.923L230.305,297.624L228.735,297.582L227.359,297.189L226.041,297.54L224.181,298.831L223.231,298.396L221.681,299.294L221.526,299.73L219.801,301.036L217.321,301.12L216.41,301.922L214.336,302.428L213.658,303.187L212.786,302.962L211.643,303.37L209.569,305.059L208.775,305.186L207.476,306.242L204.763,306.383L203.426,306.82L203.755,307.44L202.767,308.061L201.972,309.161L199.783,308.71L198.097,309.994L195.81,310.897L193.833,311.024L193.639,311.448L192.147,311.363L191.721,311.773L188.911,311.307L186.663,311.801L186.217,312.282L186.701,313.144L185.81,315.082L185.577,316.681L184.492,316.809L180.655,318.424L178.523,318.041L176.353,319.047L175.675,319.643L175.442,320.977L176.14,321.999L175.093,322.325L174.609,323.149L173.252,322.851L171.586,323.618L170.636,323.362L168.834,323.703L168.659,324.115L167.051,323.66L165.035,323.888L164.958,323.149L163.117,322.652L161.47,322.581L159.377,323.717L157.497,322.993L155.365,323.575L153.447,322.666L152.923,321.899L150.772,321.999L150.113,321.558L148.175,322.964L146.451,323.007L145.443,324.613L144.319,324.641L142.555,325.309L141.916,326.632L141.606,329.566L140.404,330.806L138.931,331.419L138.931,332.146L139.881,333.431L139.183,334.788L139.261,335.816L137.807,336.402L137.497,337.117L136.102,338.262L135.676,339.163L135.559,340.724L134.59,341.813L133.389,342.028L132.498,343.018L130.87,343.448L130.598,343.032L129.067,344.524L128.893,343.018L127.498,342.272L127.381,341.512L125.637,342.688L124.126,343.333L123.118,342.946L121.141,342.86L120.114,343.104L120.114,344.094L119.416,344.151L118.157,343.319L116.451,344.653L116.122,346.161L115.134,345.601L113.564,345.5L113.273,345.026L111.839,345.859L110.386,345.917L109.436,346.491L108.777,344.51L108.196,343.878L108.719,342.172L109.688,341.383L110.192,340.409L107.459,339.078L106.975,338.061L106.859,336.288L107.149,335.688L105.987,334.573L104.436,334.916L101.839,336.46L100.715,337.604L98.312,338.405L96.316,340.108L95.58,340.108L94.747,341.211L93.623,341.24L91.375,340.753L90.347,341.484L88.739,341.183L87.809,340.638L86.975,341.011L85.968,340.71L83.72,339.364L82.228,338.934L81.433,339.421L81.297,340.825L80.677,341.383L84.243,344.668L82.809,345.055L81.607,344.495L77.693,344.438L77.615,345.572L76.84,346.563L75.115,346.534L73.817,347.138L72.48,348.791L70.929,349.596L69.282,351.194L66.879,352.518L65.619,351.971L64.495,352.245L63.933,351.395L59.631,352.043L59.224,352.605L56.395,352.648L55.91,353.729L53.876,354.824L55.038,355.185L52.848,357.393L52.732,359.3L50.794,360.644L50.678,363.002L52.693,363.451L53.275,364.074L54.205,367.915L53.023,368.336L52.965,369.047L51.996,369.773L52.306,370.179L51.511,371.603L50.504,371.937L47.655,372.257L44.554,371.865L43.411,372.141L42.849,373.828L40,374.715L41.628,375.778L41.647,377.482L41.26,378.313L41.957,378.415L42.461,379.319L43.798,379.392L44.322,379.859L44.884,381.566L45.853,381.917L46.841,383.392L46.86,384.532L47.577,385.862L48.74,385.95L50,385.482L50.62,386.535L50.833,387.984L50.194,389.405L48.352,388.643L47.558,388.878L46.511,390.152L46.201,391.266L47.151,391.912L48.391,393.848L48.023,395.611L49.651,398.301L49.341,399.036L51.007,399.875L52.48,400.037L53.333,401.392L56.027,401.745L56.744,401.215L58.507,401.2L57.81,399.831L58.43,399.036L59.205,399.022L60.31,396.963L62.887,397.61L66.782,397.624L68.933,397.874L69.999,398.345L71.588,398.198L72.867,399.139L74.96,399.595L75.794,399.389L78.235,401.2L80.348,401.318L81.511,402.806L82.809,403.027L82.983,405.549L81.898,406.892L80.503,408.044L81.045,409.27L80.619,409.729L81.355,411.474L80.968,412.998L81.511,415.012L83.332,417.592L84.786,417.71L84.321,419.298L84.572,421.14L85.134,422.15L84.514,423.131L86.801,424.619L87.324,425.467L85.522,426.896L84.708,427.149L84.631,428.177L83.72,428.699L85.251,432.13L87.15,433.025L87.189,433.623L88.235,433.966L89.592,433.638L89.979,434.4L91.2,435.266L91.937,436.687L91.084,437.509L91.53,438.542L91.084,439.575L89.592,439.71L87.692,440.473L84.824,440.983L84.321,442.377L81.336,442.901L80.832,441.912L79.379,440.878L78.545,440.818L76.608,442.302L75.871,441.492L74.495,441.597L73.856,442.437L72.809,441.882L71.743,442.167L70.677,443.441L71.007,444.626L70.29,445.092L71.278,446.067L71.356,447.449L72.344,447.134L73.526,448.696L75.077,448.351L75.561,447.629L77.964,447.059L78.914,448.832L80.6,448.862L81.045,448.005L82.305,447.93L82.208,449.298L83.022,450.02L83.778,451.614L85.193,451.509L84.844,450.411L87.305,449.884L88.138,449.193L89.107,449.523L92.537,449.283L92.421,449.974L94.824,450.877L96.2,450.516L98.002,450.952L100.134,451.148L99.591,452.728L100.657,453.707L100.793,454.973L100.522,456.676L101.549,458.502L103.002,457.793L104.01,458.215L104.029,456.857L105.638,457.189L107.072,456.903L109.901,457.566L112.517,458.909L114.533,460.208L116.917,462.596L116.199,463.367L118.331,465.273L119.688,468.302L118.312,470.106L118.544,471.365L120.327,473.232L120.502,474.098L118.951,473.976L119.106,475.982L117.575,476.179L116.587,476.94L116.994,478.978L118.041,480.196L119.475,480.653L119.978,480.333L121.645,480.47L122.265,481.963L123.777,484.052L123.195,486.218L123.622,486.707L125.56,486.737L125.773,486.31L127.982,486.172L130.094,486.707L130.211,485.486L132.168,485.852L133.428,484.769L134.804,484.921L136.141,483.594L137.381,484.463L136.819,485.379L137.071,486.203L136.393,486.875L137.265,488.356L140.385,489.12L142.788,492.071L145.288,491.628L147.11,493.296L149.009,494.03L149.978,493.418L152.323,494.046L152.981,494.72L156.198,496.313L159.725,495.639L160.481,495.945L161.218,497.095L162.535,497.923L164.26,498.153L166.373,497.478L168.233,497.677L168.621,498.168L170.171,498.337L170.733,497.616L171.779,498.536L173.194,498.122L173.892,497.003L175.132,497.187L175.733,496.328L176.992,497.309L177.438,497.064L178.833,498.015L178.911,497.202L179.977,497.585L181.818,497.171L182.438,497.877L183.039,497.187L185.926,497.079L185.093,497.953L184.88,498.889L182.981,500.562L181.934,501.13L182.167,502.727L182.05,505.464L183.407,506.971L183.484,509.034L183.988,509.497L185.442,509.235L186.256,510.452L185.384,511.485L186.566,512.934L187.864,513.443L187.244,514.632L188,516.052L188.988,516.346L188.775,519.684L188.252,520.179L188.213,521.525L189.918,521.912L189.86,523.616L190.345,524.499L192.399,525.103L194.007,525.056L194.957,525.413L195.228,526.994L197.011,525.909L198.581,526.033L199.124,526.576L199.221,527.972L199.802,528.204L201.488,527.181L203.794,527.677L204.007,528.313L205.383,528.949L204.879,529.803L206.972,530.486L209.143,531.791L209.821,532.941L211.681,531.962L212.127,532.693L214.22,533.579L214.511,533.143L213.309,531.527L214.201,530.844L215.247,531.123L218.057,530.222L218.619,530.813L220.577,531.046L221.604,530.393L223.251,530.16L224.394,530.642L226.662,530.021L228.851,529.803L230.131,529.12L231.255,529.757L234.239,529.912L234.995,529.074L236.119,529.275L238.192,529.043L240.072,527.491L239.51,526.576L240.847,523.879L240.247,522.981L241.506,522.593L241.235,521.076L242.785,518.277L242.126,517.381L243.212,516.963L244.336,517.164L244.549,515.944L245.518,515.728L245.75,514.431L245.188,513.551L245.808,511.947L245.421,511.562L246.894,510.236L248.153,510.56L251.68,508.003L251.467,507.064L252.552,506.248L255.847,506.079L252.862,503.342L253.463,501.544L254.548,500.47L256.234,500.439L258.056,498.505L258.424,499.518L260.634,500.316L261.196,499.917L262.32,500.331L263.308,499.764L265.091,500.255L266.176,501.176L266.118,501.974L268.347,502.113L271.002,501.775L272.571,502.451L273.521,502.236L274.761,502.865L276.718,502.85L275.982,502.113L276.873,502.036L276.893,500.669L277.61,499.978L279.025,499.825L279.16,500.5L280.381,501.16L281.931,501.145L282.804,502.604L284.276,502.497L284.877,501.775L285.788,502.036L287.338,501.483L288.036,502.097L289.78,502.159L289.993,502.635L291.776,503.864L292.047,505.248L297.493,505.233L299.082,504.387L301.214,504.126L302.764,504.51L305.09,504.11L305.962,502.973L307.086,503.034L308.307,502.527L309.043,501.621L308.287,499.242L308.442,498.429L309.605,498.475L310.09,497.938L312.551,497.049L313.326,496.497L314.741,496.267L315.651,495.409L316.775,495.501L317.686,495.041L318.384,493.418L317.938,492.148L319.721,491.995L320.729,490.221L322.105,490.068L323.151,490.588L324.547,490.358L327.143,490.863L327.88,491.475L330.38,492.576L331.911,491.689L332.376,490.985L334.856,490.97L335.515,491.444L337.802,491.643L337.453,492.622L338.248,493.77L337.938,495.394L338.79,497.401L340.961,498.091L341.62,499.257L342.821,500.101L344.43,500.393L346.736,499.503L347.647,500.024L349.333,500.147L351.581,500.669L352.957,500.623L354.643,501.299L355.825,501.191L355.864,501.898L357.685,501.59L358.402,502.097L360.146,501.283L363.538,501.222L363.925,501.483L366.677,501.084L367.336,499.963L370.476,499.349L372.724,500.055L373.305,501.237L374.72,500.715L375.34,501.329L376.599,500.654L378.925,499.932L380.766,499.625L383.634,497.969L384.545,497.754L385.262,496.405L384.409,495.332L386.444,494.888L388.227,494.138L390.049,493.923L392.452,493.234L393.227,493.341L395.397,492.27L399.235,490.74L400.92,490.328L401.579,489.456L403.42,488.983L406.347,489.288L410.281,487.821L412.49,488.937L413.517,490.618L418.071,491.23L419.563,492.5L421.036,492.148L422.296,489.64L423.497,489.013L427.276,488.142L428.032,488.356L430.183,487.959L431.617,488.142L434.33,486.005L434.892,486.127L436.055,485.058L436.152,484.113L437.276,483.015L437.954,481.049L438.671,480.927L439.505,479.678L438.943,479.146L439.117,477.061L441.036,476.727L442.005,475.815L444.485,475.875L445.57,474.675L447.528,474.219L449.427,474.72L449.95,474.037L452.063,474.189L455.221,473.49L456.694,472.002L459.524,472.017L460.376,471.744L461.132,472.913L462.508,472.837L462.915,472.245L464.562,471.471L466.306,471.85L467.392,471.41L469.368,471.82L469.756,470.94L470.764,470.197L473.864,469.894L475.628,468.817L476.112,467.953L476.849,468.196L478.108,467.787L479.155,468.287L479.484,470.03L482.624,470.409L484.193,469.848L487.701,469.075L488.825,469.393L490.666,468.863L491.054,469.105L493.612,468.802L494.833,468.332L495.608,467.408L496.344,467.635L499.038,467.484L500.375,467.741L501.887,466.938L503.146,467.105L503.747,466.439L505.026,466.393L507.662,466.772L507.371,466.166L509.057,466.287L510.956,466.015L511.828,467.135L514.173,466.666L515.588,467.711L515.762,468.923L517.855,469.605L520.258,471.987L520.801,472.002L521.402,470.546L522.526,470.06L523.534,470.227L525.278,469.712L526.479,471.152L528.029,471.259L529.328,472.002L530.82,472.336L531.595,473.171L533.863,472.989L534.909,471.881L536.808,473.9L538.146,473.718L539.425,474.006L543.029,476.423L546.304,477.198L546.944,477.731L549.986,478.248L551.73,478.857L553.397,478.643L556.362,478.689L557.215,479.054L557.331,476.757L558.998,475.891L559.695,474.462L559.947,473.05L559.172,472.412L560.432,472.473L560.897,473.141L563.649,473.657L563.164,474.644L565.296,475.283L566.517,476.134L569.307,476.164L572.408,476.97L574.114,477.031L575.896,476.529L578.358,477.198L579.811,476.94L583.493,478.461L584.733,480.059L585.819,480.653L588.105,480.272L589.869,477.822L593.086,478.4L594.462,477.548L593.435,476.027L593.551,474.265L592.156,473.687L592.815,471.775L591.361,471.001L592.156,467.529L591.419,467.241L591.787,466.242L591.652,464.516L590.896,464.199L587.543,463.548L585.218,463.624L584.578,462.762L582.388,462.747L581.788,461.674L582.059,460.555L581.284,460.45L581.749,458.879L582.815,458.487L581.943,457.4L582.098,455.199L582.931,455.199L585.935,452.382L588.144,452.201L590.024,452.442L591.691,451.93L592.156,450.742L594.52,450.396L594.733,449.478L596.225,448.922L597.33,449.403L600.082,449.328L599.694,448.381L600.082,447.104L599.539,446.413L599.345,444.566L596.535,443.246L596.652,441.103L594.772,439.515L594.811,438.527L594.094,437.539L593.667,435.625L592.834,434.743L591.148,434.205L589.21,434.683L587.757,433.369L586.303,433.025L586.826,431.607L585.954,430.712L584.869,430.414L583.532,429.31L579.327,427.79L577.524,427.596L577.292,427.045L575.412,426.732L575.315,411.74L575.78,408.192L571.711,408.458L570.451,408.812L570.16,410.912L567.893,410.764L563.397,407.542L564.715,405.77L563.145,405.667L562.583,405.077L562.583,403.219L563.184,402.703L566.885,402.791L568.978,402.467L570.18,403.086L572.505,402.718L573.707,401.834L573.648,400.744L575.606,400.596L576.71,399.581L578.222,399.551L578.144,399.036L579.385,398.271L578.551,397.345L579.83,397.036L581.865,397.551L587.369,396.874L589.598,396.301L590.295,396.389L596.458,395.258L598.163,394.583L599.927,394.773L604.578,392.66L606.303,392.601L611.961,391.428L612.388,391.002L615.895,390.797L618.201,390.431L618.24,389.962L620.934,388.965L625.411,387.94L627.445,388.028L628.221,387.311L630.294,386.726L633.957,386.799L635.081,386.462L634.906,385.585L633.531,384.926L633.511,383.772L632.813,382.194L632.658,379.348L633.899,378.663L638.53,375.196L642.116,370.615L643.627,366.117L645.449,359.473L647.057,350.488L650.526,345.558L650.953,343.003L651.204,337.318L669.382,334.93L677.386,334.416L679.285,330.364L678.936,327.657L682.037,324.385L685.254,320.253L690.719,315.421L701.726,307.948L708.529,306.933L710.389,304.384L712.036,302.836L715.408,301.247L716.745,301.008L719.865,299.687L720.66,299.547L721.571,300.727L722.656,301.233L722.501,302.006L724.168,304.567L725.815,306.059L726.939,303.595L728.78,302.048L730.388,301.219L734.361,298.817L737.036,297.877L740.272,297.568L741.59,297.175L743.295,297.133L747.791,295.353L749.574,294.414L751.531,292.846L752.171,291.782L752.209,290.706L750.272,287.702L753.45,285.553L749.128,282.126L749.167,281.304L749.923,279.357L747.171,278.662L748.392,277.231L748.586,275.33L750.117,274.484L751.105,273.389L753.082,272.793Z" fill="#d1e7dd" opacity="0.3" transform="translate(5, 8)" />
  
  <!-- 填充与主轮廓 -->
  <path d="M760,269.512L759.283,264.07L745.369,253.711L744.07,252.12L743.373,247.807L739.535,242.14L738.586,239.837L736.687,236.149L735.989,234.016L732.966,229.243L729.788,229.176L728.257,228.661L726.668,228.58L727.443,226.645L727.578,224.253L728.218,222.322L729.303,221.769L729.923,220.609L729.4,220.084L723.896,220.758L720.427,220.987L716.338,221.513L714.672,220.272L710.912,219.41L709.091,218.763L707.656,218.763L706.106,216.987L703.994,215.373L702.443,214.929L699.73,213.452L697.211,213.062L696.223,213.25L695.292,211.144L693.723,210.486L692.075,209.16L691.688,208.463L689.711,207.928L686.998,206.442L676.223,202.247L675.991,201.34L672.754,200.326L669.479,199.02L667.134,199.42L665.313,198.474L663.355,198.168L663.336,198.634L661.398,198.274L658.937,197.529L656.611,197.782L655.41,197.436L653.53,197.702L651.34,197.462L651.03,196.85L649.809,196.544L648.666,196.797L646.515,196.424L643.511,197.209L639.228,197.436L637.755,197.981L635.023,197.436L632.969,197.569L631.922,197.103L629.558,197.515L625.139,195.453L623.783,195.281L618.395,195.533L615.798,195.414L612.388,195.959L608.202,195.64L606.264,194.749L604.655,193.088L604.035,193.088L602.407,194.523L601.07,193.938L598.144,193.699L597.795,193.181L596.69,193.009L595.915,191.735L594.617,191.217L592.117,191.443L590.78,191.138L589.326,191.681L586.807,191.973L586.342,191.429L587.311,190.156L586.671,189.176L585.237,188.566L584.385,188.739L584.656,187.679L583.416,185.245L583.377,184.412L581.827,183.395L580.179,182.669L580.354,179.688L581.555,175.082L584.23,171.746L587.098,169.02L591.419,165.827L590.993,164.454L591.206,162.744L590.043,161.504L588.9,159.653L589.133,159.197L587.388,156.725L590.005,154.762L590.412,153.359L591.342,152.581L591.729,150.791L592.446,150.286L593.028,148.965L592.679,148.33L591.09,148.227L591.671,145.459L592.233,143.974L591.129,142.439L590.295,142.335L590.295,141.678L588.726,140.57L589.21,138.883L588.319,138.445L588.086,137.017L587.427,136.323L585.198,135.219L583.202,135.321L580.838,132.549L579.637,131.575L577.311,128.848L576.73,128.579L575.47,126.138L574.424,125.103L575.625,123.164L575.044,122.501L573.803,122.348L573.513,121.278L573.997,120.54L573.803,119.433L571.594,117.856L570.897,116.116L569.966,115.037L571.168,114.821L569.501,113.642L565.877,112.894L564.734,112.273L563.319,112.337L561.459,110.627L561.284,109.274L561.788,107.859L561.149,107.29L560.354,107.568L557.816,107.215L557.738,108.566L554.967,108.844L551.575,108.794L550.742,106.848L548.087,106.344L547.913,105.271L546.343,104.464L546.459,103.128L545.51,102.436L543.281,102.738L539.599,102.172L538.921,102.801L537.312,102.94L536.479,103.809L534.89,104.25L532.525,103.721L530.064,104.036L529.018,103.317L528.456,102.02L526.15,100.775L525.685,99.995L522.08,100.259L521.227,99.417L518.844,98.575L518.185,97.935L517.177,98.236L516.227,97.847L515.065,96.655L514.852,95.451L514.231,94.887L515.2,92.996L514.193,92.558L514.173,91.995L512.991,92.02L512.604,90.932L511.983,90.632L510.685,91.282L509.929,91.244L507.487,89.995L507.565,89.133L506.15,88.571L503.36,87.947L502.333,88.084L500.918,87.061L500.24,87.211L499.561,86.45L497.449,86.376L495.298,85.503L494.93,84.768L496.48,84.158L496.984,83.076L498.96,81.758L498.999,80.975L498.166,81.199L497.061,80.019L494.93,79.287L494.213,79.783L492.12,78.468L490.686,78.431L489.949,77.674L490.763,77.649L489.6,76.906L489.251,76.187L488.031,75.902L488.593,74.491L489.658,74.442L490.298,73.885L492.255,73.762L492.1,73.304L493.36,72.797L492.488,72.353L492.468,71.414L490.957,70.451L491.674,69.847L491.248,69.329L491.965,68.737L491.286,67.566L490.492,67.492L490.511,66.692L489.639,66.421L488.67,66.729L486.713,66.63L485.957,67.271L483.631,67.369L482.391,67.677L480.957,67.579L480.279,68.01L480.783,68.959L478.418,69.797L476.907,69.082L474.271,68.626L472.198,68.564L471.345,67.739L468.225,67.271L467.45,67.96L464.678,67.677L463.225,68.034L461.151,68.01L460.086,68.725L459.95,70.069L459.524,70.55L457.508,71.29L456.248,72.328L456.19,73.428L457.062,75.469L457.818,75.717L459.058,76.869L458.981,77.476L457.45,78.133L456.946,78.939L457.779,80.615L457.489,81.062L455.318,82.665L455.028,83.374L453.38,83.835L453.206,84.37L451.927,85.478L451.462,86.675L446.307,88.471L445.202,88.097L442.819,88.147L441.714,89.395L440.319,90.02L434.912,89.745L430.59,89.845L426.656,90.444L425.61,90.944L423.633,93.083L423.633,94.11L423.09,95.25L421.695,96.304L421.327,97.244L420.222,97.596L419.893,98.638L419.098,99.606L419.118,101.064L418.478,102.172L418.963,103.368L421.191,117.767L421.094,119.42L423.304,121.597L423.827,122.999L423.013,124.963L423.808,126.01L423.226,127.224L423.226,128.08L421.947,129.296L420.087,130.602L418.963,132.049L418.924,133.268L415.629,133.101L412.936,133.37L412.005,133.678L410.455,132.921L408.478,133.794L407.277,135.154L404.99,136.066L404.331,136.979L401.347,137.66L401.114,138.767L400.339,139.462L399.68,139.372L397.568,137.365L397.006,136.439L394.874,135.719L393.828,134.782L392.297,134.82L391.328,135.244L388.014,135.347L386.231,135.938L383.673,134.808L381.968,135.296L380.882,134.923L379.39,135.257L376.425,134.975L375.01,135.797L373.014,136.182L371.503,135.925L370.379,135.385L368.77,135.488L368.169,136.028L366.697,135.655L362.937,134.243L360.825,134.602L360.863,134.076L356.949,133.229L356.658,132.549L355.767,132.447L353.402,130.935L352.007,131.345L350.476,129.475L349.042,129.808L348.461,129.436L346.93,129.641L345.806,129.206L345.341,128.362L344.314,128.221L343.693,127.658L342.24,128.106L339.682,128.311L339.818,129.795L338.616,133.037L336.872,134.641L336.426,137.223L334.934,140.634L334.992,141.472L333.461,142.245L332.182,145.227L331.717,147.67L330.225,150.986L326.523,157.271L323.675,161.713L321.892,167.187L319.992,167.423L318.151,168.588L317.938,170.252L318.365,172.127L318.074,173.702L316.485,175.476L316.446,177.397L315.748,178.503L316.233,181.059L321.465,183.501L324.566,184.611L326.271,187.123L325.845,190.965L325.07,191.575L322.686,192.318L318.21,191.124L316.62,190.223L313.869,190.567L310.807,191.363L310.225,191.018L310.38,190.156L309.024,189.971L307.144,190.528L304.877,190.673L303.578,189.07L302.086,187.957L300.691,185.946L297.202,186.859L296.195,186.713L294.237,187.428L294.005,188.328L292.784,188.447L292.532,189.017L290.458,189.706L289.664,189.123L288.443,189.348L287.92,189.904L286.214,189.812L284.858,190.501L283.346,190.236L281.408,190.846L281.253,191.376L279.412,191.151L278.443,192.265L276.68,192.889L274.839,192.717L273.87,192.969L272.688,194.005L271.564,194.018L270.129,193.208L267.455,193.102L266.021,193.952L263.289,194.682L260.769,194.589L259.975,194.018L258.463,194.935L258.405,195.573L257.165,196.464L255.711,196.73L254.762,195.812L253.618,195.945L252.107,197.023L250.595,197.05L248.987,196.158L248.715,196.717L247.959,196.358L246.351,197.196L246.215,197.662L243.851,199.14L242.921,199.34L242.688,199.966L240.905,200.873L243.464,201.86L242.979,202.754L244.181,203.355L244.413,204.504L247.204,203.769L248.076,203.822L249.781,202.901L250.343,203.502L250.052,204.41L250.75,205.667L251.952,206.737L254.297,207.299L257.029,209.696L257.397,210.433L255.459,214.231L256.486,216.852L256.99,219.855L257.436,221.149L257.048,223.226L257.242,224.766L256.835,225.482L258.579,227.023L258.87,227.998L258.831,230.07L259.703,230.869L259.393,231.425L260.517,232.415L260.866,235.252L268.192,245.388L268.385,246.891L267.92,247.124L267.591,248.683L266.021,250.435L266.234,250.86L268.889,251.243L268.637,252.587L269.257,253.313L269.277,254.59L269.742,255.331L269.432,256.622L268.114,256.279L267.474,256.814L266.68,256.416L264.916,256.306L263.095,256.746L261.932,257.653L259.626,258.753L257.552,259.152L256.351,259.95L256.952,261.038L259.762,262.553L263.037,263.353L263.405,264.263L260.285,264.649L258.618,265.284L257.242,266.14L255.072,266.237L253.25,266.029L252.688,266.333L252.591,267.521L251.545,269.968L251.622,270.605L250.091,271.311L249.587,272.585L250.13,273.818L251.409,275.621L252.785,276.607L251.545,277.12L250.925,278.829L251.971,280.136L251.642,281.124L253.366,282.321L252.998,283.532L253.638,284.229L253.444,285.065L251.777,285.79L249.742,286.097L249.587,287.604L248.832,287.646L249.723,289.364L250.518,289.839L248.909,291.307L247.262,290.915L242.029,291.069L239.801,291.922L239.859,292.902L238.851,293.56L237.398,295.787L235.77,295.647L233.134,296.025L232.379,296.923L230.305,297.624L228.735,297.582L227.359,297.189L226.041,297.54L224.181,298.831L223.231,298.396L221.681,299.294L221.526,299.73L219.801,301.036L217.321,301.12L216.41,301.922L214.336,302.428L213.658,303.187L212.786,302.962L211.643,303.37L209.569,305.059L208.775,305.186L207.476,306.242L204.763,306.383L203.426,306.82L203.755,307.44L202.767,308.061L201.972,309.161L199.783,308.71L198.097,309.994L195.81,310.897L193.833,311.024L193.639,311.448L192.147,311.363L191.721,311.773L188.911,311.307L186.663,311.801L186.217,312.282L186.701,313.144L185.81,315.082L185.577,316.681L184.492,316.809L180.655,318.424L178.523,318.041L176.353,319.047L175.675,319.643L175.442,320.977L176.14,321.999L175.093,322.325L174.609,323.149L173.252,322.851L171.586,323.618L170.636,323.362L168.834,323.703L168.659,324.115L167.051,323.66L165.035,323.888L164.958,323.149L163.117,322.652L161.47,322.581L159.377,323.717L157.497,322.993L155.365,323.575L153.447,322.666L152.923,321.899L150.772,321.999L150.113,321.558L148.175,322.964L146.451,323.007L145.443,324.613L144.319,324.641L142.555,325.309L141.916,326.632L141.606,329.566L140.404,330.806L138.931,331.419L138.931,332.146L139.881,333.431L139.183,334.788L139.261,335.816L137.807,336.402L137.497,337.117L136.102,338.262L135.676,339.163L135.559,340.724L134.59,341.813L133.389,342.028L132.498,343.018L130.87,343.448L130.598,343.032L129.067,344.524L128.893,343.018L127.498,342.272L127.381,341.512L125.637,342.688L124.126,343.333L123.118,342.946L121.141,342.86L120.114,343.104L120.114,344.094L119.416,344.151L118.157,343.319L116.451,344.653L116.122,346.161L115.134,345.601L113.564,345.5L113.273,345.026L111.839,345.859L110.386,345.917L109.436,346.491L108.777,344.51L108.196,343.878L108.719,342.172L109.688,341.383L110.192,340.409L107.459,339.078L106.975,338.061L106.859,336.288L107.149,335.688L105.987,334.573L104.436,334.916L101.839,336.46L100.715,337.604L98.312,338.405L96.316,340.108L95.58,340.108L94.747,341.211L93.623,341.24L91.375,340.753L90.347,341.484L88.739,341.183L87.809,340.638L86.975,341.011L85.968,340.71L83.72,339.364L82.228,338.934L81.433,339.421L81.297,340.825L80.677,341.383L84.243,344.668L82.809,345.055L81.607,344.495L77.693,344.438L77.615,345.572L76.84,346.563L75.115,346.534L73.817,347.138L72.48,348.791L70.929,349.596L69.282,351.194L66.879,352.518L65.619,351.971L64.495,352.245L63.933,351.395L59.631,352.043L59.224,352.605L56.395,352.648L55.91,353.729L53.876,354.824L55.038,355.185L52.848,357.393L52.732,359.3L50.794,360.644L50.678,363.002L52.693,363.451L53.275,364.074L54.205,367.915L53.023,368.336L52.965,369.047L51.996,369.773L52.306,370.179L51.511,371.603L50.504,371.937L47.655,372.257L44.554,371.865L43.411,372.141L42.849,373.828L40,374.715L41.628,375.778L41.647,377.482L41.26,378.313L41.957,378.415L42.461,379.319L43.798,379.392L44.322,379.859L44.884,381.566L45.853,381.917L46.841,383.392L46.86,384.532L47.577,385.862L48.74,385.95L50,385.482L50.62,386.535L50.833,387.984L50.194,389.405L48.352,388.643L47.558,388.878L46.511,390.152L46.201,391.266L47.151,391.912L48.391,393.848L48.023,395.611L49.651,398.301L49.341,399.036L51.007,399.875L52.48,400.037L53.333,401.392L56.027,401.745L56.744,401.215L58.507,401.2L57.81,399.831L58.43,399.036L59.205,399.022L60.31,396.963L62.887,397.61L66.782,397.624L68.933,397.874L69.999,398.345L71.588,398.198L72.867,399.139L74.96,399.595L75.794,399.389L78.235,401.2L80.348,401.318L81.511,402.806L82.809,403.027L82.983,405.549L81.898,406.892L80.503,408.044L81.045,409.27L80.619,409.729L81.355,411.474L80.968,412.998L81.511,415.012L83.332,417.592L84.786,417.71L84.321,419.298L84.572,421.14L85.134,422.15L84.514,423.131L86.801,424.619L87.324,425.467L85.522,426.896L84.708,427.149L84.631,428.177L83.72,428.699L85.251,432.13L87.15,433.025L87.189,433.623L88.235,433.966L89.592,433.638L89.979,434.4L91.2,435.266L91.937,436.687L91.084,437.509L91.53,438.542L91.084,439.575L89.592,439.71L87.692,440.473L84.824,440.983L84.321,442.377L81.336,442.901L80.832,441.912L79.379,440.878L78.545,440.818L76.608,442.302L75.871,441.492L74.495,441.597L73.856,442.437L72.809,441.882L71.743,442.167L70.677,443.441L71.007,444.626L70.29,445.092L71.278,446.067L71.356,447.449L72.344,447.134L73.526,448.696L75.077,448.351L75.561,447.629L77.964,447.059L78.914,448.832L80.6,448.862L81.045,448.005L82.305,447.93L82.208,449.298L83.022,450.02L83.778,451.614L85.193,451.509L84.844,450.411L87.305,449.884L88.138,449.193L89.107,449.523L92.537,449.283L92.421,449.974L94.824,450.877L96.2,450.516L98.002,450.952L100.134,451.148L99.591,452.728L100.657,453.707L100.793,454.973L100.522,456.676L101.549,458.502L103.002,457.793L104.01,458.215L104.029,456.857L105.638,457.189L107.072,456.903L109.901,457.566L112.517,458.909L114.533,460.208L116.917,462.596L116.199,463.367L118.331,465.273L119.688,468.302L118.312,470.106L118.544,471.365L120.327,473.232L120.502,474.098L118.951,473.976L119.106,475.982L117.575,476.179L116.587,476.94L116.994,478.978L118.041,480.196L119.475,480.653L119.978,480.333L121.645,480.47L122.265,481.963L123.777,484.052L123.195,486.218L123.622,486.707L125.56,486.737L125.773,486.31L127.982,486.172L130.094,486.707L130.211,485.486L132.168,485.852L133.428,484.769L134.804,484.921L136.141,483.594L137.381,484.463L136.819,485.379L137.071,486.203L136.393,486.875L137.265,488.356L140.385,489.12L142.788,492.071L145.288,491.628L147.11,493.296L149.009,494.03L149.978,493.418L152.323,494.046L152.981,494.72L156.198,496.313L159.725,495.639L160.481,495.945L161.218,497.095L162.535,497.923L164.26,498.153L166.373,497.478L168.233,497.677L168.621,498.168L170.171,498.337L170.733,497.616L171.779,498.536L173.194,498.122L173.892,497.003L175.132,497.187L175.733,496.328L176.992,497.309L177.438,497.064L178.833,498.015L178.911,497.202L179.977,497.585L181.818,497.171L182.438,497.877L183.039,497.187L185.926,497.079L185.093,497.953L184.88,498.889L182.981,500.562L181.934,501.13L182.167,502.727L182.05,505.464L183.407,506.971L183.484,509.034L183.988,509.497L185.442,509.235L186.256,510.452L185.384,511.485L186.566,512.934L187.864,513.443L187.244,514.632L188,516.052L188.988,516.346L188.775,519.684L188.252,520.179L188.213,521.525L189.918,521.912L189.86,523.616L190.345,524.499L192.399,525.103L194.007,525.056L194.957,525.413L195.228,526.994L197.011,525.909L198.581,526.033L199.124,526.576L199.221,527.972L199.802,528.204L201.488,527.181L203.794,527.677L204.007,528.313L205.383,528.949L204.879,529.803L206.972,530.486L209.143,531.791L209.821,532.941L211.681,531.962L212.127,532.693L214.22,533.579L214.511,533.143L213.309,531.527L214.201,530.844L215.247,531.123L218.057,530.222L218.619,530.813L220.577,531.046L221.604,530.393L223.251,530.16L224.394,530.642L226.662,530.021L228.851,529.803L230.131,529.12L231.255,529.757L234.239,529.912L234.995,529.074L236.119,529.275L238.192,529.043L240.072,527.491L239.51,526.576L240.847,523.879L240.247,522.981L241.506,522.593L241.235,521.076L242.785,518.277L242.126,517.381L243.212,516.963L244.336,517.164L244.549,515.944L245.518,515.728L245.75,514.431L245.188,513.551L245.808,511.947L245.421,511.562L246.894,510.236L248.153,510.56L251.68,508.003L251.467,507.064L252.552,506.248L255.847,506.079L252.862,503.342L253.463,501.544L254.548,500.47L256.234,500.439L258.056,498.505L258.424,499.518L260.634,500.316L261.196,499.917L262.32,500.331L263.308,499.764L265.091,500.255L266.176,501.176L266.118,501.974L268.347,502.113L271.002,501.775L272.571,502.451L273.521,502.236L274.761,502.865L276.718,502.85L275.982,502.113L276.873,502.036L276.893,500.669L277.61,499.978L279.025,499.825L279.16,500.5L280.381,501.16L281.931,501.145L282.804,502.604L284.276,502.497L284.877,501.775L285.788,502.036L287.338,501.483L288.036,502.097L289.78,502.159L289.993,502.635L291.776,503.864L292.047,505.248L297.493,505.233L299.082,504.387L301.214,504.126L302.764,504.51L305.09,504.11L305.962,502.973L307.086,503.034L308.307,502.527L309.043,501.621L308.287,499.242L308.442,498.429L309.605,498.475L310.09,497.938L312.551,497.049L313.326,496.497L314.741,496.267L315.651,495.409L316.775,495.501L317.686,495.041L318.384,493.418L317.938,492.148L319.721,491.995L320.729,490.221L322.105,490.068L323.151,490.588L324.547,490.358L327.143,490.863L327.88,491.475L330.38,492.576L331.911,491.689L332.376,490.985L334.856,490.97L335.515,491.444L337.802,491.643L337.453,492.622L338.248,493.77L337.938,495.394L338.79,497.401L340.961,498.091L341.62,499.257L342.821,500.101L344.43,500.393L346.736,499.503L347.647,500.024L349.333,500.147L351.581,500.669L352.957,500.623L354.643,501.299L355.825,501.191L355.864,501.898L357.685,501.59L358.402,502.097L360.146,501.283L363.538,501.222L363.925,501.483L366.677,501.084L367.336,499.963L370.476,499.349L372.724,500.055L373.305,501.237L374.72,500.715L375.34,501.329L376.599,500.654L378.925,499.932L380.766,499.625L383.634,497.969L384.545,497.754L385.262,496.405L384.409,495.332L386.444,494.888L388.227,494.138L390.049,493.923L392.452,493.234L393.227,493.341L395.397,492.27L399.235,490.74L400.92,490.328L401.579,489.456L403.42,488.983L406.347,489.288L410.281,487.821L412.49,488.937L413.517,490.618L418.071,491.23L419.563,492.5L421.036,492.148L422.296,489.64L423.497,489.013L427.276,488.142L428.032,488.356L430.183,487.959L431.617,488.142L434.33,486.005L434.892,486.127L436.055,485.058L436.152,484.113L437.276,483.015L437.954,481.049L438.671,480.927L439.505,479.678L438.943,479.146L439.117,477.061L441.036,476.727L442.005,475.815L444.485,475.875L445.57,474.675L447.528,474.219L449.427,474.72L449.95,474.037L452.063,474.189L455.221,473.49L456.694,472.002L459.524,472.017L460.376,471.744L461.132,472.913L462.508,472.837L462.915,472.245L464.562,471.471L466.306,471.85L467.392,471.41L469.368,471.82L469.756,470.94L470.764,470.197L473.864,469.894L475.628,468.817L476.112,467.953L476.849,468.196L478.108,467.787L479.155,468.287L479.484,470.03L482.624,470.409L484.193,469.848L487.701,469.075L488.825,469.393L490.666,468.863L491.054,469.105L493.612,468.802L494.833,468.332L495.608,467.408L496.344,467.635L499.038,467.484L500.375,467.741L501.887,466.938L503.146,467.105L503.747,466.439L505.026,466.393L507.662,466.772L507.371,466.166L509.057,466.287L510.956,466.015L511.828,467.135L514.173,466.666L515.588,467.711L515.762,468.923L517.855,469.605L520.258,471.987L520.801,472.002L521.402,470.546L522.526,470.06L523.534,470.227L525.278,469.712L526.479,471.152L528.029,471.259L529.328,472.002L530.82,472.336L531.595,473.171L533.863,472.989L534.909,471.881L536.808,473.9L538.146,473.718L539.425,474.006L543.029,476.423L546.304,477.198L546.944,477.731L549.986,478.248L551.73,478.857L553.397,478.643L556.362,478.689L557.215,479.054L557.331,476.757L558.998,475.891L559.695,474.462L559.947,473.05L559.172,472.412L560.432,472.473L560.897,473.141L563.649,473.657L563.164,474.644L565.296,475.283L566.517,476.134L569.307,476.164L572.408,476.97L574.114,477.031L575.896,476.529L578.358,477.198L579.811,476.94L583.493,478.461L584.733,480.059L585.819,480.653L588.105,480.272L589.869,477.822L593.086,478.4L594.462,477.548L593.435,476.027L593.551,474.265L592.156,473.687L592.815,471.775L591.361,471.001L592.156,467.529L591.419,467.241L591.787,466.242L591.652,464.516L590.896,464.199L587.543,463.548L585.218,463.624L584.578,462.762L582.388,462.747L581.788,461.674L582.059,460.555L581.284,460.45L581.749,458.879L582.815,458.487L581.943,457.4L582.098,455.199L582.931,455.199L585.935,452.382L588.144,452.201L590.024,452.442L591.691,451.93L592.156,450.742L594.52,450.396L594.733,449.478L596.225,448.922L597.33,449.403L600.082,449.328L599.694,448.381L600.082,447.104L599.539,446.413L599.345,444.566L596.535,443.246L596.652,441.103L594.772,439.515L594.811,438.527L594.094,437.539L593.667,435.625L592.834,434.743L591.148,434.205L589.21,434.683L587.757,433.369L586.303,433.025L586.826,431.607L585.954,430.712L584.869,430.414L583.532,429.31L579.327,427.79L577.524,427.596L577.292,427.045L575.412,426.732L575.315,411.74L575.78,408.192L571.711,408.458L570.451,408.812L570.16,410.912L567.893,410.764L563.397,407.542L564.715,405.77L563.145,405.667L562.583,405.077L562.583,403.219L563.184,402.703L566.885,402.791L568.978,402.467L570.18,403.086L572.505,402.718L573.707,401.834L573.648,400.744L575.606,400.596L576.71,399.581L578.222,399.551L578.144,399.036L579.385,398.271L578.551,397.345L579.83,397.036L581.865,397.551L587.369,396.874L589.598,396.301L590.295,396.389L596.458,395.258L598.163,394.583L599.927,394.773L604.578,392.66L606.303,392.601L611.961,391.428L612.388,391.002L615.895,390.797L618.201,390.431L618.24,389.962L620.934,388.965L625.411,387.94L627.445,388.028L628.221,387.311L630.294,386.726L633.957,386.799L635.081,386.462L634.906,385.585L633.531,384.926L633.511,383.772L632.813,382.194L632.658,379.348L633.899,378.663L638.53,375.196L642.116,370.615L643.627,366.117L645.449,359.473L647.057,350.488L650.526,345.558L650.953,343.003L651.204,337.318L669.382,334.93L677.386,334.416L679.285,330.364L678.936,327.657L682.037,324.385L685.254,320.253L690.719,315.421L701.726,307.948L708.529,306.933L710.389,304.384L712.036,302.836L715.408,301.247L716.745,301.008L719.865,299.687L720.66,299.547L721.571,300.727L722.656,301.233L722.501,302.006L724.168,304.567L725.815,306.059L726.939,303.595L728.78,302.048L730.388,301.219L734.361,298.817L737.036,297.877L740.272,297.568L741.59,297.175L743.295,297.133L747.791,295.353L749.574,294.414L751.531,292.846L752.171,291.782L752.209,290.706L750.272,287.702L753.45,285.553L749.128,282.126L749.167,281.304L749.923,279.357L747.171,278.662L748.392,277.231L748.586,275.33L750.117,274.484L751.105,273.389L753.082,272.793Z" fill="#e6f4ea" stroke="#137333" stroke-width="4" stroke-linejoin="round" stroke-linecap="round" />
  
  <!-- 内发光描边 -->
  <path d="M760,269.512L759.283,264.07L745.369,253.711L744.07,252.12L743.373,247.807L739.535,242.14L738.586,239.837L736.687,236.149L735.989,234.016L732.966,229.243L729.788,229.176L728.257,228.661L726.668,228.58L727.443,226.645L727.578,224.253L728.218,222.322L729.303,221.769L729.923,220.609L729.4,220.084L723.896,220.758L720.427,220.987L716.338,221.513L714.672,220.272L710.912,219.41L709.091,218.763L707.656,218.763L706.106,216.987L703.994,215.373L702.443,214.929L699.73,213.452L697.211,213.062L696.223,213.25L695.292,211.144L693.723,210.486L692.075,209.16L691.688,208.463L689.711,207.928L686.998,206.442L676.223,202.247L675.991,201.34L672.754,200.326L669.479,199.02L667.134,199.42L665.313,198.474L663.355,198.168L663.336,198.634L661.398,198.274L658.937,197.529L656.611,197.782L655.41,197.436L653.53,197.702L651.34,197.462L651.03,196.85L649.809,196.544L648.666,196.797L646.515,196.424L643.511,197.209L639.228,197.436L637.755,197.981L635.023,197.436L632.969,197.569L631.922,197.103L629.558,197.515L625.139,195.453L623.783,195.281L618.395,195.533L615.798,195.414L612.388,195.959L608.202,195.64L606.264,194.749L604.655,193.088L604.035,193.088L602.407,194.523L601.07,193.938L598.144,193.699L597.795,193.181L596.69,193.009L595.915,191.735L594.617,191.217L592.117,191.443L590.78,191.138L589.326,191.681L586.807,191.973L586.342,191.429L587.311,190.156L586.671,189.176L585.237,188.566L584.385,188.739L584.656,187.679L583.416,185.245L583.377,184.412L581.827,183.395L580.179,182.669L580.354,179.688L581.555,175.082L584.23,171.746L587.098,169.02L591.419,165.827L590.993,164.454L591.206,162.744L590.043,161.504L588.9,159.653L589.133,159.197L587.388,156.725L590.005,154.762L590.412,153.359L591.342,152.581L591.729,150.791L592.446,150.286L593.028,148.965L592.679,148.33L591.09,148.227L591.671,145.459L592.233,143.974L591.129,142.439L590.295,142.335L590.295,141.678L588.726,140.57L589.21,138.883L588.319,138.445L588.086,137.017L587.427,136.323L585.198,135.219L583.202,135.321L580.838,132.549L579.637,131.575L577.311,128.848L576.73,128.579L575.47,126.138L574.424,125.103L575.625,123.164L575.044,122.501L573.803,122.348L573.513,121.278L573.997,120.54L573.803,119.433L571.594,117.856L570.897,116.116L569.966,115.037L571.168,114.821L569.501,113.642L565.877,112.894L564.734,112.273L563.319,112.337L561.459,110.627L561.284,109.274L561.788,107.859L561.149,107.29L560.354,107.568L557.816,107.215L557.738,108.566L554.967,108.844L551.575,108.794L550.742,106.848L548.087,106.344L547.913,105.271L546.343,104.464L546.459,103.128L545.51,102.436L543.281,102.738L539.599,102.172L538.921,102.801L537.312,102.94L536.479,103.809L534.89,104.25L532.525,103.721L530.064,104.036L529.018,103.317L528.456,102.02L526.15,100.775L525.685,99.995L522.08,100.259L521.227,99.417L518.844,98.575L518.185,97.935L517.177,98.236L516.227,97.847L515.065,96.655L514.852,95.451L514.231,94.887L515.2,92.996L514.193,92.558L514.173,91.995L512.991,92.02L512.604,90.932L511.983,90.632L510.685,91.282L509.929,91.244L507.487,89.995L507.565,89.133L506.15,88.571L503.36,87.947L502.333,88.084L500.918,87.061L500.24,87.211L499.561,86.45L497.449,86.376L495.298,85.503L494.93,84.768L496.48,84.158L496.984,83.076L498.96,81.758L498.999,80.975L498.166,81.199L497.061,80.019L494.93,79.287L494.213,79.783L492.12,78.468L490.686,78.431L489.949,77.674L490.763,77.649L489.6,76.906L489.251,76.187L488.031,75.902L488.593,74.491L489.658,74.442L490.298,73.885L492.255,73.762L492.1,73.304L493.36,72.797L492.488,72.353L492.468,71.414L490.957,70.451L491.674,69.847L491.248,69.329L491.965,68.737L491.286,67.566L490.492,67.492L490.511,66.692L489.639,66.421L488.67,66.729L486.713,66.63L485.957,67.271L483.631,67.369L482.391,67.677L480.957,67.579L480.279,68.01L480.783,68.959L478.418,69.797L476.907,69.082L474.271,68.626L472.198,68.564L471.345,67.739L468.225,67.271L467.45,67.96L464.678,67.677L463.225,68.034L461.151,68.01L460.086,68.725L459.95,70.069L459.524,70.55L457.508,71.29L456.248,72.328L456.19,73.428L457.062,75.469L457.818,75.717L459.058,76.869L458.981,77.476L457.45,78.133L456.946,78.939L457.779,80.615L457.489,81.062L455.318,82.665L455.028,83.374L453.38,83.835L453.206,84.37L451.927,85.478L451.462,86.675L446.307,88.471L445.202,88.097L442.819,88.147L441.714,89.395L440.319,90.02L434.912,89.745L430.59,89.845L426.656,90.444L425.61,90.944L423.633,93.083L423.633,94.11L423.09,95.25L421.695,96.304L421.327,97.244L420.222,97.596L419.893,98.638L419.098,99.606L419.118,101.064L418.478,102.172L418.963,103.368L421.191,117.767L421.094,119.42L423.304,121.597L423.827,122.999L423.013,124.963L423.808,126.01L423.226,127.224L423.226,128.08L421.947,129.296L420.087,130.602L418.963,132.049L418.924,133.268L415.629,133.101L412.936,133.37L412.005,133.678L410.455,132.921L408.478,133.794L407.277,135.154L404.99,136.066L404.331,136.979L401.347,137.66L401.114,138.767L400.339,139.462L399.68,139.372L397.568,137.365L397.006,136.439L394.874,135.719L393.828,134.782L392.297,134.82L391.328,135.244L388.014,135.347L386.231,135.938L383.673,134.808L381.968,135.296L380.882,134.923L379.39,135.257L376.425,134.975L375.01,135.797L373.014,136.182L371.503,135.925L370.379,135.385L368.77,135.488L368.169,136.028L366.697,135.655L362.937,134.243L360.825,134.602L360.863,134.076L356.949,133.229L356.658,132.549L355.767,132.447L353.402,130.935L352.007,131.345L350.476,129.475L349.042,129.808L348.461,129.436L346.93,129.641L345.806,129.206L345.341,128.362L344.314,128.221L343.693,127.658L342.24,128.106L339.682,128.311L339.818,129.795L338.616,133.037L336.872,134.641L336.426,137.223L334.934,140.634L334.992,141.472L333.461,142.245L332.182,145.227L331.717,147.67L330.225,150.986L326.523,157.271L323.675,161.713L321.892,167.187L319.992,167.423L318.151,168.588L317.938,170.252L318.365,172.127L318.074,173.702L316.485,175.476L316.446,177.397L315.748,178.503L316.233,181.059L321.465,183.501L324.566,184.611L326.271,187.123L325.845,190.965L325.07,191.575L322.686,192.318L318.21,191.124L316.62,190.223L313.869,190.567L310.807,191.363L310.225,191.018L310.38,190.156L309.024,189.971L307.144,190.528L304.877,190.673L303.578,189.07L302.086,187.957L300.691,185.946L297.202,186.859L296.195,186.713L294.237,187.428L294.005,188.328L292.784,188.447L292.532,189.017L290.458,189.706L289.664,189.123L288.443,189.348L287.92,189.904L286.214,189.812L284.858,190.501L283.346,190.236L281.408,190.846L281.253,191.376L279.412,191.151L278.443,192.265L276.68,192.889L274.839,192.717L273.87,192.969L272.688,194.005L271.564,194.018L270.129,193.208L267.455,193.102L266.021,193.952L263.289,194.682L260.769,194.589L259.975,194.018L258.463,194.935L258.405,195.573L257.165,196.464L255.711,196.73L254.762,195.812L253.618,195.945L252.107,197.023L250.595,197.05L248.987,196.158L248.715,196.717L247.959,196.358L246.351,197.196L246.215,197.662L243.851,199.14L242.921,199.34L242.688,199.966L240.905,200.873L243.464,201.86L242.979,202.754L244.181,203.355L244.413,204.504L247.204,203.769L248.076,203.822L249.781,202.901L250.343,203.502L250.052,204.41L250.75,205.667L251.952,206.737L254.297,207.299L257.029,209.696L257.397,210.433L255.459,214.231L256.486,216.852L256.99,219.855L257.436,221.149L257.048,223.226L257.242,224.766L256.835,225.482L258.579,227.023L258.87,227.998L258.831,230.07L259.703,230.869L259.393,231.425L260.517,232.415L260.866,235.252L268.192,245.388L268.385,246.891L267.92,247.124L267.591,248.683L266.021,250.435L266.234,250.86L268.889,251.243L268.637,252.587L269.257,253.313L269.277,254.59L269.742,255.331L269.432,256.622L268.114,256.279L267.474,256.814L266.68,256.416L264.916,256.306L263.095,256.746L261.932,257.653L259.626,258.753L257.552,259.152L256.351,259.95L256.952,261.038L259.762,262.553L263.037,263.353L263.405,264.263L260.285,264.649L258.618,265.284L257.242,266.14L255.072,266.237L253.25,266.029L252.688,266.333L252.591,267.521L251.545,269.968L251.622,270.605L250.091,271.311L249.587,272.585L250.13,273.818L251.409,275.621L252.785,276.607L251.545,277.12L250.925,278.829L251.971,280.136L251.642,281.124L253.366,282.321L252.998,283.532L253.638,284.229L253.444,285.065L251.777,285.79L249.742,286.097L249.587,287.604L248.832,287.646L249.723,289.364L250.518,289.839L248.909,291.307L247.262,290.915L242.029,291.069L239.801,291.922L239.859,292.902L238.851,293.56L237.398,295.787L235.77,295.647L233.134,296.025L232.379,296.923L230.305,297.624L228.735,297.582L227.359,297.189L226.041,297.54L224.181,298.831L223.231,298.396L221.681,299.294L221.526,299.73L219.801,301.036L217.321,301.12L216.41,301.922L214.336,302.428L213.658,303.187L212.786,302.962L211.643,303.37L209.569,305.059L208.775,305.186L207.476,306.242L204.763,306.383L203.426,306.82L203.755,307.44L202.767,308.061L201.972,309.161L199.783,308.71L198.097,309.994L195.81,310.897L193.833,311.024L193.639,311.448L192.147,311.363L191.721,311.773L188.911,311.307L186.663,311.801L186.217,312.282L186.701,313.144L185.81,315.082L185.577,316.681L184.492,316.809L180.655,318.424L178.523,318.041L176.353,319.047L175.675,319.643L175.442,320.977L176.14,321.999L175.093,322.325L174.609,323.149L173.252,322.851L171.586,323.618L170.636,323.362L168.834,323.703L168.659,324.115L167.051,323.66L165.035,323.888L164.958,323.149L163.117,322.652L161.47,322.581L159.377,323.717L157.497,322.993L155.365,323.575L153.447,322.666L152.923,321.899L150.772,321.999L150.113,321.558L148.175,322.964L146.451,323.007L145.443,324.613L144.319,324.641L142.555,325.309L141.916,326.632L141.606,329.566L140.404,330.806L138.931,331.419L138.931,332.146L139.881,333.431L139.183,334.788L139.261,335.816L137.807,336.402L137.497,337.117L136.102,338.262L135.676,339.163L135.559,340.724L134.59,341.813L133.389,342.028L132.498,343.018L130.87,343.448L130.598,343.032L129.067,344.524L128.893,343.018L127.498,342.272L127.381,341.512L125.637,342.688L124.126,343.333L123.118,342.946L121.141,342.86L120.114,343.104L120.114,344.094L119.416,344.151L118.157,343.319L116.451,344.653L116.122,346.161L115.134,345.601L113.564,345.5L113.273,345.026L111.839,345.859L110.386,345.917L109.436,346.491L108.777,344.51L108.196,343.878L108.719,342.172L109.688,341.383L110.192,340.409L107.459,339.078L106.975,338.061L106.859,336.288L107.149,335.688L105.987,334.573L104.436,334.916L101.839,336.46L100.715,337.604L98.312,338.405L96.316,340.108L95.58,340.108L94.747,341.211L93.623,341.24L91.375,340.753L90.347,341.484L88.739,341.183L87.809,340.638L86.975,341.011L85.968,340.71L83.72,339.364L82.228,338.934L81.433,339.421L81.297,340.825L80.677,341.383L84.243,344.668L82.809,345.055L81.607,344.495L77.693,344.438L77.615,345.572L76.84,346.563L75.115,346.534L73.817,347.138L72.48,348.791L70.929,349.596L69.282,351.194L66.879,352.518L65.619,351.971L64.495,352.245L63.933,351.395L59.631,352.043L59.224,352.605L56.395,352.648L55.91,353.729L53.876,354.824L55.038,355.185L52.848,357.393L52.732,359.3L50.794,360.644L50.678,363.002L52.693,363.451L53.275,364.074L54.205,367.915L53.023,368.336L52.965,369.047L51.996,369.773L52.306,370.179L51.511,371.603L50.504,371.937L47.655,372.257L44.554,371.865L43.411,372.141L42.849,373.828L40,374.715L41.628,375.778L41.647,377.482L41.26,378.313L41.957,378.415L42.461,379.319L43.798,379.392L44.322,379.859L44.884,381.566L45.853,381.917L46.841,383.392L46.86,384.532L47.577,385.862L48.74,385.95L50,385.482L50.62,386.535L50.833,387.984L50.194,389.405L48.352,388.643L47.558,388.878L46.511,390.152L46.201,391.266L47.151,391.912L48.391,393.848L48.023,395.611L49.651,398.301L49.341,399.036L51.007,399.875L52.48,400.037L53.333,401.392L56.027,401.745L56.744,401.215L58.507,401.2L57.81,399.831L58.43,399.036L59.205,399.022L60.31,396.963L62.887,397.61L66.782,397.624L68.933,397.874L69.999,398.345L71.588,398.198L72.867,399.139L74.96,399.595L75.794,399.389L78.235,401.2L80.348,401.318L81.511,402.806L82.809,403.027L82.983,405.549L81.898,406.892L80.503,408.044L81.045,409.27L80.619,409.729L81.355,411.474L80.968,412.998L81.511,415.012L83.332,417.592L84.786,417.71L84.321,419.298L84.572,421.14L85.134,422.15L84.514,423.131L86.801,424.619L87.324,425.467L85.522,426.896L84.708,427.149L84.631,428.177L83.72,428.699L85.251,432.13L87.15,433.025L87.189,433.623L88.235,433.966L89.592,433.638L89.979,434.4L91.2,435.266L91.937,436.687L91.084,437.509L91.53,438.542L91.084,439.575L89.592,439.71L87.692,440.473L84.824,440.983L84.321,442.377L81.336,442.901L80.832,441.912L79.379,440.878L78.545,440.818L76.608,442.302L75.871,441.492L74.495,441.597L73.856,442.437L72.809,441.882L71.743,442.167L70.677,443.441L71.007,444.626L70.29,445.092L71.278,446.067L71.356,447.449L72.344,447.134L73.526,448.696L75.077,448.351L75.561,447.629L77.964,447.059L78.914,448.832L80.6,448.862L81.045,448.005L82.305,447.93L82.208,449.298L83.022,450.02L83.778,451.614L85.193,451.509L84.844,450.411L87.305,449.884L88.138,449.193L89.107,449.523L92.537,449.283L92.421,449.974L94.824,450.877L96.2,450.516L98.002,450.952L100.134,451.148L99.591,452.728L100.657,453.707L100.793,454.973L100.522,456.676L101.549,458.502L103.002,457.793L104.01,458.215L104.029,456.857L105.638,457.189L107.072,456.903L109.901,457.566L112.517,458.909L114.533,460.208L116.917,462.596L116.199,463.367L118.331,465.273L119.688,468.302L118.312,470.106L118.544,471.365L120.327,473.232L120.502,474.098L118.951,473.976L119.106,475.982L117.575,476.179L116.587,476.94L116.994,478.978L118.041,480.196L119.475,480.653L119.978,480.333L121.645,480.47L122.265,481.963L123.777,484.052L123.195,486.218L123.622,486.707L125.56,486.737L125.773,486.31L127.982,486.172L130.094,486.707L130.211,485.486L132.168,485.852L133.428,484.769L134.804,484.921L136.141,483.594L137.381,484.463L136.819,485.379L137.071,486.203L136.393,486.875L137.265,488.356L140.385,489.12L142.788,492.071L145.288,491.628L147.11,493.296L149.009,494.03L149.978,493.418L152.323,494.046L152.981,494.72L156.198,496.313L159.725,495.639L160.481,495.945L161.218,497.095L162.535,497.923L164.26,498.153L166.373,497.478L168.233,497.677L168.621,498.168L170.171,498.337L170.733,497.616L171.779,498.536L173.194,498.122L173.892,497.003L175.132,497.187L175.733,496.328L176.992,497.309L177.438,497.064L178.833,498.015L178.911,497.202L179.977,497.585L181.818,497.171L182.438,497.877L183.039,497.187L185.926,497.079L185.093,497.953L184.88,498.889L182.981,500.562L181.934,501.13L182.167,502.727L182.05,505.464L183.407,506.971L183.484,509.034L183.988,509.497L185.442,509.235L186.256,510.452L185.384,511.485L186.566,512.934L187.864,513.443L187.244,514.632L188,516.052L188.988,516.346L188.775,519.684L188.252,520.179L188.213,521.525L189.918,521.912L189.86,523.616L190.345,524.499L192.399,525.103L194.007,525.056L194.957,525.413L195.228,526.994L197.011,525.909L198.581,526.033L199.124,526.576L199.221,527.972L199.802,528.204L201.488,527.181L203.794,527.677L204.007,528.313L205.383,528.949L204.879,529.803L206.972,530.486L209.143,531.791L209.821,532.941L211.681,531.962L212.127,532.693L214.22,533.579L214.511,533.143L213.309,531.527L214.201,530.844L215.247,531.123L218.057,530.222L218.619,530.813L220.577,531.046L221.604,530.393L223.251,530.16L224.394,530.642L226.662,530.021L228.851,529.803L230.131,529.12L231.255,529.757L234.239,529.912L234.995,529.074L236.119,529.275L238.192,529.043L240.072,527.491L239.51,526.576L240.847,523.879L240.247,522.981L241.506,522.593L241.235,521.076L242.785,518.277L242.126,517.381L243.212,516.963L244.336,517.164L244.549,515.944L245.518,515.728L245.75,514.431L245.188,513.551L245.808,511.947L245.421,511.562L246.894,510.236L248.153,510.56L251.68,508.003L251.467,507.064L252.552,506.248L255.847,506.079L252.862,503.342L253.463,501.544L254.548,500.47L256.234,500.439L258.056,498.505L258.424,499.518L260.634,500.316L261.196,499.917L262.32,500.331L263.308,499.764L265.091,500.255L266.176,501.176L266.118,501.974L268.347,502.113L271.002,501.775L272.571,502.451L273.521,502.236L274.761,502.865L276.718,502.85L275.982,502.113L276.873,502.036L276.893,500.669L277.61,499.978L279.025,499.825L279.16,500.5L280.381,501.16L281.931,501.145L282.804,502.604L284.276,502.497L284.877,501.775L285.788,502.036L287.338,501.483L288.036,502.097L289.78,502.159L289.993,502.635L291.776,503.864L292.047,505.248L297.493,505.233L299.082,504.387L301.214,504.126L302.764,504.51L305.09,504.11L305.962,502.973L307.086,503.034L308.307,502.527L309.043,501.621L308.287,499.242L308.442,498.429L309.605,498.475L310.09,497.938L312.551,497.049L313.326,496.497L314.741,496.267L315.651,495.409L316.775,495.501L317.686,495.041L318.384,493.418L317.938,492.148L319.721,491.995L320.729,490.221L322.105,490.068L323.151,490.588L324.547,490.358L327.143,490.863L327.88,491.475L330.38,492.576L331.911,491.689L332.376,490.985L334.856,490.97L335.515,491.444L337.802,491.643L337.453,492.622L338.248,493.77L337.938,495.394L338.79,497.401L340.961,498.091L341.62,499.257L342.821,500.101L344.43,500.393L346.736,499.503L347.647,500.024L349.333,500.147L351.581,500.669L352.957,500.623L354.643,501.299L355.825,501.191L355.864,501.898L357.685,501.59L358.402,502.097L360.146,501.283L363.538,501.222L363.925,501.483L366.677,501.084L367.336,499.963L370.476,499.349L372.724,500.055L373.305,501.237L374.72,500.715L375.34,501.329L376.599,500.654L378.925,499.932L380.766,499.625L383.634,497.969L384.545,497.754L385.262,496.405L384.409,495.332L386.444,494.888L388.227,494.138L390.049,493.923L392.452,493.234L393.227,493.341L395.397,492.27L399.235,490.74L400.92,490.328L401.579,489.456L403.42,488.983L406.347,489.288L410.281,487.821L412.49,488.937L413.517,490.618L418.071,491.23L419.563,492.5L421.036,492.148L422.296,489.64L423.497,489.013L427.276,488.142L428.032,488.356L430.183,487.959L431.617,488.142L434.33,486.005L434.892,486.127L436.055,485.058L436.152,484.113L437.276,483.015L437.954,481.049L438.671,480.927L439.505,479.678L438.943,479.146L439.117,477.061L441.036,476.727L442.005,475.815L444.485,475.875L445.57,474.675L447.528,474.219L449.427,474.72L449.95,474.037L452.063,474.189L455.221,473.49L456.694,472.002L459.524,472.017L460.376,471.744L461.132,472.913L462.508,472.837L462.915,472.245L464.562,471.471L466.306,471.85L467.392,471.41L469.368,471.82L469.756,470.94L470.764,470.197L473.864,469.894L475.628,468.817L476.112,467.953L476.849,468.196L478.108,467.787L479.155,468.287L479.484,470.03L482.624,470.409L484.193,469.848L487.701,469.075L488.825,469.393L490.666,468.863L491.054,469.105L493.612,468.802L494.833,468.332L495.608,467.408L496.344,467.635L499.038,467.484L500.375,467.741L501.887,466.938L503.146,467.105L503.747,466.439L505.026,466.393L507.662,466.772L507.371,466.166L509.057,466.287L510.956,466.015L511.828,467.135L514.173,466.666L515.588,467.711L515.762,468.923L517.855,469.605L520.258,471.987L520.801,472.002L521.402,470.546L522.526,470.06L523.534,470.227L525.278,469.712L526.479,471.152L528.029,471.259L529.328,472.002L530.82,472.336L531.595,473.171L533.863,472.989L534.909,471.881L536.808,473.9L538.146,473.718L539.425,474.006L543.029,476.423L546.304,477.198L546.944,477.731L549.986,478.248L551.73,478.857L553.397,478.643L556.362,478.689L557.215,479.054L557.331,476.757L558.998,475.891L559.695,474.462L559.947,473.05L559.172,472.412L560.432,472.473L560.897,473.141L563.649,473.657L563.164,474.644L565.296,475.283L566.517,476.134L569.307,476.164L572.408,476.97L574.114,477.031L575.896,476.529L578.358,477.198L579.811,476.94L583.493,478.461L584.733,480.059L585.819,480.653L588.105,480.272L589.869,477.822L593.086,478.4L594.462,477.548L593.435,476.027L593.551,474.265L592.156,473.687L592.815,471.775L591.361,471.001L592.156,467.529L591.419,467.241L591.787,466.242L591.652,464.516L590.896,464.199L587.543,463.548L585.218,463.624L584.578,462.762L582.388,462.747L581.788,461.674L582.059,460.555L581.284,460.45L581.749,458.879L582.815,458.487L581.943,457.4L582.098,455.199L582.931,455.199L585.935,452.382L588.144,452.201L590.024,452.442L591.691,451.93L592.156,450.742L594.52,450.396L594.733,449.478L596.225,448.922L597.33,449.403L600.082,449.328L599.694,448.381L600.082,447.104L599.539,446.413L599.345,444.566L596.535,443.246L596.652,441.103L594.772,439.515L594.811,438.527L594.094,437.539L593.667,435.625L592.834,434.743L591.148,434.205L589.21,434.683L587.757,433.369L586.303,433.025L586.826,431.607L585.954,430.712L584.869,430.414L583.532,429.31L579.327,427.79L577.524,427.596L577.292,427.045L575.412,426.732L575.315,411.74L575.78,408.192L571.711,408.458L570.451,408.812L570.16,410.912L567.893,410.764L563.397,407.542L564.715,405.77L563.145,405.667L562.583,405.077L562.583,403.219L563.184,402.703L566.885,402.791L568.978,402.467L570.18,403.086L572.505,402.718L573.707,401.834L573.648,400.744L575.606,400.596L576.71,399.581L578.222,399.551L578.144,399.036L579.385,398.271L578.551,397.345L579.83,397.036L581.865,397.551L587.369,396.874L589.598,396.301L590.295,396.389L596.458,395.258L598.163,394.583L599.927,394.773L604.578,392.66L606.303,392.601L611.961,391.428L612.388,391.002L615.895,390.797L618.201,390.431L618.24,389.962L620.934,388.965L625.411,387.94L627.445,388.028L628.221,387.311L630.294,386.726L633.957,386.799L635.081,386.462L634.906,385.585L633.531,384.926L633.511,383.772L632.813,382.194L632.658,379.348L633.899,378.663L638.53,375.196L642.116,370.615L643.627,366.117L645.449,359.473L647.057,350.488L650.526,345.558L650.953,343.003L651.204,337.318L669.382,334.93L677.386,334.416L679.285,330.364L678.936,327.657L682.037,324.385L685.254,320.253L690.719,315.421L701.726,307.948L708.529,306.933L710.389,304.384L712.036,302.836L715.408,301.247L716.745,301.008L719.865,299.687L720.66,299.547L721.571,300.727L722.656,301.233L722.501,302.006L724.168,304.567L725.815,306.059L726.939,303.595L728.78,302.048L730.388,301.219L734.361,298.817L737.036,297.877L740.272,297.568L741.59,297.175L743.295,297.133L747.791,295.353L749.574,294.414L751.531,292.846L752.171,291.782L752.209,290.706L750.272,287.702L753.45,285.553L749.128,282.126L749.167,281.304L749.923,279.357L747.171,278.662L748.392,277.231L748.586,275.33L750.117,274.484L751.105,273.389L753.082,272.793Z" fill="none" stroke="#2e7d32" stroke-width="1.5" stroke-linejoin="round" stroke-linecap="round" opacity="0.6" />
</svg>