<svg xmlns="http://www.w3.org/2000/svg" width="800" height="600" viewBox="0 0 800 600">
  <!-- 背景色，采用淡米黄色 -->
  <rect width="100%" height="100%" fill="#f5f2eb" />
  
  <!-- 阴影层 -->
  <path d="M281.051,126.86L241.664,143.124L211.729,186.974L136.105,236.495L138.469,300.895L178.644,317.174L184.945,311.512L214.88,303.018L273.96,326.377L183.37,389.392L201.488,360.36L110.11,376.646L99.082,424.096L40,477.934L47.878,526.827L111.686,495.647L158.162,509.11L216.456,477.225L236.149,507.693L273.96,477.934L246.389,465.181L278.687,434.72L284.989,386.559L329.891,353.28L395.274,361.068L426.783,386.559L394.486,423.387L451.204,481.476L496.893,474.391L500.044,506.985L580.394,514.78L558.336,419.846L575.667,394.349L604.814,434.011L641.05,433.303L644.202,388.683L644.202,387.976L596.148,351.155L602.451,276.83L652.866,278.246L653.654,278.246L654.442,278.953L654.442,279.662L696.981,336.288L745.033,308.681L733.217,244.986L760,218.1L760,216.686L721.401,213.148L656.805,158.682L596.936,213.856L522.1,224.468L503.195,196.17L538.643,174.242L563.851,201.83L676.498,127.567L636.323,135.346L610.328,102.82L578.031,78.782L577.243,78.782L573.304,71.006L537.856,95.043L537.856,80.903L525.252,63.938L452.778,56.163L440.962,75.954L362.188,87.973L345.646,116.254ZM422.845,497.772L398.425,465.889L394.486,543.837L438.599,543.837L453.566,509.11ZM631.598,295.231L641.838,335.581L666.258,319.298L630.81,294.524ZM649.715,283.908L654.442,279.662L654.442,278.953L653.654,278.246L652.866,278.246L648.927,282.492L649.715,283.201ZM631.598,298.77L631.598,295.231L630.81,294.524ZM644.202,388.683L645.777,389.392L644.989,387.267L644.202,387.976ZM648.927,282.492L649.715,283.908L649.715,283.201ZM716.674,358.236L717.461,357.527L716.674,357.527ZM654.442,390.809L655.23,390.809L654.442,390.1Z" fill="#d1e7dd" opacity="0.3" transform="translate(5, 8)" />
  
  <!-- 填充与主轮廓 -->
  <path d="M281.051,126.86L241.664,143.124L211.729,186.974L136.105,236.495L138.469,300.895L178.644,317.174L184.945,311.512L214.88,303.018L273.96,326.377L183.37,389.392L201.488,360.36L110.11,376.646L99.082,424.096L40,477.934L47.878,526.827L111.686,495.647L158.162,509.11L216.456,477.225L236.149,507.693L273.96,477.934L246.389,465.181L278.687,434.72L284.989,386.559L329.891,353.28L395.274,361.068L426.783,386.559L394.486,423.387L451.204,481.476L496.893,474.391L500.044,506.985L580.394,514.78L558.336,419.846L575.667,394.349L604.814,434.011L641.05,433.303L644.202,388.683L644.202,387.976L596.148,351.155L602.451,276.83L652.866,278.246L653.654,278.246L654.442,278.953L654.442,279.662L696.981,336.288L745.033,308.681L733.217,244.986L760,218.1L760,216.686L721.401,213.148L656.805,158.682L596.936,213.856L522.1,224.468L503.195,196.17L538.643,174.242L563.851,201.83L676.498,127.567L636.323,135.346L610.328,102.82L578.031,78.782L577.243,78.782L573.304,71.006L537.856,95.043L537.856,80.903L525.252,63.938L452.778,56.163L440.962,75.954L362.188,87.973L345.646,116.254ZM422.845,497.772L398.425,465.889L394.486,543.837L438.599,543.837L453.566,509.11ZM631.598,295.231L641.838,335.581L666.258,319.298L630.81,294.524ZM649.715,283.908L654.442,279.662L654.442,278.953L653.654,278.246L652.866,278.246L648.927,282.492L649.715,283.201ZM631.598,298.77L631.598,295.231L630.81,294.524ZM644.202,388.683L645.777,389.392L644.989,387.267L644.202,387.976ZM648.927,282.492L649.715,283.908L649.715,283.201ZM716.674,358.236L717.461,357.527L716.674,357.527ZM654.442,390.809L655.23,390.809L654.442,390.1Z" fill="#e6f4ea" stroke="#137333" stroke-width="4" stroke-linejoin="round" stroke-linecap="round" />
  
  <!-- 内发光描边 -->
  <path d="M281.051,126.86L241.664,143.124L211.729,186.974L136.105,236.495L138.469,300.895L178.644,317.174L184.945,311.512L214.88,303.018L273.96,326.377L183.37,389.392L201.488,360.36L110.11,376.646L99.082,424.096L40,477.934L47.878,526.827L111.686,495.647L158.162,509.11L216.456,477.225L236.149,507.693L273.96,477.934L246.389,465.181L278.687,434.72L284.989,386.559L329.891,353.28L395.274,361.068L426.783,386.559L394.486,423.387L451.204,481.476L496.893,474.391L500.044,506.985L580.394,514.78L558.336,419.846L575.667,394.349L604.814,434.011L641.05,433.303L644.202,388.683L644.202,387.976L596.148,351.155L602.451,276.83L652.866,278.246L653.654,278.246L654.442,278.953L654.442,279.662L696.981,336.288L745.033,308.681L733.217,244.986L760,218.1L760,216.686L721.401,213.148L656.805,158.682L596.936,213.856L522.1,224.468L503.195,196.17L538.643,174.242L563.851,201.83L676.498,127.567L636.323,135.346L610.328,102.82L578.031,78.782L577.243,78.782L573.304,71.006L537.856,95.043L537.856,80.903L525.252,63.938L452.778,56.163L440.962,75.954L362.188,87.973L345.646,116.254ZM422.845,497.772L398.425,465.889L394.486,543.837L438.599,543.837L453.566,509.11ZM631.598,295.231L641.838,335.581L666.258,319.298L630.81,294.524ZM649.715,283.908L654.442,279.662L654.442,278.953L653.654,278.246L652.866,278.246L648.927,282.492L649.715,283.201ZM631.598,298.77L631.598,295.231L630.81,294.524ZM644.202,388.683L645.777,389.392L644.989,387.267L644.202,387.976ZM648.927,282.492L649.715,283.908L649.715,283.201ZM716.674,358.236L717.461,357.527L716.674,357.527ZM654.442,390.809L655.23,390.809L654.442,390.1Z" fill="none" stroke="#2e7d32" stroke-width="1.5" stroke-linejoin="round" stroke-linecap="round" opacity="0.6" />
</svg>