<svg xmlns="http://www.w3.org/2000/svg" width="800" height="600" viewBox="0 0 800 600">
  <!-- 背景色，采用淡米黄色 -->
  <rect width="100%" height="100%" fill="#f5f2eb" />
  
  <!-- 阴影层 -->
  <path d="M532.91,307.353L535.436,307.82L536.037,306.518L538.643,307.553L539.365,312.497L538.884,315.672L540.648,316.808L538.804,319.082L541.811,320.588L543.254,318.547L545.7,317.778L548.306,319.785L547.343,322.863L550.711,323.332L553.438,322.428L554.44,324.37L557.046,326.479L557.206,329.494L562.9,329.326L567.069,326.044L573.003,323.098L578.456,321.157L583.668,320.287L598.222,320.588L600.748,322.997L602.472,322.194L601.47,319.818L604.036,317.41L603.835,310.526L602.953,307.42L600.948,304.182L592.048,295.679L586.354,288.719L578.336,284.094L573.244,282.797L565.666,277.279L561.697,275.153L558.93,276.017L558.93,276.017L555.442,277.445L555.081,276.382L550.711,279.24L548.667,282.963L546.742,284.094L547.825,286.09L548.626,290.55L545.218,289.484L543.254,292.514L544.336,298.179L540.528,299.746L534.794,299.279L531.587,299.712L530.183,301.947L532.228,302.347ZM602.793,268.316L585.873,264.635L581.182,263.077L578.376,262.712L571.8,259.465L567.43,258.405L564.383,254.233L560.374,251.95L556.605,252.248L552.355,254.134L547.063,259.067L548.787,259.399L558.169,268.349L563.541,272.464L565.065,270.373L567.591,270.041L574.968,273.892L580.06,275.818L583.788,276.515L592.649,279.971L597.3,280.569L603.234,278.276L604.156,276.382ZM591.126,286.988L590.925,284.826L587.637,281.966L577.454,278.874L576.251,277.014L573.244,276.316L572.522,277.08L576.572,280.104L586.715,285.391L589.081,287.953L590.444,288.219ZM591.526,285.258L591.647,287.088L594.052,289.251L600.026,290.05L605.479,290.117L610.771,291.848L612.415,288.486L612.014,287.587L607.083,287.387L601.269,286.522L594.373,284.094L590.925,283.894ZM580.14,279.506L580.461,278.741L577.053,277.246ZM600.748,294.446L601.79,298.112L604.156,298.012L604.998,294.08L601.229,293.58ZM596.779,292.814L598.503,295.779L599.465,293.247Z M299.245,76.639L296.719,76.96L298.724,77.891L296.399,78.533L296.719,80.683L295.396,81.518L295.116,83.83L289.783,84.923L288.019,78.918L288.821,76.8L285.734,70.964L283.729,71.605L282.967,69.202L283.528,66.736L280.401,63.79L276.953,62.958L275.79,60.431L277.595,60.143L276.753,58.224L274.347,58.32L273.906,54.964L269.736,52.76L267.371,52.696L266.97,50.365L265.246,49.727L264.725,53.527L257.989,52.058L254.381,52.026L253.819,53.143L250.171,54.038L242.834,54.9L240.428,57.809L240.107,63.982L237.902,64.43L237.541,66.639L239.386,66.96L238.223,71.541L241.871,70.836L242.032,72.182L244.919,73.176L245.801,75.87L252.536,79.881L252.416,81.068L256.987,82.417L260.916,82.449L264.244,83.67L264.805,85.212L267.772,87.879L273.064,86.626L276.953,87.879L276.392,89.519L277.875,90.548L276.953,94.731L282.286,98.788L280.602,102.3L282.005,103.332L287.017,104.847L287.458,106.589L291.467,108.718L295.717,108.912L297,108.073L299.245,108.783L302.212,107.46L305.259,111.107L307.304,111.365L312.476,109.234L314.32,110.687L316.004,114.174L318.851,113.173L319.933,111.333L322.66,113.69L322.74,117.438L325.506,121.059L328.032,120.283L328.393,121.382L327.11,128.923L326.148,129.507L327.792,132.034L330.478,130.543L333.886,130.381L337.655,131.418L342.265,129.507L345.353,130.219L348.32,128.438L351.727,128.405L354.534,130.414L354.975,135.113L351.367,138.129L351.727,139.589L351.046,147.35L347.357,146.278L345.834,148.65L345.152,152.063L345.954,153.885L343.588,156.618L342.386,160.102L340.1,161.209L340.301,163.653L342.586,163.555L343.308,166.521L346.475,168.38L346.555,169.522L353.772,167.271L355.657,164.109L358.183,165.804L358.343,170.859L359.907,176.474L359.987,178.401L361.59,180.297L363.836,180.329L363.034,181.8L360.468,182.421L359.225,183.86L360.348,188.178L363.675,188.309L363.595,192.402L365.8,193.81L367.685,193.221L368.487,196.596L370.812,196.792L373.378,194.99L375.543,196.432L380.515,195.875L381.316,196.53L385.887,194.924L390.097,196.497L393.304,195.383L392.102,193.09L392.422,187.851L392.422,187.851L396.793,187.819L397.514,183.468L399.158,183.37L399.318,181.114L402.365,181.048L402.365,181.048L402.165,182.127L404.851,182.291L408.7,181.016L410.504,181.179L412.71,186.444L416.519,189.815L421.169,189.651L422.933,197.284L422.733,201.645L424.176,203.876L423.495,205.845L419.084,207.093L420.087,208.472L418.403,210.87L414.674,213.926L411.828,209.852L407.578,210.509L404.09,207.126L404.049,207.126L404.09,207.126L404.049,207.126L402.045,207.388L403.167,204.828L398.918,206.436L397.474,204.04L395.149,205.484L393.344,204.073L391.901,205.058L390.859,203.417L390.859,203.417L388.894,205.09L386.93,204.697L385.246,205.747L382.92,204.27L381.076,205.255L380.795,206.797L383.682,208.439L382.599,212.053L384.965,212.94L389.055,212.645L388.654,217.116L389.816,221.986L386.849,223.763L387.972,227.09L385.967,229.726L377.307,230.748L376.305,232.628L376.666,235.464L372.295,237.741L369.729,238.434L369.409,244.346L367.725,247.915L374.781,251.222L374.42,252.645L376.906,253.704L375.423,257.809L378.791,258.538L378.029,260.094L380.354,260.956L381.276,259.896L385.807,259.101L386.609,260.956L389.455,262.281L385.927,264.767L385.927,266.193L391.981,267.254L392.743,264.502L394.427,264.038L396.311,268.183L399.96,267.885L401.443,271.767L401.724,274.689L401.564,275.917L399.519,282.863L397.715,284.027L394.026,284.792L392.583,284.227L390.979,287.487L391.34,290.117L393.304,290.283L395.79,293.547L400.722,292.714L408.139,293.047L410.104,292.747L415.997,293.18L416.118,292.148L419.445,289.284L422.011,289.251L422.051,290.883L426.502,292.181L428.306,291.349L431.153,291.615L431.955,288.885L433.518,291.648L432.596,294.613L434.641,297.145L437.728,296.946L439.171,298.312L443.822,298.112L448.192,301.38L449.756,300.013L453.284,297.545L455.088,298.545L455.73,297.445L459.9,296.846L461.864,298.812L462.987,297.145L466.315,298.012L469.121,297.412L470.725,301.58L473.491,304.616L474.333,306.719L477.661,308.121L481.47,311.361L483.996,312.563L488.807,313.265L494.821,312.797L498.389,311.828L497.547,315.839L501.797,314.803L502.559,313.633L503,317.544L504.203,318.915L506.087,323.867L507.09,324.236L510.939,319.183L512.623,317.979L516.872,318.447L518.677,316.14L520.681,315.973L520.401,312.831L518.797,311.394L519.679,310.392L522.806,310.926L524.37,308.689L527.658,308.054L530.584,309.156L532.91,307.353L532.228,302.347L530.183,301.947L531.587,299.712L534.794,299.279L540.528,299.746L544.336,298.179L543.254,292.514L545.218,289.484L548.626,290.55L547.825,286.09L546.742,284.094L548.667,282.963L550.711,279.24L555.081,276.382L555.442,277.445L558.93,276.017L558.93,276.017L561.697,275.153L563.541,272.464L558.169,268.349L548.787,259.399L547.063,259.067L552.355,254.134L556.605,252.248L560.374,251.95L564.383,254.233L567.43,258.405L571.8,259.465L578.376,262.712L581.182,263.077L585.873,264.635L602.793,268.316L602.472,261.685L597.22,252.083L595.055,246.296L589.602,241.241L588.76,239.524L573.524,234.508L574.647,233.485L569.194,231.836L571.841,229.627L571.48,226.234L568.633,225.015L567.029,215.34L564.744,213.4L562.258,212.513L556.886,211.922L549.308,208.932L547.263,206.338L544.336,205.878L540.648,203.975L536.839,203.548L538.002,201.973L536.959,198.956L533.872,197.743L536.278,196.89L537.521,193.843L538.122,187.426L536.558,185.234L534.955,177.911L533.992,176.605L530.985,175.233L531.146,172.197L529.141,164.63L527.577,162.806L528.5,160.395L527.217,158.539L524.33,158.311L522.486,156.325L520.922,149.852L518.516,144.426L514.788,138.259L514.026,137.48L512.222,134.789L509.014,127.369L505.847,122.353L498.149,107.234L496.866,101.527L494.701,96.566L494.54,93.218L480.989,87.719L471.807,83.316L461.984,81.582L460.02,79.624L450.879,76.158L448.914,74.619L446.188,73.144L439.452,69.394L443.381,65.455L438.891,64.494L433.999,64.238L441.336,64.078L441.497,64.11L437.768,62.094L437.848,63.118L433.799,63.438L429.509,62.766L426.863,61.263L424.657,61.167L423.294,59.312L422.332,55.252L423.134,52.952L422.893,49.312L424.657,44.941L427.705,43.665L428.146,46.249L429.148,45.962L428.186,43.634L429.068,43.123L427.825,40.605L425.419,40L423.294,41.147L418.122,41.848L416.599,44.526L410.905,44.494L405.413,45.451L404.49,44.781L400.2,46.44L400.08,51.738L396.472,56.37L396.151,58.32L394.307,61.486L392.182,61.614L390.859,64.687L393.785,65.007L395.068,66.127L392.182,68.049L388.974,69.042L387.29,68.049L383.602,68.017L383.201,66.704L379.592,67.248L374.06,70.483L374.901,72.631L372.656,72.438L371.694,74.458L372.656,80.137L371.133,82.353L370.411,85.372L368.767,86.176L362.954,85.565L362.112,86.851L358.383,86.786L358.223,88.522L355.737,88.49L355.617,83.702L352.69,81.743L354.775,80.33L356.098,77.794L349.202,76.126L351.527,73.208L349.522,70.515L347.558,70.836L340.902,69.042L338.176,69.554L337.735,71.252L330.638,70.772L330.478,75.228L331.16,79.431L323.502,77.57L321.858,80.587L318.65,81.261L317.528,83.091L314,82.802L309.228,81.646L305.179,77.345L305.179,76.126L303.094,75.132L300.127,75.902L300.127,75.902L299.887,76.319L299.887,76.319L299.245,76.639Z M372.295,484.992L372.977,487.256L375.984,488.251L376.144,486.673L382.359,485.369L382.8,486.947L386.448,485.712L387.972,486.09L389.576,483.586L390.899,483.448L393.264,487.325L396.271,488.114L396.392,490.242L394.267,491.478L396.512,493.676L396.271,496.115L394.026,496.871L390.859,499.621L391.821,501.958L391.58,505.673L393.104,507.153L397.314,509.183L398.035,513.66L400.922,521.104L401.323,525.381L403.528,528.521L403.248,531.87L400.641,533.7L403.127,538.849L406.255,539.575L408.259,537.881L408.059,536.395L410.504,536.43L411.747,537.708L415.155,538.503L417.601,537.916L417.04,540.335L418.764,541.2L423.735,541.718L426.662,541.373L427.705,539.056L430.912,537.605L432.596,534.702L436.285,533.735L437.688,535.739L439.532,534.598L441.817,529.108L441.777,526.554L444.424,525.45L448.593,524.932L451.079,525.657L449.916,528.452L450.197,530.938L453.084,531.455L452.081,533.666L454.086,533.873L455.289,535.393L454.928,539.782L453.765,540.301L455.449,542.618L458.015,544.52L457.294,545.246L460.06,547.357L459.178,548.811L464.029,549.296L470.244,547.392L471.647,545.039L474.774,544.416L475.937,546.458L477.661,546.804L480.508,543.448L483.154,542.652L482.993,541.511L488.647,541.511L491.333,540.681L492.015,543.517L496.425,542.825L496.625,545.212L502.238,551.996L500.394,552.516L500.554,555.564L504.283,559.584L506.288,560L509.776,558.648L511.66,553.589L510.337,552.446L512.021,547.946L517.554,545.558L518.075,541.511L520,537.708L515.71,532.319L515.549,531.283L518.837,528.314L520.401,524.415L524.45,521.035L524.851,518.415L526.936,518.38L528.941,519.449L533.511,512.558L535.556,510.492L537.641,511.111L541.129,514.659L543.895,514.555L546.341,515.899L549.228,515.761L548.065,517.622L548.105,517.622L549.067,516.692L549.067,516.657L549.308,516.14L549.268,516.106L551.834,515.313L551.914,512.076L549.909,511.628L549.909,509.803L545.82,510.595L542.973,510.251L538.804,507.015L540.327,504.951L543.174,497.49L546.381,494.707L547.223,495.6L548.506,501.718L550.792,502.302L556.324,501.511L558.85,499.38L560.695,495.016L563.661,495.084L565.506,490.929L569.034,487.462L571.159,484.134L574.407,484.272L576.532,485.575L577.093,488.114L580.18,487.359L582.906,482.077L582.305,480.602L580.621,481.117L582.225,478.203L584.43,477.244L583.027,472.996L581.383,470.462L580.621,467.143L578.135,466.322L575.609,461.773L574.527,461.09L581.383,459.312L584.189,456.954L585.192,451.388L584.069,447.566L589.762,447.532L589.602,445.281L587.718,441.632L585.633,439.587L585.713,436.794L582.225,434.852L582.305,430.972L579.458,429.338L578.937,427.671L585.913,430.529L588.159,429.781L589.321,427.807L590.123,431.516L592.128,431.516L595.295,433.048L596.899,431.788L602.231,435.227L602.472,432.639L603.675,431.448L603.554,428.59L601.069,426.073L602.592,426.073L602.272,422.401L604.557,421.721L604.437,420.532L600.828,420.158L601.71,416.897L600.267,416.014L600.387,413.672L602.833,411.907L603.996,409.226L602.672,407.564L602.392,405.089L604.116,403.191L604.437,400.751L602.231,397.263L598.543,396.349L596.137,397.5L593.571,396.146L600.347,389.953L604.637,389.04L607.283,385.119L611.092,382.719L613.738,381.537L613.538,379.984L604.878,380.625L604.677,378.768L602.552,376.472L599.184,378.734L593.692,376.304L590.364,374.009L586.274,374.043L584.871,373.064L581.824,368.95L580.701,369.017L575.89,361.571L571.72,356.724L565.065,351.544L563.541,349.427L560.695,347.713L553.999,347.242L551.273,345.294L545.379,339.989L543.134,336.869L549.027,334.521L551.633,332.376L554.921,331.337L557.206,329.494L557.046,326.479L554.44,324.37L553.438,322.428L550.711,323.332L547.343,322.863L548.306,319.785L545.7,317.778L543.254,318.547L541.811,320.588L538.804,319.082L540.648,316.808L538.884,315.672L539.365,312.497L538.643,307.553L536.037,306.518L535.436,307.82L532.91,307.353L530.584,309.156L527.658,308.054L524.37,308.689L522.806,310.926L519.679,310.392L518.797,311.394L520.401,312.831L520.681,315.973L518.677,316.14L516.872,318.447L512.623,317.979L510.939,319.183L507.09,324.236L506.087,323.867L504.203,318.915L503,317.544L502.559,313.633L501.797,314.803L497.547,315.839L498.389,311.828L494.821,312.797L488.807,313.265L483.996,312.563L481.47,311.361L477.661,308.121L474.333,306.719L473.491,304.616L470.725,301.58L469.121,297.412L466.315,298.012L462.987,297.145L461.864,298.812L459.9,296.846L455.73,297.445L455.088,298.545L453.284,297.545L449.756,300.013L451.4,301.647L450.117,302.914L450.397,307.219L446.909,310.626L447.03,312.898L445.827,313.733L445.426,316.675L446.629,319.551L445.225,319.818L443.461,322.863L440.374,323.298L440.575,327.718L438.089,331.236L435.723,331.571L434.561,328.924L431.473,330.331L430.19,332.543L424.698,333.918L426.422,336.164L424.577,337.976L426.863,340.358L430.391,338.882L431.032,340.459L430.952,344.387L433.077,348.519L435.362,349.191L431.874,350.838L430.391,349.359L427.183,351.376L425.219,351.376L424.537,354.235L422.252,354.638L417.401,353.73L415.115,352.486L413.231,353.73L408.42,351.948L406.174,350.132L401.363,353.057L401.203,355.176L402.967,359.484L404.571,360.393L399.559,362.716L399.519,363.828L402.325,363.895L400.922,366.085L401.243,369.355L402.807,371.681L402.285,377.62L398.637,377.823L398.797,380.659L392.262,385.626L392.543,390.562L389.656,392.693L386.168,396.789L384.404,396.078L381.397,397.128L378.71,400.345L376.625,401.192L376.345,404.852L368.887,405.801L366.682,407.802L365.52,406.445L363.996,407.463L364.638,411.16L360.227,410.583L356.619,412.925L357.421,416.286L354.895,418.222L355.657,419.275L353.091,420.192L349.121,419.75L348.841,424.543L346.796,424.985L345.874,427.739L346.996,428.964L346.515,432.027L349.001,433.797L348.4,435.159L350.404,438.736L351.567,438.02L351.567,438.02L352.77,439.724L354.815,439.519L358.864,442.416L356.779,444.905L361.631,443.951L363.595,449.989L367.765,450.808L370.291,458.014L371.935,459.415L371.935,463.585L371.935,463.585L370.892,467.519L372.055,470.223L371.053,471.387L374.942,472.585L373.779,476.113L372.175,477.586L373.699,478.751L375.302,482.454ZM615.061,374.346L620.033,376L622.599,377.654L625.405,377.451L626.648,375.089L626.809,372.255L624.604,370.973L623.361,368.714L624.042,367.939L623.561,367.029L614.38,366.186L610.651,363.289L607.604,363.996L601.51,361.605L600.187,363.053L603.354,367.029L603.755,368.546L602.993,369.725L606.241,374.144L611.373,373.199L612.134,374.448ZM618.349,361.437L616.064,360.595L614.38,361.134L613.778,362.952L615.382,364.569ZM619.351,392.321L618.149,393.066L621.997,394.047L619.472,392.423ZM632.261,325.508L632.221,328.154L639.117,328.221L638.797,326.378L635.349,327.082L633.424,325.073ZM615.021,352.116L608.205,354.571L614.46,357.633L619.512,358.306L620.514,353.965L619.271,352.116L616.866,352.116L615.903,350.67ZM625.085,357.33L622.519,357.767L627.771,358.205L628.212,356.96L631.58,358.036L630.938,355.816L626.127,355.816ZM606.12,427.059L605.278,428.794L608.125,428.352L609.368,427.195L606.802,425.155ZM628.653,380.524L629.575,384.375L631.5,384.713L630.577,382.044L632.662,381.166L632.622,378.835L631.219,376.709L630.337,377.519L627.33,376.236L625.967,377.62L626.488,379.308L627.45,380.119L628.052,380.456ZM632.422,346.973L632.582,344.589L628.773,343.514L622.519,342.876L622.759,346.335L625.165,347.074L627.37,346.1ZM593.852,453.607L595.496,452.856L595.416,450.774ZM621.677,383.632L618.83,384.476L620.594,386.302L624.604,388.77L625.606,387.789L623.922,385.321L625.205,384.679ZM590.805,433.32L593.531,435.397L594.213,433.32L592.729,432.197ZM552.435,528.279L552.195,528.624L552.275,528.694L552.596,528.107ZM600.748,322.997L602.352,328.757L604.236,330.7L610.09,334.387L613.097,334.823L609.328,331.404L605.158,329.996L603.955,328.321L603.635,324.537L602.472,322.194ZM597.22,473.065L599.144,471.387L596.739,471.044ZM616.304,396.315L618.189,393.607L617.467,392.287L613.979,389.886L612.976,387.316L609.889,387.688L607.524,391.814L609.248,392.998L610.651,392.017L613.417,395.57ZM634.467,377.215L634.346,377.181L634.386,377.012L633.825,377.282L633.785,377.417L633.745,377.417L633.665,377.519L633.905,377.688L633.865,377.789L634.106,378.363L634.226,378.295L634.547,378.261L634.827,378.228L634.306,377.552ZM641.563,331.638L640.841,329.326L639.999,331.136ZM595.937,476.182L598.623,475.12L597.26,474.4ZM608.686,361.874L608.045,360.527L605.559,361.437L606.08,363.053ZM629.896,375.494L631.219,371.884L629.054,372.019L628.372,374.852ZM594.694,375.055L596.257,375.865L600.066,373.908L599.505,370.164L596.979,367.399L594.574,366.995L594.012,370.501L594.333,374.684ZM543.655,537.708L543.655,538.814L546.301,539.955L543.695,537.708ZM601.309,426.447L603.073,428.25L602.913,426.175ZM606.922,389.243L605.158,390.089L606.361,392.017ZM600.547,366.119L598.583,367.77L600.908,369.388L601.991,366.658ZM601.67,354.84L604.477,353.495L603.715,351.443L600.628,351.881L599.305,353.562ZM616.986,375.831L615.061,374.346L614.34,375.46L614.46,375.46L614.54,375.494L616.424,376.472ZM623.16,391.543L624.042,389.953L621.236,389.615L620.153,387.586L618.309,388.432L620.795,391.07ZM548.065,517.622L548.065,517.691L548.105,517.622ZM653.912,364.333L655.476,365.108L655.275,364.94L655.075,364.67L654.593,364.535L654.112,364.333L654.032,364.299ZM621.637,356.017L620.955,358.137L624.964,357.296L623.962,355.917ZM622.839,382.652L624.523,383.361L626.769,382.652L626.769,381.199L624.042,381.132ZM655.275,328.388L656.478,326.948L655.115,326.077L653.711,327.115ZM545.74,507.841L549.268,506.258L547.183,504.641L543.855,504.779L541.811,507.084ZM551.433,506.155L554.801,504.538L552.195,503.712L550.471,505.157ZM633.985,376.405L633.584,376.439L633.424,376.675L633.504,376.742L633.584,376.979L634.306,376.776L634.266,376.709L634.066,376.439ZM658.843,328.087L658.523,326.144L656.999,327.082ZM617.467,375.561L619.632,377.046L622.238,377.991L620.033,376.169ZM606.321,376.506L607.283,378.093L608.245,376.439ZM542.212,505.123L545.178,503.85L544.136,503.265ZM635.108,378.295L635.068,378.396L635.228,378.43L635.188,378.295ZM614.34,375.46L614.54,375.494L614.46,375.46Z M252.897,112.269L255.623,114.627L255.744,119.927L254.942,120.509L250.772,119.183L250.211,120.93L245.52,121.673L242.353,123.194L242.312,126.139L240.428,125.848L239.506,127.337L234.494,128.082L231.006,130.77L228.841,130.446L223.99,132.098L222.506,129.377L220.381,127.337L218.697,127.434L217.495,125.912L217.735,122.256L212.723,118.602L213.886,115.467L211.12,112.689L207.632,112.56L205.827,111.333L205.867,113.012L204.103,112.883L203.863,111.333L201.457,109.138L198.811,109.17L196.686,108.202L194.722,109.299L191.634,109.202L190.592,111.107L188.307,111.236L186.462,114.885L186.382,116.436L184.417,121.35L189.91,121.673L188.748,127.79L186.302,127.013L185.42,127.984L187.946,131.515L187.906,135.405L190.431,140.206L185.54,140.79L182.052,142.283L178.965,141.374L176.279,142.023L174.474,145.336L172.63,144.231L171.267,145.563L171.267,149.007L169.904,148.52L169.302,150.21L170.184,152.031L169.182,153.755L171.026,154.145L172.55,156.423L172.309,158.864L170.585,158.897L170.906,161.307L168.34,164.989L168.54,168.543L167.618,169.717L164.732,169.456L161.444,170.435L159.72,172.524L151.461,172.654L148.173,171.642L146.569,168.706L144.404,168.282L142.44,169.848L142.079,172.654L143.121,172.882L143.923,177.193L141.718,176.964L141.157,178.924L143.322,180.166L145.086,182.519L149.376,182.193L151.06,182.683L150.699,184.351L157.836,184.939L158.918,187.099L161.604,187.655L161.123,190.503L162.526,192.238L161.123,193.221L160.442,196.104L160.682,199.972L161.845,204.861L164.611,204.762L166.175,205.747L168.661,205.419L168.621,207.388L175.557,205.944L175.396,207.651L181.17,211.33L181.892,212.875L182.012,212.875L182.012,212.907L182.012,212.94L181.932,213.006L182.814,214.617L185.941,216.096L188.106,215.669L189.549,217.017L191.594,215.472L192.236,216.721L194.641,211.166L197.087,212.382L199.011,210.509L200.134,212.875L204.825,208.406L206.79,205.878L208.033,206.469L205.787,208.078L203.823,210.739L206.268,211.626L205.106,213.532L207.311,217.938L208.193,228.573L210.077,232.562L208.794,240.151L209.235,243.189L207.952,247.089L208.674,248.577L207.03,252.182L206.95,254.3L208.313,255.458L206.469,257.941L204.224,257.279L201.377,258.339L201.377,258.339L198.731,257.213L196.365,258.538L192.797,257.809L184.818,263.209L183.535,263.01L181.009,264.668L179.807,266.624L180.368,268.847L177.401,270.174L175.837,274.257L172.951,276.216L174.154,279.173L173.111,282.065L174.354,283.096L172.991,285.757L175.276,286.489L177.642,286.056L179.566,291.215L181.811,291.049L183.896,293.38L183.936,295.812L186.903,299.112L188.066,297.179L191.434,294.746L194.401,295.379L199.453,301.18L200.695,300.146L203.302,300.213L205.226,298.879L206.549,301.38L209.957,303.815L209.877,305.417L214.287,306.218L214.848,307.72L217.695,307.654L218.537,311.294L216.452,311.227L212.323,312.931L209.476,315.672L205.106,317.31L204.023,319.651L204.985,320.487L204.184,324.303L199.733,324.637L198.41,328.958L201.738,332.107L202.099,334.655L204.023,334.387L205.827,335.661L206.549,338.244L208.033,339.788L207.03,344.118L208.754,346.47L206.389,348.855L208.353,351.578L207.551,353.158L212.924,354.638L213.726,357.128L218.136,360.258L217.495,361.807L219.62,366.388L218.978,369.523L219.82,371.209L218.657,375.527L222.226,380.22L222.667,385.321L225.112,384.747L228.681,385.49L230.164,387.519L232.129,387.316L236.178,384.274L244.317,380.321L248.086,380.254L249.81,379.443L251.975,370.602L254.26,368.815L257.267,368.579L260.755,370.063L262.52,369.86L264.885,371.58L266.128,373.807L267.932,373.267L268.093,376.337L270.418,374.852L272.463,376.877L271.34,380.49L264.685,387.079L263.482,386.437L257.708,392.457L259.352,392.592L259.793,393.303L259.873,393.336L259.753,393.844L258.149,394.318L256.305,397.195L260.515,400.209L260.836,401.903L263.362,399.667L264.685,401.565L269.135,401.158L270.739,398.99L275.029,396.45L277.314,395.875L278.717,394.182L281.684,394.352L286.295,392.321L286.014,389.717L287.859,388.195L286.977,386.673L283.729,384.51L287.257,382.584L287.418,380.119L290.144,378.734L293.071,378.329L294.995,379.106L295.998,381.334L295.436,384.341L298.002,385.119L301.009,383.463L302.332,385.761L303.856,383.936L305.981,383.294L305.58,386.437L308.587,389.886L308.507,393.878L310.872,395.706L313.478,396.078L313.037,397.635L314.32,400.345L318.57,400.176L321.136,398.651L323.141,399.905L323.903,402.479L326.469,402.852L330.719,401.531L335.77,403.022L339.74,402.92L344.31,401.022L346.836,401.802L347.357,403.327L350.244,403.903L353.411,406.784L352.369,407.937L352.93,411.398L356.619,412.925L360.227,410.583L364.638,411.16L363.996,407.463L365.52,406.445L366.682,407.802L368.887,405.801L376.345,404.852L376.625,401.192L378.71,400.345L381.397,397.128L384.404,396.078L386.168,396.789L389.656,392.693L392.543,390.562L392.262,385.626L398.797,380.659L398.637,377.823L402.285,377.62L402.807,371.681L401.243,369.355L400.922,366.085L402.325,363.895L399.519,363.828L399.559,362.716L404.571,360.393L402.967,359.484L401.203,355.176L401.363,353.057L406.174,350.132L408.42,351.948L413.231,353.73L415.115,352.486L417.401,353.73L422.252,354.638L424.537,354.235L425.219,351.376L427.183,351.376L430.391,349.359L431.874,350.838L435.362,349.191L433.077,348.519L430.952,344.387L431.032,340.459L430.391,338.882L426.863,340.358L424.577,337.976L426.422,336.164L424.698,333.918L430.19,332.543L431.473,330.331L434.561,328.924L435.723,331.571L438.089,331.236L440.575,327.718L440.374,323.298L443.461,322.863L445.225,319.818L446.629,319.551L445.426,316.675L445.827,313.733L447.03,312.898L446.909,310.626L450.397,307.219L450.117,302.914L451.4,301.647L449.756,300.013L448.192,301.38L443.822,298.112L439.171,298.312L437.728,296.946L434.641,297.145L432.596,294.613L433.518,291.648L431.955,288.885L431.153,291.615L428.306,291.349L426.502,292.181L422.051,290.883L422.011,289.251L419.445,289.284L416.118,292.148L415.997,293.18L410.104,292.747L408.139,293.047L400.722,292.714L395.79,293.547L393.304,290.283L391.34,290.117L390.979,287.487L392.583,284.227L394.026,284.792L397.715,284.027L399.519,282.863L401.564,275.917L399.84,275.519L400.401,274.689L401.724,274.689L401.443,271.767L399.96,267.885L396.311,268.183L394.427,264.038L392.743,264.502L391.981,267.254L385.927,266.193L385.927,264.767L389.455,262.281L386.609,260.956L385.807,259.101L381.276,259.896L380.354,260.956L378.029,260.094L378.791,258.538L375.423,257.809L376.906,253.704L374.42,252.645L374.781,251.222L367.725,247.915L369.409,244.346L369.729,238.434L372.295,237.741L376.666,235.464L376.305,232.628L377.307,230.748L385.967,229.726L387.972,227.09L386.849,223.763L389.816,221.986L388.654,217.116L389.055,212.645L384.965,212.94L382.599,212.053L383.682,208.439L380.795,206.797L381.076,205.255L382.92,204.27L385.246,205.747L386.93,204.697L388.894,205.09L390.859,203.417L390.859,203.417L391.901,205.058L393.344,204.073L395.149,205.484L397.474,204.04L398.918,206.436L403.167,204.828L402.045,207.388L404.049,207.126L404.09,207.126L404.049,207.126L404.09,207.126L407.578,210.509L411.828,209.852L414.674,213.926L418.403,210.87L420.087,208.472L419.084,207.093L423.495,205.845L424.176,203.876L422.733,201.645L422.933,197.284L421.169,189.651L416.519,189.815L412.71,186.444L410.504,181.179L408.7,181.016L404.851,182.291L402.165,182.127L402.365,181.048L402.365,181.048L399.318,181.114L399.158,183.37L397.514,183.468L396.793,187.819L392.422,187.851L392.422,187.851L392.102,193.09L393.304,195.383L390.097,196.497L385.887,194.924L381.316,196.53L380.515,195.875L375.543,196.432L373.378,194.99L370.812,196.792L368.487,196.596L367.685,193.221L365.8,193.81L363.595,192.402L363.675,188.309L360.348,188.178L359.225,183.86L360.468,182.421L363.034,181.8L363.836,180.329L361.59,180.297L359.987,178.401L359.907,176.474L358.343,170.859L358.183,165.804L355.657,164.109L353.772,167.271L346.555,169.522L346.475,168.38L343.308,166.521L342.586,163.555L340.301,163.653L340.1,161.209L342.386,160.102L343.588,156.618L345.954,153.885L345.152,152.063L345.834,148.65L347.357,146.278L351.046,147.35L351.727,139.589L351.367,138.129L354.975,135.113L354.534,130.414L351.727,128.405L348.32,128.438L345.353,130.219L342.265,129.507L337.655,131.418L333.886,130.381L330.478,130.543L327.792,132.034L326.148,129.507L327.11,128.923L328.393,121.382L328.032,120.283L325.506,121.059L322.74,117.438L322.66,113.69L319.933,111.333L318.851,113.173L316.004,114.174L314.32,110.687L312.476,109.234L307.304,111.365L305.259,111.107L302.212,107.46L299.245,108.783L297,108.073L295.717,108.912L291.467,108.718L287.458,106.589L287.017,104.847L282.005,103.332L280.602,102.3L282.286,98.788L276.953,94.731L277.875,90.548L276.392,89.519L276.953,87.879L273.064,86.626L267.772,87.879L264.805,85.212L264.244,83.67L260.916,82.449L256.987,82.417L252.416,81.068L252.536,79.881L245.801,75.87L244.919,73.176L242.032,72.182L241.871,70.836L238.223,71.541L235.617,72.791L235.015,74.074L232.49,73.56L230.004,77.281L226.676,75.709L226.315,78.34L227.157,80.105L225.473,80.908L224.431,83.284L225.513,85.18L227.919,86.947L227.759,88.329L230.525,88.683L233.492,90.934L237.14,92.382L238.103,95.89L240.508,95.375L240.508,95.375L243.595,95.697L247.484,93.926L250.451,94.602L251.774,95.858L249.369,97.468L249.208,99.948L250.692,102.171L248.767,103.364L248.246,105.202L251.374,108.718L251.374,108.718L252.897,112.269ZM400.401,274.689L399.84,275.519L401.564,275.917L401.724,274.689ZM259.352,392.592L257.708,392.457L256.425,393.438L258.149,394.318L259.753,393.844L259.873,393.336L259.793,393.303ZM181.892,212.875L181.932,213.006L182.012,212.94L182.012,212.907L182.012,212.875Z" fill="#d1e7dd" opacity="0.3" transform="translate(5, 8)" />
  
  <!-- 填充与主轮廓 -->
  <path d="M532.91,307.353L535.436,307.82L536.037,306.518L538.643,307.553L539.365,312.497L538.884,315.672L540.648,316.808L538.804,319.082L541.811,320.588L543.254,318.547L545.7,317.778L548.306,319.785L547.343,322.863L550.711,323.332L553.438,322.428L554.44,324.37L557.046,326.479L557.206,329.494L562.9,329.326L567.069,326.044L573.003,323.098L578.456,321.157L583.668,320.287L598.222,320.588L600.748,322.997L602.472,322.194L601.47,319.818L604.036,317.41L603.835,310.526L602.953,307.42L600.948,304.182L592.048,295.679L586.354,288.719L578.336,284.094L573.244,282.797L565.666,277.279L561.697,275.153L558.93,276.017L558.93,276.017L555.442,277.445L555.081,276.382L550.711,279.24L548.667,282.963L546.742,284.094L547.825,286.09L548.626,290.55L545.218,289.484L543.254,292.514L544.336,298.179L540.528,299.746L534.794,299.279L531.587,299.712L530.183,301.947L532.228,302.347ZM602.793,268.316L585.873,264.635L581.182,263.077L578.376,262.712L571.8,259.465L567.43,258.405L564.383,254.233L560.374,251.95L556.605,252.248L552.355,254.134L547.063,259.067L548.787,259.399L558.169,268.349L563.541,272.464L565.065,270.373L567.591,270.041L574.968,273.892L580.06,275.818L583.788,276.515L592.649,279.971L597.3,280.569L603.234,278.276L604.156,276.382ZM591.126,286.988L590.925,284.826L587.637,281.966L577.454,278.874L576.251,277.014L573.244,276.316L572.522,277.08L576.572,280.104L586.715,285.391L589.081,287.953L590.444,288.219ZM591.526,285.258L591.647,287.088L594.052,289.251L600.026,290.05L605.479,290.117L610.771,291.848L612.415,288.486L612.014,287.587L607.083,287.387L601.269,286.522L594.373,284.094L590.925,283.894ZM580.14,279.506L580.461,278.741L577.053,277.246ZM600.748,294.446L601.79,298.112L604.156,298.012L604.998,294.08L601.229,293.58ZM596.779,292.814L598.503,295.779L599.465,293.247Z M299.245,76.639L296.719,76.96L298.724,77.891L296.399,78.533L296.719,80.683L295.396,81.518L295.116,83.83L289.783,84.923L288.019,78.918L288.821,76.8L285.734,70.964L283.729,71.605L282.967,69.202L283.528,66.736L280.401,63.79L276.953,62.958L275.79,60.431L277.595,60.143L276.753,58.224L274.347,58.32L273.906,54.964L269.736,52.76L267.371,52.696L266.97,50.365L265.246,49.727L264.725,53.527L257.989,52.058L254.381,52.026L253.819,53.143L250.171,54.038L242.834,54.9L240.428,57.809L240.107,63.982L237.902,64.43L237.541,66.639L239.386,66.96L238.223,71.541L241.871,70.836L242.032,72.182L244.919,73.176L245.801,75.87L252.536,79.881L252.416,81.068L256.987,82.417L260.916,82.449L264.244,83.67L264.805,85.212L267.772,87.879L273.064,86.626L276.953,87.879L276.392,89.519L277.875,90.548L276.953,94.731L282.286,98.788L280.602,102.3L282.005,103.332L287.017,104.847L287.458,106.589L291.467,108.718L295.717,108.912L297,108.073L299.245,108.783L302.212,107.46L305.259,111.107L307.304,111.365L312.476,109.234L314.32,110.687L316.004,114.174L318.851,113.173L319.933,111.333L322.66,113.69L322.74,117.438L325.506,121.059L328.032,120.283L328.393,121.382L327.11,128.923L326.148,129.507L327.792,132.034L330.478,130.543L333.886,130.381L337.655,131.418L342.265,129.507L345.353,130.219L348.32,128.438L351.727,128.405L354.534,130.414L354.975,135.113L351.367,138.129L351.727,139.589L351.046,147.35L347.357,146.278L345.834,148.65L345.152,152.063L345.954,153.885L343.588,156.618L342.386,160.102L340.1,161.209L340.301,163.653L342.586,163.555L343.308,166.521L346.475,168.38L346.555,169.522L353.772,167.271L355.657,164.109L358.183,165.804L358.343,170.859L359.907,176.474L359.987,178.401L361.59,180.297L363.836,180.329L363.034,181.8L360.468,182.421L359.225,183.86L360.348,188.178L363.675,188.309L363.595,192.402L365.8,193.81L367.685,193.221L368.487,196.596L370.812,196.792L373.378,194.99L375.543,196.432L380.515,195.875L381.316,196.53L385.887,194.924L390.097,196.497L393.304,195.383L392.102,193.09L392.422,187.851L392.422,187.851L396.793,187.819L397.514,183.468L399.158,183.37L399.318,181.114L402.365,181.048L402.365,181.048L402.165,182.127L404.851,182.291L408.7,181.016L410.504,181.179L412.71,186.444L416.519,189.815L421.169,189.651L422.933,197.284L422.733,201.645L424.176,203.876L423.495,205.845L419.084,207.093L420.087,208.472L418.403,210.87L414.674,213.926L411.828,209.852L407.578,210.509L404.09,207.126L404.049,207.126L404.09,207.126L404.049,207.126L402.045,207.388L403.167,204.828L398.918,206.436L397.474,204.04L395.149,205.484L393.344,204.073L391.901,205.058L390.859,203.417L390.859,203.417L388.894,205.09L386.93,204.697L385.246,205.747L382.92,204.27L381.076,205.255L380.795,206.797L383.682,208.439L382.599,212.053L384.965,212.94L389.055,212.645L388.654,217.116L389.816,221.986L386.849,223.763L387.972,227.09L385.967,229.726L377.307,230.748L376.305,232.628L376.666,235.464L372.295,237.741L369.729,238.434L369.409,244.346L367.725,247.915L374.781,251.222L374.42,252.645L376.906,253.704L375.423,257.809L378.791,258.538L378.029,260.094L380.354,260.956L381.276,259.896L385.807,259.101L386.609,260.956L389.455,262.281L385.927,264.767L385.927,266.193L391.981,267.254L392.743,264.502L394.427,264.038L396.311,268.183L399.96,267.885L401.443,271.767L401.724,274.689L401.564,275.917L399.519,282.863L397.715,284.027L394.026,284.792L392.583,284.227L390.979,287.487L391.34,290.117L393.304,290.283L395.79,293.547L400.722,292.714L408.139,293.047L410.104,292.747L415.997,293.18L416.118,292.148L419.445,289.284L422.011,289.251L422.051,290.883L426.502,292.181L428.306,291.349L431.153,291.615L431.955,288.885L433.518,291.648L432.596,294.613L434.641,297.145L437.728,296.946L439.171,298.312L443.822,298.112L448.192,301.38L449.756,300.013L453.284,297.545L455.088,298.545L455.73,297.445L459.9,296.846L461.864,298.812L462.987,297.145L466.315,298.012L469.121,297.412L470.725,301.58L473.491,304.616L474.333,306.719L477.661,308.121L481.47,311.361L483.996,312.563L488.807,313.265L494.821,312.797L498.389,311.828L497.547,315.839L501.797,314.803L502.559,313.633L503,317.544L504.203,318.915L506.087,323.867L507.09,324.236L510.939,319.183L512.623,317.979L516.872,318.447L518.677,316.14L520.681,315.973L520.401,312.831L518.797,311.394L519.679,310.392L522.806,310.926L524.37,308.689L527.658,308.054L530.584,309.156L532.91,307.353L532.228,302.347L530.183,301.947L531.587,299.712L534.794,299.279L540.528,299.746L544.336,298.179L543.254,292.514L545.218,289.484L548.626,290.55L547.825,286.09L546.742,284.094L548.667,282.963L550.711,279.24L555.081,276.382L555.442,277.445L558.93,276.017L558.93,276.017L561.697,275.153L563.541,272.464L558.169,268.349L548.787,259.399L547.063,259.067L552.355,254.134L556.605,252.248L560.374,251.95L564.383,254.233L567.43,258.405L571.8,259.465L578.376,262.712L581.182,263.077L585.873,264.635L602.793,268.316L602.472,261.685L597.22,252.083L595.055,246.296L589.602,241.241L588.76,239.524L573.524,234.508L574.647,233.485L569.194,231.836L571.841,229.627L571.48,226.234L568.633,225.015L567.029,215.34L564.744,213.4L562.258,212.513L556.886,211.922L549.308,208.932L547.263,206.338L544.336,205.878L540.648,203.975L536.839,203.548L538.002,201.973L536.959,198.956L533.872,197.743L536.278,196.89L537.521,193.843L538.122,187.426L536.558,185.234L534.955,177.911L533.992,176.605L530.985,175.233L531.146,172.197L529.141,164.63L527.577,162.806L528.5,160.395L527.217,158.539L524.33,158.311L522.486,156.325L520.922,149.852L518.516,144.426L514.788,138.259L514.026,137.48L512.222,134.789L509.014,127.369L505.847,122.353L498.149,107.234L496.866,101.527L494.701,96.566L494.54,93.218L480.989,87.719L471.807,83.316L461.984,81.582L460.02,79.624L450.879,76.158L448.914,74.619L446.188,73.144L439.452,69.394L443.381,65.455L438.891,64.494L433.999,64.238L441.336,64.078L441.497,64.11L437.768,62.094L437.848,63.118L433.799,63.438L429.509,62.766L426.863,61.263L424.657,61.167L423.294,59.312L422.332,55.252L423.134,52.952L422.893,49.312L424.657,44.941L427.705,43.665L428.146,46.249L429.148,45.962L428.186,43.634L429.068,43.123L427.825,40.605L425.419,40L423.294,41.147L418.122,41.848L416.599,44.526L410.905,44.494L405.413,45.451L404.49,44.781L400.2,46.44L400.08,51.738L396.472,56.37L396.151,58.32L394.307,61.486L392.182,61.614L390.859,64.687L393.785,65.007L395.068,66.127L392.182,68.049L388.974,69.042L387.29,68.049L383.602,68.017L383.201,66.704L379.592,67.248L374.06,70.483L374.901,72.631L372.656,72.438L371.694,74.458L372.656,80.137L371.133,82.353L370.411,85.372L368.767,86.176L362.954,85.565L362.112,86.851L358.383,86.786L358.223,88.522L355.737,88.49L355.617,83.702L352.69,81.743L354.775,80.33L356.098,77.794L349.202,76.126L351.527,73.208L349.522,70.515L347.558,70.836L340.902,69.042L338.176,69.554L337.735,71.252L330.638,70.772L330.478,75.228L331.16,79.431L323.502,77.57L321.858,80.587L318.65,81.261L317.528,83.091L314,82.802L309.228,81.646L305.179,77.345L305.179,76.126L303.094,75.132L300.127,75.902L300.127,75.902L299.887,76.319L299.887,76.319L299.245,76.639Z M372.295,484.992L372.977,487.256L375.984,488.251L376.144,486.673L382.359,485.369L382.8,486.947L386.448,485.712L387.972,486.09L389.576,483.586L390.899,483.448L393.264,487.325L396.271,488.114L396.392,490.242L394.267,491.478L396.512,493.676L396.271,496.115L394.026,496.871L390.859,499.621L391.821,501.958L391.58,505.673L393.104,507.153L397.314,509.183L398.035,513.66L400.922,521.104L401.323,525.381L403.528,528.521L403.248,531.87L400.641,533.7L403.127,538.849L406.255,539.575L408.259,537.881L408.059,536.395L410.504,536.43L411.747,537.708L415.155,538.503L417.601,537.916L417.04,540.335L418.764,541.2L423.735,541.718L426.662,541.373L427.705,539.056L430.912,537.605L432.596,534.702L436.285,533.735L437.688,535.739L439.532,534.598L441.817,529.108L441.777,526.554L444.424,525.45L448.593,524.932L451.079,525.657L449.916,528.452L450.197,530.938L453.084,531.455L452.081,533.666L454.086,533.873L455.289,535.393L454.928,539.782L453.765,540.301L455.449,542.618L458.015,544.52L457.294,545.246L460.06,547.357L459.178,548.811L464.029,549.296L470.244,547.392L471.647,545.039L474.774,544.416L475.937,546.458L477.661,546.804L480.508,543.448L483.154,542.652L482.993,541.511L488.647,541.511L491.333,540.681L492.015,543.517L496.425,542.825L496.625,545.212L502.238,551.996L500.394,552.516L500.554,555.564L504.283,559.584L506.288,560L509.776,558.648L511.66,553.589L510.337,552.446L512.021,547.946L517.554,545.558L518.075,541.511L520,537.708L515.71,532.319L515.549,531.283L518.837,528.314L520.401,524.415L524.45,521.035L524.851,518.415L526.936,518.38L528.941,519.449L533.511,512.558L535.556,510.492L537.641,511.111L541.129,514.659L543.895,514.555L546.341,515.899L549.228,515.761L548.065,517.622L548.105,517.622L549.067,516.692L549.067,516.657L549.308,516.14L549.268,516.106L551.834,515.313L551.914,512.076L549.909,511.628L549.909,509.803L545.82,510.595L542.973,510.251L538.804,507.015L540.327,504.951L543.174,497.49L546.381,494.707L547.223,495.6L548.506,501.718L550.792,502.302L556.324,501.511L558.85,499.38L560.695,495.016L563.661,495.084L565.506,490.929L569.034,487.462L571.159,484.134L574.407,484.272L576.532,485.575L577.093,488.114L580.18,487.359L582.906,482.077L582.305,480.602L580.621,481.117L582.225,478.203L584.43,477.244L583.027,472.996L581.383,470.462L580.621,467.143L578.135,466.322L575.609,461.773L574.527,461.09L581.383,459.312L584.189,456.954L585.192,451.388L584.069,447.566L589.762,447.532L589.602,445.281L587.718,441.632L585.633,439.587L585.713,436.794L582.225,434.852L582.305,430.972L579.458,429.338L578.937,427.671L585.913,430.529L588.159,429.781L589.321,427.807L590.123,431.516L592.128,431.516L595.295,433.048L596.899,431.788L602.231,435.227L602.472,432.639L603.675,431.448L603.554,428.59L601.069,426.073L602.592,426.073L602.272,422.401L604.557,421.721L604.437,420.532L600.828,420.158L601.71,416.897L600.267,416.014L600.387,413.672L602.833,411.907L603.996,409.226L602.672,407.564L602.392,405.089L604.116,403.191L604.437,400.751L602.231,397.263L598.543,396.349L596.137,397.5L593.571,396.146L600.347,389.953L604.637,389.04L607.283,385.119L611.092,382.719L613.738,381.537L613.538,379.984L604.878,380.625L604.677,378.768L602.552,376.472L599.184,378.734L593.692,376.304L590.364,374.009L586.274,374.043L584.871,373.064L581.824,368.95L580.701,369.017L575.89,361.571L571.72,356.724L565.065,351.544L563.541,349.427L560.695,347.713L553.999,347.242L551.273,345.294L545.379,339.989L543.134,336.869L549.027,334.521L551.633,332.376L554.921,331.337L557.206,329.494L557.046,326.479L554.44,324.37L553.438,322.428L550.711,323.332L547.343,322.863L548.306,319.785L545.7,317.778L543.254,318.547L541.811,320.588L538.804,319.082L540.648,316.808L538.884,315.672L539.365,312.497L538.643,307.553L536.037,306.518L535.436,307.82L532.91,307.353L530.584,309.156L527.658,308.054L524.37,308.689L522.806,310.926L519.679,310.392L518.797,311.394L520.401,312.831L520.681,315.973L518.677,316.14L516.872,318.447L512.623,317.979L510.939,319.183L507.09,324.236L506.087,323.867L504.203,318.915L503,317.544L502.559,313.633L501.797,314.803L497.547,315.839L498.389,311.828L494.821,312.797L488.807,313.265L483.996,312.563L481.47,311.361L477.661,308.121L474.333,306.719L473.491,304.616L470.725,301.58L469.121,297.412L466.315,298.012L462.987,297.145L461.864,298.812L459.9,296.846L455.73,297.445L455.088,298.545L453.284,297.545L449.756,300.013L451.4,301.647L450.117,302.914L450.397,307.219L446.909,310.626L447.03,312.898L445.827,313.733L445.426,316.675L446.629,319.551L445.225,319.818L443.461,322.863L440.374,323.298L440.575,327.718L438.089,331.236L435.723,331.571L434.561,328.924L431.473,330.331L430.19,332.543L424.698,333.918L426.422,336.164L424.577,337.976L426.863,340.358L430.391,338.882L431.032,340.459L430.952,344.387L433.077,348.519L435.362,349.191L431.874,350.838L430.391,349.359L427.183,351.376L425.219,351.376L424.537,354.235L422.252,354.638L417.401,353.73L415.115,352.486L413.231,353.73L408.42,351.948L406.174,350.132L401.363,353.057L401.203,355.176L402.967,359.484L404.571,360.393L399.559,362.716L399.519,363.828L402.325,363.895L400.922,366.085L401.243,369.355L402.807,371.681L402.285,377.62L398.637,377.823L398.797,380.659L392.262,385.626L392.543,390.562L389.656,392.693L386.168,396.789L384.404,396.078L381.397,397.128L378.71,400.345L376.625,401.192L376.345,404.852L368.887,405.801L366.682,407.802L365.52,406.445L363.996,407.463L364.638,411.16L360.227,410.583L356.619,412.925L357.421,416.286L354.895,418.222L355.657,419.275L353.091,420.192L349.121,419.75L348.841,424.543L346.796,424.985L345.874,427.739L346.996,428.964L346.515,432.027L349.001,433.797L348.4,435.159L350.404,438.736L351.567,438.02L351.567,438.02L352.77,439.724L354.815,439.519L358.864,442.416L356.779,444.905L361.631,443.951L363.595,449.989L367.765,450.808L370.291,458.014L371.935,459.415L371.935,463.585L371.935,463.585L370.892,467.519L372.055,470.223L371.053,471.387L374.942,472.585L373.779,476.113L372.175,477.586L373.699,478.751L375.302,482.454ZM615.061,374.346L620.033,376L622.599,377.654L625.405,377.451L626.648,375.089L626.809,372.255L624.604,370.973L623.361,368.714L624.042,367.939L623.561,367.029L614.38,366.186L610.651,363.289L607.604,363.996L601.51,361.605L600.187,363.053L603.354,367.029L603.755,368.546L602.993,369.725L606.241,374.144L611.373,373.199L612.134,374.448ZM618.349,361.437L616.064,360.595L614.38,361.134L613.778,362.952L615.382,364.569ZM619.351,392.321L618.149,393.066L621.997,394.047L619.472,392.423ZM632.261,325.508L632.221,328.154L639.117,328.221L638.797,326.378L635.349,327.082L633.424,325.073ZM615.021,352.116L608.205,354.571L614.46,357.633L619.512,358.306L620.514,353.965L619.271,352.116L616.866,352.116L615.903,350.67ZM625.085,357.33L622.519,357.767L627.771,358.205L628.212,356.96L631.58,358.036L630.938,355.816L626.127,355.816ZM606.12,427.059L605.278,428.794L608.125,428.352L609.368,427.195L606.802,425.155ZM628.653,380.524L629.575,384.375L631.5,384.713L630.577,382.044L632.662,381.166L632.622,378.835L631.219,376.709L630.337,377.519L627.33,376.236L625.967,377.62L626.488,379.308L627.45,380.119L628.052,380.456ZM632.422,346.973L632.582,344.589L628.773,343.514L622.519,342.876L622.759,346.335L625.165,347.074L627.37,346.1ZM593.852,453.607L595.496,452.856L595.416,450.774ZM621.677,383.632L618.83,384.476L620.594,386.302L624.604,388.77L625.606,387.789L623.922,385.321L625.205,384.679ZM590.805,433.32L593.531,435.397L594.213,433.32L592.729,432.197ZM552.435,528.279L552.195,528.624L552.275,528.694L552.596,528.107ZM600.748,322.997L602.352,328.757L604.236,330.7L610.09,334.387L613.097,334.823L609.328,331.404L605.158,329.996L603.955,328.321L603.635,324.537L602.472,322.194ZM597.22,473.065L599.144,471.387L596.739,471.044ZM616.304,396.315L618.189,393.607L617.467,392.287L613.979,389.886L612.976,387.316L609.889,387.688L607.524,391.814L609.248,392.998L610.651,392.017L613.417,395.57ZM634.467,377.215L634.346,377.181L634.386,377.012L633.825,377.282L633.785,377.417L633.745,377.417L633.665,377.519L633.905,377.688L633.865,377.789L634.106,378.363L634.226,378.295L634.547,378.261L634.827,378.228L634.306,377.552ZM641.563,331.638L640.841,329.326L639.999,331.136ZM595.937,476.182L598.623,475.12L597.26,474.4ZM608.686,361.874L608.045,360.527L605.559,361.437L606.08,363.053ZM629.896,375.494L631.219,371.884L629.054,372.019L628.372,374.852ZM594.694,375.055L596.257,375.865L600.066,373.908L599.505,370.164L596.979,367.399L594.574,366.995L594.012,370.501L594.333,374.684ZM543.655,537.708L543.655,538.814L546.301,539.955L543.695,537.708ZM601.309,426.447L603.073,428.25L602.913,426.175ZM606.922,389.243L605.158,390.089L606.361,392.017ZM600.547,366.119L598.583,367.77L600.908,369.388L601.991,366.658ZM601.67,354.84L604.477,353.495L603.715,351.443L600.628,351.881L599.305,353.562ZM616.986,375.831L615.061,374.346L614.34,375.46L614.46,375.46L614.54,375.494L616.424,376.472ZM623.16,391.543L624.042,389.953L621.236,389.615L620.153,387.586L618.309,388.432L620.795,391.07ZM548.065,517.622L548.065,517.691L548.105,517.622ZM653.912,364.333L655.476,365.108L655.275,364.94L655.075,364.67L654.593,364.535L654.112,364.333L654.032,364.299ZM621.637,356.017L620.955,358.137L624.964,357.296L623.962,355.917ZM622.839,382.652L624.523,383.361L626.769,382.652L626.769,381.199L624.042,381.132ZM655.275,328.388L656.478,326.948L655.115,326.077L653.711,327.115ZM545.74,507.841L549.268,506.258L547.183,504.641L543.855,504.779L541.811,507.084ZM551.433,506.155L554.801,504.538L552.195,503.712L550.471,505.157ZM633.985,376.405L633.584,376.439L633.424,376.675L633.504,376.742L633.584,376.979L634.306,376.776L634.266,376.709L634.066,376.439ZM658.843,328.087L658.523,326.144L656.999,327.082ZM617.467,375.561L619.632,377.046L622.238,377.991L620.033,376.169ZM606.321,376.506L607.283,378.093L608.245,376.439ZM542.212,505.123L545.178,503.85L544.136,503.265ZM635.108,378.295L635.068,378.396L635.228,378.43L635.188,378.295ZM614.34,375.46L614.54,375.494L614.46,375.46Z M252.897,112.269L255.623,114.627L255.744,119.927L254.942,120.509L250.772,119.183L250.211,120.93L245.52,121.673L242.353,123.194L242.312,126.139L240.428,125.848L239.506,127.337L234.494,128.082L231.006,130.77L228.841,130.446L223.99,132.098L222.506,129.377L220.381,127.337L218.697,127.434L217.495,125.912L217.735,122.256L212.723,118.602L213.886,115.467L211.12,112.689L207.632,112.56L205.827,111.333L205.867,113.012L204.103,112.883L203.863,111.333L201.457,109.138L198.811,109.17L196.686,108.202L194.722,109.299L191.634,109.202L190.592,111.107L188.307,111.236L186.462,114.885L186.382,116.436L184.417,121.35L189.91,121.673L188.748,127.79L186.302,127.013L185.42,127.984L187.946,131.515L187.906,135.405L190.431,140.206L185.54,140.79L182.052,142.283L178.965,141.374L176.279,142.023L174.474,145.336L172.63,144.231L171.267,145.563L171.267,149.007L169.904,148.52L169.302,150.21L170.184,152.031L169.182,153.755L171.026,154.145L172.55,156.423L172.309,158.864L170.585,158.897L170.906,161.307L168.34,164.989L168.54,168.543L167.618,169.717L164.732,169.456L161.444,170.435L159.72,172.524L151.461,172.654L148.173,171.642L146.569,168.706L144.404,168.282L142.44,169.848L142.079,172.654L143.121,172.882L143.923,177.193L141.718,176.964L141.157,178.924L143.322,180.166L145.086,182.519L149.376,182.193L151.06,182.683L150.699,184.351L157.836,184.939L158.918,187.099L161.604,187.655L161.123,190.503L162.526,192.238L161.123,193.221L160.442,196.104L160.682,199.972L161.845,204.861L164.611,204.762L166.175,205.747L168.661,205.419L168.621,207.388L175.557,205.944L175.396,207.651L181.17,211.33L181.892,212.875L182.012,212.875L182.012,212.907L182.012,212.94L181.932,213.006L182.814,214.617L185.941,216.096L188.106,215.669L189.549,217.017L191.594,215.472L192.236,216.721L194.641,211.166L197.087,212.382L199.011,210.509L200.134,212.875L204.825,208.406L206.79,205.878L208.033,206.469L205.787,208.078L203.823,210.739L206.268,211.626L205.106,213.532L207.311,217.938L208.193,228.573L210.077,232.562L208.794,240.151L209.235,243.189L207.952,247.089L208.674,248.577L207.03,252.182L206.95,254.3L208.313,255.458L206.469,257.941L204.224,257.279L201.377,258.339L201.377,258.339L198.731,257.213L196.365,258.538L192.797,257.809L184.818,263.209L183.535,263.01L181.009,264.668L179.807,266.624L180.368,268.847L177.401,270.174L175.837,274.257L172.951,276.216L174.154,279.173L173.111,282.065L174.354,283.096L172.991,285.757L175.276,286.489L177.642,286.056L179.566,291.215L181.811,291.049L183.896,293.38L183.936,295.812L186.903,299.112L188.066,297.179L191.434,294.746L194.401,295.379L199.453,301.18L200.695,300.146L203.302,300.213L205.226,298.879L206.549,301.38L209.957,303.815L209.877,305.417L214.287,306.218L214.848,307.72L217.695,307.654L218.537,311.294L216.452,311.227L212.323,312.931L209.476,315.672L205.106,317.31L204.023,319.651L204.985,320.487L204.184,324.303L199.733,324.637L198.41,328.958L201.738,332.107L202.099,334.655L204.023,334.387L205.827,335.661L206.549,338.244L208.033,339.788L207.03,344.118L208.754,346.47L206.389,348.855L208.353,351.578L207.551,353.158L212.924,354.638L213.726,357.128L218.136,360.258L217.495,361.807L219.62,366.388L218.978,369.523L219.82,371.209L218.657,375.527L222.226,380.22L222.667,385.321L225.112,384.747L228.681,385.49L230.164,387.519L232.129,387.316L236.178,384.274L244.317,380.321L248.086,380.254L249.81,379.443L251.975,370.602L254.26,368.815L257.267,368.579L260.755,370.063L262.52,369.86L264.885,371.58L266.128,373.807L267.932,373.267L268.093,376.337L270.418,374.852L272.463,376.877L271.34,380.49L264.685,387.079L263.482,386.437L257.708,392.457L259.352,392.592L259.793,393.303L259.873,393.336L259.753,393.844L258.149,394.318L256.305,397.195L260.515,400.209L260.836,401.903L263.362,399.667L264.685,401.565L269.135,401.158L270.739,398.99L275.029,396.45L277.314,395.875L278.717,394.182L281.684,394.352L286.295,392.321L286.014,389.717L287.859,388.195L286.977,386.673L283.729,384.51L287.257,382.584L287.418,380.119L290.144,378.734L293.071,378.329L294.995,379.106L295.998,381.334L295.436,384.341L298.002,385.119L301.009,383.463L302.332,385.761L303.856,383.936L305.981,383.294L305.58,386.437L308.587,389.886L308.507,393.878L310.872,395.706L313.478,396.078L313.037,397.635L314.32,400.345L318.57,400.176L321.136,398.651L323.141,399.905L323.903,402.479L326.469,402.852L330.719,401.531L335.77,403.022L339.74,402.92L344.31,401.022L346.836,401.802L347.357,403.327L350.244,403.903L353.411,406.784L352.369,407.937L352.93,411.398L356.619,412.925L360.227,410.583L364.638,411.16L363.996,407.463L365.52,406.445L366.682,407.802L368.887,405.801L376.345,404.852L376.625,401.192L378.71,400.345L381.397,397.128L384.404,396.078L386.168,396.789L389.656,392.693L392.543,390.562L392.262,385.626L398.797,380.659L398.637,377.823L402.285,377.62L402.807,371.681L401.243,369.355L400.922,366.085L402.325,363.895L399.519,363.828L399.559,362.716L404.571,360.393L402.967,359.484L401.203,355.176L401.363,353.057L406.174,350.132L408.42,351.948L413.231,353.73L415.115,352.486L417.401,353.73L422.252,354.638L424.537,354.235L425.219,351.376L427.183,351.376L430.391,349.359L431.874,350.838L435.362,349.191L433.077,348.519L430.952,344.387L431.032,340.459L430.391,338.882L426.863,340.358L424.577,337.976L426.422,336.164L424.698,333.918L430.19,332.543L431.473,330.331L434.561,328.924L435.723,331.571L438.089,331.236L440.575,327.718L440.374,323.298L443.461,322.863L445.225,319.818L446.629,319.551L445.426,316.675L445.827,313.733L447.03,312.898L446.909,310.626L450.397,307.219L450.117,302.914L451.4,301.647L449.756,300.013L448.192,301.38L443.822,298.112L439.171,298.312L437.728,296.946L434.641,297.145L432.596,294.613L433.518,291.648L431.955,288.885L431.153,291.615L428.306,291.349L426.502,292.181L422.051,290.883L422.011,289.251L419.445,289.284L416.118,292.148L415.997,293.18L410.104,292.747L408.139,293.047L400.722,292.714L395.79,293.547L393.304,290.283L391.34,290.117L390.979,287.487L392.583,284.227L394.026,284.792L397.715,284.027L399.519,282.863L401.564,275.917L399.84,275.519L400.401,274.689L401.724,274.689L401.443,271.767L399.96,267.885L396.311,268.183L394.427,264.038L392.743,264.502L391.981,267.254L385.927,266.193L385.927,264.767L389.455,262.281L386.609,260.956L385.807,259.101L381.276,259.896L380.354,260.956L378.029,260.094L378.791,258.538L375.423,257.809L376.906,253.704L374.42,252.645L374.781,251.222L367.725,247.915L369.409,244.346L369.729,238.434L372.295,237.741L376.666,235.464L376.305,232.628L377.307,230.748L385.967,229.726L387.972,227.09L386.849,223.763L389.816,221.986L388.654,217.116L389.055,212.645L384.965,212.94L382.599,212.053L383.682,208.439L380.795,206.797L381.076,205.255L382.92,204.27L385.246,205.747L386.93,204.697L388.894,205.09L390.859,203.417L390.859,203.417L391.901,205.058L393.344,204.073L395.149,205.484L397.474,204.04L398.918,206.436L403.167,204.828L402.045,207.388L404.049,207.126L404.09,207.126L404.049,207.126L404.09,207.126L407.578,210.509L411.828,209.852L414.674,213.926L418.403,210.87L420.087,208.472L419.084,207.093L423.495,205.845L424.176,203.876L422.733,201.645L422.933,197.284L421.169,189.651L416.519,189.815L412.71,186.444L410.504,181.179L408.7,181.016L404.851,182.291L402.165,182.127L402.365,181.048L402.365,181.048L399.318,181.114L399.158,183.37L397.514,183.468L396.793,187.819L392.422,187.851L392.422,187.851L392.102,193.09L393.304,195.383L390.097,196.497L385.887,194.924L381.316,196.53L380.515,195.875L375.543,196.432L373.378,194.99L370.812,196.792L368.487,196.596L367.685,193.221L365.8,193.81L363.595,192.402L363.675,188.309L360.348,188.178L359.225,183.86L360.468,182.421L363.034,181.8L363.836,180.329L361.59,180.297L359.987,178.401L359.907,176.474L358.343,170.859L358.183,165.804L355.657,164.109L353.772,167.271L346.555,169.522L346.475,168.38L343.308,166.521L342.586,163.555L340.301,163.653L340.1,161.209L342.386,160.102L343.588,156.618L345.954,153.885L345.152,152.063L345.834,148.65L347.357,146.278L351.046,147.35L351.727,139.589L351.367,138.129L354.975,135.113L354.534,130.414L351.727,128.405L348.32,128.438L345.353,130.219L342.265,129.507L337.655,131.418L333.886,130.381L330.478,130.543L327.792,132.034L326.148,129.507L327.11,128.923L328.393,121.382L328.032,120.283L325.506,121.059L322.74,117.438L322.66,113.69L319.933,111.333L318.851,113.173L316.004,114.174L314.32,110.687L312.476,109.234L307.304,111.365L305.259,111.107L302.212,107.46L299.245,108.783L297,108.073L295.717,108.912L291.467,108.718L287.458,106.589L287.017,104.847L282.005,103.332L280.602,102.3L282.286,98.788L276.953,94.731L277.875,90.548L276.392,89.519L276.953,87.879L273.064,86.626L267.772,87.879L264.805,85.212L264.244,83.67L260.916,82.449L256.987,82.417L252.416,81.068L252.536,79.881L245.801,75.87L244.919,73.176L242.032,72.182L241.871,70.836L238.223,71.541L235.617,72.791L235.015,74.074L232.49,73.56L230.004,77.281L226.676,75.709L226.315,78.34L227.157,80.105L225.473,80.908L224.431,83.284L225.513,85.18L227.919,86.947L227.759,88.329L230.525,88.683L233.492,90.934L237.14,92.382L238.103,95.89L240.508,95.375L240.508,95.375L243.595,95.697L247.484,93.926L250.451,94.602L251.774,95.858L249.369,97.468L249.208,99.948L250.692,102.171L248.767,103.364L248.246,105.202L251.374,108.718L251.374,108.718L252.897,112.269ZM400.401,274.689L399.84,275.519L401.564,275.917L401.724,274.689ZM259.352,392.592L257.708,392.457L256.425,393.438L258.149,394.318L259.753,393.844L259.873,393.336L259.793,393.303ZM181.892,212.875L181.932,213.006L182.012,212.94L182.012,212.907L182.012,212.875Z" fill="#e6f4ea" stroke="#137333" stroke-width="4" stroke-linejoin="round" stroke-linecap="round" />
  
  <!-- 内发光描边 -->
  <path d="M532.91,307.353L535.436,307.82L536.037,306.518L538.643,307.553L539.365,312.497L538.884,315.672L540.648,316.808L538.804,319.082L541.811,320.588L543.254,318.547L545.7,317.778L548.306,319.785L547.343,322.863L550.711,323.332L553.438,322.428L554.44,324.37L557.046,326.479L557.206,329.494L562.9,329.326L567.069,326.044L573.003,323.098L578.456,321.157L583.668,320.287L598.222,320.588L600.748,322.997L602.472,322.194L601.47,319.818L604.036,317.41L603.835,310.526L602.953,307.42L600.948,304.182L592.048,295.679L586.354,288.719L578.336,284.094L573.244,282.797L565.666,277.279L561.697,275.153L558.93,276.017L558.93,276.017L555.442,277.445L555.081,276.382L550.711,279.24L548.667,282.963L546.742,284.094L547.825,286.09L548.626,290.55L545.218,289.484L543.254,292.514L544.336,298.179L540.528,299.746L534.794,299.279L531.587,299.712L530.183,301.947L532.228,302.347ZM602.793,268.316L585.873,264.635L581.182,263.077L578.376,262.712L571.8,259.465L567.43,258.405L564.383,254.233L560.374,251.95L556.605,252.248L552.355,254.134L547.063,259.067L548.787,259.399L558.169,268.349L563.541,272.464L565.065,270.373L567.591,270.041L574.968,273.892L580.06,275.818L583.788,276.515L592.649,279.971L597.3,280.569L603.234,278.276L604.156,276.382ZM591.126,286.988L590.925,284.826L587.637,281.966L577.454,278.874L576.251,277.014L573.244,276.316L572.522,277.08L576.572,280.104L586.715,285.391L589.081,287.953L590.444,288.219ZM591.526,285.258L591.647,287.088L594.052,289.251L600.026,290.05L605.479,290.117L610.771,291.848L612.415,288.486L612.014,287.587L607.083,287.387L601.269,286.522L594.373,284.094L590.925,283.894ZM580.14,279.506L580.461,278.741L577.053,277.246ZM600.748,294.446L601.79,298.112L604.156,298.012L604.998,294.08L601.229,293.58ZM596.779,292.814L598.503,295.779L599.465,293.247Z M299.245,76.639L296.719,76.96L298.724,77.891L296.399,78.533L296.719,80.683L295.396,81.518L295.116,83.83L289.783,84.923L288.019,78.918L288.821,76.8L285.734,70.964L283.729,71.605L282.967,69.202L283.528,66.736L280.401,63.79L276.953,62.958L275.79,60.431L277.595,60.143L276.753,58.224L274.347,58.32L273.906,54.964L269.736,52.76L267.371,52.696L266.97,50.365L265.246,49.727L264.725,53.527L257.989,52.058L254.381,52.026L253.819,53.143L250.171,54.038L242.834,54.9L240.428,57.809L240.107,63.982L237.902,64.43L237.541,66.639L239.386,66.96L238.223,71.541L241.871,70.836L242.032,72.182L244.919,73.176L245.801,75.87L252.536,79.881L252.416,81.068L256.987,82.417L260.916,82.449L264.244,83.67L264.805,85.212L267.772,87.879L273.064,86.626L276.953,87.879L276.392,89.519L277.875,90.548L276.953,94.731L282.286,98.788L280.602,102.3L282.005,103.332L287.017,104.847L287.458,106.589L291.467,108.718L295.717,108.912L297,108.073L299.245,108.783L302.212,107.46L305.259,111.107L307.304,111.365L312.476,109.234L314.32,110.687L316.004,114.174L318.851,113.173L319.933,111.333L322.66,113.69L322.74,117.438L325.506,121.059L328.032,120.283L328.393,121.382L327.11,128.923L326.148,129.507L327.792,132.034L330.478,130.543L333.886,130.381L337.655,131.418L342.265,129.507L345.353,130.219L348.32,128.438L351.727,128.405L354.534,130.414L354.975,135.113L351.367,138.129L351.727,139.589L351.046,147.35L347.357,146.278L345.834,148.65L345.152,152.063L345.954,153.885L343.588,156.618L342.386,160.102L340.1,161.209L340.301,163.653L342.586,163.555L343.308,166.521L346.475,168.38L346.555,169.522L353.772,167.271L355.657,164.109L358.183,165.804L358.343,170.859L359.907,176.474L359.987,178.401L361.59,180.297L363.836,180.329L363.034,181.8L360.468,182.421L359.225,183.86L360.348,188.178L363.675,188.309L363.595,192.402L365.8,193.81L367.685,193.221L368.487,196.596L370.812,196.792L373.378,194.99L375.543,196.432L380.515,195.875L381.316,196.53L385.887,194.924L390.097,196.497L393.304,195.383L392.102,193.09L392.422,187.851L392.422,187.851L396.793,187.819L397.514,183.468L399.158,183.37L399.318,181.114L402.365,181.048L402.365,181.048L402.165,182.127L404.851,182.291L408.7,181.016L410.504,181.179L412.71,186.444L416.519,189.815L421.169,189.651L422.933,197.284L422.733,201.645L424.176,203.876L423.495,205.845L419.084,207.093L420.087,208.472L418.403,210.87L414.674,213.926L411.828,209.852L407.578,210.509L404.09,207.126L404.049,207.126L404.09,207.126L404.049,207.126L402.045,207.388L403.167,204.828L398.918,206.436L397.474,204.04L395.149,205.484L393.344,204.073L391.901,205.058L390.859,203.417L390.859,203.417L388.894,205.09L386.93,204.697L385.246,205.747L382.92,204.27L381.076,205.255L380.795,206.797L383.682,208.439L382.599,212.053L384.965,212.94L389.055,212.645L388.654,217.116L389.816,221.986L386.849,223.763L387.972,227.09L385.967,229.726L377.307,230.748L376.305,232.628L376.666,235.464L372.295,237.741L369.729,238.434L369.409,244.346L367.725,247.915L374.781,251.222L374.42,252.645L376.906,253.704L375.423,257.809L378.791,258.538L378.029,260.094L380.354,260.956L381.276,259.896L385.807,259.101L386.609,260.956L389.455,262.281L385.927,264.767L385.927,266.193L391.981,267.254L392.743,264.502L394.427,264.038L396.311,268.183L399.96,267.885L401.443,271.767L401.724,274.689L401.564,275.917L399.519,282.863L397.715,284.027L394.026,284.792L392.583,284.227L390.979,287.487L391.34,290.117L393.304,290.283L395.79,293.547L400.722,292.714L408.139,293.047L410.104,292.747L415.997,293.18L416.118,292.148L419.445,289.284L422.011,289.251L422.051,290.883L426.502,292.181L428.306,291.349L431.153,291.615L431.955,288.885L433.518,291.648L432.596,294.613L434.641,297.145L437.728,296.946L439.171,298.312L443.822,298.112L448.192,301.38L449.756,300.013L453.284,297.545L455.088,298.545L455.73,297.445L459.9,296.846L461.864,298.812L462.987,297.145L466.315,298.012L469.121,297.412L470.725,301.58L473.491,304.616L474.333,306.719L477.661,308.121L481.47,311.361L483.996,312.563L488.807,313.265L494.821,312.797L498.389,311.828L497.547,315.839L501.797,314.803L502.559,313.633L503,317.544L504.203,318.915L506.087,323.867L507.09,324.236L510.939,319.183L512.623,317.979L516.872,318.447L518.677,316.14L520.681,315.973L520.401,312.831L518.797,311.394L519.679,310.392L522.806,310.926L524.37,308.689L527.658,308.054L530.584,309.156L532.91,307.353L532.228,302.347L530.183,301.947L531.587,299.712L534.794,299.279L540.528,299.746L544.336,298.179L543.254,292.514L545.218,289.484L548.626,290.55L547.825,286.09L546.742,284.094L548.667,282.963L550.711,279.24L555.081,276.382L555.442,277.445L558.93,276.017L558.93,276.017L561.697,275.153L563.541,272.464L558.169,268.349L548.787,259.399L547.063,259.067L552.355,254.134L556.605,252.248L560.374,251.95L564.383,254.233L567.43,258.405L571.8,259.465L578.376,262.712L581.182,263.077L585.873,264.635L602.793,268.316L602.472,261.685L597.22,252.083L595.055,246.296L589.602,241.241L588.76,239.524L573.524,234.508L574.647,233.485L569.194,231.836L571.841,229.627L571.48,226.234L568.633,225.015L567.029,215.34L564.744,213.4L562.258,212.513L556.886,211.922L549.308,208.932L547.263,206.338L544.336,205.878L540.648,203.975L536.839,203.548L538.002,201.973L536.959,198.956L533.872,197.743L536.278,196.89L537.521,193.843L538.122,187.426L536.558,185.234L534.955,177.911L533.992,176.605L530.985,175.233L531.146,172.197L529.141,164.63L527.577,162.806L528.5,160.395L527.217,158.539L524.33,158.311L522.486,156.325L520.922,149.852L518.516,144.426L514.788,138.259L514.026,137.48L512.222,134.789L509.014,127.369L505.847,122.353L498.149,107.234L496.866,101.527L494.701,96.566L494.54,93.218L480.989,87.719L471.807,83.316L461.984,81.582L460.02,79.624L450.879,76.158L448.914,74.619L446.188,73.144L439.452,69.394L443.381,65.455L438.891,64.494L433.999,64.238L441.336,64.078L441.497,64.11L437.768,62.094L437.848,63.118L433.799,63.438L429.509,62.766L426.863,61.263L424.657,61.167L423.294,59.312L422.332,55.252L423.134,52.952L422.893,49.312L424.657,44.941L427.705,43.665L428.146,46.249L429.148,45.962L428.186,43.634L429.068,43.123L427.825,40.605L425.419,40L423.294,41.147L418.122,41.848L416.599,44.526L410.905,44.494L405.413,45.451L404.49,44.781L400.2,46.44L400.08,51.738L396.472,56.37L396.151,58.32L394.307,61.486L392.182,61.614L390.859,64.687L393.785,65.007L395.068,66.127L392.182,68.049L388.974,69.042L387.29,68.049L383.602,68.017L383.201,66.704L379.592,67.248L374.06,70.483L374.901,72.631L372.656,72.438L371.694,74.458L372.656,80.137L371.133,82.353L370.411,85.372L368.767,86.176L362.954,85.565L362.112,86.851L358.383,86.786L358.223,88.522L355.737,88.49L355.617,83.702L352.69,81.743L354.775,80.33L356.098,77.794L349.202,76.126L351.527,73.208L349.522,70.515L347.558,70.836L340.902,69.042L338.176,69.554L337.735,71.252L330.638,70.772L330.478,75.228L331.16,79.431L323.502,77.57L321.858,80.587L318.65,81.261L317.528,83.091L314,82.802L309.228,81.646L305.179,77.345L305.179,76.126L303.094,75.132L300.127,75.902L300.127,75.902L299.887,76.319L299.887,76.319L299.245,76.639Z M372.295,484.992L372.977,487.256L375.984,488.251L376.144,486.673L382.359,485.369L382.8,486.947L386.448,485.712L387.972,486.09L389.576,483.586L390.899,483.448L393.264,487.325L396.271,488.114L396.392,490.242L394.267,491.478L396.512,493.676L396.271,496.115L394.026,496.871L390.859,499.621L391.821,501.958L391.58,505.673L393.104,507.153L397.314,509.183L398.035,513.66L400.922,521.104L401.323,525.381L403.528,528.521L403.248,531.87L400.641,533.7L403.127,538.849L406.255,539.575L408.259,537.881L408.059,536.395L410.504,536.43L411.747,537.708L415.155,538.503L417.601,537.916L417.04,540.335L418.764,541.2L423.735,541.718L426.662,541.373L427.705,539.056L430.912,537.605L432.596,534.702L436.285,533.735L437.688,535.739L439.532,534.598L441.817,529.108L441.777,526.554L444.424,525.45L448.593,524.932L451.079,525.657L449.916,528.452L450.197,530.938L453.084,531.455L452.081,533.666L454.086,533.873L455.289,535.393L454.928,539.782L453.765,540.301L455.449,542.618L458.015,544.52L457.294,545.246L460.06,547.357L459.178,548.811L464.029,549.296L470.244,547.392L471.647,545.039L474.774,544.416L475.937,546.458L477.661,546.804L480.508,543.448L483.154,542.652L482.993,541.511L488.647,541.511L491.333,540.681L492.015,543.517L496.425,542.825L496.625,545.212L502.238,551.996L500.394,552.516L500.554,555.564L504.283,559.584L506.288,560L509.776,558.648L511.66,553.589L510.337,552.446L512.021,547.946L517.554,545.558L518.075,541.511L520,537.708L515.71,532.319L515.549,531.283L518.837,528.314L520.401,524.415L524.45,521.035L524.851,518.415L526.936,518.38L528.941,519.449L533.511,512.558L535.556,510.492L537.641,511.111L541.129,514.659L543.895,514.555L546.341,515.899L549.228,515.761L548.065,517.622L548.105,517.622L549.067,516.692L549.067,516.657L549.308,516.14L549.268,516.106L551.834,515.313L551.914,512.076L549.909,511.628L549.909,509.803L545.82,510.595L542.973,510.251L538.804,507.015L540.327,504.951L543.174,497.49L546.381,494.707L547.223,495.6L548.506,501.718L550.792,502.302L556.324,501.511L558.85,499.38L560.695,495.016L563.661,495.084L565.506,490.929L569.034,487.462L571.159,484.134L574.407,484.272L576.532,485.575L577.093,488.114L580.18,487.359L582.906,482.077L582.305,480.602L580.621,481.117L582.225,478.203L584.43,477.244L583.027,472.996L581.383,470.462L580.621,467.143L578.135,466.322L575.609,461.773L574.527,461.09L581.383,459.312L584.189,456.954L585.192,451.388L584.069,447.566L589.762,447.532L589.602,445.281L587.718,441.632L585.633,439.587L585.713,436.794L582.225,434.852L582.305,430.972L579.458,429.338L578.937,427.671L585.913,430.529L588.159,429.781L589.321,427.807L590.123,431.516L592.128,431.516L595.295,433.048L596.899,431.788L602.231,435.227L602.472,432.639L603.675,431.448L603.554,428.59L601.069,426.073L602.592,426.073L602.272,422.401L604.557,421.721L604.437,420.532L600.828,420.158L601.71,416.897L600.267,416.014L600.387,413.672L602.833,411.907L603.996,409.226L602.672,407.564L602.392,405.089L604.116,403.191L604.437,400.751L602.231,397.263L598.543,396.349L596.137,397.5L593.571,396.146L600.347,389.953L604.637,389.04L607.283,385.119L611.092,382.719L613.738,381.537L613.538,379.984L604.878,380.625L604.677,378.768L602.552,376.472L599.184,378.734L593.692,376.304L590.364,374.009L586.274,374.043L584.871,373.064L581.824,368.95L580.701,369.017L575.89,361.571L571.72,356.724L565.065,351.544L563.541,349.427L560.695,347.713L553.999,347.242L551.273,345.294L545.379,339.989L543.134,336.869L549.027,334.521L551.633,332.376L554.921,331.337L557.206,329.494L557.046,326.479L554.44,324.37L553.438,322.428L550.711,323.332L547.343,322.863L548.306,319.785L545.7,317.778L543.254,318.547L541.811,320.588L538.804,319.082L540.648,316.808L538.884,315.672L539.365,312.497L538.643,307.553L536.037,306.518L535.436,307.82L532.91,307.353L530.584,309.156L527.658,308.054L524.37,308.689L522.806,310.926L519.679,310.392L518.797,311.394L520.401,312.831L520.681,315.973L518.677,316.14L516.872,318.447L512.623,317.979L510.939,319.183L507.09,324.236L506.087,323.867L504.203,318.915L503,317.544L502.559,313.633L501.797,314.803L497.547,315.839L498.389,311.828L494.821,312.797L488.807,313.265L483.996,312.563L481.47,311.361L477.661,308.121L474.333,306.719L473.491,304.616L470.725,301.58L469.121,297.412L466.315,298.012L462.987,297.145L461.864,298.812L459.9,296.846L455.73,297.445L455.088,298.545L453.284,297.545L449.756,300.013L451.4,301.647L450.117,302.914L450.397,307.219L446.909,310.626L447.03,312.898L445.827,313.733L445.426,316.675L446.629,319.551L445.225,319.818L443.461,322.863L440.374,323.298L440.575,327.718L438.089,331.236L435.723,331.571L434.561,328.924L431.473,330.331L430.19,332.543L424.698,333.918L426.422,336.164L424.577,337.976L426.863,340.358L430.391,338.882L431.032,340.459L430.952,344.387L433.077,348.519L435.362,349.191L431.874,350.838L430.391,349.359L427.183,351.376L425.219,351.376L424.537,354.235L422.252,354.638L417.401,353.73L415.115,352.486L413.231,353.73L408.42,351.948L406.174,350.132L401.363,353.057L401.203,355.176L402.967,359.484L404.571,360.393L399.559,362.716L399.519,363.828L402.325,363.895L400.922,366.085L401.243,369.355L402.807,371.681L402.285,377.62L398.637,377.823L398.797,380.659L392.262,385.626L392.543,390.562L389.656,392.693L386.168,396.789L384.404,396.078L381.397,397.128L378.71,400.345L376.625,401.192L376.345,404.852L368.887,405.801L366.682,407.802L365.52,406.445L363.996,407.463L364.638,411.16L360.227,410.583L356.619,412.925L357.421,416.286L354.895,418.222L355.657,419.275L353.091,420.192L349.121,419.75L348.841,424.543L346.796,424.985L345.874,427.739L346.996,428.964L346.515,432.027L349.001,433.797L348.4,435.159L350.404,438.736L351.567,438.02L351.567,438.02L352.77,439.724L354.815,439.519L358.864,442.416L356.779,444.905L361.631,443.951L363.595,449.989L367.765,450.808L370.291,458.014L371.935,459.415L371.935,463.585L371.935,463.585L370.892,467.519L372.055,470.223L371.053,471.387L374.942,472.585L373.779,476.113L372.175,477.586L373.699,478.751L375.302,482.454ZM615.061,374.346L620.033,376L622.599,377.654L625.405,377.451L626.648,375.089L626.809,372.255L624.604,370.973L623.361,368.714L624.042,367.939L623.561,367.029L614.38,366.186L610.651,363.289L607.604,363.996L601.51,361.605L600.187,363.053L603.354,367.029L603.755,368.546L602.993,369.725L606.241,374.144L611.373,373.199L612.134,374.448ZM618.349,361.437L616.064,360.595L614.38,361.134L613.778,362.952L615.382,364.569ZM619.351,392.321L618.149,393.066L621.997,394.047L619.472,392.423ZM632.261,325.508L632.221,328.154L639.117,328.221L638.797,326.378L635.349,327.082L633.424,325.073ZM615.021,352.116L608.205,354.571L614.46,357.633L619.512,358.306L620.514,353.965L619.271,352.116L616.866,352.116L615.903,350.67ZM625.085,357.33L622.519,357.767L627.771,358.205L628.212,356.96L631.58,358.036L630.938,355.816L626.127,355.816ZM606.12,427.059L605.278,428.794L608.125,428.352L609.368,427.195L606.802,425.155ZM628.653,380.524L629.575,384.375L631.5,384.713L630.577,382.044L632.662,381.166L632.622,378.835L631.219,376.709L630.337,377.519L627.33,376.236L625.967,377.62L626.488,379.308L627.45,380.119L628.052,380.456ZM632.422,346.973L632.582,344.589L628.773,343.514L622.519,342.876L622.759,346.335L625.165,347.074L627.37,346.1ZM593.852,453.607L595.496,452.856L595.416,450.774ZM621.677,383.632L618.83,384.476L620.594,386.302L624.604,388.77L625.606,387.789L623.922,385.321L625.205,384.679ZM590.805,433.32L593.531,435.397L594.213,433.32L592.729,432.197ZM552.435,528.279L552.195,528.624L552.275,528.694L552.596,528.107ZM600.748,322.997L602.352,328.757L604.236,330.7L610.09,334.387L613.097,334.823L609.328,331.404L605.158,329.996L603.955,328.321L603.635,324.537L602.472,322.194ZM597.22,473.065L599.144,471.387L596.739,471.044ZM616.304,396.315L618.189,393.607L617.467,392.287L613.979,389.886L612.976,387.316L609.889,387.688L607.524,391.814L609.248,392.998L610.651,392.017L613.417,395.57ZM634.467,377.215L634.346,377.181L634.386,377.012L633.825,377.282L633.785,377.417L633.745,377.417L633.665,377.519L633.905,377.688L633.865,377.789L634.106,378.363L634.226,378.295L634.547,378.261L634.827,378.228L634.306,377.552ZM641.563,331.638L640.841,329.326L639.999,331.136ZM595.937,476.182L598.623,475.12L597.26,474.4ZM608.686,361.874L608.045,360.527L605.559,361.437L606.08,363.053ZM629.896,375.494L631.219,371.884L629.054,372.019L628.372,374.852ZM594.694,375.055L596.257,375.865L600.066,373.908L599.505,370.164L596.979,367.399L594.574,366.995L594.012,370.501L594.333,374.684ZM543.655,537.708L543.655,538.814L546.301,539.955L543.695,537.708ZM601.309,426.447L603.073,428.25L602.913,426.175ZM606.922,389.243L605.158,390.089L606.361,392.017ZM600.547,366.119L598.583,367.77L600.908,369.388L601.991,366.658ZM601.67,354.84L604.477,353.495L603.715,351.443L600.628,351.881L599.305,353.562ZM616.986,375.831L615.061,374.346L614.34,375.46L614.46,375.46L614.54,375.494L616.424,376.472ZM623.16,391.543L624.042,389.953L621.236,389.615L620.153,387.586L618.309,388.432L620.795,391.07ZM548.065,517.622L548.065,517.691L548.105,517.622ZM653.912,364.333L655.476,365.108L655.275,364.94L655.075,364.67L654.593,364.535L654.112,364.333L654.032,364.299ZM621.637,356.017L620.955,358.137L624.964,357.296L623.962,355.917ZM622.839,382.652L624.523,383.361L626.769,382.652L626.769,381.199L624.042,381.132ZM655.275,328.388L656.478,326.948L655.115,326.077L653.711,327.115ZM545.74,507.841L549.268,506.258L547.183,504.641L543.855,504.779L541.811,507.084ZM551.433,506.155L554.801,504.538L552.195,503.712L550.471,505.157ZM633.985,376.405L633.584,376.439L633.424,376.675L633.504,376.742L633.584,376.979L634.306,376.776L634.266,376.709L634.066,376.439ZM658.843,328.087L658.523,326.144L656.999,327.082ZM617.467,375.561L619.632,377.046L622.238,377.991L620.033,376.169ZM606.321,376.506L607.283,378.093L608.245,376.439ZM542.212,505.123L545.178,503.85L544.136,503.265ZM635.108,378.295L635.068,378.396L635.228,378.43L635.188,378.295ZM614.34,375.46L614.54,375.494L614.46,375.46Z M252.897,112.269L255.623,114.627L255.744,119.927L254.942,120.509L250.772,119.183L250.211,120.93L245.52,121.673L242.353,123.194L242.312,126.139L240.428,125.848L239.506,127.337L234.494,128.082L231.006,130.77L228.841,130.446L223.99,132.098L222.506,129.377L220.381,127.337L218.697,127.434L217.495,125.912L217.735,122.256L212.723,118.602L213.886,115.467L211.12,112.689L207.632,112.56L205.827,111.333L205.867,113.012L204.103,112.883L203.863,111.333L201.457,109.138L198.811,109.17L196.686,108.202L194.722,109.299L191.634,109.202L190.592,111.107L188.307,111.236L186.462,114.885L186.382,116.436L184.417,121.35L189.91,121.673L188.748,127.79L186.302,127.013L185.42,127.984L187.946,131.515L187.906,135.405L190.431,140.206L185.54,140.79L182.052,142.283L178.965,141.374L176.279,142.023L174.474,145.336L172.63,144.231L171.267,145.563L171.267,149.007L169.904,148.52L169.302,150.21L170.184,152.031L169.182,153.755L171.026,154.145L172.55,156.423L172.309,158.864L170.585,158.897L170.906,161.307L168.34,164.989L168.54,168.543L167.618,169.717L164.732,169.456L161.444,170.435L159.72,172.524L151.461,172.654L148.173,171.642L146.569,168.706L144.404,168.282L142.44,169.848L142.079,172.654L143.121,172.882L143.923,177.193L141.718,176.964L141.157,178.924L143.322,180.166L145.086,182.519L149.376,182.193L151.06,182.683L150.699,184.351L157.836,184.939L158.918,187.099L161.604,187.655L161.123,190.503L162.526,192.238L161.123,193.221L160.442,196.104L160.682,199.972L161.845,204.861L164.611,204.762L166.175,205.747L168.661,205.419L168.621,207.388L175.557,205.944L175.396,207.651L181.17,211.33L181.892,212.875L182.012,212.875L182.012,212.907L182.012,212.94L181.932,213.006L182.814,214.617L185.941,216.096L188.106,215.669L189.549,217.017L191.594,215.472L192.236,216.721L194.641,211.166L197.087,212.382L199.011,210.509L200.134,212.875L204.825,208.406L206.79,205.878L208.033,206.469L205.787,208.078L203.823,210.739L206.268,211.626L205.106,213.532L207.311,217.938L208.193,228.573L210.077,232.562L208.794,240.151L209.235,243.189L207.952,247.089L208.674,248.577L207.03,252.182L206.95,254.3L208.313,255.458L206.469,257.941L204.224,257.279L201.377,258.339L201.377,258.339L198.731,257.213L196.365,258.538L192.797,257.809L184.818,263.209L183.535,263.01L181.009,264.668L179.807,266.624L180.368,268.847L177.401,270.174L175.837,274.257L172.951,276.216L174.154,279.173L173.111,282.065L174.354,283.096L172.991,285.757L175.276,286.489L177.642,286.056L179.566,291.215L181.811,291.049L183.896,293.38L183.936,295.812L186.903,299.112L188.066,297.179L191.434,294.746L194.401,295.379L199.453,301.18L200.695,300.146L203.302,300.213L205.226,298.879L206.549,301.38L209.957,303.815L209.877,305.417L214.287,306.218L214.848,307.72L217.695,307.654L218.537,311.294L216.452,311.227L212.323,312.931L209.476,315.672L205.106,317.31L204.023,319.651L204.985,320.487L204.184,324.303L199.733,324.637L198.41,328.958L201.738,332.107L202.099,334.655L204.023,334.387L205.827,335.661L206.549,338.244L208.033,339.788L207.03,344.118L208.754,346.47L206.389,348.855L208.353,351.578L207.551,353.158L212.924,354.638L213.726,357.128L218.136,360.258L217.495,361.807L219.62,366.388L218.978,369.523L219.82,371.209L218.657,375.527L222.226,380.22L222.667,385.321L225.112,384.747L228.681,385.49L230.164,387.519L232.129,387.316L236.178,384.274L244.317,380.321L248.086,380.254L249.81,379.443L251.975,370.602L254.26,368.815L257.267,368.579L260.755,370.063L262.52,369.86L264.885,371.58L266.128,373.807L267.932,373.267L268.093,376.337L270.418,374.852L272.463,376.877L271.34,380.49L264.685,387.079L263.482,386.437L257.708,392.457L259.352,392.592L259.793,393.303L259.873,393.336L259.753,393.844L258.149,394.318L256.305,397.195L260.515,400.209L260.836,401.903L263.362,399.667L264.685,401.565L269.135,401.158L270.739,398.99L275.029,396.45L277.314,395.875L278.717,394.182L281.684,394.352L286.295,392.321L286.014,389.717L287.859,388.195L286.977,386.673L283.729,384.51L287.257,382.584L287.418,380.119L290.144,378.734L293.071,378.329L294.995,379.106L295.998,381.334L295.436,384.341L298.002,385.119L301.009,383.463L302.332,385.761L303.856,383.936L305.981,383.294L305.58,386.437L308.587,389.886L308.507,393.878L310.872,395.706L313.478,396.078L313.037,397.635L314.32,400.345L318.57,400.176L321.136,398.651L323.141,399.905L323.903,402.479L326.469,402.852L330.719,401.531L335.77,403.022L339.74,402.92L344.31,401.022L346.836,401.802L347.357,403.327L350.244,403.903L353.411,406.784L352.369,407.937L352.93,411.398L356.619,412.925L360.227,410.583L364.638,411.16L363.996,407.463L365.52,406.445L366.682,407.802L368.887,405.801L376.345,404.852L376.625,401.192L378.71,400.345L381.397,397.128L384.404,396.078L386.168,396.789L389.656,392.693L392.543,390.562L392.262,385.626L398.797,380.659L398.637,377.823L402.285,377.62L402.807,371.681L401.243,369.355L400.922,366.085L402.325,363.895L399.519,363.828L399.559,362.716L404.571,360.393L402.967,359.484L401.203,355.176L401.363,353.057L406.174,350.132L408.42,351.948L413.231,353.73L415.115,352.486L417.401,353.73L422.252,354.638L424.537,354.235L425.219,351.376L427.183,351.376L430.391,349.359L431.874,350.838L435.362,349.191L433.077,348.519L430.952,344.387L431.032,340.459L430.391,338.882L426.863,340.358L424.577,337.976L426.422,336.164L424.698,333.918L430.19,332.543L431.473,330.331L434.561,328.924L435.723,331.571L438.089,331.236L440.575,327.718L440.374,323.298L443.461,322.863L445.225,319.818L446.629,319.551L445.426,316.675L445.827,313.733L447.03,312.898L446.909,310.626L450.397,307.219L450.117,302.914L451.4,301.647L449.756,300.013L448.192,301.38L443.822,298.112L439.171,298.312L437.728,296.946L434.641,297.145L432.596,294.613L433.518,291.648L431.955,288.885L431.153,291.615L428.306,291.349L426.502,292.181L422.051,290.883L422.011,289.251L419.445,289.284L416.118,292.148L415.997,293.18L410.104,292.747L408.139,293.047L400.722,292.714L395.79,293.547L393.304,290.283L391.34,290.117L390.979,287.487L392.583,284.227L394.026,284.792L397.715,284.027L399.519,282.863L401.564,275.917L399.84,275.519L400.401,274.689L401.724,274.689L401.443,271.767L399.96,267.885L396.311,268.183L394.427,264.038L392.743,264.502L391.981,267.254L385.927,266.193L385.927,264.767L389.455,262.281L386.609,260.956L385.807,259.101L381.276,259.896L380.354,260.956L378.029,260.094L378.791,258.538L375.423,257.809L376.906,253.704L374.42,252.645L374.781,251.222L367.725,247.915L369.409,244.346L369.729,238.434L372.295,237.741L376.666,235.464L376.305,232.628L377.307,230.748L385.967,229.726L387.972,227.09L386.849,223.763L389.816,221.986L388.654,217.116L389.055,212.645L384.965,212.94L382.599,212.053L383.682,208.439L380.795,206.797L381.076,205.255L382.92,204.27L385.246,205.747L386.93,204.697L388.894,205.09L390.859,203.417L390.859,203.417L391.901,205.058L393.344,204.073L395.149,205.484L397.474,204.04L398.918,206.436L403.167,204.828L402.045,207.388L404.049,207.126L404.09,207.126L404.049,207.126L404.09,207.126L407.578,210.509L411.828,209.852L414.674,213.926L418.403,210.87L420.087,208.472L419.084,207.093L423.495,205.845L424.176,203.876L422.733,201.645L422.933,197.284L421.169,189.651L416.519,189.815L412.71,186.444L410.504,181.179L408.7,181.016L404.851,182.291L402.165,182.127L402.365,181.048L402.365,181.048L399.318,181.114L399.158,183.37L397.514,183.468L396.793,187.819L392.422,187.851L392.422,187.851L392.102,193.09L393.304,195.383L390.097,196.497L385.887,194.924L381.316,196.53L380.515,195.875L375.543,196.432L373.378,194.99L370.812,196.792L368.487,196.596L367.685,193.221L365.8,193.81L363.595,192.402L363.675,188.309L360.348,188.178L359.225,183.86L360.468,182.421L363.034,181.8L363.836,180.329L361.59,180.297L359.987,178.401L359.907,176.474L358.343,170.859L358.183,165.804L355.657,164.109L353.772,167.271L346.555,169.522L346.475,168.38L343.308,166.521L342.586,163.555L340.301,163.653L340.1,161.209L342.386,160.102L343.588,156.618L345.954,153.885L345.152,152.063L345.834,148.65L347.357,146.278L351.046,147.35L351.727,139.589L351.367,138.129L354.975,135.113L354.534,130.414L351.727,128.405L348.32,128.438L345.353,130.219L342.265,129.507L337.655,131.418L333.886,130.381L330.478,130.543L327.792,132.034L326.148,129.507L327.11,128.923L328.393,121.382L328.032,120.283L325.506,121.059L322.74,117.438L322.66,113.69L319.933,111.333L318.851,113.173L316.004,114.174L314.32,110.687L312.476,109.234L307.304,111.365L305.259,111.107L302.212,107.46L299.245,108.783L297,108.073L295.717,108.912L291.467,108.718L287.458,106.589L287.017,104.847L282.005,103.332L280.602,102.3L282.286,98.788L276.953,94.731L277.875,90.548L276.392,89.519L276.953,87.879L273.064,86.626L267.772,87.879L264.805,85.212L264.244,83.67L260.916,82.449L256.987,82.417L252.416,81.068L252.536,79.881L245.801,75.87L244.919,73.176L242.032,72.182L241.871,70.836L238.223,71.541L235.617,72.791L235.015,74.074L232.49,73.56L230.004,77.281L226.676,75.709L226.315,78.34L227.157,80.105L225.473,80.908L224.431,83.284L225.513,85.18L227.919,86.947L227.759,88.329L230.525,88.683L233.492,90.934L237.14,92.382L238.103,95.89L240.508,95.375L240.508,95.375L243.595,95.697L247.484,93.926L250.451,94.602L251.774,95.858L249.369,97.468L249.208,99.948L250.692,102.171L248.767,103.364L248.246,105.202L251.374,108.718L251.374,108.718L252.897,112.269ZM400.401,274.689L399.84,275.519L401.564,275.917L401.724,274.689ZM259.352,392.592L257.708,392.457L256.425,393.438L258.149,394.318L259.753,393.844L259.873,393.336L259.793,393.303ZM181.892,212.875L181.932,213.006L182.012,212.94L182.012,212.907L182.012,212.875Z" fill="none" stroke="#2e7d32" stroke-width="1.5" stroke-linejoin="round" stroke-linecap="round" opacity="0.6" />
</svg>