<svg xmlns="http://www.w3.org/2000/svg" width="800" height="600" viewBox="0 0 800 600">
  <!-- 背景色，采用淡米黄色 -->
  <rect width="100%" height="100%" fill="#f5f2eb" />
  
  <!-- 阴影层 -->
  <path d="M545.684,392.642L547.306,390.168L551.446,392.377L552.999,391.581L550.86,389.255L552.309,388.961L552.861,385.047L554.31,384.135L552.274,380.518L550.584,379.46L550.101,376.316L551.274,375.435L556.174,379.724L556.139,381.812L557.623,383.341L559.279,383.37L559.314,384.723L561.212,385.723L559.348,385.959L560.383,387.195L558.693,388.872L559.176,391.316L556.519,392.76L556.346,394.91L560.142,393.879L563.799,395.382L564.386,396.856L566.56,395.912L565.387,393.054L566.077,391.022L568.285,390.551L567.112,388.078L568.665,386.989L569.942,389.079L571.253,387.165L573.254,387.106L574.531,383.106L573.22,383.429L570.873,379.724L572.081,378.343L573.565,378.549L576.429,376.727L578.016,379.137L580.086,378.608L579.81,374.407L581.812,373.82L581.639,372.645L588.678,372.352L592.301,373.438L591.646,375.141L593.475,375.259L592.543,376.287L593.026,378.813L594.544,379.401L595.372,377.697L599.099,376.668L599.755,374.701L602.239,374.554L603.895,371.031L605.448,369.212L603.861,368.302L602.964,366.425L601.135,365.545L602.895,363.757L601.445,360.944L603.826,360.768L604.689,358.864L603.619,358.337L603.24,355.731L605.448,354.648L608.002,356.317L612.694,353.858L613.73,357.663L614.661,356.844L617.698,356.961L619.975,358.161L622.701,354.883L626.152,358.278L624.702,363.376L626.876,364.167L626.117,366.953L629.326,368.302L630.189,365.721L631.638,365.663L632.604,364.255L638.229,363.845L640.713,361.237L645.164,363.083L647.58,362.028L651.099,363.816L652.307,360.944L653.929,361.647L653.446,363.523L654.653,368.243L656.103,369.241L656.793,372.058L656.172,373.937L656.517,376.404L658.38,377.109L658.346,378.843L656.206,380.841L655.378,384.047L661.348,386.577L664.833,386.989L664.902,386.371L669.008,385.135L672.39,387.283L670.63,388.99L670.975,391.876L668.904,392.347L669.629,396.119L670.906,397.681L670.871,399.273L669.042,400.453L669.25,402.872L671.009,403.905L674.149,403.374L673.528,401.928L675.806,399.627L675.323,398.448L672.631,396.502L673.563,395.382L675.978,395.087L676.496,394.026L678.566,396.826L680.464,398.241L679.325,400.247L680.636,400.777L679.429,405.056L677.462,406.296L678.118,409.308L680.05,410.165L682.776,408.363L684.674,410.904L686.917,409.781L688.504,409.929L688.849,411.435L693.093,412.972L694.266,409.751L697.613,411.761L698.476,410.756L697.337,408.215L699.339,406.532L701.305,402.488L701.374,398.713L703.514,395.706L705.86,395.5L708.138,394.38L708.103,391.935L710.691,389.609L709.966,387.313L706.895,388.107L705.964,387.371L704.066,388.608L703.583,386.459L707.965,384.458L706.93,383.341L709.276,381.635L709.518,380.224L706.274,378.578L706.585,377.197L705.964,372.675L707.413,368.742L709.173,366.777L709.276,365.223L710.691,363.698L710.277,362.35L706.24,361.237L705.791,359.391L704.86,357.927L701.892,355.936L700.581,356.609L698.959,353.946L700.719,350.933L698.752,349.909L699.063,345.846L696.164,343.48L694.715,345.876L692.748,345.7L691.851,347.424L688.262,347.804L689.09,343.684L688.711,341.669L686.295,341.377L685.295,339.713L686.537,337.933L685.95,335.862L687.917,333.879L687.227,332.188L685.502,332.654L686.502,330.847L684.053,329.186L680.533,330.468L681.43,329.099L680.809,327.322L678.911,329.71L675.461,327.438L674.667,324.09L674.874,321.238L673.666,318.184L670.423,317.69L667.904,320.22L666.178,322.896L667.49,324.09L665.04,325.254L665.005,326.419L662.555,324.556L661.244,324.556L661.555,322.46L660.416,322.78L660.52,320.365L657.552,318.94L661.037,316.759L662.969,317.661L665.661,316.469L665.764,313.446L666.8,310.977L666.558,307.145L665.523,306.826L667.352,304.215L668.559,301.229L667.662,300.881L669.353,295.723L667.283,294.942L666.109,292.712L664.833,292.423L662.555,289.906L660.899,290.195L659.277,288.951L660.865,286.724L659.795,285.481L660.658,282.476L663.245,282.765L665.488,281.956L667.904,282.736L668.559,283.805L673.149,279.847L672.769,277.624L675.323,277.134L675.909,279.53L678.428,282.331L680.982,281.291L682.051,282.534L683.742,281.869L686.813,278.375L691.195,274.883L693.128,274.941L695.163,273.325L696.751,274.191L699.028,273.845L698.718,275.835L698.683,277.249L698.51,277.538L698.441,277.596L698.718,278.086L698.58,278.346L700.822,280.858L703.514,279.472L703.514,279.472L706.516,277.509L709.552,274.739L710.381,276.441L713.003,279.183L711.657,280.829L712.658,282.765L716.212,278.692L717.178,276.672L722.768,272.806L723.217,274.22L724.942,273.816L725.874,271.192L727.806,270.673L729.807,268.655L729.566,267.445L732.085,266.149L736.501,262.521L739.193,261.628L742.885,259.643L745.646,260.823L749.269,260.564L749.89,263.586L751.512,265.198L753.409,265.256L757.309,258.981L757.412,256.623L758.482,255.215L756.687,254.755L756.653,252.312L755.549,252.226L755.514,249.067L757.032,247.488L758.896,247.201L760,245.135L758.896,243.959L757.516,238.368L757.861,236.42L755.445,231.067L751.822,231.009L750.856,229.55L748.095,227.434L745.715,227.663L747.095,225.519L742.885,224.947L739.711,222.918L733.534,223.318L734.535,220.519L735.604,220.262L734.086,218.806L733.741,214.782L731.05,213.698L727.633,214.155L725.598,213.328L723.562,213.128L720.939,213.898L717.765,213.527L714.142,214.525L708.552,213.869L708.621,212.387L706.999,211.474L708.448,210.534L708.241,209.251L703.721,208.226L703.479,206.089L699.684,204.011L697.579,201.962L692.023,199.117L687.296,198.861L683.673,195.819L680.878,195.28L678.842,193.745L677.876,192.041L674.667,192.24L669.526,188.379L667.214,188.038L665.316,186.733L663.66,187.783L659.105,187.13L657.483,188.35L658.035,189.372L658.035,189.372L658.001,189.4L658.001,189.4L659.139,189.77L662.107,192.95L660.83,194.569L657.621,193.688L656.034,194.228L657.034,196.018L655.206,196.871L657.483,198.634L656.448,199.601L653.963,198.15L651.272,199.857L655.999,205.805L658.38,206.175L658.656,207.542L660.796,208.681L662.245,208.425L662.659,210.306L666.731,211.588L665.074,212.9L665.592,215.153L667.386,216.751L665.833,216.722L663.004,218.378L661.555,218.52L658.622,220.89L658.38,223.547L655.758,223.832L656.034,225.318L651.03,226.09L649.857,225.633L647.476,226.462L647.58,227.834L649.305,228.035L648.857,231.038L645.371,233.242L647.166,235.16L642.093,238.999L638.919,239.858L638.505,241.865L641.024,241.034L641.783,242.553L638.194,247.517L637.263,247.89L638.263,250.56L640.127,251.106L636.952,252.599L635.813,254.927L633.536,254.64L633.846,258.579L636.469,259.154L634.295,260.593L628.429,265.63L624.875,264.133L623.529,264.277L623.357,261.715L622.183,260.506L619.561,260.995L616.87,264.046L613.074,262.549L609.623,262.175L607.795,263.068L608.657,264.709L606.173,266.811L606.173,266.811L604.516,268.569L606.414,270.557L607.484,272.806L609.692,273.931L607.933,276.528L604.689,279.385L605.552,280.165L603.619,280.829L601.376,283.805L599.72,288.401L596.891,291.15L595.165,295.086L593.13,298.07L586.504,304.998L585.228,304.766L585.469,306.478L583.985,307.639L583.847,307.784L583.778,307.755L583.744,307.61L581.881,307.987L579.707,305.289L579.396,305.376L577.636,307.958L575.877,308.626L573.013,308.19L571.598,307.262L570.977,308.306L570.977,308.306L568.699,309.09L565.732,308.539L565.283,306.768L563.903,305.898L563.938,303.78L562.385,303.2L562.661,301.258L560.107,299.605L558.969,296.853L559.003,296.853L558.969,296.853L559.003,296.853L559.003,296.853L559.038,296.853L559.038,296.853L560.694,296.245L558.969,293.668L556.105,292.394L555.242,293.436L552.654,293.494L549.342,292.77L548.72,295.781L547.202,296.476L544.269,296.303L543.441,297.403L541.888,296.708L541.302,298.533L539.507,298.302L539.3,299.026L537.748,299.634L534.815,296.998L534.159,293.031L532.123,291.902L532.158,293.089L528.776,291.352L526.499,289.125L521.53,289.211L519.149,287.36L516.112,287.071L514.939,285.626L513.076,286.117L511.282,288.517L510.971,290.86L508.728,291.96L509.039,295.897L509.039,295.897L506.244,295.81L503.69,294.594L503.414,296.94L505.795,298.272L504.691,299.605L500.136,299.75L499.55,300.011L498.721,301.489L502.103,301.142L500.861,302.736L501.206,302.794L501.344,302.91L501.344,303.113L504.656,304.389L504.484,305.782L506.589,306.246L507.175,307.871L509.004,307.668L510.902,309.032L509.211,311.442L509.625,312.43L508.038,314.26L508.866,316.004L510.074,316.149L508.349,318.969L502.897,319.173L501.344,320.191L500.895,324.381L498.342,326.419L495.685,325.837L495.409,328.283L492.2,327.526L490.026,330.876L488.163,331.255L487.334,332.887L485.299,334.083L485.782,336.27L487.61,340.356L487.403,341.348L490.371,340.56L490.371,340.56L491.061,341.494L489.577,342.487L492.579,342.575L493.442,343.626L492.131,346.343L492.234,348.623L494.753,347.98L494.408,349.909L497.445,350.202L497.893,351.255L499.929,350.465L504.07,350.377L504.967,351.898L507.624,349.968L508.59,353.8L508.107,356.17L509.522,358.542L510.833,358.806L509.522,360.124L511.144,362.204L510.246,363.874L511.627,365.311L511.385,366.572L513.593,368.419L513.352,369.652L515.215,369.182L516.457,370.15L519.666,370.532L522.979,367.979L524.773,367.539L526.982,368.566L527.465,371.324L528.672,370.561L530.398,371.735L533.02,371.588L534.4,370.532L536.298,371.412L539.542,374.701L538.472,376.287L539.714,378.431L540.059,380.694L541.819,382.635L541.75,385.694L544.131,389.402L543.303,391.11ZM698.683,277.249L698.718,275.835L697.958,277.624L698.303,277.596L698.441,277.596L698.51,277.538ZM501.344,303.113L501.344,302.91L501.206,302.794L500.861,302.736ZM698.303,277.596L697.958,277.624L698.58,278.346L698.718,278.086ZM583.985,307.639L583.744,307.61L583.778,307.755L583.847,307.784Z M254.006,467.007L254.144,468.289L252.729,472.317L253.419,472.794L252.246,476.795L257.422,479.125L257.318,480.41L259.423,480.619L259.596,483.548L262.045,483.548L265.082,484.625L266.98,486.988L264.702,490.908L266.29,491.925L266.428,493.632L269.016,492.644L270.292,493.183L269.568,490.758L270.706,490.07L273.363,491.087L269.982,495.339L271.569,496.418L270.43,498.246L270.465,500.164L267.152,500.254L266.773,500.973L268.291,504.362L270.292,506.372L272.984,506.132L274.295,507.962L276.296,508.683L280.334,512.346L280.196,514.118L281.61,514.719L280.472,516.281L278.056,517.153L277.435,518.475L279.919,521.542L283.267,520.61L285.889,521.843L287.925,524.701L289.857,525.393L289.236,527.711L291.652,529.517L291.41,531.565L292.652,531.385L294.999,528.584L296.655,528.223L298.07,529.397L301.796,528.734L305.109,530.481L306.662,530.3L309.146,528.012L310.423,525.905L314.218,523.467L314.356,522.234L320.188,520.43L322.603,517.513L325.295,517.303L330.988,515.169L332.61,513.817L335.888,515.26L336.406,516.912L334.266,520.099L337.544,521.723L340.374,522.354L342.065,519.077L344.618,517.393L347.31,516.972L349.863,513.727L350.657,515.169L355.28,515.049L356.557,513.307L356.005,510.994L356.074,507.092L358.351,506.912L359.594,505.322L359.594,503.012L358.627,502.952L358.11,496.927L356.937,496.088L357.109,494.321L355.729,491.177L356.178,490.698L354.763,487.197L353.797,486.898L350.829,483.01L350.76,478.02L349.414,476.616L351.795,470.616L351.278,465.367L350.104,463.638L350.139,461.343L351.036,460.33L353.348,455.388L356.074,457.501L359.766,455.179L361.181,455.894L364.562,454.554L364.735,452.888L367.323,448.784L369.669,446.197L372.671,446.643L373.016,442.662L376.225,440.108L377.364,438.416L378.675,438.386L382.471,434.44L383.955,433.58L385.197,430.852L384.783,427.117L387.716,423.297L385.542,424.037L383.886,420.218L382.367,420.899L380.78,419.597L382.989,415.249L386.508,412.647L388.751,409.161L392.719,407.507L395.411,409.072L395.963,410.963L398.102,408.865L399.828,409.013L403.071,406.119L405.797,404.377L404.451,402.105L404.831,400.6L403.071,397.445L403.14,396.325L400.449,392.671L401.622,390.551L403.623,389.196L403.313,388.195L404.313,384.723L406.384,387.371L407.626,386.724L410.076,388.431L416.011,386.93L418.047,388.284L419.254,386.577L422.222,386.077L425.603,386.488L426.811,385.076L428.191,386.694L430.296,387.607L433.54,385.723L436.507,386.989L436.059,388.578L433.712,388.784L432.608,390.992L430.779,391.788L427.26,392.053L427.674,394.115L426.915,399.48L428.467,402.872L430.262,404.908L431.883,403.374L434.23,403.61L434.678,405.765L436.197,406.975L437.853,406.975L438.578,408.57L437.473,410.254L435.196,410.726L435.438,412.381L437.577,413.002L437.818,415.722L435.127,416.964L433.574,419.212L429.71,419.242L429.951,420.07L432.988,421.372L435.127,424.777L437.853,426.14L441.131,428.925L442.097,428.303L444.789,431.029L446.721,430.051L448.136,430.466L450.551,428.777L454.312,427.591L455.347,428.569L457.314,427.621L459.868,427.68L462.421,426.88L464.112,425.518L463.284,424.215L467.287,420.928L467.597,418.561L468.805,418.502L472.152,416.668L475.395,418.058L478.121,418.088L479.157,419.035L478.087,420.899L479.122,422.349L480.916,422.616L482.573,421.58L483.849,422.26L484.643,425.695L481.744,427.947L483.228,431.741L486.23,432.69L484.022,433.58L485.126,434.944L484.954,438.208L485.954,438.624L488.508,436.16L493.338,434.677L497.169,435.033L500.067,437.792L502.586,438.03L503.621,440.791L505.899,439.811L509.039,439.811L509.177,438.564L511.696,437.882L516.216,438.505L517.32,437.08L520.391,436.279L520.702,437.229L523.876,436.101L526.016,436.279L528.293,434.588L531.467,434.44L535.539,435.864L538.3,435.122L541.888,432.808L543.614,429.992L542.923,427.769L541.785,427.74L541.957,425.636L543.096,424.748L540.75,421.698L538.507,421.432L539.645,418.354L536.298,414.569L532.848,412.972L529.949,412.972L523.359,416.047L521.564,414.066L518.838,415.396L516.906,413.15L518.528,408.777L516.216,407.772L514.87,404.938L512.8,403.285L511.523,404.82L511.523,404.82L510.005,405.115L509.591,406.857L507.279,406.178L504.518,403.934L505.381,401.78L504.76,397.946L503,397.504L503.621,393.084L506.934,392.17L507.52,389.108L508.625,389.226L510.419,387.548L511.109,389.02L512.627,387.872L513.973,388.49L518.252,388.755L518.528,384.517L521.219,383.635L522.841,379.46L524.773,380.43L526.43,383.164L529.501,383.9L530.501,386.459L533.02,386.077L534.297,386.842L535.056,389.108L538.99,391.876L541.095,391.994L541.785,393.791L544.269,395.559L545.96,395.205L545.684,392.642L543.303,391.11L544.131,389.402L541.75,385.694L541.819,382.635L540.059,380.694L539.714,378.431L538.472,376.287L539.542,374.701L536.298,371.412L534.4,370.532L533.02,371.588L530.398,371.735L528.672,370.561L527.465,371.324L526.982,368.566L524.773,367.539L522.979,367.979L519.666,370.532L516.457,370.15L515.215,369.182L513.352,369.652L513.593,368.419L511.385,366.572L511.627,365.311L510.246,363.874L511.144,362.204L509.522,360.124L510.833,358.806L509.522,358.542L508.107,356.17L508.59,353.8L507.624,349.968L504.967,351.898L504.07,350.377L499.929,350.465L497.893,351.255L497.445,350.202L494.408,349.909L494.753,347.98L492.234,348.623L492.131,346.343L493.442,343.626L492.579,342.575L489.577,342.487L491.061,341.494L490.371,340.56L490.371,340.56L487.403,341.348L487.61,340.356L485.782,336.27L485.299,334.083L487.334,332.887L488.163,331.255L490.026,330.876L492.2,327.526L495.409,328.283L495.685,325.837L498.342,326.419L500.895,324.381L501.344,320.191L502.897,319.173L508.349,318.969L510.074,316.149L508.866,316.004L508.038,314.26L509.625,312.43L509.211,311.442L510.902,309.032L509.004,307.668L507.175,307.871L506.589,306.246L504.484,305.782L504.656,304.389L501.344,303.113L500.861,302.736L502.103,301.142L498.721,301.489L499.55,300.011L499.86,299.547L499.998,299.663L500.136,299.75L504.691,299.605L505.795,298.272L503.414,296.94L503.69,294.594L506.244,295.81L509.039,295.897L509.039,295.897L508.728,291.96L510.971,290.86L511.282,288.517L513.076,286.117L514.939,285.626L516.112,287.071L519.149,287.36L521.53,289.211L526.499,289.125L528.776,291.352L532.158,293.089L532.123,291.902L534.159,293.031L534.815,296.998L537.748,299.634L539.3,299.026L539.3,298.62L539.3,298.417L539.507,298.302L541.302,298.533L541.888,296.708L543.441,297.403L544.269,296.303L547.202,296.476L548.72,295.781L549.342,292.77L552.654,293.494L555.242,293.436L556.105,292.394L558.969,293.668L560.694,296.245L559.038,296.853L559.038,296.853L559.003,296.853L559.003,296.853L558.969,296.853L559.003,296.853L558.969,296.853L560.107,299.605L562.661,301.258L562.385,303.2L563.938,303.78L563.903,305.898L565.283,306.768L565.732,308.539L568.699,309.09L570.977,308.306L570.977,308.306L571.598,307.262L573.013,308.19L575.877,308.626L577.636,307.958L579.396,305.376L579.362,305.114L579.431,305.114L579.465,305.143L579.534,305.143L579.603,305.114L579.638,305.143L579.707,305.289L581.881,307.987L583.744,307.61L583.985,307.639L585.469,306.478L585.228,304.766L586.504,304.998L593.13,298.07L595.165,295.086L596.891,291.15L599.72,288.401L601.376,283.805L603.619,280.829L605.552,280.165L604.689,279.385L607.933,276.528L609.692,273.931L607.484,272.806L606.414,270.557L604.516,268.569L606.173,266.811L606.173,266.811L608.657,264.709L607.795,263.068L609.623,262.175L613.074,262.549L616.87,264.046L619.561,260.995L622.183,260.506L623.357,261.715L623.529,264.277L624.875,264.133L628.429,265.63L634.295,260.593L636.469,259.154L633.846,258.579L633.536,254.64L635.813,254.927L636.952,252.599L640.127,251.106L638.263,250.56L637.263,247.89L638.194,247.517L641.783,242.553L641.024,241.034L638.505,241.865L638.919,239.858L642.093,238.999L647.166,235.16L645.371,233.242L648.857,231.038L649.305,228.035L647.58,227.834L647.476,226.462L649.857,225.633L651.03,226.09L656.034,225.318L655.758,223.832L658.38,223.547L658.622,220.89L661.555,218.52L663.004,218.378L665.833,216.722L667.386,216.751L665.592,215.153L665.074,212.9L666.731,211.588L662.659,210.306L662.245,208.425L660.796,208.681L658.656,207.542L658.38,206.175L655.999,205.805L651.272,199.857L653.963,198.15L656.448,199.601L657.483,198.634L655.206,196.871L657.034,196.018L656.034,194.228L657.621,193.688L660.83,194.569L662.107,192.95L659.139,189.77L658.001,189.4L658.001,189.4L658.035,189.372L658.035,189.372L657.483,188.35L659.105,187.13L663.66,187.783L665.316,186.733L665.178,184.237L663.073,182.848L659.967,183.869L658.587,183.245L654.17,185.003L650.237,182.621L646.821,185.598L645.544,184.606L644.785,185.712L641.61,184.946L637.78,186.137L638.125,188.067L635.606,189.826L632.535,186.96L630.603,185.995L629.154,186.733L626.221,184.124L622.943,179.051L620.389,179.419L618.871,175.766L617.042,174.832L614.247,174.945L610.279,176.587L608.174,174.181L606.311,174.605L606.552,172.596L605.31,171.917L605.172,168.326L602.136,167.733L600.721,169.627L598.305,170.56L596.856,172.398L595.51,175.426L592.612,173.983L591.37,171.776L587.85,170.984L585.228,167.62L586.78,164.342L586.263,161.631L584.089,159.571L584.469,158.301L581.432,157.596L575.842,158.555L575.324,157.596L572.599,157.427L570.839,158.499L569.148,158.076L568.596,156.778L565.801,156.581L562.247,159.091L559.831,159.797L557.519,159.458L553.724,160.559L552.62,161.631L549.997,161.039L548.306,163.467L546.512,162.902L544.2,160.418L541.578,159.91L539.714,160.277L538.99,159.148L534.469,158.922L531.433,157.681L528.707,155.538L528.776,155.227L529.949,151.845L528.707,151.592L527.189,149.564L525.36,151.536L522.979,150.437L520.874,151.733L518.735,151.028L516.25,152.184L514.905,151.817L514.767,154.861L512.351,155.989L511.765,155.002L508.97,155.453L506.658,157.314L502.103,158.837L501.482,157.173L500.274,157.399L499.791,153.508L498.618,153.705L498.066,150.521L496.444,149.085L496.651,146.917L494.891,145.904L491.889,146.355L491.544,148.381L490.026,148.916L490.889,150.352L490.889,150.352L492.648,154.072L494.132,155.03L493.822,156.948L489.336,158.076L488.128,159.769L485.368,161.208L483.435,161.462L480.985,160.672L480.744,162.337L479.053,163.41L474.912,164.737L473.118,162.309L470.185,161.575L464.492,163.975L462.076,164.342L460.04,161.377L458.626,160.869L457.245,161.97L454.105,162.422L451.69,160.277L448.688,160.926L445.858,159.035L445.306,157.54L442.166,157.201L441.338,155.791L438.371,156.073L433.057,151.93L429.157,151.197L428.191,147.452L428.812,145.201L432.021,145.341L433.85,144.61L434.161,142.304L436.542,141.376L434.609,139.998L431.573,139.858L433.85,135.868L432.332,133.089L431.055,129.442L430.814,126.918L429.675,124.928L431.366,124.312L434.299,125.264L436.197,123.667L433.609,122.659L429.054,123.135L427.915,120.055L425.017,119.327L424.603,116.949L422.774,115.494L421.359,111.581L422.567,108.396L418.461,104.823L415.252,103.54L411.559,104.405L404.9,103.763L400.242,105.074L395.342,103.121L394.065,103.568L392.823,102.284L389.89,101.866L388.234,102.786L387.578,104.377L385.784,103.986L387.198,101.671L385.68,96.765L382.678,97.044L380.987,99.803L376.502,100.333L372.257,98.604L372.602,97.044L370.636,96.375L369.428,97.462L365.908,96.849L365.253,96.097L366.805,91.531L365.874,89.917L364.01,89.778L363.389,88.582L365.46,86.024L364.908,83.912L363.355,84.023L363.907,82.273L366.667,81.496L363.458,79.663L363.596,76.888L362.251,75.779L359.559,75.03L356.971,75.612L355.142,74.448L355.384,71.814L353.797,69.598L351.692,68.435L348.793,69.099L348.621,70.789L345.343,70.678L344.307,72.701L341.443,72.757L339.546,74.836L337.82,75.169L337.096,76.667L334.163,77.693L337.372,79.608L336.992,81.468L335.129,80.385L329.297,81.135L327.02,81.885L325.122,81.079L323.397,84.107L322.603,87.553L319.981,87.665L318.325,86.302L316.703,87.22L314.563,86.719L313.287,88.026L310.043,86.914L308.249,87.915L314.805,93.73L315.254,95.985L314.253,97.908L317.22,98.075L318.808,99.719L316.565,101.699L319.808,101.336L318.29,104.711L320.05,108.061L325.295,109.793L327.4,111.553L325.64,112.168L326.468,113.901L326.537,116.809L325.709,116.501L322.638,119.327L321.292,118.88L318.014,119.691L317.22,118.796L315.081,119.047L312.838,122.407L311.389,123.107L312.804,128.096L311.872,129.47L309.595,128.376L308.732,126.638L307.179,125.825L305.626,129.245L305.626,130.507L303.694,131.349L300.278,130.788L297,131.517L296.241,133.37L294.308,134.38L293.101,136.205L290.858,135.307L291.755,131.63L291.099,130.003L287.752,128.039L287.718,126.918L293.756,124.368L294.308,120.475L295.896,118.124L297.621,117.173L295.378,114.991L295.413,111.776L294.136,109.597L291.893,108.229L291.168,110.91L288.477,110.798L287.683,111.804L288.166,112.084L287.683,116.445L283.577,117.676L281.783,120.475L280.989,123.892L282.576,125.32L285.82,126.301L284.371,130.059L281.231,132.864L281.645,134.38L280.092,136.318L275.848,132.612L273.467,131.181L271.914,129.273L267.187,129.357L266.255,130.367L266.669,133.145L265.979,133.398L261.252,127.282L256.801,127.619L254.834,126.89L253.384,128.74L251.59,129.582L251.073,131.069L254.109,136.374L252.66,137.16L252.798,138.818L254.937,139.661L254.213,141.432L254.903,142.866L251.832,142.585L252.142,144.666L251.556,147.03L254.592,147.987L257.146,150.071L257.905,151.789L257.111,157.342L253.419,160.954L251.59,161.123L248.933,159.769L246.311,161.01L244.447,162.845L242.17,163.212L240.79,164.37L238.305,162.563L235.303,161.66L231.784,161.942L227.264,160.023L228.471,161.857L228.368,163.834L226.297,162.817L225.642,163.495L225.435,167.393L224.745,168.524L222.364,166.998L219.12,166.094L217.533,162.591L214.91,159.091L213.841,159.091L212.115,157.004L209.769,158.866L210.942,155.65L207.595,157.709L203.075,156.412L201.522,159.007L201.453,161.575L200.245,164.031L199.21,162.676L194.724,162.139L193.517,160.531L196.381,157.427L195.139,153.057L195.484,151.113L192.206,147.818L190.239,147.818L190.722,145.961L186.132,144.891L185.649,142.725L181.716,139.436L181.716,142.36L180.232,145.257L177.679,145.313L176.712,144.413L175.367,146.214L176.919,148.522L175.505,151.733L175.16,154.889L172.779,156.976L171.813,155.058L168.776,154.607L168.431,153.705L165.567,153.79L163.842,151L157.941,149.705L153.628,147.593L152.386,148.409L147.624,148.804L146.382,146.242L145.726,142.979L144.587,142.472L143.552,139.998L139.55,139.408L137.617,137.554L133.925,136.683L133.373,137.441L130.958,136.486L130.716,135.531L128.197,135.335L124.643,133.538L121.606,129.694L121.468,126.834L119.088,126.47L120.226,121.231L117.776,119.187L118.121,115.215L117.19,113.789L114.533,112.699L112.842,111.245L113.084,108.648L111.427,107.81L111.117,106.274L113.325,105.716L110.737,103.735L109.184,101.002L106.769,100.165L105.596,98.632L104.215,98.911L104.147,97.378L102.49,94.454L100.903,94.76L99.35,93.396L100.385,90.835L99.799,88.387L101.213,86.997L100.523,84.329L98.764,82.996L98.936,81.19L95.831,80.663L91,81.301L88.101,81.246L85.41,79.969L82.028,79.081L78.129,79.081L73.988,75.28L70.848,74.226L65.914,74.337L65.155,74.808L65.155,74.808L64.741,75.723L64.741,75.723L63.464,77.083L57.805,78.859L59.875,83.912L57.08,86.052L57.495,88.415L55.769,90.474L54.216,89.889L49.765,91.392L48.73,90.891L46.315,92.282L42.657,92.171L42.829,94.454L41.346,94.816L41.415,96.18L43.278,97.434L44.21,99.691L43.934,101.169L44.9,103.763L43.796,108.061L45.728,109.374L49.834,109.653L49.179,112.81L51.456,115.886L55.562,116.138L58.323,117.732L62.774,119.019L58.392,122.883L55.39,123.107L54.562,127.198L51.249,130.564L47.833,132.556L48.419,134.268L47.798,135.981L49.489,136.514L50.904,139.97L48.523,141.348L49.869,142.613L45.072,143.316L41.553,144.413L40,147.818L41.587,148.353L42.519,151.592L42.139,154.353L44.555,157.991L44.244,158.527L47.557,161.349L50.49,162.252L50.973,163.184L54.562,163.608L55.079,165.161L59.772,168.043L61.463,168.467L65.086,168.807L65.741,169.994L68.916,170.051L69.813,170.758L73.195,170.984L80.993,174.747L82.546,176.077L83.546,175.539L88.791,178.824L88.239,180.184L89.447,183.301L88.791,184.861L91.103,186.308L93.519,191.189L96.555,193.12L99.212,195.478L99.109,196.502L100.903,197.582L100.765,202.332L98.902,203.84L100.42,206.032L99.764,207.399L102.387,209.194L105.044,211.902L105.492,213.841L107.114,213.841L107.563,217.036L111.22,220.89L113.014,221.604L115.568,223.861L116.569,225.519L123.849,229.951L123.78,230.723L126.23,233.041L121.952,236.85L121.675,238.397L119.847,240.059L115.292,235.361L112.6,235.046L111.048,237.022L110.358,239.601L111.462,241.636L110.289,243.27L114.36,245.393L116.327,247.431L116.431,249.383L117.811,251.278L119.95,252.283L121.71,254.266L121.192,256.911L119.916,259.183L121.192,260.794L124.16,262.463L127.231,266.206L130.198,267.186L130.509,269.26L127.369,270.932L128.197,275.922L129.163,276.499L128.439,278.144L128.749,280.829L130.612,284.845L130.716,291.294L131.82,294.334L130.923,295.434L132.165,297.983L131.51,299.808L131.958,301.547L135.064,305.579L134.615,307.029L135.65,312.371L136.375,313.882L133.891,318.678L133.615,321.703L132.131,328.137L133.373,332.042L135.478,334.491L135.064,336.941L136.306,342.487L135.857,342.691L136.789,348.36L138.963,352.425L138.928,353.683L138.445,356.961L139.17,360.417L138.928,361.999L139.964,368.948L139.48,372.234L138.376,374.936L138.963,379.195L140.067,380.93L139.653,382.988L140.826,386.194L142.862,389.108L142.103,390.374L143.311,394.38L143.035,397.445L141.792,398.271L143.794,401.603L145.416,402.459L145.864,404.289L148.763,406.06L149.729,409.338L153.559,411.908L155.664,405.558L154.56,404.259L157.044,399.775L155.215,397.209L156.457,396.649L154.767,394.586L155.146,391.493L158.528,391.316L158.666,389.609L160.805,387.401L162.841,387.165L162.358,384.135L163.566,382.282L166.982,380.636L166.706,378.167L167.603,376.463L170.467,376.698L172.779,374.671L173.02,379.666L174.884,382.811L177.057,382.929L179.335,385.076L179.3,386.9L181.474,386.694L181.612,387.813L184.028,388.519L187.754,392.436L188.03,395.382L192.723,398.212L191.791,401.426L196.243,402.488L198.451,403.875L196.829,405.912L199.141,407.95L197.174,410.431L194.345,410.785L193.689,411.938L192.067,411.229L190.446,411.761L189.756,413.859L191.757,416.609L193.551,420.455L195.346,421.047L199.59,425.666L198.106,427.265L200.383,428.984L205.87,429.873L205.87,431.593L204.593,432.957L205.663,433.935L206.042,437.555L206.94,437.763L208.216,435.775L211.667,432.393L213.392,429.577L216.843,430.377L217.222,431.741L219.12,432.779L222.709,429.992L224.123,426.821L226.746,426.406L228.885,430.022L228.195,433.253L230.99,434.974L232.025,436.487L232.405,439.366L236.097,440.464L234.958,443.612L236.477,443.167L239.686,448.902L239.065,452.709L241.066,451.817L241.894,454.197L245.828,459.467L246.069,462.952L246.966,465.695L248.623,467.215L251.28,466.41L254.006,467.007ZM539.507,298.302L539.3,298.417L539.3,298.62L539.3,299.026ZM579.431,305.114L579.362,305.114L579.396,305.376L579.707,305.289L579.638,305.143L579.603,305.114L579.534,305.143L579.465,305.143ZM499.998,299.663L499.86,299.547L499.55,300.011L500.136,299.75Z" fill="#d1e7dd" opacity="0.3" transform="translate(5, 8)" />
  
  <!-- 填充与主轮廓 -->
  <path d="M545.684,392.642L547.306,390.168L551.446,392.377L552.999,391.581L550.86,389.255L552.309,388.961L552.861,385.047L554.31,384.135L552.274,380.518L550.584,379.46L550.101,376.316L551.274,375.435L556.174,379.724L556.139,381.812L557.623,383.341L559.279,383.37L559.314,384.723L561.212,385.723L559.348,385.959L560.383,387.195L558.693,388.872L559.176,391.316L556.519,392.76L556.346,394.91L560.142,393.879L563.799,395.382L564.386,396.856L566.56,395.912L565.387,393.054L566.077,391.022L568.285,390.551L567.112,388.078L568.665,386.989L569.942,389.079L571.253,387.165L573.254,387.106L574.531,383.106L573.22,383.429L570.873,379.724L572.081,378.343L573.565,378.549L576.429,376.727L578.016,379.137L580.086,378.608L579.81,374.407L581.812,373.82L581.639,372.645L588.678,372.352L592.301,373.438L591.646,375.141L593.475,375.259L592.543,376.287L593.026,378.813L594.544,379.401L595.372,377.697L599.099,376.668L599.755,374.701L602.239,374.554L603.895,371.031L605.448,369.212L603.861,368.302L602.964,366.425L601.135,365.545L602.895,363.757L601.445,360.944L603.826,360.768L604.689,358.864L603.619,358.337L603.24,355.731L605.448,354.648L608.002,356.317L612.694,353.858L613.73,357.663L614.661,356.844L617.698,356.961L619.975,358.161L622.701,354.883L626.152,358.278L624.702,363.376L626.876,364.167L626.117,366.953L629.326,368.302L630.189,365.721L631.638,365.663L632.604,364.255L638.229,363.845L640.713,361.237L645.164,363.083L647.58,362.028L651.099,363.816L652.307,360.944L653.929,361.647L653.446,363.523L654.653,368.243L656.103,369.241L656.793,372.058L656.172,373.937L656.517,376.404L658.38,377.109L658.346,378.843L656.206,380.841L655.378,384.047L661.348,386.577L664.833,386.989L664.902,386.371L669.008,385.135L672.39,387.283L670.63,388.99L670.975,391.876L668.904,392.347L669.629,396.119L670.906,397.681L670.871,399.273L669.042,400.453L669.25,402.872L671.009,403.905L674.149,403.374L673.528,401.928L675.806,399.627L675.323,398.448L672.631,396.502L673.563,395.382L675.978,395.087L676.496,394.026L678.566,396.826L680.464,398.241L679.325,400.247L680.636,400.777L679.429,405.056L677.462,406.296L678.118,409.308L680.05,410.165L682.776,408.363L684.674,410.904L686.917,409.781L688.504,409.929L688.849,411.435L693.093,412.972L694.266,409.751L697.613,411.761L698.476,410.756L697.337,408.215L699.339,406.532L701.305,402.488L701.374,398.713L703.514,395.706L705.86,395.5L708.138,394.38L708.103,391.935L710.691,389.609L709.966,387.313L706.895,388.107L705.964,387.371L704.066,388.608L703.583,386.459L707.965,384.458L706.93,383.341L709.276,381.635L709.518,380.224L706.274,378.578L706.585,377.197L705.964,372.675L707.413,368.742L709.173,366.777L709.276,365.223L710.691,363.698L710.277,362.35L706.24,361.237L705.791,359.391L704.86,357.927L701.892,355.936L700.581,356.609L698.959,353.946L700.719,350.933L698.752,349.909L699.063,345.846L696.164,343.48L694.715,345.876L692.748,345.7L691.851,347.424L688.262,347.804L689.09,343.684L688.711,341.669L686.295,341.377L685.295,339.713L686.537,337.933L685.95,335.862L687.917,333.879L687.227,332.188L685.502,332.654L686.502,330.847L684.053,329.186L680.533,330.468L681.43,329.099L680.809,327.322L678.911,329.71L675.461,327.438L674.667,324.09L674.874,321.238L673.666,318.184L670.423,317.69L667.904,320.22L666.178,322.896L667.49,324.09L665.04,325.254L665.005,326.419L662.555,324.556L661.244,324.556L661.555,322.46L660.416,322.78L660.52,320.365L657.552,318.94L661.037,316.759L662.969,317.661L665.661,316.469L665.764,313.446L666.8,310.977L666.558,307.145L665.523,306.826L667.352,304.215L668.559,301.229L667.662,300.881L669.353,295.723L667.283,294.942L666.109,292.712L664.833,292.423L662.555,289.906L660.899,290.195L659.277,288.951L660.865,286.724L659.795,285.481L660.658,282.476L663.245,282.765L665.488,281.956L667.904,282.736L668.559,283.805L673.149,279.847L672.769,277.624L675.323,277.134L675.909,279.53L678.428,282.331L680.982,281.291L682.051,282.534L683.742,281.869L686.813,278.375L691.195,274.883L693.128,274.941L695.163,273.325L696.751,274.191L699.028,273.845L698.718,275.835L698.683,277.249L698.51,277.538L698.441,277.596L698.718,278.086L698.58,278.346L700.822,280.858L703.514,279.472L703.514,279.472L706.516,277.509L709.552,274.739L710.381,276.441L713.003,279.183L711.657,280.829L712.658,282.765L716.212,278.692L717.178,276.672L722.768,272.806L723.217,274.22L724.942,273.816L725.874,271.192L727.806,270.673L729.807,268.655L729.566,267.445L732.085,266.149L736.501,262.521L739.193,261.628L742.885,259.643L745.646,260.823L749.269,260.564L749.89,263.586L751.512,265.198L753.409,265.256L757.309,258.981L757.412,256.623L758.482,255.215L756.687,254.755L756.653,252.312L755.549,252.226L755.514,249.067L757.032,247.488L758.896,247.201L760,245.135L758.896,243.959L757.516,238.368L757.861,236.42L755.445,231.067L751.822,231.009L750.856,229.55L748.095,227.434L745.715,227.663L747.095,225.519L742.885,224.947L739.711,222.918L733.534,223.318L734.535,220.519L735.604,220.262L734.086,218.806L733.741,214.782L731.05,213.698L727.633,214.155L725.598,213.328L723.562,213.128L720.939,213.898L717.765,213.527L714.142,214.525L708.552,213.869L708.621,212.387L706.999,211.474L708.448,210.534L708.241,209.251L703.721,208.226L703.479,206.089L699.684,204.011L697.579,201.962L692.023,199.117L687.296,198.861L683.673,195.819L680.878,195.28L678.842,193.745L677.876,192.041L674.667,192.24L669.526,188.379L667.214,188.038L665.316,186.733L663.66,187.783L659.105,187.13L657.483,188.35L658.035,189.372L658.035,189.372L658.001,189.4L658.001,189.4L659.139,189.77L662.107,192.95L660.83,194.569L657.621,193.688L656.034,194.228L657.034,196.018L655.206,196.871L657.483,198.634L656.448,199.601L653.963,198.15L651.272,199.857L655.999,205.805L658.38,206.175L658.656,207.542L660.796,208.681L662.245,208.425L662.659,210.306L666.731,211.588L665.074,212.9L665.592,215.153L667.386,216.751L665.833,216.722L663.004,218.378L661.555,218.52L658.622,220.89L658.38,223.547L655.758,223.832L656.034,225.318L651.03,226.09L649.857,225.633L647.476,226.462L647.58,227.834L649.305,228.035L648.857,231.038L645.371,233.242L647.166,235.16L642.093,238.999L638.919,239.858L638.505,241.865L641.024,241.034L641.783,242.553L638.194,247.517L637.263,247.89L638.263,250.56L640.127,251.106L636.952,252.599L635.813,254.927L633.536,254.64L633.846,258.579L636.469,259.154L634.295,260.593L628.429,265.63L624.875,264.133L623.529,264.277L623.357,261.715L622.183,260.506L619.561,260.995L616.87,264.046L613.074,262.549L609.623,262.175L607.795,263.068L608.657,264.709L606.173,266.811L606.173,266.811L604.516,268.569L606.414,270.557L607.484,272.806L609.692,273.931L607.933,276.528L604.689,279.385L605.552,280.165L603.619,280.829L601.376,283.805L599.72,288.401L596.891,291.15L595.165,295.086L593.13,298.07L586.504,304.998L585.228,304.766L585.469,306.478L583.985,307.639L583.847,307.784L583.778,307.755L583.744,307.61L581.881,307.987L579.707,305.289L579.396,305.376L577.636,307.958L575.877,308.626L573.013,308.19L571.598,307.262L570.977,308.306L570.977,308.306L568.699,309.09L565.732,308.539L565.283,306.768L563.903,305.898L563.938,303.78L562.385,303.2L562.661,301.258L560.107,299.605L558.969,296.853L559.003,296.853L558.969,296.853L559.003,296.853L559.003,296.853L559.038,296.853L559.038,296.853L560.694,296.245L558.969,293.668L556.105,292.394L555.242,293.436L552.654,293.494L549.342,292.77L548.72,295.781L547.202,296.476L544.269,296.303L543.441,297.403L541.888,296.708L541.302,298.533L539.507,298.302L539.3,299.026L537.748,299.634L534.815,296.998L534.159,293.031L532.123,291.902L532.158,293.089L528.776,291.352L526.499,289.125L521.53,289.211L519.149,287.36L516.112,287.071L514.939,285.626L513.076,286.117L511.282,288.517L510.971,290.86L508.728,291.96L509.039,295.897L509.039,295.897L506.244,295.81L503.69,294.594L503.414,296.94L505.795,298.272L504.691,299.605L500.136,299.75L499.55,300.011L498.721,301.489L502.103,301.142L500.861,302.736L501.206,302.794L501.344,302.91L501.344,303.113L504.656,304.389L504.484,305.782L506.589,306.246L507.175,307.871L509.004,307.668L510.902,309.032L509.211,311.442L509.625,312.43L508.038,314.26L508.866,316.004L510.074,316.149L508.349,318.969L502.897,319.173L501.344,320.191L500.895,324.381L498.342,326.419L495.685,325.837L495.409,328.283L492.2,327.526L490.026,330.876L488.163,331.255L487.334,332.887L485.299,334.083L485.782,336.27L487.61,340.356L487.403,341.348L490.371,340.56L490.371,340.56L491.061,341.494L489.577,342.487L492.579,342.575L493.442,343.626L492.131,346.343L492.234,348.623L494.753,347.98L494.408,349.909L497.445,350.202L497.893,351.255L499.929,350.465L504.07,350.377L504.967,351.898L507.624,349.968L508.59,353.8L508.107,356.17L509.522,358.542L510.833,358.806L509.522,360.124L511.144,362.204L510.246,363.874L511.627,365.311L511.385,366.572L513.593,368.419L513.352,369.652L515.215,369.182L516.457,370.15L519.666,370.532L522.979,367.979L524.773,367.539L526.982,368.566L527.465,371.324L528.672,370.561L530.398,371.735L533.02,371.588L534.4,370.532L536.298,371.412L539.542,374.701L538.472,376.287L539.714,378.431L540.059,380.694L541.819,382.635L541.75,385.694L544.131,389.402L543.303,391.11ZM698.683,277.249L698.718,275.835L697.958,277.624L698.303,277.596L698.441,277.596L698.51,277.538ZM501.344,303.113L501.344,302.91L501.206,302.794L500.861,302.736ZM698.303,277.596L697.958,277.624L698.58,278.346L698.718,278.086ZM583.985,307.639L583.744,307.61L583.778,307.755L583.847,307.784Z M254.006,467.007L254.144,468.289L252.729,472.317L253.419,472.794L252.246,476.795L257.422,479.125L257.318,480.41L259.423,480.619L259.596,483.548L262.045,483.548L265.082,484.625L266.98,486.988L264.702,490.908L266.29,491.925L266.428,493.632L269.016,492.644L270.292,493.183L269.568,490.758L270.706,490.07L273.363,491.087L269.982,495.339L271.569,496.418L270.43,498.246L270.465,500.164L267.152,500.254L266.773,500.973L268.291,504.362L270.292,506.372L272.984,506.132L274.295,507.962L276.296,508.683L280.334,512.346L280.196,514.118L281.61,514.719L280.472,516.281L278.056,517.153L277.435,518.475L279.919,521.542L283.267,520.61L285.889,521.843L287.925,524.701L289.857,525.393L289.236,527.711L291.652,529.517L291.41,531.565L292.652,531.385L294.999,528.584L296.655,528.223L298.07,529.397L301.796,528.734L305.109,530.481L306.662,530.3L309.146,528.012L310.423,525.905L314.218,523.467L314.356,522.234L320.188,520.43L322.603,517.513L325.295,517.303L330.988,515.169L332.61,513.817L335.888,515.26L336.406,516.912L334.266,520.099L337.544,521.723L340.374,522.354L342.065,519.077L344.618,517.393L347.31,516.972L349.863,513.727L350.657,515.169L355.28,515.049L356.557,513.307L356.005,510.994L356.074,507.092L358.351,506.912L359.594,505.322L359.594,503.012L358.627,502.952L358.11,496.927L356.937,496.088L357.109,494.321L355.729,491.177L356.178,490.698L354.763,487.197L353.797,486.898L350.829,483.01L350.76,478.02L349.414,476.616L351.795,470.616L351.278,465.367L350.104,463.638L350.139,461.343L351.036,460.33L353.348,455.388L356.074,457.501L359.766,455.179L361.181,455.894L364.562,454.554L364.735,452.888L367.323,448.784L369.669,446.197L372.671,446.643L373.016,442.662L376.225,440.108L377.364,438.416L378.675,438.386L382.471,434.44L383.955,433.58L385.197,430.852L384.783,427.117L387.716,423.297L385.542,424.037L383.886,420.218L382.367,420.899L380.78,419.597L382.989,415.249L386.508,412.647L388.751,409.161L392.719,407.507L395.411,409.072L395.963,410.963L398.102,408.865L399.828,409.013L403.071,406.119L405.797,404.377L404.451,402.105L404.831,400.6L403.071,397.445L403.14,396.325L400.449,392.671L401.622,390.551L403.623,389.196L403.313,388.195L404.313,384.723L406.384,387.371L407.626,386.724L410.076,388.431L416.011,386.93L418.047,388.284L419.254,386.577L422.222,386.077L425.603,386.488L426.811,385.076L428.191,386.694L430.296,387.607L433.54,385.723L436.507,386.989L436.059,388.578L433.712,388.784L432.608,390.992L430.779,391.788L427.26,392.053L427.674,394.115L426.915,399.48L428.467,402.872L430.262,404.908L431.883,403.374L434.23,403.61L434.678,405.765L436.197,406.975L437.853,406.975L438.578,408.57L437.473,410.254L435.196,410.726L435.438,412.381L437.577,413.002L437.818,415.722L435.127,416.964L433.574,419.212L429.71,419.242L429.951,420.07L432.988,421.372L435.127,424.777L437.853,426.14L441.131,428.925L442.097,428.303L444.789,431.029L446.721,430.051L448.136,430.466L450.551,428.777L454.312,427.591L455.347,428.569L457.314,427.621L459.868,427.68L462.421,426.88L464.112,425.518L463.284,424.215L467.287,420.928L467.597,418.561L468.805,418.502L472.152,416.668L475.395,418.058L478.121,418.088L479.157,419.035L478.087,420.899L479.122,422.349L480.916,422.616L482.573,421.58L483.849,422.26L484.643,425.695L481.744,427.947L483.228,431.741L486.23,432.69L484.022,433.58L485.126,434.944L484.954,438.208L485.954,438.624L488.508,436.16L493.338,434.677L497.169,435.033L500.067,437.792L502.586,438.03L503.621,440.791L505.899,439.811L509.039,439.811L509.177,438.564L511.696,437.882L516.216,438.505L517.32,437.08L520.391,436.279L520.702,437.229L523.876,436.101L526.016,436.279L528.293,434.588L531.467,434.44L535.539,435.864L538.3,435.122L541.888,432.808L543.614,429.992L542.923,427.769L541.785,427.74L541.957,425.636L543.096,424.748L540.75,421.698L538.507,421.432L539.645,418.354L536.298,414.569L532.848,412.972L529.949,412.972L523.359,416.047L521.564,414.066L518.838,415.396L516.906,413.15L518.528,408.777L516.216,407.772L514.87,404.938L512.8,403.285L511.523,404.82L511.523,404.82L510.005,405.115L509.591,406.857L507.279,406.178L504.518,403.934L505.381,401.78L504.76,397.946L503,397.504L503.621,393.084L506.934,392.17L507.52,389.108L508.625,389.226L510.419,387.548L511.109,389.02L512.627,387.872L513.973,388.49L518.252,388.755L518.528,384.517L521.219,383.635L522.841,379.46L524.773,380.43L526.43,383.164L529.501,383.9L530.501,386.459L533.02,386.077L534.297,386.842L535.056,389.108L538.99,391.876L541.095,391.994L541.785,393.791L544.269,395.559L545.96,395.205L545.684,392.642L543.303,391.11L544.131,389.402L541.75,385.694L541.819,382.635L540.059,380.694L539.714,378.431L538.472,376.287L539.542,374.701L536.298,371.412L534.4,370.532L533.02,371.588L530.398,371.735L528.672,370.561L527.465,371.324L526.982,368.566L524.773,367.539L522.979,367.979L519.666,370.532L516.457,370.15L515.215,369.182L513.352,369.652L513.593,368.419L511.385,366.572L511.627,365.311L510.246,363.874L511.144,362.204L509.522,360.124L510.833,358.806L509.522,358.542L508.107,356.17L508.59,353.8L507.624,349.968L504.967,351.898L504.07,350.377L499.929,350.465L497.893,351.255L497.445,350.202L494.408,349.909L494.753,347.98L492.234,348.623L492.131,346.343L493.442,343.626L492.579,342.575L489.577,342.487L491.061,341.494L490.371,340.56L490.371,340.56L487.403,341.348L487.61,340.356L485.782,336.27L485.299,334.083L487.334,332.887L488.163,331.255L490.026,330.876L492.2,327.526L495.409,328.283L495.685,325.837L498.342,326.419L500.895,324.381L501.344,320.191L502.897,319.173L508.349,318.969L510.074,316.149L508.866,316.004L508.038,314.26L509.625,312.43L509.211,311.442L510.902,309.032L509.004,307.668L507.175,307.871L506.589,306.246L504.484,305.782L504.656,304.389L501.344,303.113L500.861,302.736L502.103,301.142L498.721,301.489L499.55,300.011L499.86,299.547L499.998,299.663L500.136,299.75L504.691,299.605L505.795,298.272L503.414,296.94L503.69,294.594L506.244,295.81L509.039,295.897L509.039,295.897L508.728,291.96L510.971,290.86L511.282,288.517L513.076,286.117L514.939,285.626L516.112,287.071L519.149,287.36L521.53,289.211L526.499,289.125L528.776,291.352L532.158,293.089L532.123,291.902L534.159,293.031L534.815,296.998L537.748,299.634L539.3,299.026L539.3,298.62L539.3,298.417L539.507,298.302L541.302,298.533L541.888,296.708L543.441,297.403L544.269,296.303L547.202,296.476L548.72,295.781L549.342,292.77L552.654,293.494L555.242,293.436L556.105,292.394L558.969,293.668L560.694,296.245L559.038,296.853L559.038,296.853L559.003,296.853L559.003,296.853L558.969,296.853L559.003,296.853L558.969,296.853L560.107,299.605L562.661,301.258L562.385,303.2L563.938,303.78L563.903,305.898L565.283,306.768L565.732,308.539L568.699,309.09L570.977,308.306L570.977,308.306L571.598,307.262L573.013,308.19L575.877,308.626L577.636,307.958L579.396,305.376L579.362,305.114L579.431,305.114L579.465,305.143L579.534,305.143L579.603,305.114L579.638,305.143L579.707,305.289L581.881,307.987L583.744,307.61L583.985,307.639L585.469,306.478L585.228,304.766L586.504,304.998L593.13,298.07L595.165,295.086L596.891,291.15L599.72,288.401L601.376,283.805L603.619,280.829L605.552,280.165L604.689,279.385L607.933,276.528L609.692,273.931L607.484,272.806L606.414,270.557L604.516,268.569L606.173,266.811L606.173,266.811L608.657,264.709L607.795,263.068L609.623,262.175L613.074,262.549L616.87,264.046L619.561,260.995L622.183,260.506L623.357,261.715L623.529,264.277L624.875,264.133L628.429,265.63L634.295,260.593L636.469,259.154L633.846,258.579L633.536,254.64L635.813,254.927L636.952,252.599L640.127,251.106L638.263,250.56L637.263,247.89L638.194,247.517L641.783,242.553L641.024,241.034L638.505,241.865L638.919,239.858L642.093,238.999L647.166,235.16L645.371,233.242L648.857,231.038L649.305,228.035L647.58,227.834L647.476,226.462L649.857,225.633L651.03,226.09L656.034,225.318L655.758,223.832L658.38,223.547L658.622,220.89L661.555,218.52L663.004,218.378L665.833,216.722L667.386,216.751L665.592,215.153L665.074,212.9L666.731,211.588L662.659,210.306L662.245,208.425L660.796,208.681L658.656,207.542L658.38,206.175L655.999,205.805L651.272,199.857L653.963,198.15L656.448,199.601L657.483,198.634L655.206,196.871L657.034,196.018L656.034,194.228L657.621,193.688L660.83,194.569L662.107,192.95L659.139,189.77L658.001,189.4L658.001,189.4L658.035,189.372L658.035,189.372L657.483,188.35L659.105,187.13L663.66,187.783L665.316,186.733L665.178,184.237L663.073,182.848L659.967,183.869L658.587,183.245L654.17,185.003L650.237,182.621L646.821,185.598L645.544,184.606L644.785,185.712L641.61,184.946L637.78,186.137L638.125,188.067L635.606,189.826L632.535,186.96L630.603,185.995L629.154,186.733L626.221,184.124L622.943,179.051L620.389,179.419L618.871,175.766L617.042,174.832L614.247,174.945L610.279,176.587L608.174,174.181L606.311,174.605L606.552,172.596L605.31,171.917L605.172,168.326L602.136,167.733L600.721,169.627L598.305,170.56L596.856,172.398L595.51,175.426L592.612,173.983L591.37,171.776L587.85,170.984L585.228,167.62L586.78,164.342L586.263,161.631L584.089,159.571L584.469,158.301L581.432,157.596L575.842,158.555L575.324,157.596L572.599,157.427L570.839,158.499L569.148,158.076L568.596,156.778L565.801,156.581L562.247,159.091L559.831,159.797L557.519,159.458L553.724,160.559L552.62,161.631L549.997,161.039L548.306,163.467L546.512,162.902L544.2,160.418L541.578,159.91L539.714,160.277L538.99,159.148L534.469,158.922L531.433,157.681L528.707,155.538L528.776,155.227L529.949,151.845L528.707,151.592L527.189,149.564L525.36,151.536L522.979,150.437L520.874,151.733L518.735,151.028L516.25,152.184L514.905,151.817L514.767,154.861L512.351,155.989L511.765,155.002L508.97,155.453L506.658,157.314L502.103,158.837L501.482,157.173L500.274,157.399L499.791,153.508L498.618,153.705L498.066,150.521L496.444,149.085L496.651,146.917L494.891,145.904L491.889,146.355L491.544,148.381L490.026,148.916L490.889,150.352L490.889,150.352L492.648,154.072L494.132,155.03L493.822,156.948L489.336,158.076L488.128,159.769L485.368,161.208L483.435,161.462L480.985,160.672L480.744,162.337L479.053,163.41L474.912,164.737L473.118,162.309L470.185,161.575L464.492,163.975L462.076,164.342L460.04,161.377L458.626,160.869L457.245,161.97L454.105,162.422L451.69,160.277L448.688,160.926L445.858,159.035L445.306,157.54L442.166,157.201L441.338,155.791L438.371,156.073L433.057,151.93L429.157,151.197L428.191,147.452L428.812,145.201L432.021,145.341L433.85,144.61L434.161,142.304L436.542,141.376L434.609,139.998L431.573,139.858L433.85,135.868L432.332,133.089L431.055,129.442L430.814,126.918L429.675,124.928L431.366,124.312L434.299,125.264L436.197,123.667L433.609,122.659L429.054,123.135L427.915,120.055L425.017,119.327L424.603,116.949L422.774,115.494L421.359,111.581L422.567,108.396L418.461,104.823L415.252,103.54L411.559,104.405L404.9,103.763L400.242,105.074L395.342,103.121L394.065,103.568L392.823,102.284L389.89,101.866L388.234,102.786L387.578,104.377L385.784,103.986L387.198,101.671L385.68,96.765L382.678,97.044L380.987,99.803L376.502,100.333L372.257,98.604L372.602,97.044L370.636,96.375L369.428,97.462L365.908,96.849L365.253,96.097L366.805,91.531L365.874,89.917L364.01,89.778L363.389,88.582L365.46,86.024L364.908,83.912L363.355,84.023L363.907,82.273L366.667,81.496L363.458,79.663L363.596,76.888L362.251,75.779L359.559,75.03L356.971,75.612L355.142,74.448L355.384,71.814L353.797,69.598L351.692,68.435L348.793,69.099L348.621,70.789L345.343,70.678L344.307,72.701L341.443,72.757L339.546,74.836L337.82,75.169L337.096,76.667L334.163,77.693L337.372,79.608L336.992,81.468L335.129,80.385L329.297,81.135L327.02,81.885L325.122,81.079L323.397,84.107L322.603,87.553L319.981,87.665L318.325,86.302L316.703,87.22L314.563,86.719L313.287,88.026L310.043,86.914L308.249,87.915L314.805,93.73L315.254,95.985L314.253,97.908L317.22,98.075L318.808,99.719L316.565,101.699L319.808,101.336L318.29,104.711L320.05,108.061L325.295,109.793L327.4,111.553L325.64,112.168L326.468,113.901L326.537,116.809L325.709,116.501L322.638,119.327L321.292,118.88L318.014,119.691L317.22,118.796L315.081,119.047L312.838,122.407L311.389,123.107L312.804,128.096L311.872,129.47L309.595,128.376L308.732,126.638L307.179,125.825L305.626,129.245L305.626,130.507L303.694,131.349L300.278,130.788L297,131.517L296.241,133.37L294.308,134.38L293.101,136.205L290.858,135.307L291.755,131.63L291.099,130.003L287.752,128.039L287.718,126.918L293.756,124.368L294.308,120.475L295.896,118.124L297.621,117.173L295.378,114.991L295.413,111.776L294.136,109.597L291.893,108.229L291.168,110.91L288.477,110.798L287.683,111.804L288.166,112.084L287.683,116.445L283.577,117.676L281.783,120.475L280.989,123.892L282.576,125.32L285.82,126.301L284.371,130.059L281.231,132.864L281.645,134.38L280.092,136.318L275.848,132.612L273.467,131.181L271.914,129.273L267.187,129.357L266.255,130.367L266.669,133.145L265.979,133.398L261.252,127.282L256.801,127.619L254.834,126.89L253.384,128.74L251.59,129.582L251.073,131.069L254.109,136.374L252.66,137.16L252.798,138.818L254.937,139.661L254.213,141.432L254.903,142.866L251.832,142.585L252.142,144.666L251.556,147.03L254.592,147.987L257.146,150.071L257.905,151.789L257.111,157.342L253.419,160.954L251.59,161.123L248.933,159.769L246.311,161.01L244.447,162.845L242.17,163.212L240.79,164.37L238.305,162.563L235.303,161.66L231.784,161.942L227.264,160.023L228.471,161.857L228.368,163.834L226.297,162.817L225.642,163.495L225.435,167.393L224.745,168.524L222.364,166.998L219.12,166.094L217.533,162.591L214.91,159.091L213.841,159.091L212.115,157.004L209.769,158.866L210.942,155.65L207.595,157.709L203.075,156.412L201.522,159.007L201.453,161.575L200.245,164.031L199.21,162.676L194.724,162.139L193.517,160.531L196.381,157.427L195.139,153.057L195.484,151.113L192.206,147.818L190.239,147.818L190.722,145.961L186.132,144.891L185.649,142.725L181.716,139.436L181.716,142.36L180.232,145.257L177.679,145.313L176.712,144.413L175.367,146.214L176.919,148.522L175.505,151.733L175.16,154.889L172.779,156.976L171.813,155.058L168.776,154.607L168.431,153.705L165.567,153.79L163.842,151L157.941,149.705L153.628,147.593L152.386,148.409L147.624,148.804L146.382,146.242L145.726,142.979L144.587,142.472L143.552,139.998L139.55,139.408L137.617,137.554L133.925,136.683L133.373,137.441L130.958,136.486L130.716,135.531L128.197,135.335L124.643,133.538L121.606,129.694L121.468,126.834L119.088,126.47L120.226,121.231L117.776,119.187L118.121,115.215L117.19,113.789L114.533,112.699L112.842,111.245L113.084,108.648L111.427,107.81L111.117,106.274L113.325,105.716L110.737,103.735L109.184,101.002L106.769,100.165L105.596,98.632L104.215,98.911L104.147,97.378L102.49,94.454L100.903,94.76L99.35,93.396L100.385,90.835L99.799,88.387L101.213,86.997L100.523,84.329L98.764,82.996L98.936,81.19L95.831,80.663L91,81.301L88.101,81.246L85.41,79.969L82.028,79.081L78.129,79.081L73.988,75.28L70.848,74.226L65.914,74.337L65.155,74.808L65.155,74.808L64.741,75.723L64.741,75.723L63.464,77.083L57.805,78.859L59.875,83.912L57.08,86.052L57.495,88.415L55.769,90.474L54.216,89.889L49.765,91.392L48.73,90.891L46.315,92.282L42.657,92.171L42.829,94.454L41.346,94.816L41.415,96.18L43.278,97.434L44.21,99.691L43.934,101.169L44.9,103.763L43.796,108.061L45.728,109.374L49.834,109.653L49.179,112.81L51.456,115.886L55.562,116.138L58.323,117.732L62.774,119.019L58.392,122.883L55.39,123.107L54.562,127.198L51.249,130.564L47.833,132.556L48.419,134.268L47.798,135.981L49.489,136.514L50.904,139.97L48.523,141.348L49.869,142.613L45.072,143.316L41.553,144.413L40,147.818L41.587,148.353L42.519,151.592L42.139,154.353L44.555,157.991L44.244,158.527L47.557,161.349L50.49,162.252L50.973,163.184L54.562,163.608L55.079,165.161L59.772,168.043L61.463,168.467L65.086,168.807L65.741,169.994L68.916,170.051L69.813,170.758L73.195,170.984L80.993,174.747L82.546,176.077L83.546,175.539L88.791,178.824L88.239,180.184L89.447,183.301L88.791,184.861L91.103,186.308L93.519,191.189L96.555,193.12L99.212,195.478L99.109,196.502L100.903,197.582L100.765,202.332L98.902,203.84L100.42,206.032L99.764,207.399L102.387,209.194L105.044,211.902L105.492,213.841L107.114,213.841L107.563,217.036L111.22,220.89L113.014,221.604L115.568,223.861L116.569,225.519L123.849,229.951L123.78,230.723L126.23,233.041L121.952,236.85L121.675,238.397L119.847,240.059L115.292,235.361L112.6,235.046L111.048,237.022L110.358,239.601L111.462,241.636L110.289,243.27L114.36,245.393L116.327,247.431L116.431,249.383L117.811,251.278L119.95,252.283L121.71,254.266L121.192,256.911L119.916,259.183L121.192,260.794L124.16,262.463L127.231,266.206L130.198,267.186L130.509,269.26L127.369,270.932L128.197,275.922L129.163,276.499L128.439,278.144L128.749,280.829L130.612,284.845L130.716,291.294L131.82,294.334L130.923,295.434L132.165,297.983L131.51,299.808L131.958,301.547L135.064,305.579L134.615,307.029L135.65,312.371L136.375,313.882L133.891,318.678L133.615,321.703L132.131,328.137L133.373,332.042L135.478,334.491L135.064,336.941L136.306,342.487L135.857,342.691L136.789,348.36L138.963,352.425L138.928,353.683L138.445,356.961L139.17,360.417L138.928,361.999L139.964,368.948L139.48,372.234L138.376,374.936L138.963,379.195L140.067,380.93L139.653,382.988L140.826,386.194L142.862,389.108L142.103,390.374L143.311,394.38L143.035,397.445L141.792,398.271L143.794,401.603L145.416,402.459L145.864,404.289L148.763,406.06L149.729,409.338L153.559,411.908L155.664,405.558L154.56,404.259L157.044,399.775L155.215,397.209L156.457,396.649L154.767,394.586L155.146,391.493L158.528,391.316L158.666,389.609L160.805,387.401L162.841,387.165L162.358,384.135L163.566,382.282L166.982,380.636L166.706,378.167L167.603,376.463L170.467,376.698L172.779,374.671L173.02,379.666L174.884,382.811L177.057,382.929L179.335,385.076L179.3,386.9L181.474,386.694L181.612,387.813L184.028,388.519L187.754,392.436L188.03,395.382L192.723,398.212L191.791,401.426L196.243,402.488L198.451,403.875L196.829,405.912L199.141,407.95L197.174,410.431L194.345,410.785L193.689,411.938L192.067,411.229L190.446,411.761L189.756,413.859L191.757,416.609L193.551,420.455L195.346,421.047L199.59,425.666L198.106,427.265L200.383,428.984L205.87,429.873L205.87,431.593L204.593,432.957L205.663,433.935L206.042,437.555L206.94,437.763L208.216,435.775L211.667,432.393L213.392,429.577L216.843,430.377L217.222,431.741L219.12,432.779L222.709,429.992L224.123,426.821L226.746,426.406L228.885,430.022L228.195,433.253L230.99,434.974L232.025,436.487L232.405,439.366L236.097,440.464L234.958,443.612L236.477,443.167L239.686,448.902L239.065,452.709L241.066,451.817L241.894,454.197L245.828,459.467L246.069,462.952L246.966,465.695L248.623,467.215L251.28,466.41L254.006,467.007ZM539.507,298.302L539.3,298.417L539.3,298.62L539.3,299.026ZM579.431,305.114L579.362,305.114L579.396,305.376L579.707,305.289L579.638,305.143L579.603,305.114L579.534,305.143L579.465,305.143ZM499.998,299.663L499.86,299.547L499.55,300.011L500.136,299.75Z" fill="#e6f4ea" stroke="#137333" stroke-width="4" stroke-linejoin="round" stroke-linecap="round" />
  
  <!-- 内发光描边 -->
  <path d="M545.684,392.642L547.306,390.168L551.446,392.377L552.999,391.581L550.86,389.255L552.309,388.961L552.861,385.047L554.31,384.135L552.274,380.518L550.584,379.46L550.101,376.316L551.274,375.435L556.174,379.724L556.139,381.812L557.623,383.341L559.279,383.37L559.314,384.723L561.212,385.723L559.348,385.959L560.383,387.195L558.693,388.872L559.176,391.316L556.519,392.76L556.346,394.91L560.142,393.879L563.799,395.382L564.386,396.856L566.56,395.912L565.387,393.054L566.077,391.022L568.285,390.551L567.112,388.078L568.665,386.989L569.942,389.079L571.253,387.165L573.254,387.106L574.531,383.106L573.22,383.429L570.873,379.724L572.081,378.343L573.565,378.549L576.429,376.727L578.016,379.137L580.086,378.608L579.81,374.407L581.812,373.82L581.639,372.645L588.678,372.352L592.301,373.438L591.646,375.141L593.475,375.259L592.543,376.287L593.026,378.813L594.544,379.401L595.372,377.697L599.099,376.668L599.755,374.701L602.239,374.554L603.895,371.031L605.448,369.212L603.861,368.302L602.964,366.425L601.135,365.545L602.895,363.757L601.445,360.944L603.826,360.768L604.689,358.864L603.619,358.337L603.24,355.731L605.448,354.648L608.002,356.317L612.694,353.858L613.73,357.663L614.661,356.844L617.698,356.961L619.975,358.161L622.701,354.883L626.152,358.278L624.702,363.376L626.876,364.167L626.117,366.953L629.326,368.302L630.189,365.721L631.638,365.663L632.604,364.255L638.229,363.845L640.713,361.237L645.164,363.083L647.58,362.028L651.099,363.816L652.307,360.944L653.929,361.647L653.446,363.523L654.653,368.243L656.103,369.241L656.793,372.058L656.172,373.937L656.517,376.404L658.38,377.109L658.346,378.843L656.206,380.841L655.378,384.047L661.348,386.577L664.833,386.989L664.902,386.371L669.008,385.135L672.39,387.283L670.63,388.99L670.975,391.876L668.904,392.347L669.629,396.119L670.906,397.681L670.871,399.273L669.042,400.453L669.25,402.872L671.009,403.905L674.149,403.374L673.528,401.928L675.806,399.627L675.323,398.448L672.631,396.502L673.563,395.382L675.978,395.087L676.496,394.026L678.566,396.826L680.464,398.241L679.325,400.247L680.636,400.777L679.429,405.056L677.462,406.296L678.118,409.308L680.05,410.165L682.776,408.363L684.674,410.904L686.917,409.781L688.504,409.929L688.849,411.435L693.093,412.972L694.266,409.751L697.613,411.761L698.476,410.756L697.337,408.215L699.339,406.532L701.305,402.488L701.374,398.713L703.514,395.706L705.86,395.5L708.138,394.38L708.103,391.935L710.691,389.609L709.966,387.313L706.895,388.107L705.964,387.371L704.066,388.608L703.583,386.459L707.965,384.458L706.93,383.341L709.276,381.635L709.518,380.224L706.274,378.578L706.585,377.197L705.964,372.675L707.413,368.742L709.173,366.777L709.276,365.223L710.691,363.698L710.277,362.35L706.24,361.237L705.791,359.391L704.86,357.927L701.892,355.936L700.581,356.609L698.959,353.946L700.719,350.933L698.752,349.909L699.063,345.846L696.164,343.48L694.715,345.876L692.748,345.7L691.851,347.424L688.262,347.804L689.09,343.684L688.711,341.669L686.295,341.377L685.295,339.713L686.537,337.933L685.95,335.862L687.917,333.879L687.227,332.188L685.502,332.654L686.502,330.847L684.053,329.186L680.533,330.468L681.43,329.099L680.809,327.322L678.911,329.71L675.461,327.438L674.667,324.09L674.874,321.238L673.666,318.184L670.423,317.69L667.904,320.22L666.178,322.896L667.49,324.09L665.04,325.254L665.005,326.419L662.555,324.556L661.244,324.556L661.555,322.46L660.416,322.78L660.52,320.365L657.552,318.94L661.037,316.759L662.969,317.661L665.661,316.469L665.764,313.446L666.8,310.977L666.558,307.145L665.523,306.826L667.352,304.215L668.559,301.229L667.662,300.881L669.353,295.723L667.283,294.942L666.109,292.712L664.833,292.423L662.555,289.906L660.899,290.195L659.277,288.951L660.865,286.724L659.795,285.481L660.658,282.476L663.245,282.765L665.488,281.956L667.904,282.736L668.559,283.805L673.149,279.847L672.769,277.624L675.323,277.134L675.909,279.53L678.428,282.331L680.982,281.291L682.051,282.534L683.742,281.869L686.813,278.375L691.195,274.883L693.128,274.941L695.163,273.325L696.751,274.191L699.028,273.845L698.718,275.835L698.683,277.249L698.51,277.538L698.441,277.596L698.718,278.086L698.58,278.346L700.822,280.858L703.514,279.472L703.514,279.472L706.516,277.509L709.552,274.739L710.381,276.441L713.003,279.183L711.657,280.829L712.658,282.765L716.212,278.692L717.178,276.672L722.768,272.806L723.217,274.22L724.942,273.816L725.874,271.192L727.806,270.673L729.807,268.655L729.566,267.445L732.085,266.149L736.501,262.521L739.193,261.628L742.885,259.643L745.646,260.823L749.269,260.564L749.89,263.586L751.512,265.198L753.409,265.256L757.309,258.981L757.412,256.623L758.482,255.215L756.687,254.755L756.653,252.312L755.549,252.226L755.514,249.067L757.032,247.488L758.896,247.201L760,245.135L758.896,243.959L757.516,238.368L757.861,236.42L755.445,231.067L751.822,231.009L750.856,229.55L748.095,227.434L745.715,227.663L747.095,225.519L742.885,224.947L739.711,222.918L733.534,223.318L734.535,220.519L735.604,220.262L734.086,218.806L733.741,214.782L731.05,213.698L727.633,214.155L725.598,213.328L723.562,213.128L720.939,213.898L717.765,213.527L714.142,214.525L708.552,213.869L708.621,212.387L706.999,211.474L708.448,210.534L708.241,209.251L703.721,208.226L703.479,206.089L699.684,204.011L697.579,201.962L692.023,199.117L687.296,198.861L683.673,195.819L680.878,195.28L678.842,193.745L677.876,192.041L674.667,192.24L669.526,188.379L667.214,188.038L665.316,186.733L663.66,187.783L659.105,187.13L657.483,188.35L658.035,189.372L658.035,189.372L658.001,189.4L658.001,189.4L659.139,189.77L662.107,192.95L660.83,194.569L657.621,193.688L656.034,194.228L657.034,196.018L655.206,196.871L657.483,198.634L656.448,199.601L653.963,198.15L651.272,199.857L655.999,205.805L658.38,206.175L658.656,207.542L660.796,208.681L662.245,208.425L662.659,210.306L666.731,211.588L665.074,212.9L665.592,215.153L667.386,216.751L665.833,216.722L663.004,218.378L661.555,218.52L658.622,220.89L658.38,223.547L655.758,223.832L656.034,225.318L651.03,226.09L649.857,225.633L647.476,226.462L647.58,227.834L649.305,228.035L648.857,231.038L645.371,233.242L647.166,235.16L642.093,238.999L638.919,239.858L638.505,241.865L641.024,241.034L641.783,242.553L638.194,247.517L637.263,247.89L638.263,250.56L640.127,251.106L636.952,252.599L635.813,254.927L633.536,254.64L633.846,258.579L636.469,259.154L634.295,260.593L628.429,265.63L624.875,264.133L623.529,264.277L623.357,261.715L622.183,260.506L619.561,260.995L616.87,264.046L613.074,262.549L609.623,262.175L607.795,263.068L608.657,264.709L606.173,266.811L606.173,266.811L604.516,268.569L606.414,270.557L607.484,272.806L609.692,273.931L607.933,276.528L604.689,279.385L605.552,280.165L603.619,280.829L601.376,283.805L599.72,288.401L596.891,291.15L595.165,295.086L593.13,298.07L586.504,304.998L585.228,304.766L585.469,306.478L583.985,307.639L583.847,307.784L583.778,307.755L583.744,307.61L581.881,307.987L579.707,305.289L579.396,305.376L577.636,307.958L575.877,308.626L573.013,308.19L571.598,307.262L570.977,308.306L570.977,308.306L568.699,309.09L565.732,308.539L565.283,306.768L563.903,305.898L563.938,303.78L562.385,303.2L562.661,301.258L560.107,299.605L558.969,296.853L559.003,296.853L558.969,296.853L559.003,296.853L559.003,296.853L559.038,296.853L559.038,296.853L560.694,296.245L558.969,293.668L556.105,292.394L555.242,293.436L552.654,293.494L549.342,292.77L548.72,295.781L547.202,296.476L544.269,296.303L543.441,297.403L541.888,296.708L541.302,298.533L539.507,298.302L539.3,299.026L537.748,299.634L534.815,296.998L534.159,293.031L532.123,291.902L532.158,293.089L528.776,291.352L526.499,289.125L521.53,289.211L519.149,287.36L516.112,287.071L514.939,285.626L513.076,286.117L511.282,288.517L510.971,290.86L508.728,291.96L509.039,295.897L509.039,295.897L506.244,295.81L503.69,294.594L503.414,296.94L505.795,298.272L504.691,299.605L500.136,299.75L499.55,300.011L498.721,301.489L502.103,301.142L500.861,302.736L501.206,302.794L501.344,302.91L501.344,303.113L504.656,304.389L504.484,305.782L506.589,306.246L507.175,307.871L509.004,307.668L510.902,309.032L509.211,311.442L509.625,312.43L508.038,314.26L508.866,316.004L510.074,316.149L508.349,318.969L502.897,319.173L501.344,320.191L500.895,324.381L498.342,326.419L495.685,325.837L495.409,328.283L492.2,327.526L490.026,330.876L488.163,331.255L487.334,332.887L485.299,334.083L485.782,336.27L487.61,340.356L487.403,341.348L490.371,340.56L490.371,340.56L491.061,341.494L489.577,342.487L492.579,342.575L493.442,343.626L492.131,346.343L492.234,348.623L494.753,347.98L494.408,349.909L497.445,350.202L497.893,351.255L499.929,350.465L504.07,350.377L504.967,351.898L507.624,349.968L508.59,353.8L508.107,356.17L509.522,358.542L510.833,358.806L509.522,360.124L511.144,362.204L510.246,363.874L511.627,365.311L511.385,366.572L513.593,368.419L513.352,369.652L515.215,369.182L516.457,370.15L519.666,370.532L522.979,367.979L524.773,367.539L526.982,368.566L527.465,371.324L528.672,370.561L530.398,371.735L533.02,371.588L534.4,370.532L536.298,371.412L539.542,374.701L538.472,376.287L539.714,378.431L540.059,380.694L541.819,382.635L541.75,385.694L544.131,389.402L543.303,391.11ZM698.683,277.249L698.718,275.835L697.958,277.624L698.303,277.596L698.441,277.596L698.51,277.538ZM501.344,303.113L501.344,302.91L501.206,302.794L500.861,302.736ZM698.303,277.596L697.958,277.624L698.58,278.346L698.718,278.086ZM583.985,307.639L583.744,307.61L583.778,307.755L583.847,307.784Z M254.006,467.007L254.144,468.289L252.729,472.317L253.419,472.794L252.246,476.795L257.422,479.125L257.318,480.41L259.423,480.619L259.596,483.548L262.045,483.548L265.082,484.625L266.98,486.988L264.702,490.908L266.29,491.925L266.428,493.632L269.016,492.644L270.292,493.183L269.568,490.758L270.706,490.07L273.363,491.087L269.982,495.339L271.569,496.418L270.43,498.246L270.465,500.164L267.152,500.254L266.773,500.973L268.291,504.362L270.292,506.372L272.984,506.132L274.295,507.962L276.296,508.683L280.334,512.346L280.196,514.118L281.61,514.719L280.472,516.281L278.056,517.153L277.435,518.475L279.919,521.542L283.267,520.61L285.889,521.843L287.925,524.701L289.857,525.393L289.236,527.711L291.652,529.517L291.41,531.565L292.652,531.385L294.999,528.584L296.655,528.223L298.07,529.397L301.796,528.734L305.109,530.481L306.662,530.3L309.146,528.012L310.423,525.905L314.218,523.467L314.356,522.234L320.188,520.43L322.603,517.513L325.295,517.303L330.988,515.169L332.61,513.817L335.888,515.26L336.406,516.912L334.266,520.099L337.544,521.723L340.374,522.354L342.065,519.077L344.618,517.393L347.31,516.972L349.863,513.727L350.657,515.169L355.28,515.049L356.557,513.307L356.005,510.994L356.074,507.092L358.351,506.912L359.594,505.322L359.594,503.012L358.627,502.952L358.11,496.927L356.937,496.088L357.109,494.321L355.729,491.177L356.178,490.698L354.763,487.197L353.797,486.898L350.829,483.01L350.76,478.02L349.414,476.616L351.795,470.616L351.278,465.367L350.104,463.638L350.139,461.343L351.036,460.33L353.348,455.388L356.074,457.501L359.766,455.179L361.181,455.894L364.562,454.554L364.735,452.888L367.323,448.784L369.669,446.197L372.671,446.643L373.016,442.662L376.225,440.108L377.364,438.416L378.675,438.386L382.471,434.44L383.955,433.58L385.197,430.852L384.783,427.117L387.716,423.297L385.542,424.037L383.886,420.218L382.367,420.899L380.78,419.597L382.989,415.249L386.508,412.647L388.751,409.161L392.719,407.507L395.411,409.072L395.963,410.963L398.102,408.865L399.828,409.013L403.071,406.119L405.797,404.377L404.451,402.105L404.831,400.6L403.071,397.445L403.14,396.325L400.449,392.671L401.622,390.551L403.623,389.196L403.313,388.195L404.313,384.723L406.384,387.371L407.626,386.724L410.076,388.431L416.011,386.93L418.047,388.284L419.254,386.577L422.222,386.077L425.603,386.488L426.811,385.076L428.191,386.694L430.296,387.607L433.54,385.723L436.507,386.989L436.059,388.578L433.712,388.784L432.608,390.992L430.779,391.788L427.26,392.053L427.674,394.115L426.915,399.48L428.467,402.872L430.262,404.908L431.883,403.374L434.23,403.61L434.678,405.765L436.197,406.975L437.853,406.975L438.578,408.57L437.473,410.254L435.196,410.726L435.438,412.381L437.577,413.002L437.818,415.722L435.127,416.964L433.574,419.212L429.71,419.242L429.951,420.07L432.988,421.372L435.127,424.777L437.853,426.14L441.131,428.925L442.097,428.303L444.789,431.029L446.721,430.051L448.136,430.466L450.551,428.777L454.312,427.591L455.347,428.569L457.314,427.621L459.868,427.68L462.421,426.88L464.112,425.518L463.284,424.215L467.287,420.928L467.597,418.561L468.805,418.502L472.152,416.668L475.395,418.058L478.121,418.088L479.157,419.035L478.087,420.899L479.122,422.349L480.916,422.616L482.573,421.58L483.849,422.26L484.643,425.695L481.744,427.947L483.228,431.741L486.23,432.69L484.022,433.58L485.126,434.944L484.954,438.208L485.954,438.624L488.508,436.16L493.338,434.677L497.169,435.033L500.067,437.792L502.586,438.03L503.621,440.791L505.899,439.811L509.039,439.811L509.177,438.564L511.696,437.882L516.216,438.505L517.32,437.08L520.391,436.279L520.702,437.229L523.876,436.101L526.016,436.279L528.293,434.588L531.467,434.44L535.539,435.864L538.3,435.122L541.888,432.808L543.614,429.992L542.923,427.769L541.785,427.74L541.957,425.636L543.096,424.748L540.75,421.698L538.507,421.432L539.645,418.354L536.298,414.569L532.848,412.972L529.949,412.972L523.359,416.047L521.564,414.066L518.838,415.396L516.906,413.15L518.528,408.777L516.216,407.772L514.87,404.938L512.8,403.285L511.523,404.82L511.523,404.82L510.005,405.115L509.591,406.857L507.279,406.178L504.518,403.934L505.381,401.78L504.76,397.946L503,397.504L503.621,393.084L506.934,392.17L507.52,389.108L508.625,389.226L510.419,387.548L511.109,389.02L512.627,387.872L513.973,388.49L518.252,388.755L518.528,384.517L521.219,383.635L522.841,379.46L524.773,380.43L526.43,383.164L529.501,383.9L530.501,386.459L533.02,386.077L534.297,386.842L535.056,389.108L538.99,391.876L541.095,391.994L541.785,393.791L544.269,395.559L545.96,395.205L545.684,392.642L543.303,391.11L544.131,389.402L541.75,385.694L541.819,382.635L540.059,380.694L539.714,378.431L538.472,376.287L539.542,374.701L536.298,371.412L534.4,370.532L533.02,371.588L530.398,371.735L528.672,370.561L527.465,371.324L526.982,368.566L524.773,367.539L522.979,367.979L519.666,370.532L516.457,370.15L515.215,369.182L513.352,369.652L513.593,368.419L511.385,366.572L511.627,365.311L510.246,363.874L511.144,362.204L509.522,360.124L510.833,358.806L509.522,358.542L508.107,356.17L508.59,353.8L507.624,349.968L504.967,351.898L504.07,350.377L499.929,350.465L497.893,351.255L497.445,350.202L494.408,349.909L494.753,347.98L492.234,348.623L492.131,346.343L493.442,343.626L492.579,342.575L489.577,342.487L491.061,341.494L490.371,340.56L490.371,340.56L487.403,341.348L487.61,340.356L485.782,336.27L485.299,334.083L487.334,332.887L488.163,331.255L490.026,330.876L492.2,327.526L495.409,328.283L495.685,325.837L498.342,326.419L500.895,324.381L501.344,320.191L502.897,319.173L508.349,318.969L510.074,316.149L508.866,316.004L508.038,314.26L509.625,312.43L509.211,311.442L510.902,309.032L509.004,307.668L507.175,307.871L506.589,306.246L504.484,305.782L504.656,304.389L501.344,303.113L500.861,302.736L502.103,301.142L498.721,301.489L499.55,300.011L499.86,299.547L499.998,299.663L500.136,299.75L504.691,299.605L505.795,298.272L503.414,296.94L503.69,294.594L506.244,295.81L509.039,295.897L509.039,295.897L508.728,291.96L510.971,290.86L511.282,288.517L513.076,286.117L514.939,285.626L516.112,287.071L519.149,287.36L521.53,289.211L526.499,289.125L528.776,291.352L532.158,293.089L532.123,291.902L534.159,293.031L534.815,296.998L537.748,299.634L539.3,299.026L539.3,298.62L539.3,298.417L539.507,298.302L541.302,298.533L541.888,296.708L543.441,297.403L544.269,296.303L547.202,296.476L548.72,295.781L549.342,292.77L552.654,293.494L555.242,293.436L556.105,292.394L558.969,293.668L560.694,296.245L559.038,296.853L559.038,296.853L559.003,296.853L559.003,296.853L558.969,296.853L559.003,296.853L558.969,296.853L560.107,299.605L562.661,301.258L562.385,303.2L563.938,303.78L563.903,305.898L565.283,306.768L565.732,308.539L568.699,309.09L570.977,308.306L570.977,308.306L571.598,307.262L573.013,308.19L575.877,308.626L577.636,307.958L579.396,305.376L579.362,305.114L579.431,305.114L579.465,305.143L579.534,305.143L579.603,305.114L579.638,305.143L579.707,305.289L581.881,307.987L583.744,307.61L583.985,307.639L585.469,306.478L585.228,304.766L586.504,304.998L593.13,298.07L595.165,295.086L596.891,291.15L599.72,288.401L601.376,283.805L603.619,280.829L605.552,280.165L604.689,279.385L607.933,276.528L609.692,273.931L607.484,272.806L606.414,270.557L604.516,268.569L606.173,266.811L606.173,266.811L608.657,264.709L607.795,263.068L609.623,262.175L613.074,262.549L616.87,264.046L619.561,260.995L622.183,260.506L623.357,261.715L623.529,264.277L624.875,264.133L628.429,265.63L634.295,260.593L636.469,259.154L633.846,258.579L633.536,254.64L635.813,254.927L636.952,252.599L640.127,251.106L638.263,250.56L637.263,247.89L638.194,247.517L641.783,242.553L641.024,241.034L638.505,241.865L638.919,239.858L642.093,238.999L647.166,235.16L645.371,233.242L648.857,231.038L649.305,228.035L647.58,227.834L647.476,226.462L649.857,225.633L651.03,226.09L656.034,225.318L655.758,223.832L658.38,223.547L658.622,220.89L661.555,218.52L663.004,218.378L665.833,216.722L667.386,216.751L665.592,215.153L665.074,212.9L666.731,211.588L662.659,210.306L662.245,208.425L660.796,208.681L658.656,207.542L658.38,206.175L655.999,205.805L651.272,199.857L653.963,198.15L656.448,199.601L657.483,198.634L655.206,196.871L657.034,196.018L656.034,194.228L657.621,193.688L660.83,194.569L662.107,192.95L659.139,189.77L658.001,189.4L658.001,189.4L658.035,189.372L658.035,189.372L657.483,188.35L659.105,187.13L663.66,187.783L665.316,186.733L665.178,184.237L663.073,182.848L659.967,183.869L658.587,183.245L654.17,185.003L650.237,182.621L646.821,185.598L645.544,184.606L644.785,185.712L641.61,184.946L637.78,186.137L638.125,188.067L635.606,189.826L632.535,186.96L630.603,185.995L629.154,186.733L626.221,184.124L622.943,179.051L620.389,179.419L618.871,175.766L617.042,174.832L614.247,174.945L610.279,176.587L608.174,174.181L606.311,174.605L606.552,172.596L605.31,171.917L605.172,168.326L602.136,167.733L600.721,169.627L598.305,170.56L596.856,172.398L595.51,175.426L592.612,173.983L591.37,171.776L587.85,170.984L585.228,167.62L586.78,164.342L586.263,161.631L584.089,159.571L584.469,158.301L581.432,157.596L575.842,158.555L575.324,157.596L572.599,157.427L570.839,158.499L569.148,158.076L568.596,156.778L565.801,156.581L562.247,159.091L559.831,159.797L557.519,159.458L553.724,160.559L552.62,161.631L549.997,161.039L548.306,163.467L546.512,162.902L544.2,160.418L541.578,159.91L539.714,160.277L538.99,159.148L534.469,158.922L531.433,157.681L528.707,155.538L528.776,155.227L529.949,151.845L528.707,151.592L527.189,149.564L525.36,151.536L522.979,150.437L520.874,151.733L518.735,151.028L516.25,152.184L514.905,151.817L514.767,154.861L512.351,155.989L511.765,155.002L508.97,155.453L506.658,157.314L502.103,158.837L501.482,157.173L500.274,157.399L499.791,153.508L498.618,153.705L498.066,150.521L496.444,149.085L496.651,146.917L494.891,145.904L491.889,146.355L491.544,148.381L490.026,148.916L490.889,150.352L490.889,150.352L492.648,154.072L494.132,155.03L493.822,156.948L489.336,158.076L488.128,159.769L485.368,161.208L483.435,161.462L480.985,160.672L480.744,162.337L479.053,163.41L474.912,164.737L473.118,162.309L470.185,161.575L464.492,163.975L462.076,164.342L460.04,161.377L458.626,160.869L457.245,161.97L454.105,162.422L451.69,160.277L448.688,160.926L445.858,159.035L445.306,157.54L442.166,157.201L441.338,155.791L438.371,156.073L433.057,151.93L429.157,151.197L428.191,147.452L428.812,145.201L432.021,145.341L433.85,144.61L434.161,142.304L436.542,141.376L434.609,139.998L431.573,139.858L433.85,135.868L432.332,133.089L431.055,129.442L430.814,126.918L429.675,124.928L431.366,124.312L434.299,125.264L436.197,123.667L433.609,122.659L429.054,123.135L427.915,120.055L425.017,119.327L424.603,116.949L422.774,115.494L421.359,111.581L422.567,108.396L418.461,104.823L415.252,103.54L411.559,104.405L404.9,103.763L400.242,105.074L395.342,103.121L394.065,103.568L392.823,102.284L389.89,101.866L388.234,102.786L387.578,104.377L385.784,103.986L387.198,101.671L385.68,96.765L382.678,97.044L380.987,99.803L376.502,100.333L372.257,98.604L372.602,97.044L370.636,96.375L369.428,97.462L365.908,96.849L365.253,96.097L366.805,91.531L365.874,89.917L364.01,89.778L363.389,88.582L365.46,86.024L364.908,83.912L363.355,84.023L363.907,82.273L366.667,81.496L363.458,79.663L363.596,76.888L362.251,75.779L359.559,75.03L356.971,75.612L355.142,74.448L355.384,71.814L353.797,69.598L351.692,68.435L348.793,69.099L348.621,70.789L345.343,70.678L344.307,72.701L341.443,72.757L339.546,74.836L337.82,75.169L337.096,76.667L334.163,77.693L337.372,79.608L336.992,81.468L335.129,80.385L329.297,81.135L327.02,81.885L325.122,81.079L323.397,84.107L322.603,87.553L319.981,87.665L318.325,86.302L316.703,87.22L314.563,86.719L313.287,88.026L310.043,86.914L308.249,87.915L314.805,93.73L315.254,95.985L314.253,97.908L317.22,98.075L318.808,99.719L316.565,101.699L319.808,101.336L318.29,104.711L320.05,108.061L325.295,109.793L327.4,111.553L325.64,112.168L326.468,113.901L326.537,116.809L325.709,116.501L322.638,119.327L321.292,118.88L318.014,119.691L317.22,118.796L315.081,119.047L312.838,122.407L311.389,123.107L312.804,128.096L311.872,129.47L309.595,128.376L308.732,126.638L307.179,125.825L305.626,129.245L305.626,130.507L303.694,131.349L300.278,130.788L297,131.517L296.241,133.37L294.308,134.38L293.101,136.205L290.858,135.307L291.755,131.63L291.099,130.003L287.752,128.039L287.718,126.918L293.756,124.368L294.308,120.475L295.896,118.124L297.621,117.173L295.378,114.991L295.413,111.776L294.136,109.597L291.893,108.229L291.168,110.91L288.477,110.798L287.683,111.804L288.166,112.084L287.683,116.445L283.577,117.676L281.783,120.475L280.989,123.892L282.576,125.32L285.82,126.301L284.371,130.059L281.231,132.864L281.645,134.38L280.092,136.318L275.848,132.612L273.467,131.181L271.914,129.273L267.187,129.357L266.255,130.367L266.669,133.145L265.979,133.398L261.252,127.282L256.801,127.619L254.834,126.89L253.384,128.74L251.59,129.582L251.073,131.069L254.109,136.374L252.66,137.16L252.798,138.818L254.937,139.661L254.213,141.432L254.903,142.866L251.832,142.585L252.142,144.666L251.556,147.03L254.592,147.987L257.146,150.071L257.905,151.789L257.111,157.342L253.419,160.954L251.59,161.123L248.933,159.769L246.311,161.01L244.447,162.845L242.17,163.212L240.79,164.37L238.305,162.563L235.303,161.66L231.784,161.942L227.264,160.023L228.471,161.857L228.368,163.834L226.297,162.817L225.642,163.495L225.435,167.393L224.745,168.524L222.364,166.998L219.12,166.094L217.533,162.591L214.91,159.091L213.841,159.091L212.115,157.004L209.769,158.866L210.942,155.65L207.595,157.709L203.075,156.412L201.522,159.007L201.453,161.575L200.245,164.031L199.21,162.676L194.724,162.139L193.517,160.531L196.381,157.427L195.139,153.057L195.484,151.113L192.206,147.818L190.239,147.818L190.722,145.961L186.132,144.891L185.649,142.725L181.716,139.436L181.716,142.36L180.232,145.257L177.679,145.313L176.712,144.413L175.367,146.214L176.919,148.522L175.505,151.733L175.16,154.889L172.779,156.976L171.813,155.058L168.776,154.607L168.431,153.705L165.567,153.79L163.842,151L157.941,149.705L153.628,147.593L152.386,148.409L147.624,148.804L146.382,146.242L145.726,142.979L144.587,142.472L143.552,139.998L139.55,139.408L137.617,137.554L133.925,136.683L133.373,137.441L130.958,136.486L130.716,135.531L128.197,135.335L124.643,133.538L121.606,129.694L121.468,126.834L119.088,126.47L120.226,121.231L117.776,119.187L118.121,115.215L117.19,113.789L114.533,112.699L112.842,111.245L113.084,108.648L111.427,107.81L111.117,106.274L113.325,105.716L110.737,103.735L109.184,101.002L106.769,100.165L105.596,98.632L104.215,98.911L104.147,97.378L102.49,94.454L100.903,94.76L99.35,93.396L100.385,90.835L99.799,88.387L101.213,86.997L100.523,84.329L98.764,82.996L98.936,81.19L95.831,80.663L91,81.301L88.101,81.246L85.41,79.969L82.028,79.081L78.129,79.081L73.988,75.28L70.848,74.226L65.914,74.337L65.155,74.808L65.155,74.808L64.741,75.723L64.741,75.723L63.464,77.083L57.805,78.859L59.875,83.912L57.08,86.052L57.495,88.415L55.769,90.474L54.216,89.889L49.765,91.392L48.73,90.891L46.315,92.282L42.657,92.171L42.829,94.454L41.346,94.816L41.415,96.18L43.278,97.434L44.21,99.691L43.934,101.169L44.9,103.763L43.796,108.061L45.728,109.374L49.834,109.653L49.179,112.81L51.456,115.886L55.562,116.138L58.323,117.732L62.774,119.019L58.392,122.883L55.39,123.107L54.562,127.198L51.249,130.564L47.833,132.556L48.419,134.268L47.798,135.981L49.489,136.514L50.904,139.97L48.523,141.348L49.869,142.613L45.072,143.316L41.553,144.413L40,147.818L41.587,148.353L42.519,151.592L42.139,154.353L44.555,157.991L44.244,158.527L47.557,161.349L50.49,162.252L50.973,163.184L54.562,163.608L55.079,165.161L59.772,168.043L61.463,168.467L65.086,168.807L65.741,169.994L68.916,170.051L69.813,170.758L73.195,170.984L80.993,174.747L82.546,176.077L83.546,175.539L88.791,178.824L88.239,180.184L89.447,183.301L88.791,184.861L91.103,186.308L93.519,191.189L96.555,193.12L99.212,195.478L99.109,196.502L100.903,197.582L100.765,202.332L98.902,203.84L100.42,206.032L99.764,207.399L102.387,209.194L105.044,211.902L105.492,213.841L107.114,213.841L107.563,217.036L111.22,220.89L113.014,221.604L115.568,223.861L116.569,225.519L123.849,229.951L123.78,230.723L126.23,233.041L121.952,236.85L121.675,238.397L119.847,240.059L115.292,235.361L112.6,235.046L111.048,237.022L110.358,239.601L111.462,241.636L110.289,243.27L114.36,245.393L116.327,247.431L116.431,249.383L117.811,251.278L119.95,252.283L121.71,254.266L121.192,256.911L119.916,259.183L121.192,260.794L124.16,262.463L127.231,266.206L130.198,267.186L130.509,269.26L127.369,270.932L128.197,275.922L129.163,276.499L128.439,278.144L128.749,280.829L130.612,284.845L130.716,291.294L131.82,294.334L130.923,295.434L132.165,297.983L131.51,299.808L131.958,301.547L135.064,305.579L134.615,307.029L135.65,312.371L136.375,313.882L133.891,318.678L133.615,321.703L132.131,328.137L133.373,332.042L135.478,334.491L135.064,336.941L136.306,342.487L135.857,342.691L136.789,348.36L138.963,352.425L138.928,353.683L138.445,356.961L139.17,360.417L138.928,361.999L139.964,368.948L139.48,372.234L138.376,374.936L138.963,379.195L140.067,380.93L139.653,382.988L140.826,386.194L142.862,389.108L142.103,390.374L143.311,394.38L143.035,397.445L141.792,398.271L143.794,401.603L145.416,402.459L145.864,404.289L148.763,406.06L149.729,409.338L153.559,411.908L155.664,405.558L154.56,404.259L157.044,399.775L155.215,397.209L156.457,396.649L154.767,394.586L155.146,391.493L158.528,391.316L158.666,389.609L160.805,387.401L162.841,387.165L162.358,384.135L163.566,382.282L166.982,380.636L166.706,378.167L167.603,376.463L170.467,376.698L172.779,374.671L173.02,379.666L174.884,382.811L177.057,382.929L179.335,385.076L179.3,386.9L181.474,386.694L181.612,387.813L184.028,388.519L187.754,392.436L188.03,395.382L192.723,398.212L191.791,401.426L196.243,402.488L198.451,403.875L196.829,405.912L199.141,407.95L197.174,410.431L194.345,410.785L193.689,411.938L192.067,411.229L190.446,411.761L189.756,413.859L191.757,416.609L193.551,420.455L195.346,421.047L199.59,425.666L198.106,427.265L200.383,428.984L205.87,429.873L205.87,431.593L204.593,432.957L205.663,433.935L206.042,437.555L206.94,437.763L208.216,435.775L211.667,432.393L213.392,429.577L216.843,430.377L217.222,431.741L219.12,432.779L222.709,429.992L224.123,426.821L226.746,426.406L228.885,430.022L228.195,433.253L230.99,434.974L232.025,436.487L232.405,439.366L236.097,440.464L234.958,443.612L236.477,443.167L239.686,448.902L239.065,452.709L241.066,451.817L241.894,454.197L245.828,459.467L246.069,462.952L246.966,465.695L248.623,467.215L251.28,466.41L254.006,467.007ZM539.507,298.302L539.3,298.417L539.3,298.62L539.3,299.026ZM579.431,305.114L579.362,305.114L579.396,305.376L579.707,305.289L579.638,305.143L579.603,305.114L579.534,305.143L579.465,305.143ZM499.998,299.663L499.86,299.547L499.55,300.011L500.136,299.75Z" fill="none" stroke="#2e7d32" stroke-width="1.5" stroke-linejoin="round" stroke-linecap="round" opacity="0.6" />
</svg>